<?xml version="1.0" encoding="UTF-8" standalone="no"?><svg xmlns="http://www.w3.org/2000/svg" xmlns:xlink="http://www.w3.org/1999/xlink" contentScriptType="application/ecmascript" contentStyleType="text/css" height="221px" preserveAspectRatio="none" style="width:326px;height:221px;" version="1.1" viewBox="0 0 326 221" width="326px" zoomAndPan="magnify"><defs><filter height="300%" id="f1m2427qxygl00" width="300%" x="-1" y="-1"><feGaussianBlur result="blurOut" stdDeviation="2.0"/><feColorMatrix in="blurOut" result="blurOut2" type="matrix" values="0 0 0 0 0 0 0 0 0 0 0 0 0 0 0 0 0 0 .4 0"/><feOffset dx="4.0" dy="4.0" in="blurOut2" result="blurOut3"/><feBlend in="SourceGraphic" in2="blurOut3" mode="normal"/></filter></defs><g><!--MD5=[0dc7f2ddb409b58bcf52b12238c25399]
class Ship--><rect codeLine="4" fill="#FEFECE" filter="url(#f1m2427qxygl00)" height="200.1953" id="Ship" style="stroke:#A80036;stroke-width:1.5;" width="132" x="7" y="7"/><ellipse cx="56.25" cy="23" fill="#ADD1B2" rx="11" ry="11" style="stroke:#A80036;stroke-width:1.0;"/><path d="M54.75,24 L54.75,26 L58.75,26 L58.75,25 L58.75,24.5156 L59.375,24 L59.75,24 L60.125,24 L60.75,24.5156 L60.75,25 L60.75,28 L52.75,28 L52.2656,28 L51.75,27.375 L51.75,27 L51.75,26.625 L52.2656,26 L52.75,26 L52.75,26 L52.75,20 L52.75,20 L52.2656,20 L51.75,19.375 L51.75,19 L51.75,18.625 L52.2656,18 L52.75,18 L60.75,18 L60.75,21 L60.75,21.4844 L60.125,22 L59.75,22 L59.375,22 L58.75,21.4844 L58.75,21 L58.75,20 L54.75,20 L54.75,22 L55.75,22 L55.75,21.5156 L55.75,21.5156 L56.375,21 L56.75,21 L57.125,21 L57.75,21.5156 L57.75,22 L57.75,24 L57.75,24.4844 L57.125,25 L57.125,25 L56.75,25 L56.375,25 L55.75,24.4844 L55.75,24.4844 L55.75,24 L54.75,24 Z " fill="#000000"/><text fill="#000000" font-family="sans-serif" font-size="12" lengthAdjust="spacing" textLength="25" x="76.75" y="27.9102">Ship</text><line style="stroke:#A80036;stroke-width:1.5;" x1="8" x2="138" y1="39" y2="39"/><ellipse cx="18" cy="50" fill="#000000" rx="3" ry="3" style="stroke:#000000;stroke-width:1.0;"/><text fill="#000000" font-family="sans-serif" font-size="11" lengthAdjust="spacing" textLength="46" x="27" y="54.4189">imo_code</text><line style="stroke:#A80036;stroke-width:1.0;" x1="8" x2="138" y1="60.8359" y2="60.8359"/><ellipse cx="18" cy="71.8359" fill="#000000" rx="3" ry="3" style="stroke:#000000;stroke-width:1.0;"/><text fill="#000000" font-family="sans-serif" font-size="11" lengthAdjust="spacing" textLength="54" x="27" y="76.2549">mmsi_code</text><ellipse cx="18" cy="85.6719" fill="#000000" rx="3" ry="3" style="stroke:#000000;stroke-width:1.0;"/><text fill="#000000" font-family="sans-serif" font-size="11" lengthAdjust="spacing" textLength="52" x="27" y="90.0908">name_ship</text><ellipse cx="18" cy="99.5078" fill="#000000" rx="3" ry="3" style="stroke:#000000;stroke-width:1.0;"/><text fill="#000000" font-family="sans-serif" font-size="11" lengthAdjust="spacing" textLength="95" x="27" y="103.9268">number_generators</text><ellipse cx="18" cy="113.3438" fill="#000000" rx="3" ry="3" style="stroke:#000000;stroke-width:1.0;"/><text fill="#000000" font-family="sans-serif" font-size="11" lengthAdjust="spacing" textLength="106" x="27" y="117.7627">power_out_generator</text><ellipse cx="18" cy="127.1797" fill="#000000" rx="3" ry="3" style="stroke:#000000;stroke-width:1.0;"/><text fill="#000000" font-family="sans-serif" font-size="11" lengthAdjust="spacing" textLength="42" x="27" y="131.5986">call_sign</text><ellipse cx="18" cy="141.0156" fill="#000000" rx="3" ry="3" style="stroke:#000000;stroke-width:1.0;"/><text fill="#000000" font-family="sans-serif" font-size="11" lengthAdjust="spacing" textLength="59" x="27" y="145.4346">vessel_type</text><ellipse cx="18" cy="154.8516" fill="#000000" rx="3" ry="3" style="stroke:#000000;stroke-width:1.0;"/><text fill="#000000" font-family="sans-serif" font-size="11" lengthAdjust="spacing" textLength="59" x="27" y="159.2705">Length_ship</text><ellipse cx="18" cy="168.6875" fill="#000000" rx="3" ry="3" style="stroke:#000000;stroke-width:1.0;"/><text fill="#000000" font-family="sans-serif" font-size="11" lengthAdjust="spacing" textLength="53" x="27" y="173.1064">width_ship</text><ellipse cx="18" cy="182.5234" fill="#000000" rx="3" ry="3" style="stroke:#000000;stroke-width:1.0;"/><text fill="#000000" font-family="sans-serif" font-size="11" lengthAdjust="spacing" textLength="67" x="27" y="186.9424">capacity_ship</text><ellipse cx="18" cy="196.3594" fill="#000000" rx="3" ry="3" style="stroke:#000000;stroke-width:1.0;"/><text fill="#000000" font-family="sans-serif" font-size="11" lengthAdjust="spacing" textLength="23" x="27" y="200.7783">draft</text><!--MD5=[c0857de9599e12358ac6f6966702e57b]
class Position_Ship--><rect codeLine="19" fill="#FEFECE" filter="url(#f1m2427qxygl00)" height="172.5234" id="Position_Ship" style="stroke:#A80036;stroke-width:1.5;" width="113" x="199" y="20.5"/><ellipse cx="215.8" cy="36.5" fill="#ADD1B2" rx="11" ry="11" style="stroke:#A80036;stroke-width:1.0;"/><path d="M214.3,37.5 L214.3,39.5 L218.3,39.5 L218.3,38.5 L218.3,38.0156 L218.925,37.5 L219.3,37.5 L219.675,37.5 L220.3,38.0156 L220.3,38.5 L220.3,41.5 L212.3,41.5 L211.8156,41.5 L211.3,40.875 L211.3,40.5 L211.3,40.125 L211.8156,39.5 L212.3,39.5 L212.3,39.5 L212.3,33.5 L212.3,33.5 L211.8156,33.5 L211.3,32.875 L211.3,32.5 L211.3,32.125 L211.8156,31.5 L212.3,31.5 L220.3,31.5 L220.3,34.5 L220.3,34.9844 L219.675,35.5 L219.3,35.5 L218.925,35.5 L218.3,34.9844 L218.3,34.5 L218.3,33.5 L214.3,33.5 L214.3,35.5 L215.3,35.5 L215.3,35.0156 L215.3,35.0156 L215.925,34.5 L216.3,34.5 L216.675,34.5 L217.3,35.0156 L217.3,35.5 L217.3,37.5 L217.3,37.9844 L216.675,38.5 L216.675,38.5 L216.3,38.5 L215.925,38.5 L215.3,37.9844 L215.3,37.9844 L215.3,37.5 L214.3,37.5 Z " fill="#000000"/><text fill="#000000" font-family="sans-serif" font-size="12" lengthAdjust="spacing" textLength="77" x="230.2" y="41.4102">Position_Ship</text><line style="stroke:#A80036;stroke-width:1.5;" x1="200" x2="311" y1="52.5" y2="52.5"/><ellipse cx="210" cy="63.5" fill="#000000" rx="3" ry="3" style="stroke:#000000;stroke-width:1.0;"/><text fill="#000000" font-family="sans-serif" font-size="11" lengthAdjust="spacing" textLength="46" x="219" y="67.9189">imo_code</text><ellipse cx="210" cy="77.3359" fill="#000000" rx="3" ry="3" style="stroke:#000000;stroke-width:1.0;"/><text fill="#000000" font-family="sans-serif" font-size="11" lengthAdjust="spacing" textLength="76" x="219" y="81.7549">base_date_time</text><line style="stroke:#A80036;stroke-width:1.0;" x1="200" x2="311" y1="88.1719" y2="88.1719"/><ellipse cx="210" cy="99.1719" fill="#000000" rx="3" ry="3" style="stroke:#000000;stroke-width:1.0;"/><text fill="#000000" font-family="sans-serif" font-size="11" lengthAdjust="spacing" textLength="34" x="219" y="103.5908">latitude</text><ellipse cx="210" cy="113.0078" fill="#000000" rx="3" ry="3" style="stroke:#000000;stroke-width:1.0;"/><text fill="#000000" font-family="sans-serif" font-size="11" lengthAdjust="spacing" textLength="43" x="219" y="117.4268">longitude</text><ellipse cx="210" cy="126.8438" fill="#000000" rx="3" ry="3" style="stroke:#000000;stroke-width:1.0;"/><text fill="#000000" font-family="sans-serif" font-size="11" lengthAdjust="spacing" textLength="18" x="219" y="131.2627">sog</text><ellipse cx="210" cy="140.6797" fill="#000000" rx="3" ry="3" style="stroke:#000000;stroke-width:1.0;"/><text fill="#000000" font-family="sans-serif" font-size="11" lengthAdjust="spacing" textLength="18" x="219" y="145.0986">cog</text><ellipse cx="210" cy="154.5156" fill="#000000" rx="3" ry="3" style="stroke:#000000;stroke-width:1.0;"/><text fill="#000000" font-family="sans-serif" font-size="11" lengthAdjust="spacing" textLength="38" x="219" y="158.9346">heading</text><ellipse cx="210" cy="168.3516" fill="#000000" rx="3" ry="3" style="stroke:#000000;stroke-width:1.0;"/><text fill="#000000" font-family="sans-serif" font-size="11" lengthAdjust="spacing" textLength="37" x="219" y="172.7705">position</text><ellipse cx="210" cy="182.1875" fill="#000000" rx="3" ry="3" style="stroke:#000000;stroke-width:1.0;"/><text fill="#000000" font-family="sans-serif" font-size="11" lengthAdjust="spacing" textLength="87" x="219" y="186.6064">transceiver_class</text><!--MD5=[50831477f7bfd7c7a2e1d5eeaa7299a6]
link Ship to Position_Ship--><path codeLine="32" d="M147.52,107 C161.88,107 176.83,107 190.84,107 " fill="none" id="Ship-Position_Ship" style="stroke:#A80036;stroke-width:1.0;"/><line style="stroke:#A80036;stroke-width:1.0;" x1="190.96" x2="198.96" y1="107" y2="101"/><line style="stroke:#A80036;stroke-width:1.0;" x1="190.96" x2="198.96" y1="107" y2="113"/><line style="stroke:#A80036;stroke-width:1.0;" x1="190.96" x2="198.96" y1="107" y2="107"/><ellipse cx="184.96" cy="107" fill="none" rx="4" ry="4" style="stroke:#A80036;stroke-width:1.0;"/><line style="stroke:#A80036;stroke-width:1.0;" x1="143.16" x2="143.16" y1="111" y2="103"/><line style="stroke:#A80036;stroke-width:1.0;" x1="146.16" x2="146.16" y1="111" y2="103"/><line style="stroke:#A80036;stroke-width:1.0;" x1="147.16" x2="139.16" y1="107" y2="107"/><!--MD5=[233dd7696d2c982d7872b6e4c1be26b5]
@startuml

left to right direction

entity Ship {
* imo_code
- -
* mmsi_code
* name_ship
* number_generators
* power_out_generator
* call_sign
* vessel_type
* Length_ship
* width_ship
* capacity_ship
* draft
}

entity Position_Ship {
* imo_code
* base_date_time
- -
* latitude
* longitude
* sog
* cog
* heading
* position
* transceiver_class
}

Ship ||- -o{ Position_Ship

@enduml

PlantUML version 1.2021.00(Sun Jan 10 10:25:05 GMT 2021)
(GPL source distribution)
Java Runtime: OpenJDK Runtime Environment
JVM: OpenJDK 64-Bit Server VM
Default Encoding: Cp1252
Language: en
Country: GB
--></g></svg>