<?xml version="1.0" encoding="UTF-8" standalone="no"?><svg xmlns="http://www.w3.org/2000/svg" xmlns:xlink="http://www.w3.org/1999/xlink" contentScriptType="application/ecmascript" contentStyleType="text/css" height="545px" preserveAspectRatio="none" style="width:436px;height:545px;" version="1.1" viewBox="0 0 436 545" width="436px" zoomAndPan="magnify"><defs><filter height="300%" id="f1bkq9yzfir8e6" width="300%" x="-1" y="-1"><feGaussianBlur result="blurOut" stdDeviation="2.0"/><feColorMatrix in="blurOut" result="blurOut2" type="matrix" values="0 0 0 0 0 0 0 0 0 0 0 0 0 0 0 0 0 0 .4 0"/><feOffset dx="4.0" dy="4.0" in="blurOut2" result="blurOut3"/><feBlend in="SourceGraphic" in2="blurOut3" mode="normal"/></filter></defs><g><!--MD5=[4261f0da8af581508a37af118d0048b9]
class ContainerOperationsUI--><rect codeLine="3" fill="#FEFECE" filter="url(#f1bkq9yzfir8e6)" height="61.8359" id="ContainerOperationsUI" style="stroke:#A80036;stroke-width:1.5;" width="159" x="78" y="470"/><ellipse cx="93" cy="486" fill="#ADD1B2" rx="11" ry="11" style="stroke:#A80036;stroke-width:1.0;"/><path d="M95,482.5 Q95.2031,482 95.4375,481.75 Q95.6719,481.5 95.9375,481.5 Q96.4063,481.5 96.7031,481.7813 Q97,482.0625 97,482.7188 L97,484.2813 Q97,484.9375 96.7188,485.2188 Q96.4375,485.5 96,485.5 Q95.6094,485.5 95.3594,485.3281 Q95.1094,485.1563 95,484.7031 Q94.9531,484.3906 94.7813,484.2188 Q94.4688,483.8906 93.9063,483.7031 Q93.3438,483.5 92.7813,483.5 Q92.0781,483.5 91.4844,483.7813 Q90.9063,484.0625 90.4531,484.6875 Q90,485.3125 90,486.1719 L90,487.0938 Q90,488.125 90.8438,488.8125 Q91.6875,489.5 93.1875,489.5 Q94.0781,489.5 94.7031,489.2969 Q95.0625,489.1875 95.4688,488.8281 Q95.7344,488.625 95.875,488.5625 Q96.0156,488.5 96.1875,488.5 Q96.5156,488.5 96.75,488.7656 Q97,489.0156 97,489.375 Q97,489.7188 96.6563,490.125 Q96.1563,490.7188 95.3594,491.0469 Q94.3125,491.5 93.0313,491.5 Q91.5313,491.5 90.3281,490.9063 Q89.3594,490.4375 88.6719,489.4219 Q88,488.4063 88,487.2031 L88,486.1094 Q88,484.8594 88.5938,483.7656 Q89.2031,482.6719 90.25,482.0938 Q91.3125,481.5 92.5,481.5 Q93.2188,481.5 93.8438,481.75 Q94.4688,482 95,482.5 Z " fill="#000000"/><text fill="#000000" font-family="sans-serif" font-size="12" lengthAdjust="spacing" textLength="127" x="107" y="490.9102">ContainerOperationsUI</text><line style="stroke:#A80036;stroke-width:1.5;" x1="79" x2="236" y1="502" y2="502"/><rect fill="none" height="6" style="stroke:#C82930;stroke-width:1.0;" width="6" x="86" y="510"/><text fill="#000000" font-family="sans-serif" font-size="11" lengthAdjust="spacing" textLength="45" x="98" y="517.4189">controller</text><line style="stroke:#A80036;stroke-width:1.5;" x1="79" x2="236" y1="523.8359" y2="523.8359"/><!--MD5=[c222deb6a56ee4c5aa2bf5a4bfea86b1]
class ContainerOperationsController--><rect codeLine="7" fill="#FEFECE" filter="url(#f1bkq9yzfir8e6)" height="75.6719" id="ContainerOperationsController" style="stroke:#A80036;stroke-width:1.5;" width="318" x="104.5" y="334"/><ellipse cx="174.75" cy="350" fill="#ADD1B2" rx="11" ry="11" style="stroke:#A80036;stroke-width:1.0;"/><path d="M176.75,346.5 Q176.9531,346 177.1875,345.75 Q177.4219,345.5 177.6875,345.5 Q178.1563,345.5 178.4531,345.7813 Q178.75,346.0625 178.75,346.7188 L178.75,348.2813 Q178.75,348.9375 178.4688,349.2188 Q178.1875,349.5 177.75,349.5 Q177.3594,349.5 177.1094,349.3281 Q176.8594,349.1563 176.75,348.7031 Q176.7031,348.3906 176.5313,348.2188 Q176.2188,347.8906 175.6563,347.7031 Q175.0938,347.5 174.5313,347.5 Q173.8281,347.5 173.2344,347.7813 Q172.6563,348.0625 172.2031,348.6875 Q171.75,349.3125 171.75,350.1719 L171.75,351.0938 Q171.75,352.125 172.5938,352.8125 Q173.4375,353.5 174.9375,353.5 Q175.8281,353.5 176.4531,353.2969 Q176.8125,353.1875 177.2188,352.8281 Q177.4844,352.625 177.625,352.5625 Q177.7656,352.5 177.9375,352.5 Q178.2656,352.5 178.5,352.7656 Q178.75,353.0156 178.75,353.375 Q178.75,353.7188 178.4063,354.125 Q177.9063,354.7188 177.1094,355.0469 Q176.0625,355.5 174.7813,355.5 Q173.2813,355.5 172.0781,354.9063 Q171.1094,354.4375 170.4219,353.4219 Q169.75,352.4063 169.75,351.2031 L169.75,350.1094 Q169.75,348.8594 170.3438,347.7656 Q170.9531,346.6719 172,346.0938 Q173.0625,345.5 174.25,345.5 Q174.9688,345.5 175.5938,345.75 Q176.2188,346 176.75,346.5 Z " fill="#000000"/><text fill="#000000" font-family="sans-serif" font-size="12" lengthAdjust="spacing" textLength="169" x="195.25" y="354.9102">ContainerOperationsController</text><line style="stroke:#A80036;stroke-width:1.5;" x1="105.5" x2="421.5" y1="366" y2="366"/><rect fill="none" height="6" style="stroke:#C82930;stroke-width:1.0;" width="6" x="112.5" y="374"/><text fill="#000000" font-family="sans-serif" font-size="11" lengthAdjust="spacing" textLength="132" x="124.5" y="381.4189">ContainerOperationStoreDb</text><line style="stroke:#A80036;stroke-width:1.5;" x1="105.5" x2="421.5" y1="387.8359" y2="387.8359"/><ellipse cx="115.5" cy="398.8359" fill="#84BE84" rx="3" ry="3" style="stroke:#038048;stroke-width:1.0;"/><text fill="#000000" font-family="sans-serif" font-size="11" lengthAdjust="spacing" textLength="292" x="124.5" y="403.2549">getContainerOperationsByCargoManifestID(cargoManifestID)</text><!--MD5=[8a34750c39155128b8c7f233a411a3ea]
class ContainerOperationStoreDb--><rect codeLine="12" fill="#FEFECE" filter="url(#f1bkq9yzfir8e6)" height="61.8359" id="ContainerOperationStoreDb" style="stroke:#A80036;stroke-width:1.5;" width="318" x="104.5" y="212"/><ellipse cx="182.75" cy="228" fill="#ADD1B2" rx="11" ry="11" style="stroke:#A80036;stroke-width:1.0;"/><path d="M184.75,224.5 Q184.9531,224 185.1875,223.75 Q185.4219,223.5 185.6875,223.5 Q186.1563,223.5 186.4531,223.7813 Q186.75,224.0625 186.75,224.7188 L186.75,226.2813 Q186.75,226.9375 186.4688,227.2188 Q186.1875,227.5 185.75,227.5 Q185.3594,227.5 185.1094,227.3281 Q184.8594,227.1563 184.75,226.7031 Q184.7031,226.3906 184.5313,226.2188 Q184.2188,225.8906 183.6563,225.7031 Q183.0938,225.5 182.5313,225.5 Q181.8281,225.5 181.2344,225.7813 Q180.6563,226.0625 180.2031,226.6875 Q179.75,227.3125 179.75,228.1719 L179.75,229.0938 Q179.75,230.125 180.5938,230.8125 Q181.4375,231.5 182.9375,231.5 Q183.8281,231.5 184.4531,231.2969 Q184.8125,231.1875 185.2188,230.8281 Q185.4844,230.625 185.625,230.5625 Q185.7656,230.5 185.9375,230.5 Q186.2656,230.5 186.5,230.7656 Q186.75,231.0156 186.75,231.375 Q186.75,231.7188 186.4063,232.125 Q185.9063,232.7188 185.1094,233.0469 Q184.0625,233.5 182.7813,233.5 Q181.2813,233.5 180.0781,232.9063 Q179.1094,232.4375 178.4219,231.4219 Q177.75,230.4063 177.75,229.2031 L177.75,228.1094 Q177.75,226.8594 178.3438,225.7656 Q178.9531,224.6719 180,224.0938 Q181.0625,223.5 182.25,223.5 Q182.9688,223.5 183.5938,223.75 Q184.2188,224 184.75,224.5 Z " fill="#000000"/><text fill="#000000" font-family="sans-serif" font-size="12" lengthAdjust="spacing" textLength="153" x="203.25" y="232.9102">ContainerOperationStoreDb</text><line style="stroke:#A80036;stroke-width:1.5;" x1="105.5" x2="421.5" y1="244" y2="244"/><line style="stroke:#A80036;stroke-width:1.5;" x1="105.5" x2="421.5" y1="252" y2="252"/><ellipse cx="115.5" cy="263" fill="#84BE84" rx="3" ry="3" style="stroke:#038048;stroke-width:1.0;"/><text fill="#000000" font-family="sans-serif" font-size="11" lengthAdjust="spacing" textLength="292" x="124.5" y="267.4189">getContainerOperationsByCargoManifestID(cargoManifestID)</text><!--MD5=[887473fe52774593ccbc9430be8fc870]
class ContainerOperation--><rect codeLine="16" fill="#FEFECE" filter="url(#f1bkq9yzfir8e6)" height="144.8516" id="ContainerOperation" style="stroke:#A80036;stroke-width:1.5;" width="301" x="7" y="7"/><ellipse cx="99.25" cy="23" fill="#ADD1B2" rx="11" ry="11" style="stroke:#A80036;stroke-width:1.0;"/><path d="M101.25,19.5 Q101.4531,19 101.6875,18.75 Q101.9219,18.5 102.1875,18.5 Q102.6563,18.5 102.9531,18.7813 Q103.25,19.0625 103.25,19.7188 L103.25,21.2813 Q103.25,21.9375 102.9688,22.2188 Q102.6875,22.5 102.25,22.5 Q101.8594,22.5 101.6094,22.3281 Q101.3594,22.1563 101.25,21.7031 Q101.2031,21.3906 101.0313,21.2188 Q100.7188,20.8906 100.1563,20.7031 Q99.5938,20.5 99.0313,20.5 Q98.3281,20.5 97.7344,20.7813 Q97.1563,21.0625 96.7031,21.6875 Q96.25,22.3125 96.25,23.1719 L96.25,24.0938 Q96.25,25.125 97.0938,25.8125 Q97.9375,26.5 99.4375,26.5 Q100.3281,26.5 100.9531,26.2969 Q101.3125,26.1875 101.7188,25.8281 Q101.9844,25.625 102.125,25.5625 Q102.2656,25.5 102.4375,25.5 Q102.7656,25.5 103,25.7656 Q103.25,26.0156 103.25,26.375 Q103.25,26.7188 102.9063,27.125 Q102.4063,27.7188 101.6094,28.0469 Q100.5625,28.5 99.2813,28.5 Q97.7813,28.5 96.5781,27.9063 Q95.6094,27.4375 94.9219,26.4219 Q94.25,25.4063 94.25,24.2031 L94.25,23.1094 Q94.25,21.8594 94.8438,20.7656 Q95.4531,19.6719 96.5,19.0938 Q97.5625,18.5 98.75,18.5 Q99.4688,18.5 100.0938,18.75 Q100.7188,19 101.25,19.5 Z " fill="#000000"/><text fill="#000000" font-family="sans-serif" font-size="12" lengthAdjust="spacing" textLength="108" x="119.75" y="27.9102">ContainerOperation</text><line style="stroke:#A80036;stroke-width:1.5;" x1="8" x2="307" y1="39" y2="39"/><rect fill="none" height="6" style="stroke:#C82930;stroke-width:1.0;" width="6" x="15" y="47"/><text fill="#000000" font-family="sans-serif" font-size="11" lengthAdjust="spacing" textLength="22" x="27" y="54.4189">user</text><rect fill="none" height="6" style="stroke:#C82930;stroke-width:1.0;" width="6" x="15" y="60.8359"/><text fill="#000000" font-family="sans-serif" font-size="11" lengthAdjust="spacing" textLength="43" x="27" y="68.2549">dateTime</text><rect fill="none" height="6" style="stroke:#C82930;stroke-width:1.0;" width="6" x="15" y="74.6719"/><text fill="#000000" font-family="sans-serif" font-size="11" lengthAdjust="spacing" textLength="21" x="27" y="82.0908">type</text><rect fill="none" height="6" style="stroke:#C82930;stroke-width:1.0;" width="6" x="15" y="88.5078"/><text fill="#000000" font-family="sans-serif" font-size="11" lengthAdjust="spacing" textLength="54" x="27" y="95.9268">containerID</text><rect fill="none" height="6" style="stroke:#C82930;stroke-width:1.0;" width="6" x="15" y="102.3438"/><text fill="#000000" font-family="sans-serif" font-size="11" lengthAdjust="spacing" textLength="78" x="27" y="109.7627">cargoManifestID</text><line style="stroke:#A80036;stroke-width:1.5;" x1="8" x2="307" y1="116.1797" y2="116.1797"/><ellipse cx="18" cy="127.1797" fill="#84BE84" rx="3" ry="3" style="stroke:#038048;stroke-width:1.0;"/><text fill="#000000" font-family="sans-serif" font-size="11" lengthAdjust="spacing" textLength="275" x="27" y="131.5986">new (user, dateTime, type, containerID, cargoManifestID)</text><ellipse cx="18" cy="141.0156" fill="#84BE84" rx="3" ry="3" style="stroke:#038048;stroke-width:1.0;"/><text fill="#000000" font-family="sans-serif" font-size="11" lengthAdjust="spacing" textLength="45" x="27" y="145.4346">toString()</text><!--MD5=[b1b5c4b92be9670d46df46f9f6e67e81]
reverse link ContainerOperationsController to ContainerOperationsUI--><path codeLine="26" d="M229.16,414.14 C214,432.31 196.51,453.26 182.6,469.93 " fill="none" id="ContainerOperationsController-backto-ContainerOperationsUI" style="stroke:#A80036;stroke-width:1.0;stroke-dasharray:7.0,7.0;"/><polygon fill="#A80036" points="232.56,410.08,223.7175,414.4171,229.3521,413.9153,229.8539,419.5498,232.56,410.08" style="stroke:#A80036;stroke-width:1.0;"/><!--MD5=[513c6e681eba70ecb1a700caedf9badc]
reverse link ContainerOperationStoreDb to ContainerOperationsController--><path codeLine="27" d="M263.5,279.25 C263.5,296.24 263.5,316.62 263.5,333.86 " fill="none" id="ContainerOperationStoreDb-backto-ContainerOperationsController" style="stroke:#A80036;stroke-width:1.0;stroke-dasharray:7.0,7.0;"/><polygon fill="#A80036" points="263.5,274.1,259.5,283.1,263.5,279.1,267.5,283.1,263.5,274.1" style="stroke:#A80036;stroke-width:1.0;"/><!--MD5=[78717877d39cdabd4a11d83944af42de]
reverse link ContainerOperation to ContainerOperationStoreDb--><path codeLine="28" d="M207.51,156.69 C220.31,176.2 233.34,196.06 243.61,211.7 " fill="none" id="ContainerOperation-backto-ContainerOperationStoreDb" style="stroke:#A80036;stroke-width:1.0;"/><polygon fill="#A80036" points="204.61,152.28,206.1972,162.0001,207.3505,156.4621,212.8885,157.6154,204.61,152.28" style="stroke:#A80036;stroke-width:1.0;"/><!--MD5=[b200695b30156b31caea3a35df3f6b81]
reverse link ContainerOperation to ContainerOperationsUI--><path codeLine="29" d="M108.71,157.21 C99.95,174.59 92.14,193.42 87.5,212 C66.19,297.38 58.94,326.76 87.5,410 C95.21,432.47 111.07,453.65 125.75,469.81 " fill="none" id="ContainerOperation-backto-ContainerOperationsUI" style="stroke:#A80036;stroke-width:1.0;stroke-dasharray:7.0,7.0;"/><polygon fill="#A80036" points="111.2,152.34,103.5339,158.5231,108.9184,156.7891,110.6524,162.1736,111.2,152.34" style="stroke:#A80036;stroke-width:1.0;"/><!--MD5=[59562fc567ab35a9818f4d532292d489]
@startuml
'https://plantuml.com/class-diagram

class ContainerOperationsUI {
- controller
}

class ContainerOperationsController {
- ContainerOperationStoreDb
+ getContainerOperationsByCargoManifestID(cargoManifestID)
}

class ContainerOperationStoreDb {
+ getContainerOperationsByCargoManifestID(cargoManifestID)
}

class ContainerOperation {
- user
- dateTime
- type
- containerID
- cargoManifestID
+ new (user, dateTime, type, containerID, cargoManifestID)
+ toString()
}

ContainerOperationsController <.. ContainerOperationsUI
ContainerOperationStoreDb <.. ContainerOperationsController
ContainerOperation <- - ContainerOperationStoreDb
ContainerOperation <.. ContainerOperationsUI

@enduml

@startuml

class ContainerOperationsUI {
- controller
}

class ContainerOperationsController {
- ContainerOperationStoreDb
+ getContainerOperationsByCargoManifestID(cargoManifestID)
}

class ContainerOperationStoreDb {
+ getContainerOperationsByCargoManifestID(cargoManifestID)
}

class ContainerOperation {
- user
- dateTime
- type
- containerID
- cargoManifestID
+ new (user, dateTime, type, containerID, cargoManifestID)
+ toString()
}

ContainerOperationsController <.. ContainerOperationsUI
ContainerOperationStoreDb <.. ContainerOperationsController
ContainerOperation <- - ContainerOperationStoreDb
ContainerOperation <.. ContainerOperationsUI

@enduml

PlantUML version 1.2021.00(Sun Jan 10 10:25:05 GMT 2021)
(GPL source distribution)
Java Runtime: OpenJDK Runtime Environment
JVM: OpenJDK 64-Bit Server VM
Default Encoding: Cp1252
Language: en
Country: GB
--></g></svg>