<?xml version="1.0" encoding="UTF-8" standalone="no"?><svg xmlns="http://www.w3.org/2000/svg" xmlns:xlink="http://www.w3.org/1999/xlink" contentScriptType="application/ecmascript" contentStyleType="text/css" height="545px" preserveAspectRatio="none" style="width:367px;height:545px;" version="1.1" viewBox="0 0 367 545" width="367px" zoomAndPan="magnify"><defs><filter height="300%" id="fnkre9kja9ngw" width="300%" x="-1" y="-1"><feGaussianBlur result="blurOut" stdDeviation="2.0"/><feColorMatrix in="blurOut" result="blurOut2" type="matrix" values="0 0 0 0 0 0 0 0 0 0 0 0 0 0 0 0 0 0 .4 0"/><feOffset dx="4.0" dy="4.0" in="blurOut2" result="blurOut3"/><feBlend in="SourceGraphic" in2="blurOut3" mode="normal"/></filter></defs><g><!--MD5=[4261f0da8af581508a37af118d0048b9]
class ContainerOperationsUI--><rect codeLine="3" fill="#FEFECE" filter="url(#fnkre9kja9ngw)" height="61.8359" id="ContainerOperationsUI" style="stroke:#A80036;stroke-width:1.5;" width="159" x="78" y="470"/><ellipse cx="93" cy="486" fill="#ADD1B2" rx="11" ry="11" style="stroke:#A80036;stroke-width:1.0;"/><path d="M95,482.5 Q95.2031,482 95.4375,481.75 Q95.6719,481.5 95.9375,481.5 Q96.4063,481.5 96.7031,481.7813 Q97,482.0625 97,482.7188 L97,484.2813 Q97,484.9375 96.7188,485.2188 Q96.4375,485.5 96,485.5 Q95.6094,485.5 95.3594,485.3281 Q95.1094,485.1563 95,484.7031 Q94.9531,484.3906 94.7813,484.2188 Q94.4688,483.8906 93.9063,483.7031 Q93.3438,483.5 92.7813,483.5 Q92.0781,483.5 91.4844,483.7813 Q90.9063,484.0625 90.4531,484.6875 Q90,485.3125 90,486.1719 L90,487.0938 Q90,488.125 90.8438,488.8125 Q91.6875,489.5 93.1875,489.5 Q94.0781,489.5 94.7031,489.2969 Q95.0625,489.1875 95.4688,488.8281 Q95.7344,488.625 95.875,488.5625 Q96.0156,488.5 96.1875,488.5 Q96.5156,488.5 96.75,488.7656 Q97,489.0156 97,489.375 Q97,489.7188 96.6563,490.125 Q96.1563,490.7188 95.3594,491.0469 Q94.3125,491.5 93.0313,491.5 Q91.5313,491.5 90.3281,490.9063 Q89.3594,490.4375 88.6719,489.4219 Q88,488.4063 88,487.2031 L88,486.1094 Q88,484.8594 88.5938,483.7656 Q89.2031,482.6719 90.25,482.0938 Q91.3125,481.5 92.5,481.5 Q93.2188,481.5 93.8438,481.75 Q94.4688,482 95,482.5 Z " fill="#000000"/><text fill="#000000" font-family="sans-serif" font-size="12" lengthAdjust="spacing" textLength="127" x="107" y="490.9102">ContainerOperationsUI</text><line style="stroke:#A80036;stroke-width:1.5;" x1="79" x2="236" y1="502" y2="502"/><rect fill="none" height="6" style="stroke:#C82930;stroke-width:1.0;" width="6" x="86" y="510"/><text fill="#000000" font-family="sans-serif" font-size="11" lengthAdjust="spacing" textLength="45" x="98" y="517.4189">controller</text><line style="stroke:#A80036;stroke-width:1.5;" x1="79" x2="236" y1="523.8359" y2="523.8359"/><!--MD5=[c222deb6a56ee4c5aa2bf5a4bfea86b1]
class ContainerOperationsController--><rect codeLine="7" fill="#FEFECE" filter="url(#fnkre9kja9ngw)" height="75.6719" id="ContainerOperationsController" style="stroke:#A80036;stroke-width:1.5;" width="226" x="127.5" y="334"/><ellipse cx="153.75" cy="350" fill="#ADD1B2" rx="11" ry="11" style="stroke:#A80036;stroke-width:1.0;"/><path d="M155.75,346.5 Q155.9531,346 156.1875,345.75 Q156.4219,345.5 156.6875,345.5 Q157.1563,345.5 157.4531,345.7813 Q157.75,346.0625 157.75,346.7188 L157.75,348.2813 Q157.75,348.9375 157.4688,349.2188 Q157.1875,349.5 156.75,349.5 Q156.3594,349.5 156.1094,349.3281 Q155.8594,349.1563 155.75,348.7031 Q155.7031,348.3906 155.5313,348.2188 Q155.2188,347.8906 154.6563,347.7031 Q154.0938,347.5 153.5313,347.5 Q152.8281,347.5 152.2344,347.7813 Q151.6563,348.0625 151.2031,348.6875 Q150.75,349.3125 150.75,350.1719 L150.75,351.0938 Q150.75,352.125 151.5938,352.8125 Q152.4375,353.5 153.9375,353.5 Q154.8281,353.5 155.4531,353.2969 Q155.8125,353.1875 156.2188,352.8281 Q156.4844,352.625 156.625,352.5625 Q156.7656,352.5 156.9375,352.5 Q157.2656,352.5 157.5,352.7656 Q157.75,353.0156 157.75,353.375 Q157.75,353.7188 157.4063,354.125 Q156.9063,354.7188 156.1094,355.0469 Q155.0625,355.5 153.7813,355.5 Q152.2813,355.5 151.0781,354.9063 Q150.1094,354.4375 149.4219,353.4219 Q148.75,352.4063 148.75,351.2031 L148.75,350.1094 Q148.75,348.8594 149.3438,347.7656 Q149.9531,346.6719 151,346.0938 Q152.0625,345.5 153.25,345.5 Q153.9688,345.5 154.5938,345.75 Q155.2188,346 155.75,346.5 Z " fill="#000000"/><text fill="#000000" font-family="sans-serif" font-size="12" lengthAdjust="spacing" textLength="169" x="170.25" y="354.9102">ContainerOperationsController</text><line style="stroke:#A80036;stroke-width:1.5;" x1="128.5" x2="352.5" y1="366" y2="366"/><rect fill="none" height="6" style="stroke:#C82930;stroke-width:1.0;" width="6" x="135.5" y="374"/><text fill="#000000" font-family="sans-serif" font-size="11" lengthAdjust="spacing" textLength="132" x="147.5" y="381.4189">ContainerOperationStoreDb</text><line style="stroke:#A80036;stroke-width:1.5;" x1="128.5" x2="352.5" y1="387.8359" y2="387.8359"/><ellipse cx="138.5" cy="398.8359" fill="#84BE84" rx="3" ry="3" style="stroke:#038048;stroke-width:1.0;"/><text fill="#000000" font-family="sans-serif" font-size="11" lengthAdjust="spacing" textLength="200" x="147.5" y="403.2549">getContainerOperations(cargoManifestID)</text><!--MD5=[8a34750c39155128b8c7f233a411a3ea]
class ContainerOperationStoreDb--><rect codeLine="12" fill="#FEFECE" filter="url(#fnkre9kja9ngw)" height="61.8359" id="ContainerOperationStoreDb" style="stroke:#A80036;stroke-width:1.5;" width="226" x="127.5" y="212"/><ellipse cx="160.95" cy="228" fill="#ADD1B2" rx="11" ry="11" style="stroke:#A80036;stroke-width:1.0;"/><path d="M162.95,224.5 Q163.1531,224 163.3875,223.75 Q163.6219,223.5 163.8875,223.5 Q164.3563,223.5 164.6531,223.7813 Q164.95,224.0625 164.95,224.7188 L164.95,226.2813 Q164.95,226.9375 164.6688,227.2188 Q164.3875,227.5 163.95,227.5 Q163.5594,227.5 163.3094,227.3281 Q163.0594,227.1563 162.95,226.7031 Q162.9031,226.3906 162.7313,226.2188 Q162.4188,225.8906 161.8563,225.7031 Q161.2938,225.5 160.7313,225.5 Q160.0281,225.5 159.4344,225.7813 Q158.8563,226.0625 158.4031,226.6875 Q157.95,227.3125 157.95,228.1719 L157.95,229.0938 Q157.95,230.125 158.7938,230.8125 Q159.6375,231.5 161.1375,231.5 Q162.0281,231.5 162.6531,231.2969 Q163.0125,231.1875 163.4188,230.8281 Q163.6844,230.625 163.825,230.5625 Q163.9656,230.5 164.1375,230.5 Q164.4656,230.5 164.7,230.7656 Q164.95,231.0156 164.95,231.375 Q164.95,231.7188 164.6063,232.125 Q164.1063,232.7188 163.3094,233.0469 Q162.2625,233.5 160.9813,233.5 Q159.4813,233.5 158.2781,232.9063 Q157.3094,232.4375 156.6219,231.4219 Q155.95,230.4063 155.95,229.2031 L155.95,228.1094 Q155.95,226.8594 156.5438,225.7656 Q157.1531,224.6719 158.2,224.0938 Q159.2625,223.5 160.45,223.5 Q161.1688,223.5 161.7938,223.75 Q162.4188,224 162.95,224.5 Z " fill="#000000"/><text fill="#000000" font-family="sans-serif" font-size="12" lengthAdjust="spacing" textLength="153" x="179.05" y="232.9102">ContainerOperationStoreDb</text><line style="stroke:#A80036;stroke-width:1.5;" x1="128.5" x2="352.5" y1="244" y2="244"/><line style="stroke:#A80036;stroke-width:1.5;" x1="128.5" x2="352.5" y1="252" y2="252"/><ellipse cx="138.5" cy="263" fill="#84BE84" rx="3" ry="3" style="stroke:#038048;stroke-width:1.0;"/><text fill="#000000" font-family="sans-serif" font-size="11" lengthAdjust="spacing" textLength="200" x="147.5" y="267.4189">getContainerOperations(cargoManifestID)</text><!--MD5=[887473fe52774593ccbc9430be8fc870]
class ContainerOperation--><rect codeLine="16" fill="#FEFECE" filter="url(#fnkre9kja9ngw)" height="144.8516" id="ContainerOperation" style="stroke:#A80036;stroke-width:1.5;" width="301" x="7" y="7"/><ellipse cx="99.25" cy="23" fill="#ADD1B2" rx="11" ry="11" style="stroke:#A80036;stroke-width:1.0;"/><path d="M101.25,19.5 Q101.4531,19 101.6875,18.75 Q101.9219,18.5 102.1875,18.5 Q102.6563,18.5 102.9531,18.7813 Q103.25,19.0625 103.25,19.7188 L103.25,21.2813 Q103.25,21.9375 102.9688,22.2188 Q102.6875,22.5 102.25,22.5 Q101.8594,22.5 101.6094,22.3281 Q101.3594,22.1563 101.25,21.7031 Q101.2031,21.3906 101.0313,21.2188 Q100.7188,20.8906 100.1563,20.7031 Q99.5938,20.5 99.0313,20.5 Q98.3281,20.5 97.7344,20.7813 Q97.1563,21.0625 96.7031,21.6875 Q96.25,22.3125 96.25,23.1719 L96.25,24.0938 Q96.25,25.125 97.0938,25.8125 Q97.9375,26.5 99.4375,26.5 Q100.3281,26.5 100.9531,26.2969 Q101.3125,26.1875 101.7188,25.8281 Q101.9844,25.625 102.125,25.5625 Q102.2656,25.5 102.4375,25.5 Q102.7656,25.5 103,25.7656 Q103.25,26.0156 103.25,26.375 Q103.25,26.7188 102.9063,27.125 Q102.4063,27.7188 101.6094,28.0469 Q100.5625,28.5 99.2813,28.5 Q97.7813,28.5 96.5781,27.9063 Q95.6094,27.4375 94.9219,26.4219 Q94.25,25.4063 94.25,24.2031 L94.25,23.1094 Q94.25,21.8594 94.8438,20.7656 Q95.4531,19.6719 96.5,19.0938 Q97.5625,18.5 98.75,18.5 Q99.4688,18.5 100.0938,18.75 Q100.7188,19 101.25,19.5 Z " fill="#000000"/><text fill="#000000" font-family="sans-serif" font-size="12" lengthAdjust="spacing" textLength="108" x="119.75" y="27.9102">ContainerOperation</text><line style="stroke:#A80036;stroke-width:1.5;" x1="8" x2="307" y1="39" y2="39"/><rect fill="none" height="6" style="stroke:#C82930;stroke-width:1.0;" width="6" x="15" y="47"/><text fill="#000000" font-family="sans-serif" font-size="11" lengthAdjust="spacing" textLength="22" x="27" y="54.4189">user</text><rect fill="none" height="6" style="stroke:#C82930;stroke-width:1.0;" width="6" x="15" y="60.8359"/><text fill="#000000" font-family="sans-serif" font-size="11" lengthAdjust="spacing" textLength="43" x="27" y="68.2549">dateTime</text><rect fill="none" height="6" style="stroke:#C82930;stroke-width:1.0;" width="6" x="15" y="74.6719"/><text fill="#000000" font-family="sans-serif" font-size="11" lengthAdjust="spacing" textLength="21" x="27" y="82.0908">type</text><rect fill="none" height="6" style="stroke:#C82930;stroke-width:1.0;" width="6" x="15" y="88.5078"/><text fill="#000000" font-family="sans-serif" font-size="11" lengthAdjust="spacing" textLength="54" x="27" y="95.9268">containerID</text><rect fill="none" height="6" style="stroke:#C82930;stroke-width:1.0;" width="6" x="15" y="102.3438"/><text fill="#000000" font-family="sans-serif" font-size="11" lengthAdjust="spacing" textLength="78" x="27" y="109.7627">cargoManifestID</text><line style="stroke:#A80036;stroke-width:1.5;" x1="8" x2="307" y1="116.1797" y2="116.1797"/><ellipse cx="18" cy="127.1797" fill="#84BE84" rx="3" ry="3" style="stroke:#038048;stroke-width:1.0;"/><text fill="#000000" font-family="sans-serif" font-size="11" lengthAdjust="spacing" textLength="275" x="27" y="131.5986">new (user, dateTime, type, containerID, cargoManifestID)</text><ellipse cx="18" cy="141.0156" fill="#84BE84" rx="3" ry="3" style="stroke:#038048;stroke-width:1.0;"/><text fill="#000000" font-family="sans-serif" font-size="11" lengthAdjust="spacing" textLength="45" x="27" y="145.4346">toString()</text><!--MD5=[b1b5c4b92be9670d46df46f9f6e67e81]
reverse link ContainerOperationsController to ContainerOperationsUI--><path codeLine="26" d="M213.31,414.6 C201.51,432.66 187.95,453.4 177.16,469.93 " fill="none" id="ContainerOperationsController-backto-ContainerOperationsUI" style="stroke:#A80036;stroke-width:1.0;stroke-dasharray:7.0,7.0;"/><polygon fill="#A80036" points="216.27,410.08,207.9915,415.4154,213.5295,414.2621,214.6828,419.8001,216.27,410.08" style="stroke:#A80036;stroke-width:1.0;"/><!--MD5=[513c6e681eba70ecb1a700caedf9badc]
reverse link ContainerOperationStoreDb to ContainerOperationsController--><path codeLine="27" d="M240.5,279.25 C240.5,296.24 240.5,316.62 240.5,333.86 " fill="none" id="ContainerOperationStoreDb-backto-ContainerOperationsController" style="stroke:#A80036;stroke-width:1.0;stroke-dasharray:7.0,7.0;"/><polygon fill="#A80036" points="240.5,274.1,236.5,283.1,240.5,279.1,244.5,283.1,240.5,274.1" style="stroke:#A80036;stroke-width:1.0;"/><!--MD5=[78717877d39cdabd4a11d83944af42de]
reverse link ContainerOperation to ContainerOperationStoreDb--><path codeLine="28" d="M196.91,157.19 C206.85,176.53 216.96,196.19 224.93,211.7 " fill="none" id="ContainerOperation-backto-ContainerOperationStoreDb" style="stroke:#A80036;stroke-width:1.0;"/><polygon fill="#A80036" points="194.39,152.28,194.9504,162.1129,196.6774,156.7261,202.0642,158.4531,194.39,152.28" style="stroke:#A80036;stroke-width:1.0;"/><!--MD5=[b200695b30156b31caea3a35df3f6b81]
reverse link ContainerOperation to ContainerOperationsUI--><path codeLine="29" d="M125.1,157.28 C119.05,174.95 113.64,193.88 110.5,212 C95.47,298.71 89.53,324.54 110.5,410 C115.71,431.23 126.9,453.01 137.05,469.82 " fill="none" id="ContainerOperation-backto-ContainerOperationsUI" style="stroke:#A80036;stroke-width:1.0;stroke-dasharray:7.0,7.0;"/><polygon fill="#A80036" points="126.83,152.33,120.0911,159.5124,125.1846,157.0515,127.6455,162.145,126.83,152.33" style="stroke:#A80036;stroke-width:1.0;"/><!--MD5=[f5ce4159004ee6764666987ce54d9d71]
@startuml
'https://plantuml.com/class-diagram

class ContainerOperationsUI {
- controller
}

class ContainerOperationsController {
- ContainerOperationStoreDb
+ getContainerOperations(cargoManifestID)
}

class ContainerOperationStoreDb {
+ getContainerOperations(cargoManifestID)
}

class ContainerOperation {
- user
- dateTime
- type
- containerID
- cargoManifestID
+ new (user, dateTime, type, containerID, cargoManifestID)
+ toString()
}

ContainerOperationsController <.. ContainerOperationsUI
ContainerOperationStoreDb <.. ContainerOperationsController
ContainerOperation <- - ContainerOperationStoreDb
ContainerOperation <.. ContainerOperationsUI

@enduml

@startuml

class ContainerOperationsUI {
- controller
}

class ContainerOperationsController {
- ContainerOperationStoreDb
+ getContainerOperations(cargoManifestID)
}

class ContainerOperationStoreDb {
+ getContainerOperations(cargoManifestID)
}

class ContainerOperation {
- user
- dateTime
- type
- containerID
- cargoManifestID
+ new (user, dateTime, type, containerID, cargoManifestID)
+ toString()
}

ContainerOperationsController <.. ContainerOperationsUI
ContainerOperationStoreDb <.. ContainerOperationsController
ContainerOperation <- - ContainerOperationStoreDb
ContainerOperation <.. ContainerOperationsUI

@enduml

PlantUML version 1.2021.00(Sun Jan 10 10:25:05 GMT 2021)
(GPL source distribution)
Java Runtime: OpenJDK Runtime Environment
JVM: OpenJDK 64-Bit Server VM
Default Encoding: Cp1252
Language: en
Country: GB
--></g></svg>