<?xml version="1.0" encoding="UTF-8" standalone="no"?><svg xmlns="http://www.w3.org/2000/svg" xmlns:xlink="http://www.w3.org/1999/xlink" contentScriptType="application/ecmascript" contentStyleType="text/css" height="1298px" preserveAspectRatio="none" style="width:927px;height:1298px;" version="1.1" viewBox="0 0 927 1298" width="927px" zoomAndPan="magnify"><defs><filter height="300%" id="f1wh5karvkle2r" width="300%" x="-1" y="-1"><feGaussianBlur result="blurOut" stdDeviation="2.0"/><feColorMatrix in="blurOut" result="blurOut2" type="matrix" values="0 0 0 0 0 0 0 0 0 0 0 0 0 0 0 0 0 0 .4 0"/><feOffset dx="4.0" dy="4.0" in="blurOut2" result="blurOut3"/><feBlend in="SourceGraphic" in2="blurOut3" mode="normal"/></filter></defs><g><!--MD5=[02e4b9b7573f1156f41e60aa5b4e25a4]
class Company--><rect codeLine="5" fill="#FEFECE" filter="url(#f1wh5karvkle2r)" height="61.8359" id="Company" style="stroke:#A80036;stroke-width:1.5;" width="85" x="503" y="7"/><ellipse cx="518" cy="23" fill="#ADD1B2" rx="11" ry="11" style="stroke:#A80036;stroke-width:1.0;"/><path d="M520,19.5 Q520.2031,19 520.4375,18.75 Q520.6719,18.5 520.9375,18.5 Q521.4063,18.5 521.7031,18.7813 Q522,19.0625 522,19.7188 L522,21.2813 Q522,21.9375 521.7188,22.2188 Q521.4375,22.5 521,22.5 Q520.6094,22.5 520.3594,22.3281 Q520.1094,22.1563 520,21.7031 Q519.9531,21.3906 519.7813,21.2188 Q519.4688,20.8906 518.9063,20.7031 Q518.3438,20.5 517.7813,20.5 Q517.0781,20.5 516.4844,20.7813 Q515.9063,21.0625 515.4531,21.6875 Q515,22.3125 515,23.1719 L515,24.0938 Q515,25.125 515.8438,25.8125 Q516.6875,26.5 518.1875,26.5 Q519.0781,26.5 519.7031,26.2969 Q520.0625,26.1875 520.4688,25.8281 Q520.7344,25.625 520.875,25.5625 Q521.0156,25.5 521.1875,25.5 Q521.5156,25.5 521.75,25.7656 Q522,26.0156 522,26.375 Q522,26.7188 521.6563,27.125 Q521.1563,27.7188 520.3594,28.0469 Q519.3125,28.5 518.0313,28.5 Q516.5313,28.5 515.3281,27.9063 Q514.3594,27.4375 513.6719,26.4219 Q513,25.4063 513,24.2031 L513,23.1094 Q513,21.8594 513.5938,20.7656 Q514.2031,19.6719 515.25,19.0938 Q516.3125,18.5 517.5,18.5 Q518.2188,18.5 518.8438,18.75 Q519.4688,19 520,19.5 Z " fill="#000000"/><text fill="#000000" font-family="sans-serif" font-size="12" lengthAdjust="spacing" textLength="53" x="532" y="27.9102">Company</text><line style="stroke:#A80036;stroke-width:1.5;" x1="504" x2="587" y1="39" y2="39"/><text fill="#000000" font-family="sans-serif" font-size="11" lengthAdjust="spacing" textLength="60" x="509" y="54.4189">-Designation</text><line style="stroke:#A80036;stroke-width:1.5;" x1="504" x2="587" y1="60.8359" y2="60.8359"/><!--MD5=[e9a58730c562b34349daa605d1ed6662]
class Container--><rect codeLine="9" fill="#FEFECE" filter="url(#f1wh5karvkle2r)" height="172.5234" id="Container" style="stroke:#A80036;stroke-width:1.5;" width="86" x="218.5" y="944"/><ellipse cx="233.5" cy="960" fill="#ADD1B2" rx="11" ry="11" style="stroke:#A80036;stroke-width:1.0;"/><path d="M235.5,956.5 Q235.7031,956 235.9375,955.75 Q236.1719,955.5 236.4375,955.5 Q236.9063,955.5 237.2031,955.7813 Q237.5,956.0625 237.5,956.7188 L237.5,958.2813 Q237.5,958.9375 237.2188,959.2188 Q236.9375,959.5 236.5,959.5 Q236.1094,959.5 235.8594,959.3281 Q235.6094,959.1563 235.5,958.7031 Q235.4531,958.3906 235.2813,958.2188 Q234.9688,957.8906 234.4063,957.7031 Q233.8438,957.5 233.2813,957.5 Q232.5781,957.5 231.9844,957.7813 Q231.4063,958.0625 230.9531,958.6875 Q230.5,959.3125 230.5,960.1719 L230.5,961.0938 Q230.5,962.125 231.3438,962.8125 Q232.1875,963.5 233.6875,963.5 Q234.5781,963.5 235.2031,963.2969 Q235.5625,963.1875 235.9688,962.8281 Q236.2344,962.625 236.375,962.5625 Q236.5156,962.5 236.6875,962.5 Q237.0156,962.5 237.25,962.7656 Q237.5,963.0156 237.5,963.375 Q237.5,963.7188 237.1563,964.125 Q236.6563,964.7188 235.8594,965.0469 Q234.8125,965.5 233.5313,965.5 Q232.0313,965.5 230.8281,964.9063 Q229.8594,964.4375 229.1719,963.4219 Q228.5,962.4063 228.5,961.2031 L228.5,960.1094 Q228.5,958.8594 229.0938,957.7656 Q229.7031,956.6719 230.75,956.0938 Q231.8125,955.5 233,955.5 Q233.7188,955.5 234.3438,955.75 Q234.9688,956 235.5,956.5 Z " fill="#000000"/><text fill="#000000" font-family="sans-serif" font-size="12" lengthAdjust="spacing" textLength="54" x="247.5" y="964.9102">Container</text><line style="stroke:#A80036;stroke-width:1.5;" x1="219.5" x2="303.5" y1="976" y2="976"/><text fill="#000000" font-family="sans-serif" font-size="11" lengthAdjust="spacing" textLength="64" x="224.5" y="991.4189">-Identification</text><text fill="#000000" font-family="sans-serif" font-size="11" lengthAdjust="spacing" textLength="42" x="224.5" y="1005.2549">-Payload</text><text fill="#000000" font-family="sans-serif" font-size="11" lengthAdjust="spacing" textLength="26" x="224.5" y="1019.0908">-Tare</text><text fill="#000000" font-family="sans-serif" font-size="11" lengthAdjust="spacing" textLength="34" x="224.5" y="1032.9268">-Gross</text><text fill="#000000" font-family="sans-serif" font-size="11" lengthAdjust="spacing" textLength="31" x="224.5" y="1046.7627">-Width</text><text fill="#000000" font-family="sans-serif" font-size="11" lengthAdjust="spacing" textLength="34" x="224.5" y="1060.5986">-Height</text><text fill="#000000" font-family="sans-serif" font-size="11" lengthAdjust="spacing" textLength="37" x="224.5" y="1074.4346">-Length</text><text fill="#000000" font-family="sans-serif" font-size="11" lengthAdjust="spacing" textLength="64" x="224.5" y="1088.2705">-Refrigerated</text><text fill="#000000" font-family="sans-serif" font-size="11" lengthAdjust="spacing" textLength="65" x="224.5" y="1102.1064">-Temperature</text><line style="stroke:#A80036;stroke-width:1.5;" x1="219.5" x2="303.5" y1="1108.5234" y2="1108.5234"/><!--MD5=[0dc7f2ddb409b58bcf52b12238c25399]
class Ship--><rect codeLine="21" fill="#FEFECE" filter="url(#f1wh5karvkle2r)" height="241.7031" id="Ship" style="stroke:#A80036;stroke-width:1.5;" width="161" x="133" y="147"/><ellipse cx="196.75" cy="163" fill="#ADD1B2" rx="11" ry="11" style="stroke:#A80036;stroke-width:1.0;"/><path d="M198.75,159.5 Q198.9531,159 199.1875,158.75 Q199.4219,158.5 199.6875,158.5 Q200.1563,158.5 200.4531,158.7813 Q200.75,159.0625 200.75,159.7188 L200.75,161.2813 Q200.75,161.9375 200.4688,162.2188 Q200.1875,162.5 199.75,162.5 Q199.3594,162.5 199.1094,162.3281 Q198.8594,162.1563 198.75,161.7031 Q198.7031,161.3906 198.5313,161.2188 Q198.2188,160.8906 197.6563,160.7031 Q197.0938,160.5 196.5313,160.5 Q195.8281,160.5 195.2344,160.7813 Q194.6563,161.0625 194.2031,161.6875 Q193.75,162.3125 193.75,163.1719 L193.75,164.0938 Q193.75,165.125 194.5938,165.8125 Q195.4375,166.5 196.9375,166.5 Q197.8281,166.5 198.4531,166.2969 Q198.8125,166.1875 199.2188,165.8281 Q199.4844,165.625 199.625,165.5625 Q199.7656,165.5 199.9375,165.5 Q200.2656,165.5 200.5,165.7656 Q200.75,166.0156 200.75,166.375 Q200.75,166.7188 200.4063,167.125 Q199.9063,167.7188 199.1094,168.0469 Q198.0625,168.5 196.7813,168.5 Q195.2813,168.5 194.0781,167.9063 Q193.1094,167.4375 192.4219,166.4219 Q191.75,165.4063 191.75,164.2031 L191.75,163.1094 Q191.75,161.8594 192.3438,160.7656 Q192.9531,159.6719 194,159.0938 Q195.0625,158.5 196.25,158.5 Q196.9688,158.5 197.5938,158.75 Q198.2188,159 198.75,159.5 Z " fill="#000000"/><text fill="#000000" font-family="sans-serif" font-size="12" lengthAdjust="spacing" textLength="25" x="217.25" y="167.9102">Ship</text><line style="stroke:#A80036;stroke-width:1.5;" x1="134" x2="293" y1="179" y2="179"/><text fill="#000000" font-family="sans-serif" font-size="11" lengthAdjust="spacing" textLength="29" x="139" y="194.4189">-MMSI</text><text fill="#000000" font-family="sans-serif" font-size="11" lengthAdjust="spacing" textLength="31" x="139" y="208.2549">-Name</text><text fill="#000000" font-family="sans-serif" font-size="11" lengthAdjust="spacing" textLength="22" x="139" y="222.0908">-IMO</text><text fill="#000000" font-family="sans-serif" font-size="11" lengthAdjust="spacing" textLength="149" x="139" y="235.9268">-Number of Energy Generators</text><text fill="#000000" font-family="sans-serif" font-size="11" lengthAdjust="spacing" textLength="131" x="139" y="249.7627">-Generators' Power Output</text><text fill="#000000" font-family="sans-serif" font-size="11" lengthAdjust="spacing" textLength="44" x="139" y="263.5986">-Call sign</text><text fill="#000000" font-family="sans-serif" font-size="11" lengthAdjust="spacing" textLength="62" x="139" y="277.4346">-Vessel type</text><text fill="#000000" font-family="sans-serif" font-size="11" lengthAdjust="spacing" textLength="37" x="139" y="291.2705">-Length</text><text fill="#000000" font-family="sans-serif" font-size="11" lengthAdjust="spacing" textLength="31" x="139" y="305.1064">-Width</text><text fill="#000000" font-family="sans-serif" font-size="11" lengthAdjust="spacing" textLength="46" x="139" y="318.9424">-Capacity</text><text fill="#000000" font-family="sans-serif" font-size="11" lengthAdjust="spacing" textLength="28" x="139" y="332.7783">-Draft</text><text fill="#000000" font-family="sans-serif" font-size="11" lengthAdjust="spacing" textLength="69" x="139" y="346.6143">-FleetManager</text><text fill="#000000" font-family="sans-serif" font-size="11" lengthAdjust="spacing" textLength="61" x="139" y="360.4502">-ShipCaptain</text><text fill="#000000" font-family="sans-serif" font-size="11" lengthAdjust="spacing" textLength="135" x="139" y="374.2861">-ShipChiefElectricalEngineer</text><line style="stroke:#A80036;stroke-width:1.5;" x1="134" x2="293" y1="380.7031" y2="380.7031"/><!--MD5=[1c0c3765e68dc4575d559b566278b914]
class ShipPosition--><rect codeLine="38" fill="#FEFECE" filter="url(#f1wh5karvkle2r)" height="158.6875" id="ShipPosition" style="stroke:#A80036;stroke-width:1.5;" width="139" x="7" y="539"/><ellipse cx="38.65" cy="555" fill="#ADD1B2" rx="11" ry="11" style="stroke:#A80036;stroke-width:1.0;"/><path d="M40.65,551.5 Q40.8531,551 41.0875,550.75 Q41.3219,550.5 41.5875,550.5 Q42.0563,550.5 42.3531,550.7813 Q42.65,551.0625 42.65,551.7188 L42.65,553.2813 Q42.65,553.9375 42.3688,554.2188 Q42.0875,554.5 41.65,554.5 Q41.2594,554.5 41.0094,554.3281 Q40.7594,554.1563 40.65,553.7031 Q40.6031,553.3906 40.4313,553.2188 Q40.1188,552.8906 39.5563,552.7031 Q38.9938,552.5 38.4313,552.5 Q37.7281,552.5 37.1344,552.7813 Q36.5563,553.0625 36.1031,553.6875 Q35.65,554.3125 35.65,555.1719 L35.65,556.0938 Q35.65,557.125 36.4938,557.8125 Q37.3375,558.5 38.8375,558.5 Q39.7281,558.5 40.3531,558.2969 Q40.7125,558.1875 41.1188,557.8281 Q41.3844,557.625 41.525,557.5625 Q41.6656,557.5 41.8375,557.5 Q42.1656,557.5 42.4,557.7656 Q42.65,558.0156 42.65,558.375 Q42.65,558.7188 42.3063,559.125 Q41.8063,559.7188 41.0094,560.0469 Q39.9625,560.5 38.6813,560.5 Q37.1813,560.5 35.9781,559.9063 Q35.0094,559.4375 34.3219,558.4219 Q33.65,557.4063 33.65,556.2031 L33.65,555.1094 Q33.65,553.8594 34.2438,552.7656 Q34.8531,551.6719 35.9,551.0938 Q36.9625,550.5 38.15,550.5 Q38.8688,550.5 39.4938,550.75 Q40.1188,551 40.65,551.5 Z " fill="#000000"/><text fill="#000000" font-family="sans-serif" font-size="12" lengthAdjust="spacing" textLength="70" x="56.35" y="559.9102">ShipPosition</text><line style="stroke:#A80036;stroke-width:1.5;" x1="8" x2="145" y1="571" y2="571"/><text fill="#000000" font-family="sans-serif" font-size="11" lengthAdjust="spacing" textLength="79" x="13" y="586.4189">-Base Date Time</text><text fill="#000000" font-family="sans-serif" font-size="11" lengthAdjust="spacing" textLength="42" x="13" y="600.2549">-Latitude</text><text fill="#000000" font-family="sans-serif" font-size="11" lengthAdjust="spacing" textLength="51" x="13" y="614.0908">-Longitude</text><text fill="#000000" font-family="sans-serif" font-size="11" lengthAdjust="spacing" textLength="123" x="13" y="627.9268">-Speed over ground SOG</text><text fill="#000000" font-family="sans-serif" font-size="11" lengthAdjust="spacing" textLength="127" x="13" y="641.7627">-Course over ground COG</text><text fill="#000000" font-family="sans-serif" font-size="11" lengthAdjust="spacing" textLength="43" x="13" y="655.5986">-Heading</text><text fill="#000000" font-family="sans-serif" font-size="11" lengthAdjust="spacing" textLength="41" x="13" y="669.4346">-Position</text><text fill="#000000" font-family="sans-serif" font-size="11" lengthAdjust="spacing" textLength="92" x="13" y="683.2705">-Transceiver Class</text><line style="stroke:#A80036;stroke-width:1.5;" x1="8" x2="145" y1="689.6875" y2="689.6875"/><!--MD5=[f2ba7f6ab60af8dd0d3e354f91729b14]
class Truck--><rect codeLine="49" fill="#FEFECE" filter="url(#f1wh5karvkle2r)" height="61.8359" id="Truck" style="stroke:#A80036;stroke-width:1.5;" width="72" x="329.5" y="237"/><ellipse cx="349" cy="253" fill="#ADD1B2" rx="11" ry="11" style="stroke:#A80036;stroke-width:1.0;"/><path d="M351,249.5 Q351.2031,249 351.4375,248.75 Q351.6719,248.5 351.9375,248.5 Q352.4063,248.5 352.7031,248.7813 Q353,249.0625 353,249.7188 L353,251.2813 Q353,251.9375 352.7188,252.2188 Q352.4375,252.5 352,252.5 Q351.6094,252.5 351.3594,252.3281 Q351.1094,252.1563 351,251.7031 Q350.9531,251.3906 350.7813,251.2188 Q350.4688,250.8906 349.9063,250.7031 Q349.3438,250.5 348.7813,250.5 Q348.0781,250.5 347.4844,250.7813 Q346.9063,251.0625 346.4531,251.6875 Q346,252.3125 346,253.1719 L346,254.0938 Q346,255.125 346.8438,255.8125 Q347.6875,256.5 349.1875,256.5 Q350.0781,256.5 350.7031,256.2969 Q351.0625,256.1875 351.4688,255.8281 Q351.7344,255.625 351.875,255.5625 Q352.0156,255.5 352.1875,255.5 Q352.5156,255.5 352.75,255.7656 Q353,256.0156 353,256.375 Q353,256.7188 352.6563,257.125 Q352.1563,257.7188 351.3594,258.0469 Q350.3125,258.5 349.0313,258.5 Q347.5313,258.5 346.3281,257.9063 Q345.3594,257.4375 344.6719,256.4219 Q344,255.4063 344,254.2031 L344,253.1094 Q344,251.8594 344.5938,250.7656 Q345.2031,249.6719 346.25,249.0938 Q347.3125,248.5 348.5,248.5 Q349.2188,248.5 349.8438,248.75 Q350.4688,249 351,249.5 Z " fill="#000000"/><text fill="#000000" font-family="sans-serif" font-size="12" lengthAdjust="spacing" textLength="30" x="364" y="257.9102">Truck</text><line style="stroke:#A80036;stroke-width:1.5;" x1="330.5" x2="400.5" y1="269" y2="269"/><text fill="#000000" font-family="sans-serif" font-size="11" lengthAdjust="spacing" textLength="60" x="335.5" y="284.4189">-TruckDriver</text><line style="stroke:#A80036;stroke-width:1.5;" x1="330.5" x2="400.5" y1="290.8359" y2="290.8359"/><!--MD5=[ed6624c6556d5e7b1bd23032162d20b7]
class Client--><rect codeLine="53" fill="#FEFECE" filter="url(#f1wh5karvkle2r)" height="89.5078" id="Client" style="stroke:#A80036;stroke-width:1.5;" width="88" x="217.5" y="1195"/><ellipse cx="243.3" cy="1211" fill="#ADD1B2" rx="11" ry="11" style="stroke:#A80036;stroke-width:1.0;"/><path d="M245.3,1207.5 Q245.5031,1207 245.7375,1206.75 Q245.9719,1206.5 246.2375,1206.5 Q246.7063,1206.5 247.0031,1206.7813 Q247.3,1207.0625 247.3,1207.7188 L247.3,1209.2813 Q247.3,1209.9375 247.0188,1210.2188 Q246.7375,1210.5 246.3,1210.5 Q245.9094,1210.5 245.6594,1210.3281 Q245.4094,1210.1563 245.3,1209.7031 Q245.2531,1209.3906 245.0813,1209.2188 Q244.7688,1208.8906 244.2063,1208.7031 Q243.6438,1208.5 243.0813,1208.5 Q242.3781,1208.5 241.7844,1208.7813 Q241.2063,1209.0625 240.7531,1209.6875 Q240.3,1210.3125 240.3,1211.1719 L240.3,1212.0938 Q240.3,1213.125 241.1438,1213.8125 Q241.9875,1214.5 243.4875,1214.5 Q244.3781,1214.5 245.0031,1214.2969 Q245.3625,1214.1875 245.7688,1213.8281 Q246.0344,1213.625 246.175,1213.5625 Q246.3156,1213.5 246.4875,1213.5 Q246.8156,1213.5 247.05,1213.7656 Q247.3,1214.0156 247.3,1214.375 Q247.3,1214.7188 246.9563,1215.125 Q246.4563,1215.7188 245.6594,1216.0469 Q244.6125,1216.5 243.3313,1216.5 Q241.8313,1216.5 240.6281,1215.9063 Q239.6594,1215.4375 238.9719,1214.4219 Q238.3,1213.4063 238.3,1212.2031 L238.3,1211.1094 Q238.3,1209.8594 238.8938,1208.7656 Q239.5031,1207.6719 240.55,1207.0938 Q241.6125,1206.5 242.8,1206.5 Q243.5188,1206.5 244.1438,1206.75 Q244.7688,1207 245.3,1207.5 Z " fill="#000000"/><text fill="#000000" font-family="sans-serif" font-size="12" lengthAdjust="spacing" textLength="32" x="259.7" y="1215.9102">Client</text><line style="stroke:#A80036;stroke-width:1.5;" x1="218.5" x2="304.5" y1="1227" y2="1227"/><text fill="#000000" font-family="sans-serif" font-size="11" lengthAdjust="spacing" textLength="31" x="223.5" y="1242.4189">-Name</text><text fill="#000000" font-family="sans-serif" font-size="11" lengthAdjust="spacing" textLength="46" x="223.5" y="1256.2549">-Address</text><text fill="#000000" font-family="sans-serif" font-size="11" lengthAdjust="spacing" textLength="76" x="223.5" y="1270.0908">-Phone_number</text><line style="stroke:#A80036;stroke-width:1.5;" x1="218.5" x2="304.5" y1="1276.5078" y2="1276.5078"/><!--MD5=[a0bfe97ac0a38e6e74cc1c7c7b744b71]
class Port--><rect codeLine="59" fill="#FEFECE" filter="url(#f1wh5karvkle2r)" height="158.6875" id="Port" style="stroke:#A80036;stroke-width:1.5;" width="77" x="687" y="188.5"/><ellipse cx="712.35" cy="204.5" fill="#ADD1B2" rx="11" ry="11" style="stroke:#A80036;stroke-width:1.0;"/><path d="M714.35,201 Q714.5531,200.5 714.7875,200.25 Q715.0219,200 715.2875,200 Q715.7563,200 716.0531,200.2813 Q716.35,200.5625 716.35,201.2188 L716.35,202.7813 Q716.35,203.4375 716.0688,203.7188 Q715.7875,204 715.35,204 Q714.9594,204 714.7094,203.8281 Q714.4594,203.6563 714.35,203.2031 Q714.3031,202.8906 714.1313,202.7188 Q713.8188,202.3906 713.2563,202.2031 Q712.6938,202 712.1313,202 Q711.4281,202 710.8344,202.2813 Q710.2563,202.5625 709.8031,203.1875 Q709.35,203.8125 709.35,204.6719 L709.35,205.5938 Q709.35,206.625 710.1938,207.3125 Q711.0375,208 712.5375,208 Q713.4281,208 714.0531,207.7969 Q714.4125,207.6875 714.8188,207.3281 Q715.0844,207.125 715.225,207.0625 Q715.3656,207 715.5375,207 Q715.8656,207 716.1,207.2656 Q716.35,207.5156 716.35,207.875 Q716.35,208.2188 716.0063,208.625 Q715.5063,209.2188 714.7094,209.5469 Q713.6625,210 712.3813,210 Q710.8813,210 709.6781,209.4063 Q708.7094,208.9375 708.0219,207.9219 Q707.35,206.9063 707.35,205.7031 L707.35,204.6094 Q707.35,203.3594 707.9438,202.2656 Q708.5531,201.1719 709.6,200.5938 Q710.6625,200 711.85,200 Q712.5688,200 713.1938,200.25 Q713.8188,200.5 714.35,201 Z " fill="#000000"/><text fill="#000000" font-family="sans-serif" font-size="12" lengthAdjust="spacing" textLength="22" x="728.65" y="209.4102">Port</text><line style="stroke:#A80036;stroke-width:1.5;" x1="688" x2="763" y1="220.5" y2="220.5"/><text fill="#000000" font-family="sans-serif" font-size="11" lengthAdjust="spacing" textLength="64" x="693" y="235.9189">-Identification</text><text fill="#000000" font-family="sans-serif" font-size="11" lengthAdjust="spacing" textLength="31" x="693" y="249.7549">-Name</text><text fill="#000000" font-family="sans-serif" font-size="11" lengthAdjust="spacing" textLength="49" x="693" y="263.5908">-Continent</text><text fill="#000000" font-family="sans-serif" font-size="11" lengthAdjust="spacing" textLength="42" x="693" y="277.4268">-Country</text><text fill="#000000" font-family="sans-serif" font-size="11" lengthAdjust="spacing" textLength="42" x="693" y="291.2627">-Latitude</text><text fill="#000000" font-family="sans-serif" font-size="11" lengthAdjust="spacing" textLength="47" x="693" y="305.0986">-longitude</text><text fill="#000000" font-family="sans-serif" font-size="11" lengthAdjust="spacing" textLength="65" x="693" y="318.9346">-PortMagager</text><text fill="#000000" font-family="sans-serif" font-size="11" lengthAdjust="spacing" textLength="47" x="693" y="332.7705">-PortStaff</text><line style="stroke:#A80036;stroke-width:1.5;" x1="688" x2="763" y1="339.1875" y2="339.1875"/><!--MD5=[c5149b4909ffd2688ff51a939867f774]
class Warehouse--><rect codeLine="70" fill="#FEFECE" filter="url(#f1wh5karvkle2r)" height="158.6875" id="Warehouse" style="stroke:#A80036;stroke-width:1.5;" width="114" x="799.5" y="188.5"/><ellipse cx="822.6" cy="204.5" fill="#ADD1B2" rx="11" ry="11" style="stroke:#A80036;stroke-width:1.0;"/><path d="M824.6,201 Q824.8031,200.5 825.0375,200.25 Q825.2719,200 825.5375,200 Q826.0063,200 826.3031,200.2813 Q826.6,200.5625 826.6,201.2188 L826.6,202.7813 Q826.6,203.4375 826.3188,203.7188 Q826.0375,204 825.6,204 Q825.2094,204 824.9594,203.8281 Q824.7094,203.6563 824.6,203.2031 Q824.5531,202.8906 824.3813,202.7188 Q824.0688,202.3906 823.5063,202.2031 Q822.9438,202 822.3813,202 Q821.6781,202 821.0844,202.2813 Q820.5063,202.5625 820.0531,203.1875 Q819.6,203.8125 819.6,204.6719 L819.6,205.5938 Q819.6,206.625 820.4438,207.3125 Q821.2875,208 822.7875,208 Q823.6781,208 824.3031,207.7969 Q824.6625,207.6875 825.0688,207.3281 Q825.3344,207.125 825.475,207.0625 Q825.6156,207 825.7875,207 Q826.1156,207 826.35,207.2656 Q826.6,207.5156 826.6,207.875 Q826.6,208.2188 826.2563,208.625 Q825.7563,209.2188 824.9594,209.5469 Q823.9125,210 822.6313,210 Q821.1313,210 819.9281,209.4063 Q818.9594,208.9375 818.2719,207.9219 Q817.6,206.9063 817.6,205.7031 L817.6,204.6094 Q817.6,203.3594 818.1938,202.2656 Q818.8031,201.1719 819.85,200.5938 Q820.9125,200 822.1,200 Q822.8188,200 823.4438,200.25 Q824.0688,200.5 824.6,201 Z " fill="#000000"/><text fill="#000000" font-family="sans-serif" font-size="12" lengthAdjust="spacing" textLength="64" x="838.4" y="209.4102">Warehouse</text><line style="stroke:#A80036;stroke-width:1.5;" x1="800.5" x2="912.5" y1="220.5" y2="220.5"/><text fill="#000000" font-family="sans-serif" font-size="11" lengthAdjust="spacing" textLength="64" x="805.5" y="235.9189">-Identification</text><text fill="#000000" font-family="sans-serif" font-size="11" lengthAdjust="spacing" textLength="31" x="805.5" y="249.7549">-Name</text><text fill="#000000" font-family="sans-serif" font-size="11" lengthAdjust="spacing" textLength="49" x="805.5" y="263.5908">-Continent</text><text fill="#000000" font-family="sans-serif" font-size="11" lengthAdjust="spacing" textLength="42" x="805.5" y="277.4268">-Country</text><text fill="#000000" font-family="sans-serif" font-size="11" lengthAdjust="spacing" textLength="42" x="805.5" y="291.2627">-Latitude</text><text fill="#000000" font-family="sans-serif" font-size="11" lengthAdjust="spacing" textLength="47" x="805.5" y="305.0986">-longitude</text><text fill="#000000" font-family="sans-serif" font-size="11" lengthAdjust="spacing" textLength="102" x="805.5" y="318.9346">-WarehouseManager</text><text fill="#000000" font-family="sans-serif" font-size="11" lengthAdjust="spacing" textLength="84" x="805.5" y="332.7705">-WarehouseStaff</text><line style="stroke:#A80036;stroke-width:1.5;" x1="800.5" x2="912.5" y1="339.1875" y2="339.1875"/><!--MD5=[7421f545a0d8420c5bec41e74b387d9c]
class Employee--><rect codeLine="81" fill="#FEFECE" filter="url(#f1wh5karvkle2r)" height="89.5078" id="Employee" style="stroke:#A80036;stroke-width:1.5;" width="87" x="535" y="419"/><ellipse cx="550" cy="435" fill="#ADD1B2" rx="11" ry="11" style="stroke:#A80036;stroke-width:1.0;"/><path d="M552,431.5 Q552.2031,431 552.4375,430.75 Q552.6719,430.5 552.9375,430.5 Q553.4063,430.5 553.7031,430.7813 Q554,431.0625 554,431.7188 L554,433.2813 Q554,433.9375 553.7188,434.2188 Q553.4375,434.5 553,434.5 Q552.6094,434.5 552.3594,434.3281 Q552.1094,434.1563 552,433.7031 Q551.9531,433.3906 551.7813,433.2188 Q551.4688,432.8906 550.9063,432.7031 Q550.3438,432.5 549.7813,432.5 Q549.0781,432.5 548.4844,432.7813 Q547.9063,433.0625 547.4531,433.6875 Q547,434.3125 547,435.1719 L547,436.0938 Q547,437.125 547.8438,437.8125 Q548.6875,438.5 550.1875,438.5 Q551.0781,438.5 551.7031,438.2969 Q552.0625,438.1875 552.4688,437.8281 Q552.7344,437.625 552.875,437.5625 Q553.0156,437.5 553.1875,437.5 Q553.5156,437.5 553.75,437.7656 Q554,438.0156 554,438.375 Q554,438.7188 553.6563,439.125 Q553.1563,439.7188 552.3594,440.0469 Q551.3125,440.5 550.0313,440.5 Q548.5313,440.5 547.3281,439.9063 Q546.3594,439.4375 545.6719,438.4219 Q545,437.4063 545,436.2031 L545,435.1094 Q545,433.8594 545.5938,432.7656 Q546.2031,431.6719 547.25,431.0938 Q548.3125,430.5 549.5,430.5 Q550.2188,430.5 550.8438,430.75 Q551.4688,431 552,431.5 Z " fill="#000000"/><text fill="#000000" font-family="sans-serif" font-size="12" lengthAdjust="spacing" textLength="55" x="564" y="439.9102">Employee</text><line style="stroke:#A80036;stroke-width:1.5;" x1="536" x2="621" y1="451" y2="451"/><text fill="#000000" font-family="sans-serif" font-size="11" lengthAdjust="spacing" textLength="31" x="541" y="466.4189">-Name</text><text fill="#000000" font-family="sans-serif" font-size="11" lengthAdjust="spacing" textLength="28" x="541" y="480.2549">-Email</text><text fill="#000000" font-family="sans-serif" font-size="11" lengthAdjust="spacing" textLength="54" x="541" y="494.0908">-Password</text><line style="stroke:#A80036;stroke-width:1.5;" x1="536" x2="621" y1="500.5078" y2="500.5078"/><!--MD5=[12e90e92236ca84f203192a07d84ec5e]
class OrganizationRole--><rect codeLine="87" fill="#FEFECE" filter="url(#f1wh5karvkle2r)" height="61.8359" id="OrganizationRole" style="stroke:#A80036;stroke-width:1.5;" width="127" x="461" y="587.5"/><ellipse cx="476" cy="603.5" fill="#ADD1B2" rx="11" ry="11" style="stroke:#A80036;stroke-width:1.0;"/><path d="M478,600 Q478.2031,599.5 478.4375,599.25 Q478.6719,599 478.9375,599 Q479.4063,599 479.7031,599.2813 Q480,599.5625 480,600.2188 L480,601.7813 Q480,602.4375 479.7188,602.7188 Q479.4375,603 479,603 Q478.6094,603 478.3594,602.8281 Q478.1094,602.6563 478,602.2031 Q477.9531,601.8906 477.7813,601.7188 Q477.4688,601.3906 476.9063,601.2031 Q476.3438,601 475.7813,601 Q475.0781,601 474.4844,601.2813 Q473.9063,601.5625 473.4531,602.1875 Q473,602.8125 473,603.6719 L473,604.5938 Q473,605.625 473.8438,606.3125 Q474.6875,607 476.1875,607 Q477.0781,607 477.7031,606.7969 Q478.0625,606.6875 478.4688,606.3281 Q478.7344,606.125 478.875,606.0625 Q479.0156,606 479.1875,606 Q479.5156,606 479.75,606.2656 Q480,606.5156 480,606.875 Q480,607.2188 479.6563,607.625 Q479.1563,608.2188 478.3594,608.5469 Q477.3125,609 476.0313,609 Q474.5313,609 473.3281,608.4063 Q472.3594,607.9375 471.6719,606.9219 Q471,605.9063 471,604.7031 L471,603.6094 Q471,602.3594 471.5938,601.2656 Q472.2031,600.1719 473.25,599.5938 Q474.3125,599 475.5,599 Q476.2188,599 476.8438,599.25 Q477.4688,599.5 478,600 Z " fill="#000000"/><text fill="#000000" font-family="sans-serif" font-size="12" lengthAdjust="spacing" textLength="95" x="490" y="608.4102">OrganizationRole</text><line style="stroke:#A80036;stroke-width:1.5;" x1="462" x2="587" y1="619.5" y2="619.5"/><text fill="#000000" font-family="sans-serif" font-size="11" lengthAdjust="spacing" textLength="58" x="467" y="634.9189">-Description</text><line style="stroke:#A80036;stroke-width:1.5;" x1="462" x2="587" y1="641.3359" y2="641.3359"/><!--MD5=[ddaf6f62b0bc30921877ec9fb9463c9f]
class TrafficManager--><rect codeLine="91" fill="#FEFECE" filter="url(#f1wh5karvkle2r)" height="48" id="TrafficManager" style="stroke:#A80036;stroke-width:1.5;" width="113" x="20" y="14"/><ellipse cx="35" cy="30" fill="#ADD1B2" rx="11" ry="11" style="stroke:#A80036;stroke-width:1.0;"/><path d="M37,26.5 Q37.2031,26 37.4375,25.75 Q37.6719,25.5 37.9375,25.5 Q38.4063,25.5 38.7031,25.7813 Q39,26.0625 39,26.7188 L39,28.2813 Q39,28.9375 38.7188,29.2188 Q38.4375,29.5 38,29.5 Q37.6094,29.5 37.3594,29.3281 Q37.1094,29.1563 37,28.7031 Q36.9531,28.3906 36.7813,28.2188 Q36.4688,27.8906 35.9063,27.7031 Q35.3438,27.5 34.7813,27.5 Q34.0781,27.5 33.4844,27.7813 Q32.9063,28.0625 32.4531,28.6875 Q32,29.3125 32,30.1719 L32,31.0938 Q32,32.125 32.8438,32.8125 Q33.6875,33.5 35.1875,33.5 Q36.0781,33.5 36.7031,33.2969 Q37.0625,33.1875 37.4688,32.8281 Q37.7344,32.625 37.875,32.5625 Q38.0156,32.5 38.1875,32.5 Q38.5156,32.5 38.75,32.7656 Q39,33.0156 39,33.375 Q39,33.7188 38.6563,34.125 Q38.1563,34.7188 37.3594,35.0469 Q36.3125,35.5 35.0313,35.5 Q33.5313,35.5 32.3281,34.9063 Q31.3594,34.4375 30.6719,33.4219 Q30,32.4063 30,31.2031 L30,30.1094 Q30,28.8594 30.5938,27.7656 Q31.2031,26.6719 32.25,26.0938 Q33.3125,25.5 34.5,25.5 Q35.2188,25.5 35.8438,25.75 Q36.4688,26 37,26.5 Z " fill="#000000"/><text fill="#000000" font-family="sans-serif" font-size="12" lengthAdjust="spacing" textLength="81" x="49" y="34.9102">TrafficManager</text><line style="stroke:#A80036;stroke-width:1.5;" x1="21" x2="132" y1="46" y2="46"/><line style="stroke:#A80036;stroke-width:1.5;" x1="21" x2="132" y1="54" y2="54"/><!--MD5=[76562047389981627aea27c31a97aff5]
class CargoManifest--><rect codeLine="93" fill="#FEFECE" filter="url(#f1wh5karvkle2r)" height="89.5078" id="CargoManifest" style="stroke:#A80036;stroke-width:1.5;" width="112" x="205.5" y="776"/><ellipse cx="220.5" cy="792" fill="#ADD1B2" rx="11" ry="11" style="stroke:#A80036;stroke-width:1.0;"/><path d="M222.5,788.5 Q222.7031,788 222.9375,787.75 Q223.1719,787.5 223.4375,787.5 Q223.9063,787.5 224.2031,787.7813 Q224.5,788.0625 224.5,788.7188 L224.5,790.2813 Q224.5,790.9375 224.2188,791.2188 Q223.9375,791.5 223.5,791.5 Q223.1094,791.5 222.8594,791.3281 Q222.6094,791.1563 222.5,790.7031 Q222.4531,790.3906 222.2813,790.2188 Q221.9688,789.8906 221.4063,789.7031 Q220.8438,789.5 220.2813,789.5 Q219.5781,789.5 218.9844,789.7813 Q218.4063,790.0625 217.9531,790.6875 Q217.5,791.3125 217.5,792.1719 L217.5,793.0938 Q217.5,794.125 218.3438,794.8125 Q219.1875,795.5 220.6875,795.5 Q221.5781,795.5 222.2031,795.2969 Q222.5625,795.1875 222.9688,794.8281 Q223.2344,794.625 223.375,794.5625 Q223.5156,794.5 223.6875,794.5 Q224.0156,794.5 224.25,794.7656 Q224.5,795.0156 224.5,795.375 Q224.5,795.7188 224.1563,796.125 Q223.6563,796.7188 222.8594,797.0469 Q221.8125,797.5 220.5313,797.5 Q219.0313,797.5 217.8281,796.9063 Q216.8594,796.4375 216.1719,795.4219 Q215.5,794.4063 215.5,793.2031 L215.5,792.1094 Q215.5,790.8594 216.0938,789.7656 Q216.7031,788.6719 217.75,788.0938 Q218.8125,787.5 220,787.5 Q220.7188,787.5 221.3438,787.75 Q221.9688,788 222.5,788.5 Z " fill="#000000"/><text fill="#000000" font-family="sans-serif" font-size="12" lengthAdjust="spacing" textLength="80" x="234.5" y="796.9102">CargoManifest</text><line style="stroke:#A80036;stroke-width:1.5;" x1="206.5" x2="316.5" y1="808" y2="808"/><text fill="#000000" font-family="sans-serif" font-size="11" lengthAdjust="spacing" textLength="57" x="211.5" y="823.4189">-Destination</text><text fill="#000000" font-family="sans-serif" font-size="11" lengthAdjust="spacing" textLength="79" x="211.5" y="837.2549">-Date_time_start</text><text fill="#000000" font-family="sans-serif" font-size="11" lengthAdjust="spacing" textLength="75" x="211.5" y="851.0908">-Date_time_end</text><line style="stroke:#A80036;stroke-width:1.5;" x1="206.5" x2="316.5" y1="857.5078" y2="857.5078"/><!--MD5=[18f5b4ccae6e62f3670d3aa352beb4cd]
class Trip--><rect codeLine="99" fill="#FEFECE" filter="url(#f1wh5karvkle2r)" height="75.6719" id="Trip" style="stroke:#A80036;stroke-width:1.5;" width="79" x="222" y="580.5"/><ellipse cx="248.7" cy="596.5" fill="#ADD1B2" rx="11" ry="11" style="stroke:#A80036;stroke-width:1.0;"/><path d="M250.7,593 Q250.9031,592.5 251.1375,592.25 Q251.3719,592 251.6375,592 Q252.1063,592 252.4031,592.2813 Q252.7,592.5625 252.7,593.2188 L252.7,594.7813 Q252.7,595.4375 252.4188,595.7188 Q252.1375,596 251.7,596 Q251.3094,596 251.0594,595.8281 Q250.8094,595.6563 250.7,595.2031 Q250.6531,594.8906 250.4813,594.7188 Q250.1688,594.3906 249.6063,594.2031 Q249.0438,594 248.4813,594 Q247.7781,594 247.1844,594.2813 Q246.6063,594.5625 246.1531,595.1875 Q245.7,595.8125 245.7,596.6719 L245.7,597.5938 Q245.7,598.625 246.5438,599.3125 Q247.3875,600 248.8875,600 Q249.7781,600 250.4031,599.7969 Q250.7625,599.6875 251.1688,599.3281 Q251.4344,599.125 251.575,599.0625 Q251.7156,599 251.8875,599 Q252.2156,599 252.45,599.2656 Q252.7,599.5156 252.7,599.875 Q252.7,600.2188 252.3563,600.625 Q251.8563,601.2188 251.0594,601.5469 Q250.0125,602 248.7313,602 Q247.2313,602 246.0281,601.4063 Q245.0594,600.9375 244.3719,599.9219 Q243.7,598.9063 243.7,597.7031 L243.7,596.6094 Q243.7,595.3594 244.2938,594.2656 Q244.9031,593.1719 245.95,592.5938 Q247.0125,592 248.2,592 Q248.9188,592 249.5438,592.25 Q250.1688,592.5 250.7,593 Z " fill="#000000"/><text fill="#000000" font-family="sans-serif" font-size="12" lengthAdjust="spacing" textLength="21" x="265.3" y="601.4102">Trip</text><line style="stroke:#A80036;stroke-width:1.5;" x1="223" x2="300" y1="612.5" y2="612.5"/><text fill="#000000" font-family="sans-serif" font-size="11" lengthAdjust="spacing" textLength="67" x="228" y="627.9189">-Starting point</text><text fill="#000000" font-family="sans-serif" font-size="11" lengthAdjust="spacing" textLength="57" x="228" y="641.7549">-Destination</text><line style="stroke:#A80036;stroke-width:1.5;" x1="223" x2="300" y1="648.1719" y2="648.1719"/><!--MD5=[37a14a5de6d6fd738aee271300f4b5c8]
link Company to Ship--><path codeLine="104" d="M502.88,42.46 C456.9,48.01 383.31,62.33 331.5,99 C313.17,111.97 296.72,128.73 282.33,146.63 " fill="none" id="Company-Ship" style="stroke:#A80036;stroke-width:1.0;"/><polygon fill="#000000" points="331.9789,110.3112,341.4128,109.1056,338.9025,103.7908,331.9789,110.3112" style="stroke:#000000;stroke-width:1.0;"/><text fill="#000000" font-family="sans-serif" font-size="13" lengthAdjust="spacing" textLength="33" x="345.5" y="113.4951">Owns</text><text fill="#000000" font-family="sans-serif" font-size="13" lengthAdjust="spacing" textLength="7" x="487.9531" y="39.391">1</text><text fill="#000000" font-family="sans-serif" font-size="13" lengthAdjust="spacing" textLength="20" x="265.915" y="136.2614">1..*</text><!--MD5=[710b10ea314ec23c5eb602bd01bfa9d5]
link Company to Truck--><path codeLine="105" d="M502.94,45.01 C469.23,52.07 423.61,67.17 397.5,99 C365.3,138.26 361.84,200.03 363.09,236.72 " fill="none" id="Company-Truck" style="stroke:#A80036;stroke-width:1.0;"/><polygon fill="#000000" points="399.5533,112.2152,407.2582,106.6399,402.5096,103.1758,399.5533,112.2152" style="stroke:#000000;stroke-width:1.0;"/><text fill="#000000" font-family="sans-serif" font-size="13" lengthAdjust="spacing" textLength="33" x="411.5" y="113.4951">Owns</text><text fill="#000000" font-family="sans-serif" font-size="13" lengthAdjust="spacing" textLength="7" x="488.0234" y="61.1293">1</text><text fill="#000000" font-family="sans-serif" font-size="13" lengthAdjust="spacing" textLength="20" x="364.6554" y="226.1668">1..*</text><!--MD5=[5fd98a8c03cc0e5a408f548eb1c0ace8]
link Company to Port--><path codeLine="106" d="M588.05,46.39 C619.76,54.13 661.7,69.45 686.5,99 C707.29,123.77 717.48,157.54 722.31,188.31 " fill="none" id="Company-Port" style="stroke:#A80036;stroke-width:1.0;"/><polygon fill="#000000" points="705.9362,111.808,701.855,103.2176,697.5851,107.257,705.9362,111.808" style="stroke:#000000;stroke-width:1.0;"/><text fill="#000000" font-family="sans-serif" font-size="13" lengthAdjust="spacing" textLength="33" x="711.5" y="113.4951">Owns</text><text fill="#000000" font-family="sans-serif" font-size="13" lengthAdjust="spacing" textLength="7" x="595.9648" y="62.7465">1</text><text fill="#000000" font-family="sans-serif" font-size="13" lengthAdjust="spacing" textLength="5" x="716.7855" y="177.7518">*</text><!--MD5=[acda98ef2513d819683ba761a9c77b11]
link Company to Warehouse--><path codeLine="107" d="M588.2,42.26 C633.33,47.62 704.61,61.77 753.5,99 C783.58,121.9 806.88,156.34 823.65,188.08 " fill="none" id="Company-Warehouse" style="stroke:#A80036;stroke-width:1.0;"/><polygon fill="#000000" points="781.7508,110.8084,775.6084,103.5474,772.5136,108.5445,781.7508,110.8084" style="stroke:#000000;stroke-width:1.0;"/><text fill="#000000" font-family="sans-serif" font-size="13" lengthAdjust="spacing" textLength="33" x="786.5" y="113.4951">Owns</text><text fill="#000000" font-family="sans-serif" font-size="13" lengthAdjust="spacing" textLength="7" x="596.1406" y="39.1566">1</text><text fill="#000000" font-family="sans-serif" font-size="13" lengthAdjust="spacing" textLength="5" x="815.5016" y="177.7743">*</text><!--MD5=[09366576ee87d48d594df10cacc83f45]
link Company to Employee--><path codeLine="108" d="M555.82,69.31 C562.57,90.73 570.8,120.27 574.5,147 C587.81,243.2 584.63,357.43 581.39,418.78 " fill="none" id="Company-Employee" style="stroke:#A80036;stroke-width:1.0;"/><polygon fill="#000000" points="574.8649,113.1625,577.1359,103.927,571.2737,104.3559,574.8649,113.1625" style="stroke:#000000;stroke-width:1.0;"/><text fill="#000000" font-family="sans-serif" font-size="13" lengthAdjust="spacing" textLength="51" x="583.5" y="113.4951">Employs</text><text fill="#000000" font-family="sans-serif" font-size="13" lengthAdjust="spacing" textLength="7" x="550.1201" y="90.3477">1</text><text fill="#000000" font-family="sans-serif" font-size="13" lengthAdjust="spacing" textLength="5" x="576.4497" y="408.1904">*</text><!--MD5=[9abf40ff36e4aa94ac761b2803c1dce8]
link Company to OrganizationRole--><path codeLine="109" d="M517.24,69.38 C500.36,89.68 480.51,117.91 471.5,147 C421.83,307.38 485.16,511.35 512.79,587.25 " fill="none" id="Company-OrganizationRole" style="stroke:#A80036;stroke-width:1.0;"/><polygon fill="#000000" points="476.457,273.1756,479.4736,264.1561,473.5959,264.1056,476.457,273.1756" style="stroke:#000000;stroke-width:1.0;"/><text fill="#000000" font-family="sans-serif" font-size="13" lengthAdjust="spacing" textLength="80" x="485.5" y="273.4951">Comprehends</text><text fill="#000000" font-family="sans-serif" font-size="13" lengthAdjust="spacing" textLength="7" x="504.1858" y="90.4311">1</text><text fill="#000000" font-family="sans-serif" font-size="13" lengthAdjust="spacing" textLength="5" x="504.8592" y="576.703">*</text><!--MD5=[241b49406f7a05442b1e788ffaf3787c]
link Employee to OrganizationRole--><path codeLine="110" d="M562.88,509.11 C553.97,534.27 543.04,565.14 535.13,587.49 " fill="none" id="Employee-OrganizationRole" style="stroke:#A80036;stroke-width:1.0;"/><polygon fill="#000000" points="476.9613,545.2391,482.7504,537.6935,477.2096,535.7318,476.9613,545.2391" style="stroke:#000000;stroke-width:1.0;"/><text fill="#000000" font-family="sans-serif" font-size="13" lengthAdjust="spacing" textLength="60" x="487.63" y="545.8451">Has/Plays</text><text fill="#000000" font-family="sans-serif" font-size="13" lengthAdjust="spacing" textLength="5" x="555.3319" y="530.133">*</text><text fill="#000000" font-family="sans-serif" font-size="13" lengthAdjust="spacing" textLength="7" x="529.6897" y="576.5081">1</text><!--MD5=[7c2ed8f842290e081d69a6d4a2daa6d0]
link Ship to Trip--><path codeLine="111" d="M229.21,389.29 C234.29,427.57 240.04,470.08 245.5,509 C248.84,532.76 252.76,559.41 255.89,580.36 " fill="none" id="Ship-Trip" style="stroke:#A80036;stroke-width:1.0;"/><polygon fill="#000000" points="251.1915,469.1277,252.8513,459.7631,247.0299,460.576,251.1915,469.1277" style="stroke:#000000;stroke-width:1.0;"/><text fill="#000000" font-family="sans-serif" font-size="13" lengthAdjust="spacing" textLength="50" x="259.5" y="469.4951">performs</text><text fill="#000000" font-family="sans-serif" font-size="13" lengthAdjust="spacing" textLength="7" x="222.9159" y="410.2784">1</text><text fill="#000000" font-family="sans-serif" font-size="13" lengthAdjust="spacing" textLength="5" x="249.4454" y="569.697">*</text><!--MD5=[17b7ccf869bd0829dc5fdfacb355ba75]
link Trip to CargoManifest--><path codeLine="112" d="M261.5,656.74 C261.5,690.49 261.5,740.26 261.5,775.97 " fill="none" id="Trip-CargoManifest" style="stroke:#A80036;stroke-width:1.0;"/><polygon fill="#000000" points="266.5,742.1758,269.4389,733.1307,263.5611,733.1307,266.5,742.1758" style="stroke:#000000;stroke-width:1.0;"/><text fill="#000000" font-family="sans-serif" font-size="13" lengthAdjust="spacing" textLength="21" x="275.5" y="742.4951">has</text><text fill="#000000" font-family="sans-serif" font-size="13" lengthAdjust="spacing" textLength="20" x="239.9063" y="677.6588">1..*</text><text fill="#000000" font-family="sans-serif" font-size="13" lengthAdjust="spacing" textLength="20" x="239.9063" y="765.0807">1..*</text><!--MD5=[f56e222e1748568825f030a9b791275e]
link Ship to ShipPosition--><path codeLine="113" d="M166.16,389.42 C146.71,438.9 124.73,494.81 107.41,538.88 " fill="none" id="Ship-ShipPosition" style="stroke:#A80036;stroke-width:1.0;"/><polygon fill="#000000" points="156.6708,468.8292,162.715,461.4863,157.2446,459.3359,156.6708,468.8292" style="stroke:#000000;stroke-width:1.0;"/><text fill="#000000" font-family="sans-serif" font-size="13" lengthAdjust="spacing" textLength="21" x="167.5" y="469.4951">has</text><text fill="#000000" font-family="sans-serif" font-size="13" lengthAdjust="spacing" textLength="7" x="156.3797" y="410.0105">1</text><text fill="#000000" font-family="sans-serif" font-size="13" lengthAdjust="spacing" textLength="20" x="89.403" y="528.0555">1..*</text><!--MD5=[0e32c7758dbd9763ef36bc86a30fd8c6]
link TrafficManager to ShipPosition--><path codeLine="114" d="M69.76,62.35 C63.86,84.06 55.75,117.41 52.5,147 C37.44,284.2 52.66,444.96 64.79,538.61 " fill="none" id="TrafficManager-ShipPosition" style="stroke:#A80036;stroke-width:1.0;"/><polygon fill="#000000" points="57.4478,273.1755,60.481,264.1616,54.6034,264.1002,57.4478,273.1755" style="stroke:#000000;stroke-width:1.0;"/><text fill="#000000" font-family="sans-serif" font-size="13" lengthAdjust="spacing" textLength="48" x="66.5" y="273.4951">Controls</text><text fill="#000000" font-family="sans-serif" font-size="13" lengthAdjust="spacing" textLength="7" x="60.392" y="83.3667">1</text><text fill="#000000" font-family="sans-serif" font-size="13" lengthAdjust="spacing" textLength="5" x="58.48" y="528.0334">*</text><!--MD5=[c7e069b1632a1ebf214cea93e002bf09]
link TrafficManager to Truck--><path codeLine="115" d="M83.42,62.3 C90,80.19 101.72,103.97 120.5,117 C191.1,165.98 243.19,94.87 311.5,147 C340.01,168.76 353.86,208.96 360.31,236.8 " fill="none" id="TrafficManager-Truck" style="stroke:#A80036;stroke-width:1.0;"/><polygon fill="#000000" points="129.73,110.8416,123.6448,103.5327,120.5109,108.5054,129.73,110.8416" style="stroke:#000000;stroke-width:1.0;"/><text fill="#000000" font-family="sans-serif" font-size="13" lengthAdjust="spacing" textLength="111" x="134.5" y="113.4951">Controls position of</text><text fill="#000000" font-family="sans-serif" font-size="13" lengthAdjust="spacing" textLength="7" x="77.2109" y="83.3051">1</text><text fill="#000000" font-family="sans-serif" font-size="13" lengthAdjust="spacing" textLength="5" x="353.7239" y="226.2633">*</text><!--MD5=[e9affaa5b50bfb6258ed16f30d9b3949]
link Truck to Trip--><path codeLine="116" d="M361.51,299.19 C354.88,345.32 339.76,435.7 314.5,509 C306.03,533.58 293.33,559.8 282.49,580.31 " fill="none" id="Truck-Trip" style="stroke:#A80036;stroke-width:1.0;"/><polygon fill="#000000" points="342.147,468.9892,347.4239,461.0769,341.7653,459.4863,342.147,468.9892" style="stroke:#000000;stroke-width:1.0;"/><text fill="#000000" font-family="sans-serif" font-size="13" lengthAdjust="spacing" textLength="50" x="352.5" y="469.4951">performs</text><text fill="#000000" font-family="sans-serif" font-size="13" lengthAdjust="spacing" textLength="7" x="353.0354" y="320.4514">1</text><text fill="#000000" font-family="sans-serif" font-size="13" lengthAdjust="spacing" textLength="5" x="280.7835" y="569.6381">*</text><!--MD5=[a93f71c337684849482b0ec5675aa7db]
link CargoManifest to Container--><path codeLine="117" d="M261.5,866.01 C261.5,888.61 261.5,916.95 261.5,943.66 " fill="none" id="CargoManifest-Container" style="stroke:#A80036;stroke-width:1.0;"/><polygon fill="#000000" points="266.5,910.1758,269.4389,901.1307,263.5611,901.1307,266.5,910.1758" style="stroke:#000000;stroke-width:1.0;"/><text fill="#000000" font-family="sans-serif" font-size="13" lengthAdjust="spacing" textLength="84" x="275.5" y="910.4951">Keeps track of</text><text fill="#000000" font-family="sans-serif" font-size="13" lengthAdjust="spacing" textLength="5" x="256.1484" y="887.019">*</text><text fill="#000000" font-family="sans-serif" font-size="13" lengthAdjust="spacing" textLength="20" x="240.6406" y="933.0404">1..*</text><!--MD5=[8b95926aa8f68cb7f444084257cd34f6]
link Container to Client--><path codeLine="118" d="M261.5,1117.1 C261.5,1143.78 261.5,1172.11 261.5,1194.74 " fill="none" id="Container-Client" style="stroke:#A80036;stroke-width:1.0;"/><polygon fill="#000000" points="266.5,1161.1758,269.4389,1152.1307,263.5611,1152.1307,266.5,1161.1758" style="stroke:#000000;stroke-width:1.0;"/><text fill="#000000" font-family="sans-serif" font-size="13" lengthAdjust="spacing" textLength="104" x="275.5" y="1161.4951">tranports goods of</text><text fill="#000000" font-family="sans-serif" font-size="13" lengthAdjust="spacing" textLength="7" x="254.2211" y="1138.1666">1</text><text fill="#000000" font-family="sans-serif" font-size="13" lengthAdjust="spacing" textLength="20" x="239.9688" y="1184.1443">1..*</text><!--MD5=[482ef7b173cd50a4ab90744671414519]
@startuml
'https://plantuml.com/class-diagram

skinparam classAttributeIconSize 0

class Company {
-Designation
}

class Container {
-Identification
-Payload
-Tare
-Gross
-Width
-Height
-Length
-Refrigerated
-Temperature
}

class Ship {
-MMSI
-Name
-IMO
-Number of Energy Generators
-Generators' Power Output
-Call sign
-Vessel type
-Length
-Width
-Capacity
-Draft
-FleetManager
-ShipCaptain
-ShipChiefElectricalEngineer
}

class ShipPosition {
-Base Date Time
-Latitude
-Longitude
-Speed over ground SOG
-Course over ground COG
-Heading
-Position
-Transceiver Class
}

class Truck {
-TruckDriver
}

class Client {
-Name
-Address
-Phone_number
}

class Port {
-Identification
-Name
-Continent
-Country
-Latitude
-longitude
-PortMagager
-PortStaff
}

class Warehouse {
-Identification
-Name
-Continent
-Country
-Latitude
-longitude
-WarehouseManager
-WarehouseStaff
}

class Employee {
-Name
-Email
-Password
}

class OrganizationRole {
-Description
}

class TrafficManager

class CargoManifest {
-Destination
-Date_time_start
-Date_time_end
}

class Trip {
-Starting point
-Destination
}

Company "1" - - "1..*" Ship : Owns >
Company "1" - - "1..*" Truck : Owns >
Company "1" - - "*" Port : Owns >
Company "1" - - "*" Warehouse : Owns >
Company "1" - - "*" Employee : Employs >
Company "1" - - - "*" OrganizationRole : Comprehends >
Employee "*" - "1" OrganizationRole : Has/Plays >
Ship "1" - - "*" Trip : performs >
Trip "1..*" - - "1..*" CargoManifest : has >
Ship "1" - - "1..*" ShipPosition : has >
TrafficManager "1" - "*" ShipPosition : Controls >
TrafficManager "1" - - "*" Truck : Controls position of >
Truck "1" - - "*" Trip : performs >
CargoManifest "*" - - "1..*" Container : Keeps track of >
Container "1" - - "1..*" Client : tranports goods of >


@enduml

@startuml

skinparam classAttributeIconSize 0

class Company {
-Designation
}

class Container {
-Identification
-Payload
-Tare
-Gross
-Width
-Height
-Length
-Refrigerated
-Temperature
}

class Ship {
-MMSI
-Name
-IMO
-Number of Energy Generators
-Generators' Power Output
-Call sign
-Vessel type
-Length
-Width
-Capacity
-Draft
-FleetManager
-ShipCaptain
-ShipChiefElectricalEngineer
}

class ShipPosition {
-Base Date Time
-Latitude
-Longitude
-Speed over ground SOG
-Course over ground COG
-Heading
-Position
-Transceiver Class
}

class Truck {
-TruckDriver
}

class Client {
-Name
-Address
-Phone_number
}

class Port {
-Identification
-Name
-Continent
-Country
-Latitude
-longitude
-PortMagager
-PortStaff
}

class Warehouse {
-Identification
-Name
-Continent
-Country
-Latitude
-longitude
-WarehouseManager
-WarehouseStaff
}

class Employee {
-Name
-Email
-Password
}

class OrganizationRole {
-Description
}

class TrafficManager

class CargoManifest {
-Destination
-Date_time_start
-Date_time_end
}

class Trip {
-Starting point
-Destination
}

Company "1" - - "1..*" Ship : Owns >
Company "1" - - "1..*" Truck : Owns >
Company "1" - - "*" Port : Owns >
Company "1" - - "*" Warehouse : Owns >
Company "1" - - "*" Employee : Employs >
Company "1" - - - "*" OrganizationRole : Comprehends >
Employee "*" - "1" OrganizationRole : Has/Plays >
Ship "1" - - "*" Trip : performs >
Trip "1..*" - - "1..*" CargoManifest : has >
Ship "1" - - "1..*" ShipPosition : has >
TrafficManager "1" - "*" ShipPosition : Controls >
TrafficManager "1" - - "*" Truck : Controls position of >
Truck "1" - - "*" Trip : performs >
CargoManifest "*" - - "1..*" Container : Keeps track of >
Container "1" - - "1..*" Client : tranports goods of >


@enduml

PlantUML version 1.2021.00(Sun Jan 10 10:25:05 GMT 2021)
(GPL source distribution)
Java Runtime: OpenJDK Runtime Environment
JVM: OpenJDK 64-Bit Server VM
Default Encoding: Cp1252
Language: en
Country: GB
--></g></svg>