<?xml version="1.0" encoding="UTF-8" standalone="no"?><svg xmlns="http://www.w3.org/2000/svg" xmlns:xlink="http://www.w3.org/1999/xlink" contentScriptType="application/ecmascript" contentStyleType="text/css" height="1215px" preserveAspectRatio="none" style="width:977px;height:1215px;" version="1.1" viewBox="0 0 977 1215" width="977px" zoomAndPan="magnify"><defs><filter height="300%" id="f1rrro0relduy8" width="300%" x="-1" y="-1"><feGaussianBlur result="blurOut" stdDeviation="2.0"/><feColorMatrix in="blurOut" result="blurOut2" type="matrix" values="0 0 0 0 0 0 0 0 0 0 0 0 0 0 0 0 0 0 .4 0"/><feOffset dx="4.0" dy="4.0" in="blurOut2" result="blurOut3"/><feBlend in="SourceGraphic" in2="blurOut3" mode="normal"/></filter></defs><g><!--MD5=[02e4b9b7573f1156f41e60aa5b4e25a4]
class Company--><rect codeLine="5" fill="#FEFECE" filter="url(#f1rrro0relduy8)" height="61.8359" id="Company" style="stroke:#A80036;stroke-width:1.5;" width="85" x="562" y="7"/><ellipse cx="577" cy="23" fill="#ADD1B2" rx="11" ry="11" style="stroke:#A80036;stroke-width:1.0;"/><path d="M579,19.5 Q579.2031,19 579.4375,18.75 Q579.6719,18.5 579.9375,18.5 Q580.4063,18.5 580.7031,18.7813 Q581,19.0625 581,19.7188 L581,21.2813 Q581,21.9375 580.7188,22.2188 Q580.4375,22.5 580,22.5 Q579.6094,22.5 579.3594,22.3281 Q579.1094,22.1563 579,21.7031 Q578.9531,21.3906 578.7813,21.2188 Q578.4688,20.8906 577.9063,20.7031 Q577.3438,20.5 576.7813,20.5 Q576.0781,20.5 575.4844,20.7813 Q574.9063,21.0625 574.4531,21.6875 Q574,22.3125 574,23.1719 L574,24.0938 Q574,25.125 574.8438,25.8125 Q575.6875,26.5 577.1875,26.5 Q578.0781,26.5 578.7031,26.2969 Q579.0625,26.1875 579.4688,25.8281 Q579.7344,25.625 579.875,25.5625 Q580.0156,25.5 580.1875,25.5 Q580.5156,25.5 580.75,25.7656 Q581,26.0156 581,26.375 Q581,26.7188 580.6563,27.125 Q580.1563,27.7188 579.3594,28.0469 Q578.3125,28.5 577.0313,28.5 Q575.5313,28.5 574.3281,27.9063 Q573.3594,27.4375 572.6719,26.4219 Q572,25.4063 572,24.2031 L572,23.1094 Q572,21.8594 572.5938,20.7656 Q573.2031,19.6719 574.25,19.0938 Q575.3125,18.5 576.5,18.5 Q577.2188,18.5 577.8438,18.75 Q578.4688,19 579,19.5 Z " fill="#000000"/><text fill="#000000" font-family="sans-serif" font-size="12" lengthAdjust="spacing" textLength="53" x="591" y="27.9102">Company</text><line style="stroke:#A80036;stroke-width:1.5;" x1="563" x2="646" y1="39" y2="39"/><text fill="#000000" font-family="sans-serif" font-size="11" lengthAdjust="spacing" textLength="60" x="568" y="54.4189">-Designation</text><line style="stroke:#A80036;stroke-width:1.5;" x1="563" x2="646" y1="60.8359" y2="60.8359"/><!--MD5=[e9a58730c562b34349daa605d1ed6662]
class Container--><rect codeLine="9" fill="#FEFECE" filter="url(#f1rrro0relduy8)" height="172.5234" id="Container" style="stroke:#A80036;stroke-width:1.5;" width="86" x="552.5" y="902"/><ellipse cx="567.5" cy="918" fill="#ADD1B2" rx="11" ry="11" style="stroke:#A80036;stroke-width:1.0;"/><path d="M569.5,914.5 Q569.7031,914 569.9375,913.75 Q570.1719,913.5 570.4375,913.5 Q570.9063,913.5 571.2031,913.7813 Q571.5,914.0625 571.5,914.7188 L571.5,916.2813 Q571.5,916.9375 571.2188,917.2188 Q570.9375,917.5 570.5,917.5 Q570.1094,917.5 569.8594,917.3281 Q569.6094,917.1563 569.5,916.7031 Q569.4531,916.3906 569.2813,916.2188 Q568.9688,915.8906 568.4063,915.7031 Q567.8438,915.5 567.2813,915.5 Q566.5781,915.5 565.9844,915.7813 Q565.4063,916.0625 564.9531,916.6875 Q564.5,917.3125 564.5,918.1719 L564.5,919.0938 Q564.5,920.125 565.3438,920.8125 Q566.1875,921.5 567.6875,921.5 Q568.5781,921.5 569.2031,921.2969 Q569.5625,921.1875 569.9688,920.8281 Q570.2344,920.625 570.375,920.5625 Q570.5156,920.5 570.6875,920.5 Q571.0156,920.5 571.25,920.7656 Q571.5,921.0156 571.5,921.375 Q571.5,921.7188 571.1563,922.125 Q570.6563,922.7188 569.8594,923.0469 Q568.8125,923.5 567.5313,923.5 Q566.0313,923.5 564.8281,922.9063 Q563.8594,922.4375 563.1719,921.4219 Q562.5,920.4063 562.5,919.2031 L562.5,918.1094 Q562.5,916.8594 563.0938,915.7656 Q563.7031,914.6719 564.75,914.0938 Q565.8125,913.5 567,913.5 Q567.7188,913.5 568.3438,913.75 Q568.9688,914 569.5,914.5 Z " fill="#000000"/><text fill="#000000" font-family="sans-serif" font-size="12" lengthAdjust="spacing" textLength="54" x="581.5" y="922.9102">Container</text><line style="stroke:#A80036;stroke-width:1.5;" x1="553.5" x2="637.5" y1="934" y2="934"/><text fill="#000000" font-family="sans-serif" font-size="11" lengthAdjust="spacing" textLength="64" x="558.5" y="949.4189">-Identification</text><text fill="#000000" font-family="sans-serif" font-size="11" lengthAdjust="spacing" textLength="42" x="558.5" y="963.2549">-Payload</text><text fill="#000000" font-family="sans-serif" font-size="11" lengthAdjust="spacing" textLength="26" x="558.5" y="977.0908">-Tare</text><text fill="#000000" font-family="sans-serif" font-size="11" lengthAdjust="spacing" textLength="34" x="558.5" y="990.9268">-Gross</text><text fill="#000000" font-family="sans-serif" font-size="11" lengthAdjust="spacing" textLength="31" x="558.5" y="1004.7627">-Width</text><text fill="#000000" font-family="sans-serif" font-size="11" lengthAdjust="spacing" textLength="34" x="558.5" y="1018.5986">-Height</text><text fill="#000000" font-family="sans-serif" font-size="11" lengthAdjust="spacing" textLength="37" x="558.5" y="1032.4346">-Length</text><text fill="#000000" font-family="sans-serif" font-size="11" lengthAdjust="spacing" textLength="64" x="558.5" y="1046.2705">-Refrigerated</text><text fill="#000000" font-family="sans-serif" font-size="11" lengthAdjust="spacing" textLength="65" x="558.5" y="1060.1064">-Temperature</text><line style="stroke:#A80036;stroke-width:1.5;" x1="553.5" x2="637.5" y1="1066.5234" y2="1066.5234"/><!--MD5=[0dc7f2ddb409b58bcf52b12238c25399]
class Ship--><rect codeLine="21" fill="#FEFECE" filter="url(#f1rrro0relduy8)" height="241.7031" id="Ship" style="stroke:#A80036;stroke-width:1.5;" width="161" x="117" y="147"/><ellipse cx="180.75" cy="163" fill="#ADD1B2" rx="11" ry="11" style="stroke:#A80036;stroke-width:1.0;"/><path d="M182.75,159.5 Q182.9531,159 183.1875,158.75 Q183.4219,158.5 183.6875,158.5 Q184.1563,158.5 184.4531,158.7813 Q184.75,159.0625 184.75,159.7188 L184.75,161.2813 Q184.75,161.9375 184.4688,162.2188 Q184.1875,162.5 183.75,162.5 Q183.3594,162.5 183.1094,162.3281 Q182.8594,162.1563 182.75,161.7031 Q182.7031,161.3906 182.5313,161.2188 Q182.2188,160.8906 181.6563,160.7031 Q181.0938,160.5 180.5313,160.5 Q179.8281,160.5 179.2344,160.7813 Q178.6563,161.0625 178.2031,161.6875 Q177.75,162.3125 177.75,163.1719 L177.75,164.0938 Q177.75,165.125 178.5938,165.8125 Q179.4375,166.5 180.9375,166.5 Q181.8281,166.5 182.4531,166.2969 Q182.8125,166.1875 183.2188,165.8281 Q183.4844,165.625 183.625,165.5625 Q183.7656,165.5 183.9375,165.5 Q184.2656,165.5 184.5,165.7656 Q184.75,166.0156 184.75,166.375 Q184.75,166.7188 184.4063,167.125 Q183.9063,167.7188 183.1094,168.0469 Q182.0625,168.5 180.7813,168.5 Q179.2813,168.5 178.0781,167.9063 Q177.1094,167.4375 176.4219,166.4219 Q175.75,165.4063 175.75,164.2031 L175.75,163.1094 Q175.75,161.8594 176.3438,160.7656 Q176.9531,159.6719 178,159.0938 Q179.0625,158.5 180.25,158.5 Q180.9688,158.5 181.5938,158.75 Q182.2188,159 182.75,159.5 Z " fill="#000000"/><text fill="#000000" font-family="sans-serif" font-size="12" lengthAdjust="spacing" textLength="25" x="201.25" y="167.9102">Ship</text><line style="stroke:#A80036;stroke-width:1.5;" x1="118" x2="277" y1="179" y2="179"/><text fill="#000000" font-family="sans-serif" font-size="11" lengthAdjust="spacing" textLength="29" x="123" y="194.4189">-MMSI</text><text fill="#000000" font-family="sans-serif" font-size="11" lengthAdjust="spacing" textLength="31" x="123" y="208.2549">-Name</text><text fill="#000000" font-family="sans-serif" font-size="11" lengthAdjust="spacing" textLength="22" x="123" y="222.0908">-IMO</text><text fill="#000000" font-family="sans-serif" font-size="11" lengthAdjust="spacing" textLength="149" x="123" y="235.9268">-Number of Energy Generators</text><text fill="#000000" font-family="sans-serif" font-size="11" lengthAdjust="spacing" textLength="131" x="123" y="249.7627">-Generators' Power Output</text><text fill="#000000" font-family="sans-serif" font-size="11" lengthAdjust="spacing" textLength="44" x="123" y="263.5986">-Call sign</text><text fill="#000000" font-family="sans-serif" font-size="11" lengthAdjust="spacing" textLength="62" x="123" y="277.4346">-Vessel type</text><text fill="#000000" font-family="sans-serif" font-size="11" lengthAdjust="spacing" textLength="37" x="123" y="291.2705">-Length</text><text fill="#000000" font-family="sans-serif" font-size="11" lengthAdjust="spacing" textLength="31" x="123" y="305.1064">-Width</text><text fill="#000000" font-family="sans-serif" font-size="11" lengthAdjust="spacing" textLength="46" x="123" y="318.9424">-Capacity</text><text fill="#000000" font-family="sans-serif" font-size="11" lengthAdjust="spacing" textLength="28" x="123" y="332.7783">-Draft</text><text fill="#000000" font-family="sans-serif" font-size="11" lengthAdjust="spacing" textLength="69" x="123" y="346.6143">-FleetManager</text><text fill="#000000" font-family="sans-serif" font-size="11" lengthAdjust="spacing" textLength="61" x="123" y="360.4502">-ShipCaptain</text><text fill="#000000" font-family="sans-serif" font-size="11" lengthAdjust="spacing" textLength="135" x="123" y="374.2861">-ShipChiefElectricalEngineer</text><line style="stroke:#A80036;stroke-width:1.5;" x1="118" x2="277" y1="380.7031" y2="380.7031"/><!--MD5=[1c0c3765e68dc4575d559b566278b914]
class ShipPosition--><rect codeLine="38" fill="#FEFECE" filter="url(#f1rrro0relduy8)" height="158.6875" id="ShipPosition" style="stroke:#A80036;stroke-width:1.5;" width="139" x="13" y="539"/><ellipse cx="44.65" cy="555" fill="#ADD1B2" rx="11" ry="11" style="stroke:#A80036;stroke-width:1.0;"/><path d="M46.65,551.5 Q46.8531,551 47.0875,550.75 Q47.3219,550.5 47.5875,550.5 Q48.0563,550.5 48.3531,550.7813 Q48.65,551.0625 48.65,551.7188 L48.65,553.2813 Q48.65,553.9375 48.3688,554.2188 Q48.0875,554.5 47.65,554.5 Q47.2594,554.5 47.0094,554.3281 Q46.7594,554.1563 46.65,553.7031 Q46.6031,553.3906 46.4313,553.2188 Q46.1188,552.8906 45.5563,552.7031 Q44.9938,552.5 44.4313,552.5 Q43.7281,552.5 43.1344,552.7813 Q42.5563,553.0625 42.1031,553.6875 Q41.65,554.3125 41.65,555.1719 L41.65,556.0938 Q41.65,557.125 42.4938,557.8125 Q43.3375,558.5 44.8375,558.5 Q45.7281,558.5 46.3531,558.2969 Q46.7125,558.1875 47.1188,557.8281 Q47.3844,557.625 47.525,557.5625 Q47.6656,557.5 47.8375,557.5 Q48.1656,557.5 48.4,557.7656 Q48.65,558.0156 48.65,558.375 Q48.65,558.7188 48.3063,559.125 Q47.8063,559.7188 47.0094,560.0469 Q45.9625,560.5 44.6813,560.5 Q43.1813,560.5 41.9781,559.9063 Q41.0094,559.4375 40.3219,558.4219 Q39.65,557.4063 39.65,556.2031 L39.65,555.1094 Q39.65,553.8594 40.2438,552.7656 Q40.8531,551.6719 41.9,551.0938 Q42.9625,550.5 44.15,550.5 Q44.8688,550.5 45.4938,550.75 Q46.1188,551 46.65,551.5 Z " fill="#000000"/><text fill="#000000" font-family="sans-serif" font-size="12" lengthAdjust="spacing" textLength="70" x="62.35" y="559.9102">ShipPosition</text><line style="stroke:#A80036;stroke-width:1.5;" x1="14" x2="151" y1="571" y2="571"/><text fill="#000000" font-family="sans-serif" font-size="11" lengthAdjust="spacing" textLength="79" x="19" y="586.4189">-Base Date Time</text><text fill="#000000" font-family="sans-serif" font-size="11" lengthAdjust="spacing" textLength="42" x="19" y="600.2549">-Latitude</text><text fill="#000000" font-family="sans-serif" font-size="11" lengthAdjust="spacing" textLength="51" x="19" y="614.0908">-Longitude</text><text fill="#000000" font-family="sans-serif" font-size="11" lengthAdjust="spacing" textLength="123" x="19" y="627.9268">-Speed over ground SOG</text><text fill="#000000" font-family="sans-serif" font-size="11" lengthAdjust="spacing" textLength="127" x="19" y="641.7627">-Course over ground COG</text><text fill="#000000" font-family="sans-serif" font-size="11" lengthAdjust="spacing" textLength="43" x="19" y="655.5986">-Heading</text><text fill="#000000" font-family="sans-serif" font-size="11" lengthAdjust="spacing" textLength="41" x="19" y="669.4346">-Position</text><text fill="#000000" font-family="sans-serif" font-size="11" lengthAdjust="spacing" textLength="92" x="19" y="683.2705">-Transceiver Class</text><line style="stroke:#A80036;stroke-width:1.5;" x1="14" x2="151" y1="689.6875" y2="689.6875"/><!--MD5=[f2ba7f6ab60af8dd0d3e354f91729b14]
class Truck--><rect codeLine="49" fill="#FEFECE" filter="url(#f1rrro0relduy8)" height="61.8359" id="Truck" style="stroke:#A80036;stroke-width:1.5;" width="72" x="313.5" y="237"/><ellipse cx="333" cy="253" fill="#ADD1B2" rx="11" ry="11" style="stroke:#A80036;stroke-width:1.0;"/><path d="M335,249.5 Q335.2031,249 335.4375,248.75 Q335.6719,248.5 335.9375,248.5 Q336.4063,248.5 336.7031,248.7813 Q337,249.0625 337,249.7188 L337,251.2813 Q337,251.9375 336.7188,252.2188 Q336.4375,252.5 336,252.5 Q335.6094,252.5 335.3594,252.3281 Q335.1094,252.1563 335,251.7031 Q334.9531,251.3906 334.7813,251.2188 Q334.4688,250.8906 333.9063,250.7031 Q333.3438,250.5 332.7813,250.5 Q332.0781,250.5 331.4844,250.7813 Q330.9063,251.0625 330.4531,251.6875 Q330,252.3125 330,253.1719 L330,254.0938 Q330,255.125 330.8438,255.8125 Q331.6875,256.5 333.1875,256.5 Q334.0781,256.5 334.7031,256.2969 Q335.0625,256.1875 335.4688,255.8281 Q335.7344,255.625 335.875,255.5625 Q336.0156,255.5 336.1875,255.5 Q336.5156,255.5 336.75,255.7656 Q337,256.0156 337,256.375 Q337,256.7188 336.6563,257.125 Q336.1563,257.7188 335.3594,258.0469 Q334.3125,258.5 333.0313,258.5 Q331.5313,258.5 330.3281,257.9063 Q329.3594,257.4375 328.6719,256.4219 Q328,255.4063 328,254.2031 L328,253.1094 Q328,251.8594 328.5938,250.7656 Q329.2031,249.6719 330.25,249.0938 Q331.3125,248.5 332.5,248.5 Q333.2188,248.5 333.8438,248.75 Q334.4688,249 335,249.5 Z " fill="#000000"/><text fill="#000000" font-family="sans-serif" font-size="12" lengthAdjust="spacing" textLength="30" x="348" y="257.9102">Truck</text><line style="stroke:#A80036;stroke-width:1.5;" x1="314.5" x2="384.5" y1="269" y2="269"/><text fill="#000000" font-family="sans-serif" font-size="11" lengthAdjust="spacing" textLength="60" x="319.5" y="284.4189">-TruckDriver</text><line style="stroke:#A80036;stroke-width:1.5;" x1="314.5" x2="384.5" y1="290.8359" y2="290.8359"/><!--MD5=[ed6624c6556d5e7b1bd23032162d20b7]
class Client--><rect codeLine="53" fill="#FEFECE" filter="url(#f1rrro0relduy8)" height="48" id="Client" style="stroke:#A80036;stroke-width:1.5;" width="64" x="563.5" y="1153"/><ellipse cx="578.5" cy="1169" fill="#ADD1B2" rx="11" ry="11" style="stroke:#A80036;stroke-width:1.0;"/><path d="M580.5,1165.5 Q580.7031,1165 580.9375,1164.75 Q581.1719,1164.5 581.4375,1164.5 Q581.9063,1164.5 582.2031,1164.7813 Q582.5,1165.0625 582.5,1165.7188 L582.5,1167.2813 Q582.5,1167.9375 582.2188,1168.2188 Q581.9375,1168.5 581.5,1168.5 Q581.1094,1168.5 580.8594,1168.3281 Q580.6094,1168.1563 580.5,1167.7031 Q580.4531,1167.3906 580.2813,1167.2188 Q579.9688,1166.8906 579.4063,1166.7031 Q578.8438,1166.5 578.2813,1166.5 Q577.5781,1166.5 576.9844,1166.7813 Q576.4063,1167.0625 575.9531,1167.6875 Q575.5,1168.3125 575.5,1169.1719 L575.5,1170.0938 Q575.5,1171.125 576.3438,1171.8125 Q577.1875,1172.5 578.6875,1172.5 Q579.5781,1172.5 580.2031,1172.2969 Q580.5625,1172.1875 580.9688,1171.8281 Q581.2344,1171.625 581.375,1171.5625 Q581.5156,1171.5 581.6875,1171.5 Q582.0156,1171.5 582.25,1171.7656 Q582.5,1172.0156 582.5,1172.375 Q582.5,1172.7188 582.1563,1173.125 Q581.6563,1173.7188 580.8594,1174.0469 Q579.8125,1174.5 578.5313,1174.5 Q577.0313,1174.5 575.8281,1173.9063 Q574.8594,1173.4375 574.1719,1172.4219 Q573.5,1171.4063 573.5,1170.2031 L573.5,1169.1094 Q573.5,1167.8594 574.0938,1166.7656 Q574.7031,1165.6719 575.75,1165.0938 Q576.8125,1164.5 578,1164.5 Q578.7188,1164.5 579.3438,1164.75 Q579.9688,1165 580.5,1165.5 Z " fill="#000000"/><text fill="#000000" font-family="sans-serif" font-size="12" lengthAdjust="spacing" textLength="32" x="592.5" y="1173.9102">Client</text><line style="stroke:#A80036;stroke-width:1.5;" x1="564.5" x2="626.5" y1="1185" y2="1185"/><line style="stroke:#A80036;stroke-width:1.5;" x1="564.5" x2="626.5" y1="1193" y2="1193"/><!--MD5=[a0bfe97ac0a38e6e74cc1c7c7b744b71]
class Port--><rect codeLine="55" fill="#FEFECE" filter="url(#f1rrro0relduy8)" height="158.6875" id="Port" style="stroke:#A80036;stroke-width:1.5;" width="77" x="886" y="188.5"/><ellipse cx="911.35" cy="204.5" fill="#ADD1B2" rx="11" ry="11" style="stroke:#A80036;stroke-width:1.0;"/><path d="M913.35,201 Q913.5531,200.5 913.7875,200.25 Q914.0219,200 914.2875,200 Q914.7563,200 915.0531,200.2813 Q915.35,200.5625 915.35,201.2188 L915.35,202.7813 Q915.35,203.4375 915.0688,203.7188 Q914.7875,204 914.35,204 Q913.9594,204 913.7094,203.8281 Q913.4594,203.6563 913.35,203.2031 Q913.3031,202.8906 913.1313,202.7188 Q912.8188,202.3906 912.2563,202.2031 Q911.6938,202 911.1313,202 Q910.4281,202 909.8344,202.2813 Q909.2563,202.5625 908.8031,203.1875 Q908.35,203.8125 908.35,204.6719 L908.35,205.5938 Q908.35,206.625 909.1938,207.3125 Q910.0375,208 911.5375,208 Q912.4281,208 913.0531,207.7969 Q913.4125,207.6875 913.8188,207.3281 Q914.0844,207.125 914.225,207.0625 Q914.3656,207 914.5375,207 Q914.8656,207 915.1,207.2656 Q915.35,207.5156 915.35,207.875 Q915.35,208.2188 915.0063,208.625 Q914.5063,209.2188 913.7094,209.5469 Q912.6625,210 911.3813,210 Q909.8813,210 908.6781,209.4063 Q907.7094,208.9375 907.0219,207.9219 Q906.35,206.9063 906.35,205.7031 L906.35,204.6094 Q906.35,203.3594 906.9438,202.2656 Q907.5531,201.1719 908.6,200.5938 Q909.6625,200 910.85,200 Q911.5688,200 912.1938,200.25 Q912.8188,200.5 913.35,201 Z " fill="#000000"/><text fill="#000000" font-family="sans-serif" font-size="12" lengthAdjust="spacing" textLength="22" x="927.65" y="209.4102">Port</text><line style="stroke:#A80036;stroke-width:1.5;" x1="887" x2="962" y1="220.5" y2="220.5"/><text fill="#000000" font-family="sans-serif" font-size="11" lengthAdjust="spacing" textLength="64" x="892" y="235.9189">-Identification</text><text fill="#000000" font-family="sans-serif" font-size="11" lengthAdjust="spacing" textLength="31" x="892" y="249.7549">-Name</text><text fill="#000000" font-family="sans-serif" font-size="11" lengthAdjust="spacing" textLength="49" x="892" y="263.5908">-Continent</text><text fill="#000000" font-family="sans-serif" font-size="11" lengthAdjust="spacing" textLength="42" x="892" y="277.4268">-Country</text><text fill="#000000" font-family="sans-serif" font-size="11" lengthAdjust="spacing" textLength="42" x="892" y="291.2627">-Latitude</text><text fill="#000000" font-family="sans-serif" font-size="11" lengthAdjust="spacing" textLength="47" x="892" y="305.0986">-longitude</text><text fill="#000000" font-family="sans-serif" font-size="11" lengthAdjust="spacing" textLength="65" x="892" y="318.9346">-PortMagager</text><text fill="#000000" font-family="sans-serif" font-size="11" lengthAdjust="spacing" textLength="47" x="892" y="332.7705">-PortStaff</text><line style="stroke:#A80036;stroke-width:1.5;" x1="887" x2="962" y1="339.1875" y2="339.1875"/><!--MD5=[c5149b4909ffd2688ff51a939867f774]
class Warehouse--><rect codeLine="66" fill="#FEFECE" filter="url(#f1rrro0relduy8)" height="158.6875" id="Warehouse" style="stroke:#A80036;stroke-width:1.5;" width="114" x="420.5" y="188.5"/><ellipse cx="443.6" cy="204.5" fill="#ADD1B2" rx="11" ry="11" style="stroke:#A80036;stroke-width:1.0;"/><path d="M445.6,201 Q445.8031,200.5 446.0375,200.25 Q446.2719,200 446.5375,200 Q447.0063,200 447.3031,200.2813 Q447.6,200.5625 447.6,201.2188 L447.6,202.7813 Q447.6,203.4375 447.3188,203.7188 Q447.0375,204 446.6,204 Q446.2094,204 445.9594,203.8281 Q445.7094,203.6563 445.6,203.2031 Q445.5531,202.8906 445.3813,202.7188 Q445.0688,202.3906 444.5063,202.2031 Q443.9438,202 443.3813,202 Q442.6781,202 442.0844,202.2813 Q441.5063,202.5625 441.0531,203.1875 Q440.6,203.8125 440.6,204.6719 L440.6,205.5938 Q440.6,206.625 441.4438,207.3125 Q442.2875,208 443.7875,208 Q444.6781,208 445.3031,207.7969 Q445.6625,207.6875 446.0688,207.3281 Q446.3344,207.125 446.475,207.0625 Q446.6156,207 446.7875,207 Q447.1156,207 447.35,207.2656 Q447.6,207.5156 447.6,207.875 Q447.6,208.2188 447.2563,208.625 Q446.7563,209.2188 445.9594,209.5469 Q444.9125,210 443.6313,210 Q442.1313,210 440.9281,209.4063 Q439.9594,208.9375 439.2719,207.9219 Q438.6,206.9063 438.6,205.7031 L438.6,204.6094 Q438.6,203.3594 439.1938,202.2656 Q439.8031,201.1719 440.85,200.5938 Q441.9125,200 443.1,200 Q443.8188,200 444.4438,200.25 Q445.0688,200.5 445.6,201 Z " fill="#000000"/><text fill="#000000" font-family="sans-serif" font-size="12" lengthAdjust="spacing" textLength="64" x="459.4" y="209.4102">Warehouse</text><line style="stroke:#A80036;stroke-width:1.5;" x1="421.5" x2="533.5" y1="220.5" y2="220.5"/><text fill="#000000" font-family="sans-serif" font-size="11" lengthAdjust="spacing" textLength="64" x="426.5" y="235.9189">-Identification</text><text fill="#000000" font-family="sans-serif" font-size="11" lengthAdjust="spacing" textLength="31" x="426.5" y="249.7549">-Name</text><text fill="#000000" font-family="sans-serif" font-size="11" lengthAdjust="spacing" textLength="49" x="426.5" y="263.5908">-Continent</text><text fill="#000000" font-family="sans-serif" font-size="11" lengthAdjust="spacing" textLength="42" x="426.5" y="277.4268">-Country</text><text fill="#000000" font-family="sans-serif" font-size="11" lengthAdjust="spacing" textLength="42" x="426.5" y="291.2627">-Latitude</text><text fill="#000000" font-family="sans-serif" font-size="11" lengthAdjust="spacing" textLength="47" x="426.5" y="305.0986">-longitude</text><text fill="#000000" font-family="sans-serif" font-size="11" lengthAdjust="spacing" textLength="102" x="426.5" y="318.9346">-WarehouseManager</text><text fill="#000000" font-family="sans-serif" font-size="11" lengthAdjust="spacing" textLength="84" x="426.5" y="332.7705">-WarehouseStaff</text><line style="stroke:#A80036;stroke-width:1.5;" x1="421.5" x2="533.5" y1="339.1875" y2="339.1875"/><!--MD5=[7421f545a0d8420c5bec41e74b387d9c]
class Employee--><rect codeLine="77" fill="#FEFECE" filter="url(#f1rrro0relduy8)" height="89.5078" id="Employee" style="stroke:#A80036;stroke-width:1.5;" width="87" x="671" y="419"/><ellipse cx="686" cy="435" fill="#ADD1B2" rx="11" ry="11" style="stroke:#A80036;stroke-width:1.0;"/><path d="M688,431.5 Q688.2031,431 688.4375,430.75 Q688.6719,430.5 688.9375,430.5 Q689.4063,430.5 689.7031,430.7813 Q690,431.0625 690,431.7188 L690,433.2813 Q690,433.9375 689.7188,434.2188 Q689.4375,434.5 689,434.5 Q688.6094,434.5 688.3594,434.3281 Q688.1094,434.1563 688,433.7031 Q687.9531,433.3906 687.7813,433.2188 Q687.4688,432.8906 686.9063,432.7031 Q686.3438,432.5 685.7813,432.5 Q685.0781,432.5 684.4844,432.7813 Q683.9063,433.0625 683.4531,433.6875 Q683,434.3125 683,435.1719 L683,436.0938 Q683,437.125 683.8438,437.8125 Q684.6875,438.5 686.1875,438.5 Q687.0781,438.5 687.7031,438.2969 Q688.0625,438.1875 688.4688,437.8281 Q688.7344,437.625 688.875,437.5625 Q689.0156,437.5 689.1875,437.5 Q689.5156,437.5 689.75,437.7656 Q690,438.0156 690,438.375 Q690,438.7188 689.6563,439.125 Q689.1563,439.7188 688.3594,440.0469 Q687.3125,440.5 686.0313,440.5 Q684.5313,440.5 683.3281,439.9063 Q682.3594,439.4375 681.6719,438.4219 Q681,437.4063 681,436.2031 L681,435.1094 Q681,433.8594 681.5938,432.7656 Q682.2031,431.6719 683.25,431.0938 Q684.3125,430.5 685.5,430.5 Q686.2188,430.5 686.8438,430.75 Q687.4688,431 688,431.5 Z " fill="#000000"/><text fill="#000000" font-family="sans-serif" font-size="12" lengthAdjust="spacing" textLength="55" x="700" y="439.9102">Employee</text><line style="stroke:#A80036;stroke-width:1.5;" x1="672" x2="757" y1="451" y2="451"/><text fill="#000000" font-family="sans-serif" font-size="11" lengthAdjust="spacing" textLength="31" x="677" y="466.4189">-Name</text><text fill="#000000" font-family="sans-serif" font-size="11" lengthAdjust="spacing" textLength="28" x="677" y="480.2549">-Email</text><text fill="#000000" font-family="sans-serif" font-size="11" lengthAdjust="spacing" textLength="54" x="677" y="494.0908">-Password</text><line style="stroke:#A80036;stroke-width:1.5;" x1="672" x2="757" y1="500.5078" y2="500.5078"/><!--MD5=[12e90e92236ca84f203192a07d84ec5e]
class OrganizationRole--><rect codeLine="83" fill="#FEFECE" filter="url(#f1rrro0relduy8)" height="61.8359" id="OrganizationRole" style="stroke:#A80036;stroke-width:1.5;" width="127" x="596" y="587.5"/><ellipse cx="611" cy="603.5" fill="#ADD1B2" rx="11" ry="11" style="stroke:#A80036;stroke-width:1.0;"/><path d="M613,600 Q613.2031,599.5 613.4375,599.25 Q613.6719,599 613.9375,599 Q614.4063,599 614.7031,599.2813 Q615,599.5625 615,600.2188 L615,601.7813 Q615,602.4375 614.7188,602.7188 Q614.4375,603 614,603 Q613.6094,603 613.3594,602.8281 Q613.1094,602.6563 613,602.2031 Q612.9531,601.8906 612.7813,601.7188 Q612.4688,601.3906 611.9063,601.2031 Q611.3438,601 610.7813,601 Q610.0781,601 609.4844,601.2813 Q608.9063,601.5625 608.4531,602.1875 Q608,602.8125 608,603.6719 L608,604.5938 Q608,605.625 608.8438,606.3125 Q609.6875,607 611.1875,607 Q612.0781,607 612.7031,606.7969 Q613.0625,606.6875 613.4688,606.3281 Q613.7344,606.125 613.875,606.0625 Q614.0156,606 614.1875,606 Q614.5156,606 614.75,606.2656 Q615,606.5156 615,606.875 Q615,607.2188 614.6563,607.625 Q614.1563,608.2188 613.3594,608.5469 Q612.3125,609 611.0313,609 Q609.5313,609 608.3281,608.4063 Q607.3594,607.9375 606.6719,606.9219 Q606,605.9063 606,604.7031 L606,603.6094 Q606,602.3594 606.5938,601.2656 Q607.2031,600.1719 608.25,599.5938 Q609.3125,599 610.5,599 Q611.2188,599 611.8438,599.25 Q612.4688,599.5 613,600 Z " fill="#000000"/><text fill="#000000" font-family="sans-serif" font-size="12" lengthAdjust="spacing" textLength="95" x="625" y="608.4102">OrganizationRole</text><line style="stroke:#A80036;stroke-width:1.5;" x1="597" x2="722" y1="619.5" y2="619.5"/><text fill="#000000" font-family="sans-serif" font-size="11" lengthAdjust="spacing" textLength="58" x="602" y="634.9189">-Description</text><line style="stroke:#A80036;stroke-width:1.5;" x1="597" x2="722" y1="641.3359" y2="641.3359"/><!--MD5=[ddaf6f62b0bc30921877ec9fb9463c9f]
class TrafficManager--><rect codeLine="87" fill="#FEFECE" filter="url(#f1rrro0relduy8)" height="48" id="TrafficManager" style="stroke:#A80036;stroke-width:1.5;" width="113" x="7" y="14"/><ellipse cx="22" cy="30" fill="#ADD1B2" rx="11" ry="11" style="stroke:#A80036;stroke-width:1.0;"/><path d="M24,26.5 Q24.2031,26 24.4375,25.75 Q24.6719,25.5 24.9375,25.5 Q25.4063,25.5 25.7031,25.7813 Q26,26.0625 26,26.7188 L26,28.2813 Q26,28.9375 25.7188,29.2188 Q25.4375,29.5 25,29.5 Q24.6094,29.5 24.3594,29.3281 Q24.1094,29.1563 24,28.7031 Q23.9531,28.3906 23.7813,28.2188 Q23.4688,27.8906 22.9063,27.7031 Q22.3438,27.5 21.7813,27.5 Q21.0781,27.5 20.4844,27.7813 Q19.9063,28.0625 19.4531,28.6875 Q19,29.3125 19,30.1719 L19,31.0938 Q19,32.125 19.8438,32.8125 Q20.6875,33.5 22.1875,33.5 Q23.0781,33.5 23.7031,33.2969 Q24.0625,33.1875 24.4688,32.8281 Q24.7344,32.625 24.875,32.5625 Q25.0156,32.5 25.1875,32.5 Q25.5156,32.5 25.75,32.7656 Q26,33.0156 26,33.375 Q26,33.7188 25.6563,34.125 Q25.1563,34.7188 24.3594,35.0469 Q23.3125,35.5 22.0313,35.5 Q20.5313,35.5 19.3281,34.9063 Q18.3594,34.4375 17.6719,33.4219 Q17,32.4063 17,31.2031 L17,30.1094 Q17,28.8594 17.5938,27.7656 Q18.2031,26.6719 19.25,26.0938 Q20.3125,25.5 21.5,25.5 Q22.2188,25.5 22.8438,25.75 Q23.4688,26 24,26.5 Z " fill="#000000"/><text fill="#000000" font-family="sans-serif" font-size="12" lengthAdjust="spacing" textLength="81" x="36" y="34.9102">TrafficManager</text><line style="stroke:#A80036;stroke-width:1.5;" x1="8" x2="119" y1="46" y2="46"/><line style="stroke:#A80036;stroke-width:1.5;" x1="8" x2="119" y1="54" y2="54"/><!--MD5=[76562047389981627aea27c31a97aff5]
class CargoManifest--><rect codeLine="89" fill="#FEFECE" filter="url(#f1rrro0relduy8)" height="48" id="CargoManifest" style="stroke:#A80036;stroke-width:1.5;" width="112" x="539.5" y="776"/><ellipse cx="554.5" cy="792" fill="#ADD1B2" rx="11" ry="11" style="stroke:#A80036;stroke-width:1.0;"/><path d="M556.5,788.5 Q556.7031,788 556.9375,787.75 Q557.1719,787.5 557.4375,787.5 Q557.9063,787.5 558.2031,787.7813 Q558.5,788.0625 558.5,788.7188 L558.5,790.2813 Q558.5,790.9375 558.2188,791.2188 Q557.9375,791.5 557.5,791.5 Q557.1094,791.5 556.8594,791.3281 Q556.6094,791.1563 556.5,790.7031 Q556.4531,790.3906 556.2813,790.2188 Q555.9688,789.8906 555.4063,789.7031 Q554.8438,789.5 554.2813,789.5 Q553.5781,789.5 552.9844,789.7813 Q552.4063,790.0625 551.9531,790.6875 Q551.5,791.3125 551.5,792.1719 L551.5,793.0938 Q551.5,794.125 552.3438,794.8125 Q553.1875,795.5 554.6875,795.5 Q555.5781,795.5 556.2031,795.2969 Q556.5625,795.1875 556.9688,794.8281 Q557.2344,794.625 557.375,794.5625 Q557.5156,794.5 557.6875,794.5 Q558.0156,794.5 558.25,794.7656 Q558.5,795.0156 558.5,795.375 Q558.5,795.7188 558.1563,796.125 Q557.6563,796.7188 556.8594,797.0469 Q555.8125,797.5 554.5313,797.5 Q553.0313,797.5 551.8281,796.9063 Q550.8594,796.4375 550.1719,795.4219 Q549.5,794.4063 549.5,793.2031 L549.5,792.1094 Q549.5,790.8594 550.0938,789.7656 Q550.7031,788.6719 551.75,788.0938 Q552.8125,787.5 554,787.5 Q554.7188,787.5 555.3438,787.75 Q555.9688,788 556.5,788.5 Z " fill="#000000"/><text fill="#000000" font-family="sans-serif" font-size="12" lengthAdjust="spacing" textLength="80" x="568.5" y="796.9102">CargoManifest</text><line style="stroke:#A80036;stroke-width:1.5;" x1="540.5" x2="650.5" y1="808" y2="808"/><line style="stroke:#A80036;stroke-width:1.5;" x1="540.5" x2="650.5" y1="816" y2="816"/><!--MD5=[18f5b4ccae6e62f3670d3aa352beb4cd]
class Trip--><rect codeLine="91" fill="#FEFECE" filter="url(#f1rrro0relduy8)" height="75.6719" id="Trip" style="stroke:#A80036;stroke-width:1.5;" width="79" x="310" y="580.5"/><ellipse cx="336.7" cy="596.5" fill="#ADD1B2" rx="11" ry="11" style="stroke:#A80036;stroke-width:1.0;"/><path d="M338.7,593 Q338.9031,592.5 339.1375,592.25 Q339.3719,592 339.6375,592 Q340.1063,592 340.4031,592.2813 Q340.7,592.5625 340.7,593.2188 L340.7,594.7813 Q340.7,595.4375 340.4188,595.7188 Q340.1375,596 339.7,596 Q339.3094,596 339.0594,595.8281 Q338.8094,595.6563 338.7,595.2031 Q338.6531,594.8906 338.4813,594.7188 Q338.1688,594.3906 337.6063,594.2031 Q337.0438,594 336.4813,594 Q335.7781,594 335.1844,594.2813 Q334.6063,594.5625 334.1531,595.1875 Q333.7,595.8125 333.7,596.6719 L333.7,597.5938 Q333.7,598.625 334.5438,599.3125 Q335.3875,600 336.8875,600 Q337.7781,600 338.4031,599.7969 Q338.7625,599.6875 339.1688,599.3281 Q339.4344,599.125 339.575,599.0625 Q339.7156,599 339.8875,599 Q340.2156,599 340.45,599.2656 Q340.7,599.5156 340.7,599.875 Q340.7,600.2188 340.3563,600.625 Q339.8563,601.2188 339.0594,601.5469 Q338.0125,602 336.7313,602 Q335.2313,602 334.0281,601.4063 Q333.0594,600.9375 332.3719,599.9219 Q331.7,598.9063 331.7,597.7031 L331.7,596.6094 Q331.7,595.3594 332.2938,594.2656 Q332.9031,593.1719 333.95,592.5938 Q335.0125,592 336.2,592 Q336.9188,592 337.5438,592.25 Q338.1688,592.5 338.7,593 Z " fill="#000000"/><text fill="#000000" font-family="sans-serif" font-size="12" lengthAdjust="spacing" textLength="21" x="353.3" y="601.4102">Trip</text><line style="stroke:#A80036;stroke-width:1.5;" x1="311" x2="388" y1="612.5" y2="612.5"/><text fill="#000000" font-family="sans-serif" font-size="11" lengthAdjust="spacing" textLength="67" x="316" y="627.9189">-Starting point</text><text fill="#000000" font-family="sans-serif" font-size="11" lengthAdjust="spacing" textLength="57" x="316" y="641.7549">-Destination</text><line style="stroke:#A80036;stroke-width:1.5;" x1="311" x2="388" y1="648.1719" y2="648.1719"/><!--MD5=[37a14a5de6d6fd738aee271300f4b5c8]
link Company to Ship--><path codeLine="96" d="M561.93,43.96 C497.45,53.47 374.19,79.66 295.5,147 C289.57,152.07 283.73,157.53 278.03,163.23 " fill="none" id="Company-Ship" style="stroke:#A80036;stroke-width:1.0;"/><polygon fill="#000000" points="370.8903,110.1124,380.3677,109.3186,378.091,103.8995,370.8903,110.1124" style="stroke:#000000;stroke-width:1.0;"/><text fill="#000000" font-family="sans-serif" font-size="13" lengthAdjust="spacing" textLength="33" x="384.5" y="113.4951">Owns</text><text fill="#000000" font-family="sans-serif" font-size="13" lengthAdjust="spacing" textLength="7" x="547.0117" y="41.1488">1</text><text fill="#000000" font-family="sans-serif" font-size="13" lengthAdjust="spacing" textLength="20" x="286.0928" y="150.7104">1..*</text><!--MD5=[710b10ea314ec23c5eb602bd01bfa9d5]
link Company to Truck--><path codeLine="97" d="M561.9,50.57 C515.74,65.33 443.26,95.32 402.5,147 C381.13,174.09 366.49,211.14 358.1,236.88 " fill="none" id="Company-Truck" style="stroke:#A80036;stroke-width:1.0;"/><polygon fill="#000000" points="454.8097,111.5494,463.4685,107.6156,459.5026,103.2773,454.8097,111.5494" style="stroke:#000000;stroke-width:1.0;"/><text fill="#000000" font-family="sans-serif" font-size="13" lengthAdjust="spacing" textLength="33" x="467.5" y="113.4951">Owns</text><text fill="#000000" font-family="sans-serif" font-size="13" lengthAdjust="spacing" textLength="7" x="546.9766" y="67.6449">1</text><text fill="#000000" font-family="sans-serif" font-size="13" lengthAdjust="spacing" textLength="20" x="361.9363" y="226.3598">1..*</text><!--MD5=[5fd98a8c03cc0e5a408f548eb1c0ace8]
link Company to Port--><path codeLine="98" d="M647.04,44.23 C710.84,52.85 827.17,71.84 858.5,99 C884.78,121.78 900.68,156.39 910.26,188.29 " fill="none" id="Company-Port" style="stroke:#A80036;stroke-width:1.0;"/><polygon fill="#000000" points="883.8861,110.5763,877.3626,103.6557,874.5406,108.8118,883.8861,110.5763" style="stroke:#000000;stroke-width:1.0;"/><text fill="#000000" font-family="sans-serif" font-size="13" lengthAdjust="spacing" textLength="33" x="888.5" y="113.4951">Owns</text><text fill="#000000" font-family="sans-serif" font-size="13" lengthAdjust="spacing" textLength="7" x="654.9531" y="60.2152">1</text><text fill="#000000" font-family="sans-serif" font-size="13" lengthAdjust="spacing" textLength="5" x="903.7168" y="177.73">*</text><!--MD5=[acda98ef2513d819683ba761a9c77b11]
link Company to Warehouse--><path codeLine="99" d="M561.69,66.75 C550.25,75.87 538.78,86.83 530.5,99 C512.43,125.55 500.27,158.58 492.21,188.31 " fill="none" id="Company-Warehouse" style="stroke:#A80036;stroke-width:1.0;"/><polygon fill="#000000" points="533.0188,112.5167,540.0588,106.1223,534.9557,103.2055,533.0188,112.5167" style="stroke:#000000;stroke-width:1.0;"/><text fill="#000000" font-family="sans-serif" font-size="13" lengthAdjust="spacing" textLength="33" x="544.5" y="113.4951">Owns</text><text fill="#000000" font-family="sans-serif" font-size="13" lengthAdjust="spacing" textLength="7" x="547.0199" y="86.3745">1</text><text fill="#000000" font-family="sans-serif" font-size="13" lengthAdjust="spacing" textLength="5" x="488.3356" y="177.7518">*</text><!--MD5=[09366576ee87d48d594df10cacc83f45]
link Company to Employee--><path codeLine="100" d="M645.44,69.11 C668.27,88.51 694.63,115.87 707.5,147 C744.97,237.65 733.52,355.77 723.21,418.81 " fill="none" id="Company-Employee" style="stroke:#A80036;stroke-width:1.0;"/><polygon fill="#000000" points="697.5854,113.0565,698.4907,103.5892,692.753,104.8652,697.5854,113.0565" style="stroke:#000000;stroke-width:1.0;"/><text fill="#000000" font-family="sans-serif" font-size="13" lengthAdjust="spacing" textLength="51" x="705.5" y="113.4951">Employs</text><text fill="#000000" font-family="sans-serif" font-size="13" lengthAdjust="spacing" textLength="7" x="645.811" y="90.3557">1</text><text fill="#000000" font-family="sans-serif" font-size="13" lengthAdjust="spacing" textLength="5" x="719.1609" y="408.225">*</text><!--MD5=[31d56c2a59c24a3884ad113e84e7cd8c]
link Company to CargoManifest--><path codeLine="101" d="M647.32,42.11 C685.2,47.37 738.54,61.44 765.5,99 C871.8,247.07 792.17,327.49 775.5,509 C767.69,594.07 786.8,626.2 740.5,698 C718.05,732.81 678.96,758.99 647.02,775.97 " fill="none" id="Company-CargoManifest" style="stroke:#A80036;stroke-width:1.0;"/><polygon fill="#000000" points="793.498,469.1758,796.4406,460.1319,790.5627,460.1295,793.498,469.1758" style="stroke:#000000;stroke-width:1.0;"/><text fill="#000000" font-family="sans-serif" font-size="13" lengthAdjust="spacing" textLength="39" x="802.5" y="469.4951">Knows</text><text fill="#000000" font-family="sans-serif" font-size="13" lengthAdjust="spacing" textLength="7" x="654.9918" y="39.0035">1</text><text fill="#000000" font-family="sans-serif" font-size="13" lengthAdjust="spacing" textLength="5" x="654.5814" y="765.3025">*</text><!--MD5=[9abf40ff36e4aa94ac761b2803c1dce8]
link Company to OrganizationRole--><path codeLine="102" d="M602.12,69.1 C597.85,129.85 590.54,271.34 604.5,389 C613.08,461.33 636.44,543.88 649.79,587.24 " fill="none" id="Company-OrganizationRole" style="stroke:#A80036;stroke-width:1.0;"/><polygon fill="#000000" points="609.9581,273.1548,612.056,263.8785,606.2028,264.417,609.9581,273.1548" style="stroke:#000000;stroke-width:1.0;"/><text fill="#000000" font-family="sans-serif" font-size="13" lengthAdjust="spacing" textLength="80" x="618.5" y="273.4951">Comprehends</text><text fill="#000000" font-family="sans-serif" font-size="13" lengthAdjust="spacing" textLength="7" x="593.9624" y="90.3437">1</text><text fill="#000000" font-family="sans-serif" font-size="13" lengthAdjust="spacing" textLength="5" x="642.2717" y="576.6909">*</text><!--MD5=[241b49406f7a05442b1e788ffaf3787c]
link Employee to OrganizationRole--><path codeLine="103" d="M698.59,509.11 C689.52,534.27 678.38,565.14 670.32,587.49 " fill="none" id="Employee-OrganizationRole" style="stroke:#A80036;stroke-width:1.0;"/><polygon fill="#000000" points="612.3836,545.2292,618.217,537.7178,612.6878,535.7235,612.3836,545.2292" style="stroke:#000000;stroke-width:1.0;"/><text fill="#000000" font-family="sans-serif" font-size="13" lengthAdjust="spacing" textLength="60" x="623.08" y="545.8451">Has/Plays</text><text fill="#000000" font-family="sans-serif" font-size="13" lengthAdjust="spacing" textLength="5" x="691.0011" y="530.133">*</text><text fill="#000000" font-family="sans-serif" font-size="13" lengthAdjust="spacing" textLength="7" x="664.9213" y="576.5081">1</text><!--MD5=[7c2ed8f842290e081d69a6d4a2daa6d0]
link Ship to Trip--><path codeLine="104" d="M229.91,389.04 C242.33,428.19 258.04,471.27 276.5,509 C288.78,534.08 306.11,560.11 320.8,580.38 " fill="none" id="Ship-Trip" style="stroke:#A80036;stroke-width:1.0;"/><polygon fill="#000000" points="283.6454,468.6921,282.419,459.261,277.1097,461.783,283.6454,468.6921" style="stroke:#000000;stroke-width:1.0;"/><text fill="#000000" font-family="sans-serif" font-size="13" lengthAdjust="spacing" textLength="50" x="290.5" y="469.4951">performs</text><text fill="#000000" font-family="sans-serif" font-size="13" lengthAdjust="spacing" textLength="7" x="224.5814" y="410.014">1</text><text fill="#000000" font-family="sans-serif" font-size="13" lengthAdjust="spacing" textLength="5" x="310.2425" y="569.7205">*</text><!--MD5=[17b7ccf869bd0829dc5fdfacb355ba75]
link Trip to CargoManifest--><path codeLine="105" d="M389.02,648.34 C437.65,683.82 519.22,743.34 563.89,775.94 " fill="none" id="Trip-CargoManifest" style="stroke:#A80036;stroke-width:1.0;"/><polygon fill="#000000" points="532.539,740.123,526.9647,732.4173,523.5,737.1655,532.539,740.123" style="stroke:#000000;stroke-width:1.0;"/><text fill="#000000" font-family="sans-serif" font-size="13" lengthAdjust="spacing" textLength="21" x="537.5" y="742.4951">has</text><text fill="#000000" font-family="sans-serif" font-size="13" lengthAdjust="spacing" textLength="7" x="396.9518" y="649.9245">1</text><text fill="#000000" font-family="sans-serif" font-size="13" lengthAdjust="spacing" textLength="7" x="547.8931" y="765.2648">1</text><!--MD5=[f56e222e1748568825f030a9b791275e]
link Ship to ShipPosition--><path codeLine="106" d="M151.84,389.09 C148.26,399.18 144.77,409.25 141.5,419 C128.37,458.21 115.13,502.24 104.53,538.86 " fill="none" id="Ship-ShipPosition" style="stroke:#A80036;stroke-width:1.0;"/><polygon fill="#000000" points="144.9939,468.9436,150.5209,461.2038,144.916,459.4333,144.9939,468.9436" style="stroke:#000000;stroke-width:1.0;"/><text fill="#000000" font-family="sans-serif" font-size="13" lengthAdjust="spacing" textLength="21" x="155.5" y="469.4951">has</text><text fill="#000000" font-family="sans-serif" font-size="13" lengthAdjust="spacing" textLength="7" x="141.9979" y="410.0669">1</text><text fill="#000000" font-family="sans-serif" font-size="13" lengthAdjust="spacing" textLength="20" x="85.6766" y="528.0336">1..*</text><!--MD5=[0e32c7758dbd9763ef36bc86a30fd8c6]
link TrafficManager to ShipPosition--><path codeLine="107" d="M55.92,62.28 C49.29,83.95 40.16,117.27 36.5,147 C23.36,253.75 25.83,281.97 36.5,389 C41.52,439.33 52.6,494.99 62.63,538.77 " fill="none" id="TrafficManager-ShipPosition" style="stroke:#A80036;stroke-width:1.0;"/><polygon fill="#000000" points="41.5704,273.1753,44.3817,264.0897,38.5044,264.1725,41.5704,273.1753" style="stroke:#000000;stroke-width:1.0;"/><text fill="#000000" font-family="sans-serif" font-size="13" lengthAdjust="spacing" textLength="48" x="50.5" y="273.4951">Controls</text><text fill="#000000" font-family="sans-serif" font-size="13" lengthAdjust="spacing" textLength="7" x="46.2193" y="83.6862">1</text><text fill="#000000" font-family="sans-serif" font-size="13" lengthAdjust="spacing" textLength="5" x="55.5678" y="528.2081">*</text><!--MD5=[c7e069b1632a1ebf214cea93e002bf09]
link TrafficManager to Truck--><path codeLine="108" d="M70.43,62.28 C77.01,80.17 88.74,103.95 107.5,117 C176.96,165.31 228.3,95.59 295.5,147 C323.99,168.79 337.84,208.99 344.3,236.82 " fill="none" id="TrafficManager-Truck" style="stroke:#A80036;stroke-width:1.0;"/><polygon fill="#000000" points="116.7165,110.863,110.6683,103.5234,107.5093,108.4802,116.7165,110.863" style="stroke:#000000;stroke-width:1.0;"/><text fill="#000000" font-family="sans-serif" font-size="13" lengthAdjust="spacing" textLength="111" x="121.5" y="113.4951">Controls position of</text><text fill="#000000" font-family="sans-serif" font-size="13" lengthAdjust="spacing" textLength="7" x="64.2661" y="83.6862">1</text><text fill="#000000" font-family="sans-serif" font-size="13" lengthAdjust="spacing" textLength="5" x="337.7119" y="226.2874">*</text><!--MD5=[e9affaa5b50bfb6258ed16f30d9b3949]
link Truck to Trip--><path codeLine="109" d="M349.5,299.01 C349.5,362.66 349.5,511.02 349.5,580.44 " fill="none" id="Truck-Trip" style="stroke:#A80036;stroke-width:1.0;"/><polygon fill="#000000" points="354.5,469.1758,357.4389,460.1307,351.5611,460.1307,354.5,469.1758" style="stroke:#000000;stroke-width:1.0;"/><text fill="#000000" font-family="sans-serif" font-size="13" lengthAdjust="spacing" textLength="50" x="363.5" y="469.4951">performs</text><text fill="#000000" font-family="sans-serif" font-size="13" lengthAdjust="spacing" textLength="7" x="341.8109" y="320.236">1</text><text fill="#000000" font-family="sans-serif" font-size="13" lengthAdjust="spacing" textLength="5" x="344.0391" y="569.5055">*</text><!--MD5=[a93f71c337684849482b0ec5675aa7db]
link CargoManifest to Container--><path codeLine="110" d="M595.5,824.24 C595.5,843.87 595.5,873.25 595.5,901.69 " fill="none" id="CargoManifest-Container" style="stroke:#A80036;stroke-width:1.0;"/><polygon fill="#000000" points="600.5,868.1758,603.4389,859.1307,597.5611,859.1307,600.5,868.1758" style="stroke:#000000;stroke-width:1.0;"/><text fill="#000000" font-family="sans-serif" font-size="13" lengthAdjust="spacing" textLength="84" x="609.5" y="868.4951">Keeps track of</text><text fill="#000000" font-family="sans-serif" font-size="13" lengthAdjust="spacing" textLength="5" x="589.8906" y="845.6365">*</text><text fill="#000000" font-family="sans-serif" font-size="13" lengthAdjust="spacing" textLength="5" x="590.2852" y="891.073">*</text><!--MD5=[8b95926aa8f68cb7f444084257cd34f6]
link Container to Client--><path codeLine="111" d="M595.5,1075.11 C595.5,1103.64 595.5,1133.14 595.5,1152.81 " fill="none" id="Container-Client" style="stroke:#A80036;stroke-width:1.0;"/><text fill="#000000" font-family="sans-serif" font-size="13" lengthAdjust="spacing" textLength="104" x="596.5" y="1119.4951">tranports goods of</text><text fill="#000000" font-family="sans-serif" font-size="13" lengthAdjust="spacing" textLength="20" x="574.7344" y="1095.8804">1..*</text><text fill="#000000" font-family="sans-serif" font-size="13" lengthAdjust="spacing" textLength="7" x="587.6031" y="1142.1015">1</text><!--MD5=[f72fd022765a1799636066212f1e13f7]
@startuml
'https://plantuml.com/class-diagram

skinparam classAttributeIconSize 0

class Company {
-Designation
}

class Container {
-Identification
-Payload
-Tare
-Gross
-Width
-Height
-Length
-Refrigerated
-Temperature
}

class Ship {
-MMSI
-Name
-IMO
-Number of Energy Generators
-Generators' Power Output
-Call sign
-Vessel type
-Length
-Width
-Capacity
-Draft
-FleetManager
-ShipCaptain
-ShipChiefElectricalEngineer
}

class ShipPosition {
-Base Date Time
-Latitude
-Longitude
-Speed over ground SOG
-Course over ground COG
-Heading
-Position
-Transceiver Class
}

class Truck {
-TruckDriver
}

class Client

class Port {
-Identification
-Name
-Continent
-Country
-Latitude
-longitude
-PortMagager
-PortStaff
}

class Warehouse {
-Identification
-Name
-Continent
-Country
-Latitude
-longitude
-WarehouseManager
-WarehouseStaff
}

class Employee {
-Name
-Email
-Password
}

class OrganizationRole {
-Description
}

class TrafficManager

class CargoManifest

class Trip {
-Starting point
-Destination
}

Company "1" - - "1..*" Ship : Owns >
Company "1" - - "1..*" Truck : Owns >
Company "1" - - "*" Port : Owns >
Company "1" - - "*" Warehouse : Owns >
Company "1" - - "*" Employee : Employs >
Company "1" - - "*" CargoManifest : Knows >
Company "1" - - - "*" OrganizationRole : Comprehends >
Employee "*" - "1" OrganizationRole : Has/Plays >
Ship "1" - - "*" Trip : performs >
Trip "1" - - "1" CargoManifest : has >
Ship "1" - - "1..*" ShipPosition : has >
TrafficManager "1" - "*" ShipPosition : Controls >
TrafficManager "1" - - "*" Truck : Controls position of >
Truck "1" - - "*" Trip : performs >
CargoManifest "*" - - "*" Container : Keeps track of >
Container "1..*" - - "1" Client : tranports goods of


@enduml

@startuml

skinparam classAttributeIconSize 0

class Company {
-Designation
}

class Container {
-Identification
-Payload
-Tare
-Gross
-Width
-Height
-Length
-Refrigerated
-Temperature
}

class Ship {
-MMSI
-Name
-IMO
-Number of Energy Generators
-Generators' Power Output
-Call sign
-Vessel type
-Length
-Width
-Capacity
-Draft
-FleetManager
-ShipCaptain
-ShipChiefElectricalEngineer
}

class ShipPosition {
-Base Date Time
-Latitude
-Longitude
-Speed over ground SOG
-Course over ground COG
-Heading
-Position
-Transceiver Class
}

class Truck {
-TruckDriver
}

class Client

class Port {
-Identification
-Name
-Continent
-Country
-Latitude
-longitude
-PortMagager
-PortStaff
}

class Warehouse {
-Identification
-Name
-Continent
-Country
-Latitude
-longitude
-WarehouseManager
-WarehouseStaff
}

class Employee {
-Name
-Email
-Password
}

class OrganizationRole {
-Description
}

class TrafficManager

class CargoManifest

class Trip {
-Starting point
-Destination
}

Company "1" - - "1..*" Ship : Owns >
Company "1" - - "1..*" Truck : Owns >
Company "1" - - "*" Port : Owns >
Company "1" - - "*" Warehouse : Owns >
Company "1" - - "*" Employee : Employs >
Company "1" - - "*" CargoManifest : Knows >
Company "1" - - - "*" OrganizationRole : Comprehends >
Employee "*" - "1" OrganizationRole : Has/Plays >
Ship "1" - - "*" Trip : performs >
Trip "1" - - "1" CargoManifest : has >
Ship "1" - - "1..*" ShipPosition : has >
TrafficManager "1" - "*" ShipPosition : Controls >
TrafficManager "1" - - "*" Truck : Controls position of >
Truck "1" - - "*" Trip : performs >
CargoManifest "*" - - "*" Container : Keeps track of >
Container "1..*" - - "1" Client : tranports goods of


@enduml

PlantUML version 1.2021.00(Sun Jan 10 10:25:05 GMT 2021)
(GPL source distribution)
Java Runtime: OpenJDK Runtime Environment
JVM: OpenJDK 64-Bit Server VM
Default Encoding: Cp1252
Language: en
Country: GB
--></g></svg>