<?xml version="1.0" encoding="UTF-8" standalone="no"?><svg xmlns="http://www.w3.org/2000/svg" xmlns:xlink="http://www.w3.org/1999/xlink" contentScriptType="application/ecmascript" contentStyleType="text/css" height="875px" preserveAspectRatio="none" style="width:411px;height:875px;" version="1.1" viewBox="0 0 411 875" width="411px" zoomAndPan="magnify"><defs><filter height="300%" id="f1stydlqq2t0s8" width="300%" x="-1" y="-1"><feGaussianBlur result="blurOut" stdDeviation="2.0"/><feColorMatrix in="blurOut" result="blurOut2" type="matrix" values="0 0 0 0 0 0 0 0 0 0 0 0 0 0 0 0 0 0 .4 0"/><feOffset dx="4.0" dy="4.0" in="blurOut2" result="blurOut3"/><feBlend in="SourceGraphic" in2="blurOut3" mode="normal"/></filter></defs><g><!--MD5=[23775766d9d9cbd7e35e8d659c509336]
class SearchShipUI--><rect codeLine="3" fill="#FEFECE" filter="url(#f1stydlqq2t0s8)" height="61.8359" id="SearchShipUI" style="stroke:#A80036;stroke-width:1.5;" width="108" x="167" y="800"/><ellipse cx="182" cy="816" fill="#ADD1B2" rx="11" ry="11" style="stroke:#A80036;stroke-width:1.0;"/><path d="M184,812.5 Q184.2031,812 184.4375,811.75 Q184.6719,811.5 184.9375,811.5 Q185.4063,811.5 185.7031,811.7813 Q186,812.0625 186,812.7188 L186,814.2813 Q186,814.9375 185.7188,815.2188 Q185.4375,815.5 185,815.5 Q184.6094,815.5 184.3594,815.3281 Q184.1094,815.1563 184,814.7031 Q183.9531,814.3906 183.7813,814.2188 Q183.4688,813.8906 182.9063,813.7031 Q182.3438,813.5 181.7813,813.5 Q181.0781,813.5 180.4844,813.7813 Q179.9063,814.0625 179.4531,814.6875 Q179,815.3125 179,816.1719 L179,817.0938 Q179,818.125 179.8438,818.8125 Q180.6875,819.5 182.1875,819.5 Q183.0781,819.5 183.7031,819.2969 Q184.0625,819.1875 184.4688,818.8281 Q184.7344,818.625 184.875,818.5625 Q185.0156,818.5 185.1875,818.5 Q185.5156,818.5 185.75,818.7656 Q186,819.0156 186,819.375 Q186,819.7188 185.6563,820.125 Q185.1563,820.7188 184.3594,821.0469 Q183.3125,821.5 182.0313,821.5 Q180.5313,821.5 179.3281,820.9063 Q178.3594,820.4375 177.6719,819.4219 Q177,818.4063 177,817.2031 L177,816.1094 Q177,814.8594 177.5938,813.7656 Q178.2031,812.6719 179.25,812.0938 Q180.3125,811.5 181.5,811.5 Q182.2188,811.5 182.8438,811.75 Q183.4688,812 184,812.5 Z " fill="#000000"/><text fill="#000000" font-family="sans-serif" font-size="12" lengthAdjust="spacing" textLength="76" x="196" y="820.9102">SearchShipUI</text><line style="stroke:#A80036;stroke-width:1.5;" x1="168" x2="274" y1="832" y2="832"/><rect fill="none" height="6" style="stroke:#C82930;stroke-width:1.0;" width="6" x="175" y="840"/><text fill="#000000" font-family="sans-serif" font-size="11" lengthAdjust="spacing" textLength="45" x="187" y="847.4189">controller</text><line style="stroke:#A80036;stroke-width:1.5;" x1="168" x2="274" y1="853.8359" y2="853.8359"/><!--MD5=[e6f2cb470f06694f6a02b571e2ffcbb5]
class SearchShipController--><rect codeLine="7" fill="#FEFECE" filter="url(#f1stydlqq2t0s8)" height="75.6719" id="SearchShipController" style="stroke:#A80036;stroke-width:1.5;" width="151" x="211.5" y="664"/><ellipse cx="226.95" cy="680" fill="#ADD1B2" rx="11" ry="11" style="stroke:#A80036;stroke-width:1.0;"/><path d="M228.95,676.5 Q229.1531,676 229.3875,675.75 Q229.6219,675.5 229.8875,675.5 Q230.3563,675.5 230.6531,675.7813 Q230.95,676.0625 230.95,676.7188 L230.95,678.2813 Q230.95,678.9375 230.6688,679.2188 Q230.3875,679.5 229.95,679.5 Q229.5594,679.5 229.3094,679.3281 Q229.0594,679.1563 228.95,678.7031 Q228.9031,678.3906 228.7313,678.2188 Q228.4188,677.8906 227.8563,677.7031 Q227.2938,677.5 226.7313,677.5 Q226.0281,677.5 225.4344,677.7813 Q224.8563,678.0625 224.4031,678.6875 Q223.95,679.3125 223.95,680.1719 L223.95,681.0938 Q223.95,682.125 224.7938,682.8125 Q225.6375,683.5 227.1375,683.5 Q228.0281,683.5 228.6531,683.2969 Q229.0125,683.1875 229.4188,682.8281 Q229.6844,682.625 229.825,682.5625 Q229.9656,682.5 230.1375,682.5 Q230.4656,682.5 230.7,682.7656 Q230.95,683.0156 230.95,683.375 Q230.95,683.7188 230.6063,684.125 Q230.1063,684.7188 229.3094,685.0469 Q228.2625,685.5 226.9813,685.5 Q225.4813,685.5 224.2781,684.9063 Q223.3094,684.4375 222.6219,683.4219 Q221.95,682.4063 221.95,681.2031 L221.95,680.1094 Q221.95,678.8594 222.5438,677.7656 Q223.1531,676.6719 224.2,676.0938 Q225.2625,675.5 226.45,675.5 Q227.1688,675.5 227.7938,675.75 Q228.4188,676 228.95,676.5 Z " fill="#000000"/><text fill="#000000" font-family="sans-serif" font-size="12" lengthAdjust="spacing" textLength="118" x="241.05" y="684.9102">SearchShipController</text><line style="stroke:#A80036;stroke-width:1.5;" x1="212.5" x2="361.5" y1="696" y2="696"/><rect fill="none" height="6" style="stroke:#C82930;stroke-width:1.0;" width="6" x="219.5" y="704"/><text fill="#000000" font-family="sans-serif" font-size="11" lengthAdjust="spacing" textLength="55" x="231.5" y="711.4189">searchShip</text><line style="stroke:#A80036;stroke-width:1.5;" x1="212.5" x2="361.5" y1="717.8359" y2="717.8359"/><ellipse cx="222.5" cy="728.8359" fill="#84BE84" rx="3" ry="3" style="stroke:#038048;stroke-width:1.0;"/><text fill="#000000" font-family="sans-serif" font-size="11" lengthAdjust="spacing" textLength="125" x="231.5" y="733.2549">findShip(codeType, code)</text><!--MD5=[c54e87d19b2edd7d335db3585e62b713]
class SearchShip--><rect codeLine="12" fill="#FEFECE" filter="url(#f1stydlqq2t0s8)" height="172.5234" id="SearchShip" style="stroke:#A80036;stroke-width:1.5;" width="162" x="209" y="431"/><ellipse cx="253.75" cy="447" fill="#ADD1B2" rx="11" ry="11" style="stroke:#A80036;stroke-width:1.0;"/><path d="M255.75,443.5 Q255.9531,443 256.1875,442.75 Q256.4219,442.5 256.6875,442.5 Q257.1563,442.5 257.4531,442.7813 Q257.75,443.0625 257.75,443.7188 L257.75,445.2813 Q257.75,445.9375 257.4688,446.2188 Q257.1875,446.5 256.75,446.5 Q256.3594,446.5 256.1094,446.3281 Q255.8594,446.1563 255.75,445.7031 Q255.7031,445.3906 255.5313,445.2188 Q255.2188,444.8906 254.6563,444.7031 Q254.0938,444.5 253.5313,444.5 Q252.8281,444.5 252.2344,444.7813 Q251.6563,445.0625 251.2031,445.6875 Q250.75,446.3125 250.75,447.1719 L250.75,448.0938 Q250.75,449.125 251.5938,449.8125 Q252.4375,450.5 253.9375,450.5 Q254.8281,450.5 255.4531,450.2969 Q255.8125,450.1875 256.2188,449.8281 Q256.4844,449.625 256.625,449.5625 Q256.7656,449.5 256.9375,449.5 Q257.2656,449.5 257.5,449.7656 Q257.75,450.0156 257.75,450.375 Q257.75,450.7188 257.4063,451.125 Q256.9063,451.7188 256.1094,452.0469 Q255.0625,452.5 253.7813,452.5 Q252.2813,452.5 251.0781,451.9063 Q250.1094,451.4375 249.4219,450.4219 Q248.75,449.4063 248.75,448.2031 L248.75,447.1094 Q248.75,445.8594 249.3438,444.7656 Q249.9531,443.6719 251,443.0938 Q252.0625,442.5 253.25,442.5 Q253.9688,442.5 254.5938,442.75 Q255.2188,443 255.75,443.5 Z " fill="#000000"/><text fill="#000000" font-family="sans-serif" font-size="12" lengthAdjust="spacing" textLength="64" x="274.25" y="451.9102">SearchShip</text><line style="stroke:#A80036;stroke-width:1.5;" x1="210" x2="370" y1="463" y2="463"/><rect fill="none" height="6" style="stroke:#C82930;stroke-width:1.0;" width="6" x="217" y="471"/><text fill="#000000" font-family="sans-serif" font-size="11" lengthAdjust="spacing" textLength="18" x="229" y="478.4189">app</text><rect fill="none" height="6" style="stroke:#C82930;stroke-width:1.0;" width="6" x="217" y="484.8359"/><text fill="#000000" font-family="sans-serif" font-size="11" lengthAdjust="spacing" textLength="44" x="229" y="492.2549">company</text><rect fill="none" height="6" style="stroke:#C82930;stroke-width:1.0;" width="6" x="217" y="498.6719"/><text fill="#000000" font-family="sans-serif" font-size="11" lengthAdjust="spacing" textLength="26" x="229" y="506.0908">ships</text><rect fill="none" height="6" style="stroke:#C82930;stroke-width:1.0;" width="6" x="217" y="512.5078"/><text fill="#000000" font-family="sans-serif" font-size="11" lengthAdjust="spacing" textLength="36" x="229" y="519.9268">mapper</text><line style="stroke:#A80036;stroke-width:1.5;" x1="210" x2="370" y1="526.3438" y2="526.3438"/><ellipse cx="220" cy="537.3438" fill="#84BE84" rx="3" ry="3" style="stroke:#038048;stroke-width:1.0;"/><text fill="#000000" font-family="sans-serif" font-size="11" lengthAdjust="spacing" textLength="71" x="229" y="541.7627">findShip(code)</text><rect fill="#F24D5C" height="6" style="stroke:#C82930;stroke-width:1.0;" width="6" x="217" y="548.1797"/><text fill="#000000" font-family="sans-serif" font-size="11" lengthAdjust="spacing" textLength="128" x="229" y="555.5986">determineCodeType(code)</text><rect fill="#F24D5C" height="6" style="stroke:#C82930;stroke-width:1.0;" width="6" x="217" y="562.0156"/><text fill="#000000" font-family="sans-serif" font-size="11" lengthAdjust="spacing" textLength="110" x="229" y="569.4346">findShipByMMSI(MMSI)</text><rect fill="#F24D5C" height="6" style="stroke:#C82930;stroke-width:1.0;" width="6" x="217" y="575.8516"/><text fill="#000000" font-family="sans-serif" font-size="11" lengthAdjust="spacing" textLength="96" x="229" y="583.2705">findShipByIMO(IMO)</text><rect fill="#F24D5C" height="6" style="stroke:#C82930;stroke-width:1.0;" width="6" x="217" y="589.6875"/><text fill="#000000" font-family="sans-serif" font-size="11" lengthAdjust="spacing" textLength="136" x="229" y="597.1064">findShipByCallSign(CallSign)</text><!--MD5=[95f401ea9d0c63da0b3e1cc781f0d3e9]
class ShipBST--><rect codeLine="24" fill="#FEFECE" filter="url(#f1stydlqq2t0s8)" height="61.8359" id="ShipBST" style="stroke:#A80036;stroke-width:1.5;" width="80" x="229" y="309"/><ellipse cx="244" cy="325" fill="#ADD1B2" rx="11" ry="11" style="stroke:#A80036;stroke-width:1.0;"/><path d="M246,321.5 Q246.2031,321 246.4375,320.75 Q246.6719,320.5 246.9375,320.5 Q247.4063,320.5 247.7031,320.7813 Q248,321.0625 248,321.7188 L248,323.2813 Q248,323.9375 247.7188,324.2188 Q247.4375,324.5 247,324.5 Q246.6094,324.5 246.3594,324.3281 Q246.1094,324.1563 246,323.7031 Q245.9531,323.3906 245.7813,323.2188 Q245.4688,322.8906 244.9063,322.7031 Q244.3438,322.5 243.7813,322.5 Q243.0781,322.5 242.4844,322.7813 Q241.9063,323.0625 241.4531,323.6875 Q241,324.3125 241,325.1719 L241,326.0938 Q241,327.125 241.8438,327.8125 Q242.6875,328.5 244.1875,328.5 Q245.0781,328.5 245.7031,328.2969 Q246.0625,328.1875 246.4688,327.8281 Q246.7344,327.625 246.875,327.5625 Q247.0156,327.5 247.1875,327.5 Q247.5156,327.5 247.75,327.7656 Q248,328.0156 248,328.375 Q248,328.7188 247.6563,329.125 Q247.1563,329.7188 246.3594,330.0469 Q245.3125,330.5 244.0313,330.5 Q242.5313,330.5 241.3281,329.9063 Q240.3594,329.4375 239.6719,328.4219 Q239,327.4063 239,326.2031 L239,325.1094 Q239,323.8594 239.5938,322.7656 Q240.2031,321.6719 241.25,321.0938 Q242.3125,320.5 243.5,320.5 Q244.2188,320.5 244.8438,320.75 Q245.4688,321 246,321.5 Z " fill="#000000"/><text fill="#000000" font-family="sans-serif" font-size="12" lengthAdjust="spacing" textLength="48" x="258" y="329.9102">ShipBST</text><line style="stroke:#A80036;stroke-width:1.5;" x1="230" x2="308" y1="341" y2="341"/><ellipse cx="240" cy="352" fill="none" rx="3" ry="3" style="stroke:#038048;stroke-width:1.0;"/><text fill="#000000" font-family="sans-serif" font-size="11" lengthAdjust="spacing" textLength="26" x="249" y="356.4189">ships</text><line style="stroke:#A80036;stroke-width:1.5;" x1="230" x2="308" y1="362.8359" y2="362.8359"/><!--MD5=[0dc7f2ddb409b58bcf52b12238c25399]
class Ship--><rect codeLine="28" fill="#FEFECE" filter="url(#f1stydlqq2t0s8)" height="241.7031" id="Ship" style="stroke:#A80036;stroke-width:1.5;" width="390" x="7" y="7"/><ellipse cx="185.25" cy="23" fill="#ADD1B2" rx="11" ry="11" style="stroke:#A80036;stroke-width:1.0;"/><path d="M187.25,19.5 Q187.4531,19 187.6875,18.75 Q187.9219,18.5 188.1875,18.5 Q188.6563,18.5 188.9531,18.7813 Q189.25,19.0625 189.25,19.7188 L189.25,21.2813 Q189.25,21.9375 188.9688,22.2188 Q188.6875,22.5 188.25,22.5 Q187.8594,22.5 187.6094,22.3281 Q187.3594,22.1563 187.25,21.7031 Q187.2031,21.3906 187.0313,21.2188 Q186.7188,20.8906 186.1563,20.7031 Q185.5938,20.5 185.0313,20.5 Q184.3281,20.5 183.7344,20.7813 Q183.1563,21.0625 182.7031,21.6875 Q182.25,22.3125 182.25,23.1719 L182.25,24.0938 Q182.25,25.125 183.0938,25.8125 Q183.9375,26.5 185.4375,26.5 Q186.3281,26.5 186.9531,26.2969 Q187.3125,26.1875 187.7188,25.8281 Q187.9844,25.625 188.125,25.5625 Q188.2656,25.5 188.4375,25.5 Q188.7656,25.5 189,25.7656 Q189.25,26.0156 189.25,26.375 Q189.25,26.7188 188.9063,27.125 Q188.4063,27.7188 187.6094,28.0469 Q186.5625,28.5 185.2813,28.5 Q183.7813,28.5 182.5781,27.9063 Q181.6094,27.4375 180.9219,26.4219 Q180.25,25.4063 180.25,24.2031 L180.25,23.1094 Q180.25,21.8594 180.8438,20.7656 Q181.4531,19.6719 182.5,19.0938 Q183.5625,18.5 184.75,18.5 Q185.4688,18.5 186.0938,18.75 Q186.7188,19 187.25,19.5 Z " fill="#000000"/><text fill="#000000" font-family="sans-serif" font-size="12" lengthAdjust="spacing" textLength="25" x="205.75" y="27.9102">Ship</text><line style="stroke:#A80036;stroke-width:1.5;" x1="8" x2="396" y1="39" y2="39"/><rect fill="none" height="6" style="stroke:#C82930;stroke-width:1.0;" width="6" x="15" y="47"/><text fill="#000000" font-family="sans-serif" font-size="11" lengthAdjust="spacing" textLength="25" x="27" y="54.4189">MMSI</text><rect fill="none" height="6" style="stroke:#C82930;stroke-width:1.0;" width="6" x="15" y="60.8359"/><text fill="#000000" font-family="sans-serif" font-size="11" lengthAdjust="spacing" textLength="26" x="27" y="68.2549">name</text><rect fill="none" height="6" style="stroke:#C82930;stroke-width:1.0;" width="6" x="15" y="74.6719"/><text fill="#000000" font-family="sans-serif" font-size="11" lengthAdjust="spacing" textLength="18" x="27" y="82.0908">IMO</text><rect fill="none" height="6" style="stroke:#C82930;stroke-width:1.0;" width="6" x="15" y="88.5078"/><text fill="#000000" font-family="sans-serif" font-size="11" lengthAdjust="spacing" textLength="125" x="27" y="95.9268">numberEnergyGenerators</text><rect fill="none" height="6" style="stroke:#C82930;stroke-width:1.0;" width="6" x="15" y="102.3438"/><text fill="#000000" font-family="sans-serif" font-size="11" lengthAdjust="spacing" textLength="111" x="27" y="109.7627">generatorPowerOutput</text><rect fill="none" height="6" style="stroke:#C82930;stroke-width:1.0;" width="6" x="15" y="116.1797"/><text fill="#000000" font-family="sans-serif" font-size="11" lengthAdjust="spacing" textLength="37" x="27" y="123.5986">callSign</text><rect fill="none" height="6" style="stroke:#C82930;stroke-width:1.0;" width="6" x="15" y="130.0156"/><text fill="#000000" font-family="sans-serif" font-size="11" lengthAdjust="spacing" textLength="56" x="27" y="137.4346">vesselType</text><rect fill="none" height="6" style="stroke:#C82930;stroke-width:1.0;" width="6" x="15" y="143.8516"/><text fill="#000000" font-family="sans-serif" font-size="11" lengthAdjust="spacing" textLength="29" x="27" y="151.2705">length</text><rect fill="none" height="6" style="stroke:#C82930;stroke-width:1.0;" width="6" x="15" y="157.6875"/><text fill="#000000" font-family="sans-serif" font-size="11" lengthAdjust="spacing" textLength="27" x="27" y="165.1064">width</text><rect fill="none" height="6" style="stroke:#C82930;stroke-width:1.0;" width="6" x="15" y="171.5234"/><text fill="#000000" font-family="sans-serif" font-size="11" lengthAdjust="spacing" textLength="41" x="27" y="178.9424">capacity</text><rect fill="none" height="6" style="stroke:#C82930;stroke-width:1.0;" width="6" x="15" y="185.3594"/><text fill="#000000" font-family="sans-serif" font-size="11" lengthAdjust="spacing" textLength="23" x="27" y="192.7783">draft</text><line style="stroke:#A80036;stroke-width:1.5;" x1="8" x2="396" y1="199.1953" y2="199.1953"/><ellipse cx="18" cy="210.1953" fill="#84BE84" rx="3" ry="3" style="stroke:#038048;stroke-width:1.0;"/><text fill="#000000" font-family="sans-serif" font-size="11" lengthAdjust="spacing" textLength="240" x="27" y="214.6143">Ship(MMSI, name, IMO, numberEnergyGenerators,</text><text fill="#000000" font-family="sans-serif" font-size="11" lengthAdjust="spacing" textLength="364" x="27" y="228.4502">generatorPowerOutput, callSign, vesselType, length, width, capacity, draft)</text><ellipse cx="18" cy="237.8672" fill="#84BE84" rx="3" ry="3" style="stroke:#038048;stroke-width:1.0;"/><text fill="#000000" font-family="sans-serif" font-size="11" lengthAdjust="spacing" textLength="45" x="27" y="242.2861">toString()</text><!--MD5=[025e8cc251879ee65f6310ef949d4402]
reverse link SearchShipController to SearchShipUI--><path codeLine="45" d="M265.38,744.6 C256,762.66 245.22,783.4 236.63,799.93 " fill="none" id="SearchShipController-backto-SearchShipUI" style="stroke:#A80036;stroke-width:1.0;stroke-dasharray:7.0,7.0;"/><polygon fill="#A80036" points="267.73,740.08,260.0246,746.2141,265.4201,744.5144,267.1197,749.9099,267.73,740.08" style="stroke:#A80036;stroke-width:1.0;"/><!--MD5=[162878fc835ddf1cedbb05430654dd3b]
reverse link SearchShip to SearchShipController--><path codeLine="46" d="M288.5,609.54 C288.19,628.7 287.87,647.88 287.61,663.69 " fill="none" id="SearchShip-backto-SearchShipController" style="stroke:#A80036;stroke-width:1.0;stroke-dasharray:7.0,7.0;"/><polygon fill="#A80036" points="288.59,604.14,284.4363,613.0701,288.5043,609.1393,292.4351,613.2072,288.59,604.14" style="stroke:#A80036;stroke-width:1.0;"/><!--MD5=[a889d93bd44283851547b8e02c79b422]
reverse link ShipBST to SearchShip--><path codeLine="47" d="M273.24,376.39 C275.13,392.22 277.45,411.63 279.76,430.9 " fill="none" id="ShipBST-backto-SearchShip" style="stroke:#A80036;stroke-width:1.0;stroke-dasharray:7.0,7.0;"/><polygon fill="#A80036" points="272.61,371.17,269.6937,380.5772,273.1967,376.1355,277.6384,379.6385,272.61,371.17" style="stroke:#A80036;stroke-width:1.0;"/><!--MD5=[38aa70d893a625648d3f7f015f685f9e]
reverse link Ship to ShipBST--><path codeLine="48" d="M241.87,253.96 C248.39,274.4 254.57,293.79 259.39,308.88 " fill="none" id="Ship-backto-ShipBST" style="stroke:#A80036;stroke-width:1.0;"/><polygon fill="#A80036" points="240.29,249.03,239.2083,258.8193,241.8066,253.7944,246.8314,256.3927,240.29,249.03" style="stroke:#A80036;stroke-width:1.0;"/><!--MD5=[b526154c8a3de609529553356ca77e71]
reverse link Ship to SearchShipUI--><path codeLine="49" d="M188.04,254.4 C177.11,378.54 167.7,573.6 194,740 C197.21,760.3 203.8,782.42 209.67,799.65 " fill="none" id="Ship-backto-SearchShipUI" style="stroke:#A80036;stroke-width:1.0;stroke-dasharray:7.0,7.0;"/><polygon fill="#A80036" points="188.5,249.28,183.7194,257.8908,188.0576,254.2604,191.688,258.5986,188.5,249.28" style="stroke:#A80036;stroke-width:1.0;"/><!--MD5=[c0457cf789911426b39d8dad9077cc5c]
@startuml
'https://plantuml.com/class-diagram

class SearchShipUI {
- controller
}

class SearchShipController {
- searchShip
+ findShip(codeType, code)
}

class SearchShip {
- app
- company
- ships
- mapper
+ findShip(code)
- determineCodeType(code)
- findShipByMMSI(MMSI)
- findShipByIMO(IMO)
- findShipByCallSign(CallSign)
}

class ShipBST {
+ ships
}

class Ship {
-MMSI
-name
-IMO
-numberEnergyGenerators
-generatorPowerOutput
-callSign
-vesselType
-length
-width
-capacity
-draft
+ Ship(MMSI, name, IMO, numberEnergyGenerators,
          generatorPowerOutput, callSign, vesselType, length, width, capacity, draft)
+ toString()
}

SearchShipController <.. SearchShipUI
SearchShip <.. SearchShipController
ShipBST <.. SearchShip
Ship <- - ShipBST
Ship <.. SearchShipUI


@enduml

@startuml

class SearchShipUI {
- controller
}

class SearchShipController {
- searchShip
+ findShip(codeType, code)
}

class SearchShip {
- app
- company
- ships
- mapper
+ findShip(code)
- determineCodeType(code)
- findShipByMMSI(MMSI)
- findShipByIMO(IMO)
- findShipByCallSign(CallSign)
}

class ShipBST {
+ ships
}

class Ship {
-MMSI
-name
-IMO
-numberEnergyGenerators
-generatorPowerOutput
-callSign
-vesselType
-length
-width
-capacity
-draft
+ Ship(MMSI, name, IMO, numberEnergyGenerators,
          generatorPowerOutput, callSign, vesselType, length, width, capacity, draft)
+ toString()
}

SearchShipController <.. SearchShipUI
SearchShip <.. SearchShipController
ShipBST <.. SearchShip
Ship <- - ShipBST
Ship <.. SearchShipUI


@enduml

PlantUML version 1.2021.00(Sun Jan 10 10:25:05 GMT 2021)
(GPL source distribution)
Java Runtime: OpenJDK Runtime Environment
JVM: OpenJDK 64-Bit Server VM
Default Encoding: Cp1252
Language: en
Country: GB
--></g></svg>