<?xml version="1.0" encoding="UTF-8" standalone="no"?><svg xmlns="http://www.w3.org/2000/svg" xmlns:xlink="http://www.w3.org/1999/xlink" contentScriptType="application/ecmascript" contentStyleType="text/css" height="735px" preserveAspectRatio="none" style="width:1191px;height:735px;" version="1.1" viewBox="0 0 1191 735" width="1191px" zoomAndPan="magnify"><defs><filter height="300%" id="f1rwqvdys1sh76" width="300%" x="-1" y="-1"><feGaussianBlur result="blurOut" stdDeviation="2.0"/><feColorMatrix in="blurOut" result="blurOut2" type="matrix" values="0 0 0 0 0 0 0 0 0 0 0 0 0 0 0 0 0 0 .4 0"/><feOffset dx="4.0" dy="4.0" in="blurOut2" result="blurOut3"/><feBlend in="SourceGraphic" in2="blurOut3" mode="normal"/></filter></defs><g><rect fill="#FFFFFF" filter="url(#f1rwqvdys1sh76)" height="532.5938" style="stroke:#A80036;stroke-width:1.0;" width="10" x="53" y="99.6094"/><rect fill="#FFFFFF" filter="url(#f1rwqvdys1sh76)" height="510.2422" style="stroke:#A80036;stroke-width:1.0;" width="10" x="326" y="121.9609"/><rect fill="#FFFFFF" filter="url(#f1rwqvdys1sh76)" height="487.8906" style="stroke:#A80036;stroke-width:1.0;" width="10" x="548" y="121.9609"/><rect fill="#FFFFFF" filter="url(#f1rwqvdys1sh76)" height="366.4844" style="stroke:#A80036;stroke-width:1.0;" width="10" x="765" y="243.3672"/><rect fill="#FFFFFF" filter="url(#f1rwqvdys1sh76)" height="30.3516" style="stroke:#A80036;stroke-width:1.0;" width="10" x="1061" y="273.7188"/><rect fill="#FFFFFF" filter="url(#f1rwqvdys1sh76)" height="30" style="stroke:#A80036;stroke-width:1.0;" width="10" x="1135.5" y="334.4219"/><rect fill="#FFFFFF" filter="url(#f1rwqvdys1sh76)" height="180.0781" style="stroke:#000000;stroke-width:2.0;" width="353.5" x="712.5" y="422.7734"/><rect fill="#FFFFFF" height="59.1875" style="stroke:none;stroke-width:1.0;" width="353.5" x="712.5" y="484.4766"/><rect fill="#FFFFFF" height="59.1875" style="stroke:none;stroke-width:1.0;" width="353.5" x="712.5" y="543.6641"/><line style="stroke:#A80036;stroke-width:1.0;stroke-dasharray:5.0,5.0;" x1="58" x2="58" y1="89.6094" y2="650.2031"/><line style="stroke:#A80036;stroke-width:1.0;stroke-dasharray:5.0,5.0;" x1="330.5" x2="330.5" y1="89.6094" y2="650.2031"/><line style="stroke:#A80036;stroke-width:1.0;stroke-dasharray:5.0,5.0;" x1="552.5" x2="552.5" y1="89.6094" y2="650.2031"/><line style="stroke:#A80036;stroke-width:1.0;stroke-dasharray:5.0,5.0;" x1="769.5" x2="769.5" y1="89.6094" y2="650.2031"/><line style="stroke:#A80036;stroke-width:1.0;stroke-dasharray:5.0,5.0;" x1="1065.5" x2="1065.5" y1="89.6094" y2="650.2031"/><line style="stroke:#A80036;stroke-width:1.0;stroke-dasharray:5.0,5.0;" x1="1140.5" x2="1140.5" y1="89.6094" y2="650.2031"/><text fill="#000000" font-family="sans-serif" font-size="14" lengthAdjust="spacing" textLength="100" x="5" y="86.5332">Traffic Manager</text><ellipse cx="58" cy="15" fill="#FEFECE" filter="url(#f1rwqvdys1sh76)" rx="8" ry="8" style="stroke:#A80036;stroke-width:2.0;"/><path d="M58,23 L58,50 M45,31 L71,31 M58,50 L45,65 M58,50 L71,65 " fill="none" filter="url(#f1rwqvdys1sh76)" style="stroke:#A80036;stroke-width:2.0;"/><text fill="#000000" font-family="sans-serif" font-size="14" lengthAdjust="spacing" textLength="100" x="5" y="663.7363">Traffic Manager</text><ellipse cx="58" cy="676.8125" fill="#FEFECE" filter="url(#f1rwqvdys1sh76)" rx="8" ry="8" style="stroke:#A80036;stroke-width:2.0;"/><path d="M58,684.8125 L58,711.8125 M45,692.8125 L71,692.8125 M58,711.8125 L45,726.8125 M58,711.8125 L71,726.8125 " fill="none" filter="url(#f1rwqvdys1sh76)" style="stroke:#A80036;stroke-width:2.0;"/><rect fill="#FEFECE" filter="url(#f1rwqvdys1sh76)" height="31.6094" style="stroke:#A80036;stroke-width:1.5;" width="103" x="277.5" y="53"/><text fill="#000000" font-family="sans-serif" font-size="14" lengthAdjust="spacing" textLength="89" x="284.5" y="74.5332">:SearchShipUI</text><rect fill="#FEFECE" filter="url(#f1rwqvdys1sh76)" height="31.6094" style="stroke:#A80036;stroke-width:1.5;" width="103" x="277.5" y="649.2031"/><text fill="#000000" font-family="sans-serif" font-size="14" lengthAdjust="spacing" textLength="89" x="284.5" y="670.7363">:SearchShipUI</text><rect fill="#FEFECE" filter="url(#f1rwqvdys1sh76)" height="31.6094" style="stroke:#A80036;stroke-width:1.5;" width="153" x="474.5" y="53"/><text fill="#000000" font-family="sans-serif" font-size="14" lengthAdjust="spacing" textLength="139" x="481.5" y="74.5332">:SearchShipController</text><rect fill="#FEFECE" filter="url(#f1rwqvdys1sh76)" height="31.6094" style="stroke:#A80036;stroke-width:1.5;" width="153" x="474.5" y="649.2031"/><text fill="#000000" font-family="sans-serif" font-size="14" lengthAdjust="spacing" textLength="139" x="481.5" y="670.7363">:SearchShipController</text><rect fill="#FEFECE" filter="url(#f1rwqvdys1sh76)" height="31.6094" style="stroke:#A80036;stroke-width:1.5;" width="91" x="722.5" y="53"/><text fill="#000000" font-family="sans-serif" font-size="14" lengthAdjust="spacing" textLength="77" x="729.5" y="74.5332">:SearchShip</text><rect fill="#FEFECE" filter="url(#f1rwqvdys1sh76)" height="31.6094" style="stroke:#A80036;stroke-width:1.5;" width="91" x="722.5" y="649.2031"/><text fill="#000000" font-family="sans-serif" font-size="14" lengthAdjust="spacing" textLength="77" x="729.5" y="670.7363">:SearchShip</text><rect fill="#FEFECE" filter="url(#f1rwqvdys1sh76)" height="31.6094" style="stroke:#A80036;stroke-width:1.5;" width="43" x="1042.5" y="53"/><text fill="#000000" font-family="sans-serif" font-size="14" lengthAdjust="spacing" textLength="29" x="1049.5" y="74.5332">:App</text><rect fill="#FEFECE" filter="url(#f1rwqvdys1sh76)" height="31.6094" style="stroke:#A80036;stroke-width:1.5;" width="43" x="1042.5" y="649.2031"/><text fill="#000000" font-family="sans-serif" font-size="14" lengthAdjust="spacing" textLength="29" x="1049.5" y="670.7363">:App</text><rect fill="#FEFECE" filter="url(#f1rwqvdys1sh76)" height="31.6094" style="stroke:#A80036;stroke-width:1.5;" width="78" x="1099.5" y="53"/><text fill="#000000" font-family="sans-serif" font-size="14" lengthAdjust="spacing" textLength="64" x="1106.5" y="74.5332">:Company</text><rect fill="#FEFECE" filter="url(#f1rwqvdys1sh76)" height="31.6094" style="stroke:#A80036;stroke-width:1.5;" width="78" x="1099.5" y="649.2031"/><text fill="#000000" font-family="sans-serif" font-size="14" lengthAdjust="spacing" textLength="64" x="1106.5" y="670.7363">:Company</text><rect fill="#FFFFFF" filter="url(#f1rwqvdys1sh76)" height="532.5938" style="stroke:#A80036;stroke-width:1.0;" width="10" x="53" y="99.6094"/><rect fill="#FFFFFF" filter="url(#f1rwqvdys1sh76)" height="510.2422" style="stroke:#A80036;stroke-width:1.0;" width="10" x="326" y="121.9609"/><rect fill="#FFFFFF" filter="url(#f1rwqvdys1sh76)" height="487.8906" style="stroke:#A80036;stroke-width:1.0;" width="10" x="548" y="121.9609"/><rect fill="#FFFFFF" filter="url(#f1rwqvdys1sh76)" height="366.4844" style="stroke:#A80036;stroke-width:1.0;" width="10" x="765" y="243.3672"/><rect fill="#FFFFFF" filter="url(#f1rwqvdys1sh76)" height="30.3516" style="stroke:#A80036;stroke-width:1.0;" width="10" x="1061" y="273.7188"/><rect fill="#FFFFFF" filter="url(#f1rwqvdys1sh76)" height="30" style="stroke:#A80036;stroke-width:1.0;" width="10" x="1135.5" y="334.4219"/><polygon fill="#A80036" points="314,117.9609,324,121.9609,314,125.9609,318,121.9609" style="stroke:#A80036;stroke-width:1.0;"/><line style="stroke:#A80036;stroke-width:1.0;" x1="63" x2="320" y1="121.9609" y2="121.9609"/><text fill="#000000" font-family="sans-serif" font-size="13" font-weight="bold" lengthAdjust="spacing" textLength="7" x="70" y="117.1045">1</text><text fill="#000000" font-family="sans-serif" font-size="13" lengthAdjust="spacing" textLength="141" x="81" y="117.1045">asks for details of a ship</text><polygon fill="#A80036" points="74,148.3125,64,152.3125,74,156.3125,70,152.3125" style="stroke:#A80036;stroke-width:1.0;"/><line style="stroke:#A80036;stroke-width:1.0;" x1="68" x2="325" y1="152.3125" y2="152.3125"/><text fill="#000000" font-family="sans-serif" font-size="13" font-weight="bold" lengthAdjust="spacing" textLength="7" x="80" y="147.4561">2</text><text fill="#000000" font-family="sans-serif" font-size="13" lengthAdjust="spacing" textLength="119" x="91" y="147.4561">requests data (code)</text><polygon fill="#A80036" points="314,178.6641,324,182.6641,314,186.6641,318,182.6641" style="stroke:#A80036;stroke-width:1.0;"/><line style="stroke:#A80036;stroke-width:1.0;" x1="63" x2="320" y1="182.6641" y2="182.6641"/><text fill="#000000" font-family="sans-serif" font-size="13" font-weight="bold" lengthAdjust="spacing" textLength="7" x="70" y="177.8076">3</text><text fill="#000000" font-family="sans-serif" font-size="13" lengthAdjust="spacing" textLength="122" x="81" y="177.8076">types requested data</text><polygon fill="#A80036" points="536,209.0156,546,213.0156,536,217.0156,540,213.0156" style="stroke:#A80036;stroke-width:1.0;"/><line style="stroke:#A80036;stroke-width:1.0;" x1="336" x2="542" y1="213.0156" y2="213.0156"/><text fill="#000000" font-family="sans-serif" font-size="13" font-weight="bold" lengthAdjust="spacing" textLength="18" x="343" y="208.1592">3.1</text><text fill="#000000" font-family="sans-serif" font-size="13" lengthAdjust="spacing" textLength="166" x="365" y="208.1592">chosenShip = findShip(code)</text><polygon fill="#A80036" points="753,239.3672,763,243.3672,753,247.3672,757,243.3672" style="stroke:#A80036;stroke-width:1.0;"/><line style="stroke:#A80036;stroke-width:1.0;" x1="558" x2="759" y1="243.3672" y2="243.3672"/><text fill="#000000" font-family="sans-serif" font-size="13" font-weight="bold" lengthAdjust="spacing" textLength="18" x="565" y="238.5107">3.2</text><text fill="#000000" font-family="sans-serif" font-size="13" lengthAdjust="spacing" textLength="166" x="587" y="238.5107">chosenShip = findShip(code)</text><polygon fill="#A80036" points="1049,269.7188,1059,273.7188,1049,277.7188,1053,273.7188" style="stroke:#A80036;stroke-width:1.0;"/><line style="stroke:#A80036;stroke-width:1.0;" x1="775" x2="1055" y1="273.7188" y2="273.7188"/><text fill="#000000" font-family="sans-serif" font-size="13" font-weight="bold" lengthAdjust="spacing" textLength="18" x="782" y="268.8623">3.3</text><text fill="#000000" font-family="sans-serif" font-size="13" lengthAdjust="spacing" textLength="112" x="804" y="268.8623">app = getInstance()</text><polygon fill="#A80036" points="1054,300.0703,1064,304.0703,1054,308.0703,1058,304.0703" style="stroke:#A80036;stroke-width:1.0;"/><line style="stroke:#A80036;stroke-width:1.0;" x1="775" x2="1060" y1="304.0703" y2="304.0703"/><text fill="#000000" font-family="sans-serif" font-size="13" font-weight="bold" lengthAdjust="spacing" textLength="18" x="782" y="299.2139">3.4</text><text fill="#000000" font-family="sans-serif" font-size="13" lengthAdjust="spacing" textLength="142" x="804" y="299.2139">company = getCompany</text><polygon fill="#A80036" points="1123.5,330.4219,1133.5,334.4219,1123.5,338.4219,1127.5,334.4219" style="stroke:#A80036;stroke-width:1.0;"/><line style="stroke:#A80036;stroke-width:1.0;" x1="775" x2="1129.5" y1="334.4219" y2="334.4219"/><text fill="#000000" font-family="sans-serif" font-size="13" font-weight="bold" lengthAdjust="spacing" textLength="18" x="782" y="329.5654">3.5</text><text fill="#000000" font-family="sans-serif" font-size="13" lengthAdjust="spacing" textLength="124" x="804" y="329.5654">ships = getShipBST()</text><line style="stroke:#A80036;stroke-width:1.0;" x1="775" x2="817" y1="394.7734" y2="394.7734"/><line style="stroke:#A80036;stroke-width:1.0;" x1="817" x2="817" y1="394.7734" y2="407.7734"/><line style="stroke:#A80036;stroke-width:1.0;" x1="776" x2="817" y1="407.7734" y2="407.7734"/><polygon fill="#A80036" points="786,403.7734,776,407.7734,786,411.7734,782,407.7734" style="stroke:#A80036;stroke-width:1.0;"/><text fill="#000000" font-family="sans-serif" font-size="13" font-weight="bold" lengthAdjust="spacing" textLength="18" x="782" y="389.917">3.6</text><text fill="#000000" font-family="sans-serif" font-size="13" lengthAdjust="spacing" textLength="225" x="804" y="389.917">codeType = DetermineCodeType(code)</text><path d="M712.5,422.7734 L773.5,422.7734 L773.5,430.7734 L763.5,440.7734 L712.5,440.7734 L712.5,422.7734 " fill="#EEEEEE" style="stroke:#000000;stroke-width:1.0;"/><rect fill="none" height="180.0781" style="stroke:#000000;stroke-width:2.0;" width="353.5" x="712.5" y="422.7734"/><text fill="#000000" font-family="sans-serif" font-size="13" font-weight="bold" lengthAdjust="spacing" textLength="16" x="727.5" y="437.2686">alt</text><text fill="#000000" font-family="sans-serif" font-size="11" font-weight="bold" lengthAdjust="spacing" textLength="104" x="788.5" y="436.1924">[codeType = MMSI]</text><line style="stroke:#A80036;stroke-width:1.0;" x1="775" x2="817" y1="463.4766" y2="463.4766"/><line style="stroke:#A80036;stroke-width:1.0;" x1="817" x2="817" y1="463.4766" y2="476.4766"/><line style="stroke:#A80036;stroke-width:1.0;" x1="776" x2="817" y1="476.4766" y2="476.4766"/><polygon fill="#A80036" points="786,472.4766,776,476.4766,786,480.4766,782,476.4766" style="stroke:#A80036;stroke-width:1.0;"/><text fill="#000000" font-family="sans-serif" font-size="13" font-weight="bold" lengthAdjust="spacing" textLength="18" x="782" y="458.6201">3.7</text><text fill="#000000" font-family="sans-serif" font-size="13" lengthAdjust="spacing" textLength="222" x="804" y="458.6201">chosenShip = findShipByMMSI(MMSI)</text><line style="stroke:#000000;stroke-width:1.0;stroke-dasharray:2.0,2.0;" x1="712.5" x2="1066" y1="485.4766" y2="485.4766"/><text fill="#000000" font-family="sans-serif" font-size="11" font-weight="bold" lengthAdjust="spacing" textLength="95" x="717.5" y="496.8955">[codeType = IMO]</text><line style="stroke:#A80036;stroke-width:1.0;" x1="775" x2="817" y1="522.6641" y2="522.6641"/><line style="stroke:#A80036;stroke-width:1.0;" x1="817" x2="817" y1="522.6641" y2="535.6641"/><line style="stroke:#A80036;stroke-width:1.0;" x1="776" x2="817" y1="535.6641" y2="535.6641"/><polygon fill="#A80036" points="786,531.6641,776,535.6641,786,539.6641,782,535.6641" style="stroke:#A80036;stroke-width:1.0;"/><text fill="#000000" font-family="sans-serif" font-size="13" font-weight="bold" lengthAdjust="spacing" textLength="18" x="782" y="517.8076">3.8</text><text fill="#000000" font-family="sans-serif" font-size="13" lengthAdjust="spacing" textLength="202" x="804" y="517.8076">chosenShip = findShipByIMO(IMO)</text><line style="stroke:#000000;stroke-width:1.0;stroke-dasharray:2.0,2.0;" x1="712.5" x2="1066" y1="544.6641" y2="544.6641"/><text fill="#000000" font-family="sans-serif" font-size="11" font-weight="bold" lengthAdjust="spacing" textLength="118" x="717.5" y="556.083">[codeType = CallSign]</text><line style="stroke:#A80036;stroke-width:1.0;" x1="775" x2="817" y1="581.8516" y2="581.8516"/><line style="stroke:#A80036;stroke-width:1.0;" x1="817" x2="817" y1="581.8516" y2="594.8516"/><line style="stroke:#A80036;stroke-width:1.0;" x1="776" x2="817" y1="594.8516" y2="594.8516"/><polygon fill="#A80036" points="786,590.8516,776,594.8516,786,598.8516,782,594.8516" style="stroke:#A80036;stroke-width:1.0;"/><text fill="#000000" font-family="sans-serif" font-size="13" font-weight="bold" lengthAdjust="spacing" textLength="18" x="782" y="576.9951">3.9</text><text fill="#000000" font-family="sans-serif" font-size="13" lengthAdjust="spacing" textLength="250" x="804" y="576.9951">chosenShip = findShipByCallSign(CallSign)</text><polygon fill="#A80036" points="69,628.2031,59,632.2031,69,636.2031,65,632.2031" style="stroke:#A80036;stroke-width:1.0;"/><line style="stroke:#A80036;stroke-width:1.0;stroke-dasharray:2.0,2.0;" x1="63" x2="330" y1="632.2031" y2="632.2031"/><text fill="#000000" font-family="sans-serif" font-size="13" font-weight="bold" lengthAdjust="spacing" textLength="7" x="75" y="627.3467">4</text><text fill="#000000" font-family="sans-serif" font-size="13" lengthAdjust="spacing" textLength="228" x="86" y="627.3467">shows details of the corresponding ship</text><!--MD5=[9b94e170b8befba89729b98a8927b34a]
@startuml
autonumber

'hide footbox
actor "Traffic Manager" as TM

participant ":SearchShipUI" as UI
participant ":SearchShipController" as CTRL
participant ":SearchShip" as SS
participant ":App" as APP
participant ":Company" as COMP

activate TM
TM -> UI : asks for details of a ship
activate UI
activate CTRL

UI -> TM : requests data (code)
TM -> UI : types requested data

autonumber 3.1
UI -> CTRL : chosenShip = findShip(code)

CTRL -> SS : chosenShip = findShip(code)
activate SS

SS -> APP : app = getInstance()
activate APP
SS -> APP : company = getCompany
deactivate APP
SS -> COMP : ships = getShipBST()
activate COMP
deactivate COMP

SS -> SS : codeType = DetermineCodeType(code)

alt codeType = MMSI
  SS -> SS : chosenShip = findShipByMMSI(MMSI)
else codeType = IMO
  SS -> SS : chosenShip = findShipByIMO(IMO)
else codeType = CallSign
  SS -> SS : chosenShip = findShipByCallSign(CallSign)
end

deactivate SS
deactivate CTRL

autonumber 4
UI - -> TM : shows details of the corresponding ship
deactivate UI

deactivate TM

@enduml

@startuml
autonumber

actor "Traffic Manager" as TM

participant ":SearchShipUI" as UI
participant ":SearchShipController" as CTRL
participant ":SearchShip" as SS
participant ":App" as APP
participant ":Company" as COMP

activate TM
TM -> UI : asks for details of a ship
activate UI
activate CTRL

UI -> TM : requests data (code)
TM -> UI : types requested data

autonumber 3.1
UI -> CTRL : chosenShip = findShip(code)

CTRL -> SS : chosenShip = findShip(code)
activate SS

SS -> APP : app = getInstance()
activate APP
SS -> APP : company = getCompany
deactivate APP
SS -> COMP : ships = getShipBST()
activate COMP
deactivate COMP

SS -> SS : codeType = DetermineCodeType(code)

alt codeType = MMSI
  SS -> SS : chosenShip = findShipByMMSI(MMSI)
else codeType = IMO
  SS -> SS : chosenShip = findShipByIMO(IMO)
else codeType = CallSign
  SS -> SS : chosenShip = findShipByCallSign(CallSign)
end

deactivate SS
deactivate CTRL

autonumber 4
UI - -> TM : shows details of the corresponding ship
deactivate UI

deactivate TM

@enduml

PlantUML version 1.2021.00(Sun Jan 10 10:25:05 GMT 2021)
(GPL source distribution)
Java Runtime: OpenJDK Runtime Environment
JVM: OpenJDK 64-Bit Server VM
Default Encoding: Cp1252
Language: en
Country: GB
--></g></svg>