<?xml version="1.0" encoding="UTF-8" standalone="no"?><svg xmlns="http://www.w3.org/2000/svg" xmlns:xlink="http://www.w3.org/1999/xlink" contentScriptType="application/ecmascript" contentStyleType="text/css" height="904px" preserveAspectRatio="none" style="width:513px;height:904px;" version="1.1" viewBox="0 0 513 904" width="513px" zoomAndPan="magnify"><defs><filter height="300%" id="flptzvvtqd4it" width="300%" x="-1" y="-1"><feGaussianBlur result="blurOut" stdDeviation="2.0"/><feColorMatrix in="blurOut" result="blurOut2" type="matrix" values="0 0 0 0 0 0 0 0 0 0 0 0 0 0 0 0 0 0 .4 0"/><feOffset dx="4.0" dy="4.0" in="blurOut2" result="blurOut3"/><feBlend in="SourceGraphic" in2="blurOut3" mode="normal"/></filter></defs><g><!--MD5=[23775766d9d9cbd7e35e8d659c509336]
class SearchShipUI--><rect codeLine="3" fill="#FEFECE" filter="url(#flptzvvtqd4it)" height="61.8359" id="SearchShipUI" style="stroke:#A80036;stroke-width:1.5;" width="108" x="234" y="829"/><ellipse cx="249" cy="845" fill="#ADD1B2" rx="11" ry="11" style="stroke:#A80036;stroke-width:1.0;"/><path d="M251,841.5 Q251.2031,841 251.4375,840.75 Q251.6719,840.5 251.9375,840.5 Q252.4063,840.5 252.7031,840.7813 Q253,841.0625 253,841.7188 L253,843.2813 Q253,843.9375 252.7188,844.2188 Q252.4375,844.5 252,844.5 Q251.6094,844.5 251.3594,844.3281 Q251.1094,844.1563 251,843.7031 Q250.9531,843.3906 250.7813,843.2188 Q250.4688,842.8906 249.9063,842.7031 Q249.3438,842.5 248.7813,842.5 Q248.0781,842.5 247.4844,842.7813 Q246.9063,843.0625 246.4531,843.6875 Q246,844.3125 246,845.1719 L246,846.0938 Q246,847.125 246.8438,847.8125 Q247.6875,848.5 249.1875,848.5 Q250.0781,848.5 250.7031,848.2969 Q251.0625,848.1875 251.4688,847.8281 Q251.7344,847.625 251.875,847.5625 Q252.0156,847.5 252.1875,847.5 Q252.5156,847.5 252.75,847.7656 Q253,848.0156 253,848.375 Q253,848.7188 252.6563,849.125 Q252.1563,849.7188 251.3594,850.0469 Q250.3125,850.5 249.0313,850.5 Q247.5313,850.5 246.3281,849.9063 Q245.3594,849.4375 244.6719,848.4219 Q244,847.4063 244,846.2031 L244,845.1094 Q244,843.8594 244.5938,842.7656 Q245.2031,841.6719 246.25,841.0938 Q247.3125,840.5 248.5,840.5 Q249.2188,840.5 249.8438,840.75 Q250.4688,841 251,841.5 Z " fill="#000000"/><text fill="#000000" font-family="sans-serif" font-size="12" lengthAdjust="spacing" textLength="76" x="263" y="849.9102">SearchShipUI</text><line style="stroke:#A80036;stroke-width:1.5;" x1="235" x2="341" y1="861" y2="861"/><rect fill="none" height="6" style="stroke:#C82930;stroke-width:1.0;" width="6" x="242" y="869"/><text fill="#000000" font-family="sans-serif" font-size="11" lengthAdjust="spacing" textLength="45" x="254" y="876.4189">controller</text><line style="stroke:#A80036;stroke-width:1.5;" x1="235" x2="341" y1="882.8359" y2="882.8359"/><!--MD5=[e6f2cb470f06694f6a02b571e2ffcbb5]
class SearchShipController--><rect codeLine="7" fill="#FEFECE" filter="url(#flptzvvtqd4it)" height="103.3438" id="SearchShipController" style="stroke:#A80036;stroke-width:1.5;" width="160" x="142" y="666"/><ellipse cx="161.5" cy="682" fill="#ADD1B2" rx="11" ry="11" style="stroke:#A80036;stroke-width:1.0;"/><path d="M163.5,678.5 Q163.7031,678 163.9375,677.75 Q164.1719,677.5 164.4375,677.5 Q164.9063,677.5 165.2031,677.7813 Q165.5,678.0625 165.5,678.7188 L165.5,680.2813 Q165.5,680.9375 165.2188,681.2188 Q164.9375,681.5 164.5,681.5 Q164.1094,681.5 163.8594,681.3281 Q163.6094,681.1563 163.5,680.7031 Q163.4531,680.3906 163.2813,680.2188 Q162.9688,679.8906 162.4063,679.7031 Q161.8438,679.5 161.2813,679.5 Q160.5781,679.5 159.9844,679.7813 Q159.4063,680.0625 158.9531,680.6875 Q158.5,681.3125 158.5,682.1719 L158.5,683.0938 Q158.5,684.125 159.3438,684.8125 Q160.1875,685.5 161.6875,685.5 Q162.5781,685.5 163.2031,685.2969 Q163.5625,685.1875 163.9688,684.8281 Q164.2344,684.625 164.375,684.5625 Q164.5156,684.5 164.6875,684.5 Q165.0156,684.5 165.25,684.7656 Q165.5,685.0156 165.5,685.375 Q165.5,685.7188 165.1563,686.125 Q164.6563,686.7188 163.8594,687.0469 Q162.8125,687.5 161.5313,687.5 Q160.0313,687.5 158.8281,686.9063 Q157.8594,686.4375 157.1719,685.4219 Q156.5,684.4063 156.5,683.2031 L156.5,682.1094 Q156.5,680.8594 157.0938,679.7656 Q157.7031,678.6719 158.75,678.0938 Q159.8125,677.5 161,677.5 Q161.7188,677.5 162.3438,677.75 Q162.9688,678 163.5,678.5 Z " fill="#000000"/><text fill="#000000" font-family="sans-serif" font-size="12" lengthAdjust="spacing" textLength="118" x="176.5" y="686.9102">SearchShipController</text><line style="stroke:#A80036;stroke-width:1.5;" x1="143" x2="301" y1="698" y2="698"/><rect fill="none" height="6" style="stroke:#C82930;stroke-width:1.0;" width="6" x="150" y="706"/><text fill="#000000" font-family="sans-serif" font-size="11" lengthAdjust="spacing" textLength="55" x="162" y="713.4189">searchShip</text><rect fill="none" height="6" style="stroke:#C82930;stroke-width:1.0;" width="6" x="150" y="719.8359"/><text fill="#000000" font-family="sans-serif" font-size="11" lengthAdjust="spacing" textLength="48" x="162" y="727.2549">codeType</text><line style="stroke:#A80036;stroke-width:1.5;" x1="143" x2="301" y1="733.6719" y2="733.6719"/><ellipse cx="153" cy="744.6719" fill="#84BE84" rx="3" ry="3" style="stroke:#038048;stroke-width:1.0;"/><text fill="#000000" font-family="sans-serif" font-size="11" lengthAdjust="spacing" textLength="134" x="162" y="749.0908">selectCodeType(codeType)</text><ellipse cx="153" cy="758.5078" fill="#84BE84" rx="3" ry="3" style="stroke:#038048;stroke-width:1.0;"/><text fill="#000000" font-family="sans-serif" font-size="11" lengthAdjust="spacing" textLength="125" x="162" y="762.9268">findShip(codeType, code)</text><!--MD5=[c54e87d19b2edd7d335db3585e62b713]
class SearchShip--><rect codeLine="14" fill="#FEFECE" filter="url(#flptzvvtqd4it)" height="158.6875" id="SearchShip" style="stroke:#A80036;stroke-width:1.5;" width="162" x="7" y="447"/><ellipse cx="51.75" cy="463" fill="#ADD1B2" rx="11" ry="11" style="stroke:#A80036;stroke-width:1.0;"/><path d="M53.75,459.5 Q53.9531,459 54.1875,458.75 Q54.4219,458.5 54.6875,458.5 Q55.1563,458.5 55.4531,458.7813 Q55.75,459.0625 55.75,459.7188 L55.75,461.2813 Q55.75,461.9375 55.4688,462.2188 Q55.1875,462.5 54.75,462.5 Q54.3594,462.5 54.1094,462.3281 Q53.8594,462.1563 53.75,461.7031 Q53.7031,461.3906 53.5313,461.2188 Q53.2188,460.8906 52.6563,460.7031 Q52.0938,460.5 51.5313,460.5 Q50.8281,460.5 50.2344,460.7813 Q49.6563,461.0625 49.2031,461.6875 Q48.75,462.3125 48.75,463.1719 L48.75,464.0938 Q48.75,465.125 49.5938,465.8125 Q50.4375,466.5 51.9375,466.5 Q52.8281,466.5 53.4531,466.2969 Q53.8125,466.1875 54.2188,465.8281 Q54.4844,465.625 54.625,465.5625 Q54.7656,465.5 54.9375,465.5 Q55.2656,465.5 55.5,465.7656 Q55.75,466.0156 55.75,466.375 Q55.75,466.7188 55.4063,467.125 Q54.9063,467.7188 54.1094,468.0469 Q53.0625,468.5 51.7813,468.5 Q50.2813,468.5 49.0781,467.9063 Q48.1094,467.4375 47.4219,466.4219 Q46.75,465.4063 46.75,464.2031 L46.75,463.1094 Q46.75,461.8594 47.3438,460.7656 Q47.9531,459.6719 49,459.0938 Q50.0625,458.5 51.25,458.5 Q51.9688,458.5 52.5938,458.75 Q53.2188,459 53.75,459.5 Z " fill="#000000"/><text fill="#000000" font-family="sans-serif" font-size="12" lengthAdjust="spacing" textLength="64" x="72.25" y="467.9102">SearchShip</text><line style="stroke:#A80036;stroke-width:1.5;" x1="8" x2="168" y1="479" y2="479"/><rect fill="none" height="6" style="stroke:#C82930;stroke-width:1.0;" width="6" x="15" y="487"/><text fill="#000000" font-family="sans-serif" font-size="11" lengthAdjust="spacing" textLength="18" x="27" y="494.4189">app</text><rect fill="none" height="6" style="stroke:#C82930;stroke-width:1.0;" width="6" x="15" y="500.8359"/><text fill="#000000" font-family="sans-serif" font-size="11" lengthAdjust="spacing" textLength="44" x="27" y="508.2549">company</text><rect fill="none" height="6" style="stroke:#C82930;stroke-width:1.0;" width="6" x="15" y="514.6719"/><text fill="#000000" font-family="sans-serif" font-size="11" lengthAdjust="spacing" textLength="26" x="27" y="522.0908">ships</text><rect fill="none" height="6" style="stroke:#C82930;stroke-width:1.0;" width="6" x="15" y="528.5078"/><text fill="#000000" font-family="sans-serif" font-size="11" lengthAdjust="spacing" textLength="36" x="27" y="535.9268">mapper</text><line style="stroke:#A80036;stroke-width:1.5;" x1="8" x2="168" y1="542.3438" y2="542.3438"/><ellipse cx="18" cy="553.3438" fill="#84BE84" rx="3" ry="3" style="stroke:#038048;stroke-width:1.0;"/><text fill="#000000" font-family="sans-serif" font-size="11" lengthAdjust="spacing" textLength="125" x="27" y="557.7627">findShip(codeType, code)</text><rect fill="#F24D5C" height="6" style="stroke:#C82930;stroke-width:1.0;" width="6" x="15" y="564.1797"/><text fill="#000000" font-family="sans-serif" font-size="11" lengthAdjust="spacing" textLength="110" x="27" y="571.5986">findShipByMMSI(MMSI)</text><rect fill="#F24D5C" height="6" style="stroke:#C82930;stroke-width:1.0;" width="6" x="15" y="578.0156"/><text fill="#000000" font-family="sans-serif" font-size="11" lengthAdjust="spacing" textLength="96" x="27" y="585.4346">findShipByIMO(IMO)</text><rect fill="#F24D5C" height="6" style="stroke:#C82930;stroke-width:1.0;" width="6" x="15" y="591.8516"/><text fill="#000000" font-family="sans-serif" font-size="11" lengthAdjust="spacing" textLength="136" x="27" y="599.2705">findShipByCallSign(CallSign)</text><!--MD5=[7b119cb16b511bbfc0e0e9f5352b84f5]
class ShipMapper--><rect codeLine="25" fill="#FEFECE" filter="url(#flptzvvtqd4it)" height="61.8359" id="ShipMapper" style="stroke:#A80036;stroke-width:1.5;" width="98" x="204" y="495.5"/><ellipse cx="219" cy="511.5" fill="#ADD1B2" rx="11" ry="11" style="stroke:#A80036;stroke-width:1.0;"/><path d="M221,508 Q221.2031,507.5 221.4375,507.25 Q221.6719,507 221.9375,507 Q222.4063,507 222.7031,507.2813 Q223,507.5625 223,508.2188 L223,509.7813 Q223,510.4375 222.7188,510.7188 Q222.4375,511 222,511 Q221.6094,511 221.3594,510.8281 Q221.1094,510.6563 221,510.2031 Q220.9531,509.8906 220.7813,509.7188 Q220.4688,509.3906 219.9063,509.2031 Q219.3438,509 218.7813,509 Q218.0781,509 217.4844,509.2813 Q216.9063,509.5625 216.4531,510.1875 Q216,510.8125 216,511.6719 L216,512.5938 Q216,513.625 216.8438,514.3125 Q217.6875,515 219.1875,515 Q220.0781,515 220.7031,514.7969 Q221.0625,514.6875 221.4688,514.3281 Q221.7344,514.125 221.875,514.0625 Q222.0156,514 222.1875,514 Q222.5156,514 222.75,514.2656 Q223,514.5156 223,514.875 Q223,515.2188 222.6563,515.625 Q222.1563,516.2188 221.3594,516.5469 Q220.3125,517 219.0313,517 Q217.5313,517 216.3281,516.4063 Q215.3594,515.9375 214.6719,514.9219 Q214,513.9063 214,512.7031 L214,511.6094 Q214,510.3594 214.5938,509.2656 Q215.2031,508.1719 216.25,507.5938 Q217.3125,507 218.5,507 Q219.2188,507 219.8438,507.25 Q220.4688,507.5 221,508 Z " fill="#000000"/><text fill="#000000" font-family="sans-serif" font-size="12" lengthAdjust="spacing" textLength="66" x="233" y="516.4102">ShipMapper</text><line style="stroke:#A80036;stroke-width:1.5;" x1="205" x2="301" y1="527.5" y2="527.5"/><line style="stroke:#A80036;stroke-width:1.5;" x1="205" x2="301" y1="535.5" y2="535.5"/><rect fill="#F24D5C" height="6" style="stroke:#C82930;stroke-width:1.0;" width="6" x="212" y="543.5"/><text fill="#000000" font-family="sans-serif" font-size="11" lengthAdjust="spacing" textLength="53" x="224" y="550.9189">toDto(ship)</text><!--MD5=[2ecc30e3e816a9f25ac7c9aed88c6f02]
class ShipDto--><rect codeLine="29" fill="#FEFECE" filter="url(#flptzvvtqd4it)" height="380.0625" id="ShipDto" style="stroke:#A80036;stroke-width:1.5;" width="390" x="109" y="7"/><ellipse cx="277.75" cy="23" fill="#ADD1B2" rx="11" ry="11" style="stroke:#A80036;stroke-width:1.0;"/><path d="M279.75,19.5 Q279.9531,19 280.1875,18.75 Q280.4219,18.5 280.6875,18.5 Q281.1563,18.5 281.4531,18.7813 Q281.75,19.0625 281.75,19.7188 L281.75,21.2813 Q281.75,21.9375 281.4688,22.2188 Q281.1875,22.5 280.75,22.5 Q280.3594,22.5 280.1094,22.3281 Q279.8594,22.1563 279.75,21.7031 Q279.7031,21.3906 279.5313,21.2188 Q279.2188,20.8906 278.6563,20.7031 Q278.0938,20.5 277.5313,20.5 Q276.8281,20.5 276.2344,20.7813 Q275.6563,21.0625 275.2031,21.6875 Q274.75,22.3125 274.75,23.1719 L274.75,24.0938 Q274.75,25.125 275.5938,25.8125 Q276.4375,26.5 277.9375,26.5 Q278.8281,26.5 279.4531,26.2969 Q279.8125,26.1875 280.2188,25.8281 Q280.4844,25.625 280.625,25.5625 Q280.7656,25.5 280.9375,25.5 Q281.2656,25.5 281.5,25.7656 Q281.75,26.0156 281.75,26.375 Q281.75,26.7188 281.4063,27.125 Q280.9063,27.7188 280.1094,28.0469 Q279.0625,28.5 277.7813,28.5 Q276.2813,28.5 275.0781,27.9063 Q274.1094,27.4375 273.4219,26.4219 Q272.75,25.4063 272.75,24.2031 L272.75,23.1094 Q272.75,21.8594 273.3438,20.7656 Q273.9531,19.6719 275,19.0938 Q276.0625,18.5 277.25,18.5 Q277.9688,18.5 278.5938,18.75 Q279.2188,19 279.75,19.5 Z " fill="#000000"/><text fill="#000000" font-family="sans-serif" font-size="12" lengthAdjust="spacing" textLength="44" x="298.25" y="27.9102">ShipDto</text><line style="stroke:#A80036;stroke-width:1.5;" x1="110" x2="498" y1="39" y2="39"/><rect fill="none" height="6" style="stroke:#C82930;stroke-width:1.0;" width="6" x="117" y="47"/><text fill="#000000" font-family="sans-serif" font-size="11" lengthAdjust="spacing" textLength="25" x="129" y="54.4189">MMSI</text><rect fill="none" height="6" style="stroke:#C82930;stroke-width:1.0;" width="6" x="117" y="60.8359"/><text fill="#000000" font-family="sans-serif" font-size="11" lengthAdjust="spacing" textLength="26" x="129" y="68.2549">name</text><rect fill="none" height="6" style="stroke:#C82930;stroke-width:1.0;" width="6" x="117" y="74.6719"/><text fill="#000000" font-family="sans-serif" font-size="11" lengthAdjust="spacing" textLength="18" x="129" y="82.0908">IMO</text><rect fill="none" height="6" style="stroke:#C82930;stroke-width:1.0;" width="6" x="117" y="88.5078"/><text fill="#000000" font-family="sans-serif" font-size="11" lengthAdjust="spacing" textLength="125" x="129" y="95.9268">numberEnergyGenerators</text><rect fill="none" height="6" style="stroke:#C82930;stroke-width:1.0;" width="6" x="117" y="102.3438"/><text fill="#000000" font-family="sans-serif" font-size="11" lengthAdjust="spacing" textLength="111" x="129" y="109.7627">generatorPowerOutput</text><rect fill="none" height="6" style="stroke:#C82930;stroke-width:1.0;" width="6" x="117" y="116.1797"/><text fill="#000000" font-family="sans-serif" font-size="11" lengthAdjust="spacing" textLength="37" x="129" y="123.5986">callSign</text><rect fill="none" height="6" style="stroke:#C82930;stroke-width:1.0;" width="6" x="117" y="130.0156"/><text fill="#000000" font-family="sans-serif" font-size="11" lengthAdjust="spacing" textLength="56" x="129" y="137.4346">vesselType</text><rect fill="none" height="6" style="stroke:#C82930;stroke-width:1.0;" width="6" x="117" y="143.8516"/><text fill="#000000" font-family="sans-serif" font-size="11" lengthAdjust="spacing" textLength="29" x="129" y="151.2705">length</text><rect fill="none" height="6" style="stroke:#C82930;stroke-width:1.0;" width="6" x="117" y="157.6875"/><text fill="#000000" font-family="sans-serif" font-size="11" lengthAdjust="spacing" textLength="27" x="129" y="165.1064">width</text><rect fill="none" height="6" style="stroke:#C82930;stroke-width:1.0;" width="6" x="117" y="171.5234"/><text fill="#000000" font-family="sans-serif" font-size="11" lengthAdjust="spacing" textLength="41" x="129" y="178.9424">capacity</text><rect fill="none" height="6" style="stroke:#C82930;stroke-width:1.0;" width="6" x="117" y="185.3594"/><text fill="#000000" font-family="sans-serif" font-size="11" lengthAdjust="spacing" textLength="23" x="129" y="192.7783">draft</text><line style="stroke:#A80036;stroke-width:1.5;" x1="110" x2="498" y1="199.1953" y2="199.1953"/><ellipse cx="120" cy="210.1953" fill="#84BE84" rx="3" ry="3" style="stroke:#038048;stroke-width:1.0;"/><text fill="#000000" font-family="sans-serif" font-size="11" lengthAdjust="spacing" textLength="256" x="129" y="214.6143">ShipDto(MMSI, name, IMO, numberEnergyGenerators,</text><text fill="#000000" font-family="sans-serif" font-size="11" lengthAdjust="spacing" textLength="364" x="129" y="228.4502">generatorPowerOutput, callSign, vesselType, length, width, capacity, draft)</text><ellipse cx="120" cy="237.8672" fill="#84BE84" rx="3" ry="3" style="stroke:#038048;stroke-width:1.0;"/><text fill="#000000" font-family="sans-serif" font-size="11" lengthAdjust="spacing" textLength="48" x="129" y="242.2861">getMMSI()</text><ellipse cx="120" cy="251.7031" fill="#84BE84" rx="3" ry="3" style="stroke:#038048;stroke-width:1.0;"/><text fill="#000000" font-family="sans-serif" font-size="11" lengthAdjust="spacing" textLength="50" x="129" y="256.1221">getName()</text><ellipse cx="120" cy="265.5391" fill="#84BE84" rx="3" ry="3" style="stroke:#038048;stroke-width:1.0;"/><text fill="#000000" font-family="sans-serif" font-size="11" lengthAdjust="spacing" textLength="41" x="129" y="269.958">getIMO()</text><ellipse cx="120" cy="279.375" fill="#84BE84" rx="3" ry="3" style="stroke:#038048;stroke-width:1.0;"/><text fill="#000000" font-family="sans-serif" font-size="11" lengthAdjust="spacing" textLength="149" x="129" y="283.7939">getNumberEnergyGenerators()</text><ellipse cx="120" cy="293.2109" fill="#84BE84" rx="3" ry="3" style="stroke:#038048;stroke-width:1.0;"/><text fill="#000000" font-family="sans-serif" font-size="11" lengthAdjust="spacing" textLength="136" x="129" y="297.6299">getGeneratorPowerOutPut()</text><ellipse cx="120" cy="307.0469" fill="#84BE84" rx="3" ry="3" style="stroke:#038048;stroke-width:1.0;"/><text fill="#000000" font-family="sans-serif" font-size="11" lengthAdjust="spacing" textLength="61" x="129" y="311.4658">getCallSign()</text><ellipse cx="120" cy="320.8828" fill="#84BE84" rx="3" ry="3" style="stroke:#038048;stroke-width:1.0;"/><text fill="#000000" font-family="sans-serif" font-size="11" lengthAdjust="spacing" textLength="81" x="129" y="325.3018">getVesselType()</text><ellipse cx="120" cy="334.7188" fill="#84BE84" rx="3" ry="3" style="stroke:#038048;stroke-width:1.0;"/><text fill="#000000" font-family="sans-serif" font-size="11" lengthAdjust="spacing" textLength="56" x="129" y="339.1377">getLength()</text><ellipse cx="120" cy="348.5547" fill="#84BE84" rx="3" ry="3" style="stroke:#038048;stroke-width:1.0;"/><text fill="#000000" font-family="sans-serif" font-size="11" lengthAdjust="spacing" textLength="50" x="129" y="352.9736">getWidth()</text><ellipse cx="120" cy="362.3906" fill="#84BE84" rx="3" ry="3" style="stroke:#038048;stroke-width:1.0;"/><text fill="#000000" font-family="sans-serif" font-size="11" lengthAdjust="spacing" textLength="65" x="129" y="366.8096">getCapacity()</text><ellipse cx="120" cy="376.2266" fill="#84BE84" rx="3" ry="3" style="stroke:#038048;stroke-width:1.0;"/><text fill="#000000" font-family="sans-serif" font-size="11" lengthAdjust="spacing" textLength="47" x="129" y="380.6455">getDraft()</text><!--MD5=[025e8cc251879ee65f6310ef949d4402]
reverse link SearchShipController to SearchShipUI--><path codeLine="56" d="M248.04,773.94 C256.83,792.64 266.3,812.8 273.81,828.79 " fill="none" id="SearchShipController-backto-SearchShipUI" style="stroke:#A80036;stroke-width:1.0;stroke-dasharray:7.0,7.0;"/><polygon fill="#A80036" points="245.83,769.22,246.0129,779.0672,247.9452,773.7506,253.2618,775.6828,245.83,769.22" style="stroke:#A80036;stroke-width:1.0;"/><!--MD5=[162878fc835ddf1cedbb05430654dd3b]
reverse link SearchShip to SearchShipController--><path codeLine="57" d="M146.69,610.28 C160.08,629.16 173.91,648.67 186.01,665.74 " fill="none" id="SearchShip-backto-SearchShipController" style="stroke:#A80036;stroke-width:1.0;stroke-dasharray:7.0,7.0;"/><polygon fill="#A80036" points="143.66,606.01,145.6009,615.6657,146.5513,610.0893,152.1277,611.0397,143.66,606.01" style="stroke:#A80036;stroke-width:1.0;"/><!--MD5=[0e530079d3c9b881b26d27abaa941cff]
reverse link ShipMapper to SearchShipController--><path codeLine="58" d="M247.15,563.14 C242.39,592.16 235.62,633.49 230.29,665.93 " fill="none" id="ShipMapper-backto-SearchShipController" style="stroke:#A80036;stroke-width:1.0;stroke-dasharray:7.0,7.0;"/><polygon fill="#A80036" points="248.02,557.87,242.6334,566.1153,247.2211,562.8058,250.5307,567.3935,248.02,557.87" style="stroke:#A80036;stroke-width:1.0;"/><!--MD5=[1d870a9453e1feae6dcdda79ea6550ef]
reverse link ShipDto to ShipMapper--><path codeLine="59" d="M273.79,392.03 C267.49,432.45 261.59,470.32 257.7,495.32 " fill="none" id="ShipDto-backto-ShipMapper" style="stroke:#A80036;stroke-width:1.0;"/><polygon fill="#A80036" points="274.55,387.09,269.2298,395.3783,273.7908,392.032,277.137,396.593,274.55,387.09" style="stroke:#A80036;stroke-width:1.0;"/><!--MD5=[dced5e95461ca8b1bd4b039ca7022eaa]
reverse link ShipDto to SearchShipUI--><path codeLine="60" d="M327.43,392.27 C336.26,503.32 339.79,644.8 319,769 C315.56,789.54 308,811.66 301.2,828.83 " fill="none" id="ShipDto-backto-SearchShipUI" style="stroke:#A80036;stroke-width:1.0;stroke-dasharray:7.0,7.0;"/><polygon fill="#A80036" points="327.01,387,323.769,396.3003,327.424,391.9828,331.7415,395.6379,327.01,387" style="stroke:#A80036;stroke-width:1.0;"/><!--MD5=[542b89f15b2f025bca12c8567449286e]
@startuml
'https://plantuml.com/class-diagram

class SearchShipUI {
- controller
}

class SearchShipController {
- searchShip
- codeType
+ selectCodeType(codeType)
+ findShip(codeType, code)
}

class SearchShip {
- app
- company
- ships
- mapper
+ findShip(codeType, code)
- findShipByMMSI(MMSI)
- findShipByIMO(IMO)
- findShipByCallSign(CallSign)
}

class ShipMapper {
- toDto(ship)
}

class ShipDto {
-MMSI
-name
-IMO
-numberEnergyGenerators
-generatorPowerOutput
-callSign
-vesselType
-length
-width
-capacity
-draft
+ ShipDto(MMSI, name, IMO, numberEnergyGenerators,
          generatorPowerOutput, callSign, vesselType, length, width, capacity, draft)
+ getMMSI()
+ getName()
+ getIMO()
+ getNumberEnergyGenerators()
+ getGeneratorPowerOutPut()
+ getCallSign()
+ getVesselType()
+ getLength()
+ getWidth()
+ getCapacity()
+ getDraft()
}

SearchShipController <.. SearchShipUI
SearchShip <.. SearchShipController
ShipMapper <.. SearchShipController
ShipDto <- - ShipMapper
ShipDto <.. SearchShipUI


@enduml

@startuml

class SearchShipUI {
- controller
}

class SearchShipController {
- searchShip
- codeType
+ selectCodeType(codeType)
+ findShip(codeType, code)
}

class SearchShip {
- app
- company
- ships
- mapper
+ findShip(codeType, code)
- findShipByMMSI(MMSI)
- findShipByIMO(IMO)
- findShipByCallSign(CallSign)
}

class ShipMapper {
- toDto(ship)
}

class ShipDto {
-MMSI
-name
-IMO
-numberEnergyGenerators
-generatorPowerOutput
-callSign
-vesselType
-length
-width
-capacity
-draft
+ ShipDto(MMSI, name, IMO, numberEnergyGenerators,
          generatorPowerOutput, callSign, vesselType, length, width, capacity, draft)
+ getMMSI()
+ getName()
+ getIMO()
+ getNumberEnergyGenerators()
+ getGeneratorPowerOutPut()
+ getCallSign()
+ getVesselType()
+ getLength()
+ getWidth()
+ getCapacity()
+ getDraft()
}

SearchShipController <.. SearchShipUI
SearchShip <.. SearchShipController
ShipMapper <.. SearchShipController
ShipDto <- - ShipMapper
ShipDto <.. SearchShipUI


@enduml

PlantUML version 1.2021.00(Sun Jan 10 10:25:05 GMT 2021)
(GPL source distribution)
Java Runtime: OpenJDK Runtime Environment
JVM: OpenJDK 64-Bit Server VM
Default Encoding: Cp1252
Language: en
Country: GB
--></g></svg>