<?xml version="1.0" encoding="UTF-8" standalone="no"?><svg xmlns="http://www.w3.org/2000/svg" xmlns:xlink="http://www.w3.org/1999/xlink" contentScriptType="application/ecmascript" contentStyleType="text/css" height="849px" preserveAspectRatio="none" style="width:934px;height:849px;background:#FFFFFF;" version="1.1" viewBox="0 0 934 849" width="934px" zoomAndPan="magnify"><defs><filter height="300%" id="fmv40eus2hmpj" width="300%" x="-1" y="-1"><feGaussianBlur result="blurOut" stdDeviation="2.0"/><feColorMatrix in="blurOut" result="blurOut2" type="matrix" values="0 0 0 0 0 0 0 0 0 0 0 0 0 0 0 0 0 0 .4 0"/><feOffset dx="4.0" dy="4.0" in="blurOut2" result="blurOut3"/><feBlend in="SourceGraphic" in2="blurOut3" mode="normal"/></filter></defs><g><!--MD5=[25e30cc67d757ad37163af89a4fbd4a2]
class TopNShipsUI--><rect codeLine="4" fill="#FEFECE" filter="url(#fmv40eus2hmpj)" height="61.8359" id="TopNShipsUI" style="stroke:#A80036;stroke-width:1.5;" width="172" x="116" y="774"/><ellipse cx="160.75" cy="790" fill="#ADD1B2" rx="11" ry="11" style="stroke:#A80036;stroke-width:1.0;"/><path d="M162.75,786.5 Q162.9531,786 163.1875,785.75 Q163.4219,785.5 163.6875,785.5 Q164.1563,785.5 164.4531,785.7813 Q164.75,786.0625 164.75,786.7188 L164.75,788.2813 Q164.75,788.9375 164.4688,789.2188 Q164.1875,789.5 163.75,789.5 Q163.3594,789.5 163.1094,789.3281 Q162.8594,789.1563 162.75,788.7031 Q162.7031,788.3906 162.5313,788.2188 Q162.2188,787.8906 161.6563,787.7031 Q161.0938,787.5 160.5313,787.5 Q159.8281,787.5 159.2344,787.7813 Q158.6563,788.0625 158.2031,788.6875 Q157.75,789.3125 157.75,790.1719 L157.75,791.0938 Q157.75,792.125 158.5938,792.8125 Q159.4375,793.5 160.9375,793.5 Q161.8281,793.5 162.4531,793.2969 Q162.8125,793.1875 163.2188,792.8281 Q163.4844,792.625 163.625,792.5625 Q163.7656,792.5 163.9375,792.5 Q164.2656,792.5 164.5,792.7656 Q164.75,793.0156 164.75,793.375 Q164.75,793.7188 164.4063,794.125 Q163.9063,794.7188 163.1094,795.0469 Q162.0625,795.5 160.7813,795.5 Q159.2813,795.5 158.0781,794.9063 Q157.1094,794.4375 156.4219,793.4219 Q155.75,792.4063 155.75,791.2031 L155.75,790.1094 Q155.75,788.8594 156.3438,787.7656 Q156.9531,786.6719 158,786.0938 Q159.0625,785.5 160.25,785.5 Q160.9688,785.5 161.5938,785.75 Q162.2188,786 162.75,786.5 Z " fill="#000000"/><text fill="#000000" font-family="sans-serif" font-size="12" lengthAdjust="spacing" textLength="74" x="181.25" y="794.9102">TopNShipsUI</text><line style="stroke:#A80036;stroke-width:1.5;" x1="117" x2="287" y1="806" y2="806"/><rect fill="none" height="6" style="stroke:#C82930;stroke-width:1.0;" width="6" x="124" y="814"/><text fill="#000000" font-family="sans-serif" font-size="11" lengthAdjust="spacing" textLength="146" x="136" y="821.4189">TopNShipsController controller</text><line style="stroke:#A80036;stroke-width:1.5;" x1="117" x2="287" y1="827.8359" y2="827.8359"/><!--MD5=[a7afdc25820bda8ff4776a1acf55fad5]
class TopNShipsController--><rect codeLine="8" fill="#FEFECE" filter="url(#fmv40eus2hmpj)" height="61.8359" id="TopNShipsController" style="stroke:#A80036;stroke-width:1.5;" width="148" x="230" y="652"/><ellipse cx="245" cy="668" fill="#ADD1B2" rx="11" ry="11" style="stroke:#A80036;stroke-width:1.0;"/><path d="M247,664.5 Q247.2031,664 247.4375,663.75 Q247.6719,663.5 247.9375,663.5 Q248.4063,663.5 248.7031,663.7813 Q249,664.0625 249,664.7188 L249,666.2813 Q249,666.9375 248.7188,667.2188 Q248.4375,667.5 248,667.5 Q247.6094,667.5 247.3594,667.3281 Q247.1094,667.1563 247,666.7031 Q246.9531,666.3906 246.7813,666.2188 Q246.4688,665.8906 245.9063,665.7031 Q245.3438,665.5 244.7813,665.5 Q244.0781,665.5 243.4844,665.7813 Q242.9063,666.0625 242.4531,666.6875 Q242,667.3125 242,668.1719 L242,669.0938 Q242,670.125 242.8438,670.8125 Q243.6875,671.5 245.1875,671.5 Q246.0781,671.5 246.7031,671.2969 Q247.0625,671.1875 247.4688,670.8281 Q247.7344,670.625 247.875,670.5625 Q248.0156,670.5 248.1875,670.5 Q248.5156,670.5 248.75,670.7656 Q249,671.0156 249,671.375 Q249,671.7188 248.6563,672.125 Q248.1563,672.7188 247.3594,673.0469 Q246.3125,673.5 245.0313,673.5 Q243.5313,673.5 242.3281,672.9063 Q241.3594,672.4375 240.6719,671.4219 Q240,670.4063 240,669.2031 L240,668.1094 Q240,666.8594 240.5938,665.7656 Q241.2031,664.6719 242.25,664.0938 Q243.3125,663.5 244.5,663.5 Q245.2188,663.5 245.8438,663.75 Q246.4688,664 247,664.5 Z " fill="#000000"/><text fill="#000000" font-family="sans-serif" font-size="12" lengthAdjust="spacing" textLength="116" x="259" y="672.9102">TopNShipsController</text><line style="stroke:#A80036;stroke-width:1.5;" x1="231" x2="377" y1="684" y2="684"/><rect fill="none" height="6" style="stroke:#C82930;stroke-width:1.0;" width="6" x="238" y="692"/><text fill="#000000" font-family="sans-serif" font-size="11" lengthAdjust="spacing" textLength="84" x="250" y="699.4189">ShipBST shipBST</text><line style="stroke:#A80036;stroke-width:1.5;" x1="231" x2="377" y1="705.8359" y2="705.8359"/><!--MD5=[95f401ea9d0c63da0b3e1cc781f0d3e9]
class ShipBST--><rect codeLine="12" fill="#FEFECE" filter="url(#fmv40eus2hmpj)" height="61.8359" id="ShipBST" style="stroke:#A80036;stroke-width:1.5;" width="301" x="153.5" y="419.5"/><ellipse cx="275.75" cy="435.5" fill="#ADD1B2" rx="11" ry="11" style="stroke:#A80036;stroke-width:1.0;"/><path d="M277.75,432 Q277.9531,431.5 278.1875,431.25 Q278.4219,431 278.6875,431 Q279.1563,431 279.4531,431.2813 Q279.75,431.5625 279.75,432.2188 L279.75,433.7813 Q279.75,434.4375 279.4688,434.7188 Q279.1875,435 278.75,435 Q278.3594,435 278.1094,434.8281 Q277.8594,434.6563 277.75,434.2031 Q277.7031,433.8906 277.5313,433.7188 Q277.2188,433.3906 276.6563,433.2031 Q276.0938,433 275.5313,433 Q274.8281,433 274.2344,433.2813 Q273.6563,433.5625 273.2031,434.1875 Q272.75,434.8125 272.75,435.6719 L272.75,436.5938 Q272.75,437.625 273.5938,438.3125 Q274.4375,439 275.9375,439 Q276.8281,439 277.4531,438.7969 Q277.8125,438.6875 278.2188,438.3281 Q278.4844,438.125 278.625,438.0625 Q278.7656,438 278.9375,438 Q279.2656,438 279.5,438.2656 Q279.75,438.5156 279.75,438.875 Q279.75,439.2188 279.4063,439.625 Q278.9063,440.2188 278.1094,440.5469 Q277.0625,441 275.7813,441 Q274.2813,441 273.0781,440.4063 Q272.1094,439.9375 271.4219,438.9219 Q270.75,437.9063 270.75,436.7031 L270.75,435.6094 Q270.75,434.3594 271.3438,433.2656 Q271.9531,432.1719 273,431.5938 Q274.0625,431 275.25,431 Q275.9688,431 276.5938,431.25 Q277.2188,431.5 277.75,432 Z " fill="#000000"/><text fill="#000000" font-family="sans-serif" font-size="12" lengthAdjust="spacing" textLength="48" x="296.25" y="440.4102">ShipBST</text><line style="stroke:#A80036;stroke-width:1.5;" x1="154.5" x2="453.5" y1="451.5" y2="451.5"/><line style="stroke:#A80036;stroke-width:1.5;" x1="154.5" x2="453.5" y1="459.5" y2="459.5"/><ellipse cx="164.5" cy="470.5" fill="#84BE84" rx="3" ry="3" style="stroke:#038048;stroke-width:1.0;"/><text fill="#000000" font-family="sans-serif" font-size="11" lengthAdjust="spacing" textLength="275" x="173.5" y="474.9189">topNShips(int n, LocalDateTime start, LocalDateTime end)</text><!--MD5=[e20f0e393e33b6317137adc5adb8f6b1]
class ShipPositionBST--><rect codeLine="16" fill="#FEFECE" filter="url(#fmv40eus2hmpj)" height="283.2109" id="ShipPositionBST" style="stroke:#A80036;stroke-width:1.5;" width="431" x="489.5" y="309"/><ellipse cx="654.25" cy="325" fill="#ADD1B2" rx="11" ry="11" style="stroke:#A80036;stroke-width:1.0;"/><path d="M656.25,321.5 Q656.4531,321 656.6875,320.75 Q656.9219,320.5 657.1875,320.5 Q657.6563,320.5 657.9531,320.7813 Q658.25,321.0625 658.25,321.7188 L658.25,323.2813 Q658.25,323.9375 657.9688,324.2188 Q657.6875,324.5 657.25,324.5 Q656.8594,324.5 656.6094,324.3281 Q656.3594,324.1563 656.25,323.7031 Q656.2031,323.3906 656.0313,323.2188 Q655.7188,322.8906 655.1563,322.7031 Q654.5938,322.5 654.0313,322.5 Q653.3281,322.5 652.7344,322.7813 Q652.1563,323.0625 651.7031,323.6875 Q651.25,324.3125 651.25,325.1719 L651.25,326.0938 Q651.25,327.125 652.0938,327.8125 Q652.9375,328.5 654.4375,328.5 Q655.3281,328.5 655.9531,328.2969 Q656.3125,328.1875 656.7188,327.8281 Q656.9844,327.625 657.125,327.5625 Q657.2656,327.5 657.4375,327.5 Q657.7656,327.5 658,327.7656 Q658.25,328.0156 658.25,328.375 Q658.25,328.7188 657.9063,329.125 Q657.4063,329.7188 656.6094,330.0469 Q655.5625,330.5 654.2813,330.5 Q652.7813,330.5 651.5781,329.9063 Q650.6094,329.4375 649.9219,328.4219 Q649.25,327.4063 649.25,326.2031 L649.25,325.1094 Q649.25,323.8594 649.8438,322.7656 Q650.4531,321.6719 651.5,321.0938 Q652.5625,320.5 653.75,320.5 Q654.4688,320.5 655.0938,320.75 Q655.7188,321 656.25,321.5 Z " fill="#000000"/><text fill="#000000" font-family="sans-serif" font-size="12" lengthAdjust="spacing" textLength="93" x="674.75" y="329.9102">ShipPositionBST</text><line style="stroke:#A80036;stroke-width:1.5;" x1="490.5" x2="919.5" y1="341" y2="341"/><rect fill="none" height="6" style="stroke:#C82930;stroke-width:1.0;" width="6" x="497.5" y="349"/><text fill="#000000" font-family="sans-serif" font-size="11" lengthAdjust="spacing" textLength="13" x="509.5" y="356.4189">list</text><line style="stroke:#A80036;stroke-width:1.5;" x1="490.5" x2="919.5" y1="362.8359" y2="362.8359"/><ellipse cx="500.5" cy="373.8359" fill="#84BE84" rx="3" ry="3" style="stroke:#038048;stroke-width:1.0;"/><text fill="#000000" font-family="sans-serif" font-size="11" lengthAdjust="spacing" textLength="133" x="509.5" y="378.2549">insert(ShipPosition element)</text><ellipse cx="500.5" cy="387.6719" fill="#84BE84" rx="3" ry="3" style="stroke:#038048;stroke-width:1.0;"/><text fill="#000000" font-family="sans-serif" font-size="11" lengthAdjust="spacing" textLength="142" x="509.5" y="392.0908">remove(ShipPosition element)</text><ellipse cx="500.5" cy="401.5078" fill="#84BE84" rx="3" ry="3" style="stroke:#038048;stroke-width:1.0;"/><text fill="#000000" font-family="sans-serif" font-size="11" lengthAdjust="spacing" textLength="349" x="509.5" y="405.9268">distanceBetweenTwoCoordinates(ShipPosition pos1, ShipPosition pos2)</text><ellipse cx="500.5" cy="415.3438" fill="#84BE84" rx="3" ry="3" style="stroke:#038048;stroke-width:1.0;"/><text fill="#000000" font-family="sans-serif" font-size="11" lengthAdjust="spacing" textLength="405" x="509.5" y="419.7627">distanceBetweenTwoCoordinates(double lon1, double lat1, double lon2, double lat2)</text><ellipse cx="500.5" cy="429.1797" fill="#84BE84" rx="3" ry="3" style="stroke:#038048;stroke-width:1.0;"/><text fill="#000000" font-family="sans-serif" font-size="11" lengthAdjust="spacing" textLength="73" x="509.5" y="433.5986">deltaDistance()</text><ellipse cx="500.5" cy="443.0156" fill="#84BE84" rx="3" ry="3" style="stroke:#038048;stroke-width:1.0;"/><text fill="#000000" font-family="sans-serif" font-size="11" lengthAdjust="spacing" textLength="91" x="509.5" y="447.4346">travelledDistance()</text><ellipse cx="500.5" cy="456.8516" fill="#84BE84" rx="3" ry="3" style="stroke:#038048;stroke-width:1.0;"/><text fill="#000000" font-family="sans-serif" font-size="11" lengthAdjust="spacing" textLength="318" x="509.5" y="461.2705">travelledDistanceInterval(LocalDateTime start, LocalDateTime end)</text><ellipse cx="500.5" cy="470.6875" fill="#84BE84" rx="3" ry="3" style="stroke:#038048;stroke-width:1.0;"/><text fill="#000000" font-family="sans-serif" font-size="11" lengthAdjust="spacing" textLength="279" x="509.5" y="475.1064">travelledDistance(ArrayList&lt;ShipPosition&gt; list, int position)</text><ellipse cx="500.5" cy="484.5234" fill="#84BE84" rx="3" ry="3" style="stroke:#038048;stroke-width:1.0;"/><text fill="#000000" font-family="sans-serif" font-size="11" lengthAdjust="spacing" textLength="120" x="509.5" y="488.9424">totalNumberMovements()</text><ellipse cx="500.5" cy="498.3594" fill="#84BE84" rx="3" ry="3" style="stroke:#038048;stroke-width:1.0;"/><text fill="#000000" font-family="sans-serif" font-size="11" lengthAdjust="spacing" textLength="99" x="509.5" y="502.7783">totalMovementTime()</text><ellipse cx="500.5" cy="512.1953" fill="#84BE84" rx="3" ry="3" style="stroke:#038048;stroke-width:1.0;"/><text fill="#000000" font-family="sans-serif" font-size="11" lengthAdjust="spacing" textLength="51" x="509.5" y="516.6143">maxSOG()</text><ellipse cx="500.5" cy="526.0313" fill="#84BE84" rx="3" ry="3" style="stroke:#038048;stroke-width:1.0;"/><text fill="#000000" font-family="sans-serif" font-size="11" lengthAdjust="spacing" textLength="57" x="509.5" y="530.4502">meanSOG()</text><ellipse cx="500.5" cy="539.8672" fill="#84BE84" rx="3" ry="3" style="stroke:#038048;stroke-width:1.0;"/><text fill="#000000" font-family="sans-serif" font-size="11" lengthAdjust="spacing" textLength="284" x="509.5" y="544.2861">meanSOGInterval(LocalDateTime start, LocalDateTime end)</text><ellipse cx="500.5" cy="553.7031" fill="#84BE84" rx="3" ry="3" style="stroke:#038048;stroke-width:1.0;"/><text fill="#000000" font-family="sans-serif" font-size="11" lengthAdjust="spacing" textLength="51" x="509.5" y="558.1221">maxCOG()</text><ellipse cx="500.5" cy="567.5391" fill="#84BE84" rx="3" ry="3" style="stroke:#038048;stroke-width:1.0;"/><text fill="#000000" font-family="sans-serif" font-size="11" lengthAdjust="spacing" textLength="57" x="509.5" y="571.958">meanCOG()</text><ellipse cx="500.5" cy="581.375" fill="#84BE84" rx="3" ry="3" style="stroke:#038048;stroke-width:1.0;"/><text fill="#000000" font-family="sans-serif" font-size="11" lengthAdjust="spacing" textLength="302" x="509.5" y="585.7939">getPositions(LocalDateTime startDate, LocalDateTime endDate)</text><!--MD5=[1c0c3765e68dc4575d559b566278b914]
class ShipPosition--><rect codeLine="36" fill="#FEFECE" filter="url(#fmv40eus2hmpj)" height="172.5234" id="ShipPosition" style="stroke:#A80036;stroke-width:1.5;" width="108" x="651" y="41.5"/><ellipse cx="668.7" cy="57.5" fill="#ADD1B2" rx="11" ry="11" style="stroke:#A80036;stroke-width:1.0;"/><path d="M670.7,54 Q670.9031,53.5 671.1375,53.25 Q671.3719,53 671.6375,53 Q672.1063,53 672.4031,53.2813 Q672.7,53.5625 672.7,54.2188 L672.7,55.7813 Q672.7,56.4375 672.4188,56.7188 Q672.1375,57 671.7,57 Q671.3094,57 671.0594,56.8281 Q670.8094,56.6563 670.7,56.2031 Q670.6531,55.8906 670.4813,55.7188 Q670.1688,55.3906 669.6063,55.2031 Q669.0438,55 668.4813,55 Q667.7781,55 667.1844,55.2813 Q666.6063,55.5625 666.1531,56.1875 Q665.7,56.8125 665.7,57.6719 L665.7,58.5938 Q665.7,59.625 666.5438,60.3125 Q667.3875,61 668.8875,61 Q669.7781,61 670.4031,60.7969 Q670.7625,60.6875 671.1688,60.3281 Q671.4344,60.125 671.575,60.0625 Q671.7156,60 671.8875,60 Q672.2156,60 672.45,60.2656 Q672.7,60.5156 672.7,60.875 Q672.7,61.2188 672.3563,61.625 Q671.8563,62.2188 671.0594,62.5469 Q670.0125,63 668.7313,63 Q667.2313,63 666.0281,62.4063 Q665.0594,61.9375 664.3719,60.9219 Q663.7,59.9063 663.7,58.7031 L663.7,57.6094 Q663.7,56.3594 664.2938,55.2656 Q664.9031,54.1719 665.95,53.5938 Q667.0125,53 668.2,53 Q668.9188,53 669.5438,53.25 Q670.1688,53.5 670.7,54 Z " fill="#000000"/><text fill="#000000" font-family="sans-serif" font-size="12" lengthAdjust="spacing" textLength="70" x="683.3" y="62.4102">ShipPosition</text><line style="stroke:#A80036;stroke-width:1.5;" x1="652" x2="758" y1="73.5" y2="73.5"/><rect fill="none" height="6" style="stroke:#C82930;stroke-width:1.0;" width="6" x="659" y="81.5"/><text fill="#000000" font-family="sans-serif" font-size="11" lengthAdjust="spacing" textLength="68" x="671" y="88.9189">baseDateTime</text><rect fill="none" height="6" style="stroke:#C82930;stroke-width:1.0;" width="6" x="659" y="95.3359"/><text fill="#000000" font-family="sans-serif" font-size="11" lengthAdjust="spacing" textLength="34" x="671" y="102.7549">latitude</text><rect fill="none" height="6" style="stroke:#C82930;stroke-width:1.0;" width="6" x="659" y="109.1719"/><text fill="#000000" font-family="sans-serif" font-size="11" lengthAdjust="spacing" textLength="43" x="671" y="116.5908">longitude</text><rect fill="none" height="6" style="stroke:#C82930;stroke-width:1.0;" width="6" x="659" y="123.0078"/><text fill="#000000" font-family="sans-serif" font-size="11" lengthAdjust="spacing" textLength="18" x="671" y="130.4268">sog</text><rect fill="none" height="6" style="stroke:#C82930;stroke-width:1.0;" width="6" x="659" y="136.8438"/><text fill="#000000" font-family="sans-serif" font-size="11" lengthAdjust="spacing" textLength="18" x="671" y="144.2627">cog</text><rect fill="none" height="6" style="stroke:#C82930;stroke-width:1.0;" width="6" x="659" y="150.6797"/><text fill="#000000" font-family="sans-serif" font-size="11" lengthAdjust="spacing" textLength="38" x="671" y="158.0986">heading</text><rect fill="none" height="6" style="stroke:#C82930;stroke-width:1.0;" width="6" x="659" y="164.5156"/><text fill="#000000" font-family="sans-serif" font-size="11" lengthAdjust="spacing" textLength="37" x="671" y="171.9346">position</text><rect fill="none" height="6" style="stroke:#C82930;stroke-width:1.0;" width="6" x="659" y="178.3516"/><text fill="#000000" font-family="sans-serif" font-size="11" lengthAdjust="spacing" textLength="82" x="671" y="185.7705">transceiverClass</text><line style="stroke:#A80036;stroke-width:1.5;" x1="652" x2="758" y1="192.1875" y2="192.1875"/><ellipse cx="662" cy="203.1875" fill="#84BE84" rx="3" ry="3" style="stroke:#038048;stroke-width:1.0;"/><text fill="#000000" font-family="sans-serif" font-size="11" lengthAdjust="spacing" textLength="45" x="671" y="207.6064">toString()</text><!--MD5=[0dc7f2ddb409b58bcf52b12238c25399]
class Ship--><rect codeLine="48" fill="#FEFECE" filter="url(#fmv40eus2hmpj)" height="241.7031" id="Ship" style="stroke:#A80036;stroke-width:1.5;" width="390" x="7" y="7"/><ellipse cx="185.25" cy="23" fill="#ADD1B2" rx="11" ry="11" style="stroke:#A80036;stroke-width:1.0;"/><path d="M187.25,19.5 Q187.4531,19 187.6875,18.75 Q187.9219,18.5 188.1875,18.5 Q188.6563,18.5 188.9531,18.7813 Q189.25,19.0625 189.25,19.7188 L189.25,21.2813 Q189.25,21.9375 188.9688,22.2188 Q188.6875,22.5 188.25,22.5 Q187.8594,22.5 187.6094,22.3281 Q187.3594,22.1563 187.25,21.7031 Q187.2031,21.3906 187.0313,21.2188 Q186.7188,20.8906 186.1563,20.7031 Q185.5938,20.5 185.0313,20.5 Q184.3281,20.5 183.7344,20.7813 Q183.1563,21.0625 182.7031,21.6875 Q182.25,22.3125 182.25,23.1719 L182.25,24.0938 Q182.25,25.125 183.0938,25.8125 Q183.9375,26.5 185.4375,26.5 Q186.3281,26.5 186.9531,26.2969 Q187.3125,26.1875 187.7188,25.8281 Q187.9844,25.625 188.125,25.5625 Q188.2656,25.5 188.4375,25.5 Q188.7656,25.5 189,25.7656 Q189.25,26.0156 189.25,26.375 Q189.25,26.7188 188.9063,27.125 Q188.4063,27.7188 187.6094,28.0469 Q186.5625,28.5 185.2813,28.5 Q183.7813,28.5 182.5781,27.9063 Q181.6094,27.4375 180.9219,26.4219 Q180.25,25.4063 180.25,24.2031 L180.25,23.1094 Q180.25,21.8594 180.8438,20.7656 Q181.4531,19.6719 182.5,19.0938 Q183.5625,18.5 184.75,18.5 Q185.4688,18.5 186.0938,18.75 Q186.7188,19 187.25,19.5 Z " fill="#000000"/><text fill="#000000" font-family="sans-serif" font-size="12" lengthAdjust="spacing" textLength="25" x="205.75" y="27.9102">Ship</text><line style="stroke:#A80036;stroke-width:1.5;" x1="8" x2="396" y1="39" y2="39"/><rect fill="none" height="6" style="stroke:#C82930;stroke-width:1.0;" width="6" x="15" y="47"/><text fill="#000000" font-family="sans-serif" font-size="11" lengthAdjust="spacing" textLength="25" x="27" y="54.4189">MMSI</text><rect fill="none" height="6" style="stroke:#C82930;stroke-width:1.0;" width="6" x="15" y="60.8359"/><text fill="#000000" font-family="sans-serif" font-size="11" lengthAdjust="spacing" textLength="26" x="27" y="68.2549">name</text><rect fill="none" height="6" style="stroke:#C82930;stroke-width:1.0;" width="6" x="15" y="74.6719"/><text fill="#000000" font-family="sans-serif" font-size="11" lengthAdjust="spacing" textLength="18" x="27" y="82.0908">IMO</text><rect fill="none" height="6" style="stroke:#C82930;stroke-width:1.0;" width="6" x="15" y="88.5078"/><text fill="#000000" font-family="sans-serif" font-size="11" lengthAdjust="spacing" textLength="125" x="27" y="95.9268">numberEnergyGenerators</text><rect fill="none" height="6" style="stroke:#C82930;stroke-width:1.0;" width="6" x="15" y="102.3438"/><text fill="#000000" font-family="sans-serif" font-size="11" lengthAdjust="spacing" textLength="111" x="27" y="109.7627">generatorPowerOutput</text><rect fill="none" height="6" style="stroke:#C82930;stroke-width:1.0;" width="6" x="15" y="116.1797"/><text fill="#000000" font-family="sans-serif" font-size="11" lengthAdjust="spacing" textLength="37" x="27" y="123.5986">callSign</text><rect fill="none" height="6" style="stroke:#C82930;stroke-width:1.0;" width="6" x="15" y="130.0156"/><text fill="#000000" font-family="sans-serif" font-size="11" lengthAdjust="spacing" textLength="56" x="27" y="137.4346">vesselType</text><rect fill="none" height="6" style="stroke:#C82930;stroke-width:1.0;" width="6" x="15" y="143.8516"/><text fill="#000000" font-family="sans-serif" font-size="11" lengthAdjust="spacing" textLength="29" x="27" y="151.2705">length</text><rect fill="none" height="6" style="stroke:#C82930;stroke-width:1.0;" width="6" x="15" y="157.6875"/><text fill="#000000" font-family="sans-serif" font-size="11" lengthAdjust="spacing" textLength="27" x="27" y="165.1064">width</text><rect fill="none" height="6" style="stroke:#C82930;stroke-width:1.0;" width="6" x="15" y="171.5234"/><text fill="#000000" font-family="sans-serif" font-size="11" lengthAdjust="spacing" textLength="41" x="27" y="178.9424">capacity</text><rect fill="none" height="6" style="stroke:#C82930;stroke-width:1.0;" width="6" x="15" y="185.3594"/><text fill="#000000" font-family="sans-serif" font-size="11" lengthAdjust="spacing" textLength="23" x="27" y="192.7783">draft</text><line style="stroke:#A80036;stroke-width:1.5;" x1="8" x2="396" y1="199.1953" y2="199.1953"/><ellipse cx="18" cy="210.1953" fill="#84BE84" rx="3" ry="3" style="stroke:#038048;stroke-width:1.0;"/><text fill="#000000" font-family="sans-serif" font-size="11" lengthAdjust="spacing" textLength="240" x="27" y="214.6143">Ship(MMSI, name, IMO, numberEnergyGenerators,</text><text fill="#000000" font-family="sans-serif" font-size="11" lengthAdjust="spacing" textLength="364" x="27" y="228.4502">generatorPowerOutput, callSign, vesselType, length, width, capacity, draft)</text><ellipse cx="18" cy="237.8672" fill="#84BE84" rx="3" ry="3" style="stroke:#038048;stroke-width:1.0;"/><text fill="#000000" font-family="sans-serif" font-size="11" lengthAdjust="spacing" textLength="45" x="27" y="242.2861">toString()</text><!--MD5=[70767183589d46a803175f17271154b0]
reverse link TopNShipsController to TopNShipsUI--><path codeLine="64" d="M274.94,718.19 C260.06,735.69 242.1,756.82 227.73,773.73 " fill="none" id="TopNShipsController-backto-TopNShipsUI" style="stroke:#A80036;stroke-width:1.0;stroke-dasharray:7.0,7.0;"/><polygon fill="#A80036" points="278.26,714.28,269.3923,718.5652,275.0296,718.0964,275.4985,723.7338,278.26,714.28" style="stroke:#A80036;stroke-width:1.0;"/><!--MD5=[fc9a67b2a019ff70fcb19b2913f2e9f9]
reverse link ShipBST to TopNShipsController--><path codeLine="65" d="M304,486.7 C304,531.83 304,609.32 304,651.86 " fill="none" id="ShipBST-backto-TopNShipsController" style="stroke:#A80036;stroke-width:1.0;stroke-dasharray:7.0,7.0;"/><polygon fill="#A80036" points="304,481.63,300,490.63,304,486.63,308,490.63,304,481.63" style="stroke:#A80036;stroke-width:1.0;"/><!--MD5=[38aa70d893a625648d3f7f015f685f9e]
reverse link Ship to ShipBST--><path codeLine="66" d="M241.88,254.31 C261.04,314.51 282.4,381.62 294.41,419.38 " fill="none" id="Ship-backto-ShipBST" style="stroke:#A80036;stroke-width:1.0;"/><polygon fill="#A80036" points="240.27,249.25,239.1799,259.0383,241.7825,254.0158,246.8051,256.6184,240.27,249.25" style="stroke:#A80036;stroke-width:1.0;"/><!--MD5=[8ade01dae9abccd7e16302447f121eb1]
reverse link Ship to TopNShipsUI--><path codeLine="67" d="M149.7,254.46 C144.04,272.49 139.19,291.03 136,309 C114.01,432.84 117.09,467.65 136,592 C146.14,658.69 173.26,733.27 189.4,773.79 " fill="none" id="Ship-backto-TopNShipsUI" style="stroke:#A80036;stroke-width:1.0;stroke-dasharray:7.0,7.0;"/><polygon fill="#A80036" points="151.32,249.39,144.7849,256.7584,149.8075,254.1558,152.4101,259.1783,151.32,249.39" style="stroke:#A80036;stroke-width:1.0;"/><!--MD5=[b90431f4199cd66235d603d88f13b642]
reverse link ShipPositionBST to TopNShipsController--><path codeLine="68" d="M485.04,584.54 C480.66,587.06 476.31,589.55 472,592 C435.76,612.61 394.5,634.74 361.93,651.89 " fill="none" id="ShipPositionBST-backto-TopNShipsController" style="stroke:#A80036;stroke-width:1.0;stroke-dasharray:7.0,7.0;"/><polygon fill="#A80036" points="489.42,582.02,479.6234,583.0331,485.0841,584.5099,483.6073,589.9706,489.42,582.02" style="stroke:#A80036;stroke-width:1.0;"/><!--MD5=[bb6d2402499ef822123f543344b34427]
reverse link ShipPosition to ShipPositionBST--><path codeLine="69" d="M705,220.01 C705,247.69 705,278.77 705,308.91 " fill="none" id="ShipPosition-backto-ShipPositionBST" style="stroke:#A80036;stroke-width:1.0;"/><polygon fill="#A80036" points="705,214.89,701,223.89,705,219.89,709,223.89,705,214.89" style="stroke:#A80036;stroke-width:1.0;"/><!--MD5=[0d106fc6203d715dac1909384658dd27]
@startuml
'https://plantuml.com/class-diagram

class TopNShipsUI {
- TopNShipsController controller
}

class TopNShipsController {
- ShipBST shipBST
}

class ShipBST {
+ topNShips(int n, LocalDateTime start, LocalDateTime end)
}

class ShipPositionBST {
-list
+insert(ShipPosition element)
+remove(ShipPosition element)
+distanceBetweenTwoCoordinates(ShipPosition pos1, ShipPosition pos2)
+distanceBetweenTwoCoordinates(double lon1, double lat1, double lon2, double lat2)
+deltaDistance()
+travelledDistance()
+travelledDistanceInterval(LocalDateTime start, LocalDateTime end)
+travelledDistance(ArrayList<ShipPosition> list, int position)
+totalNumberMovements()
+totalMovementTime()
+maxSOG()
+meanSOG()
+meanSOGInterval(LocalDateTime start, LocalDateTime end)
+maxCOG()
+meanCOG()
+getPositions(LocalDateTime startDate, LocalDateTime endDate)
}

class ShipPosition {
-baseDateTime
-latitude
-longitude
-sog
-cog
-heading
-position
-transceiverClass
+ toString()
}

class Ship {
-MMSI
-name
-IMO
-numberEnergyGenerators
-generatorPowerOutput
-callSign
-vesselType
-length
-width
-capacity
-draft
+ Ship(MMSI, name, IMO, numberEnergyGenerators,
          generatorPowerOutput, callSign, vesselType, length, width, capacity, draft)
+ toString()
}
TopNShipsController <.. TopNShipsUI
ShipBST <.. TopNShipsController
Ship <- - ShipBST
Ship <.. TopNShipsUI
ShipPositionBST <.. TopNShipsController
ShipPosition <- - ShipPositionBST


@enduml

@startuml

class TopNShipsUI {
- TopNShipsController controller
}

class TopNShipsController {
- ShipBST shipBST
}

class ShipBST {
+ topNShips(int n, LocalDateTime start, LocalDateTime end)
}

class ShipPositionBST {
-list
+insert(ShipPosition element)
+remove(ShipPosition element)
+distanceBetweenTwoCoordinates(ShipPosition pos1, ShipPosition pos2)
+distanceBetweenTwoCoordinates(double lon1, double lat1, double lon2, double lat2)
+deltaDistance()
+travelledDistance()
+travelledDistanceInterval(LocalDateTime start, LocalDateTime end)
+travelledDistance(ArrayList<ShipPosition> list, int position)
+totalNumberMovements()
+totalMovementTime()
+maxSOG()
+meanSOG()
+meanSOGInterval(LocalDateTime start, LocalDateTime end)
+maxCOG()
+meanCOG()
+getPositions(LocalDateTime startDate, LocalDateTime endDate)
}

class ShipPosition {
-baseDateTime
-latitude
-longitude
-sog
-cog
-heading
-position
-transceiverClass
+ toString()
}

class Ship {
-MMSI
-name
-IMO
-numberEnergyGenerators
-generatorPowerOutput
-callSign
-vesselType
-length
-width
-capacity
-draft
+ Ship(MMSI, name, IMO, numberEnergyGenerators,
          generatorPowerOutput, callSign, vesselType, length, width, capacity, draft)
+ toString()
}
TopNShipsController <.. TopNShipsUI
ShipBST <.. TopNShipsController
Ship <- - ShipBST
Ship <.. TopNShipsUI
ShipPositionBST <.. TopNShipsController
ShipPosition <- - ShipPositionBST


@enduml

PlantUML version 1.2021.11(Sat Oct 02 14:26:11 BST 2021)
(GPL source distribution)
Java Runtime: OpenJDK Runtime Environment
JVM: OpenJDK 64-Bit Server VM
Default Encoding: Cp1252
Language: pt
Country: PT
--></g></svg>