<?xml version="1.0" encoding="UTF-8" standalone="no"?><svg xmlns="http://www.w3.org/2000/svg" xmlns:xlink="http://www.w3.org/1999/xlink" contentScriptType="application/ecmascript" contentStyleType="text/css" height="440px" preserveAspectRatio="none" style="width:179px;height:440px;" version="1.1" viewBox="0 0 179 440" width="179px" zoomAndPan="magnify"><defs><filter height="300%" id="f14ke8fvkmn2n" width="300%" x="-1" y="-1"><feGaussianBlur result="blurOut" stdDeviation="2.0"/><feColorMatrix in="blurOut" result="blurOut2" type="matrix" values="0 0 0 0 0 0 0 0 0 0 0 0 0 0 0 0 0 0 .4 0"/><feOffset dx="4.0" dy="4.0" in="blurOut2" result="blurOut3"/><feBlend in="SourceGraphic" in2="blurOut3" mode="normal"/></filter></defs><g><!--MD5=[0baaf300b4e708ac3e376d44e9cdca27]
class Cargo_Manifest--><rect codeLine="3" fill="#FEFECE" filter="url(#f14ke8fvkmn2n)" height="144.8516" id="Cargo_Manifest" style="stroke:#A80036;stroke-width:1.5;" width="149" x="11.5" y="7"/><ellipse cx="40" cy="23" fill="#ADD1B2" rx="11" ry="11" style="stroke:#A80036;stroke-width:1.0;"/><path d="M38.5,24 L38.5,26 L42.5,26 L42.5,25 L42.5,24.5156 L43.125,24 L43.5,24 L43.875,24 L44.5,24.5156 L44.5,25 L44.5,28 L36.5,28 L36.0156,28 L35.5,27.375 L35.5,27 L35.5,26.625 L36.0156,26 L36.5,26 L36.5,26 L36.5,20 L36.5,20 L36.0156,20 L35.5,19.375 L35.5,19 L35.5,18.625 L36.0156,18 L36.5,18 L44.5,18 L44.5,21 L44.5,21.4844 L43.875,22 L43.5,22 L43.125,22 L42.5,21.4844 L42.5,21 L42.5,20 L38.5,20 L38.5,22 L39.5,22 L39.5,21.5156 L39.5,21.5156 L40.125,21 L40.5,21 L40.875,21 L41.5,21.5156 L41.5,22 L41.5,24 L41.5,24.4844 L40.875,25 L40.875,25 L40.5,25 L40.125,25 L39.5,24.4844 L39.5,24.4844 L39.5,24 L38.5,24 Z " fill="#000000"/><text fill="#000000" font-family="sans-serif" font-size="12" lengthAdjust="spacing" textLength="87" x="57" y="27.9102">Cargo_Manifest</text><line style="stroke:#A80036;stroke-width:1.5;" x1="12.5" x2="159.5" y1="39" y2="39"/><ellipse cx="22.5" cy="50" fill="#000000" rx="3" ry="3" style="stroke:#000000;stroke-width:1.0;"/><text fill="#000000" font-family="sans-serif" font-size="11" lengthAdjust="spacing" textLength="89" x="31.5" y="54.4189">id_cargo_manifest</text><ellipse cx="22.5" cy="63.8359" fill="#000000" rx="3" ry="3" style="stroke:#000000;stroke-width:1.0;"/><text fill="#000000" font-family="sans-serif" font-size="11" lengthAdjust="spacing" textLength="59" x="31.5" y="68.2549">id_container</text><line style="stroke:#A80036;stroke-width:1.0;" x1="12.5" x2="159.5" y1="74.6719" y2="74.6719"/><ellipse cx="22.5" cy="85.6719" fill="#000000" rx="3" ry="3" style="stroke:#000000;stroke-width:1.0;"/><text fill="#000000" font-family="sans-serif" font-size="11" lengthAdjust="spacing" textLength="29" x="31.5" y="90.0908">id_trip</text><ellipse cx="22.5" cy="99.5078" fill="#000000" rx="3" ry="3" style="stroke:#000000;stroke-width:1.0;"/><text fill="#000000" font-family="sans-serif" font-size="11" lengthAdjust="spacing" textLength="67" x="31.5" y="103.9268">position_code</text><ellipse cx="22.5" cy="113.3438" fill="#000000" rx="3" ry="3" style="stroke:#000000;stroke-width:1.0;"/><text fill="#000000" font-family="sans-serif" font-size="11" lengthAdjust="spacing" textLength="67" x="31.5" y="117.7627">cargo_weight</text><ellipse cx="22.5" cy="127.1797" fill="#000000" rx="3" ry="3" style="stroke:#000000;stroke-width:1.0;"/><text fill="#000000" font-family="sans-serif" font-size="11" lengthAdjust="spacing" textLength="123" x="31.5" y="131.5986">refrigeration_temperature</text><ellipse cx="22.5" cy="141.0156" fill="#000000" rx="3" ry="3" style="stroke:#000000;stroke-width:1.0;"/><text fill="#000000" font-family="sans-serif" font-size="11" lengthAdjust="spacing" textLength="39" x="31.5" y="145.4346">id_client</text><!--MD5=[e9a58730c562b34349daa605d1ed6662]
class Container--><rect codeLine="14" fill="#FEFECE" filter="url(#f14ke8fvkmn2n)" height="214.0313" id="Container" style="stroke:#A80036;stroke-width:1.5;" width="158" x="7" y="212"/><ellipse cx="54.75" cy="228" fill="#ADD1B2" rx="11" ry="11" style="stroke:#A80036;stroke-width:1.0;"/><path d="M53.25,229 L53.25,231 L57.25,231 L57.25,230 L57.25,229.5156 L57.875,229 L58.25,229 L58.625,229 L59.25,229.5156 L59.25,230 L59.25,233 L51.25,233 L50.7656,233 L50.25,232.375 L50.25,232 L50.25,231.625 L50.7656,231 L51.25,231 L51.25,231 L51.25,225 L51.25,225 L50.7656,225 L50.25,224.375 L50.25,224 L50.25,223.625 L50.7656,223 L51.25,223 L59.25,223 L59.25,226 L59.25,226.4844 L58.625,227 L58.25,227 L57.875,227 L57.25,226.4844 L57.25,226 L57.25,225 L53.25,225 L53.25,227 L54.25,227 L54.25,226.5156 L54.25,226.5156 L54.875,226 L55.25,226 L55.625,226 L56.25,226.5156 L56.25,227 L56.25,229 L56.25,229.4844 L55.625,230 L55.625,230 L55.25,230 L54.875,230 L54.25,229.4844 L54.25,229.4844 L54.25,229 L53.25,229 Z " fill="#000000"/><text fill="#000000" font-family="sans-serif" font-size="12" lengthAdjust="spacing" textLength="54" x="75.25" y="232.9102">Container</text><line style="stroke:#A80036;stroke-width:1.5;" x1="8" x2="164" y1="244" y2="244"/><ellipse cx="18" cy="255" fill="#000000" rx="3" ry="3" style="stroke:#000000;stroke-width:1.0;"/><text fill="#000000" font-family="sans-serif" font-size="11" lengthAdjust="spacing" textLength="59" x="27" y="259.4189">id_container</text><line style="stroke:#A80036;stroke-width:1.0;" x1="8" x2="164" y1="265.8359" y2="265.8359"/><ellipse cx="18" cy="276.8359" fill="#000000" rx="3" ry="3" style="stroke:#000000;stroke-width:1.0;"/><text fill="#000000" font-family="sans-serif" font-size="11" lengthAdjust="spacing" textLength="44" x="27" y="281.2549">iso_code</text><text fill="#000000" font-family="sans-serif" font-size="11" lengthAdjust="spacing" textLength="0" x="30" y="295.0908"/><ellipse cx="18" cy="304.5078" fill="#000000" rx="3" ry="3" style="stroke:#000000;stroke-width:1.0;"/><text fill="#000000" font-family="sans-serif" font-size="11" lengthAdjust="spacing" textLength="19" x="27" y="308.9268">tare</text><ellipse cx="18" cy="318.3438" fill="#000000" rx="3" ry="3" style="stroke:#000000;stroke-width:1.0;"/><text fill="#000000" font-family="sans-serif" font-size="11" lengthAdjust="spacing" textLength="132" x="27" y="322.7627">max_weight_incl_container</text><ellipse cx="18" cy="332.1797" fill="#000000" rx="3" ry="3" style="stroke:#000000;stroke-width:1.0;"/><text fill="#000000" font-family="sans-serif" font-size="11" lengthAdjust="spacing" textLength="59" x="27" y="336.5986">max_weight</text><ellipse cx="18" cy="346.0156" fill="#000000" rx="3" ry="3" style="stroke:#000000;stroke-width:1.0;"/><text fill="#000000" font-family="sans-serif" font-size="11" lengthAdjust="spacing" textLength="60" x="27" y="350.4346">max_volume</text><text fill="#000000" font-family="sans-serif" font-size="11" lengthAdjust="spacing" textLength="0" x="30" y="364.2705"/><ellipse cx="18" cy="373.6875" fill="#000000" rx="3" ry="3" style="stroke:#000000;stroke-width:1.0;"/><text fill="#000000" font-family="sans-serif" font-size="11" lengthAdjust="spacing" textLength="46" x="27" y="378.1064">id_owner</text><ellipse cx="18" cy="387.5234" fill="#000000" rx="3" ry="3" style="stroke:#000000;stroke-width:1.0;"/><text fill="#000000" font-family="sans-serif" font-size="11" lengthAdjust="spacing" textLength="63" x="27" y="391.9424">id_equipment</text><ellipse cx="18" cy="401.3594" fill="#000000" rx="3" ry="3" style="stroke:#000000;stroke-width:1.0;"/><text fill="#000000" font-family="sans-serif" font-size="11" lengthAdjust="spacing" textLength="68" x="27" y="405.7783">serial_number</text><ellipse cx="18" cy="415.1953" fill="#000000" rx="3" ry="3" style="stroke:#000000;stroke-width:1.0;"/><text fill="#000000" font-family="sans-serif" font-size="11" lengthAdjust="spacing" textLength="54" x="27" y="419.6143">check_digit</text><!--MD5=[56127ccb70193a52dc3f681a8e3969fb]
link Cargo_Manifest to Container--><path codeLine="30" d="M86,160.14 C86,174.16 86,188.99 86,203.74 " fill="none" id="Cargo_Manifest-Container" style="stroke:#A80036;stroke-width:1.0;"/><line style="stroke:#A80036;stroke-width:1.0;" x1="90" x2="82" y1="207.91" y2="207.91"/><line style="stroke:#A80036;stroke-width:1.0;" x1="90" x2="82" y1="204.91" y2="204.91"/><line style="stroke:#A80036;stroke-width:1.0;" x1="86" x2="86" y1="203.91" y2="211.91"/><line style="stroke:#A80036;stroke-width:1.0;" x1="86" x2="80" y1="160.08" y2="152.08"/><line style="stroke:#A80036;stroke-width:1.0;" x1="86" x2="92" y1="160.08" y2="152.08"/><line style="stroke:#A80036;stroke-width:1.0;" x1="86" x2="86" y1="160.08" y2="152.08"/><ellipse cx="86" cy="166.08" fill="none" rx="4" ry="4" style="stroke:#A80036;stroke-width:1.0;"/><!--MD5=[512f0605cd3774285cfcefe6aca4b71b]
@startuml
'https://plantuml.com/class-diagram

entity Cargo_Manifest {
* id_cargo_manifest
* id_container
- -
* id_trip
* position_code
* cargo_weight
* refrigeration_temperature
* id_client
}

entity Container {
* id_container
- -
* iso_code

* tare
* max_weight_incl_container
* max_weight
* max_volume

* id_owner
* id_equipment
* serial_number
* check_digit
}

Cargo_Manifest }o- -|| Container


@enduml

@startuml

entity Cargo_Manifest {
* id_cargo_manifest
* id_container
- -
* id_trip
* position_code
* cargo_weight
* refrigeration_temperature
* id_client
}

entity Container {
* id_container
- -
* iso_code

* tare
* max_weight_incl_container
* max_weight
* max_volume

* id_owner
* id_equipment
* serial_number
* check_digit
}

Cargo_Manifest }o- -|| Container


@enduml

PlantUML version 1.2021.00(Sun Jan 10 10:25:05 GMT 2021)
(GPL source distribution)
Java Runtime: OpenJDK Runtime Environment
JVM: OpenJDK 64-Bit Server VM
Default Encoding: Cp1252
Language: pt
Country: PT
--></g></svg>