<?xml version="1.0" encoding="UTF-8" standalone="no"?><svg xmlns="http://www.w3.org/2000/svg" xmlns:xlink="http://www.w3.org/1999/xlink" contentScriptType="application/ecmascript" contentStyleType="text/css" height="457px" preserveAspectRatio="none" style="width:375px;height:457px;" version="1.1" viewBox="0 0 375 457" width="375px" zoomAndPan="magnify"><defs><filter height="300%" id="fbguiqgxb9or" width="300%" x="-1" y="-1"><feGaussianBlur result="blurOut" stdDeviation="2.0"/><feColorMatrix in="blurOut" result="blurOut2" type="matrix" values="0 0 0 0 0 0 0 0 0 0 0 0 0 0 0 0 0 0 .4 0"/><feOffset dx="4.0" dy="4.0" in="blurOut2" result="blurOut3"/><feBlend in="SourceGraphic" in2="blurOut3" mode="normal"/></filter></defs><g><!--MD5=[02e4b9b7573f1156f41e60aa5b4e25a4]
class Company--><rect codeLine="7" fill="#FEFECE" filter="url(#fbguiqgxb9or)" height="61.8359" id="Company" style="stroke:#A80036;stroke-width:1.5;" width="85" x="7" y="173.5"/><ellipse cx="22" cy="189.5" fill="#ADD1B2" rx="11" ry="11" style="stroke:#A80036;stroke-width:1.0;"/><path d="M24,186 Q24.2031,185.5 24.4375,185.25 Q24.6719,185 24.9375,185 Q25.4063,185 25.7031,185.2813 Q26,185.5625 26,186.2188 L26,187.7813 Q26,188.4375 25.7188,188.7188 Q25.4375,189 25,189 Q24.6094,189 24.3594,188.8281 Q24.1094,188.6563 24,188.2031 Q23.9531,187.8906 23.7813,187.7188 Q23.4688,187.3906 22.9063,187.2031 Q22.3438,187 21.7813,187 Q21.0781,187 20.4844,187.2813 Q19.9063,187.5625 19.4531,188.1875 Q19,188.8125 19,189.6719 L19,190.5938 Q19,191.625 19.8438,192.3125 Q20.6875,193 22.1875,193 Q23.0781,193 23.7031,192.7969 Q24.0625,192.6875 24.4688,192.3281 Q24.7344,192.125 24.875,192.0625 Q25.0156,192 25.1875,192 Q25.5156,192 25.75,192.2656 Q26,192.5156 26,192.875 Q26,193.2188 25.6563,193.625 Q25.1563,194.2188 24.3594,194.5469 Q23.3125,195 22.0313,195 Q20.5313,195 19.3281,194.4063 Q18.3594,193.9375 17.6719,192.9219 Q17,191.9063 17,190.7031 L17,189.6094 Q17,188.3594 17.5938,187.2656 Q18.2031,186.1719 19.25,185.5938 Q20.3125,185 21.5,185 Q22.2188,185 22.8438,185.25 Q23.4688,185.5 24,186 Z " fill="#000000"/><text fill="#000000" font-family="sans-serif" font-size="12" lengthAdjust="spacing" textLength="53" x="36" y="194.4102">Company</text><line style="stroke:#A80036;stroke-width:1.5;" x1="8" x2="91" y1="205.5" y2="205.5"/><text fill="#000000" font-family="sans-serif" font-size="11" lengthAdjust="spacing" textLength="60" x="13" y="220.9189">-Designation</text><line style="stroke:#A80036;stroke-width:1.5;" x1="8" x2="91" y1="227.3359" y2="227.3359"/><!--MD5=[a0bfe97ac0a38e6e74cc1c7c7b744b71]
class Port--><rect codeLine="11" fill="#FEFECE" filter="url(#fbguiqgxb9or)" height="158.6875" id="Port" style="stroke:#A80036;stroke-width:1.5;" width="77" x="242" y="7"/><ellipse cx="267.35" cy="23" fill="#ADD1B2" rx="11" ry="11" style="stroke:#A80036;stroke-width:1.0;"/><path d="M269.35,19.5 Q269.5531,19 269.7875,18.75 Q270.0219,18.5 270.2875,18.5 Q270.7563,18.5 271.0531,18.7813 Q271.35,19.0625 271.35,19.7188 L271.35,21.2813 Q271.35,21.9375 271.0688,22.2188 Q270.7875,22.5 270.35,22.5 Q269.9594,22.5 269.7094,22.3281 Q269.4594,22.1563 269.35,21.7031 Q269.3031,21.3906 269.1313,21.2188 Q268.8188,20.8906 268.2563,20.7031 Q267.6938,20.5 267.1313,20.5 Q266.4281,20.5 265.8344,20.7813 Q265.2563,21.0625 264.8031,21.6875 Q264.35,22.3125 264.35,23.1719 L264.35,24.0938 Q264.35,25.125 265.1938,25.8125 Q266.0375,26.5 267.5375,26.5 Q268.4281,26.5 269.0531,26.2969 Q269.4125,26.1875 269.8188,25.8281 Q270.0844,25.625 270.225,25.5625 Q270.3656,25.5 270.5375,25.5 Q270.8656,25.5 271.1,25.7656 Q271.35,26.0156 271.35,26.375 Q271.35,26.7188 271.0063,27.125 Q270.5063,27.7188 269.7094,28.0469 Q268.6625,28.5 267.3813,28.5 Q265.8813,28.5 264.6781,27.9063 Q263.7094,27.4375 263.0219,26.4219 Q262.35,25.4063 262.35,24.2031 L262.35,23.1094 Q262.35,21.8594 262.9438,20.7656 Q263.5531,19.6719 264.6,19.0938 Q265.6625,18.5 266.85,18.5 Q267.5688,18.5 268.1938,18.75 Q268.8188,19 269.35,19.5 Z " fill="#000000"/><text fill="#000000" font-family="sans-serif" font-size="12" lengthAdjust="spacing" textLength="22" x="283.65" y="27.9102">Port</text><line style="stroke:#A80036;stroke-width:1.5;" x1="243" x2="318" y1="39" y2="39"/><text fill="#000000" font-family="sans-serif" font-size="11" lengthAdjust="spacing" textLength="64" x="248" y="54.4189">-Identification</text><text fill="#000000" font-family="sans-serif" font-size="11" lengthAdjust="spacing" textLength="31" x="248" y="68.2549">-Name</text><text fill="#000000" font-family="sans-serif" font-size="11" lengthAdjust="spacing" textLength="49" x="248" y="82.0908">-Continent</text><text fill="#000000" font-family="sans-serif" font-size="11" lengthAdjust="spacing" textLength="42" x="248" y="95.9268">-Country</text><text fill="#000000" font-family="sans-serif" font-size="11" lengthAdjust="spacing" textLength="42" x="248" y="109.7627">-Latitude</text><text fill="#000000" font-family="sans-serif" font-size="11" lengthAdjust="spacing" textLength="47" x="248" y="123.5986">-longitude</text><text fill="#000000" font-family="sans-serif" font-size="11" lengthAdjust="spacing" textLength="65" x="248" y="137.4346">-PortMagager</text><text fill="#000000" font-family="sans-serif" font-size="11" lengthAdjust="spacing" textLength="47" x="248" y="151.2705">-PortStaff</text><line style="stroke:#A80036;stroke-width:1.5;" x1="243" x2="318" y1="157.6875" y2="157.6875"/><!--MD5=[0dc7f2ddb409b58bcf52b12238c25399]
class Ship--><rect codeLine="22" fill="#FEFECE" filter="url(#fbguiqgxb9or)" height="241.7031" id="Ship" style="stroke:#A80036;stroke-width:1.5;" width="161" x="200" y="201.5"/><ellipse cx="263.75" cy="217.5" fill="#ADD1B2" rx="11" ry="11" style="stroke:#A80036;stroke-width:1.0;"/><path d="M265.75,214 Q265.9531,213.5 266.1875,213.25 Q266.4219,213 266.6875,213 Q267.1563,213 267.4531,213.2813 Q267.75,213.5625 267.75,214.2188 L267.75,215.7813 Q267.75,216.4375 267.4688,216.7188 Q267.1875,217 266.75,217 Q266.3594,217 266.1094,216.8281 Q265.8594,216.6563 265.75,216.2031 Q265.7031,215.8906 265.5313,215.7188 Q265.2188,215.3906 264.6563,215.2031 Q264.0938,215 263.5313,215 Q262.8281,215 262.2344,215.2813 Q261.6563,215.5625 261.2031,216.1875 Q260.75,216.8125 260.75,217.6719 L260.75,218.5938 Q260.75,219.625 261.5938,220.3125 Q262.4375,221 263.9375,221 Q264.8281,221 265.4531,220.7969 Q265.8125,220.6875 266.2188,220.3281 Q266.4844,220.125 266.625,220.0625 Q266.7656,220 266.9375,220 Q267.2656,220 267.5,220.2656 Q267.75,220.5156 267.75,220.875 Q267.75,221.2188 267.4063,221.625 Q266.9063,222.2188 266.1094,222.5469 Q265.0625,223 263.7813,223 Q262.2813,223 261.0781,222.4063 Q260.1094,221.9375 259.4219,220.9219 Q258.75,219.9063 258.75,218.7031 L258.75,217.6094 Q258.75,216.3594 259.3438,215.2656 Q259.9531,214.1719 261,213.5938 Q262.0625,213 263.25,213 Q263.9688,213 264.5938,213.25 Q265.2188,213.5 265.75,214 Z " fill="#000000"/><text fill="#000000" font-family="sans-serif" font-size="12" lengthAdjust="spacing" textLength="25" x="284.25" y="222.4102">Ship</text><line style="stroke:#A80036;stroke-width:1.5;" x1="201" x2="360" y1="233.5" y2="233.5"/><text fill="#000000" font-family="sans-serif" font-size="11" lengthAdjust="spacing" textLength="29" x="206" y="248.9189">-MMSI</text><text fill="#000000" font-family="sans-serif" font-size="11" lengthAdjust="spacing" textLength="31" x="206" y="262.7549">-Name</text><text fill="#000000" font-family="sans-serif" font-size="11" lengthAdjust="spacing" textLength="22" x="206" y="276.5908">-IMO</text><text fill="#000000" font-family="sans-serif" font-size="11" lengthAdjust="spacing" textLength="149" x="206" y="290.4268">-Number of Energy Generators</text><text fill="#000000" font-family="sans-serif" font-size="11" lengthAdjust="spacing" textLength="131" x="206" y="304.2627">-Generators' Power Output</text><text fill="#000000" font-family="sans-serif" font-size="11" lengthAdjust="spacing" textLength="44" x="206" y="318.0986">-Call sign</text><text fill="#000000" font-family="sans-serif" font-size="11" lengthAdjust="spacing" textLength="62" x="206" y="331.9346">-Vessel type</text><text fill="#000000" font-family="sans-serif" font-size="11" lengthAdjust="spacing" textLength="37" x="206" y="345.7705">-Length</text><text fill="#000000" font-family="sans-serif" font-size="11" lengthAdjust="spacing" textLength="31" x="206" y="359.6064">-Width</text><text fill="#000000" font-family="sans-serif" font-size="11" lengthAdjust="spacing" textLength="46" x="206" y="373.4424">-Capacity</text><text fill="#000000" font-family="sans-serif" font-size="11" lengthAdjust="spacing" textLength="28" x="206" y="387.2783">-Draft</text><text fill="#000000" font-family="sans-serif" font-size="11" lengthAdjust="spacing" textLength="69" x="206" y="401.1143">-FleetManager</text><text fill="#000000" font-family="sans-serif" font-size="11" lengthAdjust="spacing" textLength="61" x="206" y="414.9502">-ShipCaptain</text><text fill="#000000" font-family="sans-serif" font-size="11" lengthAdjust="spacing" textLength="135" x="206" y="428.7861">-ShipChiefElectricalEngineer</text><line style="stroke:#A80036;stroke-width:1.5;" x1="201" x2="360" y1="435.2031" y2="435.2031"/><!--MD5=[5fd98a8c03cc0e5a408f548eb1c0ace8]
link Company to Port--><path codeLine="40" d="M92.24,182.99 C134.94,160.99 200.69,127.11 241.85,105.9 " fill="none" id="Company-Port" style="stroke:#A80036;stroke-width:1.0;"/><polygon fill="#000000" points="131.4447,134.3856,122.058,135.9161,124.7504,141.1411,131.4447,134.3856" style="stroke:#000000;stroke-width:1.0;"/><text fill="#000000" font-family="sans-serif" font-size="13" lengthAdjust="spacing" textLength="33" x="136" y="141.9951">Owns</text><text fill="#000000" font-family="sans-serif" font-size="13" lengthAdjust="spacing" textLength="7" x="99.8985" y="194.2902">1</text><text fill="#000000" font-family="sans-serif" font-size="13" lengthAdjust="spacing" textLength="20" x="214.0964" y="123.8149">1..*</text><!--MD5=[37a14a5de6d6fd738aee271300f4b5c8]
link Company to Ship--><path codeLine="41" d="M92.24,226.01 C122.17,241.43 163.42,262.69 199.59,281.33 " fill="none" id="Company-Ship" style="stroke:#A80036;stroke-width:1.0;"/><polygon fill="#000000" points="131.4446,236.9662,124.7505,230.2104,122.058,235.4353,131.4446,236.9662" style="stroke:#000000;stroke-width:1.0;"/><text fill="#000000" font-family="sans-serif" font-size="13" lengthAdjust="spacing" textLength="33" x="136" y="239.9951">Owns</text><text fill="#000000" font-family="sans-serif" font-size="13" lengthAdjust="spacing" textLength="7" x="99.8985" y="244.4354">1</text><text fill="#000000" font-family="sans-serif" font-size="13" lengthAdjust="spacing" textLength="20" x="172.0615" y="292.1051">1..*</text><!--MD5=[d9b42a133311e1ec160f0292da8cb1b4]
@startuml
'https://plantuml.com/class-diagram

skinparam classAttributeIconSize 0

left to right direction

class Company {
-Designation
}

class Port {
-Identification
-Name
-Continent
-Country
-Latitude
-longitude
-PortMagager
-PortStaff
}

class Ship {
-MMSI
-Name
-IMO
-Number of Energy Generators
-Generators' Power Output
-Call sign
-Vessel type
-Length
-Width
-Capacity
-Draft
-FleetManager
-ShipCaptain
-ShipChiefElectricalEngineer
}


Company "1" - - "1..*" Port : Owns >
Company "1" - - "1..*" Ship : Owns >

@enduml

@startuml

skinparam classAttributeIconSize 0

left to right direction

class Company {
-Designation
}

class Port {
-Identification
-Name
-Continent
-Country
-Latitude
-longitude
-PortMagager
-PortStaff
}

class Ship {
-MMSI
-Name
-IMO
-Number of Energy Generators
-Generators' Power Output
-Call sign
-Vessel type
-Length
-Width
-Capacity
-Draft
-FleetManager
-ShipCaptain
-ShipChiefElectricalEngineer
}


Company "1" - - "1..*" Port : Owns >
Company "1" - - "1..*" Ship : Owns >

@enduml

PlantUML version 1.2021.00(Sun Jan 10 10:25:05 GMT 2021)
(GPL source distribution)
Java Runtime: OpenJDK Runtime Environment
JVM: OpenJDK 64-Bit Server VM
Default Encoding: Cp1252
Language: en
Country: GB
--></g></svg>