<?xml version="1.0" encoding="UTF-8" standalone="no"?><svg xmlns="http://www.w3.org/2000/svg" xmlns:xlink="http://www.w3.org/1999/xlink" contentScriptType="application/ecmascript" contentStyleType="text/css" height="354px" preserveAspectRatio="none" style="width:550px;height:354px;" version="1.1" viewBox="0 0 550 354" width="550px" zoomAndPan="magnify"><defs><filter height="300%" id="flp54ynyd4uib" width="300%" x="-1" y="-1"><feGaussianBlur result="blurOut" stdDeviation="2.0"/><feColorMatrix in="blurOut" result="blurOut2" type="matrix" values="0 0 0 0 0 0 0 0 0 0 0 0 0 0 0 0 0 0 .4 0"/><feOffset dx="4.0" dy="4.0" in="blurOut2" result="blurOut3"/><feBlend in="SourceGraphic" in2="blurOut3" mode="normal"/></filter></defs><g><!--MD5=[132a5588bb17b739ac33c133f97ecc3c]
class CrewUI--><rect codeLine="3" fill="#FEFECE" filter="url(#flp54ynyd4uib)" height="61.8359" id="CrewUI" style="stroke:#A80036;stroke-width:1.5;" width="73" x="235" y="279"/><ellipse cx="250" cy="295" fill="#ADD1B2" rx="11" ry="11" style="stroke:#A80036;stroke-width:1.0;"/><path d="M252,291.5 Q252.2031,291 252.4375,290.75 Q252.6719,290.5 252.9375,290.5 Q253.4063,290.5 253.7031,290.7813 Q254,291.0625 254,291.7188 L254,293.2813 Q254,293.9375 253.7188,294.2188 Q253.4375,294.5 253,294.5 Q252.6094,294.5 252.3594,294.3281 Q252.1094,294.1563 252,293.7031 Q251.9531,293.3906 251.7813,293.2188 Q251.4688,292.8906 250.9063,292.7031 Q250.3438,292.5 249.7813,292.5 Q249.0781,292.5 248.4844,292.7813 Q247.9063,293.0625 247.4531,293.6875 Q247,294.3125 247,295.1719 L247,296.0938 Q247,297.125 247.8438,297.8125 Q248.6875,298.5 250.1875,298.5 Q251.0781,298.5 251.7031,298.2969 Q252.0625,298.1875 252.4688,297.8281 Q252.7344,297.625 252.875,297.5625 Q253.0156,297.5 253.1875,297.5 Q253.5156,297.5 253.75,297.7656 Q254,298.0156 254,298.375 Q254,298.7188 253.6563,299.125 Q253.1563,299.7188 252.3594,300.0469 Q251.3125,300.5 250.0313,300.5 Q248.5313,300.5 247.3281,299.9063 Q246.3594,299.4375 245.6719,298.4219 Q245,297.4063 245,296.2031 L245,295.1094 Q245,293.8594 245.5938,292.7656 Q246.2031,291.6719 247.25,291.0938 Q248.3125,290.5 249.5,290.5 Q250.2188,290.5 250.8438,290.75 Q251.4688,291 252,291.5 Z " fill="#000000"/><text fill="#000000" font-family="sans-serif" font-size="12" lengthAdjust="spacing" textLength="41" x="264" y="299.9102">CrewUI</text><line style="stroke:#A80036;stroke-width:1.5;" x1="236" x2="307" y1="311" y2="311"/><rect fill="none" height="6" style="stroke:#C82930;stroke-width:1.0;" width="6" x="243" y="319"/><text fill="#000000" font-family="sans-serif" font-size="11" lengthAdjust="spacing" textLength="45" x="255" y="326.4189">controller</text><line style="stroke:#A80036;stroke-width:1.5;" x1="236" x2="307" y1="332.8359" y2="332.8359"/><!--MD5=[36957846d310438da168abf0c1dbfadb]
class CrewController--><rect codeLine="7" fill="#FEFECE" filter="url(#flp54ynyd4uib)" height="61.8359" id="CrewController" style="stroke:#A80036;stroke-width:1.5;" width="163" x="190" y="157"/><ellipse cx="226.6" cy="173" fill="#ADD1B2" rx="11" ry="11" style="stroke:#A80036;stroke-width:1.0;"/><path d="M228.6,169.5 Q228.8031,169 229.0375,168.75 Q229.2719,168.5 229.5375,168.5 Q230.0063,168.5 230.3031,168.7813 Q230.6,169.0625 230.6,169.7188 L230.6,171.2813 Q230.6,171.9375 230.3188,172.2188 Q230.0375,172.5 229.6,172.5 Q229.2094,172.5 228.9594,172.3281 Q228.7094,172.1563 228.6,171.7031 Q228.5531,171.3906 228.3813,171.2188 Q228.0688,170.8906 227.5063,170.7031 Q226.9438,170.5 226.3813,170.5 Q225.6781,170.5 225.0844,170.7813 Q224.5063,171.0625 224.0531,171.6875 Q223.6,172.3125 223.6,173.1719 L223.6,174.0938 Q223.6,175.125 224.4438,175.8125 Q225.2875,176.5 226.7875,176.5 Q227.6781,176.5 228.3031,176.2969 Q228.6625,176.1875 229.0688,175.8281 Q229.3344,175.625 229.475,175.5625 Q229.6156,175.5 229.7875,175.5 Q230.1156,175.5 230.35,175.7656 Q230.6,176.0156 230.6,176.375 Q230.6,176.7188 230.2563,177.125 Q229.7563,177.7188 228.9594,178.0469 Q227.9125,178.5 226.6313,178.5 Q225.1313,178.5 223.9281,177.9063 Q222.9594,177.4375 222.2719,176.4219 Q221.6,175.4063 221.6,174.2031 L221.6,173.1094 Q221.6,171.8594 222.1938,170.7656 Q222.8031,169.6719 223.85,169.0938 Q224.9125,168.5 226.1,168.5 Q226.8188,168.5 227.4438,168.75 Q228.0688,169 228.6,169.5 Z " fill="#000000"/><text fill="#000000" font-family="sans-serif" font-size="12" lengthAdjust="spacing" textLength="83" x="245.4" y="177.9102">CrewController</text><line style="stroke:#A80036;stroke-width:1.5;" x1="191" x2="352" y1="189" y2="189"/><line style="stroke:#A80036;stroke-width:1.5;" x1="191" x2="352" y1="197" y2="197"/><ellipse cx="201" cy="208" fill="#84BE84" rx="3" ry="3" style="stroke:#038048;stroke-width:1.0;"/><text fill="#000000" font-family="sans-serif" font-size="11" lengthAdjust="spacing" textLength="137" x="210" y="212.4189">getContainersOfShip(shipID)</text><!--MD5=[25c9184b3670462bf1e9d78536605227]
class DatabaseFunctions--><rect codeLine="11" fill="#FEFECE" filter="url(#flp54ynyd4uib)" height="89.5078" id="DatabaseFunctions" style="stroke:#A80036;stroke-width:1.5;" width="529" x="7" y="7"/><ellipse cx="213.25" cy="23" fill="#ADD1B2" rx="11" ry="11" style="stroke:#A80036;stroke-width:1.0;"/><path d="M215.25,19.5 Q215.4531,19 215.6875,18.75 Q215.9219,18.5 216.1875,18.5 Q216.6563,18.5 216.9531,18.7813 Q217.25,19.0625 217.25,19.7188 L217.25,21.2813 Q217.25,21.9375 216.9688,22.2188 Q216.6875,22.5 216.25,22.5 Q215.8594,22.5 215.6094,22.3281 Q215.3594,22.1563 215.25,21.7031 Q215.2031,21.3906 215.0313,21.2188 Q214.7188,20.8906 214.1563,20.7031 Q213.5938,20.5 213.0313,20.5 Q212.3281,20.5 211.7344,20.7813 Q211.1563,21.0625 210.7031,21.6875 Q210.25,22.3125 210.25,23.1719 L210.25,24.0938 Q210.25,25.125 211.0938,25.8125 Q211.9375,26.5 213.4375,26.5 Q214.3281,26.5 214.9531,26.2969 Q215.3125,26.1875 215.7188,25.8281 Q215.9844,25.625 216.125,25.5625 Q216.2656,25.5 216.4375,25.5 Q216.7656,25.5 217,25.7656 Q217.25,26.0156 217.25,26.375 Q217.25,26.7188 216.9063,27.125 Q216.4063,27.7188 215.6094,28.0469 Q214.5625,28.5 213.2813,28.5 Q211.7813,28.5 210.5781,27.9063 Q209.6094,27.4375 208.9219,26.4219 Q208.25,25.4063 208.25,24.2031 L208.25,23.1094 Q208.25,21.8594 208.8438,20.7656 Q209.4531,19.6719 210.5,19.0938 Q211.5625,18.5 212.75,18.5 Q213.4688,18.5 214.0938,18.75 Q214.7188,19 215.25,19.5 Z " fill="#000000"/><text fill="#000000" font-family="sans-serif" font-size="12" lengthAdjust="spacing" textLength="108" x="233.75" y="27.9102">DatabaseFunctions</text><line style="stroke:#A80036;stroke-width:1.5;" x1="8" x2="535" y1="39" y2="39"/><line style="stroke:#A80036;stroke-width:1.5;" x1="8" x2="535" y1="47" y2="47"/><ellipse cx="18" cy="58" fill="#84BE84" rx="3" ry="3" style="stroke:#038048;stroke-width:1.0;"/><text fill="#000000" font-family="sans-serif" font-size="11" lengthAdjust="spacing" textLength="242" x="27" y="62.4189">getContainersOfShip(databaseConnection, shipID)</text><rect fill="#F24D5C" height="6" style="stroke:#C82930;stroke-width:1.0;" width="6" x="15" y="68.8359"/><text fill="#000000" font-family="sans-serif" font-size="11" lengthAdjust="spacing" textLength="109" x="27" y="76.2549">loadFunction(filename)</text><rect fill="#F24D5C" height="6" style="stroke:#C82930;stroke-width:1.0;" width="6" x="15" y="82.6719"/><text fill="#000000" font-family="sans-serif" font-size="11" lengthAdjust="spacing" textLength="503" x="27" y="90.0908">getResultSetFromSysRefCursor(databaseConnection, function, columnsForTable) throws SQLException</text><!--MD5=[eb6e8c8d0f5acbf69690dba39018fe58]
reverse link CrewController to CrewUI--><path codeLine="18" d="M271.5,224.52 C271.5,241.75 271.5,262.24 271.5,278.73 " fill="none" id="CrewController-backto-CrewUI" style="stroke:#A80036;stroke-width:1.0;stroke-dasharray:7.0,7.0;"/><polygon fill="#A80036" points="271.5,219.28,267.5,228.28,271.5,224.28,275.5,228.28,271.5,219.28" style="stroke:#A80036;stroke-width:1.0;"/><!--MD5=[4187c64b8bc5fed8f0aef4c843d4e865]
reverse link DatabaseFunctions to CrewController--><path codeLine="19" d="M271.5,102.34 C271.5,120.58 271.5,140.71 271.5,156.76 " fill="none" id="DatabaseFunctions-backto-CrewController" style="stroke:#A80036;stroke-width:1.0;stroke-dasharray:7.0,7.0;"/><polygon fill="#A80036" points="271.5,97.25,267.5,106.25,271.5,102.25,275.5,106.25,271.5,97.25" style="stroke:#A80036;stroke-width:1.0;"/><!--MD5=[eefa825e9aeead3ca51965b6728eb285]
@startuml
'https://plantuml.com/class-diagram

class CrewUI {
- controller
}

class CrewController {
+ getContainersOfShip(shipID)
}

class DatabaseFunctions {
+ getContainersOfShip(databaseConnection, shipID)
- loadFunction(filename)
- getResultSetFromSysRefCursor(databaseConnection, function, columnsForTable) throws SQLException
}


CrewController <.. CrewUI
DatabaseFunctions <.. CrewController

@enduml

@startuml

class CrewUI {
- controller
}

class CrewController {
+ getContainersOfShip(shipID)
}

class DatabaseFunctions {
+ getContainersOfShip(databaseConnection, shipID)
- loadFunction(filename)
- getResultSetFromSysRefCursor(databaseConnection, function, columnsForTable) throws SQLException
}


CrewController <.. CrewUI
DatabaseFunctions <.. CrewController

@enduml

PlantUML version 1.2021.00(Sun Jan 10 10:25:05 GMT 2021)
(GPL source distribution)
Java Runtime: OpenJDK Runtime Environment
JVM: OpenJDK 64-Bit Server VM
Default Encoding: Cp1252
Language: pt
Country: PT
--></g></svg>