<?xml version="1.0" encoding="UTF-8" standalone="no"?><svg xmlns="http://www.w3.org/2000/svg" xmlns:xlink="http://www.w3.org/1999/xlink" contentScriptType="application/ecmascript" contentStyleType="text/css" height="165px" preserveAspectRatio="none" style="width:170px;height:165px;" version="1.1" viewBox="0 0 170 165" width="170px" zoomAndPan="magnify"><defs><filter height="300%" id="fu4eu4jhoazod" width="300%" x="-1" y="-1"><feGaussianBlur result="blurOut" stdDeviation="2.0"/><feColorMatrix in="blurOut" result="blurOut2" type="matrix" values="0 0 0 0 0 0 0 0 0 0 0 0 0 0 0 0 0 0 .4 0"/><feOffset dx="4.0" dy="4.0" in="blurOut2" result="blurOut3"/><feBlend in="SourceGraphic" in2="blurOut3" mode="normal"/></filter></defs><g><!--MD5=[0baaf300b4e708ac3e376d44e9cdca27]
class Cargo_Manifest--><rect codeLine="3" fill="#FEFECE" filter="url(#fu4eu4jhoazod)" height="144.8516" id="Cargo_Manifest" style="stroke:#A80036;stroke-width:1.5;" width="149" x="7" y="7"/><ellipse cx="35.5" cy="23" fill="#ADD1B2" rx="11" ry="11" style="stroke:#A80036;stroke-width:1.0;"/><path d="M34,24 L34,26 L38,26 L38,25 L38,24.5156 L38.625,24 L39,24 L39.375,24 L40,24.5156 L40,25 L40,28 L32,28 L31.5156,28 L31,27.375 L31,27 L31,26.625 L31.5156,26 L32,26 L32,26 L32,20 L32,20 L31.5156,20 L31,19.375 L31,19 L31,18.625 L31.5156,18 L32,18 L40,18 L40,21 L40,21.4844 L39.375,22 L39,22 L38.625,22 L38,21.4844 L38,21 L38,20 L34,20 L34,22 L35,22 L35,21.5156 L35,21.5156 L35.625,21 L36,21 L36.375,21 L37,21.5156 L37,22 L37,24 L37,24.4844 L36.375,25 L36.375,25 L36,25 L35.625,25 L35,24.4844 L35,24.4844 L35,24 L34,24 Z " fill="#000000"/><text fill="#000000" font-family="sans-serif" font-size="12" lengthAdjust="spacing" textLength="87" x="52.5" y="27.9102">Cargo_Manifest</text><line style="stroke:#A80036;stroke-width:1.5;" x1="8" x2="155" y1="39" y2="39"/><ellipse cx="18" cy="50" fill="#000000" rx="3" ry="3" style="stroke:#000000;stroke-width:1.0;"/><text fill="#000000" font-family="sans-serif" font-size="11" lengthAdjust="spacing" textLength="89" x="27" y="54.4189">id_cargo_manifest</text><ellipse cx="18" cy="63.8359" fill="#000000" rx="3" ry="3" style="stroke:#000000;stroke-width:1.0;"/><text fill="#000000" font-family="sans-serif" font-size="11" lengthAdjust="spacing" textLength="59" x="27" y="68.2549">id_container</text><line style="stroke:#A80036;stroke-width:1.0;" x1="8" x2="155" y1="74.6719" y2="74.6719"/><ellipse cx="18" cy="85.6719" fill="#000000" rx="3" ry="3" style="stroke:#000000;stroke-width:1.0;"/><text fill="#000000" font-family="sans-serif" font-size="11" lengthAdjust="spacing" textLength="29" x="27" y="90.0908">id_trip</text><ellipse cx="18" cy="99.5078" fill="#000000" rx="3" ry="3" style="stroke:#000000;stroke-width:1.0;"/><text fill="#000000" font-family="sans-serif" font-size="11" lengthAdjust="spacing" textLength="67" x="27" y="103.9268">position_code</text><ellipse cx="18" cy="113.3438" fill="#000000" rx="3" ry="3" style="stroke:#000000;stroke-width:1.0;"/><text fill="#000000" font-family="sans-serif" font-size="11" lengthAdjust="spacing" textLength="67" x="27" y="117.7627">cargo_weight</text><ellipse cx="18" cy="127.1797" fill="#000000" rx="3" ry="3" style="stroke:#000000;stroke-width:1.0;"/><text fill="#000000" font-family="sans-serif" font-size="11" lengthAdjust="spacing" textLength="123" x="27" y="131.5986">refrigeration_temperature</text><ellipse cx="18" cy="141.0156" fill="#000000" rx="3" ry="3" style="stroke:#000000;stroke-width:1.0;"/><text fill="#000000" font-family="sans-serif" font-size="11" lengthAdjust="spacing" textLength="39" x="27" y="145.4346">id_client</text><!--MD5=[c4ff255e37272d3162b3873569a91ad6]
@startuml
'https://plantuml.com/class-diagram

entity Cargo_Manifest {
* id_cargo_manifest
* id_container
- -
* id_trip
* position_code
* cargo_weight
* refrigeration_temperature
* id_client
}


@enduml

@startuml

entity Cargo_Manifest {
* id_cargo_manifest
* id_container
- -
* id_trip
* position_code
* cargo_weight
* refrigeration_temperature
* id_client
}


@enduml

PlantUML version 1.2021.00(Sun Jan 10 10:25:05 GMT 2021)
(GPL source distribution)
Java Runtime: OpenJDK Runtime Environment
JVM: OpenJDK 64-Bit Server VM
Default Encoding: Cp1252
Language: pt
Country: PT
--></g></svg>