<?xml version="1.0" encoding="UTF-8" standalone="no"?><svg xmlns="http://www.w3.org/2000/svg" xmlns:xlink="http://www.w3.org/1999/xlink" contentScriptType="application/ecmascript" contentStyleType="text/css" height="298px" preserveAspectRatio="none" style="width:260px;height:298px;" version="1.1" viewBox="0 0 260 298" width="260px" zoomAndPan="magnify"><defs><filter height="300%" id="f11vm5x3viq5bs" width="300%" x="-1" y="-1"><feGaussianBlur result="blurOut" stdDeviation="2.0"/><feColorMatrix in="blurOut" result="blurOut2" type="matrix" values="0 0 0 0 0 0 0 0 0 0 0 0 0 0 0 0 0 0 .4 0"/><feOffset dx="4.0" dy="4.0" in="blurOut2" result="blurOut3"/><feBlend in="SourceGraphic" in2="blurOut3" mode="normal"/></filter></defs><g><!--MD5=[484f24b4330ed281b9ac654a2d5cf31d]
class ListMovementsAndDistanceController--><rect codeLine="8" fill="#FEFECE" filter="url(#f11vm5x3viq5bs)" height="61.8359" id="ListMovementsAndDistanceController" style="stroke:#A80036;stroke-width:1.5;" width="239" x="7" y="223"/><ellipse cx="22" cy="239" fill="#ADD1B2" rx="11" ry="11" style="stroke:#A80036;stroke-width:1.0;"/><path d="M24,235.5 Q24.2031,235 24.4375,234.75 Q24.6719,234.5 24.9375,234.5 Q25.4063,234.5 25.7031,234.7813 Q26,235.0625 26,235.7188 L26,237.2813 Q26,237.9375 25.7188,238.2188 Q25.4375,238.5 25,238.5 Q24.6094,238.5 24.3594,238.3281 Q24.1094,238.1563 24,237.7031 Q23.9531,237.3906 23.7813,237.2188 Q23.4688,236.8906 22.9063,236.7031 Q22.3438,236.5 21.7813,236.5 Q21.0781,236.5 20.4844,236.7813 Q19.9063,237.0625 19.4531,237.6875 Q19,238.3125 19,239.1719 L19,240.0938 Q19,241.125 19.8438,241.8125 Q20.6875,242.5 22.1875,242.5 Q23.0781,242.5 23.7031,242.2969 Q24.0625,242.1875 24.4688,241.8281 Q24.7344,241.625 24.875,241.5625 Q25.0156,241.5 25.1875,241.5 Q25.5156,241.5 25.75,241.7656 Q26,242.0156 26,242.375 Q26,242.7188 25.6563,243.125 Q25.1563,243.7188 24.3594,244.0469 Q23.3125,244.5 22.0313,244.5 Q20.5313,244.5 19.3281,243.9063 Q18.3594,243.4375 17.6719,242.4219 Q17,241.4063 17,240.2031 L17,239.1094 Q17,237.8594 17.5938,236.7656 Q18.2031,235.6719 19.25,235.0938 Q20.3125,234.5 21.5,234.5 Q22.2188,234.5 22.8438,234.75 Q23.4688,235 24,235.5 Z " fill="#000000"/><text fill="#000000" font-family="sans-serif" font-size="12" lengthAdjust="spacing" textLength="207" x="36" y="243.9102">ListMovementsAndDistanceController</text><line style="stroke:#A80036;stroke-width:1.5;" x1="8" x2="245" y1="255" y2="255"/><rect fill="none" height="6" style="stroke:#C82930;stroke-width:1.0;" width="6" x="15" y="263"/><text fill="#000000" font-family="sans-serif" font-size="11" lengthAdjust="spacing" textLength="158" x="27" y="270.4189">ShipPositionBST shipPositionBST</text><line style="stroke:#A80036;stroke-width:1.5;" x1="8" x2="245" y1="276.8359" y2="276.8359"/><!--MD5=[e20f0e393e33b6317137adc5adb8f6b1]
class ShipPositionBST--><rect codeLine="12" fill="#FEFECE" filter="url(#f11vm5x3viq5bs)" height="48" id="ShipPositionBST" style="stroke:#A80036;stroke-width:1.5;" width="125" x="64" y="115"/><ellipse cx="79" cy="131" fill="#ADD1B2" rx="11" ry="11" style="stroke:#A80036;stroke-width:1.0;"/><path d="M81,127.5 Q81.2031,127 81.4375,126.75 Q81.6719,126.5 81.9375,126.5 Q82.4063,126.5 82.7031,126.7813 Q83,127.0625 83,127.7188 L83,129.2813 Q83,129.9375 82.7188,130.2188 Q82.4375,130.5 82,130.5 Q81.6094,130.5 81.3594,130.3281 Q81.1094,130.1563 81,129.7031 Q80.9531,129.3906 80.7813,129.2188 Q80.4688,128.8906 79.9063,128.7031 Q79.3438,128.5 78.7813,128.5 Q78.0781,128.5 77.4844,128.7813 Q76.9063,129.0625 76.4531,129.6875 Q76,130.3125 76,131.1719 L76,132.0938 Q76,133.125 76.8438,133.8125 Q77.6875,134.5 79.1875,134.5 Q80.0781,134.5 80.7031,134.2969 Q81.0625,134.1875 81.4688,133.8281 Q81.7344,133.625 81.875,133.5625 Q82.0156,133.5 82.1875,133.5 Q82.5156,133.5 82.75,133.7656 Q83,134.0156 83,134.375 Q83,134.7188 82.6563,135.125 Q82.1563,135.7188 81.3594,136.0469 Q80.3125,136.5 79.0313,136.5 Q77.5313,136.5 76.3281,135.9063 Q75.3594,135.4375 74.6719,134.4219 Q74,133.4063 74,132.2031 L74,131.1094 Q74,129.8594 74.5938,128.7656 Q75.2031,127.6719 76.25,127.0938 Q77.3125,126.5 78.5,126.5 Q79.2188,126.5 79.8438,126.75 Q80.4688,127 81,127.5 Z " fill="#000000"/><text fill="#000000" font-family="sans-serif" font-size="12" lengthAdjust="spacing" textLength="93" x="93" y="135.9102">ShipPositionBST</text><line style="stroke:#A80036;stroke-width:1.5;" x1="65" x2="188" y1="147" y2="147"/><line style="stroke:#A80036;stroke-width:1.5;" x1="65" x2="188" y1="155" y2="155"/><!--MD5=[1c0c3765e68dc4575d559b566278b914]
class ShipPosition--><rect codeLine="14" fill="#FEFECE" filter="url(#f11vm5x3viq5bs)" height="48" id="ShipPosition" style="stroke:#A80036;stroke-width:1.5;" width="102" x="75.5" y="7"/><ellipse cx="90.5" cy="23" fill="#ADD1B2" rx="11" ry="11" style="stroke:#A80036;stroke-width:1.0;"/><path d="M92.5,19.5 Q92.7031,19 92.9375,18.75 Q93.1719,18.5 93.4375,18.5 Q93.9063,18.5 94.2031,18.7813 Q94.5,19.0625 94.5,19.7188 L94.5,21.2813 Q94.5,21.9375 94.2188,22.2188 Q93.9375,22.5 93.5,22.5 Q93.1094,22.5 92.8594,22.3281 Q92.6094,22.1563 92.5,21.7031 Q92.4531,21.3906 92.2813,21.2188 Q91.9688,20.8906 91.4063,20.7031 Q90.8438,20.5 90.2813,20.5 Q89.5781,20.5 88.9844,20.7813 Q88.4063,21.0625 87.9531,21.6875 Q87.5,22.3125 87.5,23.1719 L87.5,24.0938 Q87.5,25.125 88.3438,25.8125 Q89.1875,26.5 90.6875,26.5 Q91.5781,26.5 92.2031,26.2969 Q92.5625,26.1875 92.9688,25.8281 Q93.2344,25.625 93.375,25.5625 Q93.5156,25.5 93.6875,25.5 Q94.0156,25.5 94.25,25.7656 Q94.5,26.0156 94.5,26.375 Q94.5,26.7188 94.1563,27.125 Q93.6563,27.7188 92.8594,28.0469 Q91.8125,28.5 90.5313,28.5 Q89.0313,28.5 87.8281,27.9063 Q86.8594,27.4375 86.1719,26.4219 Q85.5,25.4063 85.5,24.2031 L85.5,23.1094 Q85.5,21.8594 86.0938,20.7656 Q86.7031,19.6719 87.75,19.0938 Q88.8125,18.5 90,18.5 Q90.7188,18.5 91.3438,18.75 Q91.9688,19 92.5,19.5 Z " fill="#000000"/><text fill="#000000" font-family="sans-serif" font-size="12" lengthAdjust="spacing" textLength="70" x="104.5" y="27.9102">ShipPosition</text><line style="stroke:#A80036;stroke-width:1.5;" x1="76.5" x2="176.5" y1="39" y2="39"/><line style="stroke:#A80036;stroke-width:1.5;" x1="76.5" x2="176.5" y1="47" y2="47"/><!--MD5=[9c5d7d5c6b2b2f34c26870f6c4fa5d39]
reverse link ShipPositionBST to ListMovementsAndDistanceController--><path codeLine="18" d="M126.5,168.56 C126.5,185.06 126.5,205.8 126.5,222.6 " fill="none" id="ShipPositionBST-backto-ListMovementsAndDistanceController" style="stroke:#A80036;stroke-width:1.0;stroke-dasharray:7.0,7.0;"/><polygon fill="#A80036" points="126.5,163.14,122.5,172.14,126.5,168.14,130.5,172.14,126.5,163.14" style="stroke:#A80036;stroke-width:1.0;"/><!--MD5=[bb6d2402499ef822123f543344b34427]
reverse link ShipPosition to ShipPositionBST--><path codeLine="19" d="M126.5,60.13 C126.5,77.15 126.5,98.6 126.5,114.68 " fill="none" id="ShipPosition-backto-ShipPositionBST" style="stroke:#A80036;stroke-width:1.0;"/><polygon fill="#A80036" points="126.5,55,122.5,64,126.5,60,130.5,64,126.5,55" style="stroke:#A80036;stroke-width:1.0;"/><!--MD5=[8151f0df7ecd96bd8ed94a05475d1807]
@startuml
'https://plantuml.com/class-diagram

/'class ShipMovementsUI {
- ShipMovementsController controller
- ShipMovements details
}'/

class ListMovementsAndDistanceController {
- ShipPositionBST shipPositionBST
}

class ShipPositionBST

class ShipPosition

'ListMovementsAndDistanceController <.. ShipMovementsUI

ShipPositionBST <.. ListMovementsAndDistanceController
ShipPosition <- - ShipPositionBST
'ShipMovements <.. ShipMovementsUI
@enduml

@startuml


class ListMovementsAndDistanceController {
- ShipPositionBST shipPositionBST
}

class ShipPositionBST

class ShipPosition


ShipPositionBST <.. ListMovementsAndDistanceController
ShipPosition <- - ShipPositionBST
@enduml

PlantUML version 1.2021.00(Sun Jan 10 10:25:05 GMT 2021)
(GPL source distribution)
Java Runtime: OpenJDK Runtime Environment
JVM: OpenJDK 64-Bit Server VM
Default Encoding: Cp1252
Language: pt
Country: PT
--></g></svg>