<?xml version="1.0" encoding="UTF-8" standalone="no"?><svg xmlns="http://www.w3.org/2000/svg" xmlns:xlink="http://www.w3.org/1999/xlink" contentScriptType="application/ecmascript" contentStyleType="text/css" height="354px" preserveAspectRatio="none" style="width:550px;height:354px;" version="1.1" viewBox="0 0 550 354" width="550px" zoomAndPan="magnify"><defs><filter height="300%" id="f14kwlt237ios3" width="300%" x="-1" y="-1"><feGaussianBlur result="blurOut" stdDeviation="2.0"/><feColorMatrix in="blurOut" result="blurOut2" type="matrix" values="0 0 0 0 0 0 0 0 0 0 0 0 0 0 0 0 0 0 .4 0"/><feOffset dx="4.0" dy="4.0" in="blurOut2" result="blurOut3"/><feBlend in="SourceGraphic" in2="blurOut3" mode="normal"/></filter></defs><g><!--MD5=[52663280836d62642c3b1ba359d73d97]
class ResourcesOfPortNextWeekUI--><rect codeLine="3" fill="#FEFECE" filter="url(#f14kwlt237ios3)" height="61.8359" id="ResourcesOfPortNextWeekUI" style="stroke:#A80036;stroke-width:1.5;" width="194" x="174.5" y="279"/><ellipse cx="189.5" cy="295" fill="#ADD1B2" rx="11" ry="11" style="stroke:#A80036;stroke-width:1.0;"/><path d="M191.5,291.5 Q191.7031,291 191.9375,290.75 Q192.1719,290.5 192.4375,290.5 Q192.9063,290.5 193.2031,290.7813 Q193.5,291.0625 193.5,291.7188 L193.5,293.2813 Q193.5,293.9375 193.2188,294.2188 Q192.9375,294.5 192.5,294.5 Q192.1094,294.5 191.8594,294.3281 Q191.6094,294.1563 191.5,293.7031 Q191.4531,293.3906 191.2813,293.2188 Q190.9688,292.8906 190.4063,292.7031 Q189.8438,292.5 189.2813,292.5 Q188.5781,292.5 187.9844,292.7813 Q187.4063,293.0625 186.9531,293.6875 Q186.5,294.3125 186.5,295.1719 L186.5,296.0938 Q186.5,297.125 187.3438,297.8125 Q188.1875,298.5 189.6875,298.5 Q190.5781,298.5 191.2031,298.2969 Q191.5625,298.1875 191.9688,297.8281 Q192.2344,297.625 192.375,297.5625 Q192.5156,297.5 192.6875,297.5 Q193.0156,297.5 193.25,297.7656 Q193.5,298.0156 193.5,298.375 Q193.5,298.7188 193.1563,299.125 Q192.6563,299.7188 191.8594,300.0469 Q190.8125,300.5 189.5313,300.5 Q188.0313,300.5 186.8281,299.9063 Q185.8594,299.4375 185.1719,298.4219 Q184.5,297.4063 184.5,296.2031 L184.5,295.1094 Q184.5,293.8594 185.0938,292.7656 Q185.7031,291.6719 186.75,291.0938 Q187.8125,290.5 189,290.5 Q189.7188,290.5 190.3438,290.75 Q190.9688,291 191.5,291.5 Z " fill="#000000"/><text fill="#000000" font-family="sans-serif" font-size="12" lengthAdjust="spacing" textLength="162" x="203.5" y="299.9102">ResourcesOfPortNextWeekUI</text><line style="stroke:#A80036;stroke-width:1.5;" x1="175.5" x2="367.5" y1="311" y2="311"/><rect fill="none" height="6" style="stroke:#C82930;stroke-width:1.0;" width="6" x="182.5" y="319"/><text fill="#000000" font-family="sans-serif" font-size="11" lengthAdjust="spacing" textLength="45" x="194.5" y="326.4189">controller</text><line style="stroke:#A80036;stroke-width:1.5;" x1="175.5" x2="367.5" y1="332.8359" y2="332.8359"/><!--MD5=[c925c8bc69d2e2b06af0da97ba5dd043]
class ResourcesOfPortNextWeekController--><rect codeLine="7" fill="#FEFECE" filter="url(#f14kwlt237ios3)" height="61.8359" id="ResourcesOfPortNextWeekController" style="stroke:#A80036;stroke-width:1.5;" width="236" x="153.5" y="157"/><ellipse cx="168.5" cy="173" fill="#ADD1B2" rx="11" ry="11" style="stroke:#A80036;stroke-width:1.0;"/><path d="M170.5,169.5 Q170.7031,169 170.9375,168.75 Q171.1719,168.5 171.4375,168.5 Q171.9063,168.5 172.2031,168.7813 Q172.5,169.0625 172.5,169.7188 L172.5,171.2813 Q172.5,171.9375 172.2188,172.2188 Q171.9375,172.5 171.5,172.5 Q171.1094,172.5 170.8594,172.3281 Q170.6094,172.1563 170.5,171.7031 Q170.4531,171.3906 170.2813,171.2188 Q169.9688,170.8906 169.4063,170.7031 Q168.8438,170.5 168.2813,170.5 Q167.5781,170.5 166.9844,170.7813 Q166.4063,171.0625 165.9531,171.6875 Q165.5,172.3125 165.5,173.1719 L165.5,174.0938 Q165.5,175.125 166.3438,175.8125 Q167.1875,176.5 168.6875,176.5 Q169.5781,176.5 170.2031,176.2969 Q170.5625,176.1875 170.9688,175.8281 Q171.2344,175.625 171.375,175.5625 Q171.5156,175.5 171.6875,175.5 Q172.0156,175.5 172.25,175.7656 Q172.5,176.0156 172.5,176.375 Q172.5,176.7188 172.1563,177.125 Q171.6563,177.7188 170.8594,178.0469 Q169.8125,178.5 168.5313,178.5 Q167.0313,178.5 165.8281,177.9063 Q164.8594,177.4375 164.1719,176.4219 Q163.5,175.4063 163.5,174.2031 L163.5,173.1094 Q163.5,171.8594 164.0938,170.7656 Q164.7031,169.6719 165.75,169.0938 Q166.8125,168.5 168,168.5 Q168.7188,168.5 169.3438,168.75 Q169.9688,169 170.5,169.5 Z " fill="#000000"/><text fill="#000000" font-family="sans-serif" font-size="12" lengthAdjust="spacing" textLength="204" x="182.5" y="177.9102">ResourcesOfPortNextWeekController</text><line style="stroke:#A80036;stroke-width:1.5;" x1="154.5" x2="388.5" y1="189" y2="189"/><line style="stroke:#A80036;stroke-width:1.5;" x1="154.5" x2="388.5" y1="197" y2="197"/><ellipse cx="164.5" cy="208" fill="#84BE84" rx="3" ry="3" style="stroke:#038048;stroke-width:1.0;"/><text fill="#000000" font-family="sans-serif" font-size="11" lengthAdjust="spacing" textLength="184" x="173.5" y="212.4189">getResourcesOfPortNextWeek(portID)</text><!--MD5=[25c9184b3670462bf1e9d78536605227]
class DatabaseFunctions--><rect codeLine="11" fill="#FEFECE" filter="url(#f14kwlt237ios3)" height="89.5078" id="DatabaseFunctions" style="stroke:#A80036;stroke-width:1.5;" width="529" x="7" y="7"/><ellipse cx="213.25" cy="23" fill="#ADD1B2" rx="11" ry="11" style="stroke:#A80036;stroke-width:1.0;"/><path d="M215.25,19.5 Q215.4531,19 215.6875,18.75 Q215.9219,18.5 216.1875,18.5 Q216.6563,18.5 216.9531,18.7813 Q217.25,19.0625 217.25,19.7188 L217.25,21.2813 Q217.25,21.9375 216.9688,22.2188 Q216.6875,22.5 216.25,22.5 Q215.8594,22.5 215.6094,22.3281 Q215.3594,22.1563 215.25,21.7031 Q215.2031,21.3906 215.0313,21.2188 Q214.7188,20.8906 214.1563,20.7031 Q213.5938,20.5 213.0313,20.5 Q212.3281,20.5 211.7344,20.7813 Q211.1563,21.0625 210.7031,21.6875 Q210.25,22.3125 210.25,23.1719 L210.25,24.0938 Q210.25,25.125 211.0938,25.8125 Q211.9375,26.5 213.4375,26.5 Q214.3281,26.5 214.9531,26.2969 Q215.3125,26.1875 215.7188,25.8281 Q215.9844,25.625 216.125,25.5625 Q216.2656,25.5 216.4375,25.5 Q216.7656,25.5 217,25.7656 Q217.25,26.0156 217.25,26.375 Q217.25,26.7188 216.9063,27.125 Q216.4063,27.7188 215.6094,28.0469 Q214.5625,28.5 213.2813,28.5 Q211.7813,28.5 210.5781,27.9063 Q209.6094,27.4375 208.9219,26.4219 Q208.25,25.4063 208.25,24.2031 L208.25,23.1094 Q208.25,21.8594 208.8438,20.7656 Q209.4531,19.6719 210.5,19.0938 Q211.5625,18.5 212.75,18.5 Q213.4688,18.5 214.0938,18.75 Q214.7188,19 215.25,19.5 Z " fill="#000000"/><text fill="#000000" font-family="sans-serif" font-size="12" lengthAdjust="spacing" textLength="108" x="233.75" y="27.9102">DatabaseFunctions</text><line style="stroke:#A80036;stroke-width:1.5;" x1="8" x2="535" y1="39" y2="39"/><line style="stroke:#A80036;stroke-width:1.5;" x1="8" x2="535" y1="47" y2="47"/><ellipse cx="18" cy="58" fill="#84BE84" rx="3" ry="3" style="stroke:#038048;stroke-width:1.0;"/><text fill="#000000" font-family="sans-serif" font-size="11" lengthAdjust="spacing" textLength="289" x="27" y="62.4189">getResourcesOfPortNextWeek(databaseConnection, portID)</text><rect fill="#F24D5C" height="6" style="stroke:#C82930;stroke-width:1.0;" width="6" x="15" y="68.8359"/><text fill="#000000" font-family="sans-serif" font-size="11" lengthAdjust="spacing" textLength="109" x="27" y="76.2549">loadFunction(filename)</text><rect fill="#F24D5C" height="6" style="stroke:#C82930;stroke-width:1.0;" width="6" x="15" y="82.6719"/><text fill="#000000" font-family="sans-serif" font-size="11" lengthAdjust="spacing" textLength="503" x="27" y="90.0908">getResultSetFromSysRefCursor(databaseConnection, function, columnsForTable) throws SQLException</text><!--MD5=[dc02afc74aaaf650ac7f4f17696656a9]
reverse link ResourcesOfPortNextWeekController to ResourcesOfPortNextWeekUI--><path codeLine="19" d="M271.5,224.52 C271.5,241.75 271.5,262.24 271.5,278.73 " fill="none" id="ResourcesOfPortNextWeekController-backto-ResourcesOfPortNextWeekUI" style="stroke:#A80036;stroke-width:1.0;stroke-dasharray:7.0,7.0;"/><polygon fill="#A80036" points="271.5,219.28,267.5,228.28,271.5,224.28,275.5,228.28,271.5,219.28" style="stroke:#A80036;stroke-width:1.0;"/><!--MD5=[45df7a6cbe06ce6215e49ac1a26954b0]
reverse link DatabaseFunctions to ResourcesOfPortNextWeekController--><path codeLine="20" d="M271.5,102.34 C271.5,120.58 271.5,140.71 271.5,156.76 " fill="none" id="DatabaseFunctions-backto-ResourcesOfPortNextWeekController" style="stroke:#A80036;stroke-width:1.0;stroke-dasharray:7.0,7.0;"/><polygon fill="#A80036" points="271.5,97.25,267.5,106.25,271.5,102.25,275.5,106.25,271.5,97.25" style="stroke:#A80036;stroke-width:1.0;"/><!--MD5=[cb1deb27d928af4d557393af5bf702f8]
@startuml
'https://plantuml.com/class-diagram

class ResourcesOfPortNextWeekUI {
- controller
}

class ResourcesOfPortNextWeekController {
+ getResourcesOfPortNextWeek(portID)
}

class DatabaseFunctions {
+ getResourcesOfPortNextWeek(databaseConnection, portID)
- loadFunction(filename)
- getResultSetFromSysRefCursor(databaseConnection, function, columnsForTable) throws SQLException
}



ResourcesOfPortNextWeekController <.. ResourcesOfPortNextWeekUI
DatabaseFunctions <.. ResourcesOfPortNextWeekController

@enduml

@startuml

class ResourcesOfPortNextWeekUI {
- controller
}

class ResourcesOfPortNextWeekController {
+ getResourcesOfPortNextWeek(portID)
}

class DatabaseFunctions {
+ getResourcesOfPortNextWeek(databaseConnection, portID)
- loadFunction(filename)
- getResultSetFromSysRefCursor(databaseConnection, function, columnsForTable) throws SQLException
}



ResourcesOfPortNextWeekController <.. ResourcesOfPortNextWeekUI
DatabaseFunctions <.. ResourcesOfPortNextWeekController

@enduml

PlantUML version 1.2021.00(Sun Jan 10 10:25:05 GMT 2021)
(GPL source distribution)
Java Runtime: OpenJDK Runtime Environment
JVM: OpenJDK 64-Bit Server VM
Default Encoding: Cp1252
Language: pt
Country: PT
--></g></svg>