<?xml version="1.0" encoding="UTF-8" standalone="no"?><svg xmlns="http://www.w3.org/2000/svg" xmlns:xlink="http://www.w3.org/1999/xlink" contentScriptType="application/ecmascript" contentStyleType="text/css" height="470px" preserveAspectRatio="none" style="width:1659px;height:470px;" version="1.1" viewBox="0 0 1659 470" width="1659px" zoomAndPan="magnify"><defs><filter height="300%" id="fk1bm2s4smxhw" width="300%" x="-1" y="-1"><feGaussianBlur result="blurOut" stdDeviation="2.0"/><feColorMatrix in="blurOut" result="blurOut2" type="matrix" values="0 0 0 0 0 0 0 0 0 0 0 0 0 0 0 0 0 0 .4 0"/><feOffset dx="4.0" dy="4.0" in="blurOut2" result="blurOut3"/><feBlend in="SourceGraphic" in2="blurOut3" mode="normal"/></filter></defs><g><rect fill="#FFFFFF" filter="url(#fk1bm2s4smxhw)" height="266.8125" style="stroke:#A80036;stroke-width:1.0;" width="10" x="46" y="99.6094"/><rect fill="#FFFFFF" filter="url(#fk1bm2s4smxhw)" height="30.3516" style="stroke:#A80036;stroke-width:1.0;" width="10" x="395" y="121.9609"/><rect fill="#FFFFFF" filter="url(#fk1bm2s4smxhw)" height="183.7578" style="stroke:#A80036;stroke-width:1.0;" width="10" x="395" y="182.6641"/><rect fill="#FFFFFF" filter="url(#fk1bm2s4smxhw)" height="153.4063" style="stroke:#A80036;stroke-width:1.0;" width="10" x="655" y="213.0156"/><rect fill="#FFFFFF" filter="url(#fk1bm2s4smxhw)" height="123.0547" style="stroke:#A80036;stroke-width:1.0;" width="10" x="963" y="243.3672"/><rect fill="#FFFFFF" filter="url(#fk1bm2s4smxhw)" height="30" style="stroke:#A80036;stroke-width:1.0;" width="10" x="1597" y="299.0703"/><rect fill="#FFFFFF" filter="url(#fk1bm2s4smxhw)" height="78.7031" style="stroke:#000000;stroke-width:2.0;" width="760" x="885.5" y="258.3672"/><line style="stroke:#A80036;stroke-width:1.0;stroke-dasharray:5.0,5.0;" x1="51" x2="51" y1="89.6094" y2="384.4219"/><line style="stroke:#A80036;stroke-width:1.0;stroke-dasharray:5.0,5.0;" x1="400" x2="400" y1="89.6094" y2="384.4219"/><line style="stroke:#A80036;stroke-width:1.0;stroke-dasharray:5.0,5.0;" x1="660" x2="660" y1="89.6094" y2="384.4219"/><line style="stroke:#A80036;stroke-width:1.0;stroke-dasharray:5.0,5.0;" x1="967.5" x2="967.5" y1="89.6094" y2="384.4219"/><line style="stroke:#A80036;stroke-width:1.0;stroke-dasharray:5.0,5.0;" x1="1601.5" x2="1601.5" y1="89.6094" y2="384.4219"/><text fill="#000000" font-family="sans-serif" font-size="14" lengthAdjust="spacing" textLength="86" x="5" y="86.5332">Port Manager</text><ellipse cx="51" cy="15" fill="#FEFECE" filter="url(#fk1bm2s4smxhw)" rx="8" ry="8" style="stroke:#A80036;stroke-width:2.0;"/><path d="M51,23 L51,50 M38,31 L64,31 M51,50 L38,65 M51,50 L64,65 " fill="none" filter="url(#fk1bm2s4smxhw)" style="stroke:#A80036;stroke-width:2.0;"/><text fill="#000000" font-family="sans-serif" font-size="14" lengthAdjust="spacing" textLength="86" x="5" y="397.9551">Port Manager</text><ellipse cx="51" cy="411.0313" fill="#FEFECE" filter="url(#fk1bm2s4smxhw)" rx="8" ry="8" style="stroke:#A80036;stroke-width:2.0;"/><path d="M51,419.0313 L51,446.0313 M38,427.0313 L64,427.0313 M51,446.0313 L38,461.0313 M51,446.0313 L64,461.0313 " fill="none" filter="url(#fk1bm2s4smxhw)" style="stroke:#A80036;stroke-width:2.0;"/><rect fill="#FEFECE" filter="url(#fk1bm2s4smxhw)" height="31.6094" style="stroke:#A80036;stroke-width:1.5;" width="202" x="297" y="53"/><text fill="#000000" font-family="sans-serif" font-size="14" lengthAdjust="spacing" textLength="188" x="304" y="74.5332">:ResourcesOfPortNextWeekUI</text><rect fill="#FEFECE" filter="url(#fk1bm2s4smxhw)" height="31.6094" style="stroke:#A80036;stroke-width:1.5;" width="202" x="297" y="383.4219"/><text fill="#000000" font-family="sans-serif" font-size="14" lengthAdjust="spacing" textLength="188" x="304" y="404.9551">:ResourcesOfPortNextWeekUI</text><rect fill="#FEFECE" filter="url(#fk1bm2s4smxhw)" height="31.6094" style="stroke:#A80036;stroke-width:1.5;" width="252" x="532" y="53"/><text fill="#000000" font-family="sans-serif" font-size="14" lengthAdjust="spacing" textLength="238" x="539" y="74.5332">:ResourcesOfPortNextWeekController</text><rect fill="#FEFECE" filter="url(#fk1bm2s4smxhw)" height="31.6094" style="stroke:#A80036;stroke-width:1.5;" width="252" x="532" y="383.4219"/><text fill="#000000" font-family="sans-serif" font-size="14" lengthAdjust="spacing" textLength="238" x="539" y="404.9551">:ResourcesOfPortNextWeekController</text><rect fill="#FEFECE" filter="url(#fk1bm2s4smxhw)" height="31.6094" style="stroke:#A80036;stroke-width:1.5;" width="141" x="895.5" y="53"/><text fill="#000000" font-family="sans-serif" font-size="14" lengthAdjust="spacing" textLength="127" x="902.5" y="74.5332">:DatabaseFunctions</text><rect fill="#FEFECE" filter="url(#fk1bm2s4smxhw)" height="31.6094" style="stroke:#A80036;stroke-width:1.5;" width="141" x="895.5" y="383.4219"/><text fill="#000000" font-family="sans-serif" font-size="14" lengthAdjust="spacing" textLength="127" x="902.5" y="404.9551">:DatabaseFunctions</text><text fill="#000000" font-family="sans-serif" font-size="14" lengthAdjust="spacing" textLength="61" x="1568.5" y="86.5332">Database</text><path d="M1584,36 C1584,26 1602,26 1602,26 C1602,26 1620,26 1620,36 L1620,62 C1620,72 1602,72 1602,72 C1602,72 1584,72 1584,62 L1584,36 " fill="#FEFECE" filter="url(#fk1bm2s4smxhw)" style="stroke:#000000;stroke-width:1.5;"/><path d="M1584,36 C1584,46 1602,46 1602,46 C1602,46 1620,46 1620,36 " fill="none" style="stroke:#000000;stroke-width:1.5;"/><text fill="#000000" font-family="sans-serif" font-size="14" lengthAdjust="spacing" textLength="61" x="1568.5" y="397.9551">Database</text><path d="M1584,411.0313 C1584,401.0313 1602,401.0313 1602,401.0313 C1602,401.0313 1620,401.0313 1620,411.0313 L1620,437.0313 C1620,447.0313 1602,447.0313 1602,447.0313 C1602,447.0313 1584,447.0313 1584,437.0313 L1584,411.0313 " fill="#FEFECE" filter="url(#fk1bm2s4smxhw)" style="stroke:#000000;stroke-width:1.5;"/><path d="M1584,411.0313 C1584,421.0313 1602,421.0313 1602,421.0313 C1602,421.0313 1620,421.0313 1620,411.0313 " fill="none" style="stroke:#000000;stroke-width:1.5;"/><rect fill="#FFFFFF" filter="url(#fk1bm2s4smxhw)" height="266.8125" style="stroke:#A80036;stroke-width:1.0;" width="10" x="46" y="99.6094"/><rect fill="#FFFFFF" filter="url(#fk1bm2s4smxhw)" height="30.3516" style="stroke:#A80036;stroke-width:1.0;" width="10" x="395" y="121.9609"/><rect fill="#FFFFFF" filter="url(#fk1bm2s4smxhw)" height="183.7578" style="stroke:#A80036;stroke-width:1.0;" width="10" x="395" y="182.6641"/><rect fill="#FFFFFF" filter="url(#fk1bm2s4smxhw)" height="153.4063" style="stroke:#A80036;stroke-width:1.0;" width="10" x="655" y="213.0156"/><rect fill="#FFFFFF" filter="url(#fk1bm2s4smxhw)" height="123.0547" style="stroke:#A80036;stroke-width:1.0;" width="10" x="963" y="243.3672"/><rect fill="#FFFFFF" filter="url(#fk1bm2s4smxhw)" height="30" style="stroke:#A80036;stroke-width:1.0;" width="10" x="1597" y="299.0703"/><polygon fill="#A80036" points="383,117.9609,393,121.9609,383,125.9609,387,121.9609" style="stroke:#A80036;stroke-width:1.0;"/><line style="stroke:#A80036;stroke-width:1.0;" x1="56" x2="389" y1="121.9609" y2="121.9609"/><text fill="#000000" font-family="sans-serif" font-size="13" font-weight="bold" lengthAdjust="spacing" textLength="7" x="63" y="117.1045">1</text><text fill="#000000" font-family="sans-serif" font-size="13" lengthAdjust="spacing" textLength="309" x="74" y="117.1045">Asks for the loading and unloading map for next week</text><polygon fill="#A80036" points="67,148.3125,57,152.3125,67,156.3125,63,152.3125" style="stroke:#A80036;stroke-width:1.0;"/><line style="stroke:#A80036;stroke-width:1.0;stroke-dasharray:2.0,2.0;" x1="61" x2="399" y1="152.3125" y2="152.3125"/><text fill="#000000" font-family="sans-serif" font-size="13" font-weight="bold" lengthAdjust="spacing" textLength="7" x="73" y="147.4561">2</text><text fill="#000000" font-family="sans-serif" font-size="13" lengthAdjust="spacing" textLength="125" x="84" y="147.4561">requests data (portID)</text><polygon fill="#A80036" points="383,178.6641,393,182.6641,383,186.6641,387,182.6641" style="stroke:#A80036;stroke-width:1.0;"/><line style="stroke:#A80036;stroke-width:1.0;" x1="56" x2="389" y1="182.6641" y2="182.6641"/><text fill="#000000" font-family="sans-serif" font-size="13" font-weight="bold" lengthAdjust="spacing" textLength="7" x="63" y="177.8076">3</text><text fill="#000000" font-family="sans-serif" font-size="13" lengthAdjust="spacing" textLength="122" x="74" y="177.8076">types requested data</text><polygon fill="#A80036" points="643,209.0156,653,213.0156,643,217.0156,647,213.0156" style="stroke:#A80036;stroke-width:1.0;"/><line style="stroke:#A80036;stroke-width:1.0;" x1="405" x2="649" y1="213.0156" y2="213.0156"/><text fill="#000000" font-family="sans-serif" font-size="13" font-weight="bold" lengthAdjust="spacing" textLength="7" x="412" y="208.1592">4</text><text fill="#000000" font-family="sans-serif" font-size="13" lengthAdjust="spacing" textLength="220" x="423" y="208.1592">getResourcesOfPortNextWeek(portID)</text><polygon fill="#A80036" points="951,239.3672,961,243.3672,951,247.3672,955,243.3672" style="stroke:#A80036;stroke-width:1.0;"/><line style="stroke:#A80036;stroke-width:1.0;" x1="665" x2="957" y1="243.3672" y2="243.3672"/><text fill="#000000" font-family="sans-serif" font-size="13" font-weight="bold" lengthAdjust="spacing" textLength="7" x="672" y="238.5107">5</text><text fill="#000000" font-family="sans-serif" font-size="13" lengthAdjust="spacing" textLength="268" x="683" y="238.5107">result = getResourcesOfPortNextWeek(portID)</text><path d="M885.5,258.3672 L958.5,258.3672 L958.5,266.3672 L948.5,276.3672 L885.5,276.3672 L885.5,258.3672 " fill="#EEEEEE" style="stroke:#000000;stroke-width:1.0;"/><rect fill="none" height="78.7031" style="stroke:#000000;stroke-width:2.0;" width="760" x="885.5" y="258.3672"/><text fill="#000000" font-family="sans-serif" font-size="13" font-weight="bold" lengthAdjust="spacing" textLength="28" x="900.5" y="272.8623">loop</text><text fill="#000000" font-family="sans-serif" font-size="11" font-weight="bold" lengthAdjust="spacing" textLength="521" x="973.5" y="271.7861">[while Unloading and Loading Cargo Manifest do not have line which dates the following week]</text><polygon fill="#A80036" points="1585,295.0703,1595,299.0703,1585,303.0703,1589,299.0703" style="stroke:#A80036;stroke-width:1.0;"/><line style="stroke:#A80036;stroke-width:1.0;stroke-dasharray:2.0,2.0;" x1="973" x2="1591" y1="299.0703" y2="299.0703"/><text fill="#000000" font-family="sans-serif" font-size="13" font-weight="bold" lengthAdjust="spacing" textLength="7" x="980" y="294.2139">6</text><text fill="#000000" font-family="sans-serif" font-size="13" lengthAdjust="spacing" textLength="594" x="991" y="294.2139">list.add(date, vehicle, containerID, containerPosition, refrigerationTemperature, cargo, tare, dimensions)</text><polygon fill="#A80036" points="62,362.4219,52,366.4219,62,370.4219,58,366.4219" style="stroke:#A80036;stroke-width:1.0;"/><line style="stroke:#A80036;stroke-width:1.0;stroke-dasharray:2.0,2.0;" x1="56" x2="399" y1="366.4219" y2="366.4219"/><text fill="#000000" font-family="sans-serif" font-size="13" font-weight="bold" lengthAdjust="spacing" textLength="7" x="68" y="361.5654">7</text><text fill="#000000" font-family="sans-serif" font-size="13" lengthAdjust="spacing" textLength="170" x="79" y="361.5654">shows a list with all th details</text><!--MD5=[d27a606dede899fdcc16d264fd2fecee]
@startuml
'https://plantuml.com/class-diagram

autonumber

actor "Port Manager" as PM

participant ":ResourcesOfPortNextWeekUI" as UI
participant ":ResourcesOfPortNextWeekController" as CTRL
participant ":DatabaseFunctions" as DBF
Database Database as DB

activate PM
PM -> UI : Asks for the loading and unloading map for next week

activate UI
UI - -> PM : requests data (portID)
deactivate UI

PM -> UI : types requested data
activate UI



UI -> CTRL : getResourcesOfPortNextWeek(portID)

activate CTRL

CTRL -> DBF : result = getResourcesOfPortNextWeek(portID)
activate DBF

loop while Unloading and Loading Cargo Manifest do not have line which dates the following week

    DBF - -> DB : list.add(date, vehicle, containerID, containerPosition, refrigerationTemperature, cargo, tare, dimensions)
    activate DB
    deactivate DB
end

"UI" - -> PM : shows a list with all th details

deactivate DBF
deactivate CTRL
deactivate UI
deactivate PM

@enduml

@startuml

autonumber

actor "Port Manager" as PM

participant ":ResourcesOfPortNextWeekUI" as UI
participant ":ResourcesOfPortNextWeekController" as CTRL
participant ":DatabaseFunctions" as DBF
Database Database as DB

activate PM
PM -> UI : Asks for the loading and unloading map for next week

activate UI
UI - -> PM : requests data (portID)
deactivate UI

PM -> UI : types requested data
activate UI



UI -> CTRL : getResourcesOfPortNextWeek(portID)

activate CTRL

CTRL -> DBF : result = getResourcesOfPortNextWeek(portID)
activate DBF

loop while Unloading and Loading Cargo Manifest do not have line which dates the following week

    DBF - -> DB : list.add(date, vehicle, containerID, containerPosition, refrigerationTemperature, cargo, tare, dimensions)
    activate DB
    deactivate DB
end

"UI" - -> PM : shows a list with all th details

deactivate DBF
deactivate CTRL
deactivate UI
deactivate PM

@enduml

PlantUML version 1.2021.00(Sun Jan 10 10:25:05 GMT 2021)
(GPL source distribution)
Java Runtime: OpenJDK Runtime Environment
JVM: OpenJDK 64-Bit Server VM
Default Encoding: Cp1252
Language: pt
Country: PT
--></g></svg>