<?xml version="1.0" encoding="UTF-8" standalone="no"?><svg xmlns="http://www.w3.org/2000/svg" xmlns:xlink="http://www.w3.org/1999/xlink" contentScriptType="application/ecmascript" contentStyleType="text/css" height="398px" preserveAspectRatio="none" style="width:599px;height:398px;" version="1.1" viewBox="0 0 599 398" width="599px" zoomAndPan="magnify"><defs><filter height="300%" id="fl5lzy86xy1pw" width="300%" x="-1" y="-1"><feGaussianBlur result="blurOut" stdDeviation="2.0"/><feColorMatrix in="blurOut" result="blurOut2" type="matrix" values="0 0 0 0 0 0 0 0 0 0 0 0 0 0 0 0 0 0 .4 0"/><feOffset dx="4.0" dy="4.0" in="blurOut2" result="blurOut3"/><feBlend in="SourceGraphic" in2="blurOut3" mode="normal"/></filter></defs><g><!--MD5=[18f5b4ccae6e62f3670d3aa352beb4cd]
class Trip--><rect codeLine="3" fill="#FEFECE" filter="url(#fl5lzy86xy1pw)" height="172.5234" id="Trip" style="stroke:#A80036;stroke-width:1.5;" width="154" x="7" y="7"/><ellipse cx="69.25" cy="23" fill="#ADD1B2" rx="11" ry="11" style="stroke:#A80036;stroke-width:1.0;"/><path d="M67.75,24 L67.75,26 L71.75,26 L71.75,25 L71.75,24.5156 L72.375,24 L72.75,24 L73.125,24 L73.75,24.5156 L73.75,25 L73.75,28 L65.75,28 L65.2656,28 L64.75,27.375 L64.75,27 L64.75,26.625 L65.2656,26 L65.75,26 L65.75,26 L65.75,20 L65.75,20 L65.2656,20 L64.75,19.375 L64.75,19 L64.75,18.625 L65.2656,18 L65.75,18 L73.75,18 L73.75,21 L73.75,21.4844 L73.125,22 L72.75,22 L72.375,22 L71.75,21.4844 L71.75,21 L71.75,20 L67.75,20 L67.75,22 L68.75,22 L68.75,21.5156 L68.75,21.5156 L69.375,21 L69.75,21 L70.125,21 L70.75,21.5156 L70.75,22 L70.75,24 L70.75,24.4844 L70.125,25 L70.125,25 L69.75,25 L69.375,25 L68.75,24.4844 L68.75,24.4844 L68.75,24 L67.75,24 Z " fill="#000000"/><text fill="#000000" font-family="sans-serif" font-size="12" lengthAdjust="spacing" textLength="21" x="89.75" y="27.9102">Trip</text><line style="stroke:#A80036;stroke-width:1.5;" x1="8" x2="160" y1="39" y2="39"/><ellipse cx="18" cy="50" fill="#000000" rx="3" ry="3" style="stroke:#000000;stroke-width:1.0;"/><text fill="#000000" font-family="sans-serif" font-size="11" lengthAdjust="spacing" textLength="29" x="27" y="54.4189">id_trip</text><line style="stroke:#A80036;stroke-width:1.0;" x1="8" x2="160" y1="60.8359" y2="60.8359"/><ellipse cx="18" cy="71.8359" fill="#000000" rx="3" ry="3" style="stroke:#000000;stroke-width:1.0;"/><text fill="#000000" font-family="sans-serif" font-size="11" lengthAdjust="spacing" textLength="42" x="27" y="76.2549">ship_imo</text><ellipse cx="18" cy="85.6719" fill="#000000" rx="3" ry="3" style="stroke:#000000;stroke-width:1.0;"/><text fill="#000000" font-family="sans-serif" font-size="11" lengthAdjust="spacing" textLength="38" x="27" y="90.0908">id_truck</text><ellipse cx="18" cy="99.5078" fill="#000000" rx="3" ry="3" style="stroke:#000000;stroke-width:1.0;"/><text fill="#000000" font-family="sans-serif" font-size="11" lengthAdjust="spacing" textLength="61" x="27" y="103.9268">id_start_port</text><ellipse cx="18" cy="113.3438" fill="#000000" rx="3" ry="3" style="stroke:#000000;stroke-width:1.0;"/><text fill="#000000" font-family="sans-serif" font-size="11" lengthAdjust="spacing" textLength="91" x="27" y="117.7627">id_destination_port</text><ellipse cx="18" cy="127.1797" fill="#000000" rx="3" ry="3" style="stroke:#000000;stroke-width:1.0;"/><text fill="#000000" font-family="sans-serif" font-size="11" lengthAdjust="spacing" textLength="98" x="27" y="131.5986">id_start_warehouse</text><ellipse cx="18" cy="141.0156" fill="#000000" rx="3" ry="3" style="stroke:#000000;stroke-width:1.0;"/><text fill="#000000" font-family="sans-serif" font-size="11" lengthAdjust="spacing" textLength="128" x="27" y="145.4346">id_destination_warehouse</text><ellipse cx="18" cy="154.8516" fill="#000000" rx="3" ry="3" style="stroke:#000000;stroke-width:1.0;"/><text fill="#000000" font-family="sans-serif" font-size="11" lengthAdjust="spacing" textLength="74" x="27" y="159.2705">date_time_start</text><ellipse cx="18" cy="168.6875" fill="#000000" rx="3" ry="3" style="stroke:#000000;stroke-width:1.0;"/><text fill="#000000" font-family="sans-serif" font-size="11" lengthAdjust="spacing" textLength="70" x="27" y="173.1064">date_time_end</text><!--MD5=[0baaf300b4e708ac3e376d44e9cdca27]
class Cargo_Manifest--><rect codeLine="16" fill="#FEFECE" filter="url(#fl5lzy86xy1pw)" height="144.8516" id="Cargo_Manifest" style="stroke:#A80036;stroke-width:1.5;" width="149" x="213.5" y="240"/><ellipse cx="242" cy="256" fill="#ADD1B2" rx="11" ry="11" style="stroke:#A80036;stroke-width:1.0;"/><path d="M240.5,257 L240.5,259 L244.5,259 L244.5,258 L244.5,257.5156 L245.125,257 L245.5,257 L245.875,257 L246.5,257.5156 L246.5,258 L246.5,261 L238.5,261 L238.0156,261 L237.5,260.375 L237.5,260 L237.5,259.625 L238.0156,259 L238.5,259 L238.5,259 L238.5,253 L238.5,253 L238.0156,253 L237.5,252.375 L237.5,252 L237.5,251.625 L238.0156,251 L238.5,251 L246.5,251 L246.5,254 L246.5,254.4844 L245.875,255 L245.5,255 L245.125,255 L244.5,254.4844 L244.5,254 L244.5,253 L240.5,253 L240.5,255 L241.5,255 L241.5,254.5156 L241.5,254.5156 L242.125,254 L242.5,254 L242.875,254 L243.5,254.5156 L243.5,255 L243.5,257 L243.5,257.4844 L242.875,258 L242.875,258 L242.5,258 L242.125,258 L241.5,257.4844 L241.5,257.4844 L241.5,257 L240.5,257 Z " fill="#000000"/><text fill="#000000" font-family="sans-serif" font-size="12" lengthAdjust="spacing" textLength="87" x="259" y="260.9102">Cargo_Manifest</text><line style="stroke:#A80036;stroke-width:1.5;" x1="214.5" x2="361.5" y1="272" y2="272"/><ellipse cx="224.5" cy="283" fill="#000000" rx="3" ry="3" style="stroke:#000000;stroke-width:1.0;"/><text fill="#000000" font-family="sans-serif" font-size="11" lengthAdjust="spacing" textLength="89" x="233.5" y="287.4189">id_cargo_manifest</text><ellipse cx="224.5" cy="296.8359" fill="#000000" rx="3" ry="3" style="stroke:#000000;stroke-width:1.0;"/><text fill="#000000" font-family="sans-serif" font-size="11" lengthAdjust="spacing" textLength="59" x="233.5" y="301.2549">id_container</text><line style="stroke:#A80036;stroke-width:1.0;" x1="214.5" x2="361.5" y1="307.6719" y2="307.6719"/><ellipse cx="224.5" cy="318.6719" fill="#000000" rx="3" ry="3" style="stroke:#000000;stroke-width:1.0;"/><text fill="#000000" font-family="sans-serif" font-size="11" lengthAdjust="spacing" textLength="29" x="233.5" y="323.0908">id_trip</text><ellipse cx="224.5" cy="332.5078" fill="#000000" rx="3" ry="3" style="stroke:#000000;stroke-width:1.0;"/><text fill="#000000" font-family="sans-serif" font-size="11" lengthAdjust="spacing" textLength="67" x="233.5" y="336.9268">position_code</text><ellipse cx="224.5" cy="346.3438" fill="#000000" rx="3" ry="3" style="stroke:#000000;stroke-width:1.0;"/><text fill="#000000" font-family="sans-serif" font-size="11" lengthAdjust="spacing" textLength="67" x="233.5" y="350.7627">cargo_weight</text><ellipse cx="224.5" cy="360.1797" fill="#000000" rx="3" ry="3" style="stroke:#000000;stroke-width:1.0;"/><text fill="#000000" font-family="sans-serif" font-size="11" lengthAdjust="spacing" textLength="123" x="233.5" y="364.5986">refrigeration_temperature</text><ellipse cx="224.5" cy="374.0156" fill="#000000" rx="3" ry="3" style="stroke:#000000;stroke-width:1.0;"/><text fill="#000000" font-family="sans-serif" font-size="11" lengthAdjust="spacing" textLength="39" x="233.5" y="378.4346">id_client</text><!--MD5=[c87cdd7066bf5f5827105ec40546944b]
class Unloading_Cargo_Manifest--><rect codeLine="27" fill="#FEFECE" filter="url(#fl5lzy86xy1pw)" height="89.5078" id="Unloading_Cargo_Manifest" style="stroke:#A80036;stroke-width:1.5;" width="183" x="196.5" y="48.5"/><ellipse cx="211.5" cy="64.5" fill="#ADD1B2" rx="11" ry="11" style="stroke:#A80036;stroke-width:1.0;"/><path d="M210,65.5 L210,67.5 L214,67.5 L214,66.5 L214,66.0156 L214.625,65.5 L215,65.5 L215.375,65.5 L216,66.0156 L216,66.5 L216,69.5 L208,69.5 L207.5156,69.5 L207,68.875 L207,68.5 L207,68.125 L207.5156,67.5 L208,67.5 L208,67.5 L208,61.5 L208,61.5 L207.5156,61.5 L207,60.875 L207,60.5 L207,60.125 L207.5156,59.5 L208,59.5 L216,59.5 L216,62.5 L216,62.9844 L215.375,63.5 L215,63.5 L214.625,63.5 L214,62.9844 L214,62.5 L214,61.5 L210,61.5 L210,63.5 L211,63.5 L211,63.0156 L211,63.0156 L211.625,62.5 L212,62.5 L212.375,62.5 L213,63.0156 L213,63.5 L213,65.5 L213,65.9844 L212.375,66.5 L212.375,66.5 L212,66.5 L211.625,66.5 L211,65.9844 L211,65.9844 L211,65.5 L210,65.5 Z " fill="#000000"/><text fill="#000000" font-family="sans-serif" font-size="12" lengthAdjust="spacing" textLength="151" x="225.5" y="69.4102">Unloading_Cargo_Manifest</text><line style="stroke:#A80036;stroke-width:1.5;" x1="197.5" x2="378.5" y1="80.5" y2="80.5"/><ellipse cx="207.5" cy="91.5" fill="#000000" rx="3" ry="3" style="stroke:#000000;stroke-width:1.0;"/><text fill="#000000" font-family="sans-serif" font-size="11" lengthAdjust="spacing" textLength="89" x="216.5" y="95.9189">id_cargo_manifest</text><ellipse cx="207.5" cy="105.3359" fill="#000000" rx="3" ry="3" style="stroke:#000000;stroke-width:1.0;"/><text fill="#000000" font-family="sans-serif" font-size="11" lengthAdjust="spacing" textLength="59" x="216.5" y="109.7549">id_container</text><line style="stroke:#A80036;stroke-width:1.0;" x1="197.5" x2="378.5" y1="116.1719" y2="116.1719"/><ellipse cx="207.5" cy="127.1719" fill="#000000" rx="3" ry="3" style="stroke:#000000;stroke-width:1.0;"/><text fill="#000000" font-family="sans-serif" font-size="11" lengthAdjust="spacing" textLength="70" x="216.5" y="131.5908">id_warehouse</text><!--MD5=[1a4baa1459d0a3ed497c73ee42d7e12c]
class Loading_Cargo_Manifest--><rect codeLine="34" fill="#FEFECE" filter="url(#fl5lzy86xy1pw)" height="89.5078" id="Loading_Cargo_Manifest" style="stroke:#A80036;stroke-width:1.5;" width="171" x="414.5" y="48.5"/><ellipse cx="429.5" cy="64.5" fill="#ADD1B2" rx="11" ry="11" style="stroke:#A80036;stroke-width:1.0;"/><path d="M428,65.5 L428,67.5 L432,67.5 L432,66.5 L432,66.0156 L432.625,65.5 L433,65.5 L433.375,65.5 L434,66.0156 L434,66.5 L434,69.5 L426,69.5 L425.5156,69.5 L425,68.875 L425,68.5 L425,68.125 L425.5156,67.5 L426,67.5 L426,67.5 L426,61.5 L426,61.5 L425.5156,61.5 L425,60.875 L425,60.5 L425,60.125 L425.5156,59.5 L426,59.5 L434,59.5 L434,62.5 L434,62.9844 L433.375,63.5 L433,63.5 L432.625,63.5 L432,62.9844 L432,62.5 L432,61.5 L428,61.5 L428,63.5 L429,63.5 L429,63.0156 L429,63.0156 L429.625,62.5 L430,62.5 L430.375,62.5 L431,63.0156 L431,63.5 L431,65.5 L431,65.9844 L430.375,66.5 L430.375,66.5 L430,66.5 L429.625,66.5 L429,65.9844 L429,65.9844 L429,65.5 L428,65.5 Z " fill="#000000"/><text fill="#000000" font-family="sans-serif" font-size="12" lengthAdjust="spacing" textLength="139" x="443.5" y="69.4102">Loading_Cargo_Manifest</text><line style="stroke:#A80036;stroke-width:1.5;" x1="415.5" x2="584.5" y1="80.5" y2="80.5"/><ellipse cx="425.5" cy="91.5" fill="#000000" rx="3" ry="3" style="stroke:#000000;stroke-width:1.0;"/><text fill="#000000" font-family="sans-serif" font-size="11" lengthAdjust="spacing" textLength="89" x="434.5" y="95.9189">id_cargo_manifest</text><ellipse cx="425.5" cy="105.3359" fill="#000000" rx="3" ry="3" style="stroke:#000000;stroke-width:1.0;"/><text fill="#000000" font-family="sans-serif" font-size="11" lengthAdjust="spacing" textLength="59" x="434.5" y="109.7549">id_container</text><line style="stroke:#A80036;stroke-width:1.0;" x1="415.5" x2="584.5" y1="116.1719" y2="116.1719"/><ellipse cx="425.5" cy="127.1719" fill="#000000" rx="3" ry="3" style="stroke:#000000;stroke-width:1.0;"/><text fill="#000000" font-family="sans-serif" font-size="11" lengthAdjust="spacing" textLength="70" x="434.5" y="131.5908">id_warehouse</text><!--MD5=[8ed59fe7f91556deede29c24c368e010]
link Trip to Cargo_Manifest--><path codeLine="41" d="M166.18,181.92 C182.52,199.3 199.56,217.42 215.54,234.42 " fill="none" id="Trip-Cargo_Manifest" style="stroke:#A80036;stroke-width:1.0;"/><line style="stroke:#A80036;stroke-width:1.0;" x1="220.6313" x2="214.8057" y1="234.0057" y2="239.4887"/><line style="stroke:#A80036;stroke-width:1.0;" x1="218.5752" x2="212.7496" y1="231.8211" y2="237.3041"/><line style="stroke:#A80036;stroke-width:1.0;" x1="214.9771" x2="220.46" y1="233.8344" y2="239.66"/><line style="stroke:#A80036;stroke-width:1.0;" x1="160.9487" x2="166.7743" y1="182.1943" y2="176.7113"/><line style="stroke:#A80036;stroke-width:1.0;" x1="163.0048" x2="168.8304" y1="184.3789" y2="178.8959"/><line style="stroke:#A80036;stroke-width:1.0;" x1="166.6029" x2="161.12" y1="182.3656" y2="176.54"/><!--MD5=[7308f0a1f9b83f8e20d3211bad28e447]
link Unloading_Cargo_Manifest to Cargo_Manifest--><path codeLine="43" d="M288,146 C288,171.78 288,203.57 288,232.37 " fill="none" id="Unloading_Cargo_Manifest-Cargo_Manifest" style="stroke:#A80036;stroke-width:1.0;"/><line style="stroke:#A80036;stroke-width:1.0;" x1="292" x2="284" y1="235.62" y2="235.62"/><line style="stroke:#A80036;stroke-width:1.0;" x1="292" x2="284" y1="232.62" y2="232.62"/><line style="stroke:#A80036;stroke-width:1.0;" x1="288" x2="288" y1="231.62" y2="239.62"/><line style="stroke:#A80036;stroke-width:1.0;" x1="284" x2="292" y1="142.67" y2="142.67"/><line style="stroke:#A80036;stroke-width:1.0;" x1="284" x2="292" y1="145.67" y2="145.67"/><line style="stroke:#A80036;stroke-width:1.0;" x1="288" x2="288" y1="146.67" y2="138.67"/><!--MD5=[d95af3791b019011a2feaf6ac4852158]
link Loading_Cargo_Manifest to Cargo_Manifest--><path codeLine="44" d="M451.77,143.87 C425.63,170.63 392.73,204.3 363.29,234.43 " fill="none" id="Loading_Cargo_Manifest-Cargo_Manifest" style="stroke:#A80036;stroke-width:1.0;"/><line style="stroke:#A80036;stroke-width:1.0;" x1="363.8765" x2="358.1548" y1="239.5548" y2="233.9635"/><line style="stroke:#A80036;stroke-width:1.0;" x1="365.9732" x2="360.2515" y1="237.4092" y2="231.8179"/><line style="stroke:#A80036;stroke-width:1.0;" x1="363.8113" x2="358.22" y1="233.8983" y2="239.62"/><line style="stroke:#A80036;stroke-width:1.0;" x1="451.1835" x2="456.9054" y1="138.7354" y2="144.3265"/><line style="stroke:#A80036;stroke-width:1.0;" x1="449.0869" x2="454.8087" y1="140.8811" y2="146.4722"/><line style="stroke:#A80036;stroke-width:1.0;" x1="451.2489" x2="456.84" y1="144.3919" y2="138.67"/><!--MD5=[3ebacab8c0468ba602633d7f971be102]
@startuml
'https://plantuml.com/class-diagram

entity Trip {
* id_trip
- -
* ship_imo
* id_truck
* id_start_port
* id_destination_port
* id_start_warehouse
* id_destination_warehouse
* date_time_start
* date_time_end
}

entity Cargo_Manifest {
* id_cargo_manifest
* id_container
- -
* id_trip
* position_code
* cargo_weight
* refrigeration_temperature
* id_client
}

entity Unloading_Cargo_Manifest {
* id_cargo_manifest
* id_container
- -
* id_warehouse
}

entity Loading_Cargo_Manifest {
* id_cargo_manifest
* id_container
- -
* id_warehouse
}

Trip ||- -|| Cargo_Manifest

Unloading_Cargo_Manifest ||- -|| Cargo_Manifest
Loading_Cargo_Manifest ||- -|| Cargo_Manifest

@enduml

@startuml

entity Trip {
* id_trip
- -
* ship_imo
* id_truck
* id_start_port
* id_destination_port
* id_start_warehouse
* id_destination_warehouse
* date_time_start
* date_time_end
}

entity Cargo_Manifest {
* id_cargo_manifest
* id_container
- -
* id_trip
* position_code
* cargo_weight
* refrigeration_temperature
* id_client
}

entity Unloading_Cargo_Manifest {
* id_cargo_manifest
* id_container
- -
* id_warehouse
}

entity Loading_Cargo_Manifest {
* id_cargo_manifest
* id_container
- -
* id_warehouse
}

Trip ||- -|| Cargo_Manifest

Unloading_Cargo_Manifest ||- -|| Cargo_Manifest
Loading_Cargo_Manifest ||- -|| Cargo_Manifest

@enduml

PlantUML version 1.2021.00(Sun Jan 10 10:25:05 GMT 2021)
(GPL source distribution)
Java Runtime: OpenJDK Runtime Environment
JVM: OpenJDK 64-Bit Server VM
Default Encoding: Cp1252
Language: pt
Country: PT
--></g></svg>