<?xml version="1.0" encoding="UTF-8" standalone="no"?><svg xmlns="http://www.w3.org/2000/svg" xmlns:xlink="http://www.w3.org/1999/xlink" contentScriptType="application/ecmascript" contentStyleType="text/css" height="657px" preserveAspectRatio="none" style="width:1175px;height:657px;" version="1.1" viewBox="0 0 1175 657" width="1175px" zoomAndPan="magnify"><defs><filter height="300%" id="f1td6wq3m0tjkq" width="300%" x="-1" y="-1"><feGaussianBlur result="blurOut" stdDeviation="2.0"/><feColorMatrix in="blurOut" result="blurOut2" type="matrix" values="0 0 0 0 0 0 0 0 0 0 0 0 0 0 0 0 0 0 .4 0"/><feOffset dx="4.0" dy="4.0" in="blurOut2" result="blurOut3"/><feBlend in="SourceGraphic" in2="blurOut3" mode="normal"/></filter></defs><g><rect fill="#FFFFFF" filter="url(#f1td6wq3m0tjkq)" height="454.5703" style="stroke:#A80036;stroke-width:1.0;" width="10" x="53" y="99.6094"/><rect fill="#FFFFFF" filter="url(#f1td6wq3m0tjkq)" height="30.3516" style="stroke:#A80036;stroke-width:1.0;" width="10" x="392" y="121.9609"/><rect fill="#FFFFFF" filter="url(#f1td6wq3m0tjkq)" height="30.3516" style="stroke:#A80036;stroke-width:1.0;" width="10" x="392" y="182.6641"/><rect fill="#FFFFFF" filter="url(#f1td6wq3m0tjkq)" height="310.8125" style="stroke:#A80036;stroke-width:1.0;" width="10" x="392" y="243.3672"/><rect fill="#FFFFFF" filter="url(#f1td6wq3m0tjkq)" height="224.7578" style="stroke:#A80036;stroke-width:1.0;" width="10" x="695" y="299.0703"/><rect fill="#FFFFFF" filter="url(#f1td6wq3m0tjkq)" height="30" style="stroke:#A80036;stroke-width:1.0;" width="10" x="953" y="433.4766"/><rect fill="#FFFFFF" filter="url(#f1td6wq3m0tjkq)" height="30" style="stroke:#A80036;stroke-width:1.0;" width="10" x="1118" y="493.8281"/><rect fill="#FFFFFF" filter="url(#f1td6wq3m0tjkq)" height="145.7578" style="stroke:#000000;stroke-width:2.0;" width="464" x="329" y="258.3672"/><rect fill="#FFFFFF" height="32.3516" style="stroke:none;stroke-width:1.0;" width="464" x="329" y="307.0703"/><rect fill="#FFFFFF" height="32.3516" style="stroke:none;stroke-width:1.0;" width="464" x="329" y="339.4219"/><rect fill="#FFFFFF" height="32.3516" style="stroke:none;stroke-width:1.0;" width="464" x="329" y="371.7734"/><line style="stroke:#A80036;stroke-width:1.0;stroke-dasharray:5.0,5.0;" x1="58" x2="58" y1="89.6094" y2="572.1797"/><line style="stroke:#A80036;stroke-width:1.0;stroke-dasharray:5.0,5.0;" x1="397" x2="397" y1="89.6094" y2="572.1797"/><line style="stroke:#A80036;stroke-width:1.0;stroke-dasharray:5.0,5.0;" x1="700" x2="700" y1="89.6094" y2="572.1797"/><line style="stroke:#A80036;stroke-width:1.0;stroke-dasharray:5.0,5.0;" x1="958" x2="958" y1="89.6094" y2="572.1797"/><line style="stroke:#A80036;stroke-width:1.0;stroke-dasharray:5.0,5.0;" x1="1123" x2="1123" y1="89.6094" y2="572.1797"/><text fill="#000000" font-family="sans-serif" font-size="14" lengthAdjust="spacing" textLength="100" x="5" y="86.5332">Traffic Manager</text><ellipse cx="58" cy="15" fill="#FEFECE" filter="url(#f1td6wq3m0tjkq)" rx="8" ry="8" style="stroke:#A80036;stroke-width:2.0;"/><path d="M58,23 L58,50 M45,31 L71,31 M58,50 L45,65 M58,50 L71,65 " fill="none" filter="url(#f1td6wq3m0tjkq)" style="stroke:#A80036;stroke-width:2.0;"/><text fill="#000000" font-family="sans-serif" font-size="14" lengthAdjust="spacing" textLength="100" x="5" y="585.7129">Traffic Manager</text><ellipse cx="58" cy="598.7891" fill="#FEFECE" filter="url(#f1td6wq3m0tjkq)" rx="8" ry="8" style="stroke:#A80036;stroke-width:2.0;"/><path d="M58,606.7891 L58,633.7891 M45,614.7891 L71,614.7891 M58,633.7891 L45,648.7891 M58,633.7891 L71,648.7891 " fill="none" filter="url(#f1td6wq3m0tjkq)" style="stroke:#A80036;stroke-width:2.0;"/><rect fill="#FEFECE" filter="url(#f1td6wq3m0tjkq)" height="31.6094" style="stroke:#A80036;stroke-width:1.5;" width="112" x="339" y="53"/><text fill="#000000" font-family="sans-serif" font-size="14" lengthAdjust="spacing" textLength="98" x="346" y="74.5332">:ShortestPathUI</text><rect fill="#FEFECE" filter="url(#f1td6wq3m0tjkq)" height="31.6094" style="stroke:#A80036;stroke-width:1.5;" width="112" x="339" y="571.1797"/><text fill="#000000" font-family="sans-serif" font-size="14" lengthAdjust="spacing" textLength="98" x="346" y="592.7129">:ShortestPathUI</text><rect fill="#FEFECE" filter="url(#f1td6wq3m0tjkq)" height="31.6094" style="stroke:#A80036;stroke-width:1.5;" width="162" x="617" y="53"/><text fill="#000000" font-family="sans-serif" font-size="14" lengthAdjust="spacing" textLength="148" x="624" y="74.5332">:ShortestPathController</text><rect fill="#FEFECE" filter="url(#f1td6wq3m0tjkq)" height="31.6094" style="stroke:#A80036;stroke-width:1.5;" width="162" x="617" y="571.1797"/><text fill="#000000" font-family="sans-serif" font-size="14" lengthAdjust="spacing" textLength="148" x="624" y="592.7129">:ShortestPathController</text><rect fill="#FEFECE" filter="url(#f1td6wq3m0tjkq)" height="31.6094" style="stroke:#A80036;stroke-width:1.5;" width="74" x="919" y="53"/><text fill="#000000" font-family="sans-serif" font-size="14" lengthAdjust="spacing" textLength="60" x="926" y="74.5332">Company</text><rect fill="#FEFECE" filter="url(#f1td6wq3m0tjkq)" height="31.6094" style="stroke:#A80036;stroke-width:1.5;" width="74" x="919" y="571.1797"/><text fill="#000000" font-family="sans-serif" font-size="14" lengthAdjust="spacing" textLength="60" x="926" y="592.7129">Company</text><rect fill="#FEFECE" filter="url(#f1td6wq3m0tjkq)" height="31.6094" style="stroke:#A80036;stroke-width:1.5;" width="80" x="1081" y="53"/><text fill="#000000" font-family="sans-serif" font-size="14" lengthAdjust="spacing" textLength="66" x="1088" y="74.5332">Algorithms</text><rect fill="#FEFECE" filter="url(#f1td6wq3m0tjkq)" height="31.6094" style="stroke:#A80036;stroke-width:1.5;" width="80" x="1081" y="571.1797"/><text fill="#000000" font-family="sans-serif" font-size="14" lengthAdjust="spacing" textLength="66" x="1088" y="592.7129">Algorithms</text><rect fill="#FFFFFF" filter="url(#f1td6wq3m0tjkq)" height="454.5703" style="stroke:#A80036;stroke-width:1.0;" width="10" x="53" y="99.6094"/><rect fill="#FFFFFF" filter="url(#f1td6wq3m0tjkq)" height="30.3516" style="stroke:#A80036;stroke-width:1.0;" width="10" x="392" y="121.9609"/><rect fill="#FFFFFF" filter="url(#f1td6wq3m0tjkq)" height="30.3516" style="stroke:#A80036;stroke-width:1.0;" width="10" x="392" y="182.6641"/><rect fill="#FFFFFF" filter="url(#f1td6wq3m0tjkq)" height="310.8125" style="stroke:#A80036;stroke-width:1.0;" width="10" x="392" y="243.3672"/><rect fill="#FFFFFF" filter="url(#f1td6wq3m0tjkq)" height="224.7578" style="stroke:#A80036;stroke-width:1.0;" width="10" x="695" y="299.0703"/><rect fill="#FFFFFF" filter="url(#f1td6wq3m0tjkq)" height="30" style="stroke:#A80036;stroke-width:1.0;" width="10" x="953" y="433.4766"/><rect fill="#FFFFFF" filter="url(#f1td6wq3m0tjkq)" height="30" style="stroke:#A80036;stroke-width:1.0;" width="10" x="1118" y="493.8281"/><polygon fill="#A80036" points="380,117.9609,390,121.9609,380,125.9609,384,121.9609" style="stroke:#A80036;stroke-width:1.0;"/><line style="stroke:#A80036;stroke-width:1.0;" x1="63" x2="386" y1="121.9609" y2="121.9609"/><text fill="#000000" font-family="sans-serif" font-size="13" font-weight="bold" lengthAdjust="spacing" textLength="7" x="70" y="117.1045">1</text><text fill="#000000" font-family="sans-serif" font-size="13" lengthAdjust="spacing" textLength="299" x="81" y="117.1045">Asks to know the shortest path between two places</text><polygon fill="#A80036" points="74,148.3125,64,152.3125,74,156.3125,70,152.3125" style="stroke:#A80036;stroke-width:1.0;"/><line style="stroke:#A80036;stroke-width:1.0;stroke-dasharray:2.0,2.0;" x1="68" x2="396" y1="152.3125" y2="152.3125"/><text fill="#000000" font-family="sans-serif" font-size="13" font-weight="bold" lengthAdjust="spacing" textLength="7" x="80" y="147.4561">2</text><text fill="#000000" font-family="sans-serif" font-size="13" lengthAdjust="spacing" textLength="195" x="91" y="147.4561">asks for the origin and destination</text><polygon fill="#A80036" points="380,178.6641,390,182.6641,380,186.6641,384,182.6641" style="stroke:#A80036;stroke-width:1.0;"/><line style="stroke:#A80036;stroke-width:1.0;" x1="63" x2="386" y1="182.6641" y2="182.6641"/><text fill="#000000" font-family="sans-serif" font-size="13" font-weight="bold" lengthAdjust="spacing" textLength="7" x="70" y="177.8076">3</text><text fill="#000000" font-family="sans-serif" font-size="13" lengthAdjust="spacing" textLength="122" x="81" y="177.8076">types requested data</text><polygon fill="#A80036" points="74,209.0156,64,213.0156,74,217.0156,70,213.0156" style="stroke:#A80036;stroke-width:1.0;"/><line style="stroke:#A80036;stroke-width:1.0;stroke-dasharray:2.0,2.0;" x1="68" x2="396" y1="213.0156" y2="213.0156"/><text fill="#000000" font-family="sans-serif" font-size="13" font-weight="bold" lengthAdjust="spacing" textLength="7" x="80" y="208.1592">4</text><text fill="#000000" font-family="sans-serif" font-size="13" lengthAdjust="spacing" textLength="205" x="91" y="208.1592">asks to select the type of trajectory</text><polygon fill="#A80036" points="380,239.3672,390,243.3672,380,247.3672,384,243.3672" style="stroke:#A80036;stroke-width:1.0;"/><line style="stroke:#A80036;stroke-width:1.0;" x1="63" x2="386" y1="243.3672" y2="243.3672"/><text fill="#000000" font-family="sans-serif" font-size="13" font-weight="bold" lengthAdjust="spacing" textLength="7" x="70" y="238.5107">5</text><text fill="#000000" font-family="sans-serif" font-size="13" lengthAdjust="spacing" textLength="81" x="81" y="238.5107">selects option</text><path d="M329,258.3672 L390,258.3672 L390,266.3672 L380,276.3672 L329,276.3672 L329,258.3672 " fill="#EEEEEE" style="stroke:#000000;stroke-width:1.0;"/><rect fill="none" height="145.7578" style="stroke:#000000;stroke-width:2.0;" width="464" x="329" y="258.3672"/><text fill="#000000" font-family="sans-serif" font-size="13" font-weight="bold" lengthAdjust="spacing" textLength="16" x="344" y="272.8623">alt</text><polygon fill="#A80036" points="683,295.0703,693,299.0703,683,303.0703,687,299.0703" style="stroke:#A80036;stroke-width:1.0;"/><line style="stroke:#A80036;stroke-width:1.0;" x1="402" x2="689" y1="299.0703" y2="299.0703"/><text fill="#000000" font-family="sans-serif" font-size="13" font-weight="bold" lengthAdjust="spacing" textLength="7" x="409" y="294.2139">6</text><text fill="#000000" font-family="sans-serif" font-size="13" lengthAdjust="spacing" textLength="212" x="420" y="294.2139">shortestPathLand(vOrig, vDest, path)</text><line style="stroke:#000000;stroke-width:1.0;stroke-dasharray:2.0,2.0;" x1="329" x2="793" y1="308.0703" y2="308.0703"/><polygon fill="#A80036" points="683,327.4219,693,331.4219,683,335.4219,687,331.4219" style="stroke:#A80036;stroke-width:1.0;"/><line style="stroke:#A80036;stroke-width:1.0;" x1="402" x2="689" y1="331.4219" y2="331.4219"/><text fill="#000000" font-family="sans-serif" font-size="13" font-weight="bold" lengthAdjust="spacing" textLength="7" x="409" y="326.5654">7</text><text fill="#000000" font-family="sans-serif" font-size="13" lengthAdjust="spacing" textLength="207" x="420" y="326.5654">shortestPathSea(vOrig, vDest, path)</text><line style="stroke:#000000;stroke-width:1.0;stroke-dasharray:2.0,2.0;" x1="329" x2="793" y1="340.4219" y2="340.4219"/><polygon fill="#A80036" points="683,359.7734,693,363.7734,683,367.7734,687,363.7734" style="stroke:#A80036;stroke-width:1.0;"/><line style="stroke:#A80036;stroke-width:1.0;" x1="402" x2="689" y1="363.7734" y2="363.7734"/><text fill="#000000" font-family="sans-serif" font-size="13" font-weight="bold" lengthAdjust="spacing" textLength="7" x="409" y="358.917">8</text><text fill="#000000" font-family="sans-serif" font-size="13" lengthAdjust="spacing" textLength="235" x="420" y="358.917">shortestPathLandSea(vOrig, vDest, path)</text><line style="stroke:#000000;stroke-width:1.0;stroke-dasharray:2.0,2.0;" x1="329" x2="793" y1="372.7734" y2="372.7734"/><polygon fill="#A80036" points="683,392.125,693,396.125,683,400.125,687,396.125" style="stroke:#A80036;stroke-width:1.0;"/><line style="stroke:#A80036;stroke-width:1.0;" x1="402" x2="689" y1="396.125" y2="396.125"/><text fill="#000000" font-family="sans-serif" font-size="13" font-weight="bold" lengthAdjust="spacing" textLength="7" x="409" y="391.2686">9</text><text fill="#000000" font-family="sans-serif" font-size="13" lengthAdjust="spacing" textLength="258" x="420" y="391.2686">shortestPathStops(vOrig, vDest, path, stops)</text><polygon fill="#A80036" points="941,429.4766,951,433.4766,941,437.4766,945,433.4766" style="stroke:#A80036;stroke-width:1.0;"/><line style="stroke:#A80036;stroke-width:1.0;" x1="705" x2="947" y1="433.4766" y2="433.4766"/><text fill="#000000" font-family="sans-serif" font-size="13" font-weight="bold" lengthAdjust="spacing" textLength="14" x="712" y="428.6201">10</text><text fill="#000000" font-family="sans-serif" font-size="13" lengthAdjust="spacing" textLength="211" x="730" y="428.6201">freightNetwork = getFreightNetwork()</text><polygon fill="#A80036" points="1106,489.8281,1116,493.8281,1106,497.8281,1110,493.8281" style="stroke:#A80036;stroke-width:1.0;"/><line style="stroke:#A80036;stroke-width:1.0;" x1="705" x2="1112" y1="493.8281" y2="493.8281"/><text fill="#000000" font-family="sans-serif" font-size="13" font-weight="bold" lengthAdjust="spacing" textLength="14" x="712" y="488.9717">11</text><text fill="#000000" font-family="sans-serif" font-size="13" lengthAdjust="spacing" textLength="376" x="730" y="488.9717">shortestPath(vOrig, vDest, Long::compareTo, Long::sum, 0, path)</text><polygon fill="#A80036" points="69,550.1797,59,554.1797,69,558.1797,65,554.1797" style="stroke:#A80036;stroke-width:1.0;"/><line style="stroke:#A80036;stroke-width:1.0;stroke-dasharray:2.0,2.0;" x1="63" x2="396" y1="554.1797" y2="554.1797"/><text fill="#000000" font-family="sans-serif" font-size="13" font-weight="bold" lengthAdjust="spacing" textLength="14" x="75" y="549.3232">12</text><text fill="#000000" font-family="sans-serif" font-size="13" lengthAdjust="spacing" textLength="142" x="93" y="549.3232">returns the shortest path</text><!--MD5=[4e98f99b941e4b4abc0d78ee2f19ffb7]
@startuml
'https://plantuml.com/sequence-diagram

autonumber

actor "Traffic Manager" as TM

participant ":ShortestPathUI" as UI
participant ":ShortestPathController" as CTRL
participant "Company" as C
participant "Algorithms" as ALG

activate TM
TM -> UI : Asks to know the shortest path between two places

activate UI
UI - -> TM : asks for the origin and destination
deactivate UI

TM -> UI : types requested data

activate UI
UI - -> TM : asks to select the type of trajectory
deactivate UI

TM -> UI : selects option

alt
activate UI
UI -> CTRL : shortestPathLand(vOrig, vDest, path)
activate CTRL
else
UI -> CTRL : shortestPathSea(vOrig, vDest, path)
else
UI -> CTRL : shortestPathLandSea(vOrig, vDest, path)
else
UI -> CTRL : shortestPathStops(vOrig, vDest, path, stops)
end

CTRL -> C : freightNetwork = getFreightNetwork()
activate C
deactivate C

CTRL -> ALG : shortestPath(vOrig, vDest, Long::compareTo, Long::sum, 0, path)
activate ALG
deactivate ALG
deactivate CTRL

UI - -> TM : returns the shortest path
deactivate UI
deactivate TM
@enduml

@startuml

autonumber

actor "Traffic Manager" as TM

participant ":ShortestPathUI" as UI
participant ":ShortestPathController" as CTRL
participant "Company" as C
participant "Algorithms" as ALG

activate TM
TM -> UI : Asks to know the shortest path between two places

activate UI
UI - -> TM : asks for the origin and destination
deactivate UI

TM -> UI : types requested data

activate UI
UI - -> TM : asks to select the type of trajectory
deactivate UI

TM -> UI : selects option

alt
activate UI
UI -> CTRL : shortestPathLand(vOrig, vDest, path)
activate CTRL
else
UI -> CTRL : shortestPathSea(vOrig, vDest, path)
else
UI -> CTRL : shortestPathLandSea(vOrig, vDest, path)
else
UI -> CTRL : shortestPathStops(vOrig, vDest, path, stops)
end

CTRL -> C : freightNetwork = getFreightNetwork()
activate C
deactivate C

CTRL -> ALG : shortestPath(vOrig, vDest, Long::compareTo, Long::sum, 0, path)
activate ALG
deactivate ALG
deactivate CTRL

UI - -> TM : returns the shortest path
deactivate UI
deactivate TM
@enduml

PlantUML version 1.2021.00(Sun Jan 10 10:25:05 GMT 2021)
(GPL source distribution)
Java Runtime: OpenJDK Runtime Environment
JVM: OpenJDK 64-Bit Server VM
Default Encoding: Cp1252
Language: pt
Country: PT
--></g></svg>