<?xml version="1.0" encoding="UTF-8" standalone="no"?><svg xmlns="http://www.w3.org/2000/svg" xmlns:xlink="http://www.w3.org/1999/xlink" contentScriptType="application/ecmascript" contentStyleType="text/css" height="96px" preserveAspectRatio="none" style="width:172px;height:96px;" version="1.1" viewBox="0 0 172 96" width="172px" zoomAndPan="magnify"><defs><filter height="300%" id="f1xxei8234q0a1" width="300%" x="-1" y="-1"><feGaussianBlur result="blurOut" stdDeviation="2.0"/><feColorMatrix in="blurOut" result="blurOut2" type="matrix" values="0 0 0 0 0 0 0 0 0 0 0 0 0 0 0 0 0 0 .4 0"/><feOffset dx="4.0" dy="4.0" in="blurOut2" result="blurOut3"/><feBlend in="SourceGraphic" in2="blurOut3" mode="normal"/></filter></defs><g><!--MD5=[074ba6ad47b234bd73d65012320c1634]
class FreightNetwork--><rect codeLine="7" fill="#FEFECE" filter="url(#f1xxei8234q0a1)" height="75.6719" id="FreightNetwork" style="stroke:#A80036;stroke-width:1.5;" width="151" x="7" y="7"/><ellipse cx="38.2" cy="23" fill="#ADD1B2" rx="11" ry="11" style="stroke:#A80036;stroke-width:1.0;"/><path d="M40.2,19.5 Q40.4031,19 40.6375,18.75 Q40.8719,18.5 41.1375,18.5 Q41.6063,18.5 41.9031,18.7813 Q42.2,19.0625 42.2,19.7188 L42.2,21.2813 Q42.2,21.9375 41.9188,22.2188 Q41.6375,22.5 41.2,22.5 Q40.8094,22.5 40.5594,22.3281 Q40.3094,22.1563 40.2,21.7031 Q40.1531,21.3906 39.9813,21.2188 Q39.6688,20.8906 39.1063,20.7031 Q38.5438,20.5 37.9813,20.5 Q37.2781,20.5 36.6844,20.7813 Q36.1063,21.0625 35.6531,21.6875 Q35.2,22.3125 35.2,23.1719 L35.2,24.0938 Q35.2,25.125 36.0438,25.8125 Q36.8875,26.5 38.3875,26.5 Q39.2781,26.5 39.9031,26.2969 Q40.2625,26.1875 40.6688,25.8281 Q40.9344,25.625 41.075,25.5625 Q41.2156,25.5 41.3875,25.5 Q41.7156,25.5 41.95,25.7656 Q42.2,26.0156 42.2,26.375 Q42.2,26.7188 41.8563,27.125 Q41.3563,27.7188 40.5594,28.0469 Q39.5125,28.5 38.2313,28.5 Q36.7313,28.5 35.5281,27.9063 Q34.5594,27.4375 33.8719,26.4219 Q33.2,25.4063 33.2,24.2031 L33.2,23.1094 Q33.2,21.8594 33.7938,20.7656 Q34.4031,19.6719 35.45,19.0938 Q36.5125,18.5 37.7,18.5 Q38.4188,18.5 39.0438,18.75 Q39.6688,19 40.2,19.5 Z " fill="#000000"/><text fill="#000000" font-family="sans-serif" font-size="12" lengthAdjust="spacing" textLength="83" x="55.8" y="27.9102">FreightNetwork</text><line style="stroke:#A80036;stroke-width:1.5;" x1="8" x2="157" y1="39" y2="39"/><text fill="#000000" font-family="sans-serif" font-size="11" lengthAdjust="spacing" textLength="139" x="13" y="54.4189">-Names of capitals and ports</text><text fill="#000000" font-family="sans-serif" font-size="11" lengthAdjust="spacing" textLength="52" x="13" y="68.2549">-Distances</text><line style="stroke:#A80036;stroke-width:1.5;" x1="8" x2="157" y1="74.6719" y2="74.6719"/><!--MD5=[1eb160467ba7478a9417264e51d87abb]
@startuml
'https://plantuml.com/class-diagram

skinparam classAttributeIconSize 0

left to right direction

class FreightNetwork {
-Names of capitals and ports
-Distances
}

@enduml

@startuml

skinparam classAttributeIconSize 0

left to right direction

class FreightNetwork {
-Names of capitals and ports
-Distances
}

@enduml

PlantUML version 1.2021.00(Sun Jan 10 10:25:05 GMT 2021)
(GPL source distribution)
Java Runtime: OpenJDK Runtime Environment
JVM: OpenJDK 64-Bit Server VM
Default Encoding: Cp1252
Language: pt
Country: PT
--></g></svg>