<?xml version="1.0" encoding="UTF-8" standalone="no"?><svg xmlns="http://www.w3.org/2000/svg" xmlns:xlink="http://www.w3.org/1999/xlink" contentScriptType="application/ecmascript" contentStyleType="text/css" height="422px" preserveAspectRatio="none" style="width:397px;height:422px;" version="1.1" viewBox="0 0 397 422" width="397px" zoomAndPan="magnify"><defs><filter height="300%" id="f1mfyz3v0mv3vy" width="300%" x="-1" y="-1"><feGaussianBlur result="blurOut" stdDeviation="2.0"/><feColorMatrix in="blurOut" result="blurOut2" type="matrix" values="0 0 0 0 0 0 0 0 0 0 0 0 0 0 0 0 0 0 .4 0"/><feOffset dx="4.0" dy="4.0" in="blurOut2" result="blurOut3"/><feBlend in="SourceGraphic" in2="blurOut3" mode="normal"/></filter></defs><g><!--MD5=[6ff6d2a385568d3b737b6b18bc2b62c0]
class ShortestPathUI--><rect codeLine="3" fill="#FEFECE" filter="url(#f1mfyz3v0mv3vy)" height="61.8359" id="ShortestPathUI" style="stroke:#A80036;stroke-width:1.5;" width="115" x="137.5" y="347"/><ellipse cx="152.5" cy="363" fill="#ADD1B2" rx="11" ry="11" style="stroke:#A80036;stroke-width:1.0;"/><path d="M154.5,359.5 Q154.7031,359 154.9375,358.75 Q155.1719,358.5 155.4375,358.5 Q155.9063,358.5 156.2031,358.7813 Q156.5,359.0625 156.5,359.7188 L156.5,361.2813 Q156.5,361.9375 156.2188,362.2188 Q155.9375,362.5 155.5,362.5 Q155.1094,362.5 154.8594,362.3281 Q154.6094,362.1563 154.5,361.7031 Q154.4531,361.3906 154.2813,361.2188 Q153.9688,360.8906 153.4063,360.7031 Q152.8438,360.5 152.2813,360.5 Q151.5781,360.5 150.9844,360.7813 Q150.4063,361.0625 149.9531,361.6875 Q149.5,362.3125 149.5,363.1719 L149.5,364.0938 Q149.5,365.125 150.3438,365.8125 Q151.1875,366.5 152.6875,366.5 Q153.5781,366.5 154.2031,366.2969 Q154.5625,366.1875 154.9688,365.8281 Q155.2344,365.625 155.375,365.5625 Q155.5156,365.5 155.6875,365.5 Q156.0156,365.5 156.25,365.7656 Q156.5,366.0156 156.5,366.375 Q156.5,366.7188 156.1563,367.125 Q155.6563,367.7188 154.8594,368.0469 Q153.8125,368.5 152.5313,368.5 Q151.0313,368.5 149.8281,367.9063 Q148.8594,367.4375 148.1719,366.4219 Q147.5,365.4063 147.5,364.2031 L147.5,363.1094 Q147.5,361.8594 148.0938,360.7656 Q148.7031,359.6719 149.75,359.0938 Q150.8125,358.5 152,358.5 Q152.7188,358.5 153.3438,358.75 Q153.9688,359 154.5,359.5 Z " fill="#000000"/><text fill="#000000" font-family="sans-serif" font-size="12" lengthAdjust="spacing" textLength="83" x="166.5" y="367.9102">ShortestPathUI</text><line style="stroke:#A80036;stroke-width:1.5;" x1="138.5" x2="251.5" y1="379" y2="379"/><rect fill="none" height="6" style="stroke:#C82930;stroke-width:1.0;" width="6" x="145.5" y="387"/><text fill="#000000" font-family="sans-serif" font-size="11" lengthAdjust="spacing" textLength="45" x="157.5" y="394.4189">controller</text><line style="stroke:#A80036;stroke-width:1.5;" x1="138.5" x2="251.5" y1="400.8359" y2="400.8359"/><!--MD5=[9b4d6350505f0ccf5a42f8153c75860f]
class ShortestPathController--><rect codeLine="7" fill="#FEFECE" filter="url(#f1mfyz3v0mv3vy)" height="117.1797" id="ShortestPathController" style="stroke:#A80036;stroke-width:1.5;" width="243" x="73.5" y="170"/><ellipse cx="128.25" cy="186" fill="#ADD1B2" rx="11" ry="11" style="stroke:#A80036;stroke-width:1.0;"/><path d="M130.25,182.5 Q130.4531,182 130.6875,181.75 Q130.9219,181.5 131.1875,181.5 Q131.6563,181.5 131.9531,181.7813 Q132.25,182.0625 132.25,182.7188 L132.25,184.2813 Q132.25,184.9375 131.9688,185.2188 Q131.6875,185.5 131.25,185.5 Q130.8594,185.5 130.6094,185.3281 Q130.3594,185.1563 130.25,184.7031 Q130.2031,184.3906 130.0313,184.2188 Q129.7188,183.8906 129.1563,183.7031 Q128.5938,183.5 128.0313,183.5 Q127.3281,183.5 126.7344,183.7813 Q126.1563,184.0625 125.7031,184.6875 Q125.25,185.3125 125.25,186.1719 L125.25,187.0938 Q125.25,188.125 126.0938,188.8125 Q126.9375,189.5 128.4375,189.5 Q129.3281,189.5 129.9531,189.2969 Q130.3125,189.1875 130.7188,188.8281 Q130.9844,188.625 131.125,188.5625 Q131.2656,188.5 131.4375,188.5 Q131.7656,188.5 132,188.7656 Q132.25,189.0156 132.25,189.375 Q132.25,189.7188 131.9063,190.125 Q131.4063,190.7188 130.6094,191.0469 Q129.5625,191.5 128.2813,191.5 Q126.7813,191.5 125.5781,190.9063 Q124.6094,190.4375 123.9219,189.4219 Q123.25,188.4063 123.25,187.2031 L123.25,186.1094 Q123.25,184.8594 123.8438,183.7656 Q124.4531,182.6719 125.5,182.0938 Q126.5625,181.5 127.75,181.5 Q128.4688,181.5 129.0938,181.75 Q129.7188,182 130.25,182.5 Z " fill="#000000"/><text fill="#000000" font-family="sans-serif" font-size="12" lengthAdjust="spacing" textLength="125" x="148.75" y="190.9102">ShortestPathController</text><line style="stroke:#A80036;stroke-width:1.5;" x1="74.5" x2="315.5" y1="202" y2="202"/><rect fill="none" height="6" style="stroke:#C82930;stroke-width:1.0;" width="6" x="81.5" y="210"/><text fill="#000000" font-family="sans-serif" font-size="11" lengthAdjust="spacing" textLength="149" x="93.5" y="217.4189">FreightNetwork freightNetwork</text><line style="stroke:#A80036;stroke-width:1.5;" x1="74.5" x2="315.5" y1="223.8359" y2="223.8359"/><ellipse cx="84.5" cy="234.8359" fill="#84BE84" rx="3" ry="3" style="stroke:#038048;stroke-width:1.0;"/><text fill="#000000" font-family="sans-serif" font-size="11" lengthAdjust="spacing" textLength="180" x="93.5" y="239.2549">shortestPathLand(vOrig, vDest, path)</text><ellipse cx="84.5" cy="248.6719" fill="#84BE84" rx="3" ry="3" style="stroke:#038048;stroke-width:1.0;"/><text fill="#000000" font-family="sans-serif" font-size="11" lengthAdjust="spacing" textLength="175" x="93.5" y="253.0908">shortestPathSea(vOrig, vDest, path)</text><ellipse cx="84.5" cy="262.5078" fill="#84BE84" rx="3" ry="3" style="stroke:#038048;stroke-width:1.0;"/><text fill="#000000" font-family="sans-serif" font-size="11" lengthAdjust="spacing" textLength="199" x="93.5" y="266.9268">shortestPathLandSea(vOrig, vDest, path)</text><ellipse cx="84.5" cy="276.3438" fill="#84BE84" rx="3" ry="3" style="stroke:#038048;stroke-width:1.0;"/><text fill="#000000" font-family="sans-serif" font-size="11" lengthAdjust="spacing" textLength="217" x="93.5" y="280.7627">shortestPathStops(vOrig, vDest, path, stops)</text><!--MD5=[4533588fb66c6fa31a6e04bf29ae6161]
class Algorithms--><rect codeLine="15" fill="#FEFECE" filter="url(#f1mfyz3v0mv3vy)" height="103.3438" id="Algorithms" style="stroke:#A80036;stroke-width:1.5;" width="376" x="7" y="7"/><ellipse cx="161.25" cy="23" fill="#ADD1B2" rx="11" ry="11" style="stroke:#A80036;stroke-width:1.0;"/><path d="M163.25,19.5 Q163.4531,19 163.6875,18.75 Q163.9219,18.5 164.1875,18.5 Q164.6563,18.5 164.9531,18.7813 Q165.25,19.0625 165.25,19.7188 L165.25,21.2813 Q165.25,21.9375 164.9688,22.2188 Q164.6875,22.5 164.25,22.5 Q163.8594,22.5 163.6094,22.3281 Q163.3594,22.1563 163.25,21.7031 Q163.2031,21.3906 163.0313,21.2188 Q162.7188,20.8906 162.1563,20.7031 Q161.5938,20.5 161.0313,20.5 Q160.3281,20.5 159.7344,20.7813 Q159.1563,21.0625 158.7031,21.6875 Q158.25,22.3125 158.25,23.1719 L158.25,24.0938 Q158.25,25.125 159.0938,25.8125 Q159.9375,26.5 161.4375,26.5 Q162.3281,26.5 162.9531,26.2969 Q163.3125,26.1875 163.7188,25.8281 Q163.9844,25.625 164.125,25.5625 Q164.2656,25.5 164.4375,25.5 Q164.7656,25.5 165,25.7656 Q165.25,26.0156 165.25,26.375 Q165.25,26.7188 164.9063,27.125 Q164.4063,27.7188 163.6094,28.0469 Q162.5625,28.5 161.2813,28.5 Q159.7813,28.5 158.5781,27.9063 Q157.6094,27.4375 156.9219,26.4219 Q156.25,25.4063 156.25,24.2031 L156.25,23.1094 Q156.25,21.8594 156.8438,20.7656 Q157.4531,19.6719 158.5,19.0938 Q159.5625,18.5 160.75,18.5 Q161.4688,18.5 162.0938,18.75 Q162.7188,19 163.25,19.5 Z " fill="#000000"/><text fill="#000000" font-family="sans-serif" font-size="12" lengthAdjust="spacing" textLength="59" x="181.75" y="27.9102">Algorithms</text><line style="stroke:#A80036;stroke-width:1.5;" x1="8" x2="382" y1="39" y2="39"/><line style="stroke:#A80036;stroke-width:1.5;" x1="8" x2="382" y1="47" y2="47"/><ellipse cx="18" cy="58" fill="#84BE84" rx="3" ry="3" style="stroke:#038048;stroke-width:1.0;"/><text fill="#000000" font-family="sans-serif" font-size="11" lengthAdjust="spacing" textLength="322" x="27" y="62.4189">shortestPath(Graph&lt;V, E&gt; g, V vOrig, V vDest, Comparator&lt;E&gt; ce,</text><text fill="#000000" font-family="sans-serif" font-size="11" lengthAdjust="spacing" textLength="279" x="30" y="76.2549">BinaryOperator&lt;E&gt; sum, E zero, LinkedList&lt;V&gt; shortPath)</text><rect fill="#F24D5C" height="6" style="stroke:#C82930;stroke-width:1.0;" width="6" x="15" y="82.6719"/><text fill="#000000" font-family="sans-serif" font-size="11" lengthAdjust="spacing" textLength="312" x="27" y="90.0908">shortestPathDijkstra(Graph&lt;V, E&gt; g, V vOrig, Comparator&lt;E&gt; ce,</text><text fill="#000000" font-family="sans-serif" font-size="11" lengthAdjust="spacing" textLength="347" x="30" y="103.9268">BinaryOperator&lt;E&gt; sum, E zero, boolean[] visited, V[] pathKeys, E[] dist)</text><!--MD5=[28d34c06fd3935264b115e13df928d1f]
reverse link ShortestPathController to ShortestPathUI--><path codeLine="20" d="M195,292.65 C195,311.46 195,331.21 195,346.87 " fill="none" id="ShortestPathController-backto-ShortestPathUI" style="stroke:#A80036;stroke-width:1.0;stroke-dasharray:7.0,7.0;"/><polygon fill="#A80036" points="195,287.37,191,296.37,195,292.37,199,296.37,195,287.37" style="stroke:#A80036;stroke-width:1.0;"/><!--MD5=[ab8f8b6f3c2c4788c07c7e1730279925]
reverse link Algorithms to ShortestPathController--><path codeLine="21" d="M195,115.7 C195,133.08 195,152.26 195,169.75 " fill="none" id="Algorithms-backto-ShortestPathController" style="stroke:#A80036;stroke-width:1.0;stroke-dasharray:7.0,7.0;"/><polygon fill="#A80036" points="195,110.36,191,119.36,195,115.36,199,119.36,195,110.36" style="stroke:#A80036;stroke-width:1.0;"/><!--MD5=[66d7ed3a45f03dd6384048c71ed72ad9]
@startuml
'https://plantuml.com/class-diagram

class ShortestPathUI {
- controller
}

class ShortestPathController {
- FreightNetwork freightNetwork
+ shortestPathLand(vOrig, vDest, path)
+ shortestPathSea(vOrig, vDest, path)
+ shortestPathLandSea(vOrig, vDest, path)
+ shortestPathStops(vOrig, vDest, path, stops)
}

class Algorithms {
+ shortestPath(Graph<V, E> g, V vOrig, V vDest, Comparator<E> ce,\n BinaryOperator<E> sum, E zero, LinkedList<V> shortPath)
- shortestPathDijkstra(Graph<V, E> g, V vOrig, Comparator<E> ce,\n BinaryOperator<E> sum, E zero, boolean[] visited, V[] pathKeys, E[] dist)
}

ShortestPathController <.. ShortestPathUI
Algorithms <.. ShortestPathController

@enduml

@startuml

class ShortestPathUI {
- controller
}

class ShortestPathController {
- FreightNetwork freightNetwork
+ shortestPathLand(vOrig, vDest, path)
+ shortestPathSea(vOrig, vDest, path)
+ shortestPathLandSea(vOrig, vDest, path)
+ shortestPathStops(vOrig, vDest, path, stops)
}

class Algorithms {
+ shortestPath(Graph<V, E> g, V vOrig, V vDest, Comparator<E> ce,\n BinaryOperator<E> sum, E zero, LinkedList<V> shortPath)
- shortestPathDijkstra(Graph<V, E> g, V vOrig, Comparator<E> ce,\n BinaryOperator<E> sum, E zero, boolean[] visited, V[] pathKeys, E[] dist)
}

ShortestPathController <.. ShortestPathUI
Algorithms <.. ShortestPathController

@enduml

PlantUML version 1.2021.00(Sun Jan 10 10:25:05 GMT 2021)
(GPL source distribution)
Java Runtime: OpenJDK Runtime Environment
JVM: OpenJDK 64-Bit Server VM
Default Encoding: Cp1252
Language: pt
Country: PT
--></g></svg>