<?xml version="1.0" encoding="UTF-8" standalone="no"?><svg xmlns="http://www.w3.org/2000/svg" xmlns:xlink="http://www.w3.org/1999/xlink" contentScriptType="application/ecmascript" contentStyleType="text/css" height="464px" preserveAspectRatio="none" style="width:462px;height:464px;" version="1.1" viewBox="0 0 462 464" width="462px" zoomAndPan="magnify"><defs><filter height="300%" id="fb37v9llrlfv5" width="300%" x="-1" y="-1"><feGaussianBlur result="blurOut" stdDeviation="2.0"/><feColorMatrix in="blurOut" result="blurOut2" type="matrix" values="0 0 0 0 0 0 0 0 0 0 0 0 0 0 0 0 0 0 .4 0"/><feOffset dx="4.0" dy="4.0" in="blurOut2" result="blurOut3"/><feBlend in="SourceGraphic" in2="blurOut3" mode="normal"/></filter></defs><g><!--MD5=[6ff6d2a385568d3b737b6b18bc2b62c0]
class ShortestPathUI--><rect codeLine="3" fill="#FEFECE" filter="url(#fb37v9llrlfv5)" height="61.8359" id="ShortestPathUI" style="stroke:#A80036;stroke-width:1.5;" width="115" x="170" y="389"/><ellipse cx="185" cy="405" fill="#ADD1B2" rx="11" ry="11" style="stroke:#A80036;stroke-width:1.0;"/><path d="M187,401.5 Q187.2031,401 187.4375,400.75 Q187.6719,400.5 187.9375,400.5 Q188.4063,400.5 188.7031,400.7813 Q189,401.0625 189,401.7188 L189,403.2813 Q189,403.9375 188.7188,404.2188 Q188.4375,404.5 188,404.5 Q187.6094,404.5 187.3594,404.3281 Q187.1094,404.1563 187,403.7031 Q186.9531,403.3906 186.7813,403.2188 Q186.4688,402.8906 185.9063,402.7031 Q185.3438,402.5 184.7813,402.5 Q184.0781,402.5 183.4844,402.7813 Q182.9063,403.0625 182.4531,403.6875 Q182,404.3125 182,405.1719 L182,406.0938 Q182,407.125 182.8438,407.8125 Q183.6875,408.5 185.1875,408.5 Q186.0781,408.5 186.7031,408.2969 Q187.0625,408.1875 187.4688,407.8281 Q187.7344,407.625 187.875,407.5625 Q188.0156,407.5 188.1875,407.5 Q188.5156,407.5 188.75,407.7656 Q189,408.0156 189,408.375 Q189,408.7188 188.6563,409.125 Q188.1563,409.7188 187.3594,410.0469 Q186.3125,410.5 185.0313,410.5 Q183.5313,410.5 182.3281,409.9063 Q181.3594,409.4375 180.6719,408.4219 Q180,407.4063 180,406.2031 L180,405.1094 Q180,403.8594 180.5938,402.7656 Q181.2031,401.6719 182.25,401.0938 Q183.3125,400.5 184.5,400.5 Q185.2188,400.5 185.8438,400.75 Q186.4688,401 187,401.5 Z " fill="#000000"/><text fill="#000000" font-family="sans-serif" font-size="12" lengthAdjust="spacing" textLength="83" x="199" y="409.9102">ShortestPathUI</text><line style="stroke:#A80036;stroke-width:1.5;" x1="171" x2="284" y1="421" y2="421"/><rect fill="none" height="6" style="stroke:#C82930;stroke-width:1.0;" width="6" x="178" y="429"/><text fill="#000000" font-family="sans-serif" font-size="11" lengthAdjust="spacing" textLength="45" x="190" y="436.4189">controller</text><line style="stroke:#A80036;stroke-width:1.5;" x1="171" x2="284" y1="442.8359" y2="442.8359"/><!--MD5=[9b4d6350505f0ccf5a42f8153c75860f]
class ShortestPathController--><rect codeLine="7" fill="#FEFECE" filter="url(#fb37v9llrlfv5)" height="158.6875" id="ShortestPathController" style="stroke:#A80036;stroke-width:1.5;" width="441" x="7" y="170"/><ellipse cx="160.75" cy="186" fill="#ADD1B2" rx="11" ry="11" style="stroke:#A80036;stroke-width:1.0;"/><path d="M162.75,182.5 Q162.9531,182 163.1875,181.75 Q163.4219,181.5 163.6875,181.5 Q164.1563,181.5 164.4531,181.7813 Q164.75,182.0625 164.75,182.7188 L164.75,184.2813 Q164.75,184.9375 164.4688,185.2188 Q164.1875,185.5 163.75,185.5 Q163.3594,185.5 163.1094,185.3281 Q162.8594,185.1563 162.75,184.7031 Q162.7031,184.3906 162.5313,184.2188 Q162.2188,183.8906 161.6563,183.7031 Q161.0938,183.5 160.5313,183.5 Q159.8281,183.5 159.2344,183.7813 Q158.6563,184.0625 158.2031,184.6875 Q157.75,185.3125 157.75,186.1719 L157.75,187.0938 Q157.75,188.125 158.5938,188.8125 Q159.4375,189.5 160.9375,189.5 Q161.8281,189.5 162.4531,189.2969 Q162.8125,189.1875 163.2188,188.8281 Q163.4844,188.625 163.625,188.5625 Q163.7656,188.5 163.9375,188.5 Q164.2656,188.5 164.5,188.7656 Q164.75,189.0156 164.75,189.375 Q164.75,189.7188 164.4063,190.125 Q163.9063,190.7188 163.1094,191.0469 Q162.0625,191.5 160.7813,191.5 Q159.2813,191.5 158.0781,190.9063 Q157.1094,190.4375 156.4219,189.4219 Q155.75,188.4063 155.75,187.2031 L155.75,186.1094 Q155.75,184.8594 156.3438,183.7656 Q156.9531,182.6719 158,182.0938 Q159.0625,181.5 160.25,181.5 Q160.9688,181.5 161.5938,181.75 Q162.2188,182 162.75,182.5 Z " fill="#000000"/><text fill="#000000" font-family="sans-serif" font-size="12" lengthAdjust="spacing" textLength="125" x="181.25" y="190.9102">ShortestPathController</text><line style="stroke:#A80036;stroke-width:1.5;" x1="8" x2="447" y1="202" y2="202"/><rect fill="none" height="6" style="stroke:#C82930;stroke-width:1.0;" width="6" x="15" y="210"/><text fill="#000000" font-family="sans-serif" font-size="11" lengthAdjust="spacing" textLength="149" x="27" y="217.4189">FreightNetwork freightNetwork</text><line style="stroke:#A80036;stroke-width:1.5;" x1="8" x2="447" y1="223.8359" y2="223.8359"/><ellipse cx="18" cy="234.8359" fill="#84BE84" rx="3" ry="3" style="stroke:#038048;stroke-width:1.0;"/><text fill="#000000" font-family="sans-serif" font-size="11" lengthAdjust="spacing" textLength="180" x="27" y="239.2549">shortestPathLand(vOrig, vDest, path)</text><ellipse cx="18" cy="248.6719" fill="#84BE84" rx="3" ry="3" style="stroke:#038048;stroke-width:1.0;"/><text fill="#000000" font-family="sans-serif" font-size="11" lengthAdjust="spacing" textLength="175" x="27" y="253.0908">shortestPathSea(vOrig, vDest, path)</text><ellipse cx="18" cy="262.5078" fill="#84BE84" rx="3" ry="3" style="stroke:#038048;stroke-width:1.0;"/><text fill="#000000" font-family="sans-serif" font-size="11" lengthAdjust="spacing" textLength="199" x="27" y="266.9268">shortestPathLandSea(vOrig, vDest, path)</text><rect fill="#F24D5C" height="6" style="stroke:#C82930;stroke-width:1.0;" width="6" x="15" y="273.3438"/><text fill="#000000" font-family="sans-serif" font-size="11" lengthAdjust="spacing" textLength="217" x="27" y="280.7627">shortestPathStops(vOrig, vDest, path, stops)</text><rect fill="#F24D5C" height="6" style="stroke:#C82930;stroke-width:1.0;" width="6" x="15" y="287.1797"/><text fill="#000000" font-family="sans-serif" font-size="11" lengthAdjust="spacing" textLength="412" x="27" y="294.5986">getShortestPathOfPermutations(Graph&lt;FreightNetworkVertex, Long&gt; freightNetwork,</text><text fill="#000000" font-family="sans-serif" font-size="11" lengthAdjust="spacing" textLength="336" x="27" y="308.4346">List&lt;FreightNetworkVertex&gt; stops, List&lt;FreightNetworkVertex&gt; path)</text><rect fill="#F24D5C" height="6" style="stroke:#C82930;stroke-width:1.0;" width="6" x="15" y="314.8516"/><text fill="#000000" font-family="sans-serif" font-size="11" lengthAdjust="spacing" textLength="391" x="27" y="322.2705">verifyLists(List&lt;FreightNetworkVertex&gt; stops, List&lt;FreightNetworkVertex&gt; path)</text><!--MD5=[4533588fb66c6fa31a6e04bf29ae6161]
class Algorithms--><rect codeLine="17" fill="#FEFECE" filter="url(#fb37v9llrlfv5)" height="103.3438" id="Algorithms" style="stroke:#A80036;stroke-width:1.5;" width="376" x="39.5" y="7"/><ellipse cx="193.75" cy="23" fill="#ADD1B2" rx="11" ry="11" style="stroke:#A80036;stroke-width:1.0;"/><path d="M195.75,19.5 Q195.9531,19 196.1875,18.75 Q196.4219,18.5 196.6875,18.5 Q197.1563,18.5 197.4531,18.7813 Q197.75,19.0625 197.75,19.7188 L197.75,21.2813 Q197.75,21.9375 197.4688,22.2188 Q197.1875,22.5 196.75,22.5 Q196.3594,22.5 196.1094,22.3281 Q195.8594,22.1563 195.75,21.7031 Q195.7031,21.3906 195.5313,21.2188 Q195.2188,20.8906 194.6563,20.7031 Q194.0938,20.5 193.5313,20.5 Q192.8281,20.5 192.2344,20.7813 Q191.6563,21.0625 191.2031,21.6875 Q190.75,22.3125 190.75,23.1719 L190.75,24.0938 Q190.75,25.125 191.5938,25.8125 Q192.4375,26.5 193.9375,26.5 Q194.8281,26.5 195.4531,26.2969 Q195.8125,26.1875 196.2188,25.8281 Q196.4844,25.625 196.625,25.5625 Q196.7656,25.5 196.9375,25.5 Q197.2656,25.5 197.5,25.7656 Q197.75,26.0156 197.75,26.375 Q197.75,26.7188 197.4063,27.125 Q196.9063,27.7188 196.1094,28.0469 Q195.0625,28.5 193.7813,28.5 Q192.2813,28.5 191.0781,27.9063 Q190.1094,27.4375 189.4219,26.4219 Q188.75,25.4063 188.75,24.2031 L188.75,23.1094 Q188.75,21.8594 189.3438,20.7656 Q189.9531,19.6719 191,19.0938 Q192.0625,18.5 193.25,18.5 Q193.9688,18.5 194.5938,18.75 Q195.2188,19 195.75,19.5 Z " fill="#000000"/><text fill="#000000" font-family="sans-serif" font-size="12" lengthAdjust="spacing" textLength="59" x="214.25" y="27.9102">Algorithms</text><line style="stroke:#A80036;stroke-width:1.5;" x1="40.5" x2="414.5" y1="39" y2="39"/><line style="stroke:#A80036;stroke-width:1.5;" x1="40.5" x2="414.5" y1="47" y2="47"/><ellipse cx="50.5" cy="58" fill="#84BE84" rx="3" ry="3" style="stroke:#038048;stroke-width:1.0;"/><text fill="#000000" font-family="sans-serif" font-size="11" lengthAdjust="spacing" textLength="322" x="59.5" y="62.4189">shortestPath(Graph&lt;V, E&gt; g, V vOrig, V vDest, Comparator&lt;E&gt; ce,</text><text fill="#000000" font-family="sans-serif" font-size="11" lengthAdjust="spacing" textLength="279" x="62.5" y="76.2549">BinaryOperator&lt;E&gt; sum, E zero, LinkedList&lt;V&gt; shortPath)</text><rect fill="#F24D5C" height="6" style="stroke:#C82930;stroke-width:1.0;" width="6" x="47.5" y="82.6719"/><text fill="#000000" font-family="sans-serif" font-size="11" lengthAdjust="spacing" textLength="312" x="59.5" y="90.0908">shortestPathDijkstra(Graph&lt;V, E&gt; g, V vOrig, Comparator&lt;E&gt; ce,</text><text fill="#000000" font-family="sans-serif" font-size="11" lengthAdjust="spacing" textLength="347" x="62.5" y="103.9268">BinaryOperator&lt;E&gt; sum, E zero, boolean[] visited, V[] pathKeys, E[] dist)</text><!--MD5=[28d34c06fd3935264b115e13df928d1f]
reverse link ShortestPathController to ShortestPathUI--><path codeLine="22" d="M227.5,334.76 C227.5,354.06 227.5,373.35 227.5,388.6 " fill="none" id="ShortestPathController-backto-ShortestPathUI" style="stroke:#A80036;stroke-width:1.0;stroke-dasharray:7.0,7.0;"/><polygon fill="#A80036" points="227.5,329.32,223.5,338.32,227.5,334.32,231.5,338.32,227.5,329.32" style="stroke:#A80036;stroke-width:1.0;"/><!--MD5=[ab8f8b6f3c2c4788c07c7e1730279925]
reverse link Algorithms to ShortestPathController--><path codeLine="23" d="M227.5,115.39 C227.5,132.49 227.5,151.62 227.5,169.94 " fill="none" id="Algorithms-backto-ShortestPathController" style="stroke:#A80036;stroke-width:1.0;stroke-dasharray:7.0,7.0;"/><polygon fill="#A80036" points="227.5,110.15,223.5,119.15,227.5,115.15,231.5,119.15,227.5,110.15" style="stroke:#A80036;stroke-width:1.0;"/><!--MD5=[6e38456dc13a1a46046cf7435f7601a6]
@startuml
'https://plantuml.com/class-diagram

class ShortestPathUI {
- controller
}

class ShortestPathController {
- FreightNetwork freightNetwork
+ shortestPathLand(vOrig, vDest, path)
+ shortestPathSea(vOrig, vDest, path)
+ shortestPathLandSea(vOrig, vDest, path)
- shortestPathStops(vOrig, vDest, path, stops)
- getShortestPathOfPermutations(Graph<FreightNetworkVertex, Long> freightNetwork, \nList<FreightNetworkVertex> stops, List<FreightNetworkVertex> path)
- verifyLists(List<FreightNetworkVertex> stops, List<FreightNetworkVertex> path)
}

class Algorithms {
+ shortestPath(Graph<V, E> g, V vOrig, V vDest, Comparator<E> ce,\n BinaryOperator<E> sum, E zero, LinkedList<V> shortPath)
- shortestPathDijkstra(Graph<V, E> g, V vOrig, Comparator<E> ce,\n BinaryOperator<E> sum, E zero, boolean[] visited, V[] pathKeys, E[] dist)
}

ShortestPathController <.. ShortestPathUI
Algorithms <.. ShortestPathController

@enduml

@startuml

class ShortestPathUI {
- controller
}

class ShortestPathController {
- FreightNetwork freightNetwork
+ shortestPathLand(vOrig, vDest, path)
+ shortestPathSea(vOrig, vDest, path)
+ shortestPathLandSea(vOrig, vDest, path)
- shortestPathStops(vOrig, vDest, path, stops)
- getShortestPathOfPermutations(Graph<FreightNetworkVertex, Long> freightNetwork, \nList<FreightNetworkVertex> stops, List<FreightNetworkVertex> path)
- verifyLists(List<FreightNetworkVertex> stops, List<FreightNetworkVertex> path)
}

class Algorithms {
+ shortestPath(Graph<V, E> g, V vOrig, V vDest, Comparator<E> ce,\n BinaryOperator<E> sum, E zero, LinkedList<V> shortPath)
- shortestPathDijkstra(Graph<V, E> g, V vOrig, Comparator<E> ce,\n BinaryOperator<E> sum, E zero, boolean[] visited, V[] pathKeys, E[] dist)
}

ShortestPathController <.. ShortestPathUI
Algorithms <.. ShortestPathController

@enduml

PlantUML version 1.2021.00(Sun Jan 10 10:25:05 GMT 2021)
(GPL source distribution)
Java Runtime: OpenJDK Runtime Environment
JVM: OpenJDK 64-Bit Server VM
Default Encoding: Cp1252
Language: pt
Country: PT
--></g></svg>