<?xml version="1.0" encoding="UTF-8" standalone="no"?><svg xmlns="http://www.w3.org/2000/svg" xmlns:xlink="http://www.w3.org/1999/xlink" contentScriptType="application/ecmascript" contentStyleType="text/css" height="697px" preserveAspectRatio="none" style="width:411px;height:697px;" version="1.1" viewBox="0 0 411 697" width="411px" zoomAndPan="magnify"><defs><filter height="300%" id="f1cmr2845ezl8x" width="300%" x="-1" y="-1"><feGaussianBlur result="blurOut" stdDeviation="2.0"/><feColorMatrix in="blurOut" result="blurOut2" type="matrix" values="0 0 0 0 0 0 0 0 0 0 0 0 0 0 0 0 0 0 .4 0"/><feOffset dx="4.0" dy="4.0" in="blurOut2" result="blurOut3"/><feBlend in="SourceGraphic" in2="blurOut3" mode="normal"/></filter></defs><g><!--MD5=[23775766d9d9cbd7e35e8d659c509336]
class SearchShipUI--><rect codeLine="3" fill="#FEFECE" filter="url(#f1cmr2845ezl8x)" height="61.8359" id="SearchShipUI" style="stroke:#A80036;stroke-width:1.5;" width="108" x="146" y="622"/><ellipse cx="161" cy="638" fill="#ADD1B2" rx="11" ry="11" style="stroke:#A80036;stroke-width:1.0;"/><path d="M163,634.5 Q163.2031,634 163.4375,633.75 Q163.6719,633.5 163.9375,633.5 Q164.4063,633.5 164.7031,633.7813 Q165,634.0625 165,634.7188 L165,636.2813 Q165,636.9375 164.7188,637.2188 Q164.4375,637.5 164,637.5 Q163.6094,637.5 163.3594,637.3281 Q163.1094,637.1563 163,636.7031 Q162.9531,636.3906 162.7813,636.2188 Q162.4688,635.8906 161.9063,635.7031 Q161.3438,635.5 160.7813,635.5 Q160.0781,635.5 159.4844,635.7813 Q158.9063,636.0625 158.4531,636.6875 Q158,637.3125 158,638.1719 L158,639.0938 Q158,640.125 158.8438,640.8125 Q159.6875,641.5 161.1875,641.5 Q162.0781,641.5 162.7031,641.2969 Q163.0625,641.1875 163.4688,640.8281 Q163.7344,640.625 163.875,640.5625 Q164.0156,640.5 164.1875,640.5 Q164.5156,640.5 164.75,640.7656 Q165,641.0156 165,641.375 Q165,641.7188 164.6563,642.125 Q164.1563,642.7188 163.3594,643.0469 Q162.3125,643.5 161.0313,643.5 Q159.5313,643.5 158.3281,642.9063 Q157.3594,642.4375 156.6719,641.4219 Q156,640.4063 156,639.2031 L156,638.1094 Q156,636.8594 156.5938,635.7656 Q157.2031,634.6719 158.25,634.0938 Q159.3125,633.5 160.5,633.5 Q161.2188,633.5 161.8438,633.75 Q162.4688,634 163,634.5 Z " fill="#000000"/><text fill="#000000" font-family="sans-serif" font-size="12" lengthAdjust="spacing" textLength="76" x="175" y="642.9102">SearchShipUI</text><line style="stroke:#A80036;stroke-width:1.5;" x1="147" x2="253" y1="654" y2="654"/><rect fill="none" height="6" style="stroke:#C82930;stroke-width:1.0;" width="6" x="154" y="662"/><text fill="#000000" font-family="sans-serif" font-size="11" lengthAdjust="spacing" textLength="45" x="166" y="669.4189">controller</text><line style="stroke:#A80036;stroke-width:1.5;" x1="147" x2="253" y1="675.8359" y2="675.8359"/><!--MD5=[e6f2cb470f06694f6a02b571e2ffcbb5]
class SearchShipController--><rect codeLine="7" fill="#FEFECE" filter="url(#f1cmr2845ezl8x)" height="75.6719" id="SearchShipController" style="stroke:#A80036;stroke-width:1.5;" width="150" x="191" y="486"/><ellipse cx="206" cy="502" fill="#ADD1B2" rx="11" ry="11" style="stroke:#A80036;stroke-width:1.0;"/><path d="M208,498.5 Q208.2031,498 208.4375,497.75 Q208.6719,497.5 208.9375,497.5 Q209.4063,497.5 209.7031,497.7813 Q210,498.0625 210,498.7188 L210,500.2813 Q210,500.9375 209.7188,501.2188 Q209.4375,501.5 209,501.5 Q208.6094,501.5 208.3594,501.3281 Q208.1094,501.1563 208,500.7031 Q207.9531,500.3906 207.7813,500.2188 Q207.4688,499.8906 206.9063,499.7031 Q206.3438,499.5 205.7813,499.5 Q205.0781,499.5 204.4844,499.7813 Q203.9063,500.0625 203.4531,500.6875 Q203,501.3125 203,502.1719 L203,503.0938 Q203,504.125 203.8438,504.8125 Q204.6875,505.5 206.1875,505.5 Q207.0781,505.5 207.7031,505.2969 Q208.0625,505.1875 208.4688,504.8281 Q208.7344,504.625 208.875,504.5625 Q209.0156,504.5 209.1875,504.5 Q209.5156,504.5 209.75,504.7656 Q210,505.0156 210,505.375 Q210,505.7188 209.6563,506.125 Q209.1563,506.7188 208.3594,507.0469 Q207.3125,507.5 206.0313,507.5 Q204.5313,507.5 203.3281,506.9063 Q202.3594,506.4375 201.6719,505.4219 Q201,504.4063 201,503.2031 L201,502.1094 Q201,500.8594 201.5938,499.7656 Q202.2031,498.6719 203.25,498.0938 Q204.3125,497.5 205.5,497.5 Q206.2188,497.5 206.8438,497.75 Q207.4688,498 208,498.5 Z " fill="#000000"/><text fill="#000000" font-family="sans-serif" font-size="12" lengthAdjust="spacing" textLength="118" x="220" y="506.9102">SearchShipController</text><line style="stroke:#A80036;stroke-width:1.5;" x1="192" x2="340" y1="518" y2="518"/><rect fill="none" height="6" style="stroke:#C82930;stroke-width:1.0;" width="6" x="199" y="526"/><text fill="#000000" font-family="sans-serif" font-size="11" lengthAdjust="spacing" textLength="41" x="211" y="533.4189">ShipBST</text><line style="stroke:#A80036;stroke-width:1.5;" x1="192" x2="340" y1="539.8359" y2="539.8359"/><ellipse cx="202" cy="550.8359" fill="#84BE84" rx="3" ry="3" style="stroke:#038048;stroke-width:1.0;"/><text fill="#000000" font-family="sans-serif" font-size="11" lengthAdjust="spacing" textLength="71" x="211" y="555.2549">findShip(code)</text><!--MD5=[95f401ea9d0c63da0b3e1cc781f0d3e9]
class ShipBST--><rect codeLine="12" fill="#FEFECE" filter="url(#f1cmr2845ezl8x)" height="117.1797" id="ShipBST" style="stroke:#A80036;stroke-width:1.5;" width="162" x="188" y="309"/><ellipse cx="240.75" cy="325" fill="#ADD1B2" rx="11" ry="11" style="stroke:#A80036;stroke-width:1.0;"/><path d="M242.75,321.5 Q242.9531,321 243.1875,320.75 Q243.4219,320.5 243.6875,320.5 Q244.1563,320.5 244.4531,320.7813 Q244.75,321.0625 244.75,321.7188 L244.75,323.2813 Q244.75,323.9375 244.4688,324.2188 Q244.1875,324.5 243.75,324.5 Q243.3594,324.5 243.1094,324.3281 Q242.8594,324.1563 242.75,323.7031 Q242.7031,323.3906 242.5313,323.2188 Q242.2188,322.8906 241.6563,322.7031 Q241.0938,322.5 240.5313,322.5 Q239.8281,322.5 239.2344,322.7813 Q238.6563,323.0625 238.2031,323.6875 Q237.75,324.3125 237.75,325.1719 L237.75,326.0938 Q237.75,327.125 238.5938,327.8125 Q239.4375,328.5 240.9375,328.5 Q241.8281,328.5 242.4531,328.2969 Q242.8125,328.1875 243.2188,327.8281 Q243.4844,327.625 243.625,327.5625 Q243.7656,327.5 243.9375,327.5 Q244.2656,327.5 244.5,327.7656 Q244.75,328.0156 244.75,328.375 Q244.75,328.7188 244.4063,329.125 Q243.9063,329.7188 243.1094,330.0469 Q242.0625,330.5 240.7813,330.5 Q239.2813,330.5 238.0781,329.9063 Q237.1094,329.4375 236.4219,328.4219 Q235.75,327.4063 235.75,326.2031 L235.75,325.1094 Q235.75,323.8594 236.3438,322.7656 Q236.9531,321.6719 238,321.0938 Q239.0625,320.5 240.25,320.5 Q240.9688,320.5 241.5938,320.75 Q242.2188,321 242.75,321.5 Z " fill="#000000"/><text fill="#000000" font-family="sans-serif" font-size="12" lengthAdjust="spacing" textLength="48" x="261.25" y="329.9102">ShipBST</text><line style="stroke:#A80036;stroke-width:1.5;" x1="189" x2="349" y1="341" y2="341"/><line style="stroke:#A80036;stroke-width:1.5;" x1="189" x2="349" y1="349" y2="349"/><ellipse cx="199" cy="360" fill="#84BE84" rx="3" ry="3" style="stroke:#038048;stroke-width:1.0;"/><text fill="#000000" font-family="sans-serif" font-size="11" lengthAdjust="spacing" textLength="71" x="208" y="364.4189">findShip(code)</text><rect fill="#F24D5C" height="6" style="stroke:#C82930;stroke-width:1.0;" width="6" x="196" y="370.8359"/><text fill="#000000" font-family="sans-serif" font-size="11" lengthAdjust="spacing" textLength="128" x="208" y="378.2549">determineCodeType(code)</text><rect fill="#F24D5C" height="6" style="stroke:#C82930;stroke-width:1.0;" width="6" x="196" y="384.6719"/><text fill="#000000" font-family="sans-serif" font-size="11" lengthAdjust="spacing" textLength="110" x="208" y="392.0908">findShipByMMSI(MMSI)</text><rect fill="#F24D5C" height="6" style="stroke:#C82930;stroke-width:1.0;" width="6" x="196" y="398.5078"/><text fill="#000000" font-family="sans-serif" font-size="11" lengthAdjust="spacing" textLength="96" x="208" y="405.9268">findShipByIMO(IMO)</text><rect fill="#F24D5C" height="6" style="stroke:#C82930;stroke-width:1.0;" width="6" x="196" y="412.3438"/><text fill="#000000" font-family="sans-serif" font-size="11" lengthAdjust="spacing" textLength="136" x="208" y="419.7627">findShipByCallSign(CallSign)</text><!--MD5=[0dc7f2ddb409b58bcf52b12238c25399]
class Ship--><rect codeLine="20" fill="#FEFECE" filter="url(#f1cmr2845ezl8x)" height="241.7031" id="Ship" style="stroke:#A80036;stroke-width:1.5;" width="390" x="7" y="7"/><ellipse cx="185.25" cy="23" fill="#ADD1B2" rx="11" ry="11" style="stroke:#A80036;stroke-width:1.0;"/><path d="M187.25,19.5 Q187.4531,19 187.6875,18.75 Q187.9219,18.5 188.1875,18.5 Q188.6563,18.5 188.9531,18.7813 Q189.25,19.0625 189.25,19.7188 L189.25,21.2813 Q189.25,21.9375 188.9688,22.2188 Q188.6875,22.5 188.25,22.5 Q187.8594,22.5 187.6094,22.3281 Q187.3594,22.1563 187.25,21.7031 Q187.2031,21.3906 187.0313,21.2188 Q186.7188,20.8906 186.1563,20.7031 Q185.5938,20.5 185.0313,20.5 Q184.3281,20.5 183.7344,20.7813 Q183.1563,21.0625 182.7031,21.6875 Q182.25,22.3125 182.25,23.1719 L182.25,24.0938 Q182.25,25.125 183.0938,25.8125 Q183.9375,26.5 185.4375,26.5 Q186.3281,26.5 186.9531,26.2969 Q187.3125,26.1875 187.7188,25.8281 Q187.9844,25.625 188.125,25.5625 Q188.2656,25.5 188.4375,25.5 Q188.7656,25.5 189,25.7656 Q189.25,26.0156 189.25,26.375 Q189.25,26.7188 188.9063,27.125 Q188.4063,27.7188 187.6094,28.0469 Q186.5625,28.5 185.2813,28.5 Q183.7813,28.5 182.5781,27.9063 Q181.6094,27.4375 180.9219,26.4219 Q180.25,25.4063 180.25,24.2031 L180.25,23.1094 Q180.25,21.8594 180.8438,20.7656 Q181.4531,19.6719 182.5,19.0938 Q183.5625,18.5 184.75,18.5 Q185.4688,18.5 186.0938,18.75 Q186.7188,19 187.25,19.5 Z " fill="#000000"/><text fill="#000000" font-family="sans-serif" font-size="12" lengthAdjust="spacing" textLength="25" x="205.75" y="27.9102">Ship</text><line style="stroke:#A80036;stroke-width:1.5;" x1="8" x2="396" y1="39" y2="39"/><rect fill="none" height="6" style="stroke:#C82930;stroke-width:1.0;" width="6" x="15" y="47"/><text fill="#000000" font-family="sans-serif" font-size="11" lengthAdjust="spacing" textLength="25" x="27" y="54.4189">MMSI</text><rect fill="none" height="6" style="stroke:#C82930;stroke-width:1.0;" width="6" x="15" y="60.8359"/><text fill="#000000" font-family="sans-serif" font-size="11" lengthAdjust="spacing" textLength="26" x="27" y="68.2549">name</text><rect fill="none" height="6" style="stroke:#C82930;stroke-width:1.0;" width="6" x="15" y="74.6719"/><text fill="#000000" font-family="sans-serif" font-size="11" lengthAdjust="spacing" textLength="18" x="27" y="82.0908">IMO</text><rect fill="none" height="6" style="stroke:#C82930;stroke-width:1.0;" width="6" x="15" y="88.5078"/><text fill="#000000" font-family="sans-serif" font-size="11" lengthAdjust="spacing" textLength="125" x="27" y="95.9268">numberEnergyGenerators</text><rect fill="none" height="6" style="stroke:#C82930;stroke-width:1.0;" width="6" x="15" y="102.3438"/><text fill="#000000" font-family="sans-serif" font-size="11" lengthAdjust="spacing" textLength="111" x="27" y="109.7627">generatorPowerOutput</text><rect fill="none" height="6" style="stroke:#C82930;stroke-width:1.0;" width="6" x="15" y="116.1797"/><text fill="#000000" font-family="sans-serif" font-size="11" lengthAdjust="spacing" textLength="37" x="27" y="123.5986">callSign</text><rect fill="none" height="6" style="stroke:#C82930;stroke-width:1.0;" width="6" x="15" y="130.0156"/><text fill="#000000" font-family="sans-serif" font-size="11" lengthAdjust="spacing" textLength="56" x="27" y="137.4346">vesselType</text><rect fill="none" height="6" style="stroke:#C82930;stroke-width:1.0;" width="6" x="15" y="143.8516"/><text fill="#000000" font-family="sans-serif" font-size="11" lengthAdjust="spacing" textLength="29" x="27" y="151.2705">length</text><rect fill="none" height="6" style="stroke:#C82930;stroke-width:1.0;" width="6" x="15" y="157.6875"/><text fill="#000000" font-family="sans-serif" font-size="11" lengthAdjust="spacing" textLength="27" x="27" y="165.1064">width</text><rect fill="none" height="6" style="stroke:#C82930;stroke-width:1.0;" width="6" x="15" y="171.5234"/><text fill="#000000" font-family="sans-serif" font-size="11" lengthAdjust="spacing" textLength="41" x="27" y="178.9424">capacity</text><rect fill="none" height="6" style="stroke:#C82930;stroke-width:1.0;" width="6" x="15" y="185.3594"/><text fill="#000000" font-family="sans-serif" font-size="11" lengthAdjust="spacing" textLength="23" x="27" y="192.7783">draft</text><line style="stroke:#A80036;stroke-width:1.5;" x1="8" x2="396" y1="199.1953" y2="199.1953"/><ellipse cx="18" cy="210.1953" fill="#84BE84" rx="3" ry="3" style="stroke:#038048;stroke-width:1.0;"/><text fill="#000000" font-family="sans-serif" font-size="11" lengthAdjust="spacing" textLength="240" x="27" y="214.6143">Ship(MMSI, name, IMO, numberEnergyGenerators,</text><text fill="#000000" font-family="sans-serif" font-size="11" lengthAdjust="spacing" textLength="364" x="27" y="228.4502">generatorPowerOutput, callSign, vesselType, length, width, capacity, draft)</text><ellipse cx="18" cy="237.8672" fill="#84BE84" rx="3" ry="3" style="stroke:#038048;stroke-width:1.0;"/><text fill="#000000" font-family="sans-serif" font-size="11" lengthAdjust="spacing" textLength="45" x="27" y="242.2861">toString()</text><!--MD5=[025e8cc251879ee65f6310ef949d4402]
reverse link SearchShipController to SearchShipUI--><path codeLine="37" d="M244.38,566.6 C235,584.66 224.22,605.4 215.63,621.93 " fill="none" id="SearchShipController-backto-SearchShipUI" style="stroke:#A80036;stroke-width:1.0;stroke-dasharray:7.0,7.0;"/><polygon fill="#A80036" points="246.73,562.08,239.0246,568.2141,244.4201,566.5144,246.1197,571.9099,246.73,562.08" style="stroke:#A80036;stroke-width:1.0;"/><!--MD5=[2c46739ec69633bb0ee3a4cb774bb427]
reverse link ShipBST to SearchShipController--><path codeLine="38" d="M267.78,431.2 C267.42,449.65 267.04,469.25 266.73,485.58 " fill="none" id="ShipBST-backto-SearchShipController" style="stroke:#A80036;stroke-width:1.0;stroke-dasharray:7.0,7.0;"/><polygon fill="#A80036" points="267.88,426.03,263.7263,434.9601,267.7943,431.0293,271.7251,435.0972,267.88,426.03" style="stroke:#A80036;stroke-width:1.0;"/><!--MD5=[38aa70d893a625648d3f7f015f685f9e]
reverse link Ship to ShipBST--><path codeLine="39" d="M237.27,254.02 C242.68,273.2 248.03,292.15 252.75,308.88 " fill="none" id="Ship-backto-ShipBST" style="stroke:#A80036;stroke-width:1.0;"/><polygon fill="#A80036" points="235.89,249.14,234.4895,258.8888,237.2504,253.9514,242.1878,256.7122,235.89,249.14" style="stroke:#A80036;stroke-width:1.0;"/><!--MD5=[b526154c8a3de609529553356ca77e71]
reverse link Ship to SearchShipUI--><path codeLine="40" d="M177.6,254.32 C174.86,272.6 172.52,291.24 171,309 C161.42,421.04 157.01,450.84 174,562 C177.1,582.26 183.44,604.38 189.09,621.62 " fill="none" id="Ship-backto-SearchShipUI" style="stroke:#A80036;stroke-width:1.0;stroke-dasharray:7.0,7.0;"/><polygon fill="#A80036" points="178.38,249.18,173.0868,257.4856,177.6369,254.1245,180.998,258.6745,178.38,249.18" style="stroke:#A80036;stroke-width:1.0;"/><!--MD5=[57b121dc59c30172b36d66e62a71722a]
@startuml
'https://plantuml.com/class-diagram

class SearchShipUI {
- controller
}

class SearchShipController {
- ShipBST
+ findShip(code)
}

class ShipBST {
+ findShip(code)
- determineCodeType(code)
- findShipByMMSI(MMSI)
- findShipByIMO(IMO)
- findShipByCallSign(CallSign)
}

class Ship {
-MMSI
-name
-IMO
-numberEnergyGenerators
-generatorPowerOutput
-callSign
-vesselType
-length
-width
-capacity
-draft
+ Ship(MMSI, name, IMO, numberEnergyGenerators,
          generatorPowerOutput, callSign, vesselType, length, width, capacity, draft)
+ toString()
}

SearchShipController <.. SearchShipUI
ShipBST <.. SearchShipController
Ship <- - ShipBST
Ship <.. SearchShipUI


@enduml

@startuml

class SearchShipUI {
- controller
}

class SearchShipController {
- ShipBST
+ findShip(code)
}

class ShipBST {
+ findShip(code)
- determineCodeType(code)
- findShipByMMSI(MMSI)
- findShipByIMO(IMO)
- findShipByCallSign(CallSign)
}

class Ship {
-MMSI
-name
-IMO
-numberEnergyGenerators
-generatorPowerOutput
-callSign
-vesselType
-length
-width
-capacity
-draft
+ Ship(MMSI, name, IMO, numberEnergyGenerators,
          generatorPowerOutput, callSign, vesselType, length, width, capacity, draft)
+ toString()
}

SearchShipController <.. SearchShipUI
ShipBST <.. SearchShipController
Ship <- - ShipBST
Ship <.. SearchShipUI


@enduml

PlantUML version 1.2021.00(Sun Jan 10 10:25:05 GMT 2021)
(GPL source distribution)
Java Runtime: OpenJDK Runtime Environment
JVM: OpenJDK 64-Bit Server VM
Default Encoding: Cp1252
Language: en
Country: GB
--></g></svg>