<?xml version="1.0" encoding="UTF-8" standalone="no"?><svg xmlns="http://www.w3.org/2000/svg" xmlns:xlink="http://www.w3.org/1999/xlink" contentScriptType="application/ecmascript" contentStyleType="text/css" height="675px" preserveAspectRatio="none" style="width:1318px;height:675px;" version="1.1" viewBox="0 0 1318 675" width="1318px" zoomAndPan="magnify"><defs><filter height="300%" id="f1pgmnc3ptfpis" width="300%" x="-1" y="-1"><feGaussianBlur result="blurOut" stdDeviation="2.0"/><feColorMatrix in="blurOut" result="blurOut2" type="matrix" values="0 0 0 0 0 0 0 0 0 0 0 0 0 0 0 0 0 0 .4 0"/><feOffset dx="4.0" dy="4.0" in="blurOut2" result="blurOut3"/><feBlend in="SourceGraphic" in2="blurOut3" mode="normal"/></filter></defs><g><rect fill="#FFFFFF" filter="url(#f1pgmnc3ptfpis)" height="471.8906" style="stroke:#A80036;stroke-width:1.0;" width="10" x="53" y="99.6094"/><rect fill="#FFFFFF" filter="url(#f1pgmnc3ptfpis)" height="449.5391" style="stroke:#A80036;stroke-width:1.0;" width="10" x="326" y="121.9609"/><rect fill="#FFFFFF" filter="url(#f1pgmnc3ptfpis)" height="427.1875" style="stroke:#A80036;stroke-width:1.0;" width="10" x="548" y="121.9609"/><rect fill="#FFFFFF" filter="url(#f1pgmnc3ptfpis)" height="30" style="stroke:#A80036;stroke-width:1.0;" width="10" x="914" y="243.3672"/><rect fill="#FFFFFF" filter="url(#f1pgmnc3ptfpis)" height="245.4297" style="stroke:#A80036;stroke-width:1.0;" width="10" x="1003.5" y="303.7188"/><rect fill="#FFFFFF" filter="url(#f1pgmnc3ptfpis)" height="180.0781" style="stroke:#000000;stroke-width:2.0;" width="344.5" x="960" y="362.0703"/><rect fill="#FFFFFF" height="59.1875" style="stroke:none;stroke-width:1.0;" width="344.5" x="960" y="423.7734"/><rect fill="#FFFFFF" height="59.1875" style="stroke:none;stroke-width:1.0;" width="344.5" x="960" y="482.9609"/><line style="stroke:#A80036;stroke-width:1.0;stroke-dasharray:5.0,5.0;" x1="58" x2="58" y1="89.6094" y2="589.5"/><line style="stroke:#A80036;stroke-width:1.0;stroke-dasharray:5.0,5.0;" x1="330.5" x2="330.5" y1="89.6094" y2="589.5"/><line style="stroke:#A80036;stroke-width:1.0;stroke-dasharray:5.0,5.0;" x1="552.5" x2="552.5" y1="89.6094" y2="589.5"/><line style="stroke:#A80036;stroke-width:1.0;stroke-dasharray:5.0,5.0;" x1="919" x2="919" y1="89.6094" y2="589.5"/><line style="stroke:#A80036;stroke-width:1.0;stroke-dasharray:5.0,5.0;" x1="1008" x2="1008" y1="89.6094" y2="589.5"/><text fill="#000000" font-family="sans-serif" font-size="14" lengthAdjust="spacing" textLength="100" x="5" y="86.5332">Traffic Manager</text><ellipse cx="58" cy="15" fill="#FEFECE" filter="url(#f1pgmnc3ptfpis)" rx="8" ry="8" style="stroke:#A80036;stroke-width:2.0;"/><path d="M58,23 L58,50 M45,31 L71,31 M58,50 L45,65 M58,50 L71,65 " fill="none" filter="url(#f1pgmnc3ptfpis)" style="stroke:#A80036;stroke-width:2.0;"/><text fill="#000000" font-family="sans-serif" font-size="14" lengthAdjust="spacing" textLength="100" x="5" y="603.0332">Traffic Manager</text><ellipse cx="58" cy="616.1094" fill="#FEFECE" filter="url(#f1pgmnc3ptfpis)" rx="8" ry="8" style="stroke:#A80036;stroke-width:2.0;"/><path d="M58,624.1094 L58,651.1094 M45,632.1094 L71,632.1094 M58,651.1094 L45,666.1094 M58,651.1094 L71,666.1094 " fill="none" filter="url(#f1pgmnc3ptfpis)" style="stroke:#A80036;stroke-width:2.0;"/><rect fill="#FEFECE" filter="url(#f1pgmnc3ptfpis)" height="31.6094" style="stroke:#A80036;stroke-width:1.5;" width="103" x="277.5" y="53"/><text fill="#000000" font-family="sans-serif" font-size="14" lengthAdjust="spacing" textLength="89" x="284.5" y="74.5332">:SearchShipUI</text><rect fill="#FEFECE" filter="url(#f1pgmnc3ptfpis)" height="31.6094" style="stroke:#A80036;stroke-width:1.5;" width="103" x="277.5" y="588.5"/><text fill="#000000" font-family="sans-serif" font-size="14" lengthAdjust="spacing" textLength="89" x="284.5" y="610.0332">:SearchShipUI</text><rect fill="#FEFECE" filter="url(#f1pgmnc3ptfpis)" height="31.6094" style="stroke:#A80036;stroke-width:1.5;" width="153" x="474.5" y="53"/><text fill="#000000" font-family="sans-serif" font-size="14" lengthAdjust="spacing" textLength="139" x="481.5" y="74.5332">:SearchShipController</text><rect fill="#FEFECE" filter="url(#f1pgmnc3ptfpis)" height="31.6094" style="stroke:#A80036;stroke-width:1.5;" width="153" x="474.5" y="588.5"/><text fill="#000000" font-family="sans-serif" font-size="14" lengthAdjust="spacing" textLength="139" x="481.5" y="610.0332">:SearchShipController</text><rect fill="#FEFECE" filter="url(#f1pgmnc3ptfpis)" height="31.6094" style="stroke:#A80036;stroke-width:1.5;" width="78" x="878" y="53"/><text fill="#000000" font-family="sans-serif" font-size="14" lengthAdjust="spacing" textLength="64" x="885" y="74.5332">:Company</text><rect fill="#FEFECE" filter="url(#f1pgmnc3ptfpis)" height="31.6094" style="stroke:#A80036;stroke-width:1.5;" width="78" x="878" y="588.5"/><text fill="#000000" font-family="sans-serif" font-size="14" lengthAdjust="spacing" textLength="64" x="885" y="610.0332">:Company</text><rect fill="#FEFECE" filter="url(#f1pgmnc3ptfpis)" height="31.6094" style="stroke:#A80036;stroke-width:1.5;" width="73" x="970" y="53"/><text fill="#000000" font-family="sans-serif" font-size="14" lengthAdjust="spacing" textLength="59" x="977" y="74.5332">:ShipBST</text><rect fill="#FEFECE" filter="url(#f1pgmnc3ptfpis)" height="31.6094" style="stroke:#A80036;stroke-width:1.5;" width="73" x="970" y="588.5"/><text fill="#000000" font-family="sans-serif" font-size="14" lengthAdjust="spacing" textLength="59" x="977" y="610.0332">:ShipBST</text><rect fill="#FFFFFF" filter="url(#f1pgmnc3ptfpis)" height="471.8906" style="stroke:#A80036;stroke-width:1.0;" width="10" x="53" y="99.6094"/><rect fill="#FFFFFF" filter="url(#f1pgmnc3ptfpis)" height="449.5391" style="stroke:#A80036;stroke-width:1.0;" width="10" x="326" y="121.9609"/><rect fill="#FFFFFF" filter="url(#f1pgmnc3ptfpis)" height="427.1875" style="stroke:#A80036;stroke-width:1.0;" width="10" x="548" y="121.9609"/><rect fill="#FFFFFF" filter="url(#f1pgmnc3ptfpis)" height="30" style="stroke:#A80036;stroke-width:1.0;" width="10" x="914" y="243.3672"/><rect fill="#FFFFFF" filter="url(#f1pgmnc3ptfpis)" height="245.4297" style="stroke:#A80036;stroke-width:1.0;" width="10" x="1003.5" y="303.7188"/><polygon fill="#A80036" points="314,117.9609,324,121.9609,314,125.9609,318,121.9609" style="stroke:#A80036;stroke-width:1.0;"/><line style="stroke:#A80036;stroke-width:1.0;" x1="63" x2="320" y1="121.9609" y2="121.9609"/><text fill="#000000" font-family="sans-serif" font-size="13" font-weight="bold" lengthAdjust="spacing" textLength="7" x="70" y="117.1045">1</text><text fill="#000000" font-family="sans-serif" font-size="13" lengthAdjust="spacing" textLength="141" x="81" y="117.1045">asks for details of a ship</text><polygon fill="#A80036" points="74,148.3125,64,152.3125,74,156.3125,70,152.3125" style="stroke:#A80036;stroke-width:1.0;"/><line style="stroke:#A80036;stroke-width:1.0;" x1="68" x2="325" y1="152.3125" y2="152.3125"/><text fill="#000000" font-family="sans-serif" font-size="13" font-weight="bold" lengthAdjust="spacing" textLength="7" x="80" y="147.4561">2</text><text fill="#000000" font-family="sans-serif" font-size="13" lengthAdjust="spacing" textLength="119" x="91" y="147.4561">requests data (code)</text><polygon fill="#A80036" points="314,178.6641,324,182.6641,314,186.6641,318,182.6641" style="stroke:#A80036;stroke-width:1.0;"/><line style="stroke:#A80036;stroke-width:1.0;" x1="63" x2="320" y1="182.6641" y2="182.6641"/><text fill="#000000" font-family="sans-serif" font-size="13" font-weight="bold" lengthAdjust="spacing" textLength="7" x="70" y="177.8076">3</text><text fill="#000000" font-family="sans-serif" font-size="13" lengthAdjust="spacing" textLength="122" x="81" y="177.8076">types requested data</text><polygon fill="#A80036" points="536,209.0156,546,213.0156,536,217.0156,540,213.0156" style="stroke:#A80036;stroke-width:1.0;"/><line style="stroke:#A80036;stroke-width:1.0;" x1="336" x2="542" y1="213.0156" y2="213.0156"/><text fill="#000000" font-family="sans-serif" font-size="13" font-weight="bold" lengthAdjust="spacing" textLength="18" x="343" y="208.1592">3.1</text><text fill="#000000" font-family="sans-serif" font-size="13" lengthAdjust="spacing" textLength="166" x="365" y="208.1592">chosenShip = findShip(code)</text><polygon fill="#A80036" points="902,239.3672,912,243.3672,902,247.3672,906,243.3672" style="stroke:#A80036;stroke-width:1.0;"/><line style="stroke:#A80036;stroke-width:1.0;" x1="558" x2="908" y1="243.3672" y2="243.3672"/><text fill="#000000" font-family="sans-serif" font-size="13" font-weight="bold" lengthAdjust="spacing" textLength="18" x="565" y="238.5107">3.2</text><text fill="#000000" font-family="sans-serif" font-size="13" lengthAdjust="spacing" textLength="315" x="587" y="238.5107">ships = App.getInstance().getCompany().getShipBST()</text><polygon fill="#A80036" points="991.5,299.7188,1001.5,303.7188,991.5,307.7188,995.5,303.7188" style="stroke:#A80036;stroke-width:1.0;"/><line style="stroke:#A80036;stroke-width:1.0;" x1="558" x2="997.5" y1="303.7188" y2="303.7188"/><text fill="#000000" font-family="sans-serif" font-size="13" font-weight="bold" lengthAdjust="spacing" textLength="18" x="565" y="298.8623">3.3</text><text fill="#000000" font-family="sans-serif" font-size="13" lengthAdjust="spacing" textLength="166" x="587" y="298.8623">chosenShip = findShip(code)</text><line style="stroke:#A80036;stroke-width:1.0;" x1="1013.5" x2="1055.5" y1="334.0703" y2="334.0703"/><line style="stroke:#A80036;stroke-width:1.0;" x1="1055.5" x2="1055.5" y1="334.0703" y2="347.0703"/><line style="stroke:#A80036;stroke-width:1.0;" x1="1014.5" x2="1055.5" y1="347.0703" y2="347.0703"/><polygon fill="#A80036" points="1024.5,343.0703,1014.5,347.0703,1024.5,351.0703,1020.5,347.0703" style="stroke:#A80036;stroke-width:1.0;"/><text fill="#000000" font-family="sans-serif" font-size="13" font-weight="bold" lengthAdjust="spacing" textLength="18" x="1020.5" y="329.2139">3.4</text><text fill="#000000" font-family="sans-serif" font-size="13" lengthAdjust="spacing" textLength="225" x="1042.5" y="329.2139">codeType = DetermineCodeType(code)</text><path d="M960,362.0703 L1021,362.0703 L1021,370.0703 L1011,380.0703 L960,380.0703 L960,362.0703 " fill="#EEEEEE" style="stroke:#000000;stroke-width:1.0;"/><rect fill="none" height="180.0781" style="stroke:#000000;stroke-width:2.0;" width="344.5" x="960" y="362.0703"/><text fill="#000000" font-family="sans-serif" font-size="13" font-weight="bold" lengthAdjust="spacing" textLength="16" x="975" y="376.5654">alt</text><text fill="#000000" font-family="sans-serif" font-size="11" font-weight="bold" lengthAdjust="spacing" textLength="104" x="1036" y="375.4893">[codeType = MMSI]</text><line style="stroke:#A80036;stroke-width:1.0;" x1="1013.5" x2="1055.5" y1="402.7734" y2="402.7734"/><line style="stroke:#A80036;stroke-width:1.0;" x1="1055.5" x2="1055.5" y1="402.7734" y2="415.7734"/><line style="stroke:#A80036;stroke-width:1.0;" x1="1014.5" x2="1055.5" y1="415.7734" y2="415.7734"/><polygon fill="#A80036" points="1024.5,411.7734,1014.5,415.7734,1024.5,419.7734,1020.5,415.7734" style="stroke:#A80036;stroke-width:1.0;"/><text fill="#000000" font-family="sans-serif" font-size="13" font-weight="bold" lengthAdjust="spacing" textLength="18" x="1020.5" y="397.917">3.5</text><text fill="#000000" font-family="sans-serif" font-size="13" lengthAdjust="spacing" textLength="222" x="1042.5" y="397.917">chosenShip = findShipByMMSI(MMSI)</text><line style="stroke:#000000;stroke-width:1.0;stroke-dasharray:2.0,2.0;" x1="960" x2="1304.5" y1="424.7734" y2="424.7734"/><text fill="#000000" font-family="sans-serif" font-size="11" font-weight="bold" lengthAdjust="spacing" textLength="95" x="965" y="436.1924">[codeType = IMO]</text><line style="stroke:#A80036;stroke-width:1.0;" x1="1013.5" x2="1055.5" y1="461.9609" y2="461.9609"/><line style="stroke:#A80036;stroke-width:1.0;" x1="1055.5" x2="1055.5" y1="461.9609" y2="474.9609"/><line style="stroke:#A80036;stroke-width:1.0;" x1="1014.5" x2="1055.5" y1="474.9609" y2="474.9609"/><polygon fill="#A80036" points="1024.5,470.9609,1014.5,474.9609,1024.5,478.9609,1020.5,474.9609" style="stroke:#A80036;stroke-width:1.0;"/><text fill="#000000" font-family="sans-serif" font-size="13" font-weight="bold" lengthAdjust="spacing" textLength="18" x="1020.5" y="457.1045">3.6</text><text fill="#000000" font-family="sans-serif" font-size="13" lengthAdjust="spacing" textLength="202" x="1042.5" y="457.1045">chosenShip = findShipByIMO(IMO)</text><line style="stroke:#000000;stroke-width:1.0;stroke-dasharray:2.0,2.0;" x1="960" x2="1304.5" y1="483.9609" y2="483.9609"/><text fill="#000000" font-family="sans-serif" font-size="11" font-weight="bold" lengthAdjust="spacing" textLength="118" x="965" y="495.3799">[codeType = CallSign]</text><line style="stroke:#A80036;stroke-width:1.0;" x1="1013.5" x2="1055.5" y1="521.1484" y2="521.1484"/><line style="stroke:#A80036;stroke-width:1.0;" x1="1055.5" x2="1055.5" y1="521.1484" y2="534.1484"/><line style="stroke:#A80036;stroke-width:1.0;" x1="1014.5" x2="1055.5" y1="534.1484" y2="534.1484"/><polygon fill="#A80036" points="1024.5,530.1484,1014.5,534.1484,1024.5,538.1484,1020.5,534.1484" style="stroke:#A80036;stroke-width:1.0;"/><text fill="#000000" font-family="sans-serif" font-size="13" font-weight="bold" lengthAdjust="spacing" textLength="18" x="1020.5" y="516.292">3.7</text><text fill="#000000" font-family="sans-serif" font-size="13" lengthAdjust="spacing" textLength="250" x="1042.5" y="516.292">chosenShip = findShipByCallSign(CallSign)</text><polygon fill="#A80036" points="69,567.5,59,571.5,69,575.5,65,571.5" style="stroke:#A80036;stroke-width:1.0;"/><line style="stroke:#A80036;stroke-width:1.0;stroke-dasharray:2.0,2.0;" x1="63" x2="330" y1="571.5" y2="571.5"/><text fill="#000000" font-family="sans-serif" font-size="13" font-weight="bold" lengthAdjust="spacing" textLength="7" x="75" y="566.6436">4</text><text fill="#000000" font-family="sans-serif" font-size="13" lengthAdjust="spacing" textLength="228" x="86" y="566.6436">shows details of the corresponding ship</text><!--MD5=[67582a6f83bbec3a9735f880292e6ff5]
@startuml
autonumber

'hide footbox
actor "Traffic Manager" as TM

participant ":SearchShipUI" as UI
participant ":SearchShipController" as CTRL
participant ":Company" as COMP
participant ":ShipBST" as BST

activate TM
TM -> UI : asks for details of a ship
activate UI
activate CTRL

UI -> TM : requests data (code)
TM -> UI : types requested data

autonumber 3.1

UI -> CTRL : chosenShip = findShip(code)

CTRL -> COMP : ships = App.getInstance().getCompany().getShipBST()
activate COMP
deactivate COMP

CTRL -> BST : chosenShip = findShip(code)
activate BST



BST -> BST : codeType = DetermineCodeType(code)

alt codeType = MMSI
  BST -> BST : chosenShip = findShipByMMSI(MMSI)
else codeType = IMO
  BST -> BST : chosenShip = findShipByIMO(IMO)
else codeType = CallSign
  BST -> BST : chosenShip = findShipByCallSign(CallSign)
end

deactivate BST
deactivate CTRL

autonumber 4
UI - -> TM : shows details of the corresponding ship
deactivate UI

deactivate TM

@enduml

@startuml
autonumber

actor "Traffic Manager" as TM

participant ":SearchShipUI" as UI
participant ":SearchShipController" as CTRL
participant ":Company" as COMP
participant ":ShipBST" as BST

activate TM
TM -> UI : asks for details of a ship
activate UI
activate CTRL

UI -> TM : requests data (code)
TM -> UI : types requested data

autonumber 3.1

UI -> CTRL : chosenShip = findShip(code)

CTRL -> COMP : ships = App.getInstance().getCompany().getShipBST()
activate COMP
deactivate COMP

CTRL -> BST : chosenShip = findShip(code)
activate BST



BST -> BST : codeType = DetermineCodeType(code)

alt codeType = MMSI
  BST -> BST : chosenShip = findShipByMMSI(MMSI)
else codeType = IMO
  BST -> BST : chosenShip = findShipByIMO(IMO)
else codeType = CallSign
  BST -> BST : chosenShip = findShipByCallSign(CallSign)
end

deactivate BST
deactivate CTRL

autonumber 4
UI - -> TM : shows details of the corresponding ship
deactivate UI

deactivate TM

@enduml

PlantUML version 1.2021.00(Sun Jan 10 10:25:05 GMT 2021)
(GPL source distribution)
Java Runtime: OpenJDK Runtime Environment
JVM: OpenJDK 64-Bit Server VM
Default Encoding: Cp1252
Language: en
Country: GB
--></g></svg>