<?xml version="1.0" encoding="UTF-8" standalone="no"?><svg xmlns="http://www.w3.org/2000/svg" xmlns:xlink="http://www.w3.org/1999/xlink" contentScriptType="application/ecmascript" contentStyleType="text/css" height="781px" preserveAspectRatio="none" style="width:483px;height:781px;" version="1.1" viewBox="0 0 483 781" width="483px" zoomAndPan="magnify"><defs><filter height="300%" id="fltzxhelz52jn" width="300%" x="-1" y="-1"><feGaussianBlur result="blurOut" stdDeviation="2.0"/><feColorMatrix in="blurOut" result="blurOut2" type="matrix" values="0 0 0 0 0 0 0 0 0 0 0 0 0 0 0 0 0 0 .4 0"/><feOffset dx="4.0" dy="4.0" in="blurOut2" result="blurOut3"/><feBlend in="SourceGraphic" in2="blurOut3" mode="normal"/></filter></defs><g><!--MD5=[31cc0cbb183fe7a680064cf37ed0e451]
class RefrigeratedContainerUI--><rect codeLine="3" fill="#FEFECE" filter="url(#fltzxhelz52jn)" height="61.8359" id="RefrigeratedContainerUI" style="stroke:#A80036;stroke-width:1.5;" width="166" x="110" y="706"/><ellipse cx="125" cy="722" fill="#ADD1B2" rx="11" ry="11" style="stroke:#A80036;stroke-width:1.0;"/><path d="M127,718.5 Q127.2031,718 127.4375,717.75 Q127.6719,717.5 127.9375,717.5 Q128.4063,717.5 128.7031,717.7813 Q129,718.0625 129,718.7188 L129,720.2813 Q129,720.9375 128.7188,721.2188 Q128.4375,721.5 128,721.5 Q127.6094,721.5 127.3594,721.3281 Q127.1094,721.1563 127,720.7031 Q126.9531,720.3906 126.7813,720.2188 Q126.4688,719.8906 125.9063,719.7031 Q125.3438,719.5 124.7813,719.5 Q124.0781,719.5 123.4844,719.7813 Q122.9063,720.0625 122.4531,720.6875 Q122,721.3125 122,722.1719 L122,723.0938 Q122,724.125 122.8438,724.8125 Q123.6875,725.5 125.1875,725.5 Q126.0781,725.5 126.7031,725.2969 Q127.0625,725.1875 127.4688,724.8281 Q127.7344,724.625 127.875,724.5625 Q128.0156,724.5 128.1875,724.5 Q128.5156,724.5 128.75,724.7656 Q129,725.0156 129,725.375 Q129,725.7188 128.6563,726.125 Q128.1563,726.7188 127.3594,727.0469 Q126.3125,727.5 125.0313,727.5 Q123.5313,727.5 122.3281,726.9063 Q121.3594,726.4375 120.6719,725.4219 Q120,724.4063 120,723.2031 L120,722.1094 Q120,720.8594 120.5938,719.7656 Q121.2031,718.6719 122.25,718.0938 Q123.3125,717.5 124.5,717.5 Q125.2188,717.5 125.8438,717.75 Q126.4688,718 127,718.5 Z " fill="#000000"/><text fill="#000000" font-family="sans-serif" font-size="12" lengthAdjust="spacing" textLength="134" x="139" y="726.9102">RefrigeratedContainerUI</text><line style="stroke:#A80036;stroke-width:1.5;" x1="111" x2="275" y1="738" y2="738"/><rect fill="none" height="6" style="stroke:#C82930;stroke-width:1.0;" width="6" x="118" y="746"/><text fill="#000000" font-family="sans-serif" font-size="11" lengthAdjust="spacing" textLength="45" x="130" y="753.4189">controller</text><line style="stroke:#A80036;stroke-width:1.5;" x1="111" x2="275" y1="759.8359" y2="759.8359"/><!--MD5=[abbc0f3b913674879ac1da31683b8c4d]
class RefrigeratedContainerController--><rect codeLine="7" fill="#FEFECE" filter="url(#fltzxhelz52jn)" height="172.5234" id="RefrigeratedContainerController" style="stroke:#A80036;stroke-width:1.5;" width="372" x="7" y="473"/><ellipse cx="100.75" cy="489" fill="#ADD1B2" rx="11" ry="11" style="stroke:#A80036;stroke-width:1.0;"/><path d="M102.75,485.5 Q102.9531,485 103.1875,484.75 Q103.4219,484.5 103.6875,484.5 Q104.1563,484.5 104.4531,484.7813 Q104.75,485.0625 104.75,485.7188 L104.75,487.2813 Q104.75,487.9375 104.4688,488.2188 Q104.1875,488.5 103.75,488.5 Q103.3594,488.5 103.1094,488.3281 Q102.8594,488.1563 102.75,487.7031 Q102.7031,487.3906 102.5313,487.2188 Q102.2188,486.8906 101.6563,486.7031 Q101.0938,486.5 100.5313,486.5 Q99.8281,486.5 99.2344,486.7813 Q98.6563,487.0625 98.2031,487.6875 Q97.75,488.3125 97.75,489.1719 L97.75,490.0938 Q97.75,491.125 98.5938,491.8125 Q99.4375,492.5 100.9375,492.5 Q101.8281,492.5 102.4531,492.2969 Q102.8125,492.1875 103.2188,491.8281 Q103.4844,491.625 103.625,491.5625 Q103.7656,491.5 103.9375,491.5 Q104.2656,491.5 104.5,491.7656 Q104.75,492.0156 104.75,492.375 Q104.75,492.7188 104.4063,493.125 Q103.9063,493.7188 103.1094,494.0469 Q102.0625,494.5 100.7813,494.5 Q99.2813,494.5 98.0781,493.9063 Q97.1094,493.4375 96.4219,492.4219 Q95.75,491.4063 95.75,490.2031 L95.75,489.1094 Q95.75,487.8594 96.3438,486.7656 Q96.9531,485.6719 98,485.0938 Q99.0625,484.5 100.25,484.5 Q100.9688,484.5 101.5938,484.75 Q102.2188,485 102.75,485.5 Z " fill="#000000"/><text fill="#000000" font-family="sans-serif" font-size="12" lengthAdjust="spacing" textLength="176" x="121.25" y="493.9102">RefrigeratedContainerController</text><line style="stroke:#A80036;stroke-width:1.5;" x1="8" x2="378" y1="505" y2="505"/><line style="stroke:#A80036;stroke-width:1.5;" x1="8" x2="378" y1="513" y2="513"/><ellipse cx="18" cy="524" fill="#84BE84" rx="3" ry="3" style="stroke:#038048;stroke-width:1.0;"/><text fill="#000000" font-family="sans-serif" font-size="11" lengthAdjust="spacing" textLength="300" x="27" y="528.4189">refrigeratedContainer(List&lt;Pair&lt;WallMaterial,Double&gt;&gt; topWall,</text><text fill="#000000" font-family="sans-serif" font-size="11" lengthAdjust="spacing" textLength="193" x="27" y="542.2549">List&lt;Pair&lt;WallMaterial,Double&gt;&gt; leftWall,</text><text fill="#000000" font-family="sans-serif" font-size="11" lengthAdjust="spacing" textLength="199" x="27" y="556.0908">List&lt;Pair&lt;WallMaterial,Double&gt;&gt; rightWall,</text><text fill="#000000" font-family="sans-serif" font-size="11" lengthAdjust="spacing" textLength="211" x="27" y="569.9268">List&lt;Pair&lt;WallMaterial,Double&gt;&gt; bottomWall)</text><ellipse cx="18" cy="579.3438" fill="#84BE84" rx="3" ry="3" style="stroke:#038048;stroke-width:1.0;"/><text fill="#000000" font-family="sans-serif" font-size="11" lengthAdjust="spacing" textLength="300" x="27" y="583.7627">refrigeratedContainer(List&lt;Pair&lt;WallMaterial,Double&gt;&gt; topWall,</text><text fill="#000000" font-family="sans-serif" font-size="11" lengthAdjust="spacing" textLength="193" x="27" y="597.5986">List&lt;Pair&lt;WallMaterial,Double&gt;&gt; leftWall,</text><text fill="#000000" font-family="sans-serif" font-size="11" lengthAdjust="spacing" textLength="199" x="27" y="611.4346">List&lt;Pair&lt;WallMaterial,Double&gt;&gt; rightWall,</text><text fill="#000000" font-family="sans-serif" font-size="11" lengthAdjust="spacing" textLength="210" x="27" y="625.2705">List&lt;Pair&lt;WallMaterial,Double&gt;&gt; bottomWall,</text><text fill="#000000" font-family="sans-serif" font-size="11" lengthAdjust="spacing" textLength="346" x="27" y="639.1064">double containerLength, double containerWidth, double containerHeight)</text><!--MD5=[41e05d38b9bd7165fb9c484fa9669a45]
class RefrigeratedContainer--><rect codeLine="12" fill="#FEFECE" filter="url(#fltzxhelz52jn)" height="255.5391" id="RefrigeratedContainer" style="stroke:#A80036;stroke-width:1.5;" width="332" x="137" y="157"/><ellipse cx="237.75" cy="173" fill="#ADD1B2" rx="11" ry="11" style="stroke:#A80036;stroke-width:1.0;"/><path d="M239.75,169.5 Q239.9531,169 240.1875,168.75 Q240.4219,168.5 240.6875,168.5 Q241.1563,168.5 241.4531,168.7813 Q241.75,169.0625 241.75,169.7188 L241.75,171.2813 Q241.75,171.9375 241.4688,172.2188 Q241.1875,172.5 240.75,172.5 Q240.3594,172.5 240.1094,172.3281 Q239.8594,172.1563 239.75,171.7031 Q239.7031,171.3906 239.5313,171.2188 Q239.2188,170.8906 238.6563,170.7031 Q238.0938,170.5 237.5313,170.5 Q236.8281,170.5 236.2344,170.7813 Q235.6563,171.0625 235.2031,171.6875 Q234.75,172.3125 234.75,173.1719 L234.75,174.0938 Q234.75,175.125 235.5938,175.8125 Q236.4375,176.5 237.9375,176.5 Q238.8281,176.5 239.4531,176.2969 Q239.8125,176.1875 240.2188,175.8281 Q240.4844,175.625 240.625,175.5625 Q240.7656,175.5 240.9375,175.5 Q241.2656,175.5 241.5,175.7656 Q241.75,176.0156 241.75,176.375 Q241.75,176.7188 241.4063,177.125 Q240.9063,177.7188 240.1094,178.0469 Q239.0625,178.5 237.7813,178.5 Q236.2813,178.5 235.0781,177.9063 Q234.1094,177.4375 233.4219,176.4219 Q232.75,175.4063 232.75,174.2031 L232.75,173.1094 Q232.75,171.8594 233.3438,170.7656 Q233.9531,169.6719 235,169.0938 Q236.0625,168.5 237.25,168.5 Q237.9688,168.5 238.5938,168.75 Q239.2188,169 239.75,169.5 Z " fill="#000000"/><text fill="#000000" font-family="sans-serif" font-size="12" lengthAdjust="spacing" textLength="122" x="258.25" y="177.9102">RefrigeratedContainer</text><line style="stroke:#A80036;stroke-width:1.5;" x1="138" x2="468" y1="189" y2="189"/><rect fill="none" height="6" style="stroke:#C82930;stroke-width:1.0;" width="6" x="145" y="197"/><text fill="#000000" font-family="sans-serif" font-size="11" lengthAdjust="spacing" textLength="64" x="157" y="204.4189">double length</text><rect fill="none" height="6" style="stroke:#C82930;stroke-width:1.0;" width="6" x="145" y="210.8359"/><text fill="#000000" font-family="sans-serif" font-size="11" lengthAdjust="spacing" textLength="62" x="157" y="218.2549">double width</text><rect fill="none" height="6" style="stroke:#C82930;stroke-width:1.0;" width="6" x="145" y="224.6719"/><text fill="#000000" font-family="sans-serif" font-size="11" lengthAdjust="spacing" textLength="64" x="157" y="232.0908">double height</text><text fill="#000000" font-family="sans-serif" font-size="11" lengthAdjust="spacing" textLength="0" x="160" y="245.9268"/><rect fill="none" height="6" style="stroke:#C82930;stroke-width:1.0;" width="6" x="145" y="252.3438"/><text fill="#000000" font-family="sans-serif" font-size="11" lengthAdjust="spacing" textLength="190" x="157" y="259.7627">List&lt;Pair&lt;WallMaterial,Double&gt;&gt; topWall</text><rect fill="none" height="6" style="stroke:#C82930;stroke-width:1.0;" width="6" x="145" y="266.1797"/><text fill="#000000" font-family="sans-serif" font-size="11" lengthAdjust="spacing" textLength="190" x="157" y="273.5986">List&lt;Pair&lt;WallMaterial,Double&gt;&gt; leftWall</text><rect fill="none" height="6" style="stroke:#C82930;stroke-width:1.0;" width="6" x="145" y="280.0156"/><text fill="#000000" font-family="sans-serif" font-size="11" lengthAdjust="spacing" textLength="196" x="157" y="287.4346">List&lt;Pair&lt;WallMaterial,Double&gt;&gt; rightWall</text><rect fill="none" height="6" style="stroke:#C82930;stroke-width:1.0;" width="6" x="145" y="293.8516"/><text fill="#000000" font-family="sans-serif" font-size="11" lengthAdjust="spacing" textLength="207" x="157" y="301.2705">List&lt;Pair&lt;WallMaterial,Double&gt;&gt; bottomWall</text><line style="stroke:#A80036;stroke-width:1.5;" x1="138" x2="468" y1="307.6875" y2="307.6875"/><ellipse cx="148" cy="318.6875" fill="#84BE84" rx="3" ry="3" style="stroke:#038048;stroke-width:1.0;"/><text fill="#000000" font-family="sans-serif" font-size="11" lengthAdjust="spacing" textLength="306" x="157" y="323.1064">RefrigeratedContainer(List&lt;Pair&lt;WallMaterial, Double&gt;&gt; topWall,</text><text fill="#000000" font-family="sans-serif" font-size="11" lengthAdjust="spacing" textLength="196" x="160" y="336.9424">List&lt;Pair&lt;WallMaterial, Double&gt;&gt; leftWall,</text><text fill="#000000" font-family="sans-serif" font-size="11" lengthAdjust="spacing" textLength="202" x="160" y="350.7783">List&lt;Pair&lt;WallMaterial, Double&gt;&gt; rightWall,</text><text fill="#000000" font-family="sans-serif" font-size="11" lengthAdjust="spacing" textLength="214" x="160" y="364.6143">List&lt;Pair&lt;WallMaterial, Double&gt;&gt; bottomWall)</text><ellipse cx="148" cy="374.0313" fill="#84BE84" rx="3" ry="3" style="stroke:#038048;stroke-width:1.0;"/><text fill="#000000" font-family="sans-serif" font-size="11" lengthAdjust="spacing" textLength="292" x="157" y="378.4502">RefrigeratedContainer(List&lt;Pair&lt;WallMaterial, Double&gt;&gt; wall)</text><rect fill="#F24D5C" height="6" style="stroke:#C82930;stroke-width:1.0;" width="6" x="145" y="384.8672"/><text fill="#000000" font-family="sans-serif" font-size="11" lengthAdjust="spacing" textLength="115" x="157" y="392.2861">getThremalResistance()</text><ellipse cx="148" cy="401.7031" fill="#84BE84" rx="3" ry="3" style="stroke:#038048;stroke-width:1.0;"/><text fill="#000000" font-family="sans-serif" font-size="11" lengthAdjust="spacing" textLength="45" x="157" y="406.1221">toString()</text><!--MD5=[83879d05f219d685e62baf7b8c4f1ad1]
class WallMaterial--><rect codeLine="28" fill="#FEFECE" filter="url(#fltzxhelz52jn)" height="89.5078" id="WallMaterial" style="stroke:#A80036;stroke-width:1.5;" width="131" x="127.5" y="7"/><ellipse cx="156.9" cy="23" fill="#EB937F" rx="11" ry="11" style="stroke:#A80036;stroke-width:1.0;"/><path d="M155.4,24 L155.4,26 L159.4,26 L159.4,25 L159.4,24.5156 L160.025,24 L160.4,24 L160.775,24 L161.4,24.5156 L161.4,25 L161.4,28 L153.4,28 L152.9156,28 L152.4,27.375 L152.4,27 L152.4,26.625 L152.9156,26 L153.4,26 L153.4,26 L153.4,20 L153.4,20 L152.9156,20 L152.4,19.375 L152.4,19 L152.4,18.625 L152.9156,18 L153.4,18 L161.4,18 L161.4,21 L161.4,21.4844 L160.775,22 L160.4,22 L160.025,22 L159.4,21.4844 L159.4,21 L159.4,20 L155.4,20 L155.4,22 L156.4,22 L156.4,21.5156 L156.4,21.5156 L157.025,21 L157.4,21 L157.775,21 L158.4,21.5156 L158.4,22 L158.4,24 L158.4,24.4844 L157.775,25 L157.775,25 L157.4,25 L157.025,25 L156.4,24.4844 L156.4,24.4844 L156.4,24 L155.4,24 Z " fill="#000000"/><text fill="#000000" font-family="sans-serif" font-size="12" lengthAdjust="spacing" textLength="67" x="174.1" y="27.9102">WallMaterial</text><line style="stroke:#A80036;stroke-width:1.5;" x1="128.5" x2="257.5" y1="39" y2="39"/><rect fill="none" height="6" style="stroke:#C82930;stroke-width:1.0;" width="6" x="135.5" y="47"/><text fill="#000000" font-family="sans-serif" font-size="11" lengthAdjust="spacing" textLength="40" x="147.5" y="54.4189">double k</text><line style="stroke:#A80036;stroke-width:1.5;" x1="128.5" x2="257.5" y1="60.8359" y2="60.8359"/><ellipse cx="138.5" cy="71.8359" fill="#84BE84" rx="3" ry="3" style="stroke:#038048;stroke-width:1.0;"/><text fill="#000000" font-family="sans-serif" font-size="11" lengthAdjust="spacing" textLength="105" x="147.5" y="76.2549">WallMaterial(double k)</text><ellipse cx="138.5" cy="85.6719" fill="#84BE84" rx="3" ry="3" style="stroke:#038048;stroke-width:1.0;"/><text fill="#000000" font-family="sans-serif" font-size="11" lengthAdjust="spacing" textLength="30" x="147.5" y="90.0908">getK()</text><!--MD5=[4d0256a013a4bfb4b2eb935e2fd4c2fc]
reverse link RefrigeratedContainerController to RefrigeratedContainerUI--><path codeLine="35" d="M193,651.21 C193,670.94 193,690.47 193,705.8 " fill="none" id="RefrigeratedContainerController-backto-RefrigeratedContainerUI" style="stroke:#A80036;stroke-width:1.0;stroke-dasharray:7.0,7.0;"/><polygon fill="#A80036" points="193,646.19,189,655.19,193,651.19,197,655.19,193,646.19" style="stroke:#A80036;stroke-width:1.0;"/><!--MD5=[4d981341c84934406da29d723d29811d]
reverse link RefrigeratedContainer to RefrigeratedContainerController--><path codeLine="36" d="M249.79,417.83 C242.23,436.53 234.64,455.35 227.57,472.86 " fill="none" id="RefrigeratedContainer-backto-RefrigeratedContainerController" style="stroke:#A80036;stroke-width:1.0;"/><polygon fill="#A80036" points="251.7,413.08,244.6181,419.9244,249.8258,417.7154,252.0348,422.9232,251.7,413.08" style="stroke:#A80036;stroke-width:1.0;"/><!--MD5=[ebe2b2b44b359b4d49938f6f847fc61c]
reverse link WallMaterial to RefrigeratedContainer--><path codeLine="37" d="M216.24,101.8 C224.02,118.14 233.09,137.18 242.37,156.68 " fill="none" id="WallMaterial-backto-RefrigeratedContainer" style="stroke:#A80036;stroke-width:1.0;"/><polygon fill="#A80036" points="214.08,97.27,214.3259,107.1158,216.2241,101.7869,221.553,103.6852,214.08,97.27" style="stroke:#A80036;stroke-width:1.0;"/><!--MD5=[f02e82c970fba720d8a55ad45e883389]
reverse link WallMaterial to RefrigeratedContainerController--><path codeLine="38" d="M149.99,101.22 C137.87,117.75 126.28,137.12 120,157 C85.72,265.49 93.78,302.28 120,413 C124.79,433.21 132.84,453.81 141.89,472.91 " fill="none" id="WallMaterial-backto-RefrigeratedContainerController" style="stroke:#A80036;stroke-width:1.0;stroke-dasharray:7.0,7.0;"/><polygon fill="#A80036" points="153.08,97.08,144.4993,101.9143,150.096,101.092,150.9184,106.6887,153.08,97.08" style="stroke:#A80036;stroke-width:1.0;"/><!--MD5=[69c8950fcacd17f37927a2dd64aa765a]
@startuml
'https://plantuml.com/class-diagram

class RefrigeratedContainerUI {
- controller
}

class RefrigeratedContainerController {
+ refrigeratedContainer(List<Pair<WallMaterial,Double>> topWall,\nList<Pair<WallMaterial,Double>> leftWall,\nList<Pair<WallMaterial,Double>> rightWall,\nList<Pair<WallMaterial,Double>> bottomWall)
+ refrigeratedContainer(List<Pair<WallMaterial,Double>> topWall,\nList<Pair<WallMaterial,Double>> leftWall,\nList<Pair<WallMaterial,Double>> rightWall,\nList<Pair<WallMaterial,Double>> bottomWall,\ndouble containerLength, double containerWidth, double containerHeight)
}

class RefrigeratedContainer {
- double length
- double width
- double height

- List<Pair<WallMaterial,Double>> topWall
- List<Pair<WallMaterial,Double>> leftWall
- List<Pair<WallMaterial,Double>> rightWall
- List<Pair<WallMaterial,Double>> bottomWall

+ RefrigeratedContainer(List<Pair<WallMaterial, Double>> topWall,\n List<Pair<WallMaterial, Double>> leftWall,\n List<Pair<WallMaterial, Double>> rightWall,\n List<Pair<WallMaterial, Double>> bottomWall)
+ RefrigeratedContainer(List<Pair<WallMaterial, Double>> wall)
- getThremalResistance()
+ toString()
}

enum WallMaterial {
- double k
+ WallMaterial(double k)
+ getK()
}


RefrigeratedContainerController <.. RefrigeratedContainerUI
RefrigeratedContainer <- - RefrigeratedContainerController
WallMaterial <- - RefrigeratedContainer
WallMaterial <.. RefrigeratedContainerController

@enduml

@startuml

class RefrigeratedContainerUI {
- controller
}

class RefrigeratedContainerController {
+ refrigeratedContainer(List<Pair<WallMaterial,Double>> topWall,\nList<Pair<WallMaterial,Double>> leftWall,\nList<Pair<WallMaterial,Double>> rightWall,\nList<Pair<WallMaterial,Double>> bottomWall)
+ refrigeratedContainer(List<Pair<WallMaterial,Double>> topWall,\nList<Pair<WallMaterial,Double>> leftWall,\nList<Pair<WallMaterial,Double>> rightWall,\nList<Pair<WallMaterial,Double>> bottomWall,\ndouble containerLength, double containerWidth, double containerHeight)
}

class RefrigeratedContainer {
- double length
- double width
- double height

- List<Pair<WallMaterial,Double>> topWall
- List<Pair<WallMaterial,Double>> leftWall
- List<Pair<WallMaterial,Double>> rightWall
- List<Pair<WallMaterial,Double>> bottomWall

+ RefrigeratedContainer(List<Pair<WallMaterial, Double>> topWall,\n List<Pair<WallMaterial, Double>> leftWall,\n List<Pair<WallMaterial, Double>> rightWall,\n List<Pair<WallMaterial, Double>> bottomWall)
+ RefrigeratedContainer(List<Pair<WallMaterial, Double>> wall)
- getThremalResistance()
+ toString()
}

enum WallMaterial {
- double k
+ WallMaterial(double k)
+ getK()
}


RefrigeratedContainerController <.. RefrigeratedContainerUI
RefrigeratedContainer <- - RefrigeratedContainerController
WallMaterial <- - RefrigeratedContainer
WallMaterial <.. RefrigeratedContainerController

@enduml

PlantUML version 1.2021.00(Sun Jan 10 10:25:05 GMT 2021)
(GPL source distribution)
Java Runtime: OpenJDK Runtime Environment
JVM: OpenJDK 64-Bit Server VM
Default Encoding: Cp1252
Language: pt
Country: PT
--></g></svg>