<?xml version="1.0" encoding="UTF-8" standalone="no"?><svg xmlns="http://www.w3.org/2000/svg" xmlns:xlink="http://www.w3.org/1999/xlink" contentScriptType="application/ecmascript" contentStyleType="text/css" height="737px" preserveAspectRatio="none" style="width:1885px;height:737px;" version="1.1" viewBox="0 0 1885 737" width="1885px" zoomAndPan="magnify"><defs><filter height="300%" id="f1xgm5rz6ggja8" width="300%" x="-1" y="-1"><feGaussianBlur result="blurOut" stdDeviation="2.0"/><feColorMatrix in="blurOut" result="blurOut2" type="matrix" values="0 0 0 0 0 0 0 0 0 0 0 0 0 0 0 0 0 0 .4 0"/><feOffset dx="4.0" dy="4.0" in="blurOut2" result="blurOut3"/><feBlend in="SourceGraphic" in2="blurOut3" mode="normal"/></filter></defs><g><!--MD5=[02e4b9b7573f1156f41e60aa5b4e25a4]
class Company--><rect codeLine="5" fill="#FEFECE" filter="url(#f1xgm5rz6ggja8)" height="61.8359" id="Company" style="stroke:#A80036;stroke-width:1.5;" width="85" x="965.5" y="7"/><ellipse cx="980.5" cy="23" fill="#ADD1B2" rx="11" ry="11" style="stroke:#A80036;stroke-width:1.0;"/><path d="M982.5,19.5 Q982.7031,19 982.9375,18.75 Q983.1719,18.5 983.4375,18.5 Q983.9063,18.5 984.2031,18.7813 Q984.5,19.0625 984.5,19.7188 L984.5,21.2813 Q984.5,21.9375 984.2188,22.2188 Q983.9375,22.5 983.5,22.5 Q983.1094,22.5 982.8594,22.3281 Q982.6094,22.1563 982.5,21.7031 Q982.4531,21.3906 982.2813,21.2188 Q981.9688,20.8906 981.4063,20.7031 Q980.8438,20.5 980.2813,20.5 Q979.5781,20.5 978.9844,20.7813 Q978.4063,21.0625 977.9531,21.6875 Q977.5,22.3125 977.5,23.1719 L977.5,24.0938 Q977.5,25.125 978.3438,25.8125 Q979.1875,26.5 980.6875,26.5 Q981.5781,26.5 982.2031,26.2969 Q982.5625,26.1875 982.9688,25.8281 Q983.2344,25.625 983.375,25.5625 Q983.5156,25.5 983.6875,25.5 Q984.0156,25.5 984.25,25.7656 Q984.5,26.0156 984.5,26.375 Q984.5,26.7188 984.1563,27.125 Q983.6563,27.7188 982.8594,28.0469 Q981.8125,28.5 980.5313,28.5 Q979.0313,28.5 977.8281,27.9063 Q976.8594,27.4375 976.1719,26.4219 Q975.5,25.4063 975.5,24.2031 L975.5,23.1094 Q975.5,21.8594 976.0938,20.7656 Q976.7031,19.6719 977.75,19.0938 Q978.8125,18.5 980,18.5 Q980.7188,18.5 981.3438,18.75 Q981.9688,19 982.5,19.5 Z " fill="#000000"/><text fill="#000000" font-family="sans-serif" font-size="12" lengthAdjust="spacing" textLength="53" x="994.5" y="27.9102">Company</text><line style="stroke:#A80036;stroke-width:1.5;" x1="966.5" x2="1049.5" y1="39" y2="39"/><text fill="#000000" font-family="sans-serif" font-size="11" lengthAdjust="spacing" textLength="60" x="971.5" y="54.4189">-Designation</text><line style="stroke:#A80036;stroke-width:1.5;" x1="966.5" x2="1049.5" y1="60.8359" y2="60.8359"/><!--MD5=[e9a58730c562b34349daa605d1ed6662]
class Container--><rect codeLine="9" fill="#FEFECE" filter="url(#f1xgm5rz6ggja8)" height="172.5234" id="Container" style="stroke:#A80036;stroke-width:1.5;" width="86" x="800" y="551"/><ellipse cx="815" cy="567" fill="#ADD1B2" rx="11" ry="11" style="stroke:#A80036;stroke-width:1.0;"/><path d="M817,563.5 Q817.2031,563 817.4375,562.75 Q817.6719,562.5 817.9375,562.5 Q818.4063,562.5 818.7031,562.7813 Q819,563.0625 819,563.7188 L819,565.2813 Q819,565.9375 818.7188,566.2188 Q818.4375,566.5 818,566.5 Q817.6094,566.5 817.3594,566.3281 Q817.1094,566.1563 817,565.7031 Q816.9531,565.3906 816.7813,565.2188 Q816.4688,564.8906 815.9063,564.7031 Q815.3438,564.5 814.7813,564.5 Q814.0781,564.5 813.4844,564.7813 Q812.9063,565.0625 812.4531,565.6875 Q812,566.3125 812,567.1719 L812,568.0938 Q812,569.125 812.8438,569.8125 Q813.6875,570.5 815.1875,570.5 Q816.0781,570.5 816.7031,570.2969 Q817.0625,570.1875 817.4688,569.8281 Q817.7344,569.625 817.875,569.5625 Q818.0156,569.5 818.1875,569.5 Q818.5156,569.5 818.75,569.7656 Q819,570.0156 819,570.375 Q819,570.7188 818.6563,571.125 Q818.1563,571.7188 817.3594,572.0469 Q816.3125,572.5 815.0313,572.5 Q813.5313,572.5 812.3281,571.9063 Q811.3594,571.4375 810.6719,570.4219 Q810,569.4063 810,568.2031 L810,567.1094 Q810,565.8594 810.5938,564.7656 Q811.2031,563.6719 812.25,563.0938 Q813.3125,562.5 814.5,562.5 Q815.2188,562.5 815.8438,562.75 Q816.4688,563 817,563.5 Z " fill="#000000"/><text fill="#000000" font-family="sans-serif" font-size="12" lengthAdjust="spacing" textLength="54" x="829" y="571.9102">Container</text><line style="stroke:#A80036;stroke-width:1.5;" x1="801" x2="885" y1="583" y2="583"/><text fill="#000000" font-family="sans-serif" font-size="11" lengthAdjust="spacing" textLength="64" x="806" y="598.4189">-Identification</text><text fill="#000000" font-family="sans-serif" font-size="11" lengthAdjust="spacing" textLength="42" x="806" y="612.2549">-Payload</text><text fill="#000000" font-family="sans-serif" font-size="11" lengthAdjust="spacing" textLength="26" x="806" y="626.0908">-Tare</text><text fill="#000000" font-family="sans-serif" font-size="11" lengthAdjust="spacing" textLength="34" x="806" y="639.9268">-Gross</text><text fill="#000000" font-family="sans-serif" font-size="11" lengthAdjust="spacing" textLength="31" x="806" y="653.7627">-Width</text><text fill="#000000" font-family="sans-serif" font-size="11" lengthAdjust="spacing" textLength="34" x="806" y="667.5986">-Height</text><text fill="#000000" font-family="sans-serif" font-size="11" lengthAdjust="spacing" textLength="37" x="806" y="681.4346">-Length</text><text fill="#000000" font-family="sans-serif" font-size="11" lengthAdjust="spacing" textLength="64" x="806" y="695.2705">-Refrigerated</text><text fill="#000000" font-family="sans-serif" font-size="11" lengthAdjust="spacing" textLength="65" x="806" y="709.1064">-Temperature</text><line style="stroke:#A80036;stroke-width:1.5;" x1="801" x2="885" y1="715.5234" y2="715.5234"/><!--MD5=[0dc7f2ddb409b58bcf52b12238c25399]
class Ship--><rect codeLine="21" fill="#FEFECE" filter="url(#f1xgm5rz6ggja8)" height="200.1953" id="Ship" style="stroke:#A80036;stroke-width:1.5;" width="161" x="1419.5" y="147"/><ellipse cx="1483.25" cy="163" fill="#ADD1B2" rx="11" ry="11" style="stroke:#A80036;stroke-width:1.0;"/><path d="M1485.25,159.5 Q1485.4531,159 1485.6875,158.75 Q1485.9219,158.5 1486.1875,158.5 Q1486.6563,158.5 1486.9531,158.7813 Q1487.25,159.0625 1487.25,159.7188 L1487.25,161.2813 Q1487.25,161.9375 1486.9688,162.2188 Q1486.6875,162.5 1486.25,162.5 Q1485.8594,162.5 1485.6094,162.3281 Q1485.3594,162.1563 1485.25,161.7031 Q1485.2031,161.3906 1485.0313,161.2188 Q1484.7188,160.8906 1484.1563,160.7031 Q1483.5938,160.5 1483.0313,160.5 Q1482.3281,160.5 1481.7344,160.7813 Q1481.1563,161.0625 1480.7031,161.6875 Q1480.25,162.3125 1480.25,163.1719 L1480.25,164.0938 Q1480.25,165.125 1481.0938,165.8125 Q1481.9375,166.5 1483.4375,166.5 Q1484.3281,166.5 1484.9531,166.2969 Q1485.3125,166.1875 1485.7188,165.8281 Q1485.9844,165.625 1486.125,165.5625 Q1486.2656,165.5 1486.4375,165.5 Q1486.7656,165.5 1487,165.7656 Q1487.25,166.0156 1487.25,166.375 Q1487.25,166.7188 1486.9063,167.125 Q1486.4063,167.7188 1485.6094,168.0469 Q1484.5625,168.5 1483.2813,168.5 Q1481.7813,168.5 1480.5781,167.9063 Q1479.6094,167.4375 1478.9219,166.4219 Q1478.25,165.4063 1478.25,164.2031 L1478.25,163.1094 Q1478.25,161.8594 1478.8438,160.7656 Q1479.4531,159.6719 1480.5,159.0938 Q1481.5625,158.5 1482.75,158.5 Q1483.4688,158.5 1484.0938,158.75 Q1484.7188,159 1485.25,159.5 Z " fill="#000000"/><text fill="#000000" font-family="sans-serif" font-size="12" lengthAdjust="spacing" textLength="25" x="1503.75" y="167.9102">Ship</text><line style="stroke:#A80036;stroke-width:1.5;" x1="1420.5" x2="1579.5" y1="179" y2="179"/><text fill="#000000" font-family="sans-serif" font-size="11" lengthAdjust="spacing" textLength="29" x="1425.5" y="194.4189">-MMSI</text><text fill="#000000" font-family="sans-serif" font-size="11" lengthAdjust="spacing" textLength="31" x="1425.5" y="208.2549">-Name</text><text fill="#000000" font-family="sans-serif" font-size="11" lengthAdjust="spacing" textLength="22" x="1425.5" y="222.0908">-IMO</text><text fill="#000000" font-family="sans-serif" font-size="11" lengthAdjust="spacing" textLength="149" x="1425.5" y="235.9268">-Number of Energy Generators</text><text fill="#000000" font-family="sans-serif" font-size="11" lengthAdjust="spacing" textLength="131" x="1425.5" y="249.7627">-Generators' Power Output</text><text fill="#000000" font-family="sans-serif" font-size="11" lengthAdjust="spacing" textLength="44" x="1425.5" y="263.5986">-Call sign</text><text fill="#000000" font-family="sans-serif" font-size="11" lengthAdjust="spacing" textLength="62" x="1425.5" y="277.4346">-Vessel type</text><text fill="#000000" font-family="sans-serif" font-size="11" lengthAdjust="spacing" textLength="37" x="1425.5" y="291.2705">-Length</text><text fill="#000000" font-family="sans-serif" font-size="11" lengthAdjust="spacing" textLength="31" x="1425.5" y="305.1064">-Width</text><text fill="#000000" font-family="sans-serif" font-size="11" lengthAdjust="spacing" textLength="46" x="1425.5" y="318.9424">-Capacity</text><text fill="#000000" font-family="sans-serif" font-size="11" lengthAdjust="spacing" textLength="28" x="1425.5" y="332.7783">-Draft</text><line style="stroke:#A80036;stroke-width:1.5;" x1="1420.5" x2="1579.5" y1="339.1953" y2="339.1953"/><!--MD5=[f2ba7f6ab60af8dd0d3e354f91729b14]
class Truck--><rect codeLine="35" fill="#FEFECE" filter="url(#f1xgm5rz6ggja8)" height="48" id="Truck" style="stroke:#A80036;stroke-width:1.5;" width="62" x="1635" y="223"/><ellipse cx="1650" cy="239" fill="#ADD1B2" rx="11" ry="11" style="stroke:#A80036;stroke-width:1.0;"/><path d="M1652,235.5 Q1652.2031,235 1652.4375,234.75 Q1652.6719,234.5 1652.9375,234.5 Q1653.4063,234.5 1653.7031,234.7813 Q1654,235.0625 1654,235.7188 L1654,237.2813 Q1654,237.9375 1653.7188,238.2188 Q1653.4375,238.5 1653,238.5 Q1652.6094,238.5 1652.3594,238.3281 Q1652.1094,238.1563 1652,237.7031 Q1651.9531,237.3906 1651.7813,237.2188 Q1651.4688,236.8906 1650.9063,236.7031 Q1650.3438,236.5 1649.7813,236.5 Q1649.0781,236.5 1648.4844,236.7813 Q1647.9063,237.0625 1647.4531,237.6875 Q1647,238.3125 1647,239.1719 L1647,240.0938 Q1647,241.125 1647.8438,241.8125 Q1648.6875,242.5 1650.1875,242.5 Q1651.0781,242.5 1651.7031,242.2969 Q1652.0625,242.1875 1652.4688,241.8281 Q1652.7344,241.625 1652.875,241.5625 Q1653.0156,241.5 1653.1875,241.5 Q1653.5156,241.5 1653.75,241.7656 Q1654,242.0156 1654,242.375 Q1654,242.7188 1653.6563,243.125 Q1653.1563,243.7188 1652.3594,244.0469 Q1651.3125,244.5 1650.0313,244.5 Q1648.5313,244.5 1647.3281,243.9063 Q1646.3594,243.4375 1645.6719,242.4219 Q1645,241.4063 1645,240.2031 L1645,239.1094 Q1645,237.8594 1645.5938,236.7656 Q1646.2031,235.6719 1647.25,235.0938 Q1648.3125,234.5 1649.5,234.5 Q1650.2188,234.5 1650.8438,234.75 Q1651.4688,235 1652,235.5 Z " fill="#000000"/><text fill="#000000" font-family="sans-serif" font-size="12" lengthAdjust="spacing" textLength="30" x="1664" y="243.9102">Truck</text><line style="stroke:#A80036;stroke-width:1.5;" x1="1636" x2="1696" y1="255" y2="255"/><line style="stroke:#A80036;stroke-width:1.5;" x1="1636" x2="1696" y1="263" y2="263"/><!--MD5=[ed6624c6556d5e7b1bd23032162d20b7]
class Client--><rect codeLine="37" fill="#FEFECE" filter="url(#f1xgm5rz6ggja8)" height="48" id="Client" style="stroke:#A80036;stroke-width:1.5;" width="64" x="592" y="425"/><ellipse cx="607" cy="441" fill="#ADD1B2" rx="11" ry="11" style="stroke:#A80036;stroke-width:1.0;"/><path d="M609,437.5 Q609.2031,437 609.4375,436.75 Q609.6719,436.5 609.9375,436.5 Q610.4063,436.5 610.7031,436.7813 Q611,437.0625 611,437.7188 L611,439.2813 Q611,439.9375 610.7188,440.2188 Q610.4375,440.5 610,440.5 Q609.6094,440.5 609.3594,440.3281 Q609.1094,440.1563 609,439.7031 Q608.9531,439.3906 608.7813,439.2188 Q608.4688,438.8906 607.9063,438.7031 Q607.3438,438.5 606.7813,438.5 Q606.0781,438.5 605.4844,438.7813 Q604.9063,439.0625 604.4531,439.6875 Q604,440.3125 604,441.1719 L604,442.0938 Q604,443.125 604.8438,443.8125 Q605.6875,444.5 607.1875,444.5 Q608.0781,444.5 608.7031,444.2969 Q609.0625,444.1875 609.4688,443.8281 Q609.7344,443.625 609.875,443.5625 Q610.0156,443.5 610.1875,443.5 Q610.5156,443.5 610.75,443.7656 Q611,444.0156 611,444.375 Q611,444.7188 610.6563,445.125 Q610.1563,445.7188 609.3594,446.0469 Q608.3125,446.5 607.0313,446.5 Q605.5313,446.5 604.3281,445.9063 Q603.3594,445.4375 602.6719,444.4219 Q602,443.4063 602,442.2031 L602,441.1094 Q602,439.8594 602.5938,438.7656 Q603.2031,437.6719 604.25,437.0938 Q605.3125,436.5 606.5,436.5 Q607.2188,436.5 607.8438,436.75 Q608.4688,437 609,437.5 Z " fill="#000000"/><text fill="#000000" font-family="sans-serif" font-size="12" lengthAdjust="spacing" textLength="32" x="621" y="445.9102">Client</text><line style="stroke:#A80036;stroke-width:1.5;" x1="593" x2="655" y1="457" y2="457"/><line style="stroke:#A80036;stroke-width:1.5;" x1="593" x2="655" y1="465" y2="465"/><!--MD5=[a0bfe97ac0a38e6e74cc1c7c7b744b71]
class Port--><rect codeLine="39" fill="#FEFECE" filter="url(#f1xgm5rz6ggja8)" height="131.0156" id="Port" style="stroke:#A80036;stroke-width:1.5;" width="76" x="146" y="181.5"/><ellipse cx="170.9" cy="197.5" fill="#ADD1B2" rx="11" ry="11" style="stroke:#A80036;stroke-width:1.0;"/><path d="M172.9,194 Q173.1031,193.5 173.3375,193.25 Q173.5719,193 173.8375,193 Q174.3063,193 174.6031,193.2813 Q174.9,193.5625 174.9,194.2188 L174.9,195.7813 Q174.9,196.4375 174.6188,196.7188 Q174.3375,197 173.9,197 Q173.5094,197 173.2594,196.8281 Q173.0094,196.6563 172.9,196.2031 Q172.8531,195.8906 172.6813,195.7188 Q172.3688,195.3906 171.8063,195.2031 Q171.2438,195 170.6813,195 Q169.9781,195 169.3844,195.2813 Q168.8063,195.5625 168.3531,196.1875 Q167.9,196.8125 167.9,197.6719 L167.9,198.5938 Q167.9,199.625 168.7438,200.3125 Q169.5875,201 171.0875,201 Q171.9781,201 172.6031,200.7969 Q172.9625,200.6875 173.3688,200.3281 Q173.6344,200.125 173.775,200.0625 Q173.9156,200 174.0875,200 Q174.4156,200 174.65,200.2656 Q174.9,200.5156 174.9,200.875 Q174.9,201.2188 174.5563,201.625 Q174.0563,202.2188 173.2594,202.5469 Q172.2125,203 170.9313,203 Q169.4313,203 168.2281,202.4063 Q167.2594,201.9375 166.5719,200.9219 Q165.9,199.9063 165.9,198.7031 L165.9,197.6094 Q165.9,196.3594 166.4938,195.2656 Q167.1031,194.1719 168.15,193.5938 Q169.2125,193 170.4,193 Q171.1188,193 171.7438,193.25 Q172.3688,193.5 172.9,194 Z " fill="#000000"/><text fill="#000000" font-family="sans-serif" font-size="12" lengthAdjust="spacing" textLength="22" x="187.1" y="202.4102">Port</text><line style="stroke:#A80036;stroke-width:1.5;" x1="147" x2="221" y1="213.5" y2="213.5"/><text fill="#000000" font-family="sans-serif" font-size="11" lengthAdjust="spacing" textLength="64" x="152" y="228.9189">-Identification</text><text fill="#000000" font-family="sans-serif" font-size="11" lengthAdjust="spacing" textLength="31" x="152" y="242.7549">-Name</text><text fill="#000000" font-family="sans-serif" font-size="11" lengthAdjust="spacing" textLength="49" x="152" y="256.5908">-Continent</text><text fill="#000000" font-family="sans-serif" font-size="11" lengthAdjust="spacing" textLength="42" x="152" y="270.4268">-Country</text><text fill="#000000" font-family="sans-serif" font-size="11" lengthAdjust="spacing" textLength="42" x="152" y="284.2627">-Latitude</text><text fill="#000000" font-family="sans-serif" font-size="11" lengthAdjust="spacing" textLength="47" x="152" y="298.0986">-longitude</text><line style="stroke:#A80036;stroke-width:1.5;" x1="147" x2="221" y1="304.5156" y2="304.5156"/><!--MD5=[c5149b4909ffd2688ff51a939867f774]
class Warehouse--><rect codeLine="48" fill="#FEFECE" filter="url(#f1xgm5rz6ggja8)" height="131.0156" id="Warehouse" style="stroke:#A80036;stroke-width:1.5;" width="96" x="269" y="181.5"/><ellipse cx="284" cy="197.5" fill="#ADD1B2" rx="11" ry="11" style="stroke:#A80036;stroke-width:1.0;"/><path d="M286,194 Q286.2031,193.5 286.4375,193.25 Q286.6719,193 286.9375,193 Q287.4063,193 287.7031,193.2813 Q288,193.5625 288,194.2188 L288,195.7813 Q288,196.4375 287.7188,196.7188 Q287.4375,197 287,197 Q286.6094,197 286.3594,196.8281 Q286.1094,196.6563 286,196.2031 Q285.9531,195.8906 285.7813,195.7188 Q285.4688,195.3906 284.9063,195.2031 Q284.3438,195 283.7813,195 Q283.0781,195 282.4844,195.2813 Q281.9063,195.5625 281.4531,196.1875 Q281,196.8125 281,197.6719 L281,198.5938 Q281,199.625 281.8438,200.3125 Q282.6875,201 284.1875,201 Q285.0781,201 285.7031,200.7969 Q286.0625,200.6875 286.4688,200.3281 Q286.7344,200.125 286.875,200.0625 Q287.0156,200 287.1875,200 Q287.5156,200 287.75,200.2656 Q288,200.5156 288,200.875 Q288,201.2188 287.6563,201.625 Q287.1563,202.2188 286.3594,202.5469 Q285.3125,203 284.0313,203 Q282.5313,203 281.3281,202.4063 Q280.3594,201.9375 279.6719,200.9219 Q279,199.9063 279,198.7031 L279,197.6094 Q279,196.3594 279.5938,195.2656 Q280.2031,194.1719 281.25,193.5938 Q282.3125,193 283.5,193 Q284.2188,193 284.8438,193.25 Q285.4688,193.5 286,194 Z " fill="#000000"/><text fill="#000000" font-family="sans-serif" font-size="12" lengthAdjust="spacing" textLength="64" x="298" y="202.4102">Warehouse</text><line style="stroke:#A80036;stroke-width:1.5;" x1="270" x2="364" y1="213.5" y2="213.5"/><text fill="#000000" font-family="sans-serif" font-size="11" lengthAdjust="spacing" textLength="64" x="275" y="228.9189">-Identification</text><text fill="#000000" font-family="sans-serif" font-size="11" lengthAdjust="spacing" textLength="31" x="275" y="242.7549">-Name</text><text fill="#000000" font-family="sans-serif" font-size="11" lengthAdjust="spacing" textLength="49" x="275" y="256.5908">-Continent</text><text fill="#000000" font-family="sans-serif" font-size="11" lengthAdjust="spacing" textLength="42" x="275" y="270.4268">-Country</text><text fill="#000000" font-family="sans-serif" font-size="11" lengthAdjust="spacing" textLength="42" x="275" y="284.2627">-Latitude</text><text fill="#000000" font-family="sans-serif" font-size="11" lengthAdjust="spacing" textLength="47" x="275" y="298.0986">-longitude</text><line style="stroke:#A80036;stroke-width:1.5;" x1="270" x2="364" y1="304.5156" y2="304.5156"/><!--MD5=[7421f545a0d8420c5bec41e74b387d9c]
class Employee--><rect codeLine="57" fill="#FEFECE" filter="url(#f1xgm5rz6ggja8)" height="89.5078" id="Employee" style="stroke:#A80036;stroke-width:1.5;" width="87" x="1060.5" y="202"/><ellipse cx="1075.5" cy="218" fill="#ADD1B2" rx="11" ry="11" style="stroke:#A80036;stroke-width:1.0;"/><path d="M1077.5,214.5 Q1077.7031,214 1077.9375,213.75 Q1078.1719,213.5 1078.4375,213.5 Q1078.9063,213.5 1079.2031,213.7813 Q1079.5,214.0625 1079.5,214.7188 L1079.5,216.2813 Q1079.5,216.9375 1079.2188,217.2188 Q1078.9375,217.5 1078.5,217.5 Q1078.1094,217.5 1077.8594,217.3281 Q1077.6094,217.1563 1077.5,216.7031 Q1077.4531,216.3906 1077.2813,216.2188 Q1076.9688,215.8906 1076.4063,215.7031 Q1075.8438,215.5 1075.2813,215.5 Q1074.5781,215.5 1073.9844,215.7813 Q1073.4063,216.0625 1072.9531,216.6875 Q1072.5,217.3125 1072.5,218.1719 L1072.5,219.0938 Q1072.5,220.125 1073.3438,220.8125 Q1074.1875,221.5 1075.6875,221.5 Q1076.5781,221.5 1077.2031,221.2969 Q1077.5625,221.1875 1077.9688,220.8281 Q1078.2344,220.625 1078.375,220.5625 Q1078.5156,220.5 1078.6875,220.5 Q1079.0156,220.5 1079.25,220.7656 Q1079.5,221.0156 1079.5,221.375 Q1079.5,221.7188 1079.1563,222.125 Q1078.6563,222.7188 1077.8594,223.0469 Q1076.8125,223.5 1075.5313,223.5 Q1074.0313,223.5 1072.8281,222.9063 Q1071.8594,222.4375 1071.1719,221.4219 Q1070.5,220.4063 1070.5,219.2031 L1070.5,218.1094 Q1070.5,216.8594 1071.0938,215.7656 Q1071.7031,214.6719 1072.75,214.0938 Q1073.8125,213.5 1075,213.5 Q1075.7188,213.5 1076.3438,213.75 Q1076.9688,214 1077.5,214.5 Z " fill="#000000"/><text fill="#000000" font-family="sans-serif" font-size="12" lengthAdjust="spacing" textLength="55" x="1089.5" y="222.9102">Employee</text><line style="stroke:#A80036;stroke-width:1.5;" x1="1061.5" x2="1146.5" y1="234" y2="234"/><text fill="#000000" font-family="sans-serif" font-size="11" lengthAdjust="spacing" textLength="31" x="1066.5" y="249.4189">-Name</text><text fill="#000000" font-family="sans-serif" font-size="11" lengthAdjust="spacing" textLength="28" x="1066.5" y="263.2549">-Email</text><text fill="#000000" font-family="sans-serif" font-size="11" lengthAdjust="spacing" textLength="54" x="1066.5" y="277.0908">-Password</text><line style="stroke:#A80036;stroke-width:1.5;" x1="1061.5" x2="1146.5" y1="283.5078" y2="283.5078"/><!--MD5=[12e90e92236ca84f203192a07d84ec5e]
class OrganizationRole--><rect codeLine="63" fill="#FEFECE" filter="url(#f1xgm5rz6ggja8)" height="61.8359" id="OrganizationRole" style="stroke:#A80036;stroke-width:1.5;" width="127" x="1257.5" y="216"/><ellipse cx="1272.5" cy="232" fill="#ADD1B2" rx="11" ry="11" style="stroke:#A80036;stroke-width:1.0;"/><path d="M1274.5,228.5 Q1274.7031,228 1274.9375,227.75 Q1275.1719,227.5 1275.4375,227.5 Q1275.9063,227.5 1276.2031,227.7813 Q1276.5,228.0625 1276.5,228.7188 L1276.5,230.2813 Q1276.5,230.9375 1276.2188,231.2188 Q1275.9375,231.5 1275.5,231.5 Q1275.1094,231.5 1274.8594,231.3281 Q1274.6094,231.1563 1274.5,230.7031 Q1274.4531,230.3906 1274.2813,230.2188 Q1273.9688,229.8906 1273.4063,229.7031 Q1272.8438,229.5 1272.2813,229.5 Q1271.5781,229.5 1270.9844,229.7813 Q1270.4063,230.0625 1269.9531,230.6875 Q1269.5,231.3125 1269.5,232.1719 L1269.5,233.0938 Q1269.5,234.125 1270.3438,234.8125 Q1271.1875,235.5 1272.6875,235.5 Q1273.5781,235.5 1274.2031,235.2969 Q1274.5625,235.1875 1274.9688,234.8281 Q1275.2344,234.625 1275.375,234.5625 Q1275.5156,234.5 1275.6875,234.5 Q1276.0156,234.5 1276.25,234.7656 Q1276.5,235.0156 1276.5,235.375 Q1276.5,235.7188 1276.1563,236.125 Q1275.6563,236.7188 1274.8594,237.0469 Q1273.8125,237.5 1272.5313,237.5 Q1271.0313,237.5 1269.8281,236.9063 Q1268.8594,236.4375 1268.1719,235.4219 Q1267.5,234.4063 1267.5,233.2031 L1267.5,232.1094 Q1267.5,230.8594 1268.0938,229.7656 Q1268.7031,228.6719 1269.75,228.0938 Q1270.8125,227.5 1272,227.5 Q1272.7188,227.5 1273.3438,227.75 Q1273.9688,228 1274.5,228.5 Z " fill="#000000"/><text fill="#000000" font-family="sans-serif" font-size="12" lengthAdjust="spacing" textLength="95" x="1286.5" y="236.9102">OrganizationRole</text><line style="stroke:#A80036;stroke-width:1.5;" x1="1258.5" x2="1383.5" y1="248" y2="248"/><text fill="#000000" font-family="sans-serif" font-size="11" lengthAdjust="spacing" textLength="58" x="1263.5" y="263.4189">-Description</text><line style="stroke:#A80036;stroke-width:1.5;" x1="1258.5" x2="1383.5" y1="269.8359" y2="269.8359"/><!--MD5=[f50c29d74083ea4b40d93461c67578c2]
class PortMagager--><rect codeLine="67" fill="#FEFECE" filter="url(#f1xgm5rz6ggja8)" height="48" id="PortMagager" style="stroke:#A80036;stroke-width:1.5;" width="102" x="7" y="425"/><ellipse cx="22" cy="441" fill="#ADD1B2" rx="11" ry="11" style="stroke:#A80036;stroke-width:1.0;"/><path d="M24,437.5 Q24.2031,437 24.4375,436.75 Q24.6719,436.5 24.9375,436.5 Q25.4063,436.5 25.7031,436.7813 Q26,437.0625 26,437.7188 L26,439.2813 Q26,439.9375 25.7188,440.2188 Q25.4375,440.5 25,440.5 Q24.6094,440.5 24.3594,440.3281 Q24.1094,440.1563 24,439.7031 Q23.9531,439.3906 23.7813,439.2188 Q23.4688,438.8906 22.9063,438.7031 Q22.3438,438.5 21.7813,438.5 Q21.0781,438.5 20.4844,438.7813 Q19.9063,439.0625 19.4531,439.6875 Q19,440.3125 19,441.1719 L19,442.0938 Q19,443.125 19.8438,443.8125 Q20.6875,444.5 22.1875,444.5 Q23.0781,444.5 23.7031,444.2969 Q24.0625,444.1875 24.4688,443.8281 Q24.7344,443.625 24.875,443.5625 Q25.0156,443.5 25.1875,443.5 Q25.5156,443.5 25.75,443.7656 Q26,444.0156 26,444.375 Q26,444.7188 25.6563,445.125 Q25.1563,445.7188 24.3594,446.0469 Q23.3125,446.5 22.0313,446.5 Q20.5313,446.5 19.3281,445.9063 Q18.3594,445.4375 17.6719,444.4219 Q17,443.4063 17,442.2031 L17,441.1094 Q17,439.8594 17.5938,438.7656 Q18.2031,437.6719 19.25,437.0938 Q20.3125,436.5 21.5,436.5 Q22.2188,436.5 22.8438,436.75 Q23.4688,437 24,437.5 Z " fill="#000000"/><text fill="#000000" font-family="sans-serif" font-size="12" lengthAdjust="spacing" textLength="70" x="36" y="445.9102">PortMagager</text><line style="stroke:#A80036;stroke-width:1.5;" x1="8" x2="108" y1="457" y2="457"/><line style="stroke:#A80036;stroke-width:1.5;" x1="8" x2="108" y1="465" y2="465"/><!--MD5=[5e1deb958606d83ef5f4988eb2b8f966]
class WarehouseManager--><rect codeLine="69" fill="#FEFECE" filter="url(#f1xgm5rz6ggja8)" height="48" id="WarehouseManager" style="stroke:#A80036;stroke-width:1.5;" width="144" x="258" y="425"/><ellipse cx="273" cy="441" fill="#ADD1B2" rx="11" ry="11" style="stroke:#A80036;stroke-width:1.0;"/><path d="M275,437.5 Q275.2031,437 275.4375,436.75 Q275.6719,436.5 275.9375,436.5 Q276.4063,436.5 276.7031,436.7813 Q277,437.0625 277,437.7188 L277,439.2813 Q277,439.9375 276.7188,440.2188 Q276.4375,440.5 276,440.5 Q275.6094,440.5 275.3594,440.3281 Q275.1094,440.1563 275,439.7031 Q274.9531,439.3906 274.7813,439.2188 Q274.4688,438.8906 273.9063,438.7031 Q273.3438,438.5 272.7813,438.5 Q272.0781,438.5 271.4844,438.7813 Q270.9063,439.0625 270.4531,439.6875 Q270,440.3125 270,441.1719 L270,442.0938 Q270,443.125 270.8438,443.8125 Q271.6875,444.5 273.1875,444.5 Q274.0781,444.5 274.7031,444.2969 Q275.0625,444.1875 275.4688,443.8281 Q275.7344,443.625 275.875,443.5625 Q276.0156,443.5 276.1875,443.5 Q276.5156,443.5 276.75,443.7656 Q277,444.0156 277,444.375 Q277,444.7188 276.6563,445.125 Q276.1563,445.7188 275.3594,446.0469 Q274.3125,446.5 273.0313,446.5 Q271.5313,446.5 270.3281,445.9063 Q269.3594,445.4375 268.6719,444.4219 Q268,443.4063 268,442.2031 L268,441.1094 Q268,439.8594 268.5938,438.7656 Q269.2031,437.6719 270.25,437.0938 Q271.3125,436.5 272.5,436.5 Q273.2188,436.5 273.8438,436.75 Q274.4688,437 275,437.5 Z " fill="#000000"/><text fill="#000000" font-family="sans-serif" font-size="12" lengthAdjust="spacing" textLength="112" x="287" y="445.9102">WarehouseManager</text><line style="stroke:#A80036;stroke-width:1.5;" x1="259" x2="401" y1="457" y2="457"/><line style="stroke:#A80036;stroke-width:1.5;" x1="259" x2="401" y1="465" y2="465"/><!--MD5=[e6b394b930674b2255938b8afe6bb7b4]
class ShipCaptain--><rect codeLine="71" fill="#FEFECE" filter="url(#f1xgm5rz6ggja8)" height="48" id="ShipCaptain" style="stroke:#A80036;stroke-width:1.5;" width="100" x="1496" y="425"/><ellipse cx="1511" cy="441" fill="#ADD1B2" rx="11" ry="11" style="stroke:#A80036;stroke-width:1.0;"/><path d="M1513,437.5 Q1513.2031,437 1513.4375,436.75 Q1513.6719,436.5 1513.9375,436.5 Q1514.4063,436.5 1514.7031,436.7813 Q1515,437.0625 1515,437.7188 L1515,439.2813 Q1515,439.9375 1514.7188,440.2188 Q1514.4375,440.5 1514,440.5 Q1513.6094,440.5 1513.3594,440.3281 Q1513.1094,440.1563 1513,439.7031 Q1512.9531,439.3906 1512.7813,439.2188 Q1512.4688,438.8906 1511.9063,438.7031 Q1511.3438,438.5 1510.7813,438.5 Q1510.0781,438.5 1509.4844,438.7813 Q1508.9063,439.0625 1508.4531,439.6875 Q1508,440.3125 1508,441.1719 L1508,442.0938 Q1508,443.125 1508.8438,443.8125 Q1509.6875,444.5 1511.1875,444.5 Q1512.0781,444.5 1512.7031,444.2969 Q1513.0625,444.1875 1513.4688,443.8281 Q1513.7344,443.625 1513.875,443.5625 Q1514.0156,443.5 1514.1875,443.5 Q1514.5156,443.5 1514.75,443.7656 Q1515,444.0156 1515,444.375 Q1515,444.7188 1514.6563,445.125 Q1514.1563,445.7188 1513.3594,446.0469 Q1512.3125,446.5 1511.0313,446.5 Q1509.5313,446.5 1508.3281,445.9063 Q1507.3594,445.4375 1506.6719,444.4219 Q1506,443.4063 1506,442.2031 L1506,441.1094 Q1506,439.8594 1506.5938,438.7656 Q1507.2031,437.6719 1508.25,437.0938 Q1509.3125,436.5 1510.5,436.5 Q1511.2188,436.5 1511.8438,436.75 Q1512.4688,437 1513,437.5 Z " fill="#000000"/><text fill="#000000" font-family="sans-serif" font-size="12" lengthAdjust="spacing" textLength="68" x="1525" y="445.9102">ShipCaptain</text><line style="stroke:#A80036;stroke-width:1.5;" x1="1497" x2="1595" y1="457" y2="457"/><line style="stroke:#A80036;stroke-width:1.5;" x1="1497" x2="1595" y1="465" y2="465"/><!--MD5=[a93a86a91abc8796b23cdcc7cc3b17ff]
class TruckDriver--><rect codeLine="73" fill="#FEFECE" filter="url(#f1xgm5rz6ggja8)" height="48" id="TruckDriver" style="stroke:#A80036;stroke-width:1.5;" width="94" x="1777" y="425"/><ellipse cx="1792" cy="441" fill="#ADD1B2" rx="11" ry="11" style="stroke:#A80036;stroke-width:1.0;"/><path d="M1794,437.5 Q1794.2031,437 1794.4375,436.75 Q1794.6719,436.5 1794.9375,436.5 Q1795.4063,436.5 1795.7031,436.7813 Q1796,437.0625 1796,437.7188 L1796,439.2813 Q1796,439.9375 1795.7188,440.2188 Q1795.4375,440.5 1795,440.5 Q1794.6094,440.5 1794.3594,440.3281 Q1794.1094,440.1563 1794,439.7031 Q1793.9531,439.3906 1793.7813,439.2188 Q1793.4688,438.8906 1792.9063,438.7031 Q1792.3438,438.5 1791.7813,438.5 Q1791.0781,438.5 1790.4844,438.7813 Q1789.9063,439.0625 1789.4531,439.6875 Q1789,440.3125 1789,441.1719 L1789,442.0938 Q1789,443.125 1789.8438,443.8125 Q1790.6875,444.5 1792.1875,444.5 Q1793.0781,444.5 1793.7031,444.2969 Q1794.0625,444.1875 1794.4688,443.8281 Q1794.7344,443.625 1794.875,443.5625 Q1795.0156,443.5 1795.1875,443.5 Q1795.5156,443.5 1795.75,443.7656 Q1796,444.0156 1796,444.375 Q1796,444.7188 1795.6563,445.125 Q1795.1563,445.7188 1794.3594,446.0469 Q1793.3125,446.5 1792.0313,446.5 Q1790.5313,446.5 1789.3281,445.9063 Q1788.3594,445.4375 1787.6719,444.4219 Q1787,443.4063 1787,442.2031 L1787,441.1094 Q1787,439.8594 1787.5938,438.7656 Q1788.2031,437.6719 1789.25,437.0938 Q1790.3125,436.5 1791.5,436.5 Q1792.2188,436.5 1792.8438,436.75 Q1793.4688,437 1794,437.5 Z " fill="#000000"/><text fill="#000000" font-family="sans-serif" font-size="12" lengthAdjust="spacing" textLength="62" x="1806" y="445.9102">TruckDriver</text><line style="stroke:#A80036;stroke-width:1.5;" x1="1778" x2="1870" y1="457" y2="457"/><line style="stroke:#A80036;stroke-width:1.5;" x1="1778" x2="1870" y1="465" y2="465"/><!--MD5=[019a73386217e12d5bb8e34bf0b46b9e]
class FleetManager--><rect codeLine="75" fill="#FEFECE" filter="url(#f1xgm5rz6ggja8)" height="48" id="FleetManager" style="stroke:#A80036;stroke-width:1.5;" width="107" x="977.5" y="425"/><ellipse cx="992.5" cy="441" fill="#ADD1B2" rx="11" ry="11" style="stroke:#A80036;stroke-width:1.0;"/><path d="M994.5,437.5 Q994.7031,437 994.9375,436.75 Q995.1719,436.5 995.4375,436.5 Q995.9063,436.5 996.2031,436.7813 Q996.5,437.0625 996.5,437.7188 L996.5,439.2813 Q996.5,439.9375 996.2188,440.2188 Q995.9375,440.5 995.5,440.5 Q995.1094,440.5 994.8594,440.3281 Q994.6094,440.1563 994.5,439.7031 Q994.4531,439.3906 994.2813,439.2188 Q993.9688,438.8906 993.4063,438.7031 Q992.8438,438.5 992.2813,438.5 Q991.5781,438.5 990.9844,438.7813 Q990.4063,439.0625 989.9531,439.6875 Q989.5,440.3125 989.5,441.1719 L989.5,442.0938 Q989.5,443.125 990.3438,443.8125 Q991.1875,444.5 992.6875,444.5 Q993.5781,444.5 994.2031,444.2969 Q994.5625,444.1875 994.9688,443.8281 Q995.2344,443.625 995.375,443.5625 Q995.5156,443.5 995.6875,443.5 Q996.0156,443.5 996.25,443.7656 Q996.5,444.0156 996.5,444.375 Q996.5,444.7188 996.1563,445.125 Q995.6563,445.7188 994.8594,446.0469 Q993.8125,446.5 992.5313,446.5 Q991.0313,446.5 989.8281,445.9063 Q988.8594,445.4375 988.1719,444.4219 Q987.5,443.4063 987.5,442.2031 L987.5,441.1094 Q987.5,439.8594 988.0938,438.7656 Q988.7031,437.6719 989.75,437.0938 Q990.8125,436.5 992,436.5 Q992.7188,436.5 993.3438,436.75 Q993.9688,437 994.5,437.5 Z " fill="#000000"/><text fill="#000000" font-family="sans-serif" font-size="12" lengthAdjust="spacing" textLength="75" x="1006.5" y="445.9102">FleetManager</text><line style="stroke:#A80036;stroke-width:1.5;" x1="978.5" x2="1083.5" y1="457" y2="457"/><line style="stroke:#A80036;stroke-width:1.5;" x1="978.5" x2="1083.5" y1="465" y2="465"/><!--MD5=[d14076b1fa5ff6fc34e7abc31c5e1daa]
class ShipChiefElectricalEngineer--><rect codeLine="77" fill="#FEFECE" filter="url(#f1xgm5rz6ggja8)" height="48" id="ShipChiefElectricalEngineer" style="stroke:#A80036;stroke-width:1.5;" width="186" x="1120" y="425"/><ellipse cx="1135" cy="441" fill="#ADD1B2" rx="11" ry="11" style="stroke:#A80036;stroke-width:1.0;"/><path d="M1137,437.5 Q1137.2031,437 1137.4375,436.75 Q1137.6719,436.5 1137.9375,436.5 Q1138.4063,436.5 1138.7031,436.7813 Q1139,437.0625 1139,437.7188 L1139,439.2813 Q1139,439.9375 1138.7188,440.2188 Q1138.4375,440.5 1138,440.5 Q1137.6094,440.5 1137.3594,440.3281 Q1137.1094,440.1563 1137,439.7031 Q1136.9531,439.3906 1136.7813,439.2188 Q1136.4688,438.8906 1135.9063,438.7031 Q1135.3438,438.5 1134.7813,438.5 Q1134.0781,438.5 1133.4844,438.7813 Q1132.9063,439.0625 1132.4531,439.6875 Q1132,440.3125 1132,441.1719 L1132,442.0938 Q1132,443.125 1132.8438,443.8125 Q1133.6875,444.5 1135.1875,444.5 Q1136.0781,444.5 1136.7031,444.2969 Q1137.0625,444.1875 1137.4688,443.8281 Q1137.7344,443.625 1137.875,443.5625 Q1138.0156,443.5 1138.1875,443.5 Q1138.5156,443.5 1138.75,443.7656 Q1139,444.0156 1139,444.375 Q1139,444.7188 1138.6563,445.125 Q1138.1563,445.7188 1137.3594,446.0469 Q1136.3125,446.5 1135.0313,446.5 Q1133.5313,446.5 1132.3281,445.9063 Q1131.3594,445.4375 1130.6719,444.4219 Q1130,443.4063 1130,442.2031 L1130,441.1094 Q1130,439.8594 1130.5938,438.7656 Q1131.2031,437.6719 1132.25,437.0938 Q1133.3125,436.5 1134.5,436.5 Q1135.2188,436.5 1135.8438,436.75 Q1136.4688,437 1137,437.5 Z " fill="#000000"/><text fill="#000000" font-family="sans-serif" font-size="12" lengthAdjust="spacing" textLength="154" x="1149" y="445.9102">ShipChiefElectricalEngineer</text><line style="stroke:#A80036;stroke-width:1.5;" x1="1121" x2="1305" y1="457" y2="457"/><line style="stroke:#A80036;stroke-width:1.5;" x1="1121" x2="1305" y1="465" y2="465"/><!--MD5=[ddaf6f62b0bc30921877ec9fb9463c9f]
class TrafficManager--><rect codeLine="79" fill="#FEFECE" filter="url(#f1xgm5rz6ggja8)" height="48" id="TrafficManager" style="stroke:#A80036;stroke-width:1.5;" width="113" x="1526.5" y="14"/><ellipse cx="1541.5" cy="30" fill="#ADD1B2" rx="11" ry="11" style="stroke:#A80036;stroke-width:1.0;"/><path d="M1543.5,26.5 Q1543.7031,26 1543.9375,25.75 Q1544.1719,25.5 1544.4375,25.5 Q1544.9063,25.5 1545.2031,25.7813 Q1545.5,26.0625 1545.5,26.7188 L1545.5,28.2813 Q1545.5,28.9375 1545.2188,29.2188 Q1544.9375,29.5 1544.5,29.5 Q1544.1094,29.5 1543.8594,29.3281 Q1543.6094,29.1563 1543.5,28.7031 Q1543.4531,28.3906 1543.2813,28.2188 Q1542.9688,27.8906 1542.4063,27.7031 Q1541.8438,27.5 1541.2813,27.5 Q1540.5781,27.5 1539.9844,27.7813 Q1539.4063,28.0625 1538.9531,28.6875 Q1538.5,29.3125 1538.5,30.1719 L1538.5,31.0938 Q1538.5,32.125 1539.3438,32.8125 Q1540.1875,33.5 1541.6875,33.5 Q1542.5781,33.5 1543.2031,33.2969 Q1543.5625,33.1875 1543.9688,32.8281 Q1544.2344,32.625 1544.375,32.5625 Q1544.5156,32.5 1544.6875,32.5 Q1545.0156,32.5 1545.25,32.7656 Q1545.5,33.0156 1545.5,33.375 Q1545.5,33.7188 1545.1563,34.125 Q1544.6563,34.7188 1543.8594,35.0469 Q1542.8125,35.5 1541.5313,35.5 Q1540.0313,35.5 1538.8281,34.9063 Q1537.8594,34.4375 1537.1719,33.4219 Q1536.5,32.4063 1536.5,31.2031 L1536.5,30.1094 Q1536.5,28.8594 1537.0938,27.7656 Q1537.7031,26.6719 1538.75,26.0938 Q1539.8125,25.5 1541,25.5 Q1541.7188,25.5 1542.3438,25.75 Q1542.9688,26 1543.5,26.5 Z " fill="#000000"/><text fill="#000000" font-family="sans-serif" font-size="12" lengthAdjust="spacing" textLength="81" x="1555.5" y="34.9102">TrafficManager</text><line style="stroke:#A80036;stroke-width:1.5;" x1="1527.5" x2="1638.5" y1="46" y2="46"/><line style="stroke:#A80036;stroke-width:1.5;" x1="1527.5" x2="1638.5" y1="54" y2="54"/><!--MD5=[7fcbedb88579745280c367cebf31fce2]
class WarehouseStaff--><rect codeLine="81" fill="#FEFECE" filter="url(#f1xgm5rz6ggja8)" height="48" id="WarehouseStaff" style="stroke:#A80036;stroke-width:1.5;" width="120" x="437" y="425"/><ellipse cx="452" cy="441" fill="#ADD1B2" rx="11" ry="11" style="stroke:#A80036;stroke-width:1.0;"/><path d="M454,437.5 Q454.2031,437 454.4375,436.75 Q454.6719,436.5 454.9375,436.5 Q455.4063,436.5 455.7031,436.7813 Q456,437.0625 456,437.7188 L456,439.2813 Q456,439.9375 455.7188,440.2188 Q455.4375,440.5 455,440.5 Q454.6094,440.5 454.3594,440.3281 Q454.1094,440.1563 454,439.7031 Q453.9531,439.3906 453.7813,439.2188 Q453.4688,438.8906 452.9063,438.7031 Q452.3438,438.5 451.7813,438.5 Q451.0781,438.5 450.4844,438.7813 Q449.9063,439.0625 449.4531,439.6875 Q449,440.3125 449,441.1719 L449,442.0938 Q449,443.125 449.8438,443.8125 Q450.6875,444.5 452.1875,444.5 Q453.0781,444.5 453.7031,444.2969 Q454.0625,444.1875 454.4688,443.8281 Q454.7344,443.625 454.875,443.5625 Q455.0156,443.5 455.1875,443.5 Q455.5156,443.5 455.75,443.7656 Q456,444.0156 456,444.375 Q456,444.7188 455.6563,445.125 Q455.1563,445.7188 454.3594,446.0469 Q453.3125,446.5 452.0313,446.5 Q450.5313,446.5 449.3281,445.9063 Q448.3594,445.4375 447.6719,444.4219 Q447,443.4063 447,442.2031 L447,441.1094 Q447,439.8594 447.5938,438.7656 Q448.2031,437.6719 449.25,437.0938 Q450.3125,436.5 451.5,436.5 Q452.2188,436.5 452.8438,436.75 Q453.4688,437 454,437.5 Z " fill="#000000"/><text fill="#000000" font-family="sans-serif" font-size="12" lengthAdjust="spacing" textLength="88" x="466" y="445.9102">WarehouseStaff</text><line style="stroke:#A80036;stroke-width:1.5;" x1="438" x2="556" y1="457" y2="457"/><line style="stroke:#A80036;stroke-width:1.5;" x1="438" x2="556" y1="465" y2="465"/><!--MD5=[a0e14dc1c5f22798a4d68a7546a0e1d4]
class PortStaff--><rect codeLine="83" fill="#FEFECE" filter="url(#f1xgm5rz6ggja8)" height="48" id="PortStaff" style="stroke:#A80036;stroke-width:1.5;" width="78" x="145" y="425"/><ellipse cx="160" cy="441" fill="#ADD1B2" rx="11" ry="11" style="stroke:#A80036;stroke-width:1.0;"/><path d="M162,437.5 Q162.2031,437 162.4375,436.75 Q162.6719,436.5 162.9375,436.5 Q163.4063,436.5 163.7031,436.7813 Q164,437.0625 164,437.7188 L164,439.2813 Q164,439.9375 163.7188,440.2188 Q163.4375,440.5 163,440.5 Q162.6094,440.5 162.3594,440.3281 Q162.1094,440.1563 162,439.7031 Q161.9531,439.3906 161.7813,439.2188 Q161.4688,438.8906 160.9063,438.7031 Q160.3438,438.5 159.7813,438.5 Q159.0781,438.5 158.4844,438.7813 Q157.9063,439.0625 157.4531,439.6875 Q157,440.3125 157,441.1719 L157,442.0938 Q157,443.125 157.8438,443.8125 Q158.6875,444.5 160.1875,444.5 Q161.0781,444.5 161.7031,444.2969 Q162.0625,444.1875 162.4688,443.8281 Q162.7344,443.625 162.875,443.5625 Q163.0156,443.5 163.1875,443.5 Q163.5156,443.5 163.75,443.7656 Q164,444.0156 164,444.375 Q164,444.7188 163.6563,445.125 Q163.1563,445.7188 162.3594,446.0469 Q161.3125,446.5 160.0313,446.5 Q158.5313,446.5 157.3281,445.9063 Q156.3594,445.4375 155.6719,444.4219 Q155,443.4063 155,442.2031 L155,441.1094 Q155,439.8594 155.5938,438.7656 Q156.2031,437.6719 157.25,437.0938 Q158.3125,436.5 159.5,436.5 Q160.2188,436.5 160.8438,436.75 Q161.4688,437 162,437.5 Z " fill="#000000"/><text fill="#000000" font-family="sans-serif" font-size="12" lengthAdjust="spacing" textLength="46" x="174" y="445.9102">PortStaff</text><line style="stroke:#A80036;stroke-width:1.5;" x1="146" x2="222" y1="457" y2="457"/><line style="stroke:#A80036;stroke-width:1.5;" x1="146" x2="222" y1="465" y2="465"/><!--MD5=[76562047389981627aea27c31a97aff5]
class CargoManifest--><rect codeLine="85" fill="#FEFECE" filter="url(#f1xgm5rz6ggja8)" height="48" id="CargoManifest" style="stroke:#A80036;stroke-width:1.5;" width="112" x="913" y="223"/><ellipse cx="928" cy="239" fill="#ADD1B2" rx="11" ry="11" style="stroke:#A80036;stroke-width:1.0;"/><path d="M930,235.5 Q930.2031,235 930.4375,234.75 Q930.6719,234.5 930.9375,234.5 Q931.4063,234.5 931.7031,234.7813 Q932,235.0625 932,235.7188 L932,237.2813 Q932,237.9375 931.7188,238.2188 Q931.4375,238.5 931,238.5 Q930.6094,238.5 930.3594,238.3281 Q930.1094,238.1563 930,237.7031 Q929.9531,237.3906 929.7813,237.2188 Q929.4688,236.8906 928.9063,236.7031 Q928.3438,236.5 927.7813,236.5 Q927.0781,236.5 926.4844,236.7813 Q925.9063,237.0625 925.4531,237.6875 Q925,238.3125 925,239.1719 L925,240.0938 Q925,241.125 925.8438,241.8125 Q926.6875,242.5 928.1875,242.5 Q929.0781,242.5 929.7031,242.2969 Q930.0625,242.1875 930.4688,241.8281 Q930.7344,241.625 930.875,241.5625 Q931.0156,241.5 931.1875,241.5 Q931.5156,241.5 931.75,241.7656 Q932,242.0156 932,242.375 Q932,242.7188 931.6563,243.125 Q931.1563,243.7188 930.3594,244.0469 Q929.3125,244.5 928.0313,244.5 Q926.5313,244.5 925.3281,243.9063 Q924.3594,243.4375 923.6719,242.4219 Q923,241.4063 923,240.2031 L923,239.1094 Q923,237.8594 923.5938,236.7656 Q924.2031,235.6719 925.25,235.0938 Q926.3125,234.5 927.5,234.5 Q928.2188,234.5 928.8438,234.75 Q929.4688,235 930,235.5 Z " fill="#000000"/><text fill="#000000" font-family="sans-serif" font-size="12" lengthAdjust="spacing" textLength="80" x="942" y="243.9102">CargoManifest</text><line style="stroke:#A80036;stroke-width:1.5;" x1="914" x2="1024" y1="255" y2="255"/><line style="stroke:#A80036;stroke-width:1.5;" x1="914" x2="1024" y1="263" y2="263"/><!--MD5=[174c0e4036b9b8ac640de066b1712445]
class UnloadingCargoManifest--><rect codeLine="87" fill="#FEFECE" filter="url(#f1xgm5rz6ggja8)" height="48" id="UnloadingCargoManifest" style="stroke:#A80036;stroke-width:1.5;" width="169" x="516.5" y="223"/><ellipse cx="531.5" cy="239" fill="#ADD1B2" rx="11" ry="11" style="stroke:#A80036;stroke-width:1.0;"/><path d="M533.5,235.5 Q533.7031,235 533.9375,234.75 Q534.1719,234.5 534.4375,234.5 Q534.9063,234.5 535.2031,234.7813 Q535.5,235.0625 535.5,235.7188 L535.5,237.2813 Q535.5,237.9375 535.2188,238.2188 Q534.9375,238.5 534.5,238.5 Q534.1094,238.5 533.8594,238.3281 Q533.6094,238.1563 533.5,237.7031 Q533.4531,237.3906 533.2813,237.2188 Q532.9688,236.8906 532.4063,236.7031 Q531.8438,236.5 531.2813,236.5 Q530.5781,236.5 529.9844,236.7813 Q529.4063,237.0625 528.9531,237.6875 Q528.5,238.3125 528.5,239.1719 L528.5,240.0938 Q528.5,241.125 529.3438,241.8125 Q530.1875,242.5 531.6875,242.5 Q532.5781,242.5 533.2031,242.2969 Q533.5625,242.1875 533.9688,241.8281 Q534.2344,241.625 534.375,241.5625 Q534.5156,241.5 534.6875,241.5 Q535.0156,241.5 535.25,241.7656 Q535.5,242.0156 535.5,242.375 Q535.5,242.7188 535.1563,243.125 Q534.6563,243.7188 533.8594,244.0469 Q532.8125,244.5 531.5313,244.5 Q530.0313,244.5 528.8281,243.9063 Q527.8594,243.4375 527.1719,242.4219 Q526.5,241.4063 526.5,240.2031 L526.5,239.1094 Q526.5,237.8594 527.0938,236.7656 Q527.7031,235.6719 528.75,235.0938 Q529.8125,234.5 531,234.5 Q531.7188,234.5 532.3438,234.75 Q532.9688,235 533.5,235.5 Z " fill="#000000"/><text fill="#000000" font-family="sans-serif" font-size="12" lengthAdjust="spacing" textLength="137" x="545.5" y="243.9102">UnloadingCargoManifest</text><line style="stroke:#A80036;stroke-width:1.5;" x1="517.5" x2="684.5" y1="255" y2="255"/><line style="stroke:#A80036;stroke-width:1.5;" x1="517.5" x2="684.5" y1="263" y2="263"/><!--MD5=[76bef78c20971d0fcd96a5526b5af5e6]
class LoadingCargoManifest--><rect codeLine="89" fill="#FEFECE" filter="url(#f1xgm5rz6ggja8)" height="48" id="LoadingCargoManifest" style="stroke:#A80036;stroke-width:1.5;" width="157" x="720.5" y="223"/><ellipse cx="735.5" cy="239" fill="#ADD1B2" rx="11" ry="11" style="stroke:#A80036;stroke-width:1.0;"/><path d="M737.5,235.5 Q737.7031,235 737.9375,234.75 Q738.1719,234.5 738.4375,234.5 Q738.9063,234.5 739.2031,234.7813 Q739.5,235.0625 739.5,235.7188 L739.5,237.2813 Q739.5,237.9375 739.2188,238.2188 Q738.9375,238.5 738.5,238.5 Q738.1094,238.5 737.8594,238.3281 Q737.6094,238.1563 737.5,237.7031 Q737.4531,237.3906 737.2813,237.2188 Q736.9688,236.8906 736.4063,236.7031 Q735.8438,236.5 735.2813,236.5 Q734.5781,236.5 733.9844,236.7813 Q733.4063,237.0625 732.9531,237.6875 Q732.5,238.3125 732.5,239.1719 L732.5,240.0938 Q732.5,241.125 733.3438,241.8125 Q734.1875,242.5 735.6875,242.5 Q736.5781,242.5 737.2031,242.2969 Q737.5625,242.1875 737.9688,241.8281 Q738.2344,241.625 738.375,241.5625 Q738.5156,241.5 738.6875,241.5 Q739.0156,241.5 739.25,241.7656 Q739.5,242.0156 739.5,242.375 Q739.5,242.7188 739.1563,243.125 Q738.6563,243.7188 737.8594,244.0469 Q736.8125,244.5 735.5313,244.5 Q734.0313,244.5 732.8281,243.9063 Q731.8594,243.4375 731.1719,242.4219 Q730.5,241.4063 730.5,240.2031 L730.5,239.1094 Q730.5,237.8594 731.0938,236.7656 Q731.7031,235.6719 732.75,235.0938 Q733.8125,234.5 735,234.5 Q735.7188,234.5 736.3438,234.75 Q736.9688,235 737.5,235.5 Z " fill="#000000"/><text fill="#000000" font-family="sans-serif" font-size="12" lengthAdjust="spacing" textLength="125" x="749.5" y="243.9102">LoadingCargoManifest</text><line style="stroke:#A80036;stroke-width:1.5;" x1="721.5" x2="876.5" y1="255" y2="255"/><line style="stroke:#A80036;stroke-width:1.5;" x1="721.5" x2="876.5" y1="263" y2="263"/><!--MD5=[e553fe7a6012bbb9ba7638d51b8b5fec]
class Shipping--><rect fill="#FEFECE" filter="url(#f1xgm5rz6ggja8)" height="48" id="Shipping" style="stroke:#A80036;stroke-width:1.5;" width="81" x="400.5" y="223"/><ellipse cx="415.5" cy="239" fill="#ADD1B2" rx="11" ry="11" style="stroke:#A80036;stroke-width:1.0;"/><path d="M417.5,235.5 Q417.7031,235 417.9375,234.75 Q418.1719,234.5 418.4375,234.5 Q418.9063,234.5 419.2031,234.7813 Q419.5,235.0625 419.5,235.7188 L419.5,237.2813 Q419.5,237.9375 419.2188,238.2188 Q418.9375,238.5 418.5,238.5 Q418.1094,238.5 417.8594,238.3281 Q417.6094,238.1563 417.5,237.7031 Q417.4531,237.3906 417.2813,237.2188 Q416.9688,236.8906 416.4063,236.7031 Q415.8438,236.5 415.2813,236.5 Q414.5781,236.5 413.9844,236.7813 Q413.4063,237.0625 412.9531,237.6875 Q412.5,238.3125 412.5,239.1719 L412.5,240.0938 Q412.5,241.125 413.3438,241.8125 Q414.1875,242.5 415.6875,242.5 Q416.5781,242.5 417.2031,242.2969 Q417.5625,242.1875 417.9688,241.8281 Q418.2344,241.625 418.375,241.5625 Q418.5156,241.5 418.6875,241.5 Q419.0156,241.5 419.25,241.7656 Q419.5,242.0156 419.5,242.375 Q419.5,242.7188 419.1563,243.125 Q418.6563,243.7188 417.8594,244.0469 Q416.8125,244.5 415.5313,244.5 Q414.0313,244.5 412.8281,243.9063 Q411.8594,243.4375 411.1719,242.4219 Q410.5,241.4063 410.5,240.2031 L410.5,239.1094 Q410.5,237.8594 411.0938,236.7656 Q411.7031,235.6719 412.75,235.0938 Q413.8125,234.5 415,234.5 Q415.7188,234.5 416.3438,234.75 Q416.9688,235 417.5,235.5 Z " fill="#000000"/><text fill="#000000" font-family="sans-serif" font-size="12" lengthAdjust="spacing" textLength="49" x="429.5" y="243.9102">Shipping</text><line style="stroke:#A80036;stroke-width:1.5;" x1="401.5" x2="480.5" y1="255" y2="255"/><line style="stroke:#A80036;stroke-width:1.5;" x1="401.5" x2="480.5" y1="263" y2="263"/><!--MD5=[28fc8488f762be30ab607089dcea2fe9]
link Company to Shipping--><path codeLine="91" d="M965.18,43.61 C856.69,55.98 574.28,92.69 499,147 C472.99,165.76 456.76,200.08 448.29,222.97 " fill="none" id="Company-Shipping" style="stroke:#A80036;stroke-width:1.0;"/><polygon fill="#000000" points="624.2763,109.8149,633.785,109.6262,631.8581,104.0732,624.2763,109.8149" style="stroke:#000000;stroke-width:1.0;"/><text fill="#000000" font-family="sans-serif" font-size="13" lengthAdjust="spacing" textLength="52" x="638" y="113.4951">Performs</text><text fill="#000000" font-family="sans-serif" font-size="13" lengthAdjust="spacing" textLength="7" x="950.5083" y="59.402">1</text><text fill="#000000" font-family="sans-serif" font-size="13" lengthAdjust="spacing" textLength="5" x="444.5174" y="212.3025">*</text><!--MD5=[37a14a5de6d6fd738aee271300f4b5c8]
link Company to Ship--><path codeLine="92" d="M1050.51,49.28 C1145.98,72.55 1371.43,128.67 1402,147 C1407.91,150.54 1413.72,154.53 1419.38,158.81 " fill="none" id="Company-Ship" style="stroke:#A80036;stroke-width:1.0;"/><polygon fill="#000000" points="1318.7932,109.599,1310.9588,104.207,1309.2857,109.8417,1318.7932,109.599" style="stroke:#000000;stroke-width:1.0;"/><text fill="#000000" font-family="sans-serif" font-size="13" lengthAdjust="spacing" textLength="33" x="1323" y="113.4951">Owns</text><text fill="#000000" font-family="sans-serif" font-size="13" lengthAdjust="spacing" textLength="7" x="1058.418" y="47.3832">1</text><text fill="#000000" font-family="sans-serif" font-size="13" lengthAdjust="spacing" textLength="20" x="1391.5923" y="148.0455">1..*</text><!--MD5=[710b10ea314ec23c5eb602bd01bfa9d5]
link Company to Truck--><path codeLine="93" d="M1050.55,44.9 C1117.7,54.5 1252.23,74.86 1365,99 C1395.99,105.63 1403.06,110.14 1434,117 C1506.34,133.03 1535.81,106.71 1598,147 C1626.17,165.26 1645.81,199.71 1656.5,222.76 " fill="none" id="Company-Truck" style="stroke:#A80036;stroke-width:1.0;"/><polygon fill="#000000" points="1443.7976,109.584,1435.9464,104.2166,1434.2909,109.8565,1443.7976,109.584" style="stroke:#000000;stroke-width:1.0;"/><text fill="#000000" font-family="sans-serif" font-size="13" lengthAdjust="spacing" textLength="33" x="1448" y="113.4951">Owns</text><text fill="#000000" font-family="sans-serif" font-size="13" lengthAdjust="spacing" textLength="7" x="1058.4648" y="42.2504">1</text><text fill="#000000" font-family="sans-serif" font-size="13" lengthAdjust="spacing" textLength="20" x="1631.5031" y="212.0387">1..*</text><!--MD5=[5fd98a8c03cc0e5a408f548eb1c0ace8]
link Company to Port--><path codeLine="94" d="M965.12,39.27 C862.63,40.73 595.89,49.42 380,99 C320.38,112.69 299.1,109.2 251,147 C238.92,156.49 228.23,168.76 219.13,181.42 " fill="none" id="Company-Port" style="stroke:#A80036;stroke-width:1.0;"/><polygon fill="#000000" points="380.0884,109.1117,389.5237,110.3056,388.4235,104.5316,380.0884,109.1117" style="stroke:#000000;stroke-width:1.0;"/><text fill="#000000" font-family="sans-serif" font-size="13" lengthAdjust="spacing" textLength="33" x="394" y="113.4951">Owns</text><text fill="#000000" font-family="sans-serif" font-size="13" lengthAdjust="spacing" textLength="7" x="950.4383" y="35.6932">1</text><text fill="#000000" font-family="sans-serif" font-size="13" lengthAdjust="spacing" textLength="5" x="217.9028" y="170.4269">*</text><!--MD5=[acda98ef2513d819683ba761a9c77b11]
link Company to Warehouse--><path codeLine="95" d="M965.31,40.62 C878.3,44.7 674.62,58.15 509,99 C450.82,113.35 429.84,109.63 383,147 C371.05,156.53 360.49,168.83 351.53,181.49 " fill="none" id="Company-Warehouse" style="stroke:#A80036;stroke-width:1.0;"/><polygon fill="#000000" points="509.1267,109.2943,518.6,110.1354,517.2852,104.4065,509.1267,109.2943" style="stroke:#000000;stroke-width:1.0;"/><text fill="#000000" font-family="sans-serif" font-size="13" lengthAdjust="spacing" textLength="33" x="523" y="113.4951">Owns</text><text fill="#000000" font-family="sans-serif" font-size="13" lengthAdjust="spacing" textLength="7" x="950.3711" y="55.9847">1</text><text fill="#000000" font-family="sans-serif" font-size="13" lengthAdjust="spacing" textLength="5" x="350.2335" y="170.5049">*</text><!--MD5=[09366576ee87d48d594df10cacc83f45]
link Company to Employee--><path codeLine="96" d="M1021.96,69.1 C1038.13,103.97 1064.93,161.75 1083.47,201.74 " fill="none" id="Company-Employee" style="stroke:#A80036;stroke-width:1.0;"/><polygon fill="#000000" points="1048.1035,112.7118,1046.9644,103.2697,1041.632,105.7425,1048.1035,112.7118" style="stroke:#000000;stroke-width:1.0;"/><text fill="#000000" font-family="sans-serif" font-size="13" lengthAdjust="spacing" textLength="51" x="1055" y="113.4951">Employs</text><text fill="#000000" font-family="sans-serif" font-size="13" lengthAdjust="spacing" textLength="7" x="1017.0193" y="90.3437">1</text><text fill="#000000" font-family="sans-serif" font-size="13" lengthAdjust="spacing" textLength="5" x="1074.9435" y="191.1443">*</text><!--MD5=[31d56c2a59c24a3884ad113e84e7cd8c]
link Company to CargoManifest--><path codeLine="97" d="M982.85,69.29 C976.79,78.31 971.16,88.58 968,99 C955.21,141.26 960.16,193.53 964.72,222.99 " fill="none" id="Company-CargoManifest" style="stroke:#A80036;stroke-width:1.0;"/><polygon fill="#000000" points="972.4143,113.1414,976.3926,104.5028,970.5552,103.8143,972.4143,113.1414" style="stroke:#000000;stroke-width:1.0;"/><text fill="#000000" font-family="sans-serif" font-size="13" lengthAdjust="spacing" textLength="39" x="982" y="113.4951">Knows</text><text fill="#000000" font-family="sans-serif" font-size="13" lengthAdjust="spacing" textLength="7" x="970.3886" y="90.3239">1</text><text fill="#000000" font-family="sans-serif" font-size="13" lengthAdjust="spacing" textLength="5" x="957.9826" y="212.3276">*</text><!--MD5=[9abf40ff36e4aa94ac761b2803c1dce8]
link Company to OrganizationRole--><path codeLine="98" d="M1050.54,61.47 C1070.42,72.32 1094.23,85.82 1115,99 C1174.73,136.9 1240.81,185.27 1281.62,215.95 " fill="none" id="Company-OrganizationRole" style="stroke:#A80036;stroke-width:1.0;"/><polygon fill="#000000" points="1147.1567,110.9546,1141.2705,103.4844,1138.0038,108.3709,1147.1567,110.9546" style="stroke:#000000;stroke-width:1.0;"/><text fill="#000000" font-family="sans-serif" font-size="13" lengthAdjust="spacing" textLength="80" x="1152" y="113.4951">Comprehends</text><text fill="#000000" font-family="sans-serif" font-size="13" lengthAdjust="spacing" textLength="7" x="1058.4531" y="61.6683">1</text><text fill="#000000" font-family="sans-serif" font-size="13" lengthAdjust="spacing" textLength="5" x="1267.4587" y="204.9593">*</text><!--MD5=[241b49406f7a05442b1e788ffaf3787c]
link Employee to OrganizationRole--><path codeLine="99" d="M1147.65,247 C1179.09,247 1222,247 1257.26,247 " fill="none" id="Employee-OrganizationRole" style="stroke:#A80036;stroke-width:1.0;"/><polygon fill="#000000" points="1175,235.1758,1165.9549,232.2369,1165.9549,238.1147,1175,235.1758" style="stroke:#000000;stroke-width:1.0;"/><text fill="#000000" font-family="sans-serif" font-size="13" lengthAdjust="spacing" textLength="60" x="1179" y="240.4951">Has/Plays</text><text fill="#000000" font-family="sans-serif" font-size="13" lengthAdjust="spacing" textLength="5" x="1155.582" y="243.1926">*</text><text fill="#000000" font-family="sans-serif" font-size="13" lengthAdjust="spacing" textLength="7" x="1242.4854" y="243.5999">1</text><!--MD5=[7e7b3caec922dd491be38990c8e0d0e6]
link Shipping to Client--><path codeLine="100" d="M451.56,271.14 C461.85,292.24 478.86,323.6 499,347 C526.39,378.83 564.78,408.14 591.76,426.89 " fill="none" id="Shipping-Client" style="stroke:#A80036;stroke-width:1.0;"/><polygon fill="#000000" points="554.3452,389.892,550.478,381.2031,546.1094,385.1356,554.3452,389.892" style="stroke:#000000;stroke-width:1.0;"/><text fill="#000000" font-family="sans-serif" font-size="13" lengthAdjust="spacing" textLength="80" x="560" y="391.4951">Requested by</text><text fill="#000000" font-family="sans-serif" font-size="13" lengthAdjust="spacing" textLength="7" x="446.2809" y="292.5121">1</text><text fill="#000000" font-family="sans-serif" font-size="13" lengthAdjust="spacing" textLength="7" x="576.9419" y="417.837">1</text><!--MD5=[5f228b2dabc5a576c4be87e86dac487c]
link Port to PortMagager--><path codeLine="101" d="M145.83,295.4 C127.69,319.11 106.43,348.73 90,377 C81.1,392.31 72.93,410.55 67.07,424.7 " fill="none" id="Port-PortMagager" style="stroke:#A80036;stroke-width:1.0;"/><polygon fill="#000000" points="92.3989,390.446,99.6143,384.25,94.5944,381.1923,92.3989,390.446" style="stroke:#000000;stroke-width:1.0;"/><text fill="#000000" font-family="sans-serif" font-size="13" lengthAdjust="spacing" textLength="71" x="104" y="391.4951">Managed by</text><text fill="#000000" font-family="sans-serif" font-size="13" lengthAdjust="spacing" textLength="5" x="133.0773" y="300.6284">*</text><text fill="#000000" font-family="sans-serif" font-size="13" lengthAdjust="spacing" textLength="7" x="61.4973" y="413.9633">1</text><!--MD5=[523305c00a070bde6e5f3e4da262743d]
link Port to PortStaff--><path codeLine="102" d="M184,312.66 C184,351 184,397.31 184,424.61 " fill="none" id="Port-PortStaff" style="stroke:#A80036;stroke-width:1.0;"/><polygon fill="#000000" points="189,391.1758,191.9389,382.1307,186.0611,382.1307,189,391.1758" style="stroke:#000000;stroke-width:1.0;"/><text fill="#000000" font-family="sans-serif" font-size="13" lengthAdjust="spacing" textLength="23" x="198" y="391.4951">Has</text><text fill="#000000" font-family="sans-serif" font-size="13" lengthAdjust="spacing" textLength="7" x="176.6172" y="334.2301">1</text><text fill="#000000" font-family="sans-serif" font-size="13" lengthAdjust="spacing" textLength="7" x="176.1469" y="414.2529">1</text><!--MD5=[bd1ab4364253f3a727910606f4236bc4]
link Warehouse to WarehouseManager--><path codeLine="103" d="M321.2,312.66 C323.7,351 326.71,397.31 328.48,424.61 " fill="none" id="Warehouse-WarehouseManager" style="stroke:#A80036;stroke-width:1.0;"/><polygon fill="#000000" points="332.3245,391.1652,334.6702,381.9485,328.8048,382.3299,332.3245,391.1652" style="stroke:#000000;stroke-width:1.0;"/><text fill="#000000" font-family="sans-serif" font-size="13" lengthAdjust="spacing" textLength="71" x="341" y="391.4951">Managed by</text><text fill="#000000" font-family="sans-serif" font-size="13" lengthAdjust="spacing" textLength="5" x="316.3859" y="334.2301">*</text><text fill="#000000" font-family="sans-serif" font-size="13" lengthAdjust="spacing" textLength="7" x="320.2564" y="414.2529">1</text><!--MD5=[0190973f8c5de701e926b865ec575606]
link Warehouse to WarehouseStaff--><path codeLine="104" d="M355.73,312.53 C364.08,324.5 373.33,336.53 383,347 C397.59,362.81 404.68,362.98 421,377 C438.94,392.42 458.42,410.65 473.17,424.77 " fill="none" id="Warehouse-WarehouseStaff" style="stroke:#A80036;stroke-width:1.0;"/><polygon fill="#000000" points="449.6147,389.6304,445.1062,381.2563,441.0451,385.5056,449.6147,389.6304" style="stroke:#000000;stroke-width:1.0;"/><text fill="#000000" font-family="sans-serif" font-size="13" lengthAdjust="spacing" textLength="23" x="455" y="391.4951">Has</text><text fill="#000000" font-family="sans-serif" font-size="13" lengthAdjust="spacing" textLength="7" x="352.5833" y="334.0858">1</text><text fill="#000000" font-family="sans-serif" font-size="13" lengthAdjust="spacing" textLength="7" x="459.1667" y="414.0512">1</text><!--MD5=[a5b2d7054789f86100b09c2b7a7f0a67]
link Ship to ShipCaptain--><path codeLine="105" d="M1522.8,347.12 C1529.49,376.2 1536.19,405.37 1540.67,424.81 " fill="none" id="Ship-ShipCaptain" style="stroke:#A80036;stroke-width:1.0;"/><polygon fill="#000000" points="1539.1208,391.0485,1539.9574,381.5748,1534.2291,382.8924,1539.1208,391.0485" style="stroke:#000000;stroke-width:1.0;"/><text fill="#000000" font-family="sans-serif" font-size="13" lengthAdjust="spacing" textLength="72" x="1547" y="391.4951">Overseen by</text><text fill="#000000" font-family="sans-serif" font-size="13" lengthAdjust="spacing" textLength="7" x="1517.2173" y="368.5609">1</text><text fill="#000000" font-family="sans-serif" font-size="13" lengthAdjust="spacing" textLength="7" x="1531.4073" y="414.1015">1</text><!--MD5=[10027fccd445a06430c237523f63442e]
link Ship to ShipChiefElectricalEngineer--><path codeLine="106" d="M1419.32,336.62 C1413.72,340.48 1407.93,343.99 1402,347 C1321.85,387.68 1260.65,308.89 1202,377 C1190.77,390.04 1194.84,409.66 1200.98,424.97 " fill="none" id="Ship-ShipChiefElectricalEngineer" style="stroke:#A80036;stroke-width:1.0;"/><polygon fill="#000000" points="1202.3651,388.0513,1211.8521,387.3828,1209.6473,381.9341,1202.3651,388.0513" style="stroke:#000000;stroke-width:1.0;"/><text fill="#000000" font-family="sans-serif" font-size="13" lengthAdjust="spacing" textLength="158" x="1216" y="391.4951">Electrical part controlled by</text><text fill="#000000" font-family="sans-serif" font-size="13" lengthAdjust="spacing" textLength="7" x="1404.5597" y="359.1217">1</text><text fill="#000000" font-family="sans-serif" font-size="13" lengthAdjust="spacing" textLength="7" x="1190.003" y="414.3025">1</text><!--MD5=[ba54223a31981c52d18c1dd571f5520c]
link Ship to Container--><path codeLine="107" d="M1441.16,347.25 C1410.92,391.02 1370.61,439.91 1324,473 C1182.86,573.2 975.44,615.86 886.31,630.31 " fill="none" id="Ship-Container" style="stroke:#A80036;stroke-width:1.0;"/><polygon fill="#000000" points="1376.5461,451.448,1385.9388,449.9555,1383.2677,444.7196,1376.5461,451.448" style="stroke:#000000;stroke-width:1.0;"/><text fill="#000000" font-family="sans-serif" font-size="13" lengthAdjust="spacing" textLength="61" x="1390" y="454.4951">Transports</text><text fill="#000000" font-family="sans-serif" font-size="13" lengthAdjust="spacing" textLength="7" x="1429.5819" y="368.7005">1</text><text fill="#000000" font-family="sans-serif" font-size="13" lengthAdjust="spacing" textLength="5" x="893.8973" y="625.3579">*</text><!--MD5=[8304bc5289f627c52f3048b7211fb80c]
link Ship to FleetManager--><path codeLine="108" d="M1419.22,337.26 C1413.66,340.93 1407.91,344.22 1402,347 C1333.96,379 1126.78,334.15 1065,377 C1049.05,388.06 1040.34,408.7 1035.74,424.88 " fill="none" id="Ship-FleetManager" style="stroke:#A80036;stroke-width:1.0;"/><polygon fill="#000000" points="1065.1256,387.2895,1074.5981,388.1398,1073.2888,382.4097,1065.1256,387.2895" style="stroke:#000000;stroke-width:1.0;"/><text fill="#000000" font-family="sans-serif" font-size="13" lengthAdjust="spacing" textLength="107" x="1079" y="391.4951">Fleet controlled by</text><text fill="#000000" font-family="sans-serif" font-size="13" lengthAdjust="spacing" textLength="7" x="1404.4504" y="342.3457">1</text><text fill="#000000" font-family="sans-serif" font-size="13" lengthAdjust="spacing" textLength="7" x="1029.0578" y="414.1894">1</text><!--MD5=[69c0c315057270c77c6273af23b4531b]
link Truck to TruckDriver--><path codeLine="109" d="M1684.43,271.33 C1714.88,309.87 1775.32,386.37 1805.68,424.81 " fill="none" id="Truck-TruckDriver" style="stroke:#A80036;stroke-width:1.0;"/><polygon fill="#000000" points="1789.0995,390.0992,1785.7986,381.1798,1781.1863,384.8235,1789.0995,390.0992" style="stroke:#000000;stroke-width:1.0;"/><text fill="#000000" font-family="sans-serif" font-size="13" lengthAdjust="spacing" textLength="72" x="1795" y="391.4951">Overseen by</text><text fill="#000000" font-family="sans-serif" font-size="13" lengthAdjust="spacing" textLength="7" x="1680.8826" y="292.3421">1</text><text fill="#000000" font-family="sans-serif" font-size="13" lengthAdjust="spacing" textLength="7" x="1793.0886" y="414.1015">1</text><!--MD5=[40e2b5717560220ad35e84810a8f1b44]
link TrafficManager to Ship--><path codeLine="110" d="M1533.23,62.15 C1518.9,71.45 1505,83.67 1497,99 C1489.39,113.6 1485.8,130.17 1484.69,146.8 " fill="none" id="TrafficManager-Ship" style="stroke:#A80036;stroke-width:1.0;"/><polygon fill="#000000" points="1499.5128,112.5133,1506.5617,106.1286,1501.4627,103.2047,1499.5128,112.5133" style="stroke:#000000;stroke-width:1.0;"/><text fill="#000000" font-family="sans-serif" font-size="13" lengthAdjust="spacing" textLength="111" x="1511" y="113.4951">Controls position of</text><text fill="#000000" font-family="sans-serif" font-size="13" lengthAdjust="spacing" textLength="7" x="1513.2454" y="83.5245">1</text><text fill="#000000" font-family="sans-serif" font-size="13" lengthAdjust="spacing" textLength="5" x="1478.3264" y="136.017">*</text><!--MD5=[c7e069b1632a1ebf214cea93e002bf09]
link TrafficManager to Truck--><path codeLine="111" d="M1603.18,62.21 C1611.56,72.83 1620.76,85.95 1627,99 C1646.76,140.33 1657.65,193.16 1662.62,222.92 " fill="none" id="TrafficManager-Truck" style="stroke:#A80036;stroke-width:1.0;"/><polygon fill="#000000" points="1639.7345,112.8653,1639.3532,103.3624,1633.8404,105.4014,1639.7345,112.8653" style="stroke:#000000;stroke-width:1.0;"/><text fill="#000000" font-family="sans-serif" font-size="13" lengthAdjust="spacing" textLength="111" x="1647" y="113.4951">Controls position of</text><text fill="#000000" font-family="sans-serif" font-size="13" lengthAdjust="spacing" textLength="7" x="1600.2458" y="83.5992">1</text><text fill="#000000" font-family="sans-serif" font-size="13" lengthAdjust="spacing" textLength="5" x="1656.1132" y="212.2397">*</text><!--MD5=[062871d5623378d71d4c490cb56733bb]
link Truck to Container--><path codeLine="112" d="M1668.07,271.26 C1670.75,316.87 1669.64,418.36 1614,473 C1508.62,576.48 1032.72,621.7 886.12,633.34 " fill="none" id="Truck-Container" style="stroke:#A80036;stroke-width:1.0;"/><polygon fill="#000000" points="1646.4628,451.2767,1655.9056,450.143,1653.4358,444.8092,1646.4628,451.2767" style="stroke:#000000;stroke-width:1.0;"/><text fill="#000000" font-family="sans-serif" font-size="13" lengthAdjust="spacing" textLength="61" x="1660" y="454.4951">Transports</text><text fill="#000000" font-family="sans-serif" font-size="13" lengthAdjust="spacing" textLength="7" x="1660.7214" y="292.6613">1</text><text fill="#000000" font-family="sans-serif" font-size="13" lengthAdjust="spacing" textLength="7" x="894.1328" y="647.5663">1</text><!--MD5=[b33f97809f7ca85522325d24a4e89d2a]
link WarehouseStaff to Container--><path codeLine="113" d="M539.77,473.06 C606.13,508.82 733.15,577.29 799.78,613.2 " fill="none" id="WarehouseStaff-Container" style="stroke:#A80036;stroke-width:1.0;"/><polygon fill="#000000" points="627.4014,514.548,620.8336,507.6695,618.0448,512.8437,627.4014,514.548" style="stroke:#000000;stroke-width:1.0;"/><text fill="#000000" font-family="sans-serif" font-size="13" lengthAdjust="spacing" textLength="86" x="632" y="517.4951">Loads/Unloads</text><text fill="#000000" font-family="sans-serif" font-size="13" lengthAdjust="spacing" textLength="7" x="542.3421" y="494.4126">1</text><text fill="#000000" font-family="sans-serif" font-size="13" lengthAdjust="spacing" textLength="7" x="785.042" y="605.414">1</text><!--MD5=[02836180ced979df3b5f6a85200010f3]
link PortStaff to Container--><path codeLine="114" d="M223.23,466.83 C228.82,469.02 234.53,471.14 240,473 C446.19,542.99 699.81,603.75 799.68,626.72 " fill="none" id="PortStaff-Container" style="stroke:#A80036;stroke-width:1.0;"/><polygon fill="#000000" points="397.8181,513.5122,389.8876,508.2626,388.3166,513.9266,397.8181,513.5122" style="stroke:#000000;stroke-width:1.0;"/><text fill="#000000" font-family="sans-serif" font-size="13" lengthAdjust="spacing" textLength="86" x="402" y="517.4951">Loads/Unloads</text><text fill="#000000" font-family="sans-serif" font-size="13" lengthAdjust="spacing" textLength="7" x="231.1083" y="466.1699">1</text><text fill="#000000" font-family="sans-serif" font-size="13" lengthAdjust="spacing" textLength="5" x="787.0911" y="639.8233">*</text><!--MD5=[2137d8aefd4a4250810b98ce4671ea30]
link UnloadingCargoManifest to CargoManifest--><path codeLine="115" d="M613.18,222.73 C631.35,189.6 669.02,131.63 720.5,108 C783.92,78.89 816.07,74.9 877.5,108 C914.99,128.2 939.64,171.23 953.81,204.09 " fill="none" id="UnloadingCargoManifest-to-CargoManifest" style="stroke:#A80036;stroke-width:1.0;"/><polygon fill="none" points="960.42,201.77,961.3,222.95,947.41,206.94,960.42,201.77" style="stroke:#A80036;stroke-width:1.0;"/><!--MD5=[7c36a3e6645c314e52b14fd1d0e4255b]
link LoadingCargoManifest to CargoManifest--><path codeLine="116" d="M877.69,247 C882.61,247 887.52,247 892.44,247 " fill="none" id="LoadingCargoManifest-to-CargoManifest" style="stroke:#A80036;stroke-width:1.0;"/><polygon fill="none" points="892.65,240,912.65,247,892.65,254,892.65,240" style="stroke:#A80036;stroke-width:1.0;"/><!--MD5=[a93f71c337684849482b0ec5675aa7db]
link CargoManifest to Container--><path codeLine="117" d="M949.94,271.14 C924.62,303.36 880.77,364.62 861,425 C847.87,465.1 842.89,511.64 841.39,550.84 " fill="none" id="CargoManifest-Container" style="stroke:#A80036;stroke-width:1.0;"/><polygon fill="#000000" points="864.191,453.8371,870.2034,446.468,864.7237,444.3414,864.191,453.8371" style="stroke:#000000;stroke-width:1.0;"/><text fill="#000000" font-family="sans-serif" font-size="13" lengthAdjust="spacing" textLength="84" x="875" y="454.4951">Keeps track of</text><text fill="#000000" font-family="sans-serif" font-size="13" lengthAdjust="spacing" textLength="7" x="937.441" y="292.5121">1</text><text fill="#000000" font-family="sans-serif" font-size="13" lengthAdjust="spacing" textLength="5" x="836.0368" y="540.2359">*</text><!--MD5=[5332681b9d212c9db76a1d693365f0a1]
@startuml
'https://plantuml.com/class-diagram

skinparam classAttributeIconSize 0

class Company {
-Designation
}

class Container {
-Identification
-Payload
-Tare
-Gross
-Width
-Height
-Length
-Refrigerated
-Temperature
}

class Ship {
-MMSI
-Name
-IMO
-Number of Energy Generators
-Generators' Power Output
-Call sign
-Vessel type
-Length
-Width
-Capacity
-Draft
}

class Truck

class Client

class Port {
-Identification
-Name
-Continent
-Country
-Latitude
-longitude
}

class Warehouse {
-Identification
-Name
-Continent
-Country
-Latitude
-longitude
}

class Employee {
-Name
-Email
-Password
}

class OrganizationRole {
-Description
}

class PortMagager

class WarehouseManager

class ShipCaptain

class TruckDriver

class FleetManager

class ShipChiefElectricalEngineer

class TrafficManager

class WarehouseStaff

class PortStaff

class CargoManifest

class UnloadingCargoManifest

class LoadingCargoManifest

Company "1" - - "*" Shipping : Performs >
Company "1" - - "1..*" Ship : Owns >
Company "1" - - "1..*" Truck : Owns >
Company "1" - - "*" Port : Owns >
Company "1" - - "*" Warehouse : Owns >
Company "1" - - "*" Employee : Employs >
Company "1" - - "*" CargoManifest : Knows >
Company "1" - "*" OrganizationRole : Comprehends >
Employee "*" - "1" OrganizationRole : Has/Plays >
Shipping "1" - - "1" Client : Requested by >
Port "*" - - "1" PortMagager : Managed by >
Port "1" - - "1" PortStaff : Has >
Warehouse "*" - - "1" WarehouseManager : Managed by >
Warehouse "1" - - "1" WarehouseStaff : Has >
Ship "1" - - "1" ShipCaptain : Overseen by >
Ship "1" - - "1" ShipChiefElectricalEngineer : Electrical part controlled by >
Ship "1" - - "*" Container : Transports >
Ship "1" - - "1" FleetManager : Fleet controlled by >
Truck "1" - - "1" TruckDriver : Overseen by >
TrafficManager "1" - - "*" Ship : Controls position of >
TrafficManager "1" - - "*" Truck : Controls position of >
Truck "1" - - "1" Container : Transports >
WarehouseStaff "1" - - "1" Container : Loads/Unloads >
PortStaff "1" - - "*" Container : Loads/Unloads >
UnloadingCargoManifest -|> CargoManifest
LoadingCargoManifest -|> CargoManifest
CargoManifest "1" - - "*" Container : Keeps track of >

@enduml

@startuml

skinparam classAttributeIconSize 0

class Company {
-Designation
}

class Container {
-Identification
-Payload
-Tare
-Gross
-Width
-Height
-Length
-Refrigerated
-Temperature
}

class Ship {
-MMSI
-Name
-IMO
-Number of Energy Generators
-Generators' Power Output
-Call sign
-Vessel type
-Length
-Width
-Capacity
-Draft
}

class Truck

class Client

class Port {
-Identification
-Name
-Continent
-Country
-Latitude
-longitude
}

class Warehouse {
-Identification
-Name
-Continent
-Country
-Latitude
-longitude
}

class Employee {
-Name
-Email
-Password
}

class OrganizationRole {
-Description
}

class PortMagager

class WarehouseManager

class ShipCaptain

class TruckDriver

class FleetManager

class ShipChiefElectricalEngineer

class TrafficManager

class WarehouseStaff

class PortStaff

class CargoManifest

class UnloadingCargoManifest

class LoadingCargoManifest

Company "1" - - "*" Shipping : Performs >
Company "1" - - "1..*" Ship : Owns >
Company "1" - - "1..*" Truck : Owns >
Company "1" - - "*" Port : Owns >
Company "1" - - "*" Warehouse : Owns >
Company "1" - - "*" Employee : Employs >
Company "1" - - "*" CargoManifest : Knows >
Company "1" - "*" OrganizationRole : Comprehends >
Employee "*" - "1" OrganizationRole : Has/Plays >
Shipping "1" - - "1" Client : Requested by >
Port "*" - - "1" PortMagager : Managed by >
Port "1" - - "1" PortStaff : Has >
Warehouse "*" - - "1" WarehouseManager : Managed by >
Warehouse "1" - - "1" WarehouseStaff : Has >
Ship "1" - - "1" ShipCaptain : Overseen by >
Ship "1" - - "1" ShipChiefElectricalEngineer : Electrical part controlled by >
Ship "1" - - "*" Container : Transports >
Ship "1" - - "1" FleetManager : Fleet controlled by >
Truck "1" - - "1" TruckDriver : Overseen by >
TrafficManager "1" - - "*" Ship : Controls position of >
TrafficManager "1" - - "*" Truck : Controls position of >
Truck "1" - - "1" Container : Transports >
WarehouseStaff "1" - - "1" Container : Loads/Unloads >
PortStaff "1" - - "*" Container : Loads/Unloads >
UnloadingCargoManifest -|> CargoManifest
LoadingCargoManifest -|> CargoManifest
CargoManifest "1" - - "*" Container : Keeps track of >

@enduml

PlantUML version 1.2021.00(Sun Jan 10 10:25:05 GMT 2021)
(GPL source distribution)
Java Runtime: OpenJDK Runtime Environment
JVM: OpenJDK 64-Bit Server VM
Default Encoding: Cp1252
Language: en
Country: GB
--></g></svg>