<?xml version="1.0" encoding="UTF-8" standalone="no"?><svg xmlns="http://www.w3.org/2000/svg" xmlns:xlink="http://www.w3.org/1999/xlink" contentScriptType="application/ecmascript" contentStyleType="text/css" height="725px" preserveAspectRatio="none" style="width:1480px;height:725px;" version="1.1" viewBox="0 0 1480 725" width="1480px" zoomAndPan="magnify"><defs><filter height="300%" id="f1dq7n4tk1vp4h" width="300%" x="-1" y="-1"><feGaussianBlur result="blurOut" stdDeviation="2.0"/><feColorMatrix in="blurOut" result="blurOut2" type="matrix" values="0 0 0 0 0 0 0 0 0 0 0 0 0 0 0 0 0 0 .4 0"/><feOffset dx="4.0" dy="4.0" in="blurOut2" result="blurOut3"/><feBlend in="SourceGraphic" in2="blurOut3" mode="normal"/></filter></defs><g><!--MD5=[02e4b9b7573f1156f41e60aa5b4e25a4]
class Company--><rect codeLine="5" fill="#FEFECE" filter="url(#f1dq7n4tk1vp4h)" height="61.8359" id="Company" style="stroke:#A80036;stroke-width:1.5;" width="85" x="443.86" y="7"/><ellipse cx="458.86" cy="23" fill="#ADD1B2" rx="11" ry="11" style="stroke:#A80036;stroke-width:1.0;"/><path d="M460.86,19.5 Q461.0631,19 461.2975,18.75 Q461.5319,18.5 461.7975,18.5 Q462.2663,18.5 462.5631,18.7813 Q462.86,19.0625 462.86,19.7188 L462.86,21.2813 Q462.86,21.9375 462.5788,22.2188 Q462.2975,22.5 461.86,22.5 Q461.4694,22.5 461.2194,22.3281 Q460.9694,22.1563 460.86,21.7031 Q460.8131,21.3906 460.6413,21.2188 Q460.3288,20.8906 459.7663,20.7031 Q459.2038,20.5 458.6413,20.5 Q457.9381,20.5 457.3444,20.7813 Q456.7663,21.0625 456.3131,21.6875 Q455.86,22.3125 455.86,23.1719 L455.86,24.0938 Q455.86,25.125 456.7038,25.8125 Q457.5475,26.5 459.0475,26.5 Q459.9381,26.5 460.5631,26.2969 Q460.9225,26.1875 461.3288,25.8281 Q461.5944,25.625 461.735,25.5625 Q461.8756,25.5 462.0475,25.5 Q462.3756,25.5 462.61,25.7656 Q462.86,26.0156 462.86,26.375 Q462.86,26.7188 462.5163,27.125 Q462.0163,27.7188 461.2194,28.0469 Q460.1725,28.5 458.8913,28.5 Q457.3913,28.5 456.1881,27.9063 Q455.2194,27.4375 454.5319,26.4219 Q453.86,25.4063 453.86,24.2031 L453.86,23.1094 Q453.86,21.8594 454.4538,20.7656 Q455.0631,19.6719 456.11,19.0938 Q457.1725,18.5 458.36,18.5 Q459.0788,18.5 459.7038,18.75 Q460.3288,19 460.86,19.5 Z " fill="#000000"/><text fill="#000000" font-family="sans-serif" font-size="12" lengthAdjust="spacing" textLength="53" x="472.86" y="27.9102">Company</text><line style="stroke:#A80036;stroke-width:1.5;" x1="444.86" x2="527.86" y1="39" y2="39"/><text fill="#000000" font-family="sans-serif" font-size="11" lengthAdjust="spacing" textLength="60" x="449.86" y="54.4189">-Designation</text><line style="stroke:#A80036;stroke-width:1.5;" x1="444.86" x2="527.86" y1="60.8359" y2="60.8359"/><!--MD5=[e9a58730c562b34349daa605d1ed6662]
class Container--><rect codeLine="9" fill="#FEFECE" filter="url(#f1dq7n4tk1vp4h)" height="172.5234" id="Container" style="stroke:#A80036;stroke-width:1.5;" width="86" x="989.36" y="539"/><ellipse cx="1004.36" cy="555" fill="#ADD1B2" rx="11" ry="11" style="stroke:#A80036;stroke-width:1.0;"/><path d="M1006.36,551.5 Q1006.5631,551 1006.7975,550.75 Q1007.0319,550.5 1007.2975,550.5 Q1007.7663,550.5 1008.0631,550.7813 Q1008.36,551.0625 1008.36,551.7188 L1008.36,553.2813 Q1008.36,553.9375 1008.0788,554.2188 Q1007.7975,554.5 1007.36,554.5 Q1006.9694,554.5 1006.7194,554.3281 Q1006.4694,554.1563 1006.36,553.7031 Q1006.3131,553.3906 1006.1413,553.2188 Q1005.8288,552.8906 1005.2663,552.7031 Q1004.7038,552.5 1004.1413,552.5 Q1003.4381,552.5 1002.8444,552.7813 Q1002.2663,553.0625 1001.8131,553.6875 Q1001.36,554.3125 1001.36,555.1719 L1001.36,556.0938 Q1001.36,557.125 1002.2038,557.8125 Q1003.0475,558.5 1004.5475,558.5 Q1005.4381,558.5 1006.0631,558.2969 Q1006.4225,558.1875 1006.8288,557.8281 Q1007.0944,557.625 1007.235,557.5625 Q1007.3756,557.5 1007.5475,557.5 Q1007.8756,557.5 1008.11,557.7656 Q1008.36,558.0156 1008.36,558.375 Q1008.36,558.7188 1008.0163,559.125 Q1007.5163,559.7188 1006.7194,560.0469 Q1005.6725,560.5 1004.3913,560.5 Q1002.8913,560.5 1001.6881,559.9063 Q1000.7194,559.4375 1000.0319,558.4219 Q999.36,557.4063 999.36,556.2031 L999.36,555.1094 Q999.36,553.8594 999.9538,552.7656 Q1000.5631,551.6719 1001.61,551.0938 Q1002.6725,550.5 1003.86,550.5 Q1004.5788,550.5 1005.2038,550.75 Q1005.8288,551 1006.36,551.5 Z " fill="#000000"/><text fill="#000000" font-family="sans-serif" font-size="12" lengthAdjust="spacing" textLength="54" x="1018.36" y="559.9102">Container</text><line style="stroke:#A80036;stroke-width:1.5;" x1="990.36" x2="1074.36" y1="571" y2="571"/><text fill="#000000" font-family="sans-serif" font-size="11" lengthAdjust="spacing" textLength="64" x="995.36" y="586.4189">-Identification</text><text fill="#000000" font-family="sans-serif" font-size="11" lengthAdjust="spacing" textLength="42" x="995.36" y="600.2549">-Payload</text><text fill="#000000" font-family="sans-serif" font-size="11" lengthAdjust="spacing" textLength="26" x="995.36" y="614.0908">-Tare</text><text fill="#000000" font-family="sans-serif" font-size="11" lengthAdjust="spacing" textLength="34" x="995.36" y="627.9268">-Gross</text><text fill="#000000" font-family="sans-serif" font-size="11" lengthAdjust="spacing" textLength="31" x="995.36" y="641.7627">-Width</text><text fill="#000000" font-family="sans-serif" font-size="11" lengthAdjust="spacing" textLength="34" x="995.36" y="655.5986">-Height</text><text fill="#000000" font-family="sans-serif" font-size="11" lengthAdjust="spacing" textLength="37" x="995.36" y="669.4346">-Length</text><text fill="#000000" font-family="sans-serif" font-size="11" lengthAdjust="spacing" textLength="64" x="995.36" y="683.2705">-Refrigerated</text><text fill="#000000" font-family="sans-serif" font-size="11" lengthAdjust="spacing" textLength="65" x="995.36" y="697.1064">-Temperature</text><line style="stroke:#A80036;stroke-width:1.5;" x1="990.36" x2="1074.36" y1="703.5234" y2="703.5234"/><!--MD5=[0dc7f2ddb409b58bcf52b12238c25399]
class Ship--><rect codeLine="21" fill="#FEFECE" filter="url(#f1dq7n4tk1vp4h)" height="241.7031" id="Ship" style="stroke:#A80036;stroke-width:1.5;" width="161" x="654.86" y="147"/><ellipse cx="718.61" cy="163" fill="#ADD1B2" rx="11" ry="11" style="stroke:#A80036;stroke-width:1.0;"/><path d="M720.61,159.5 Q720.8131,159 721.0475,158.75 Q721.2819,158.5 721.5475,158.5 Q722.0163,158.5 722.3131,158.7813 Q722.61,159.0625 722.61,159.7188 L722.61,161.2813 Q722.61,161.9375 722.3288,162.2188 Q722.0475,162.5 721.61,162.5 Q721.2194,162.5 720.9694,162.3281 Q720.7194,162.1563 720.61,161.7031 Q720.5631,161.3906 720.3913,161.2188 Q720.0788,160.8906 719.5163,160.7031 Q718.9538,160.5 718.3913,160.5 Q717.6881,160.5 717.0944,160.7813 Q716.5163,161.0625 716.0631,161.6875 Q715.61,162.3125 715.61,163.1719 L715.61,164.0938 Q715.61,165.125 716.4538,165.8125 Q717.2975,166.5 718.7975,166.5 Q719.6881,166.5 720.3131,166.2969 Q720.6725,166.1875 721.0788,165.8281 Q721.3444,165.625 721.485,165.5625 Q721.6256,165.5 721.7975,165.5 Q722.1256,165.5 722.36,165.7656 Q722.61,166.0156 722.61,166.375 Q722.61,166.7188 722.2663,167.125 Q721.7663,167.7188 720.9694,168.0469 Q719.9225,168.5 718.6413,168.5 Q717.1413,168.5 715.9381,167.9063 Q714.9694,167.4375 714.2819,166.4219 Q713.61,165.4063 713.61,164.2031 L713.61,163.1094 Q713.61,161.8594 714.2038,160.7656 Q714.8131,159.6719 715.86,159.0938 Q716.9225,158.5 718.11,158.5 Q718.8288,158.5 719.4538,158.75 Q720.0788,159 720.61,159.5 Z " fill="#000000"/><text fill="#000000" font-family="sans-serif" font-size="12" lengthAdjust="spacing" textLength="25" x="739.11" y="167.9102">Ship</text><line style="stroke:#A80036;stroke-width:1.5;" x1="655.86" x2="814.86" y1="179" y2="179"/><text fill="#000000" font-family="sans-serif" font-size="11" lengthAdjust="spacing" textLength="29" x="660.86" y="194.4189">-MMSI</text><text fill="#000000" font-family="sans-serif" font-size="11" lengthAdjust="spacing" textLength="31" x="660.86" y="208.2549">-Name</text><text fill="#000000" font-family="sans-serif" font-size="11" lengthAdjust="spacing" textLength="22" x="660.86" y="222.0908">-IMO</text><text fill="#000000" font-family="sans-serif" font-size="11" lengthAdjust="spacing" textLength="149" x="660.86" y="235.9268">-Number of Energy Generators</text><text fill="#000000" font-family="sans-serif" font-size="11" lengthAdjust="spacing" textLength="131" x="660.86" y="249.7627">-Generators' Power Output</text><text fill="#000000" font-family="sans-serif" font-size="11" lengthAdjust="spacing" textLength="44" x="660.86" y="263.5986">-Call sign</text><text fill="#000000" font-family="sans-serif" font-size="11" lengthAdjust="spacing" textLength="62" x="660.86" y="277.4346">-Vessel type</text><text fill="#000000" font-family="sans-serif" font-size="11" lengthAdjust="spacing" textLength="37" x="660.86" y="291.2705">-Length</text><text fill="#000000" font-family="sans-serif" font-size="11" lengthAdjust="spacing" textLength="31" x="660.86" y="305.1064">-Width</text><text fill="#000000" font-family="sans-serif" font-size="11" lengthAdjust="spacing" textLength="46" x="660.86" y="318.9424">-Capacity</text><text fill="#000000" font-family="sans-serif" font-size="11" lengthAdjust="spacing" textLength="28" x="660.86" y="332.7783">-Draft</text><text fill="#000000" font-family="sans-serif" font-size="11" lengthAdjust="spacing" textLength="69" x="660.86" y="346.6143">-FleetManager</text><text fill="#000000" font-family="sans-serif" font-size="11" lengthAdjust="spacing" textLength="61" x="660.86" y="360.4502">-ShipCaptain</text><text fill="#000000" font-family="sans-serif" font-size="11" lengthAdjust="spacing" textLength="135" x="660.86" y="374.2861">-ShipChiefElectricalEngineer</text><line style="stroke:#A80036;stroke-width:1.5;" x1="655.86" x2="814.86" y1="380.7031" y2="380.7031"/><!--MD5=[1c0c3765e68dc4575d559b566278b914]
class ShipPosition--><rect codeLine="38" fill="#FEFECE" filter="url(#f1dq7n4tk1vp4h)" height="158.6875" id="ShipPosition" style="stroke:#A80036;stroke-width:1.5;" width="139" x="733.86" y="546"/><ellipse cx="765.51" cy="562" fill="#ADD1B2" rx="11" ry="11" style="stroke:#A80036;stroke-width:1.0;"/><path d="M767.51,558.5 Q767.7131,558 767.9475,557.75 Q768.1819,557.5 768.4475,557.5 Q768.9163,557.5 769.2131,557.7813 Q769.51,558.0625 769.51,558.7188 L769.51,560.2813 Q769.51,560.9375 769.2288,561.2188 Q768.9475,561.5 768.51,561.5 Q768.1194,561.5 767.8694,561.3281 Q767.6194,561.1563 767.51,560.7031 Q767.4631,560.3906 767.2913,560.2188 Q766.9788,559.8906 766.4163,559.7031 Q765.8538,559.5 765.2913,559.5 Q764.5881,559.5 763.9944,559.7813 Q763.4163,560.0625 762.9631,560.6875 Q762.51,561.3125 762.51,562.1719 L762.51,563.0938 Q762.51,564.125 763.3538,564.8125 Q764.1975,565.5 765.6975,565.5 Q766.5881,565.5 767.2131,565.2969 Q767.5725,565.1875 767.9788,564.8281 Q768.2444,564.625 768.385,564.5625 Q768.5256,564.5 768.6975,564.5 Q769.0256,564.5 769.26,564.7656 Q769.51,565.0156 769.51,565.375 Q769.51,565.7188 769.1663,566.125 Q768.6663,566.7188 767.8694,567.0469 Q766.8225,567.5 765.5413,567.5 Q764.0413,567.5 762.8381,566.9063 Q761.8694,566.4375 761.1819,565.4219 Q760.51,564.4063 760.51,563.2031 L760.51,562.1094 Q760.51,560.8594 761.1038,559.7656 Q761.7131,558.6719 762.76,558.0938 Q763.8225,557.5 765.01,557.5 Q765.7288,557.5 766.3538,557.75 Q766.9788,558 767.51,558.5 Z " fill="#000000"/><text fill="#000000" font-family="sans-serif" font-size="12" lengthAdjust="spacing" textLength="70" x="783.21" y="566.9102">ShipPosition</text><line style="stroke:#A80036;stroke-width:1.5;" x1="734.86" x2="871.86" y1="578" y2="578"/><text fill="#000000" font-family="sans-serif" font-size="11" lengthAdjust="spacing" textLength="79" x="739.86" y="593.4189">-Base Date Time</text><text fill="#000000" font-family="sans-serif" font-size="11" lengthAdjust="spacing" textLength="42" x="739.86" y="607.2549">-Latitude</text><text fill="#000000" font-family="sans-serif" font-size="11" lengthAdjust="spacing" textLength="51" x="739.86" y="621.0908">-Longitude</text><text fill="#000000" font-family="sans-serif" font-size="11" lengthAdjust="spacing" textLength="123" x="739.86" y="634.9268">-Speed over ground SOG</text><text fill="#000000" font-family="sans-serif" font-size="11" lengthAdjust="spacing" textLength="127" x="739.86" y="648.7627">-Course over ground COG</text><text fill="#000000" font-family="sans-serif" font-size="11" lengthAdjust="spacing" textLength="43" x="739.86" y="662.5986">-Heading</text><text fill="#000000" font-family="sans-serif" font-size="11" lengthAdjust="spacing" textLength="41" x="739.86" y="676.4346">-Position</text><text fill="#000000" font-family="sans-serif" font-size="11" lengthAdjust="spacing" textLength="92" x="739.86" y="690.2705">-Transceiver Class</text><line style="stroke:#A80036;stroke-width:1.5;" x1="734.86" x2="871.86" y1="696.6875" y2="696.6875"/><!--MD5=[f2ba7f6ab60af8dd0d3e354f91729b14]
class Truck--><rect codeLine="49" fill="#FEFECE" filter="url(#f1dq7n4tk1vp4h)" height="61.8359" id="Truck" style="stroke:#A80036;stroke-width:1.5;" width="72" x="996.36" y="237"/><ellipse cx="1015.86" cy="253" fill="#ADD1B2" rx="11" ry="11" style="stroke:#A80036;stroke-width:1.0;"/><path d="M1017.86,249.5 Q1018.0631,249 1018.2975,248.75 Q1018.5319,248.5 1018.7975,248.5 Q1019.2663,248.5 1019.5631,248.7813 Q1019.86,249.0625 1019.86,249.7188 L1019.86,251.2813 Q1019.86,251.9375 1019.5788,252.2188 Q1019.2975,252.5 1018.86,252.5 Q1018.4694,252.5 1018.2194,252.3281 Q1017.9694,252.1563 1017.86,251.7031 Q1017.8131,251.3906 1017.6413,251.2188 Q1017.3288,250.8906 1016.7663,250.7031 Q1016.2038,250.5 1015.6413,250.5 Q1014.9381,250.5 1014.3444,250.7813 Q1013.7663,251.0625 1013.3131,251.6875 Q1012.86,252.3125 1012.86,253.1719 L1012.86,254.0938 Q1012.86,255.125 1013.7038,255.8125 Q1014.5475,256.5 1016.0475,256.5 Q1016.9381,256.5 1017.5631,256.2969 Q1017.9225,256.1875 1018.3288,255.8281 Q1018.5944,255.625 1018.735,255.5625 Q1018.8756,255.5 1019.0475,255.5 Q1019.3756,255.5 1019.61,255.7656 Q1019.86,256.0156 1019.86,256.375 Q1019.86,256.7188 1019.5163,257.125 Q1019.0163,257.7188 1018.2194,258.0469 Q1017.1725,258.5 1015.8913,258.5 Q1014.3913,258.5 1013.1881,257.9063 Q1012.2194,257.4375 1011.5319,256.4219 Q1010.86,255.4063 1010.86,254.2031 L1010.86,253.1094 Q1010.86,251.8594 1011.4538,250.7656 Q1012.0631,249.6719 1013.11,249.0938 Q1014.1725,248.5 1015.36,248.5 Q1016.0788,248.5 1016.7038,248.75 Q1017.3288,249 1017.86,249.5 Z " fill="#000000"/><text fill="#000000" font-family="sans-serif" font-size="12" lengthAdjust="spacing" textLength="30" x="1030.86" y="257.9102">Truck</text><line style="stroke:#A80036;stroke-width:1.5;" x1="997.36" x2="1067.36" y1="269" y2="269"/><text fill="#000000" font-family="sans-serif" font-size="11" lengthAdjust="spacing" textLength="60" x="1002.36" y="284.4189">-TruckDriver</text><line style="stroke:#A80036;stroke-width:1.5;" x1="997.36" x2="1067.36" y1="290.8359" y2="290.8359"/><!--MD5=[ed6624c6556d5e7b1bd23032162d20b7]
class Client--><rect codeLine="53" fill="#FEFECE" filter="url(#f1dq7n4tk1vp4h)" height="48" id="Client" style="stroke:#A80036;stroke-width:1.5;" width="64" x="547.36" y="601.5"/><ellipse cx="562.36" cy="617.5" fill="#ADD1B2" rx="11" ry="11" style="stroke:#A80036;stroke-width:1.0;"/><path d="M564.36,614 Q564.5631,613.5 564.7975,613.25 Q565.0319,613 565.2975,613 Q565.7663,613 566.0631,613.2813 Q566.36,613.5625 566.36,614.2188 L566.36,615.7813 Q566.36,616.4375 566.0788,616.7188 Q565.7975,617 565.36,617 Q564.9694,617 564.7194,616.8281 Q564.4694,616.6563 564.36,616.2031 Q564.3131,615.8906 564.1413,615.7188 Q563.8288,615.3906 563.2663,615.2031 Q562.7038,615 562.1413,615 Q561.4381,615 560.8444,615.2813 Q560.2663,615.5625 559.8131,616.1875 Q559.36,616.8125 559.36,617.6719 L559.36,618.5938 Q559.36,619.625 560.2038,620.3125 Q561.0475,621 562.5475,621 Q563.4381,621 564.0631,620.7969 Q564.4225,620.6875 564.8288,620.3281 Q565.0944,620.125 565.235,620.0625 Q565.3756,620 565.5475,620 Q565.8756,620 566.11,620.2656 Q566.36,620.5156 566.36,620.875 Q566.36,621.2188 566.0163,621.625 Q565.5163,622.2188 564.7194,622.5469 Q563.6725,623 562.3913,623 Q560.8913,623 559.6881,622.4063 Q558.7194,621.9375 558.0319,620.9219 Q557.36,619.9063 557.36,618.7031 L557.36,617.6094 Q557.36,616.3594 557.9538,615.2656 Q558.5631,614.1719 559.61,613.5938 Q560.6725,613 561.86,613 Q562.5788,613 563.2038,613.25 Q563.8288,613.5 564.36,614 Z " fill="#000000"/><text fill="#000000" font-family="sans-serif" font-size="12" lengthAdjust="spacing" textLength="32" x="576.36" y="622.4102">Client</text><line style="stroke:#A80036;stroke-width:1.5;" x1="548.36" x2="610.36" y1="633.5" y2="633.5"/><line style="stroke:#A80036;stroke-width:1.5;" x1="548.36" x2="610.36" y1="641.5" y2="641.5"/><!--MD5=[a0bfe97ac0a38e6e74cc1c7c7b744b71]
class Port--><rect codeLine="55" fill="#FEFECE" filter="url(#f1dq7n4tk1vp4h)" height="158.6875" id="Port" style="stroke:#A80036;stroke-width:1.5;" width="77" x="285.86" y="546"/><ellipse cx="311.21" cy="562" fill="#ADD1B2" rx="11" ry="11" style="stroke:#A80036;stroke-width:1.0;"/><path d="M313.21,558.5 Q313.4131,558 313.6475,557.75 Q313.8819,557.5 314.1475,557.5 Q314.6163,557.5 314.9131,557.7813 Q315.21,558.0625 315.21,558.7188 L315.21,560.2813 Q315.21,560.9375 314.9288,561.2188 Q314.6475,561.5 314.21,561.5 Q313.8194,561.5 313.5694,561.3281 Q313.3194,561.1563 313.21,560.7031 Q313.1631,560.3906 312.9913,560.2188 Q312.6788,559.8906 312.1163,559.7031 Q311.5538,559.5 310.9913,559.5 Q310.2881,559.5 309.6944,559.7813 Q309.1163,560.0625 308.6631,560.6875 Q308.21,561.3125 308.21,562.1719 L308.21,563.0938 Q308.21,564.125 309.0538,564.8125 Q309.8975,565.5 311.3975,565.5 Q312.2881,565.5 312.9131,565.2969 Q313.2725,565.1875 313.6788,564.8281 Q313.9444,564.625 314.085,564.5625 Q314.2256,564.5 314.3975,564.5 Q314.7256,564.5 314.96,564.7656 Q315.21,565.0156 315.21,565.375 Q315.21,565.7188 314.8663,566.125 Q314.3663,566.7188 313.5694,567.0469 Q312.5225,567.5 311.2413,567.5 Q309.7413,567.5 308.5381,566.9063 Q307.5694,566.4375 306.8819,565.4219 Q306.21,564.4063 306.21,563.2031 L306.21,562.1094 Q306.21,560.8594 306.8038,559.7656 Q307.4131,558.6719 308.46,558.0938 Q309.5225,557.5 310.71,557.5 Q311.4288,557.5 312.0538,557.75 Q312.6788,558 313.21,558.5 Z " fill="#000000"/><text fill="#000000" font-family="sans-serif" font-size="12" lengthAdjust="spacing" textLength="22" x="327.51" y="566.9102">Port</text><line style="stroke:#A80036;stroke-width:1.5;" x1="286.86" x2="361.86" y1="578" y2="578"/><text fill="#000000" font-family="sans-serif" font-size="11" lengthAdjust="spacing" textLength="64" x="291.86" y="593.4189">-Identification</text><text fill="#000000" font-family="sans-serif" font-size="11" lengthAdjust="spacing" textLength="31" x="291.86" y="607.2549">-Name</text><text fill="#000000" font-family="sans-serif" font-size="11" lengthAdjust="spacing" textLength="49" x="291.86" y="621.0908">-Continent</text><text fill="#000000" font-family="sans-serif" font-size="11" lengthAdjust="spacing" textLength="42" x="291.86" y="634.9268">-Country</text><text fill="#000000" font-family="sans-serif" font-size="11" lengthAdjust="spacing" textLength="42" x="291.86" y="648.7627">-Latitude</text><text fill="#000000" font-family="sans-serif" font-size="11" lengthAdjust="spacing" textLength="47" x="291.86" y="662.5986">-longitude</text><text fill="#000000" font-family="sans-serif" font-size="11" lengthAdjust="spacing" textLength="65" x="291.86" y="676.4346">-PortMagager</text><text fill="#000000" font-family="sans-serif" font-size="11" lengthAdjust="spacing" textLength="47" x="291.86" y="690.2705">-PortStaff</text><line style="stroke:#A80036;stroke-width:1.5;" x1="286.86" x2="361.86" y1="696.6875" y2="696.6875"/><!--MD5=[c5149b4909ffd2688ff51a939867f774]
class Warehouse--><rect codeLine="66" fill="#FEFECE" filter="url(#f1dq7n4tk1vp4h)" height="158.6875" id="Warehouse" style="stroke:#A80036;stroke-width:1.5;" width="114" x="398.36" y="546"/><ellipse cx="421.46" cy="562" fill="#ADD1B2" rx="11" ry="11" style="stroke:#A80036;stroke-width:1.0;"/><path d="M423.46,558.5 Q423.6631,558 423.8975,557.75 Q424.1319,557.5 424.3975,557.5 Q424.8663,557.5 425.1631,557.7813 Q425.46,558.0625 425.46,558.7188 L425.46,560.2813 Q425.46,560.9375 425.1788,561.2188 Q424.8975,561.5 424.46,561.5 Q424.0694,561.5 423.8194,561.3281 Q423.5694,561.1563 423.46,560.7031 Q423.4131,560.3906 423.2413,560.2188 Q422.9288,559.8906 422.3663,559.7031 Q421.8038,559.5 421.2413,559.5 Q420.5381,559.5 419.9444,559.7813 Q419.3663,560.0625 418.9131,560.6875 Q418.46,561.3125 418.46,562.1719 L418.46,563.0938 Q418.46,564.125 419.3038,564.8125 Q420.1475,565.5 421.6475,565.5 Q422.5381,565.5 423.1631,565.2969 Q423.5225,565.1875 423.9288,564.8281 Q424.1944,564.625 424.335,564.5625 Q424.4756,564.5 424.6475,564.5 Q424.9756,564.5 425.21,564.7656 Q425.46,565.0156 425.46,565.375 Q425.46,565.7188 425.1163,566.125 Q424.6163,566.7188 423.8194,567.0469 Q422.7725,567.5 421.4913,567.5 Q419.9913,567.5 418.7881,566.9063 Q417.8194,566.4375 417.1319,565.4219 Q416.46,564.4063 416.46,563.2031 L416.46,562.1094 Q416.46,560.8594 417.0538,559.7656 Q417.6631,558.6719 418.71,558.0938 Q419.7725,557.5 420.96,557.5 Q421.6788,557.5 422.3038,557.75 Q422.9288,558 423.46,558.5 Z " fill="#000000"/><text fill="#000000" font-family="sans-serif" font-size="12" lengthAdjust="spacing" textLength="64" x="437.26" y="566.9102">Warehouse</text><line style="stroke:#A80036;stroke-width:1.5;" x1="399.36" x2="511.36" y1="578" y2="578"/><text fill="#000000" font-family="sans-serif" font-size="11" lengthAdjust="spacing" textLength="64" x="404.36" y="593.4189">-Identification</text><text fill="#000000" font-family="sans-serif" font-size="11" lengthAdjust="spacing" textLength="31" x="404.36" y="607.2549">-Name</text><text fill="#000000" font-family="sans-serif" font-size="11" lengthAdjust="spacing" textLength="49" x="404.36" y="621.0908">-Continent</text><text fill="#000000" font-family="sans-serif" font-size="11" lengthAdjust="spacing" textLength="42" x="404.36" y="634.9268">-Country</text><text fill="#000000" font-family="sans-serif" font-size="11" lengthAdjust="spacing" textLength="42" x="404.36" y="648.7627">-Latitude</text><text fill="#000000" font-family="sans-serif" font-size="11" lengthAdjust="spacing" textLength="47" x="404.36" y="662.5986">-longitude</text><text fill="#000000" font-family="sans-serif" font-size="11" lengthAdjust="spacing" textLength="102" x="404.36" y="676.4346">-WarehouseManager</text><text fill="#000000" font-family="sans-serif" font-size="11" lengthAdjust="spacing" textLength="84" x="404.36" y="690.2705">-WarehouseStaff</text><line style="stroke:#A80036;stroke-width:1.5;" x1="399.36" x2="511.36" y1="696.6875" y2="696.6875"/><!--MD5=[7421f545a0d8420c5bec41e74b387d9c]
class Employee--><rect codeLine="77" fill="#FEFECE" filter="url(#f1dq7n4tk1vp4h)" height="89.5078" id="Employee" style="stroke:#A80036;stroke-width:1.5;" width="87" x="164.86" y="419"/><ellipse cx="179.86" cy="435" fill="#ADD1B2" rx="11" ry="11" style="stroke:#A80036;stroke-width:1.0;"/><path d="M181.86,431.5 Q182.0631,431 182.2975,430.75 Q182.5319,430.5 182.7975,430.5 Q183.2663,430.5 183.5631,430.7813 Q183.86,431.0625 183.86,431.7188 L183.86,433.2813 Q183.86,433.9375 183.5788,434.2188 Q183.2975,434.5 182.86,434.5 Q182.4694,434.5 182.2194,434.3281 Q181.9694,434.1563 181.86,433.7031 Q181.8131,433.3906 181.6413,433.2188 Q181.3288,432.8906 180.7663,432.7031 Q180.2038,432.5 179.6413,432.5 Q178.9381,432.5 178.3444,432.7813 Q177.7663,433.0625 177.3131,433.6875 Q176.86,434.3125 176.86,435.1719 L176.86,436.0938 Q176.86,437.125 177.7038,437.8125 Q178.5475,438.5 180.0475,438.5 Q180.9381,438.5 181.5631,438.2969 Q181.9225,438.1875 182.3288,437.8281 Q182.5944,437.625 182.735,437.5625 Q182.8756,437.5 183.0475,437.5 Q183.3756,437.5 183.61,437.7656 Q183.86,438.0156 183.86,438.375 Q183.86,438.7188 183.5163,439.125 Q183.0163,439.7188 182.2194,440.0469 Q181.1725,440.5 179.8913,440.5 Q178.3913,440.5 177.1881,439.9063 Q176.2194,439.4375 175.5319,438.4219 Q174.86,437.4063 174.86,436.2031 L174.86,435.1094 Q174.86,433.8594 175.4538,432.7656 Q176.0631,431.6719 177.11,431.0938 Q178.1725,430.5 179.36,430.5 Q180.0788,430.5 180.7038,430.75 Q181.3288,431 181.86,431.5 Z " fill="#000000"/><text fill="#000000" font-family="sans-serif" font-size="12" lengthAdjust="spacing" textLength="55" x="193.86" y="439.9102">Employee</text><line style="stroke:#A80036;stroke-width:1.5;" x1="165.86" x2="250.86" y1="451" y2="451"/><text fill="#000000" font-family="sans-serif" font-size="11" lengthAdjust="spacing" textLength="31" x="170.86" y="466.4189">-Name</text><text fill="#000000" font-family="sans-serif" font-size="11" lengthAdjust="spacing" textLength="28" x="170.86" y="480.2549">-Email</text><text fill="#000000" font-family="sans-serif" font-size="11" lengthAdjust="spacing" textLength="54" x="170.86" y="494.0908">-Password</text><line style="stroke:#A80036;stroke-width:1.5;" x1="165.86" x2="250.86" y1="500.5078" y2="500.5078"/><!--MD5=[12e90e92236ca84f203192a07d84ec5e]
class OrganizationRole--><rect codeLine="83" fill="#FEFECE" filter="url(#f1dq7n4tk1vp4h)" height="61.8359" id="OrganizationRole" style="stroke:#A80036;stroke-width:1.5;" width="127" x="80.86" y="594.5"/><ellipse cx="95.86" cy="610.5" fill="#ADD1B2" rx="11" ry="11" style="stroke:#A80036;stroke-width:1.0;"/><path d="M97.86,607 Q98.0631,606.5 98.2975,606.25 Q98.5319,606 98.7975,606 Q99.2663,606 99.5631,606.2813 Q99.86,606.5625 99.86,607.2188 L99.86,608.7813 Q99.86,609.4375 99.5788,609.7188 Q99.2975,610 98.86,610 Q98.4694,610 98.2194,609.8281 Q97.9694,609.6563 97.86,609.2031 Q97.8131,608.8906 97.6413,608.7188 Q97.3288,608.3906 96.7663,608.2031 Q96.2038,608 95.6413,608 Q94.9381,608 94.3444,608.2813 Q93.7663,608.5625 93.3131,609.1875 Q92.86,609.8125 92.86,610.6719 L92.86,611.5938 Q92.86,612.625 93.7038,613.3125 Q94.5475,614 96.0475,614 Q96.9381,614 97.5631,613.7969 Q97.9225,613.6875 98.3288,613.3281 Q98.5944,613.125 98.735,613.0625 Q98.8756,613 99.0475,613 Q99.3756,613 99.61,613.2656 Q99.86,613.5156 99.86,613.875 Q99.86,614.2188 99.5163,614.625 Q99.0163,615.2188 98.2194,615.5469 Q97.1725,616 95.8913,616 Q94.3913,616 93.1881,615.4063 Q92.2194,614.9375 91.5319,613.9219 Q90.86,612.9063 90.86,611.7031 L90.86,610.6094 Q90.86,609.3594 91.4538,608.2656 Q92.0631,607.1719 93.11,606.5938 Q94.1725,606 95.36,606 Q96.0788,606 96.7038,606.25 Q97.3288,606.5 97.86,607 Z " fill="#000000"/><text fill="#000000" font-family="sans-serif" font-size="12" lengthAdjust="spacing" textLength="95" x="109.86" y="615.4102">OrganizationRole</text><line style="stroke:#A80036;stroke-width:1.5;" x1="81.86" x2="206.86" y1="626.5" y2="626.5"/><text fill="#000000" font-family="sans-serif" font-size="11" lengthAdjust="spacing" textLength="58" x="86.86" y="641.9189">-Description</text><line style="stroke:#A80036;stroke-width:1.5;" x1="81.86" x2="206.86" y1="648.3359" y2="648.3359"/><!--MD5=[ddaf6f62b0bc30921877ec9fb9463c9f]
class TrafficManager--><rect codeLine="87" fill="#FEFECE" filter="url(#f1dq7n4tk1vp4h)" height="48" id="TrafficManager" style="stroke:#A80036;stroke-width:1.5;" width="113" x="894.86" y="14"/><ellipse cx="909.86" cy="30" fill="#ADD1B2" rx="11" ry="11" style="stroke:#A80036;stroke-width:1.0;"/><path d="M911.86,26.5 Q912.0631,26 912.2975,25.75 Q912.5319,25.5 912.7975,25.5 Q913.2663,25.5 913.5631,25.7813 Q913.86,26.0625 913.86,26.7188 L913.86,28.2813 Q913.86,28.9375 913.5788,29.2188 Q913.2975,29.5 912.86,29.5 Q912.4694,29.5 912.2194,29.3281 Q911.9694,29.1563 911.86,28.7031 Q911.8131,28.3906 911.6413,28.2188 Q911.3288,27.8906 910.7663,27.7031 Q910.2038,27.5 909.6413,27.5 Q908.9381,27.5 908.3444,27.7813 Q907.7663,28.0625 907.3131,28.6875 Q906.86,29.3125 906.86,30.1719 L906.86,31.0938 Q906.86,32.125 907.7038,32.8125 Q908.5475,33.5 910.0475,33.5 Q910.9381,33.5 911.5631,33.2969 Q911.9225,33.1875 912.3288,32.8281 Q912.5944,32.625 912.735,32.5625 Q912.8756,32.5 913.0475,32.5 Q913.3756,32.5 913.61,32.7656 Q913.86,33.0156 913.86,33.375 Q913.86,33.7188 913.5163,34.125 Q913.0163,34.7188 912.2194,35.0469 Q911.1725,35.5 909.8913,35.5 Q908.3913,35.5 907.1881,34.9063 Q906.2194,34.4375 905.5319,33.4219 Q904.86,32.4063 904.86,31.2031 L904.86,30.1094 Q904.86,28.8594 905.4538,27.7656 Q906.0631,26.6719 907.11,26.0938 Q908.1725,25.5 909.36,25.5 Q910.0788,25.5 910.7038,25.75 Q911.3288,26 911.86,26.5 Z " fill="#000000"/><text fill="#000000" font-family="sans-serif" font-size="12" lengthAdjust="spacing" textLength="81" x="923.86" y="34.9102">TrafficManager</text><line style="stroke:#A80036;stroke-width:1.5;" x1="895.86" x2="1006.86" y1="46" y2="46"/><line style="stroke:#A80036;stroke-width:1.5;" x1="895.86" x2="1006.86" y1="54" y2="54"/><!--MD5=[76562047389981627aea27c31a97aff5]
class CargoManifest--><rect codeLine="89" fill="#FEFECE" filter="url(#f1dq7n4tk1vp4h)" height="48" id="CargoManifest" style="stroke:#A80036;stroke-width:1.5;" width="112" x="1121.36" y="244"/><ellipse cx="1136.36" cy="260" fill="#ADD1B2" rx="11" ry="11" style="stroke:#A80036;stroke-width:1.0;"/><path d="M1138.36,256.5 Q1138.5631,256 1138.7975,255.75 Q1139.0319,255.5 1139.2975,255.5 Q1139.7663,255.5 1140.0631,255.7813 Q1140.36,256.0625 1140.36,256.7188 L1140.36,258.2813 Q1140.36,258.9375 1140.0788,259.2188 Q1139.7975,259.5 1139.36,259.5 Q1138.9694,259.5 1138.7194,259.3281 Q1138.4694,259.1563 1138.36,258.7031 Q1138.3131,258.3906 1138.1413,258.2188 Q1137.8288,257.8906 1137.2663,257.7031 Q1136.7038,257.5 1136.1413,257.5 Q1135.4381,257.5 1134.8444,257.7813 Q1134.2663,258.0625 1133.8131,258.6875 Q1133.36,259.3125 1133.36,260.1719 L1133.36,261.0938 Q1133.36,262.125 1134.2038,262.8125 Q1135.0475,263.5 1136.5475,263.5 Q1137.4381,263.5 1138.0631,263.2969 Q1138.4225,263.1875 1138.8288,262.8281 Q1139.0944,262.625 1139.235,262.5625 Q1139.3756,262.5 1139.5475,262.5 Q1139.8756,262.5 1140.11,262.7656 Q1140.36,263.0156 1140.36,263.375 Q1140.36,263.7188 1140.0163,264.125 Q1139.5163,264.7188 1138.7194,265.0469 Q1137.6725,265.5 1136.3913,265.5 Q1134.8913,265.5 1133.6881,264.9063 Q1132.7194,264.4375 1132.0319,263.4219 Q1131.36,262.4063 1131.36,261.2031 L1131.36,260.1094 Q1131.36,258.8594 1131.9538,257.7656 Q1132.5631,256.6719 1133.61,256.0938 Q1134.6725,255.5 1135.86,255.5 Q1136.5788,255.5 1137.2038,255.75 Q1137.8288,256 1138.36,256.5 Z " fill="#000000"/><text fill="#000000" font-family="sans-serif" font-size="12" lengthAdjust="spacing" textLength="80" x="1150.36" y="264.9102">CargoManifest</text><line style="stroke:#A80036;stroke-width:1.5;" x1="1122.36" x2="1232.36" y1="276" y2="276"/><line style="stroke:#A80036;stroke-width:1.5;" x1="1122.36" x2="1232.36" y1="284" y2="284"/><!--MD5=[174c0e4036b9b8ac640de066b1712445]
class UnloadingCargoManifest--><rect codeLine="91" fill="#FEFECE" filter="url(#f1dq7n4tk1vp4h)" height="48" id="UnloadingCargoManifest" style="stroke:#A80036;stroke-width:1.5;" width="169" x="1105.86" y="14"/><ellipse cx="1120.86" cy="30" fill="#ADD1B2" rx="11" ry="11" style="stroke:#A80036;stroke-width:1.0;"/><path d="M1122.86,26.5 Q1123.0631,26 1123.2975,25.75 Q1123.5319,25.5 1123.7975,25.5 Q1124.2663,25.5 1124.5631,25.7813 Q1124.86,26.0625 1124.86,26.7188 L1124.86,28.2813 Q1124.86,28.9375 1124.5788,29.2188 Q1124.2975,29.5 1123.86,29.5 Q1123.4694,29.5 1123.2194,29.3281 Q1122.9694,29.1563 1122.86,28.7031 Q1122.8131,28.3906 1122.6413,28.2188 Q1122.3288,27.8906 1121.7663,27.7031 Q1121.2038,27.5 1120.6413,27.5 Q1119.9381,27.5 1119.3444,27.7813 Q1118.7663,28.0625 1118.3131,28.6875 Q1117.86,29.3125 1117.86,30.1719 L1117.86,31.0938 Q1117.86,32.125 1118.7038,32.8125 Q1119.5475,33.5 1121.0475,33.5 Q1121.9381,33.5 1122.5631,33.2969 Q1122.9225,33.1875 1123.3288,32.8281 Q1123.5944,32.625 1123.735,32.5625 Q1123.8756,32.5 1124.0475,32.5 Q1124.3756,32.5 1124.61,32.7656 Q1124.86,33.0156 1124.86,33.375 Q1124.86,33.7188 1124.5163,34.125 Q1124.0163,34.7188 1123.2194,35.0469 Q1122.1725,35.5 1120.8913,35.5 Q1119.3913,35.5 1118.1881,34.9063 Q1117.2194,34.4375 1116.5319,33.4219 Q1115.86,32.4063 1115.86,31.2031 L1115.86,30.1094 Q1115.86,28.8594 1116.4538,27.7656 Q1117.0631,26.6719 1118.11,26.0938 Q1119.1725,25.5 1120.36,25.5 Q1121.0788,25.5 1121.7038,25.75 Q1122.3288,26 1122.86,26.5 Z " fill="#000000"/><text fill="#000000" font-family="sans-serif" font-size="12" lengthAdjust="spacing" textLength="137" x="1134.86" y="34.9102">UnloadingCargoManifest</text><line style="stroke:#A80036;stroke-width:1.5;" x1="1106.86" x2="1273.86" y1="46" y2="46"/><line style="stroke:#A80036;stroke-width:1.5;" x1="1106.86" x2="1273.86" y1="54" y2="54"/><!--MD5=[76bef78c20971d0fcd96a5526b5af5e6]
class LoadingCargoManifest--><rect codeLine="93" fill="#FEFECE" filter="url(#f1dq7n4tk1vp4h)" height="48" id="LoadingCargoManifest" style="stroke:#A80036;stroke-width:1.5;" width="157" x="1309.86" y="14"/><ellipse cx="1324.86" cy="30" fill="#ADD1B2" rx="11" ry="11" style="stroke:#A80036;stroke-width:1.0;"/><path d="M1326.86,26.5 Q1327.0631,26 1327.2975,25.75 Q1327.5319,25.5 1327.7975,25.5 Q1328.2663,25.5 1328.5631,25.7813 Q1328.86,26.0625 1328.86,26.7188 L1328.86,28.2813 Q1328.86,28.9375 1328.5788,29.2188 Q1328.2975,29.5 1327.86,29.5 Q1327.4694,29.5 1327.2194,29.3281 Q1326.9694,29.1563 1326.86,28.7031 Q1326.8131,28.3906 1326.6413,28.2188 Q1326.3288,27.8906 1325.7663,27.7031 Q1325.2038,27.5 1324.6413,27.5 Q1323.9381,27.5 1323.3444,27.7813 Q1322.7663,28.0625 1322.3131,28.6875 Q1321.86,29.3125 1321.86,30.1719 L1321.86,31.0938 Q1321.86,32.125 1322.7038,32.8125 Q1323.5475,33.5 1325.0475,33.5 Q1325.9381,33.5 1326.5631,33.2969 Q1326.9225,33.1875 1327.3288,32.8281 Q1327.5944,32.625 1327.735,32.5625 Q1327.8756,32.5 1328.0475,32.5 Q1328.3756,32.5 1328.61,32.7656 Q1328.86,33.0156 1328.86,33.375 Q1328.86,33.7188 1328.5163,34.125 Q1328.0163,34.7188 1327.2194,35.0469 Q1326.1725,35.5 1324.8913,35.5 Q1323.3913,35.5 1322.1881,34.9063 Q1321.2194,34.4375 1320.5319,33.4219 Q1319.86,32.4063 1319.86,31.2031 L1319.86,30.1094 Q1319.86,28.8594 1320.4538,27.7656 Q1321.0631,26.6719 1322.11,26.0938 Q1323.1725,25.5 1324.36,25.5 Q1325.0788,25.5 1325.7038,25.75 Q1326.3288,26 1326.86,26.5 Z " fill="#000000"/><text fill="#000000" font-family="sans-serif" font-size="12" lengthAdjust="spacing" textLength="125" x="1338.86" y="34.9102">LoadingCargoManifest</text><line style="stroke:#A80036;stroke-width:1.5;" x1="1310.86" x2="1465.86" y1="46" y2="46"/><line style="stroke:#A80036;stroke-width:1.5;" x1="1310.86" x2="1465.86" y1="54" y2="54"/><!--MD5=[e553fe7a6012bbb9ba7638d51b8b5fec]
class Shipping--><rect fill="#FEFECE" filter="url(#f1dq7n4tk1vp4h)" height="48" id="Shipping" style="stroke:#A80036;stroke-width:1.5;" width="81" x="538.86" y="244"/><ellipse cx="553.86" cy="260" fill="#ADD1B2" rx="11" ry="11" style="stroke:#A80036;stroke-width:1.0;"/><path d="M555.86,256.5 Q556.0631,256 556.2975,255.75 Q556.5319,255.5 556.7975,255.5 Q557.2663,255.5 557.5631,255.7813 Q557.86,256.0625 557.86,256.7188 L557.86,258.2813 Q557.86,258.9375 557.5788,259.2188 Q557.2975,259.5 556.86,259.5 Q556.4694,259.5 556.2194,259.3281 Q555.9694,259.1563 555.86,258.7031 Q555.8131,258.3906 555.6413,258.2188 Q555.3288,257.8906 554.7663,257.7031 Q554.2038,257.5 553.6413,257.5 Q552.9381,257.5 552.3444,257.7813 Q551.7663,258.0625 551.3131,258.6875 Q550.86,259.3125 550.86,260.1719 L550.86,261.0938 Q550.86,262.125 551.7038,262.8125 Q552.5475,263.5 554.0475,263.5 Q554.9381,263.5 555.5631,263.2969 Q555.9225,263.1875 556.3288,262.8281 Q556.5944,262.625 556.735,262.5625 Q556.8756,262.5 557.0475,262.5 Q557.3756,262.5 557.61,262.7656 Q557.86,263.0156 557.86,263.375 Q557.86,263.7188 557.5163,264.125 Q557.0163,264.7188 556.2194,265.0469 Q555.1725,265.5 553.8913,265.5 Q552.3913,265.5 551.1881,264.9063 Q550.2194,264.4375 549.5319,263.4219 Q548.86,262.4063 548.86,261.2031 L548.86,260.1094 Q548.86,258.8594 549.4538,257.7656 Q550.0631,256.6719 551.11,256.0938 Q552.1725,255.5 553.36,255.5 Q554.0788,255.5 554.7038,255.75 Q555.3288,256 555.86,256.5 Z " fill="#000000"/><text fill="#000000" font-family="sans-serif" font-size="12" lengthAdjust="spacing" textLength="49" x="567.86" y="264.9102">Shipping</text><line style="stroke:#A80036;stroke-width:1.5;" x1="539.86" x2="618.86" y1="276" y2="276"/><line style="stroke:#A80036;stroke-width:1.5;" x1="539.86" x2="618.86" y1="284" y2="284"/><!--MD5=[28fc8488f762be30ab607089dcea2fe9]
link Company to Shipping--><path codeLine="95" d="M498.71,69.28 C517.53,115.43 553,202.38 569.92,243.86 " fill="none" id="Company-Shipping" style="stroke:#A80036;stroke-width:1.0;"/><polygon fill="#000000" points="524.2484,112.8055,523.5535,103.3203,518.111,105.5403,524.2484,112.8055" style="stroke:#000000;stroke-width:1.0;"/><text fill="#000000" font-family="sans-serif" font-size="13" lengthAdjust="spacing" textLength="52" x="531.36" y="113.4951">Performs</text><text fill="#000000" font-family="sans-serif" font-size="13" lengthAdjust="spacing" textLength="7" x="493.397" y="90.312">1</text><text fill="#000000" font-family="sans-serif" font-size="13" lengthAdjust="spacing" textLength="5" x="561.8604" y="233.1643">*</text><!--MD5=[37a14a5de6d6fd738aee271300f4b5c8]
link Company to Ship--><path codeLine="96" d="M528.97,59.33 C549.09,69.86 572.91,83.71 592.36,99 C614.49,116.4 635.7,137.66 654.69,159.12 " fill="none" id="Company-Ship" style="stroke:#A80036;stroke-width:1.0;"/><polygon fill="#000000" points="619.2763,111.2843,614.0188,103.359,610.3645,107.9629,619.2763,111.2843" style="stroke:#000000;stroke-width:1.0;"/><text fill="#000000" font-family="sans-serif" font-size="13" lengthAdjust="spacing" textLength="33" x="624.36" y="113.4951">Owns</text><text fill="#000000" font-family="sans-serif" font-size="13" lengthAdjust="spacing" textLength="7" x="536.8952" y="77.9105">1</text><text fill="#000000" font-family="sans-serif" font-size="13" lengthAdjust="spacing" textLength="20" x="626.898" y="146.5986">1..*</text><!--MD5=[710b10ea314ec23c5eb602bd01bfa9d5]
link Company to Truck--><path codeLine="97" d="M529.04,47.78 C642.23,71.18 942.63,134.15 960.36,147 C991.14,169.31 1011.19,209.19 1022.13,236.82 " fill="none" id="Company-Truck" style="stroke:#A80036;stroke-width:1.0;"/><polygon fill="#000000" points="857.0287,109.9656,849.635,103.9836,847.5309,109.4719,857.0287,109.9656" style="stroke:#000000;stroke-width:1.0;"/><text fill="#000000" font-family="sans-serif" font-size="13" lengthAdjust="spacing" textLength="33" x="861.36" y="113.4951">Owns</text><text fill="#000000" font-family="sans-serif" font-size="13" lengthAdjust="spacing" textLength="7" x="536.9772" y="45.6254">1</text><text fill="#000000" font-family="sans-serif" font-size="13" lengthAdjust="spacing" textLength="20" x="997.9576" y="226.2874">1..*</text><!--MD5=[5fd98a8c03cc0e5a408f548eb1c0ace8]
link Company to Port--><path codeLine="98" d="M457.54,69.09 C439.69,89.48 417.84,117.93 405.36,147 C348.52,279.3 331.48,448.27 326.42,545.65 " fill="none" id="Company-Port" style="stroke:#A80036;stroke-width:1.0;"/><polygon fill="#000000" points="409.0336,272.9966,414.2667,265.0553,408.5995,263.496,409.0336,272.9966" style="stroke:#000000;stroke-width:1.0;"/><text fill="#000000" font-family="sans-serif" font-size="13" lengthAdjust="spacing" textLength="33" x="419.36" y="273.4951">Owns</text><text fill="#000000" font-family="sans-serif" font-size="13" lengthAdjust="spacing" textLength="7" x="444.177" y="90.3317">1</text><text fill="#000000" font-family="sans-serif" font-size="13" lengthAdjust="spacing" textLength="5" x="321.3794" y="535.0771">*</text><!--MD5=[acda98ef2513d819683ba761a9c77b11]
link Company to Warehouse--><path codeLine="99" d="M482.05,69.19 C479.13,90.81 475.44,120.64 473.36,147 C462.3,287.18 457.99,451.06 456.34,545.8 " fill="none" id="Company-Warehouse" style="stroke:#A80036;stroke-width:1.0;"/><polygon fill="#000000" points="478.0907,273.1685,481.5125,264.2949,475.6432,263.9783,478.0907,273.1685" style="stroke:#000000;stroke-width:1.0;"/><text fill="#000000" font-family="sans-serif" font-size="13" lengthAdjust="spacing" textLength="33" x="487.36" y="273.4951">Owns</text><text fill="#000000" font-family="sans-serif" font-size="13" lengthAdjust="spacing" textLength="7" x="473.5124" y="90.4514">1</text><text fill="#000000" font-family="sans-serif" font-size="13" lengthAdjust="spacing" textLength="5" x="451.1999" y="535.2409">*</text><!--MD5=[09366576ee87d48d594df10cacc83f45]
link Company to Employee--><path codeLine="100" d="M443.77,43.74 C381.72,51.58 271.02,69.39 245.36,99 C204.8,145.8 204.56,332.5 206.75,418.82 " fill="none" id="Company-Employee" style="stroke:#A80036;stroke-width:1.0;"/><polygon fill="#000000" points="247.689,112.4026,255.0053,106.3262,250.0364,103.1863,247.689,112.4026" style="stroke:#000000;stroke-width:1.0;"/><text fill="#000000" font-family="sans-serif" font-size="13" lengthAdjust="spacing" textLength="51" x="259.36" y="113.4951">Employs</text><text fill="#000000" font-family="sans-serif" font-size="13" lengthAdjust="spacing" textLength="7" x="428.8483" y="40.891">1</text><text fill="#000000" font-family="sans-serif" font-size="13" lengthAdjust="spacing" textLength="5" x="201.1207" y="408.2365">*</text><!--MD5=[31d56c2a59c24a3884ad113e84e7cd8c]
link Company to CargoManifest--><path codeLine="101" d="M529.03,40.79 C605.59,44.96 770.68,58.27 903.36,99 C920.84,104.37 923.04,111.11 940.36,117 C1003.07,138.32 1030.31,111.68 1086.36,147 C1124.18,170.84 1152.08,216.37 1166.43,243.98 " fill="none" id="Company-CargoManifest" style="stroke:#A80036;stroke-width:1.0;"/><polygon fill="#000000" points="950.1238,109.6944,942.3986,104.1471,940.6134,109.7473,950.1238,109.6944" style="stroke:#000000;stroke-width:1.0;"/><text fill="#000000" font-family="sans-serif" font-size="13" lengthAdjust="spacing" textLength="39" x="954.36" y="113.4951">Knows</text><text fill="#000000" font-family="sans-serif" font-size="13" lengthAdjust="spacing" textLength="7" x="536.9655" y="56.184">1</text><text fill="#000000" font-family="sans-serif" font-size="13" lengthAdjust="spacing" textLength="5" x="1157.9886" y="233.315">*</text><!--MD5=[9abf40ff36e4aa94ac761b2803c1dce8]
link Company to OrganizationRole--><path codeLine="102" d="M443.63,44.24 C352.09,56.49 142.21,90.29 103.36,147 C6,289.08 92.89,513.59 129.72,594.33 " fill="none" id="Company-OrganizationRole" style="stroke:#A80036;stroke-width:1.0;"/><polygon fill="#000000" points="105.8818,272.5184,112.9174,266.1191,107.8123,263.2059,105.8818,272.5184" style="stroke:#000000;stroke-width:1.0;"/><text fill="#000000" font-family="sans-serif" font-size="13" lengthAdjust="spacing" textLength="80" x="117.36" y="273.4951">Comprehends</text><text fill="#000000" font-family="sans-serif" font-size="13" lengthAdjust="spacing" textLength="7" x="428.9732" y="60.1363">1</text><text fill="#000000" font-family="sans-serif" font-size="13" lengthAdjust="spacing" textLength="5" x="121.1849" y="583.7995">*</text><!--MD5=[241b49406f7a05442b1e788ffaf3787c]
link Employee to OrganizationRole--><path codeLine="103" d="M190.7,509.01 C179.82,536.12 166.15,570.17 156.49,594.26 " fill="none" id="Employee-OrganizationRole" style="stroke:#A80036;stroke-width:1.0;"/><polygon fill="#000000" points="101.2779,548.5861,107.374,541.2862,101.919,539.0972,101.2779,548.5861" style="stroke:#000000;stroke-width:1.0;"/><text fill="#000000" font-family="sans-serif" font-size="13" lengthAdjust="spacing" textLength="60" x="112.14" y="549.2651">Has/Plays</text><text fill="#000000" font-family="sans-serif" font-size="13" lengthAdjust="spacing" textLength="5" x="182.865" y="530.019">*</text><text fill="#000000" font-family="sans-serif" font-size="13" lengthAdjust="spacing" textLength="7" x="151.2699" y="583.715">1</text><!--MD5=[7e7b3caec922dd491be38990c8e0d0e6]
link Shipping to Client--><path codeLine="104" d="M578.67,292.17 C577.5,334.99 575.32,429.42 576.36,509 C576.77,541.09 577.84,578.19 578.58,601.49 " fill="none" id="Shipping-Client" style="stroke:#A80036;stroke-width:1.0;"/><polygon fill="#000000" points="581.3585,469.1758,584.3001,460.1316,578.4223,460.1298,581.3585,469.1758" style="stroke:#000000;stroke-width:1.0;"/><text fill="#000000" font-family="sans-serif" font-size="13" lengthAdjust="spacing" textLength="80" x="590.36" y="469.4951">Requested by</text><text fill="#000000" font-family="sans-serif" font-size="13" lengthAdjust="spacing" textLength="7" x="570.6487" y="313.5494">1</text><text fill="#000000" font-family="sans-serif" font-size="13" lengthAdjust="spacing" textLength="7" x="570.4833" y="590.8276">1</text><!--MD5=[ba54223a31981c52d18c1dd571f5520c]
link Ship to Container--><path codeLine="105" d="M816.12,365.67 C871.95,432.49 944.03,518.77 989.23,572.88 " fill="none" id="Ship-Container" style="stroke:#A80036;stroke-width:1.0;"/><polygon fill="#000000" points="935.5657,468.0129,932.022,459.1872,927.5111,462.9557,935.5657,468.0129" style="stroke:#000000;stroke-width:1.0;"/><text fill="#000000" font-family="sans-serif" font-size="13" lengthAdjust="spacing" textLength="61" x="941.36" y="469.4951">Transports</text><text fill="#000000" font-family="sans-serif" font-size="13" lengthAdjust="spacing" textLength="7" x="823.8877" y="371.4615">1</text><text fill="#000000" font-family="sans-serif" font-size="13" lengthAdjust="spacing" textLength="5" x="976.3873" y="560.0272">*</text><!--MD5=[f56e222e1748568825f030a9b791275e]
link Ship to ShipPosition--><path codeLine="106" d="M703.32,389.21 C698.15,428.27 698.16,471.25 711.36,509 C716.56,523.88 724.57,538.28 733.74,551.57 " fill="none" id="Ship-ShipPosition" style="stroke:#A80036;stroke-width:1.0;"/><polygon fill="#000000" points="717.2808,469.0903,718.5037,459.6587,712.7264,460.7411,717.2808,469.0903" style="stroke:#000000;stroke-width:1.0;"/><text fill="#000000" font-family="sans-serif" font-size="13" lengthAdjust="spacing" textLength="21" x="725.36" y="469.4951">has</text><text fill="#000000" font-family="sans-serif" font-size="13" lengthAdjust="spacing" textLength="7" x="694.2653" y="410.1938">1</text><text fill="#000000" font-family="sans-serif" font-size="13" lengthAdjust="spacing" textLength="7" x="718.7425" y="540.1403">1</text><!--MD5=[0e32c7758dbd9763ef36bc86a30fd8c6]
link TrafficManager to ShipPosition--><path codeLine="107" d="M932.16,62.08 C924.38,72.68 916.13,85.82 911.36,99 C848.95,271.32 922.64,334.27 867.36,509 C863.45,521.35 858.15,533.87 852.26,545.89 " fill="none" id="TrafficManager-ShipPosition" style="stroke:#A80036;stroke-width:1.0;"/><polygon fill="#000000" points="900.5453,273.109,904.9188,264.6636,899.1195,263.7059,900.5453,273.109" style="stroke:#000000;stroke-width:1.0;"/><text fill="#000000" font-family="sans-serif" font-size="13" lengthAdjust="spacing" textLength="48" x="910.36" y="273.4951">Controls</text><text fill="#000000" font-family="sans-serif" font-size="13" lengthAdjust="spacing" textLength="7" x="919.6269" y="83.4375">1</text><text fill="#000000" font-family="sans-serif" font-size="13" lengthAdjust="spacing" textLength="5" x="851.6825" y="535.0664">*</text><!--MD5=[c7e069b1632a1ebf214cea93e002bf09]
link TrafficManager to Truck--><path codeLine="108" d="M975.94,62.01 C985.62,72.41 995.94,85.4 1002.36,99 C1023.52,143.89 1029.83,201.96 1031.67,236.74 " fill="none" id="TrafficManager-Truck" style="stroke:#A80036;stroke-width:1.0;"/><polygon fill="#000000" points="1015.8793,112.9394,1015.9308,103.4289,1010.3309,105.215,1015.8793,112.9394" style="stroke:#000000;stroke-width:1.0;"/><text fill="#000000" font-family="sans-serif" font-size="13" lengthAdjust="spacing" textLength="111" x="1023.36" y="113.4951">Controls position of</text><text fill="#000000" font-family="sans-serif" font-size="13" lengthAdjust="spacing" textLength="7" x="974.0783" y="83.3504">1</text><text fill="#000000" font-family="sans-serif" font-size="13" lengthAdjust="spacing" textLength="5" x="1026.0121" y="226.1909">*</text><!--MD5=[062871d5623378d71d4c490cb56733bb]
link Truck to Container--><path codeLine="109" d="M1032.36,299 C1032.36,351.4 1032.36,461.38 1032.36,538.95 " fill="none" id="Truck-Container" style="stroke:#A80036;stroke-width:1.0;"/><polygon fill="#000000" points="1037.36,469.1758,1040.2989,460.1307,1034.4211,460.1307,1037.36,469.1758" style="stroke:#000000;stroke-width:1.0;"/><text fill="#000000" font-family="sans-serif" font-size="13" lengthAdjust="spacing" textLength="61" x="1046.36" y="469.4951">Transports</text><text fill="#000000" font-family="sans-serif" font-size="13" lengthAdjust="spacing" textLength="7" x="1024.6709" y="320.224">1</text><text fill="#000000" font-family="sans-serif" font-size="13" lengthAdjust="spacing" textLength="7" x="1025.0483" y="528.0611">1</text><!--MD5=[2137d8aefd4a4250810b98ce4671ea30]
link UnloadingCargoManifest to CargoManifest--><path codeLine="110" d="M1189.04,62.12 C1186.88,99.93 1182.57,175.59 1179.83,223.63 " fill="none" id="UnloadingCargoManifest-to-CargoManifest" style="stroke:#A80036;stroke-width:1.0;"/><polygon fill="none" points="1186.8,224.25,1178.68,243.82,1172.83,223.46,1186.8,224.25" style="stroke:#A80036;stroke-width:1.0;"/><!--MD5=[7c36a3e6645c314e52b14fd1d0e4255b]
link LoadingCargoManifest to CargoManifest--><path codeLine="111" d="M1366.96,62.12 C1330.63,101.38 1256.53,181.45 1212.49,229.04 " fill="none" id="LoadingCargoManifest-to-CargoManifest" style="stroke:#A80036;stroke-width:1.0;"/><polygon fill="none" points="1217.53,233.9,1198.81,243.82,1207.25,224.39,1217.53,233.9" style="stroke:#A80036;stroke-width:1.0;"/><!--MD5=[a93f71c337684849482b0ec5675aa7db]
link CargoManifest to Container--><path codeLine="112" d="M1174.45,292.15 C1168.29,336.13 1151.52,434.08 1116.36,509 C1105.66,531.78 1090.24,554.65 1075.53,573.97 " fill="none" id="CargoManifest-Container" style="stroke:#A80036;stroke-width:1.0;"/><polygon fill="#000000" points="1151.704,468.8936,1157.4728,461.3323,1151.9266,459.3856,1151.704,468.8936" style="stroke:#000000;stroke-width:1.0;"/><text fill="#000000" font-family="sans-serif" font-size="13" lengthAdjust="spacing" textLength="84" x="1162.36" y="469.4951">Keeps track of</text><text fill="#000000" font-family="sans-serif" font-size="13" lengthAdjust="spacing" textLength="7" x="1165.8876" y="313.5245">1</text><text fill="#000000" font-family="sans-serif" font-size="13" lengthAdjust="spacing" textLength="5" x="1083.3795" y="561.3046">*</text><!--MD5=[dc5a2176308e1245cc00f412cbce8d49]
@startuml
'https://plantuml.com/class-diagram

skinparam classAttributeIconSize 0

class Company {
-Designation
}

class Container {
-Identification
-Payload
-Tare
-Gross
-Width
-Height
-Length
-Refrigerated
-Temperature
}

class Ship {
-MMSI
-Name
-IMO
-Number of Energy Generators
-Generators' Power Output
-Call sign
-Vessel type
-Length
-Width
-Capacity
-Draft
-FleetManager
-ShipCaptain
-ShipChiefElectricalEngineer
}

class ShipPosition {
-Base Date Time
-Latitude
-Longitude
-Speed over ground SOG
-Course over ground COG
-Heading
-Position
-Transceiver Class
}

class Truck {
-TruckDriver
}

class Client

class Port {
-Identification
-Name
-Continent
-Country
-Latitude
-longitude
-PortMagager
-PortStaff
}

class Warehouse {
-Identification
-Name
-Continent
-Country
-Latitude
-longitude
-WarehouseManager
-WarehouseStaff
}

class Employee {
-Name
-Email
-Password
}

class OrganizationRole {
-Description
}

class TrafficManager

class CargoManifest

class UnloadingCargoManifest

class LoadingCargoManifest

Company "1" - - "*" Shipping : Performs >
Company "1" - - "1..*" Ship : Owns >
Company "1" - - "1..*" Truck : Owns >
Company "1" - - - "*" Port : Owns >
Company "1" - - - "*" Warehouse : Owns >
Company "1" - - "*" Employee : Employs >
Company "1" - - "*" CargoManifest : Knows >
Company "1" - - - "*" OrganizationRole : Comprehends >
Employee "*" - "1" OrganizationRole : Has/Plays >
Shipping "1" - - "1" Client : Requested by >
Ship "1" - - "*" Container : Transports >
Ship "1" - - "1" ShipPosition : has >
TrafficManager "1" - "*" ShipPosition : Controls >
TrafficManager "1" - - "*" Truck : Controls position of >
Truck "1" - - "1" Container : Transports >
UnloadingCargoManifest - -|> CargoManifest
LoadingCargoManifest - -|> CargoManifest
CargoManifest "1" - - "*" Container : Keeps track of >

@enduml

@startuml

skinparam classAttributeIconSize 0

class Company {
-Designation
}

class Container {
-Identification
-Payload
-Tare
-Gross
-Width
-Height
-Length
-Refrigerated
-Temperature
}

class Ship {
-MMSI
-Name
-IMO
-Number of Energy Generators
-Generators' Power Output
-Call sign
-Vessel type
-Length
-Width
-Capacity
-Draft
-FleetManager
-ShipCaptain
-ShipChiefElectricalEngineer
}

class ShipPosition {
-Base Date Time
-Latitude
-Longitude
-Speed over ground SOG
-Course over ground COG
-Heading
-Position
-Transceiver Class
}

class Truck {
-TruckDriver
}

class Client

class Port {
-Identification
-Name
-Continent
-Country
-Latitude
-longitude
-PortMagager
-PortStaff
}

class Warehouse {
-Identification
-Name
-Continent
-Country
-Latitude
-longitude
-WarehouseManager
-WarehouseStaff
}

class Employee {
-Name
-Email
-Password
}

class OrganizationRole {
-Description
}

class TrafficManager

class CargoManifest

class UnloadingCargoManifest

class LoadingCargoManifest

Company "1" - - "*" Shipping : Performs >
Company "1" - - "1..*" Ship : Owns >
Company "1" - - "1..*" Truck : Owns >
Company "1" - - - "*" Port : Owns >
Company "1" - - - "*" Warehouse : Owns >
Company "1" - - "*" Employee : Employs >
Company "1" - - "*" CargoManifest : Knows >
Company "1" - - - "*" OrganizationRole : Comprehends >
Employee "*" - "1" OrganizationRole : Has/Plays >
Shipping "1" - - "1" Client : Requested by >
Ship "1" - - "*" Container : Transports >
Ship "1" - - "1" ShipPosition : has >
TrafficManager "1" - "*" ShipPosition : Controls >
TrafficManager "1" - - "*" Truck : Controls position of >
Truck "1" - - "1" Container : Transports >
UnloadingCargoManifest - -|> CargoManifest
LoadingCargoManifest - -|> CargoManifest
CargoManifest "1" - - "*" Container : Keeps track of >

@enduml

PlantUML version 1.2021.00(Sun Jan 10 10:25:05 GMT 2021)
(GPL source distribution)
Java Runtime: OpenJDK Runtime Environment
JVM: OpenJDK 64-Bit Server VM
Default Encoding: Cp1252
Language: en
Country: GB
--></g></svg>