<?xml version="1.0" encoding="UTF-8" standalone="no"?><svg xmlns="http://www.w3.org/2000/svg" xmlns:xlink="http://www.w3.org/1999/xlink" contentScriptType="application/ecmascript" contentStyleType="text/css" height="737px" preserveAspectRatio="none" style="width:1878px;height:737px;" version="1.1" viewBox="0 0 1878 737" width="1878px" zoomAndPan="magnify"><defs><filter height="300%" id="f1ehjsvrod343j" width="300%" x="-1" y="-1"><feGaussianBlur result="blurOut" stdDeviation="2.0"/><feColorMatrix in="blurOut" result="blurOut2" type="matrix" values="0 0 0 0 0 0 0 0 0 0 0 0 0 0 0 0 0 0 .4 0"/><feOffset dx="4.0" dy="4.0" in="blurOut2" result="blurOut3"/><feBlend in="SourceGraphic" in2="blurOut3" mode="normal"/></filter></defs><g><!--MD5=[02e4b9b7573f1156f41e60aa5b4e25a4]
class Company--><rect codeLine="5" fill="#FEFECE" filter="url(#f1ehjsvrod343j)" height="61.8359" id="Company" style="stroke:#A80036;stroke-width:1.5;" width="85" x="710.5" y="7"/><ellipse cx="725.5" cy="23" fill="#ADD1B2" rx="11" ry="11" style="stroke:#A80036;stroke-width:1.0;"/><path d="M727.5,19.5 Q727.7031,19 727.9375,18.75 Q728.1719,18.5 728.4375,18.5 Q728.9063,18.5 729.2031,18.7813 Q729.5,19.0625 729.5,19.7188 L729.5,21.2813 Q729.5,21.9375 729.2188,22.2188 Q728.9375,22.5 728.5,22.5 Q728.1094,22.5 727.8594,22.3281 Q727.6094,22.1563 727.5,21.7031 Q727.4531,21.3906 727.2813,21.2188 Q726.9688,20.8906 726.4063,20.7031 Q725.8438,20.5 725.2813,20.5 Q724.5781,20.5 723.9844,20.7813 Q723.4063,21.0625 722.9531,21.6875 Q722.5,22.3125 722.5,23.1719 L722.5,24.0938 Q722.5,25.125 723.3438,25.8125 Q724.1875,26.5 725.6875,26.5 Q726.5781,26.5 727.2031,26.2969 Q727.5625,26.1875 727.9688,25.8281 Q728.2344,25.625 728.375,25.5625 Q728.5156,25.5 728.6875,25.5 Q729.0156,25.5 729.25,25.7656 Q729.5,26.0156 729.5,26.375 Q729.5,26.7188 729.1563,27.125 Q728.6563,27.7188 727.8594,28.0469 Q726.8125,28.5 725.5313,28.5 Q724.0313,28.5 722.8281,27.9063 Q721.8594,27.4375 721.1719,26.4219 Q720.5,25.4063 720.5,24.2031 L720.5,23.1094 Q720.5,21.8594 721.0938,20.7656 Q721.7031,19.6719 722.75,19.0938 Q723.8125,18.5 725,18.5 Q725.7188,18.5 726.3438,18.75 Q726.9688,19 727.5,19.5 Z " fill="#000000"/><text fill="#000000" font-family="sans-serif" font-size="12" lengthAdjust="spacing" textLength="53" x="739.5" y="27.9102">Company</text><line style="stroke:#A80036;stroke-width:1.5;" x1="711.5" x2="794.5" y1="39" y2="39"/><text fill="#000000" font-family="sans-serif" font-size="11" lengthAdjust="spacing" textLength="60" x="716.5" y="54.4189">-Designation</text><line style="stroke:#A80036;stroke-width:1.5;" x1="711.5" x2="794.5" y1="60.8359" y2="60.8359"/><!--MD5=[e9a58730c562b34349daa605d1ed6662]
class Container--><rect codeLine="9" fill="#FEFECE" filter="url(#f1ehjsvrod343j)" height="172.5234" id="Container" style="stroke:#A80036;stroke-width:1.5;" width="86" x="682" y="551"/><ellipse cx="697" cy="567" fill="#ADD1B2" rx="11" ry="11" style="stroke:#A80036;stroke-width:1.0;"/><path d="M699,563.5 Q699.2031,563 699.4375,562.75 Q699.6719,562.5 699.9375,562.5 Q700.4063,562.5 700.7031,562.7813 Q701,563.0625 701,563.7188 L701,565.2813 Q701,565.9375 700.7188,566.2188 Q700.4375,566.5 700,566.5 Q699.6094,566.5 699.3594,566.3281 Q699.1094,566.1563 699,565.7031 Q698.9531,565.3906 698.7813,565.2188 Q698.4688,564.8906 697.9063,564.7031 Q697.3438,564.5 696.7813,564.5 Q696.0781,564.5 695.4844,564.7813 Q694.9063,565.0625 694.4531,565.6875 Q694,566.3125 694,567.1719 L694,568.0938 Q694,569.125 694.8438,569.8125 Q695.6875,570.5 697.1875,570.5 Q698.0781,570.5 698.7031,570.2969 Q699.0625,570.1875 699.4688,569.8281 Q699.7344,569.625 699.875,569.5625 Q700.0156,569.5 700.1875,569.5 Q700.5156,569.5 700.75,569.7656 Q701,570.0156 701,570.375 Q701,570.7188 700.6563,571.125 Q700.1563,571.7188 699.3594,572.0469 Q698.3125,572.5 697.0313,572.5 Q695.5313,572.5 694.3281,571.9063 Q693.3594,571.4375 692.6719,570.4219 Q692,569.4063 692,568.2031 L692,567.1094 Q692,565.8594 692.5938,564.7656 Q693.2031,563.6719 694.25,563.0938 Q695.3125,562.5 696.5,562.5 Q697.2188,562.5 697.8438,562.75 Q698.4688,563 699,563.5 Z " fill="#000000"/><text fill="#000000" font-family="sans-serif" font-size="12" lengthAdjust="spacing" textLength="54" x="711" y="571.9102">Container</text><line style="stroke:#A80036;stroke-width:1.5;" x1="683" x2="767" y1="583" y2="583"/><text fill="#000000" font-family="sans-serif" font-size="11" lengthAdjust="spacing" textLength="64" x="688" y="598.4189">-Identification</text><text fill="#000000" font-family="sans-serif" font-size="11" lengthAdjust="spacing" textLength="42" x="688" y="612.2549">-Payload</text><text fill="#000000" font-family="sans-serif" font-size="11" lengthAdjust="spacing" textLength="26" x="688" y="626.0908">-Tare</text><text fill="#000000" font-family="sans-serif" font-size="11" lengthAdjust="spacing" textLength="34" x="688" y="639.9268">-Gross</text><text fill="#000000" font-family="sans-serif" font-size="11" lengthAdjust="spacing" textLength="31" x="688" y="653.7627">-Width</text><text fill="#000000" font-family="sans-serif" font-size="11" lengthAdjust="spacing" textLength="34" x="688" y="667.5986">-Height</text><text fill="#000000" font-family="sans-serif" font-size="11" lengthAdjust="spacing" textLength="37" x="688" y="681.4346">-Length</text><text fill="#000000" font-family="sans-serif" font-size="11" lengthAdjust="spacing" textLength="64" x="688" y="695.2705">-Refrigerated</text><text fill="#000000" font-family="sans-serif" font-size="11" lengthAdjust="spacing" textLength="65" x="688" y="709.1064">-Temperature</text><line style="stroke:#A80036;stroke-width:1.5;" x1="683" x2="767" y1="715.5234" y2="715.5234"/><!--MD5=[0dc7f2ddb409b58bcf52b12238c25399]
class Ship--><rect codeLine="21" fill="#FEFECE" filter="url(#f1ehjsvrod343j)" height="200.1953" id="Ship" style="stroke:#A80036;stroke-width:1.5;" width="161" x="1015.5" y="147"/><ellipse cx="1079.25" cy="163" fill="#ADD1B2" rx="11" ry="11" style="stroke:#A80036;stroke-width:1.0;"/><path d="M1081.25,159.5 Q1081.4531,159 1081.6875,158.75 Q1081.9219,158.5 1082.1875,158.5 Q1082.6563,158.5 1082.9531,158.7813 Q1083.25,159.0625 1083.25,159.7188 L1083.25,161.2813 Q1083.25,161.9375 1082.9688,162.2188 Q1082.6875,162.5 1082.25,162.5 Q1081.8594,162.5 1081.6094,162.3281 Q1081.3594,162.1563 1081.25,161.7031 Q1081.2031,161.3906 1081.0313,161.2188 Q1080.7188,160.8906 1080.1563,160.7031 Q1079.5938,160.5 1079.0313,160.5 Q1078.3281,160.5 1077.7344,160.7813 Q1077.1563,161.0625 1076.7031,161.6875 Q1076.25,162.3125 1076.25,163.1719 L1076.25,164.0938 Q1076.25,165.125 1077.0938,165.8125 Q1077.9375,166.5 1079.4375,166.5 Q1080.3281,166.5 1080.9531,166.2969 Q1081.3125,166.1875 1081.7188,165.8281 Q1081.9844,165.625 1082.125,165.5625 Q1082.2656,165.5 1082.4375,165.5 Q1082.7656,165.5 1083,165.7656 Q1083.25,166.0156 1083.25,166.375 Q1083.25,166.7188 1082.9063,167.125 Q1082.4063,167.7188 1081.6094,168.0469 Q1080.5625,168.5 1079.2813,168.5 Q1077.7813,168.5 1076.5781,167.9063 Q1075.6094,167.4375 1074.9219,166.4219 Q1074.25,165.4063 1074.25,164.2031 L1074.25,163.1094 Q1074.25,161.8594 1074.8438,160.7656 Q1075.4531,159.6719 1076.5,159.0938 Q1077.5625,158.5 1078.75,158.5 Q1079.4688,158.5 1080.0938,158.75 Q1080.7188,159 1081.25,159.5 Z " fill="#000000"/><text fill="#000000" font-family="sans-serif" font-size="12" lengthAdjust="spacing" textLength="25" x="1099.75" y="167.9102">Ship</text><line style="stroke:#A80036;stroke-width:1.5;" x1="1016.5" x2="1175.5" y1="179" y2="179"/><text fill="#000000" font-family="sans-serif" font-size="11" lengthAdjust="spacing" textLength="29" x="1021.5" y="194.4189">-MMSI</text><text fill="#000000" font-family="sans-serif" font-size="11" lengthAdjust="spacing" textLength="31" x="1021.5" y="208.2549">-Name</text><text fill="#000000" font-family="sans-serif" font-size="11" lengthAdjust="spacing" textLength="22" x="1021.5" y="222.0908">-IMO</text><text fill="#000000" font-family="sans-serif" font-size="11" lengthAdjust="spacing" textLength="149" x="1021.5" y="235.9268">-Number of Energy Generators</text><text fill="#000000" font-family="sans-serif" font-size="11" lengthAdjust="spacing" textLength="131" x="1021.5" y="249.7627">-Generators' Power Output</text><text fill="#000000" font-family="sans-serif" font-size="11" lengthAdjust="spacing" textLength="44" x="1021.5" y="263.5986">-Call sign</text><text fill="#000000" font-family="sans-serif" font-size="11" lengthAdjust="spacing" textLength="62" x="1021.5" y="277.4346">-Vessel type</text><text fill="#000000" font-family="sans-serif" font-size="11" lengthAdjust="spacing" textLength="37" x="1021.5" y="291.2705">-Length</text><text fill="#000000" font-family="sans-serif" font-size="11" lengthAdjust="spacing" textLength="31" x="1021.5" y="305.1064">-Width</text><text fill="#000000" font-family="sans-serif" font-size="11" lengthAdjust="spacing" textLength="46" x="1021.5" y="318.9424">-Capacity</text><text fill="#000000" font-family="sans-serif" font-size="11" lengthAdjust="spacing" textLength="28" x="1021.5" y="332.7783">-Draft</text><line style="stroke:#A80036;stroke-width:1.5;" x1="1016.5" x2="1175.5" y1="339.1953" y2="339.1953"/><!--MD5=[f2ba7f6ab60af8dd0d3e354f91729b14]
class Truck--><rect codeLine="35" fill="#FEFECE" filter="url(#f1ehjsvrod343j)" height="48" id="Truck" style="stroke:#A80036;stroke-width:1.5;" width="62" x="1346" y="223"/><ellipse cx="1361" cy="239" fill="#ADD1B2" rx="11" ry="11" style="stroke:#A80036;stroke-width:1.0;"/><path d="M1363,235.5 Q1363.2031,235 1363.4375,234.75 Q1363.6719,234.5 1363.9375,234.5 Q1364.4063,234.5 1364.7031,234.7813 Q1365,235.0625 1365,235.7188 L1365,237.2813 Q1365,237.9375 1364.7188,238.2188 Q1364.4375,238.5 1364,238.5 Q1363.6094,238.5 1363.3594,238.3281 Q1363.1094,238.1563 1363,237.7031 Q1362.9531,237.3906 1362.7813,237.2188 Q1362.4688,236.8906 1361.9063,236.7031 Q1361.3438,236.5 1360.7813,236.5 Q1360.0781,236.5 1359.4844,236.7813 Q1358.9063,237.0625 1358.4531,237.6875 Q1358,238.3125 1358,239.1719 L1358,240.0938 Q1358,241.125 1358.8438,241.8125 Q1359.6875,242.5 1361.1875,242.5 Q1362.0781,242.5 1362.7031,242.2969 Q1363.0625,242.1875 1363.4688,241.8281 Q1363.7344,241.625 1363.875,241.5625 Q1364.0156,241.5 1364.1875,241.5 Q1364.5156,241.5 1364.75,241.7656 Q1365,242.0156 1365,242.375 Q1365,242.7188 1364.6563,243.125 Q1364.1563,243.7188 1363.3594,244.0469 Q1362.3125,244.5 1361.0313,244.5 Q1359.5313,244.5 1358.3281,243.9063 Q1357.3594,243.4375 1356.6719,242.4219 Q1356,241.4063 1356,240.2031 L1356,239.1094 Q1356,237.8594 1356.5938,236.7656 Q1357.2031,235.6719 1358.25,235.0938 Q1359.3125,234.5 1360.5,234.5 Q1361.2188,234.5 1361.8438,234.75 Q1362.4688,235 1363,235.5 Z " fill="#000000"/><text fill="#000000" font-family="sans-serif" font-size="12" lengthAdjust="spacing" textLength="30" x="1375" y="243.9102">Truck</text><line style="stroke:#A80036;stroke-width:1.5;" x1="1347" x2="1407" y1="255" y2="255"/><line style="stroke:#A80036;stroke-width:1.5;" x1="1347" x2="1407" y1="263" y2="263"/><!--MD5=[ed6624c6556d5e7b1bd23032162d20b7]
class Client--><rect codeLine="37" fill="#FEFECE" filter="url(#f1ehjsvrod343j)" height="48" id="Client" style="stroke:#A80036;stroke-width:1.5;" width="64" x="591" y="425"/><ellipse cx="606" cy="441" fill="#ADD1B2" rx="11" ry="11" style="stroke:#A80036;stroke-width:1.0;"/><path d="M608,437.5 Q608.2031,437 608.4375,436.75 Q608.6719,436.5 608.9375,436.5 Q609.4063,436.5 609.7031,436.7813 Q610,437.0625 610,437.7188 L610,439.2813 Q610,439.9375 609.7188,440.2188 Q609.4375,440.5 609,440.5 Q608.6094,440.5 608.3594,440.3281 Q608.1094,440.1563 608,439.7031 Q607.9531,439.3906 607.7813,439.2188 Q607.4688,438.8906 606.9063,438.7031 Q606.3438,438.5 605.7813,438.5 Q605.0781,438.5 604.4844,438.7813 Q603.9063,439.0625 603.4531,439.6875 Q603,440.3125 603,441.1719 L603,442.0938 Q603,443.125 603.8438,443.8125 Q604.6875,444.5 606.1875,444.5 Q607.0781,444.5 607.7031,444.2969 Q608.0625,444.1875 608.4688,443.8281 Q608.7344,443.625 608.875,443.5625 Q609.0156,443.5 609.1875,443.5 Q609.5156,443.5 609.75,443.7656 Q610,444.0156 610,444.375 Q610,444.7188 609.6563,445.125 Q609.1563,445.7188 608.3594,446.0469 Q607.3125,446.5 606.0313,446.5 Q604.5313,446.5 603.3281,445.9063 Q602.3594,445.4375 601.6719,444.4219 Q601,443.4063 601,442.2031 L601,441.1094 Q601,439.8594 601.5938,438.7656 Q602.2031,437.6719 603.25,437.0938 Q604.3125,436.5 605.5,436.5 Q606.2188,436.5 606.8438,436.75 Q607.4688,437 608,437.5 Z " fill="#000000"/><text fill="#000000" font-family="sans-serif" font-size="12" lengthAdjust="spacing" textLength="32" x="620" y="445.9102">Client</text><line style="stroke:#A80036;stroke-width:1.5;" x1="592" x2="654" y1="457" y2="457"/><line style="stroke:#A80036;stroke-width:1.5;" x1="592" x2="654" y1="465" y2="465"/><!--MD5=[a0bfe97ac0a38e6e74cc1c7c7b744b71]
class Port--><rect codeLine="39" fill="#FEFECE" filter="url(#f1ehjsvrod343j)" height="131.0156" id="Port" style="stroke:#A80036;stroke-width:1.5;" width="76" x="146" y="181.5"/><ellipse cx="170.9" cy="197.5" fill="#ADD1B2" rx="11" ry="11" style="stroke:#A80036;stroke-width:1.0;"/><path d="M172.9,194 Q173.1031,193.5 173.3375,193.25 Q173.5719,193 173.8375,193 Q174.3063,193 174.6031,193.2813 Q174.9,193.5625 174.9,194.2188 L174.9,195.7813 Q174.9,196.4375 174.6188,196.7188 Q174.3375,197 173.9,197 Q173.5094,197 173.2594,196.8281 Q173.0094,196.6563 172.9,196.2031 Q172.8531,195.8906 172.6813,195.7188 Q172.3688,195.3906 171.8063,195.2031 Q171.2438,195 170.6813,195 Q169.9781,195 169.3844,195.2813 Q168.8063,195.5625 168.3531,196.1875 Q167.9,196.8125 167.9,197.6719 L167.9,198.5938 Q167.9,199.625 168.7438,200.3125 Q169.5875,201 171.0875,201 Q171.9781,201 172.6031,200.7969 Q172.9625,200.6875 173.3688,200.3281 Q173.6344,200.125 173.775,200.0625 Q173.9156,200 174.0875,200 Q174.4156,200 174.65,200.2656 Q174.9,200.5156 174.9,200.875 Q174.9,201.2188 174.5563,201.625 Q174.0563,202.2188 173.2594,202.5469 Q172.2125,203 170.9313,203 Q169.4313,203 168.2281,202.4063 Q167.2594,201.9375 166.5719,200.9219 Q165.9,199.9063 165.9,198.7031 L165.9,197.6094 Q165.9,196.3594 166.4938,195.2656 Q167.1031,194.1719 168.15,193.5938 Q169.2125,193 170.4,193 Q171.1188,193 171.7438,193.25 Q172.3688,193.5 172.9,194 Z " fill="#000000"/><text fill="#000000" font-family="sans-serif" font-size="12" lengthAdjust="spacing" textLength="22" x="187.1" y="202.4102">Port</text><line style="stroke:#A80036;stroke-width:1.5;" x1="147" x2="221" y1="213.5" y2="213.5"/><text fill="#000000" font-family="sans-serif" font-size="11" lengthAdjust="spacing" textLength="64" x="152" y="228.9189">-Identification</text><text fill="#000000" font-family="sans-serif" font-size="11" lengthAdjust="spacing" textLength="31" x="152" y="242.7549">-Name</text><text fill="#000000" font-family="sans-serif" font-size="11" lengthAdjust="spacing" textLength="49" x="152" y="256.5908">-Continent</text><text fill="#000000" font-family="sans-serif" font-size="11" lengthAdjust="spacing" textLength="42" x="152" y="270.4268">-Country</text><text fill="#000000" font-family="sans-serif" font-size="11" lengthAdjust="spacing" textLength="42" x="152" y="284.2627">-Latitude</text><text fill="#000000" font-family="sans-serif" font-size="11" lengthAdjust="spacing" textLength="47" x="152" y="298.0986">-longitude</text><line style="stroke:#A80036;stroke-width:1.5;" x1="147" x2="221" y1="304.5156" y2="304.5156"/><!--MD5=[c5149b4909ffd2688ff51a939867f774]
class Warehouse--><rect codeLine="48" fill="#FEFECE" filter="url(#f1ehjsvrod343j)" height="131.0156" id="Warehouse" style="stroke:#A80036;stroke-width:1.5;" width="96" x="409" y="181.5"/><ellipse cx="424" cy="197.5" fill="#ADD1B2" rx="11" ry="11" style="stroke:#A80036;stroke-width:1.0;"/><path d="M426,194 Q426.2031,193.5 426.4375,193.25 Q426.6719,193 426.9375,193 Q427.4063,193 427.7031,193.2813 Q428,193.5625 428,194.2188 L428,195.7813 Q428,196.4375 427.7188,196.7188 Q427.4375,197 427,197 Q426.6094,197 426.3594,196.8281 Q426.1094,196.6563 426,196.2031 Q425.9531,195.8906 425.7813,195.7188 Q425.4688,195.3906 424.9063,195.2031 Q424.3438,195 423.7813,195 Q423.0781,195 422.4844,195.2813 Q421.9063,195.5625 421.4531,196.1875 Q421,196.8125 421,197.6719 L421,198.5938 Q421,199.625 421.8438,200.3125 Q422.6875,201 424.1875,201 Q425.0781,201 425.7031,200.7969 Q426.0625,200.6875 426.4688,200.3281 Q426.7344,200.125 426.875,200.0625 Q427.0156,200 427.1875,200 Q427.5156,200 427.75,200.2656 Q428,200.5156 428,200.875 Q428,201.2188 427.6563,201.625 Q427.1563,202.2188 426.3594,202.5469 Q425.3125,203 424.0313,203 Q422.5313,203 421.3281,202.4063 Q420.3594,201.9375 419.6719,200.9219 Q419,199.9063 419,198.7031 L419,197.6094 Q419,196.3594 419.5938,195.2656 Q420.2031,194.1719 421.25,193.5938 Q422.3125,193 423.5,193 Q424.2188,193 424.8438,193.25 Q425.4688,193.5 426,194 Z " fill="#000000"/><text fill="#000000" font-family="sans-serif" font-size="12" lengthAdjust="spacing" textLength="64" x="438" y="202.4102">Warehouse</text><line style="stroke:#A80036;stroke-width:1.5;" x1="410" x2="504" y1="213.5" y2="213.5"/><text fill="#000000" font-family="sans-serif" font-size="11" lengthAdjust="spacing" textLength="64" x="415" y="228.9189">-Identification</text><text fill="#000000" font-family="sans-serif" font-size="11" lengthAdjust="spacing" textLength="31" x="415" y="242.7549">-Name</text><text fill="#000000" font-family="sans-serif" font-size="11" lengthAdjust="spacing" textLength="49" x="415" y="256.5908">-Continent</text><text fill="#000000" font-family="sans-serif" font-size="11" lengthAdjust="spacing" textLength="42" x="415" y="270.4268">-Country</text><text fill="#000000" font-family="sans-serif" font-size="11" lengthAdjust="spacing" textLength="42" x="415" y="284.2627">-Latitude</text><text fill="#000000" font-family="sans-serif" font-size="11" lengthAdjust="spacing" textLength="47" x="415" y="298.0986">-longitude</text><line style="stroke:#A80036;stroke-width:1.5;" x1="410" x2="504" y1="304.5156" y2="304.5156"/><!--MD5=[7421f545a0d8420c5bec41e74b387d9c]
class Employee--><rect codeLine="57" fill="#FEFECE" filter="url(#f1ehjsvrod343j)" height="48" id="Employee" style="stroke:#A80036;stroke-width:1.5;" width="87" x="656.5" y="223"/><ellipse cx="671.5" cy="239" fill="#ADD1B2" rx="11" ry="11" style="stroke:#A80036;stroke-width:1.0;"/><path d="M673.5,235.5 Q673.7031,235 673.9375,234.75 Q674.1719,234.5 674.4375,234.5 Q674.9063,234.5 675.2031,234.7813 Q675.5,235.0625 675.5,235.7188 L675.5,237.2813 Q675.5,237.9375 675.2188,238.2188 Q674.9375,238.5 674.5,238.5 Q674.1094,238.5 673.8594,238.3281 Q673.6094,238.1563 673.5,237.7031 Q673.4531,237.3906 673.2813,237.2188 Q672.9688,236.8906 672.4063,236.7031 Q671.8438,236.5 671.2813,236.5 Q670.5781,236.5 669.9844,236.7813 Q669.4063,237.0625 668.9531,237.6875 Q668.5,238.3125 668.5,239.1719 L668.5,240.0938 Q668.5,241.125 669.3438,241.8125 Q670.1875,242.5 671.6875,242.5 Q672.5781,242.5 673.2031,242.2969 Q673.5625,242.1875 673.9688,241.8281 Q674.2344,241.625 674.375,241.5625 Q674.5156,241.5 674.6875,241.5 Q675.0156,241.5 675.25,241.7656 Q675.5,242.0156 675.5,242.375 Q675.5,242.7188 675.1563,243.125 Q674.6563,243.7188 673.8594,244.0469 Q672.8125,244.5 671.5313,244.5 Q670.0313,244.5 668.8281,243.9063 Q667.8594,243.4375 667.1719,242.4219 Q666.5,241.4063 666.5,240.2031 L666.5,239.1094 Q666.5,237.8594 667.0938,236.7656 Q667.7031,235.6719 668.75,235.0938 Q669.8125,234.5 671,234.5 Q671.7188,234.5 672.3438,234.75 Q672.9688,235 673.5,235.5 Z " fill="#000000"/><text fill="#000000" font-family="sans-serif" font-size="12" lengthAdjust="spacing" textLength="55" x="685.5" y="243.9102">Employee</text><line style="stroke:#A80036;stroke-width:1.5;" x1="657.5" x2="742.5" y1="255" y2="255"/><line style="stroke:#A80036;stroke-width:1.5;" x1="657.5" x2="742.5" y1="263" y2="263"/><!--MD5=[12e90e92236ca84f203192a07d84ec5e]
class OrganizationRole--><rect codeLine="59" fill="#FEFECE" filter="url(#f1ehjsvrod343j)" height="61.8359" id="OrganizationRole" style="stroke:#A80036;stroke-width:1.5;" width="127" x="853.5" y="216"/><ellipse cx="868.5" cy="232" fill="#ADD1B2" rx="11" ry="11" style="stroke:#A80036;stroke-width:1.0;"/><path d="M870.5,228.5 Q870.7031,228 870.9375,227.75 Q871.1719,227.5 871.4375,227.5 Q871.9063,227.5 872.2031,227.7813 Q872.5,228.0625 872.5,228.7188 L872.5,230.2813 Q872.5,230.9375 872.2188,231.2188 Q871.9375,231.5 871.5,231.5 Q871.1094,231.5 870.8594,231.3281 Q870.6094,231.1563 870.5,230.7031 Q870.4531,230.3906 870.2813,230.2188 Q869.9688,229.8906 869.4063,229.7031 Q868.8438,229.5 868.2813,229.5 Q867.5781,229.5 866.9844,229.7813 Q866.4063,230.0625 865.9531,230.6875 Q865.5,231.3125 865.5,232.1719 L865.5,233.0938 Q865.5,234.125 866.3438,234.8125 Q867.1875,235.5 868.6875,235.5 Q869.5781,235.5 870.2031,235.2969 Q870.5625,235.1875 870.9688,234.8281 Q871.2344,234.625 871.375,234.5625 Q871.5156,234.5 871.6875,234.5 Q872.0156,234.5 872.25,234.7656 Q872.5,235.0156 872.5,235.375 Q872.5,235.7188 872.1563,236.125 Q871.6563,236.7188 870.8594,237.0469 Q869.8125,237.5 868.5313,237.5 Q867.0313,237.5 865.8281,236.9063 Q864.8594,236.4375 864.1719,235.4219 Q863.5,234.4063 863.5,233.2031 L863.5,232.1094 Q863.5,230.8594 864.0938,229.7656 Q864.7031,228.6719 865.75,228.0938 Q866.8125,227.5 868,227.5 Q868.7188,227.5 869.3438,227.75 Q869.9688,228 870.5,228.5 Z " fill="#000000"/><text fill="#000000" font-family="sans-serif" font-size="12" lengthAdjust="spacing" textLength="95" x="882.5" y="236.9102">OrganizationRole</text><line style="stroke:#A80036;stroke-width:1.5;" x1="854.5" x2="979.5" y1="248" y2="248"/><text fill="#000000" font-family="sans-serif" font-size="11" lengthAdjust="spacing" textLength="58" x="859.5" y="263.4189">-Description</text><line style="stroke:#A80036;stroke-width:1.5;" x1="854.5" x2="979.5" y1="269.8359" y2="269.8359"/><!--MD5=[f50c29d74083ea4b40d93461c67578c2]
class PortMagager--><rect codeLine="63" fill="#FEFECE" filter="url(#f1ehjsvrod343j)" height="48" id="PortMagager" style="stroke:#A80036;stroke-width:1.5;" width="102" x="7" y="425"/><ellipse cx="22" cy="441" fill="#ADD1B2" rx="11" ry="11" style="stroke:#A80036;stroke-width:1.0;"/><path d="M24,437.5 Q24.2031,437 24.4375,436.75 Q24.6719,436.5 24.9375,436.5 Q25.4063,436.5 25.7031,436.7813 Q26,437.0625 26,437.7188 L26,439.2813 Q26,439.9375 25.7188,440.2188 Q25.4375,440.5 25,440.5 Q24.6094,440.5 24.3594,440.3281 Q24.1094,440.1563 24,439.7031 Q23.9531,439.3906 23.7813,439.2188 Q23.4688,438.8906 22.9063,438.7031 Q22.3438,438.5 21.7813,438.5 Q21.0781,438.5 20.4844,438.7813 Q19.9063,439.0625 19.4531,439.6875 Q19,440.3125 19,441.1719 L19,442.0938 Q19,443.125 19.8438,443.8125 Q20.6875,444.5 22.1875,444.5 Q23.0781,444.5 23.7031,444.2969 Q24.0625,444.1875 24.4688,443.8281 Q24.7344,443.625 24.875,443.5625 Q25.0156,443.5 25.1875,443.5 Q25.5156,443.5 25.75,443.7656 Q26,444.0156 26,444.375 Q26,444.7188 25.6563,445.125 Q25.1563,445.7188 24.3594,446.0469 Q23.3125,446.5 22.0313,446.5 Q20.5313,446.5 19.3281,445.9063 Q18.3594,445.4375 17.6719,444.4219 Q17,443.4063 17,442.2031 L17,441.1094 Q17,439.8594 17.5938,438.7656 Q18.2031,437.6719 19.25,437.0938 Q20.3125,436.5 21.5,436.5 Q22.2188,436.5 22.8438,436.75 Q23.4688,437 24,437.5 Z " fill="#000000"/><text fill="#000000" font-family="sans-serif" font-size="12" lengthAdjust="spacing" textLength="70" x="36" y="445.9102">PortMagager</text><line style="stroke:#A80036;stroke-width:1.5;" x1="8" x2="108" y1="457" y2="457"/><line style="stroke:#A80036;stroke-width:1.5;" x1="8" x2="108" y1="465" y2="465"/><!--MD5=[5e1deb958606d83ef5f4988eb2b8f966]
class WarehouseManager--><rect codeLine="65" fill="#FEFECE" filter="url(#f1ehjsvrod343j)" height="48" id="WarehouseManager" style="stroke:#A80036;stroke-width:1.5;" width="144" x="257" y="425"/><ellipse cx="272" cy="441" fill="#ADD1B2" rx="11" ry="11" style="stroke:#A80036;stroke-width:1.0;"/><path d="M274,437.5 Q274.2031,437 274.4375,436.75 Q274.6719,436.5 274.9375,436.5 Q275.4063,436.5 275.7031,436.7813 Q276,437.0625 276,437.7188 L276,439.2813 Q276,439.9375 275.7188,440.2188 Q275.4375,440.5 275,440.5 Q274.6094,440.5 274.3594,440.3281 Q274.1094,440.1563 274,439.7031 Q273.9531,439.3906 273.7813,439.2188 Q273.4688,438.8906 272.9063,438.7031 Q272.3438,438.5 271.7813,438.5 Q271.0781,438.5 270.4844,438.7813 Q269.9063,439.0625 269.4531,439.6875 Q269,440.3125 269,441.1719 L269,442.0938 Q269,443.125 269.8438,443.8125 Q270.6875,444.5 272.1875,444.5 Q273.0781,444.5 273.7031,444.2969 Q274.0625,444.1875 274.4688,443.8281 Q274.7344,443.625 274.875,443.5625 Q275.0156,443.5 275.1875,443.5 Q275.5156,443.5 275.75,443.7656 Q276,444.0156 276,444.375 Q276,444.7188 275.6563,445.125 Q275.1563,445.7188 274.3594,446.0469 Q273.3125,446.5 272.0313,446.5 Q270.5313,446.5 269.3281,445.9063 Q268.3594,445.4375 267.6719,444.4219 Q267,443.4063 267,442.2031 L267,441.1094 Q267,439.8594 267.5938,438.7656 Q268.2031,437.6719 269.25,437.0938 Q270.3125,436.5 271.5,436.5 Q272.2188,436.5 272.8438,436.75 Q273.4688,437 274,437.5 Z " fill="#000000"/><text fill="#000000" font-family="sans-serif" font-size="12" lengthAdjust="spacing" textLength="112" x="286" y="445.9102">WarehouseManager</text><line style="stroke:#A80036;stroke-width:1.5;" x1="258" x2="400" y1="457" y2="457"/><line style="stroke:#A80036;stroke-width:1.5;" x1="258" x2="400" y1="465" y2="465"/><!--MD5=[e6b394b930674b2255938b8afe6bb7b4]
class ShipCaptain--><rect codeLine="67" fill="#FEFECE" filter="url(#f1ehjsvrod343j)" height="48" id="ShipCaptain" style="stroke:#A80036;stroke-width:1.5;" width="100" x="836" y="425"/><ellipse cx="851" cy="441" fill="#ADD1B2" rx="11" ry="11" style="stroke:#A80036;stroke-width:1.0;"/><path d="M853,437.5 Q853.2031,437 853.4375,436.75 Q853.6719,436.5 853.9375,436.5 Q854.4063,436.5 854.7031,436.7813 Q855,437.0625 855,437.7188 L855,439.2813 Q855,439.9375 854.7188,440.2188 Q854.4375,440.5 854,440.5 Q853.6094,440.5 853.3594,440.3281 Q853.1094,440.1563 853,439.7031 Q852.9531,439.3906 852.7813,439.2188 Q852.4688,438.8906 851.9063,438.7031 Q851.3438,438.5 850.7813,438.5 Q850.0781,438.5 849.4844,438.7813 Q848.9063,439.0625 848.4531,439.6875 Q848,440.3125 848,441.1719 L848,442.0938 Q848,443.125 848.8438,443.8125 Q849.6875,444.5 851.1875,444.5 Q852.0781,444.5 852.7031,444.2969 Q853.0625,444.1875 853.4688,443.8281 Q853.7344,443.625 853.875,443.5625 Q854.0156,443.5 854.1875,443.5 Q854.5156,443.5 854.75,443.7656 Q855,444.0156 855,444.375 Q855,444.7188 854.6563,445.125 Q854.1563,445.7188 853.3594,446.0469 Q852.3125,446.5 851.0313,446.5 Q849.5313,446.5 848.3281,445.9063 Q847.3594,445.4375 846.6719,444.4219 Q846,443.4063 846,442.2031 L846,441.1094 Q846,439.8594 846.5938,438.7656 Q847.2031,437.6719 848.25,437.0938 Q849.3125,436.5 850.5,436.5 Q851.2188,436.5 851.8438,436.75 Q852.4688,437 853,437.5 Z " fill="#000000"/><text fill="#000000" font-family="sans-serif" font-size="12" lengthAdjust="spacing" textLength="68" x="865" y="445.9102">ShipCaptain</text><line style="stroke:#A80036;stroke-width:1.5;" x1="837" x2="935" y1="457" y2="457"/><line style="stroke:#A80036;stroke-width:1.5;" x1="837" x2="935" y1="465" y2="465"/><!--MD5=[a93a86a91abc8796b23cdcc7cc3b17ff]
class TruckDriver--><rect codeLine="69" fill="#FEFECE" filter="url(#f1ehjsvrod343j)" height="48" id="TruckDriver" style="stroke:#A80036;stroke-width:1.5;" width="94" x="1481" y="425"/><ellipse cx="1496" cy="441" fill="#ADD1B2" rx="11" ry="11" style="stroke:#A80036;stroke-width:1.0;"/><path d="M1498,437.5 Q1498.2031,437 1498.4375,436.75 Q1498.6719,436.5 1498.9375,436.5 Q1499.4063,436.5 1499.7031,436.7813 Q1500,437.0625 1500,437.7188 L1500,439.2813 Q1500,439.9375 1499.7188,440.2188 Q1499.4375,440.5 1499,440.5 Q1498.6094,440.5 1498.3594,440.3281 Q1498.1094,440.1563 1498,439.7031 Q1497.9531,439.3906 1497.7813,439.2188 Q1497.4688,438.8906 1496.9063,438.7031 Q1496.3438,438.5 1495.7813,438.5 Q1495.0781,438.5 1494.4844,438.7813 Q1493.9063,439.0625 1493.4531,439.6875 Q1493,440.3125 1493,441.1719 L1493,442.0938 Q1493,443.125 1493.8438,443.8125 Q1494.6875,444.5 1496.1875,444.5 Q1497.0781,444.5 1497.7031,444.2969 Q1498.0625,444.1875 1498.4688,443.8281 Q1498.7344,443.625 1498.875,443.5625 Q1499.0156,443.5 1499.1875,443.5 Q1499.5156,443.5 1499.75,443.7656 Q1500,444.0156 1500,444.375 Q1500,444.7188 1499.6563,445.125 Q1499.1563,445.7188 1498.3594,446.0469 Q1497.3125,446.5 1496.0313,446.5 Q1494.5313,446.5 1493.3281,445.9063 Q1492.3594,445.4375 1491.6719,444.4219 Q1491,443.4063 1491,442.2031 L1491,441.1094 Q1491,439.8594 1491.5938,438.7656 Q1492.2031,437.6719 1493.25,437.0938 Q1494.3125,436.5 1495.5,436.5 Q1496.2188,436.5 1496.8438,436.75 Q1497.4688,437 1498,437.5 Z " fill="#000000"/><text fill="#000000" font-family="sans-serif" font-size="12" lengthAdjust="spacing" textLength="62" x="1510" y="445.9102">TruckDriver</text><line style="stroke:#A80036;stroke-width:1.5;" x1="1482" x2="1574" y1="457" y2="457"/><line style="stroke:#A80036;stroke-width:1.5;" x1="1482" x2="1574" y1="465" y2="465"/><!--MD5=[019a73386217e12d5bb8e34bf0b46b9e]
class FleetManager--><rect codeLine="71" fill="#FEFECE" filter="url(#f1ehjsvrod343j)" height="48" id="FleetManager" style="stroke:#A80036;stroke-width:1.5;" width="107" x="971.5" y="425"/><ellipse cx="986.5" cy="441" fill="#ADD1B2" rx="11" ry="11" style="stroke:#A80036;stroke-width:1.0;"/><path d="M988.5,437.5 Q988.7031,437 988.9375,436.75 Q989.1719,436.5 989.4375,436.5 Q989.9063,436.5 990.2031,436.7813 Q990.5,437.0625 990.5,437.7188 L990.5,439.2813 Q990.5,439.9375 990.2188,440.2188 Q989.9375,440.5 989.5,440.5 Q989.1094,440.5 988.8594,440.3281 Q988.6094,440.1563 988.5,439.7031 Q988.4531,439.3906 988.2813,439.2188 Q987.9688,438.8906 987.4063,438.7031 Q986.8438,438.5 986.2813,438.5 Q985.5781,438.5 984.9844,438.7813 Q984.4063,439.0625 983.9531,439.6875 Q983.5,440.3125 983.5,441.1719 L983.5,442.0938 Q983.5,443.125 984.3438,443.8125 Q985.1875,444.5 986.6875,444.5 Q987.5781,444.5 988.2031,444.2969 Q988.5625,444.1875 988.9688,443.8281 Q989.2344,443.625 989.375,443.5625 Q989.5156,443.5 989.6875,443.5 Q990.0156,443.5 990.25,443.7656 Q990.5,444.0156 990.5,444.375 Q990.5,444.7188 990.1563,445.125 Q989.6563,445.7188 988.8594,446.0469 Q987.8125,446.5 986.5313,446.5 Q985.0313,446.5 983.8281,445.9063 Q982.8594,445.4375 982.1719,444.4219 Q981.5,443.4063 981.5,442.2031 L981.5,441.1094 Q981.5,439.8594 982.0938,438.7656 Q982.7031,437.6719 983.75,437.0938 Q984.8125,436.5 986,436.5 Q986.7188,436.5 987.3438,436.75 Q987.9688,437 988.5,437.5 Z " fill="#000000"/><text fill="#000000" font-family="sans-serif" font-size="12" lengthAdjust="spacing" textLength="75" x="1000.5" y="445.9102">FleetManager</text><line style="stroke:#A80036;stroke-width:1.5;" x1="972.5" x2="1077.5" y1="457" y2="457"/><line style="stroke:#A80036;stroke-width:1.5;" x1="972.5" x2="1077.5" y1="465" y2="465"/><!--MD5=[d14076b1fa5ff6fc34e7abc31c5e1daa]
class ShipChiefElectricalEngineer--><rect codeLine="73" fill="#FEFECE" filter="url(#f1ehjsvrod343j)" height="48" id="ShipChiefElectricalEngineer" style="stroke:#A80036;stroke-width:1.5;" width="186" x="1114" y="425"/><ellipse cx="1129" cy="441" fill="#ADD1B2" rx="11" ry="11" style="stroke:#A80036;stroke-width:1.0;"/><path d="M1131,437.5 Q1131.2031,437 1131.4375,436.75 Q1131.6719,436.5 1131.9375,436.5 Q1132.4063,436.5 1132.7031,436.7813 Q1133,437.0625 1133,437.7188 L1133,439.2813 Q1133,439.9375 1132.7188,440.2188 Q1132.4375,440.5 1132,440.5 Q1131.6094,440.5 1131.3594,440.3281 Q1131.1094,440.1563 1131,439.7031 Q1130.9531,439.3906 1130.7813,439.2188 Q1130.4688,438.8906 1129.9063,438.7031 Q1129.3438,438.5 1128.7813,438.5 Q1128.0781,438.5 1127.4844,438.7813 Q1126.9063,439.0625 1126.4531,439.6875 Q1126,440.3125 1126,441.1719 L1126,442.0938 Q1126,443.125 1126.8438,443.8125 Q1127.6875,444.5 1129.1875,444.5 Q1130.0781,444.5 1130.7031,444.2969 Q1131.0625,444.1875 1131.4688,443.8281 Q1131.7344,443.625 1131.875,443.5625 Q1132.0156,443.5 1132.1875,443.5 Q1132.5156,443.5 1132.75,443.7656 Q1133,444.0156 1133,444.375 Q1133,444.7188 1132.6563,445.125 Q1132.1563,445.7188 1131.3594,446.0469 Q1130.3125,446.5 1129.0313,446.5 Q1127.5313,446.5 1126.3281,445.9063 Q1125.3594,445.4375 1124.6719,444.4219 Q1124,443.4063 1124,442.2031 L1124,441.1094 Q1124,439.8594 1124.5938,438.7656 Q1125.2031,437.6719 1126.25,437.0938 Q1127.3125,436.5 1128.5,436.5 Q1129.2188,436.5 1129.8438,436.75 Q1130.4688,437 1131,437.5 Z " fill="#000000"/><text fill="#000000" font-family="sans-serif" font-size="12" lengthAdjust="spacing" textLength="154" x="1143" y="445.9102">ShipChiefElectricalEngineer</text><line style="stroke:#A80036;stroke-width:1.5;" x1="1115" x2="1299" y1="457" y2="457"/><line style="stroke:#A80036;stroke-width:1.5;" x1="1115" x2="1299" y1="465" y2="465"/><!--MD5=[ddaf6f62b0bc30921877ec9fb9463c9f]
class TrafficManager--><rect codeLine="75" fill="#FEFECE" filter="url(#f1ehjsvrod343j)" height="48" id="TrafficManager" style="stroke:#A80036;stroke-width:1.5;" width="113" x="1190.5" y="14"/><ellipse cx="1205.5" cy="30" fill="#ADD1B2" rx="11" ry="11" style="stroke:#A80036;stroke-width:1.0;"/><path d="M1207.5,26.5 Q1207.7031,26 1207.9375,25.75 Q1208.1719,25.5 1208.4375,25.5 Q1208.9063,25.5 1209.2031,25.7813 Q1209.5,26.0625 1209.5,26.7188 L1209.5,28.2813 Q1209.5,28.9375 1209.2188,29.2188 Q1208.9375,29.5 1208.5,29.5 Q1208.1094,29.5 1207.8594,29.3281 Q1207.6094,29.1563 1207.5,28.7031 Q1207.4531,28.3906 1207.2813,28.2188 Q1206.9688,27.8906 1206.4063,27.7031 Q1205.8438,27.5 1205.2813,27.5 Q1204.5781,27.5 1203.9844,27.7813 Q1203.4063,28.0625 1202.9531,28.6875 Q1202.5,29.3125 1202.5,30.1719 L1202.5,31.0938 Q1202.5,32.125 1203.3438,32.8125 Q1204.1875,33.5 1205.6875,33.5 Q1206.5781,33.5 1207.2031,33.2969 Q1207.5625,33.1875 1207.9688,32.8281 Q1208.2344,32.625 1208.375,32.5625 Q1208.5156,32.5 1208.6875,32.5 Q1209.0156,32.5 1209.25,32.7656 Q1209.5,33.0156 1209.5,33.375 Q1209.5,33.7188 1209.1563,34.125 Q1208.6563,34.7188 1207.8594,35.0469 Q1206.8125,35.5 1205.5313,35.5 Q1204.0313,35.5 1202.8281,34.9063 Q1201.8594,34.4375 1201.1719,33.4219 Q1200.5,32.4063 1200.5,31.2031 L1200.5,30.1094 Q1200.5,28.8594 1201.0938,27.7656 Q1201.7031,26.6719 1202.75,26.0938 Q1203.8125,25.5 1205,25.5 Q1205.7188,25.5 1206.3438,25.75 Q1206.9688,26 1207.5,26.5 Z " fill="#000000"/><text fill="#000000" font-family="sans-serif" font-size="12" lengthAdjust="spacing" textLength="81" x="1219.5" y="34.9102">TrafficManager</text><line style="stroke:#A80036;stroke-width:1.5;" x1="1191.5" x2="1302.5" y1="46" y2="46"/><line style="stroke:#A80036;stroke-width:1.5;" x1="1191.5" x2="1302.5" y1="54" y2="54"/><!--MD5=[7fcbedb88579745280c367cebf31fce2]
class WarehouseStaff--><rect codeLine="77" fill="#FEFECE" filter="url(#f1ehjsvrod343j)" height="48" id="WarehouseStaff" style="stroke:#A80036;stroke-width:1.5;" width="120" x="436" y="425"/><ellipse cx="451" cy="441" fill="#ADD1B2" rx="11" ry="11" style="stroke:#A80036;stroke-width:1.0;"/><path d="M453,437.5 Q453.2031,437 453.4375,436.75 Q453.6719,436.5 453.9375,436.5 Q454.4063,436.5 454.7031,436.7813 Q455,437.0625 455,437.7188 L455,439.2813 Q455,439.9375 454.7188,440.2188 Q454.4375,440.5 454,440.5 Q453.6094,440.5 453.3594,440.3281 Q453.1094,440.1563 453,439.7031 Q452.9531,439.3906 452.7813,439.2188 Q452.4688,438.8906 451.9063,438.7031 Q451.3438,438.5 450.7813,438.5 Q450.0781,438.5 449.4844,438.7813 Q448.9063,439.0625 448.4531,439.6875 Q448,440.3125 448,441.1719 L448,442.0938 Q448,443.125 448.8438,443.8125 Q449.6875,444.5 451.1875,444.5 Q452.0781,444.5 452.7031,444.2969 Q453.0625,444.1875 453.4688,443.8281 Q453.7344,443.625 453.875,443.5625 Q454.0156,443.5 454.1875,443.5 Q454.5156,443.5 454.75,443.7656 Q455,444.0156 455,444.375 Q455,444.7188 454.6563,445.125 Q454.1563,445.7188 453.3594,446.0469 Q452.3125,446.5 451.0313,446.5 Q449.5313,446.5 448.3281,445.9063 Q447.3594,445.4375 446.6719,444.4219 Q446,443.4063 446,442.2031 L446,441.1094 Q446,439.8594 446.5938,438.7656 Q447.2031,437.6719 448.25,437.0938 Q449.3125,436.5 450.5,436.5 Q451.2188,436.5 451.8438,436.75 Q452.4688,437 453,437.5 Z " fill="#000000"/><text fill="#000000" font-family="sans-serif" font-size="12" lengthAdjust="spacing" textLength="88" x="465" y="445.9102">WarehouseStaff</text><line style="stroke:#A80036;stroke-width:1.5;" x1="437" x2="555" y1="457" y2="457"/><line style="stroke:#A80036;stroke-width:1.5;" x1="437" x2="555" y1="465" y2="465"/><!--MD5=[a0e14dc1c5f22798a4d68a7546a0e1d4]
class PortStaff--><rect codeLine="79" fill="#FEFECE" filter="url(#f1ehjsvrod343j)" height="48" id="PortStaff" style="stroke:#A80036;stroke-width:1.5;" width="78" x="144" y="425"/><ellipse cx="159" cy="441" fill="#ADD1B2" rx="11" ry="11" style="stroke:#A80036;stroke-width:1.0;"/><path d="M161,437.5 Q161.2031,437 161.4375,436.75 Q161.6719,436.5 161.9375,436.5 Q162.4063,436.5 162.7031,436.7813 Q163,437.0625 163,437.7188 L163,439.2813 Q163,439.9375 162.7188,440.2188 Q162.4375,440.5 162,440.5 Q161.6094,440.5 161.3594,440.3281 Q161.1094,440.1563 161,439.7031 Q160.9531,439.3906 160.7813,439.2188 Q160.4688,438.8906 159.9063,438.7031 Q159.3438,438.5 158.7813,438.5 Q158.0781,438.5 157.4844,438.7813 Q156.9063,439.0625 156.4531,439.6875 Q156,440.3125 156,441.1719 L156,442.0938 Q156,443.125 156.8438,443.8125 Q157.6875,444.5 159.1875,444.5 Q160.0781,444.5 160.7031,444.2969 Q161.0625,444.1875 161.4688,443.8281 Q161.7344,443.625 161.875,443.5625 Q162.0156,443.5 162.1875,443.5 Q162.5156,443.5 162.75,443.7656 Q163,444.0156 163,444.375 Q163,444.7188 162.6563,445.125 Q162.1563,445.7188 161.3594,446.0469 Q160.3125,446.5 159.0313,446.5 Q157.5313,446.5 156.3281,445.9063 Q155.3594,445.4375 154.6719,444.4219 Q154,443.4063 154,442.2031 L154,441.1094 Q154,439.8594 154.5938,438.7656 Q155.2031,437.6719 156.25,437.0938 Q157.3125,436.5 158.5,436.5 Q159.2188,436.5 159.8438,436.75 Q160.4688,437 161,437.5 Z " fill="#000000"/><text fill="#000000" font-family="sans-serif" font-size="12" lengthAdjust="spacing" textLength="46" x="173" y="445.9102">PortStaff</text><line style="stroke:#A80036;stroke-width:1.5;" x1="145" x2="221" y1="457" y2="457"/><line style="stroke:#A80036;stroke-width:1.5;" x1="145" x2="221" y1="465" y2="465"/><!--MD5=[76562047389981627aea27c31a97aff5]
class CargoManifest--><rect codeLine="81" fill="#FEFECE" filter="url(#f1ehjsvrod343j)" height="48" id="CargoManifest" style="stroke:#A80036;stroke-width:1.5;" width="112" x="1560" y="223"/><ellipse cx="1575" cy="239" fill="#ADD1B2" rx="11" ry="11" style="stroke:#A80036;stroke-width:1.0;"/><path d="M1577,235.5 Q1577.2031,235 1577.4375,234.75 Q1577.6719,234.5 1577.9375,234.5 Q1578.4063,234.5 1578.7031,234.7813 Q1579,235.0625 1579,235.7188 L1579,237.2813 Q1579,237.9375 1578.7188,238.2188 Q1578.4375,238.5 1578,238.5 Q1577.6094,238.5 1577.3594,238.3281 Q1577.1094,238.1563 1577,237.7031 Q1576.9531,237.3906 1576.7813,237.2188 Q1576.4688,236.8906 1575.9063,236.7031 Q1575.3438,236.5 1574.7813,236.5 Q1574.0781,236.5 1573.4844,236.7813 Q1572.9063,237.0625 1572.4531,237.6875 Q1572,238.3125 1572,239.1719 L1572,240.0938 Q1572,241.125 1572.8438,241.8125 Q1573.6875,242.5 1575.1875,242.5 Q1576.0781,242.5 1576.7031,242.2969 Q1577.0625,242.1875 1577.4688,241.8281 Q1577.7344,241.625 1577.875,241.5625 Q1578.0156,241.5 1578.1875,241.5 Q1578.5156,241.5 1578.75,241.7656 Q1579,242.0156 1579,242.375 Q1579,242.7188 1578.6563,243.125 Q1578.1563,243.7188 1577.3594,244.0469 Q1576.3125,244.5 1575.0313,244.5 Q1573.5313,244.5 1572.3281,243.9063 Q1571.3594,243.4375 1570.6719,242.4219 Q1570,241.4063 1570,240.2031 L1570,239.1094 Q1570,237.8594 1570.5938,236.7656 Q1571.2031,235.6719 1572.25,235.0938 Q1573.3125,234.5 1574.5,234.5 Q1575.2188,234.5 1575.8438,234.75 Q1576.4688,235 1577,235.5 Z " fill="#000000"/><text fill="#000000" font-family="sans-serif" font-size="12" lengthAdjust="spacing" textLength="80" x="1589" y="243.9102">CargoManifest</text><line style="stroke:#A80036;stroke-width:1.5;" x1="1561" x2="1671" y1="255" y2="255"/><line style="stroke:#A80036;stroke-width:1.5;" x1="1561" x2="1671" y1="263" y2="263"/><!--MD5=[174c0e4036b9b8ac640de066b1712445]
class UnloadingCargoManifest--><rect codeLine="83" fill="#FEFECE" filter="url(#f1ehjsvrod343j)" height="48" id="UnloadingCargoManifest" style="stroke:#A80036;stroke-width:1.5;" width="169" x="1503.5" y="14"/><ellipse cx="1518.5" cy="30" fill="#ADD1B2" rx="11" ry="11" style="stroke:#A80036;stroke-width:1.0;"/><path d="M1520.5,26.5 Q1520.7031,26 1520.9375,25.75 Q1521.1719,25.5 1521.4375,25.5 Q1521.9063,25.5 1522.2031,25.7813 Q1522.5,26.0625 1522.5,26.7188 L1522.5,28.2813 Q1522.5,28.9375 1522.2188,29.2188 Q1521.9375,29.5 1521.5,29.5 Q1521.1094,29.5 1520.8594,29.3281 Q1520.6094,29.1563 1520.5,28.7031 Q1520.4531,28.3906 1520.2813,28.2188 Q1519.9688,27.8906 1519.4063,27.7031 Q1518.8438,27.5 1518.2813,27.5 Q1517.5781,27.5 1516.9844,27.7813 Q1516.4063,28.0625 1515.9531,28.6875 Q1515.5,29.3125 1515.5,30.1719 L1515.5,31.0938 Q1515.5,32.125 1516.3438,32.8125 Q1517.1875,33.5 1518.6875,33.5 Q1519.5781,33.5 1520.2031,33.2969 Q1520.5625,33.1875 1520.9688,32.8281 Q1521.2344,32.625 1521.375,32.5625 Q1521.5156,32.5 1521.6875,32.5 Q1522.0156,32.5 1522.25,32.7656 Q1522.5,33.0156 1522.5,33.375 Q1522.5,33.7188 1522.1563,34.125 Q1521.6563,34.7188 1520.8594,35.0469 Q1519.8125,35.5 1518.5313,35.5 Q1517.0313,35.5 1515.8281,34.9063 Q1514.8594,34.4375 1514.1719,33.4219 Q1513.5,32.4063 1513.5,31.2031 L1513.5,30.1094 Q1513.5,28.8594 1514.0938,27.7656 Q1514.7031,26.6719 1515.75,26.0938 Q1516.8125,25.5 1518,25.5 Q1518.7188,25.5 1519.3438,25.75 Q1519.9688,26 1520.5,26.5 Z " fill="#000000"/><text fill="#000000" font-family="sans-serif" font-size="12" lengthAdjust="spacing" textLength="137" x="1532.5" y="34.9102">UnloadingCargoManifest</text><line style="stroke:#A80036;stroke-width:1.5;" x1="1504.5" x2="1671.5" y1="46" y2="46"/><line style="stroke:#A80036;stroke-width:1.5;" x1="1504.5" x2="1671.5" y1="54" y2="54"/><!--MD5=[76bef78c20971d0fcd96a5526b5af5e6]
class LoadingCargoManifest--><rect codeLine="85" fill="#FEFECE" filter="url(#f1ehjsvrod343j)" height="48" id="LoadingCargoManifest" style="stroke:#A80036;stroke-width:1.5;" width="157" x="1707.5" y="14"/><ellipse cx="1722.5" cy="30" fill="#ADD1B2" rx="11" ry="11" style="stroke:#A80036;stroke-width:1.0;"/><path d="M1724.5,26.5 Q1724.7031,26 1724.9375,25.75 Q1725.1719,25.5 1725.4375,25.5 Q1725.9063,25.5 1726.2031,25.7813 Q1726.5,26.0625 1726.5,26.7188 L1726.5,28.2813 Q1726.5,28.9375 1726.2188,29.2188 Q1725.9375,29.5 1725.5,29.5 Q1725.1094,29.5 1724.8594,29.3281 Q1724.6094,29.1563 1724.5,28.7031 Q1724.4531,28.3906 1724.2813,28.2188 Q1723.9688,27.8906 1723.4063,27.7031 Q1722.8438,27.5 1722.2813,27.5 Q1721.5781,27.5 1720.9844,27.7813 Q1720.4063,28.0625 1719.9531,28.6875 Q1719.5,29.3125 1719.5,30.1719 L1719.5,31.0938 Q1719.5,32.125 1720.3438,32.8125 Q1721.1875,33.5 1722.6875,33.5 Q1723.5781,33.5 1724.2031,33.2969 Q1724.5625,33.1875 1724.9688,32.8281 Q1725.2344,32.625 1725.375,32.5625 Q1725.5156,32.5 1725.6875,32.5 Q1726.0156,32.5 1726.25,32.7656 Q1726.5,33.0156 1726.5,33.375 Q1726.5,33.7188 1726.1563,34.125 Q1725.6563,34.7188 1724.8594,35.0469 Q1723.8125,35.5 1722.5313,35.5 Q1721.0313,35.5 1719.8281,34.9063 Q1718.8594,34.4375 1718.1719,33.4219 Q1717.5,32.4063 1717.5,31.2031 L1717.5,30.1094 Q1717.5,28.8594 1718.0938,27.7656 Q1718.7031,26.6719 1719.75,26.0938 Q1720.8125,25.5 1722,25.5 Q1722.7188,25.5 1723.3438,25.75 Q1723.9688,26 1724.5,26.5 Z " fill="#000000"/><text fill="#000000" font-family="sans-serif" font-size="12" lengthAdjust="spacing" textLength="125" x="1736.5" y="34.9102">LoadingCargoManifest</text><line style="stroke:#A80036;stroke-width:1.5;" x1="1708.5" x2="1863.5" y1="46" y2="46"/><line style="stroke:#A80036;stroke-width:1.5;" x1="1708.5" x2="1863.5" y1="54" y2="54"/><!--MD5=[e553fe7a6012bbb9ba7638d51b8b5fec]
class Shipping--><rect fill="#FEFECE" filter="url(#f1ehjsvrod343j)" height="48" id="Shipping" style="stroke:#A80036;stroke-width:1.5;" width="81" x="540.5" y="223"/><ellipse cx="555.5" cy="239" fill="#ADD1B2" rx="11" ry="11" style="stroke:#A80036;stroke-width:1.0;"/><path d="M557.5,235.5 Q557.7031,235 557.9375,234.75 Q558.1719,234.5 558.4375,234.5 Q558.9063,234.5 559.2031,234.7813 Q559.5,235.0625 559.5,235.7188 L559.5,237.2813 Q559.5,237.9375 559.2188,238.2188 Q558.9375,238.5 558.5,238.5 Q558.1094,238.5 557.8594,238.3281 Q557.6094,238.1563 557.5,237.7031 Q557.4531,237.3906 557.2813,237.2188 Q556.9688,236.8906 556.4063,236.7031 Q555.8438,236.5 555.2813,236.5 Q554.5781,236.5 553.9844,236.7813 Q553.4063,237.0625 552.9531,237.6875 Q552.5,238.3125 552.5,239.1719 L552.5,240.0938 Q552.5,241.125 553.3438,241.8125 Q554.1875,242.5 555.6875,242.5 Q556.5781,242.5 557.2031,242.2969 Q557.5625,242.1875 557.9688,241.8281 Q558.2344,241.625 558.375,241.5625 Q558.5156,241.5 558.6875,241.5 Q559.0156,241.5 559.25,241.7656 Q559.5,242.0156 559.5,242.375 Q559.5,242.7188 559.1563,243.125 Q558.6563,243.7188 557.8594,244.0469 Q556.8125,244.5 555.5313,244.5 Q554.0313,244.5 552.8281,243.9063 Q551.8594,243.4375 551.1719,242.4219 Q550.5,241.4063 550.5,240.2031 L550.5,239.1094 Q550.5,237.8594 551.0938,236.7656 Q551.7031,235.6719 552.75,235.0938 Q553.8125,234.5 555,234.5 Q555.7188,234.5 556.3438,234.75 Q556.9688,235 557.5,235.5 Z " fill="#000000"/><text fill="#000000" font-family="sans-serif" font-size="12" lengthAdjust="spacing" textLength="49" x="569.5" y="243.9102">Shipping</text><line style="stroke:#A80036;stroke-width:1.5;" x1="541.5" x2="620.5" y1="255" y2="255"/><line style="stroke:#A80036;stroke-width:1.5;" x1="541.5" x2="620.5" y1="263" y2="263"/><!--MD5=[28fc8488f762be30ab607089dcea2fe9]
link Company to Shipping--><path codeLine="87" d="M710.44,47.31 C680.09,55.42 640.63,70.82 617,99 C587.12,134.64 581.35,191.27 580.63,222.82 " fill="none" id="Company-Shipping" style="stroke:#A80036;stroke-width:1.0;"/><polygon fill="#000000" points="619.0268,112.1957,626.7682,106.6712,622.0425,103.176,619.0268,112.1957" style="stroke:#000000;stroke-width:1.0;"/><text fill="#000000" font-family="sans-serif" font-size="13" lengthAdjust="spacing" textLength="52" x="631" y="113.4951">Performs</text><text fill="#000000" font-family="sans-serif" font-size="13" lengthAdjust="spacing" textLength="7" x="695.5234" y="63.8246">1</text><text fill="#000000" font-family="sans-serif" font-size="13" lengthAdjust="spacing" textLength="5" x="574.8946" y="212.114">*</text><!--MD5=[37a14a5de6d6fd738aee271300f4b5c8]
link Company to Ship--><path codeLine="88" d="M795.77,55.17 C825.77,66.76 866.66,83.08 902,99 C902.17,99.08 997.85,146.89 998,147 C1003.88,151.26 1009.72,155.88 1015.46,160.71 " fill="none" id="Company-Ship" style="stroke:#A80036;stroke-width:1.0;"/><polygon fill="#000000" points="944.5069,110.3409,937.6265,103.7751,935.0812,109.0732,944.5069,110.3409" style="stroke:#000000;stroke-width:1.0;"/><text fill="#000000" font-family="sans-serif" font-size="13" lengthAdjust="spacing" textLength="33" x="949" y="113.4951">Owns</text><text fill="#000000" font-family="sans-serif" font-size="13" lengthAdjust="spacing" textLength="7" x="803.4335" y="54.2266">1</text><text fill="#000000" font-family="sans-serif" font-size="13" lengthAdjust="spacing" textLength="20" x="987.3963" y="149.8144">1..*</text><!--MD5=[710b10ea314ec23c5eb602bd01bfa9d5]
link Company to Truck--><path codeLine="89" d="M795.56,49.06 C843.14,60.46 922.38,79.96 990,99 C1015.98,106.31 1021.86,110.28 1048,117 C1112.16,133.5 1131.76,124.33 1194,147 C1250.34,167.52 1310.56,203.05 1345.94,225.5 " fill="none" id="Company-Truck" style="stroke:#A80036;stroke-width:1.0;"/><polygon fill="#000000" points="1057.7613,109.7022,1050.0452,104.1423,1048.2508,109.7396,1057.7613,109.7022" style="stroke:#000000;stroke-width:1.0;"/><text fill="#000000" font-family="sans-serif" font-size="13" lengthAdjust="spacing" textLength="33" x="1062" y="113.4951">Owns</text><text fill="#000000" font-family="sans-serif" font-size="13" lengthAdjust="spacing" textLength="7" x="803.4766" y="65.8754">1</text><text fill="#000000" font-family="sans-serif" font-size="13" lengthAdjust="spacing" textLength="20" x="1318.1129" y="217.4052">1..*</text><!--MD5=[5fd98a8c03cc0e5a408f548eb1c0ace8]
link Company to Port--><path codeLine="90" d="M710.15,44.77 C654.74,53.02 555.76,70.42 475,99 C380.02,132.61 276.44,190.55 222.13,222.74 " fill="none" id="Company-Port" style="stroke:#A80036;stroke-width:1.0;"/><polygon fill="#000000" points="475.3026,109.8888,484.8072,109.551,482.7934,104.0288,475.3026,109.8888" style="stroke:#000000;stroke-width:1.0;"/><text fill="#000000" font-family="sans-serif" font-size="13" lengthAdjust="spacing" textLength="33" x="489" y="113.4951">Owns</text><text fill="#000000" font-family="sans-serif" font-size="13" lengthAdjust="spacing" textLength="7" x="695.4733" y="42.1041">1</text><text fill="#000000" font-family="sans-serif" font-size="13" lengthAdjust="spacing" textLength="5" x="229.8751" y="214.1176">*</text><!--MD5=[acda98ef2513d819683ba761a9c77b11]
link Company to Warehouse--><path codeLine="91" d="M710.37,42.66 C666.11,48.35 596.8,62.75 549,99 C521.17,120.1 499.67,152.26 484.48,181.13 " fill="none" id="Company-Warehouse" style="stroke:#A80036;stroke-width:1.0;"/><polygon fill="#000000" points="549.7372,110.7889,558.9846,108.5674,555.9128,103.5561,549.7372,110.7889" style="stroke:#000000;stroke-width:1.0;"/><text fill="#000000" font-family="sans-serif" font-size="13" lengthAdjust="spacing" textLength="33" x="563" y="113.4951">Owns</text><text fill="#000000" font-family="sans-serif" font-size="13" lengthAdjust="spacing" textLength="7" x="695.4414" y="58.3754">1</text><text fill="#000000" font-family="sans-serif" font-size="13" lengthAdjust="spacing" textLength="5" x="482.2122" y="170.564">*</text><!--MD5=[09366576ee87d48d594df10cacc83f45]
link Company to Employee--><path codeLine="92" d="M716.78,69.09 C708.75,77.82 701.34,88 697,99 C680.76,140.2 687.91,193.08 694.21,222.88 " fill="none" id="Company-Employee" style="stroke:#A80036;stroke-width:1.0;"/><polygon fill="#000000" points="701.274,113.1228,705.4951,104.6003,699.6796,103.7468,701.274,113.1228" style="stroke:#000000;stroke-width:1.0;"/><text fill="#000000" font-family="sans-serif" font-size="13" lengthAdjust="spacing" textLength="51" x="711" y="113.4951">Employs</text><text fill="#000000" font-family="sans-serif" font-size="13" lengthAdjust="spacing" textLength="7" x="701.9601" y="90.3317">1</text><text fill="#000000" font-family="sans-serif" font-size="13" lengthAdjust="spacing" textLength="5" x="687.0857" y="212.1894">*</text><!--MD5=[31d56c2a59c24a3884ad113e84e7cd8c]
link Company to CargoManifest--><path codeLine="93" d="M795.58,38.7 C882.25,39.27 1084.47,46.67 1244,99 C1259.5,104.09 1260.7,111.33 1276,117 C1339.75,140.62 1361.88,124.4 1426,147 C1481.95,166.72 1541.94,200.3 1579.21,222.81 " fill="none" id="Company-CargoManifest" style="stroke:#A80036;stroke-width:1.0;"/><polygon fill="#000000" points="1285.8675,109.3194,1277.7343,104.3896,1276.39,110.1116,1285.8675,109.3194" style="stroke:#000000;stroke-width:1.0;"/><text fill="#000000" font-family="sans-serif" font-size="13" lengthAdjust="spacing" textLength="39" x="1290" y="113.4951">Knows</text><text fill="#000000" font-family="sans-serif" font-size="13" lengthAdjust="spacing" textLength="7" x="803.5" y="34.9847">1</text><text fill="#000000" font-family="sans-serif" font-size="13" lengthAdjust="spacing" textLength="5" x="1564.1419" y="212.1015">*</text><!--MD5=[9abf40ff36e4aa94ac761b2803c1dce8]
link Company to OrganizationRole--><path codeLine="94" d="M770.95,69.36 C780.04,84.1 791.56,101.85 803,117 C829.84,152.54 864.06,190.41 887.97,215.85 " fill="none" id="Company-OrganizationRole" style="stroke:#A80036;stroke-width:1.0;"/><polygon fill="#000000" points="811.1207,112.0824,807.7715,103.181,803.1791,106.8496,811.1207,112.0824" style="stroke:#000000;stroke-width:1.0;"/><text fill="#000000" font-family="sans-serif" font-size="13" lengthAdjust="spacing" textLength="80" x="817" y="113.4951">Comprehends</text><text fill="#000000" font-family="sans-serif" font-size="13" lengthAdjust="spacing" textLength="7" x="766.7045" y="90.4073">1</text><text fill="#000000" font-family="sans-serif" font-size="13" lengthAdjust="spacing" textLength="5" x="876.4669" y="205.3236">*</text><!--MD5=[241b49406f7a05442b1e788ffaf3787c]
link Employee to OrganizationRole--><path codeLine="95" d="M743.65,247 C775.09,247 818,247 853.26,247 " fill="none" id="Employee-OrganizationRole" style="stroke:#A80036;stroke-width:1.0;"/><polygon fill="#000000" points="771,235.1758,761.9549,232.2369,761.9549,238.1147,771,235.1758" style="stroke:#000000;stroke-width:1.0;"/><text fill="#000000" font-family="sans-serif" font-size="13" lengthAdjust="spacing" textLength="60" x="775" y="240.4951">Has/Plays</text><text fill="#000000" font-family="sans-serif" font-size="13" lengthAdjust="spacing" textLength="5" x="751.582" y="243.1503">*</text><text fill="#000000" font-family="sans-serif" font-size="13" lengthAdjust="spacing" textLength="7" x="838.4854" y="243.5999">1</text><!--MD5=[7e7b3caec922dd491be38990c8e0d0e6]
link Shipping to Client--><path codeLine="96" d="M583.26,271.19 C586.41,300.39 593.02,351.95 604,395 C606.54,404.95 610.19,415.65 613.61,424.81 " fill="none" id="Shipping-Client" style="stroke:#A80036;stroke-width:1.0;"/><polygon fill="#000000" points="609.9691,391.081,611.0992,381.6378,605.3328,382.777,609.9691,391.081" style="stroke:#000000;stroke-width:1.0;"/><text fill="#000000" font-family="sans-serif" font-size="13" lengthAdjust="spacing" textLength="80" x="618" y="391.4951">Requested by</text><text fill="#000000" font-family="sans-serif" font-size="13" lengthAdjust="spacing" textLength="7" x="575.9578" y="292.5743">1</text><text fill="#000000" font-family="sans-serif" font-size="13" lengthAdjust="spacing" textLength="7" x="603.3069" y="414.1015">1</text><!--MD5=[5f228b2dabc5a576c4be87e86dac487c]
link Port to PortMagager--><path codeLine="97" d="M145.83,295.4 C127.69,319.11 106.43,348.73 90,377 C81.1,392.31 72.93,410.55 67.07,424.7 " fill="none" id="Port-PortMagager" style="stroke:#A80036;stroke-width:1.0;"/><polygon fill="#000000" points="92.3989,390.446,99.6143,384.25,94.5944,381.1923,92.3989,390.446" style="stroke:#000000;stroke-width:1.0;"/><text fill="#000000" font-family="sans-serif" font-size="13" lengthAdjust="spacing" textLength="71" x="104" y="391.4951">Managed by</text><text fill="#000000" font-family="sans-serif" font-size="13" lengthAdjust="spacing" textLength="5" x="133.0773" y="300.6284">*</text><text fill="#000000" font-family="sans-serif" font-size="13" lengthAdjust="spacing" textLength="7" x="61.4973" y="413.9633">1</text><!--MD5=[523305c00a070bde6e5f3e4da262743d]
link Port to PortStaff--><path codeLine="98" d="M183.68,312.66 C183.48,351 183.25,397.31 183.12,424.61 " fill="none" id="Port-PortStaff" style="stroke:#A80036;stroke-width:1.0;"/><polygon fill="#000000" points="188.975,391.1757,191.9591,382.1454,186.0813,382.116,188.975,391.1757" style="stroke:#000000;stroke-width:1.0;"/><text fill="#000000" font-family="sans-serif" font-size="13" lengthAdjust="spacing" textLength="23" x="198" y="391.4951">Has</text><text fill="#000000" font-family="sans-serif" font-size="13" lengthAdjust="spacing" textLength="7" x="176.2622" y="334.2301">1</text><text fill="#000000" font-family="sans-serif" font-size="13" lengthAdjust="spacing" textLength="7" x="175.2961" y="414.2529">1</text><!--MD5=[bd1ab4364253f3a727910606f4236bc4]
link Warehouse to WarehouseManager--><path codeLine="99" d="M415.62,312.66 C391.08,351 361.44,397.31 343.97,424.61 " fill="none" id="Warehouse-WarehouseManager" style="stroke:#A80036;stroke-width:1.0;"/><polygon fill="#000000" points="377.3047,390.3871,384.6559,384.353,379.7052,381.1845,377.3047,390.3871" style="stroke:#000000;stroke-width:1.0;"/><text fill="#000000" font-family="sans-serif" font-size="13" lengthAdjust="spacing" textLength="71" x="389" y="391.4951">Managed by</text><text fill="#000000" font-family="sans-serif" font-size="13" lengthAdjust="spacing" textLength="5" x="405.8206" y="334.2301">*</text><text fill="#000000" font-family="sans-serif" font-size="13" lengthAdjust="spacing" textLength="7" x="339.7658" y="414.2529">1</text><!--MD5=[0190973f8c5de701e926b865ec575606]
link Warehouse to WarehouseStaff--><path codeLine="100" d="M469.61,312.66 C477.09,351 486.12,397.31 491.44,424.61 " fill="none" id="Warehouse-WarehouseStaff" style="stroke:#A80036;stroke-width:1.0;"/><polygon fill="#000000" points="490.957,391.0833,492.1104,381.643,486.3412,382.768,490.957,391.0833" style="stroke:#000000;stroke-width:1.0;"/><text fill="#000000" font-family="sans-serif" font-size="13" lengthAdjust="spacing" textLength="23" x="499" y="391.4951">Has</text><text fill="#000000" font-family="sans-serif" font-size="13" lengthAdjust="spacing" textLength="7" x="463.6064" y="334.2301">1</text><text fill="#000000" font-family="sans-serif" font-size="13" lengthAdjust="spacing" textLength="7" x="482.4754" y="414.2529">1</text><!--MD5=[a5b2d7054789f86100b09c2b7a7f0a67]
link Ship to ShipCaptain--><path codeLine="101" d="M1015.37,334.48 C1009.7,338.97 1003.89,343.19 998,347 C966.13,367.64 945.71,351.03 918,377 C904.39,389.76 896.15,409.39 891.45,424.78 " fill="none" id="Ship-ShipCaptain" style="stroke:#A80036;stroke-width:1.0;"/><polygon fill="#000000" points="918.9591,389.1204,928,386.1687,924.5384,381.4183,918.9591,389.1204" style="stroke:#000000;stroke-width:1.0;"/><text fill="#000000" font-family="sans-serif" font-size="13" lengthAdjust="spacing" textLength="72" x="932" y="391.4951">Overseen by</text><text fill="#000000" font-family="sans-serif" font-size="13" lengthAdjust="spacing" textLength="7" x="1000.6143" y="339.3094">1</text><text fill="#000000" font-family="sans-serif" font-size="13" lengthAdjust="spacing" textLength="7" x="884.9497" y="414.0638">1</text><!--MD5=[10027fccd445a06430c237523f63442e]
link Ship to ShipChiefElectricalEngineer--><path codeLine="102" d="M1151.01,347.12 C1167.15,376.2 1183.34,405.37 1194.13,424.81 " fill="none" id="Ship-ShipChiefElectricalEngineer" style="stroke:#A80036;stroke-width:1.0;"/><polygon fill="#000000" points="1184.4264,390.5475,1182.6066,381.2127,1177.4673,384.0652,1184.4264,390.5475" style="stroke:#000000;stroke-width:1.0;"/><text fill="#000000" font-family="sans-serif" font-size="13" lengthAdjust="spacing" textLength="158" x="1191" y="391.4951">Electrical part controlled by</text><text fill="#000000" font-family="sans-serif" font-size="13" lengthAdjust="spacing" textLength="7" x="1147.7928" y="368.5609">1</text><text fill="#000000" font-family="sans-serif" font-size="13" lengthAdjust="spacing" textLength="7" x="1182.9352" y="414.1015">1</text><!--MD5=[ba54223a31981c52d18c1dd571f5520c]
link Ship to Container--><path codeLine="103" d="M1015.39,335.22 C1009.73,339.49 1003.92,343.47 998,347 C896.24,407.76 817.14,332.54 743,425 C715.16,459.72 709.58,508.74 711.45,550.85 " fill="none" id="Ship-Container" style="stroke:#A80036;stroke-width:1.0;"/><polygon fill="#000000" points="743.922,452.0689,752.9997,449.2322,749.5986,444.4382,743.922,452.0689" style="stroke:#000000;stroke-width:1.0;"/><text fill="#000000" font-family="sans-serif" font-size="13" lengthAdjust="spacing" textLength="61" x="757" y="454.4951">Transports</text><text fill="#000000" font-family="sans-serif" font-size="13" lengthAdjust="spacing" textLength="7" x="1000.3733" y="357.8935">1</text><text fill="#000000" font-family="sans-serif" font-size="13" lengthAdjust="spacing" textLength="5" x="705.0707" y="540.2467">*</text><!--MD5=[8304bc5289f627c52f3048b7211fb80c]
link Ship to FleetManager--><path codeLine="104" d="M1027.25,347.25 C1022.73,357 1018.85,366.99 1016,377 C1011.54,392.65 1014,410.88 1017.47,424.94 " fill="none" id="Ship-FleetManager" style="stroke:#A80036;stroke-width:1.0;"/><polygon fill="#000000" points="1020.3755,391.1366,1024.4211,382.5294,1018.5893,381.7953,1020.3755,391.1366" style="stroke:#000000;stroke-width:1.0;"/><text fill="#000000" font-family="sans-serif" font-size="13" lengthAdjust="spacing" textLength="107" x="1030" y="391.4951">Fleet controlled by</text><text fill="#000000" font-family="sans-serif" font-size="13" lengthAdjust="spacing" textLength="7" x="1014.9441" y="368.7005">1</text><text fill="#000000" font-family="sans-serif" font-size="13" lengthAdjust="spacing" textLength="7" x="1007.6436" y="414.2648">1</text><!--MD5=[69c0c315057270c77c6273af23b4531b]
link Truck to TruckDriver--><path codeLine="105" d="M1394.62,271.33 C1423.71,309.87 1481.47,386.37 1510.5,424.81 " fill="none" id="Truck-TruckDriver" style="stroke:#A80036;stroke-width:1.0;"/><polygon fill="#000000" points="1495.0128,390.1662,1491.9081,381.1766,1487.2171,384.7184,1495.0128,390.1662" style="stroke:#000000;stroke-width:1.0;"/><text fill="#000000" font-family="sans-serif" font-size="13" lengthAdjust="spacing" textLength="72" x="1501" y="391.4951">Overseen by</text><text fill="#000000" font-family="sans-serif" font-size="13" lengthAdjust="spacing" textLength="7" x="1390.8852" y="292.3421">1</text><text fill="#000000" font-family="sans-serif" font-size="13" lengthAdjust="spacing" textLength="7" x="1498.1188" y="414.1015">1</text><!--MD5=[40e2b5717560220ad35e84810a8f1b44]
link TrafficManager to Ship--><path codeLine="106" d="M1190.21,50.86 C1162.87,59.56 1132.17,74.31 1114,99 C1103.79,112.87 1097.69,129.56 1094.25,146.62 " fill="none" id="TrafficManager-Ship" style="stroke:#A80036;stroke-width:1.0;"/><polygon fill="#000000" points="1115.4608,111.7076,1123.9393,107.3988,1119.7873,103.2382,1115.4608,111.7076" style="stroke:#000000;stroke-width:1.0;"/><text fill="#000000" font-family="sans-serif" font-size="13" lengthAdjust="spacing" textLength="111" x="1128" y="113.4951">Controls position of</text><text fill="#000000" font-family="sans-serif" font-size="13" lengthAdjust="spacing" textLength="7" x="1175.4853" y="49.0003">1</text><text fill="#000000" font-family="sans-serif" font-size="13" lengthAdjust="spacing" textLength="5" x="1088.9379" y="136.1617">*</text><!--MD5=[c7e069b1632a1ebf214cea93e002bf09]
link TrafficManager to Truck--><path codeLine="107" d="M1295.83,62.15 C1311.3,71.62 1327.17,83.95 1338,99 C1365.14,136.72 1373.39,192.06 1375.9,222.96 " fill="none" id="TrafficManager-Truck" style="stroke:#A80036;stroke-width:1.0;"/><polygon fill="#000000" points="1355.2286,112.6516,1353.8279,103.2448,1348.5662,105.8647,1355.2286,112.6516" style="stroke:#000000;stroke-width:1.0;"/><text fill="#000000" font-family="sans-serif" font-size="13" lengthAdjust="spacing" textLength="111" x="1362" y="113.4951">Controls position of</text><text fill="#000000" font-family="sans-serif" font-size="13" lengthAdjust="spacing" textLength="7" x="1299.8792" y="83.5245">1</text><text fill="#000000" font-family="sans-serif" font-size="13" lengthAdjust="spacing" textLength="5" x="1369.9775" y="212.2899">*</text><!--MD5=[062871d5623378d71d4c490cb56733bb]
link Truck to Container--><path codeLine="108" d="M1378.8,271.25 C1380.99,317.79 1378.46,422.23 1318,473 C1151.36,612.92 874.34,633.68 768.2,636.33 " fill="none" id="Truck-Container" style="stroke:#A80036;stroke-width:1.0;"/><polygon fill="#000000" points="1353.7086,451.7416,1362.98,449.6224,1359.9637,444.5775,1353.7086,451.7416" style="stroke:#000000;stroke-width:1.0;"/><text fill="#000000" font-family="sans-serif" font-size="13" lengthAdjust="spacing" textLength="61" x="1367" y="454.4951">Transports</text><text fill="#000000" font-family="sans-serif" font-size="13" lengthAdjust="spacing" textLength="7" x="1371.3856" y="292.6489">1</text><text fill="#000000" font-family="sans-serif" font-size="13" lengthAdjust="spacing" textLength="7" x="775.9347" y="632.3749">1</text><!--MD5=[b33f97809f7ca85522325d24a4e89d2a]
link WarehouseStaff to Container--><path codeLine="109" d="M524.54,473.24 C563.99,505.37 635.51,563.62 681.6,601.15 " fill="none" id="WarehouseStaff-Container" style="stroke:#A80036;stroke-width:1.0;"/><polygon fill="#000000" points="584.877,515.3332,579.7193,507.3426,576.0076,511.9002,584.877,515.3332" style="stroke:#000000;stroke-width:1.0;"/><text fill="#000000" font-family="sans-serif" font-size="13" lengthAdjust="spacing" textLength="86" x="590" y="517.4951">Loads/Unloads</text><text fill="#000000" font-family="sans-serif" font-size="13" lengthAdjust="spacing" textLength="7" x="523.6435" y="494.6365">1</text><text fill="#000000" font-family="sans-serif" font-size="13" lengthAdjust="spacing" textLength="7" x="667.1253" y="591.6428">1</text><!--MD5=[02836180ced979df3b5f6a85200010f3]
link PortStaff to Container--><path codeLine="110" d="M222.04,466.41 C227.7,468.68 233.49,470.94 239,473 C400.81,533.37 596.47,596.14 681.76,623 " fill="none" id="PortStaff-Container" style="stroke:#A80036;stroke-width:1.0;"/><polygon fill="#000000" points="381.733,513.7879,374.1185,508.0896,372.2234,513.6535,381.733,513.7879" style="stroke:#000000;stroke-width:1.0;"/><text fill="#000000" font-family="sans-serif" font-size="13" lengthAdjust="spacing" textLength="86" x="386" y="517.4951">Loads/Unloads</text><text fill="#000000" font-family="sans-serif" font-size="13" lengthAdjust="spacing" textLength="7" x="229.8833" y="465.6725">1</text><text fill="#000000" font-family="sans-serif" font-size="13" lengthAdjust="spacing" textLength="5" x="668.8984" y="616.6991">*</text><!--MD5=[2137d8aefd4a4250810b98ce4671ea30]
link UnloadingCargoManifest to CargoManifest--><path codeLine="111" d="M1591.16,62.34 C1595.76,96.37 1604.39,160.16 1610.17,202.87 " fill="none" id="UnloadingCargoManifest-to-CargoManifest" style="stroke:#A80036;stroke-width:1.0;"/><polygon fill="none" points="1617.11,201.98,1612.85,222.74,1603.24,203.86,1617.11,201.98" style="stroke:#A80036;stroke-width:1.0;"/><!--MD5=[7c36a3e6645c314e52b14fd1d0e4255b]
link LoadingCargoManifest to CargoManifest--><path codeLine="112" d="M1766.83,62.34 C1737.93,97.53 1682.87,164.58 1647.87,207.19 " fill="none" id="LoadingCargoManifest-to-CargoManifest" style="stroke:#A80036;stroke-width:1.0;"/><polygon fill="none" points="1653.2,211.73,1635.1,222.74,1642.38,202.84,1653.2,211.73" style="stroke:#A80036;stroke-width:1.0;"/><!--MD5=[a93f71c337684849482b0ec5675aa7db]
link CargoManifest to Container--><path codeLine="113" d="M1621.68,271.33 C1631.18,316.62 1644.55,416.91 1593,473 C1479.64,596.35 927.46,628.25 768.12,634.94 " fill="none" id="CargoManifest-Container" style="stroke:#A80036;stroke-width:1.0;"/><polygon fill="#000000" points="1619.4,451.1354,1628.8733,450.2943,1626.5697,444.8866,1619.4,451.1354" style="stroke:#000000;stroke-width:1.0;"/><text fill="#000000" font-family="sans-serif" font-size="13" lengthAdjust="spacing" textLength="84" x="1633" y="454.4951">Keeps track of</text><text fill="#000000" font-family="sans-serif" font-size="13" lengthAdjust="spacing" textLength="7" x="1615.1841" y="292.3421">1</text><text fill="#000000" font-family="sans-serif" font-size="13" lengthAdjust="spacing" textLength="5" x="775.9609" y="649.4413">*</text><!--MD5=[f8aa008dd774713c71a12fc4f0a5fe50]
@startuml
'https://plantuml.com/class-diagram

skinparam classAttributeIconSize 0

class Company {
-Designation
}

class Container {
-Identification
-Payload
-Tare
-Gross
-Width
-Height
-Length
-Refrigerated
-Temperature
}

class Ship {
-MMSI
-Name
-IMO
-Number of Energy Generators
-Generators' Power Output
-Call sign
-Vessel type
-Length
-Width
-Capacity
-Draft
}

class Truck

class Client

class Port {
-Identification
-Name
-Continent
-Country
-Latitude
-longitude
}

class Warehouse {
-Identification
-Name
-Continent
-Country
-Latitude
-longitude
}

class Employee

class OrganizationRole {
-Description
}

class PortMagager

class WarehouseManager

class ShipCaptain

class TruckDriver

class FleetManager

class ShipChiefElectricalEngineer

class TrafficManager

class WarehouseStaff

class PortStaff

class CargoManifest

class UnloadingCargoManifest

class LoadingCargoManifest

Company "1" - - "*" Shipping : Performs >
Company "1" - - "1..*" Ship : Owns >
Company "1" - - "1..*" Truck : Owns >
Company "1" - - "*" Port : Owns >
Company "1" - - "*" Warehouse : Owns >
Company "1" - - "*" Employee : Employs >
Company "1" - - "*" CargoManifest : Knows >
Company "1" - "*" OrganizationRole : Comprehends >
Employee "*" - "1" OrganizationRole : Has/Plays >
Shipping "1" - - "1" Client : Requested by >
Port "*" - - "1" PortMagager : Managed by >
Port "1" - - "1" PortStaff : Has >
Warehouse "*" - - "1" WarehouseManager : Managed by >
Warehouse "1" - - "1" WarehouseStaff : Has >
Ship "1" - - "1" ShipCaptain : Overseen by >
Ship "1" - - "1" ShipChiefElectricalEngineer : Electrical part controlled by >
Ship "1" - - "*" Container : Transports >
Ship "1" - - "1" FleetManager : Fleet controlled by >
Truck "1" - - "1" TruckDriver : Overseen by >
TrafficManager "1" - - "*" Ship : Controls position of >
TrafficManager "1" - - "*" Truck : Controls position of >
Truck "1" - - "1" Container : Transports >
WarehouseStaff "1" - - "1" Container : Loads/Unloads >
PortStaff "1" - - "*" Container : Loads/Unloads >
UnloadingCargoManifest - -|> CargoManifest
LoadingCargoManifest - -|> CargoManifest
CargoManifest "1" - - "*" Container : Keeps track of >

@enduml

@startuml

skinparam classAttributeIconSize 0

class Company {
-Designation
}

class Container {
-Identification
-Payload
-Tare
-Gross
-Width
-Height
-Length
-Refrigerated
-Temperature
}

class Ship {
-MMSI
-Name
-IMO
-Number of Energy Generators
-Generators' Power Output
-Call sign
-Vessel type
-Length
-Width
-Capacity
-Draft
}

class Truck

class Client

class Port {
-Identification
-Name
-Continent
-Country
-Latitude
-longitude
}

class Warehouse {
-Identification
-Name
-Continent
-Country
-Latitude
-longitude
}

class Employee

class OrganizationRole {
-Description
}

class PortMagager

class WarehouseManager

class ShipCaptain

class TruckDriver

class FleetManager

class ShipChiefElectricalEngineer

class TrafficManager

class WarehouseStaff

class PortStaff

class CargoManifest

class UnloadingCargoManifest

class LoadingCargoManifest

Company "1" - - "*" Shipping : Performs >
Company "1" - - "1..*" Ship : Owns >
Company "1" - - "1..*" Truck : Owns >
Company "1" - - "*" Port : Owns >
Company "1" - - "*" Warehouse : Owns >
Company "1" - - "*" Employee : Employs >
Company "1" - - "*" CargoManifest : Knows >
Company "1" - "*" OrganizationRole : Comprehends >
Employee "*" - "1" OrganizationRole : Has/Plays >
Shipping "1" - - "1" Client : Requested by >
Port "*" - - "1" PortMagager : Managed by >
Port "1" - - "1" PortStaff : Has >
Warehouse "*" - - "1" WarehouseManager : Managed by >
Warehouse "1" - - "1" WarehouseStaff : Has >
Ship "1" - - "1" ShipCaptain : Overseen by >
Ship "1" - - "1" ShipChiefElectricalEngineer : Electrical part controlled by >
Ship "1" - - "*" Container : Transports >
Ship "1" - - "1" FleetManager : Fleet controlled by >
Truck "1" - - "1" TruckDriver : Overseen by >
TrafficManager "1" - - "*" Ship : Controls position of >
TrafficManager "1" - - "*" Truck : Controls position of >
Truck "1" - - "1" Container : Transports >
WarehouseStaff "1" - - "1" Container : Loads/Unloads >
PortStaff "1" - - "*" Container : Loads/Unloads >
UnloadingCargoManifest - -|> CargoManifest
LoadingCargoManifest - -|> CargoManifest
CargoManifest "1" - - "*" Container : Keeps track of >

@enduml

PlantUML version 1.2021.00(Sun Jan 10 10:25:05 GMT 2021)
(GPL source distribution)
Java Runtime: OpenJDK Runtime Environment
JVM: OpenJDK 64-Bit Server VM
Default Encoding: Cp1252
Language: en
Country: GB
--></g></svg>