<?xml version="1.0" encoding="UTF-8" standalone="no"?><svg xmlns="http://www.w3.org/2000/svg" xmlns:xlink="http://www.w3.org/1999/xlink" contentScriptType="application/ecmascript" contentStyleType="text/css" height="152px" preserveAspectRatio="none" style="width:116px;height:152px;" version="1.1" viewBox="0 0 116 152" width="116px" zoomAndPan="magnify"><defs><filter height="300%" id="foyizakuzfehs" width="300%" x="-1" y="-1"><feGaussianBlur result="blurOut" stdDeviation="2.0"/><feColorMatrix in="blurOut" result="blurOut2" type="matrix" values="0 0 0 0 0 0 0 0 0 0 0 0 0 0 0 0 0 0 .4 0"/><feOffset dx="4.0" dy="4.0" in="blurOut2" result="blurOut3"/><feBlend in="SourceGraphic" in2="blurOut3" mode="normal"/></filter></defs><g><!--MD5=[a0bfe97ac0a38e6e74cc1c7c7b744b71]
class Port--><rect codeLine="3" fill="#FEFECE" filter="url(#foyizakuzfehs)" height="131.0156" id="Port" style="stroke:#A80036;stroke-width:1.5;" width="95" x="7" y="7"/><ellipse cx="40.45" cy="23" fill="#ADD1B2" rx="11" ry="11" style="stroke:#A80036;stroke-width:1.0;"/><path d="M38.95,24 L38.95,26 L42.95,26 L42.95,25 L42.95,24.5156 L43.575,24 L43.95,24 L44.325,24 L44.95,24.5156 L44.95,25 L44.95,28 L36.95,28 L36.4656,28 L35.95,27.375 L35.95,27 L35.95,26.625 L36.4656,26 L36.95,26 L36.95,26 L36.95,20 L36.95,20 L36.4656,20 L35.95,19.375 L35.95,19 L35.95,18.625 L36.4656,18 L36.95,18 L44.95,18 L44.95,21 L44.95,21.4844 L44.325,22 L43.95,22 L43.575,22 L42.95,21.4844 L42.95,21 L42.95,20 L38.95,20 L38.95,22 L39.95,22 L39.95,21.5156 L39.95,21.5156 L40.575,21 L40.95,21 L41.325,21 L41.95,21.5156 L41.95,22 L41.95,24 L41.95,24.4844 L41.325,25 L41.325,25 L40.95,25 L40.575,25 L39.95,24.4844 L39.95,24.4844 L39.95,24 L38.95,24 Z " fill="#000000"/><text fill="#000000" font-family="sans-serif" font-size="12" lengthAdjust="spacing" textLength="22" x="58.55" y="27.9102">Port</text><line style="stroke:#A80036;stroke-width:1.5;" x1="8" x2="101" y1="39" y2="39"/><ellipse cx="18" cy="50" fill="#000000" rx="3" ry="3" style="stroke:#000000;stroke-width:1.0;"/><text fill="#000000" font-family="sans-serif" font-size="11" lengthAdjust="spacing" textLength="33" x="27" y="54.4189">id_port</text><line style="stroke:#A80036;stroke-width:1.0;" x1="8" x2="101" y1="60.8359" y2="60.8359"/><ellipse cx="18" cy="71.8359" fill="#000000" rx="3" ry="3" style="stroke:#000000;stroke-width:1.0;"/><text fill="#000000" font-family="sans-serif" font-size="11" lengthAdjust="spacing" textLength="51" x="27" y="76.2549">name_port</text><ellipse cx="18" cy="85.6719" fill="#000000" rx="3" ry="3" style="stroke:#000000;stroke-width:1.0;"/><text fill="#000000" font-family="sans-serif" font-size="11" lengthAdjust="spacing" textLength="69" x="27" y="90.0908">continent_port</text><ellipse cx="18" cy="99.5078" fill="#000000" rx="3" ry="3" style="stroke:#000000;stroke-width:1.0;"/><text fill="#000000" font-family="sans-serif" font-size="11" lengthAdjust="spacing" textLength="62" x="27" y="103.9268">country_port</text><ellipse cx="18" cy="113.3438" fill="#000000" rx="3" ry="3" style="stroke:#000000;stroke-width:1.0;"/><text fill="#000000" font-family="sans-serif" font-size="11" lengthAdjust="spacing" textLength="59" x="27" y="117.7627">latitude_port</text><ellipse cx="18" cy="127.1797" fill="#000000" rx="3" ry="3" style="stroke:#000000;stroke-width:1.0;"/><text fill="#000000" font-family="sans-serif" font-size="11" lengthAdjust="spacing" textLength="68" x="27" y="131.5986">longitude_port</text><!--MD5=[9c0082421a767195a46d73f44178d099]
@startuml
'https://plantuml.com/class-diagram

entity Port {
* id_port
- -
* name_port
* continent_port
* country_port
* latitude_port
* longitude_port
}

@enduml

@startuml

entity Port {
* id_port
- -
* name_port
* continent_port
* country_port
* latitude_port
* longitude_port
}

@enduml

PlantUML version 1.2021.00(Sun Jan 10 10:25:05 GMT 2021)
(GPL source distribution)
Java Runtime: OpenJDK Runtime Environment
JVM: OpenJDK 64-Bit Server VM
Default Encoding: Cp1252
Language: en
Country: GB
--></g></svg>