<?xml version="1.0" encoding="UTF-8" standalone="no"?><svg xmlns="http://www.w3.org/2000/svg" xmlns:xlink="http://www.w3.org/1999/xlink" contentScriptType="application/ecmascript" contentStyleType="text/css" height="340px" preserveAspectRatio="none" style="width:236px;height:340px;" version="1.1" viewBox="0 0 236 340" width="236px" zoomAndPan="magnify"><defs><filter height="300%" id="fn3k92egm05lz" width="300%" x="-1" y="-1"><feGaussianBlur result="blurOut" stdDeviation="2.0"/><feColorMatrix in="blurOut" result="blurOut2" type="matrix" values="0 0 0 0 0 0 0 0 0 0 0 0 0 0 0 0 0 0 .4 0"/><feOffset dx="4.0" dy="4.0" in="blurOut2" result="blurOut3"/><feBlend in="SourceGraphic" in2="blurOut3" mode="normal"/></filter></defs><g><!--MD5=[1a67bdc3901319a7f9438df097cc2784]
class MostEfficientCircuitUI--><rect codeLine="3" fill="#FEFECE" filter="url(#fn3k92egm05lz)" height="61.8359" id="MostEfficientCircuitUI" style="stroke:#A80036;stroke-width:1.5;" width="148" x="40.5" y="265"/><ellipse cx="55.5" cy="281" fill="#ADD1B2" rx="11" ry="11" style="stroke:#A80036;stroke-width:1.0;"/><path d="M57.5,277.5 Q57.7031,277 57.9375,276.75 Q58.1719,276.5 58.4375,276.5 Q58.9063,276.5 59.2031,276.7813 Q59.5,277.0625 59.5,277.7188 L59.5,279.2813 Q59.5,279.9375 59.2188,280.2188 Q58.9375,280.5 58.5,280.5 Q58.1094,280.5 57.8594,280.3281 Q57.6094,280.1563 57.5,279.7031 Q57.4531,279.3906 57.2813,279.2188 Q56.9688,278.8906 56.4063,278.7031 Q55.8438,278.5 55.2813,278.5 Q54.5781,278.5 53.9844,278.7813 Q53.4063,279.0625 52.9531,279.6875 Q52.5,280.3125 52.5,281.1719 L52.5,282.0938 Q52.5,283.125 53.3438,283.8125 Q54.1875,284.5 55.6875,284.5 Q56.5781,284.5 57.2031,284.2969 Q57.5625,284.1875 57.9688,283.8281 Q58.2344,283.625 58.375,283.5625 Q58.5156,283.5 58.6875,283.5 Q59.0156,283.5 59.25,283.7656 Q59.5,284.0156 59.5,284.375 Q59.5,284.7188 59.1563,285.125 Q58.6563,285.7188 57.8594,286.0469 Q56.8125,286.5 55.5313,286.5 Q54.0313,286.5 52.8281,285.9063 Q51.8594,285.4375 51.1719,284.4219 Q50.5,283.4063 50.5,282.2031 L50.5,281.1094 Q50.5,279.8594 51.0938,278.7656 Q51.7031,277.6719 52.75,277.0938 Q53.8125,276.5 55,276.5 Q55.7188,276.5 56.3438,276.75 Q56.9688,277 57.5,277.5 Z " fill="#000000"/><text fill="#000000" font-family="sans-serif" font-size="12" lengthAdjust="spacing" textLength="116" x="69.5" y="285.9102">MostEfficientCircuitUI</text><line style="stroke:#A80036;stroke-width:1.5;" x1="41.5" x2="187.5" y1="297" y2="297"/><rect fill="none" height="6" style="stroke:#C82930;stroke-width:1.0;" width="6" x="48.5" y="305"/><text fill="#000000" font-family="sans-serif" font-size="11" lengthAdjust="spacing" textLength="45" x="60.5" y="312.4189">controller</text><line style="stroke:#A80036;stroke-width:1.5;" x1="41.5" x2="187.5" y1="318.8359" y2="318.8359"/><!--MD5=[82b452ac5d89fed3c3bddab4a88118e6]
class MostEfficientCircuitController--><rect codeLine="7" fill="#FEFECE" filter="url(#fn3k92egm05lz)" height="75.6719" id="MostEfficientCircuitController" style="stroke:#A80036;stroke-width:1.5;" width="215" x="7" y="129"/><ellipse cx="33.25" cy="145" fill="#ADD1B2" rx="11" ry="11" style="stroke:#A80036;stroke-width:1.0;"/><path d="M35.25,141.5 Q35.4531,141 35.6875,140.75 Q35.9219,140.5 36.1875,140.5 Q36.6563,140.5 36.9531,140.7813 Q37.25,141.0625 37.25,141.7188 L37.25,143.2813 Q37.25,143.9375 36.9688,144.2188 Q36.6875,144.5 36.25,144.5 Q35.8594,144.5 35.6094,144.3281 Q35.3594,144.1563 35.25,143.7031 Q35.2031,143.3906 35.0313,143.2188 Q34.7188,142.8906 34.1563,142.7031 Q33.5938,142.5 33.0313,142.5 Q32.3281,142.5 31.7344,142.7813 Q31.1563,143.0625 30.7031,143.6875 Q30.25,144.3125 30.25,145.1719 L30.25,146.0938 Q30.25,147.125 31.0938,147.8125 Q31.9375,148.5 33.4375,148.5 Q34.3281,148.5 34.9531,148.2969 Q35.3125,148.1875 35.7188,147.8281 Q35.9844,147.625 36.125,147.5625 Q36.2656,147.5 36.4375,147.5 Q36.7656,147.5 37,147.7656 Q37.25,148.0156 37.25,148.375 Q37.25,148.7188 36.9063,149.125 Q36.4063,149.7188 35.6094,150.0469 Q34.5625,150.5 33.2813,150.5 Q31.7813,150.5 30.5781,149.9063 Q29.6094,149.4375 28.9219,148.4219 Q28.25,147.4063 28.25,146.2031 L28.25,145.1094 Q28.25,143.8594 28.8438,142.7656 Q29.4531,141.6719 30.5,141.0938 Q31.5625,140.5 32.75,140.5 Q33.4688,140.5 34.0938,140.75 Q34.7188,141 35.25,141.5 Z " fill="#000000"/><text fill="#000000" font-family="sans-serif" font-size="12" lengthAdjust="spacing" textLength="158" x="49.75" y="149.9102">MostEfficientCircuitController</text><line style="stroke:#A80036;stroke-width:1.5;" x1="8" x2="221" y1="161" y2="161"/><rect fill="none" height="6" style="stroke:#C82930;stroke-width:1.0;" width="6" x="15" y="169"/><text fill="#000000" font-family="sans-serif" font-size="11" lengthAdjust="spacing" textLength="72" x="27" y="176.4189">freightNetwork</text><line style="stroke:#A80036;stroke-width:1.5;" x1="8" x2="221" y1="182.8359" y2="182.8359"/><ellipse cx="18" cy="193.8359" fill="#84BE84" rx="3" ry="3" style="stroke:#038048;stroke-width:1.0;"/><text fill="#000000" font-family="sans-serif" font-size="11" lengthAdjust="spacing" textLength="189" x="27" y="198.2549">getMostEfficientCircuit(source location)</text><!--MD5=[074ba6ad47b234bd73d65012320c1634]
class FreightNetwork--><rect codeLine="12" fill="#FEFECE" filter="url(#fn3k92egm05lz)" height="61.8359" id="FreightNetwork" style="stroke:#A80036;stroke-width:1.5;" width="215" x="7" y="7"/><ellipse cx="68.75" cy="23" fill="#ADD1B2" rx="11" ry="11" style="stroke:#A80036;stroke-width:1.0;"/><path d="M70.75,19.5 Q70.9531,19 71.1875,18.75 Q71.4219,18.5 71.6875,18.5 Q72.1563,18.5 72.4531,18.7813 Q72.75,19.0625 72.75,19.7188 L72.75,21.2813 Q72.75,21.9375 72.4688,22.2188 Q72.1875,22.5 71.75,22.5 Q71.3594,22.5 71.1094,22.3281 Q70.8594,22.1563 70.75,21.7031 Q70.7031,21.3906 70.5313,21.2188 Q70.2188,20.8906 69.6563,20.7031 Q69.0938,20.5 68.5313,20.5 Q67.8281,20.5 67.2344,20.7813 Q66.6563,21.0625 66.2031,21.6875 Q65.75,22.3125 65.75,23.1719 L65.75,24.0938 Q65.75,25.125 66.5938,25.8125 Q67.4375,26.5 68.9375,26.5 Q69.8281,26.5 70.4531,26.2969 Q70.8125,26.1875 71.2188,25.8281 Q71.4844,25.625 71.625,25.5625 Q71.7656,25.5 71.9375,25.5 Q72.2656,25.5 72.5,25.7656 Q72.75,26.0156 72.75,26.375 Q72.75,26.7188 72.4063,27.125 Q71.9063,27.7188 71.1094,28.0469 Q70.0625,28.5 68.7813,28.5 Q67.2813,28.5 66.0781,27.9063 Q65.1094,27.4375 64.4219,26.4219 Q63.75,25.4063 63.75,24.2031 L63.75,23.1094 Q63.75,21.8594 64.3438,20.7656 Q64.9531,19.6719 66,19.0938 Q67.0625,18.5 68.25,18.5 Q68.9688,18.5 69.5938,18.75 Q70.2188,19 70.75,19.5 Z " fill="#000000"/><text fill="#000000" font-family="sans-serif" font-size="12" lengthAdjust="spacing" textLength="83" x="89.25" y="27.9102">FreightNetwork</text><line style="stroke:#A80036;stroke-width:1.5;" x1="8" x2="221" y1="39" y2="39"/><line style="stroke:#A80036;stroke-width:1.5;" x1="8" x2="221" y1="47" y2="47"/><ellipse cx="18" cy="58" fill="#84BE84" rx="3" ry="3" style="stroke:#038048;stroke-width:1.0;"/><text fill="#000000" font-family="sans-serif" font-size="11" lengthAdjust="spacing" textLength="189" x="27" y="62.4189">getMostEfficientCircuit(source location)</text><!--MD5=[3de45eeb8e26b4a6ba6bfc35bd2eb6c5]
reverse link MostEfficientCircuitController to MostEfficientCircuitUI--><path codeLine="16" d="M114.5,210.52 C114.5,228.36 114.5,248.68 114.5,264.93 " fill="none" id="MostEfficientCircuitController-backto-MostEfficientCircuitUI" style="stroke:#A80036;stroke-width:1.0;stroke-dasharray:7.0,7.0;"/><polygon fill="#A80036" points="114.5,205.08,110.5,214.08,114.5,210.08,118.5,214.08,114.5,205.08" style="stroke:#A80036;stroke-width:1.0;"/><!--MD5=[03e927dfad1200badcbb2ee5ff8c42d6]
reverse link FreightNetwork to MostEfficientCircuitController--><path codeLine="17" d="M114.5,74.25 C114.5,91.24 114.5,111.62 114.5,128.86 " fill="none" id="FreightNetwork-backto-MostEfficientCircuitController" style="stroke:#A80036;stroke-width:1.0;stroke-dasharray:7.0,7.0;"/><polygon fill="#A80036" points="114.5,69.1,110.5,78.1,114.5,74.1,118.5,78.1,114.5,69.1" style="stroke:#A80036;stroke-width:1.0;"/><!--MD5=[1eb616451c7ba723297568a3072982ee]
@startuml
'https://plantuml.com/class-diagram

class MostEfficientCircuitUI {
- controller
}

class MostEfficientCircuitController {
- freightNetwork
+ getMostEfficientCircuit(source location)
}

class FreightNetwork {
+ getMostEfficientCircuit(source location)
}

MostEfficientCircuitController <.. MostEfficientCircuitUI
FreightNetwork <.. MostEfficientCircuitController

@enduml

@startuml

class MostEfficientCircuitUI {
- controller
}

class MostEfficientCircuitController {
- freightNetwork
+ getMostEfficientCircuit(source location)
}

class FreightNetwork {
+ getMostEfficientCircuit(source location)
}

MostEfficientCircuitController <.. MostEfficientCircuitUI
FreightNetwork <.. MostEfficientCircuitController

@enduml

PlantUML version 1.2021.00(Sun Jan 10 10:25:05 GMT 2021)
(GPL source distribution)
Java Runtime: OpenJDK Runtime Environment
JVM: OpenJDK 64-Bit Server VM
Default Encoding: Cp1252
Language: en
Country: GB
--></g></svg>