<?xml version="1.0" encoding="UTF-8" standalone="no"?><svg xmlns="http://www.w3.org/2000/svg" xmlns:xlink="http://www.w3.org/1999/xlink" contentScriptType="application/ecmascript" contentStyleType="text/css" height="1193px" preserveAspectRatio="none" style="width:599px;height:1193px;" version="1.1" viewBox="0 0 599 1193" width="599px" zoomAndPan="magnify"><defs><filter height="300%" id="f7cjm1ikj1za5" width="300%" x="-1" y="-1"><feGaussianBlur result="blurOut" stdDeviation="2.0"/><feColorMatrix in="blurOut" result="blurOut2" type="matrix" values="0 0 0 0 0 0 0 0 0 0 0 0 0 0 0 0 0 0 .4 0"/><feOffset dx="4.0" dy="4.0" in="blurOut2" result="blurOut3"/><feBlend in="SourceGraphic" in2="blurOut3" mode="normal"/></filter></defs><g><!--MD5=[18f5b4ccae6e62f3670d3aa352beb4cd]
class Trip--><rect codeLine="3" fill="#FEFECE" filter="url(#f7cjm1ikj1za5)" height="172.5234" id="Trip" style="stroke:#A80036;stroke-width:1.5;" width="154" x="431.5" y="527"/><ellipse cx="493.75" cy="543" fill="#ADD1B2" rx="11" ry="11" style="stroke:#A80036;stroke-width:1.0;"/><path d="M492.25,544 L492.25,546 L496.25,546 L496.25,545 L496.25,544.5156 L496.875,544 L497.25,544 L497.625,544 L498.25,544.5156 L498.25,545 L498.25,548 L490.25,548 L489.7656,548 L489.25,547.375 L489.25,547 L489.25,546.625 L489.7656,546 L490.25,546 L490.25,546 L490.25,540 L490.25,540 L489.7656,540 L489.25,539.375 L489.25,539 L489.25,538.625 L489.7656,538 L490.25,538 L498.25,538 L498.25,541 L498.25,541.4844 L497.625,542 L497.25,542 L496.875,542 L496.25,541.4844 L496.25,541 L496.25,540 L492.25,540 L492.25,542 L493.25,542 L493.25,541.5156 L493.25,541.5156 L493.875,541 L494.25,541 L494.625,541 L495.25,541.5156 L495.25,542 L495.25,544 L495.25,544.4844 L494.625,545 L494.625,545 L494.25,545 L493.875,545 L493.25,544.4844 L493.25,544.4844 L493.25,544 L492.25,544 Z " fill="#000000"/><text fill="#000000" font-family="sans-serif" font-size="12" lengthAdjust="spacing" textLength="21" x="514.25" y="547.9102">Trip</text><line style="stroke:#A80036;stroke-width:1.5;" x1="432.5" x2="584.5" y1="559" y2="559"/><ellipse cx="442.5" cy="570" fill="#000000" rx="3" ry="3" style="stroke:#000000;stroke-width:1.0;"/><text fill="#000000" font-family="sans-serif" font-size="11" lengthAdjust="spacing" textLength="29" x="451.5" y="574.4189">id_trip</text><line style="stroke:#A80036;stroke-width:1.0;" x1="432.5" x2="584.5" y1="580.8359" y2="580.8359"/><ellipse cx="442.5" cy="591.8359" fill="#000000" rx="3" ry="3" style="stroke:#000000;stroke-width:1.0;"/><text fill="#000000" font-family="sans-serif" font-size="11" lengthAdjust="spacing" textLength="42" x="451.5" y="596.2549">ship_imo</text><ellipse cx="442.5" cy="605.6719" fill="#000000" rx="3" ry="3" style="stroke:#000000;stroke-width:1.0;"/><text fill="#000000" font-family="sans-serif" font-size="11" lengthAdjust="spacing" textLength="38" x="451.5" y="610.0908">id_truck</text><ellipse cx="442.5" cy="619.5078" fill="#000000" rx="3" ry="3" style="stroke:#000000;stroke-width:1.0;"/><text fill="#000000" font-family="sans-serif" font-size="11" lengthAdjust="spacing" textLength="61" x="451.5" y="623.9268">id_start_port</text><ellipse cx="442.5" cy="633.3438" fill="#000000" rx="3" ry="3" style="stroke:#000000;stroke-width:1.0;"/><text fill="#000000" font-family="sans-serif" font-size="11" lengthAdjust="spacing" textLength="91" x="451.5" y="637.7627">id_destination_port</text><ellipse cx="442.5" cy="647.1797" fill="#000000" rx="3" ry="3" style="stroke:#000000;stroke-width:1.0;"/><text fill="#000000" font-family="sans-serif" font-size="11" lengthAdjust="spacing" textLength="98" x="451.5" y="651.5986">id_start_warehouse</text><ellipse cx="442.5" cy="661.0156" fill="#000000" rx="3" ry="3" style="stroke:#000000;stroke-width:1.0;"/><text fill="#000000" font-family="sans-serif" font-size="11" lengthAdjust="spacing" textLength="128" x="451.5" y="665.4346">id_destination_warehouse</text><ellipse cx="442.5" cy="674.8516" fill="#000000" rx="3" ry="3" style="stroke:#000000;stroke-width:1.0;"/><text fill="#000000" font-family="sans-serif" font-size="11" lengthAdjust="spacing" textLength="74" x="451.5" y="679.2705">date_time_start</text><ellipse cx="442.5" cy="688.6875" fill="#000000" rx="3" ry="3" style="stroke:#000000;stroke-width:1.0;"/><text fill="#000000" font-family="sans-serif" font-size="11" lengthAdjust="spacing" textLength="70" x="451.5" y="693.1064">date_time_end</text><!--MD5=[e9a58730c562b34349daa605d1ed6662]
class Container--><rect codeLine="16" fill="#FEFECE" filter="url(#f7cjm1ikj1za5)" height="214.0313" id="Container" style="stroke:#A80036;stroke-width:1.5;" width="158" x="231.5" y="965"/><ellipse cx="279.25" cy="981" fill="#ADD1B2" rx="11" ry="11" style="stroke:#A80036;stroke-width:1.0;"/><path d="M277.75,982 L277.75,984 L281.75,984 L281.75,983 L281.75,982.5156 L282.375,982 L282.75,982 L283.125,982 L283.75,982.5156 L283.75,983 L283.75,986 L275.75,986 L275.2656,986 L274.75,985.375 L274.75,985 L274.75,984.625 L275.2656,984 L275.75,984 L275.75,984 L275.75,978 L275.75,978 L275.2656,978 L274.75,977.375 L274.75,977 L274.75,976.625 L275.2656,976 L275.75,976 L283.75,976 L283.75,979 L283.75,979.4844 L283.125,980 L282.75,980 L282.375,980 L281.75,979.4844 L281.75,979 L281.75,978 L277.75,978 L277.75,980 L278.75,980 L278.75,979.5156 L278.75,979.5156 L279.375,979 L279.75,979 L280.125,979 L280.75,979.5156 L280.75,980 L280.75,982 L280.75,982.4844 L280.125,983 L280.125,983 L279.75,983 L279.375,983 L278.75,982.4844 L278.75,982.4844 L278.75,982 L277.75,982 Z " fill="#000000"/><text fill="#000000" font-family="sans-serif" font-size="12" lengthAdjust="spacing" textLength="54" x="299.75" y="985.9102">Container</text><line style="stroke:#A80036;stroke-width:1.5;" x1="232.5" x2="388.5" y1="997" y2="997"/><ellipse cx="242.5" cy="1008" fill="#000000" rx="3" ry="3" style="stroke:#000000;stroke-width:1.0;"/><text fill="#000000" font-family="sans-serif" font-size="11" lengthAdjust="spacing" textLength="59" x="251.5" y="1012.4189">id_container</text><line style="stroke:#A80036;stroke-width:1.0;" x1="232.5" x2="388.5" y1="1018.8359" y2="1018.8359"/><ellipse cx="242.5" cy="1029.8359" fill="#000000" rx="3" ry="3" style="stroke:#000000;stroke-width:1.0;"/><text fill="#000000" font-family="sans-serif" font-size="11" lengthAdjust="spacing" textLength="44" x="251.5" y="1034.2549">iso_code</text><text fill="#000000" font-family="sans-serif" font-size="11" lengthAdjust="spacing" textLength="0" x="254.5" y="1048.0908"/><ellipse cx="242.5" cy="1057.5078" fill="#000000" rx="3" ry="3" style="stroke:#000000;stroke-width:1.0;"/><text fill="#000000" font-family="sans-serif" font-size="11" lengthAdjust="spacing" textLength="19" x="251.5" y="1061.9268">tare</text><ellipse cx="242.5" cy="1071.3438" fill="#000000" rx="3" ry="3" style="stroke:#000000;stroke-width:1.0;"/><text fill="#000000" font-family="sans-serif" font-size="11" lengthAdjust="spacing" textLength="132" x="251.5" y="1075.7627">max_weight_incl_container</text><ellipse cx="242.5" cy="1085.1797" fill="#000000" rx="3" ry="3" style="stroke:#000000;stroke-width:1.0;"/><text fill="#000000" font-family="sans-serif" font-size="11" lengthAdjust="spacing" textLength="59" x="251.5" y="1089.5986">max_weight</text><ellipse cx="242.5" cy="1099.0156" fill="#000000" rx="3" ry="3" style="stroke:#000000;stroke-width:1.0;"/><text fill="#000000" font-family="sans-serif" font-size="11" lengthAdjust="spacing" textLength="60" x="251.5" y="1103.4346">max_volume</text><text fill="#000000" font-family="sans-serif" font-size="11" lengthAdjust="spacing" textLength="0" x="254.5" y="1117.2705"/><ellipse cx="242.5" cy="1126.6875" fill="#000000" rx="3" ry="3" style="stroke:#000000;stroke-width:1.0;"/><text fill="#000000" font-family="sans-serif" font-size="11" lengthAdjust="spacing" textLength="46" x="251.5" y="1131.1064">id_owner</text><ellipse cx="242.5" cy="1140.5234" fill="#000000" rx="3" ry="3" style="stroke:#000000;stroke-width:1.0;"/><text fill="#000000" font-family="sans-serif" font-size="11" lengthAdjust="spacing" textLength="63" x="251.5" y="1144.9424">id_equipment</text><ellipse cx="242.5" cy="1154.3594" fill="#000000" rx="3" ry="3" style="stroke:#000000;stroke-width:1.0;"/><text fill="#000000" font-family="sans-serif" font-size="11" lengthAdjust="spacing" textLength="68" x="251.5" y="1158.7783">serial_number</text><ellipse cx="242.5" cy="1168.1953" fill="#000000" rx="3" ry="3" style="stroke:#000000;stroke-width:1.0;"/><text fill="#000000" font-family="sans-serif" font-size="11" lengthAdjust="spacing" textLength="54" x="251.5" y="1172.6143">check_digit</text><!--MD5=[0baaf300b4e708ac3e376d44e9cdca27]
class Cargo_Manifest--><rect codeLine="31" fill="#FEFECE" filter="url(#f7cjm1ikj1za5)" height="144.8516" id="Cargo_Manifest" style="stroke:#A80036;stroke-width:1.5;" width="149" x="236" y="760"/><ellipse cx="264.5" cy="776" fill="#ADD1B2" rx="11" ry="11" style="stroke:#A80036;stroke-width:1.0;"/><path d="M263,777 L263,779 L267,779 L267,778 L267,777.5156 L267.625,777 L268,777 L268.375,777 L269,777.5156 L269,778 L269,781 L261,781 L260.5156,781 L260,780.375 L260,780 L260,779.625 L260.5156,779 L261,779 L261,779 L261,773 L261,773 L260.5156,773 L260,772.375 L260,772 L260,771.625 L260.5156,771 L261,771 L269,771 L269,774 L269,774.4844 L268.375,775 L268,775 L267.625,775 L267,774.4844 L267,774 L267,773 L263,773 L263,775 L264,775 L264,774.5156 L264,774.5156 L264.625,774 L265,774 L265.375,774 L266,774.5156 L266,775 L266,777 L266,777.4844 L265.375,778 L265.375,778 L265,778 L264.625,778 L264,777.4844 L264,777.4844 L264,777 L263,777 Z " fill="#000000"/><text fill="#000000" font-family="sans-serif" font-size="12" lengthAdjust="spacing" textLength="87" x="281.5" y="780.9102">Cargo_Manifest</text><line style="stroke:#A80036;stroke-width:1.5;" x1="237" x2="384" y1="792" y2="792"/><ellipse cx="247" cy="803" fill="#000000" rx="3" ry="3" style="stroke:#000000;stroke-width:1.0;"/><text fill="#000000" font-family="sans-serif" font-size="11" lengthAdjust="spacing" textLength="89" x="256" y="807.4189">id_cargo_manifest</text><ellipse cx="247" cy="816.8359" fill="#000000" rx="3" ry="3" style="stroke:#000000;stroke-width:1.0;"/><text fill="#000000" font-family="sans-serif" font-size="11" lengthAdjust="spacing" textLength="59" x="256" y="821.2549">id_container</text><line style="stroke:#A80036;stroke-width:1.0;" x1="237" x2="384" y1="827.6719" y2="827.6719"/><ellipse cx="247" cy="838.6719" fill="#000000" rx="3" ry="3" style="stroke:#000000;stroke-width:1.0;"/><text fill="#000000" font-family="sans-serif" font-size="11" lengthAdjust="spacing" textLength="29" x="256" y="843.0908">id_trip</text><ellipse cx="247" cy="852.5078" fill="#000000" rx="3" ry="3" style="stroke:#000000;stroke-width:1.0;"/><text fill="#000000" font-family="sans-serif" font-size="11" lengthAdjust="spacing" textLength="67" x="256" y="856.9268">position_code</text><ellipse cx="247" cy="866.3438" fill="#000000" rx="3" ry="3" style="stroke:#000000;stroke-width:1.0;"/><text fill="#000000" font-family="sans-serif" font-size="11" lengthAdjust="spacing" textLength="67" x="256" y="870.7627">cargo_weight</text><ellipse cx="247" cy="880.1797" fill="#000000" rx="3" ry="3" style="stroke:#000000;stroke-width:1.0;"/><text fill="#000000" font-family="sans-serif" font-size="11" lengthAdjust="spacing" textLength="123" x="256" y="884.5986">refrigeration_temperature</text><ellipse cx="247" cy="894.0156" fill="#000000" rx="3" ry="3" style="stroke:#000000;stroke-width:1.0;"/><text fill="#000000" font-family="sans-serif" font-size="11" lengthAdjust="spacing" textLength="39" x="256" y="898.4346">id_client</text><!--MD5=[c87cdd7066bf5f5827105ec40546944b]
class Unloading_Cargo_Manifest--><rect codeLine="42" fill="#FEFECE" filter="url(#f7cjm1ikj1za5)" height="89.5078" id="Unloading_Cargo_Manifest" style="stroke:#A80036;stroke-width:1.5;" width="183" x="7" y="568.5"/><ellipse cx="22" cy="584.5" fill="#ADD1B2" rx="11" ry="11" style="stroke:#A80036;stroke-width:1.0;"/><path d="M20.5,585.5 L20.5,587.5 L24.5,587.5 L24.5,586.5 L24.5,586.0156 L25.125,585.5 L25.5,585.5 L25.875,585.5 L26.5,586.0156 L26.5,586.5 L26.5,589.5 L18.5,589.5 L18.0156,589.5 L17.5,588.875 L17.5,588.5 L17.5,588.125 L18.0156,587.5 L18.5,587.5 L18.5,587.5 L18.5,581.5 L18.5,581.5 L18.0156,581.5 L17.5,580.875 L17.5,580.5 L17.5,580.125 L18.0156,579.5 L18.5,579.5 L26.5,579.5 L26.5,582.5 L26.5,582.9844 L25.875,583.5 L25.5,583.5 L25.125,583.5 L24.5,582.9844 L24.5,582.5 L24.5,581.5 L20.5,581.5 L20.5,583.5 L21.5,583.5 L21.5,583.0156 L21.5,583.0156 L22.125,582.5 L22.5,582.5 L22.875,582.5 L23.5,583.0156 L23.5,583.5 L23.5,585.5 L23.5,585.9844 L22.875,586.5 L22.875,586.5 L22.5,586.5 L22.125,586.5 L21.5,585.9844 L21.5,585.9844 L21.5,585.5 L20.5,585.5 Z " fill="#000000"/><text fill="#000000" font-family="sans-serif" font-size="12" lengthAdjust="spacing" textLength="151" x="36" y="589.4102">Unloading_Cargo_Manifest</text><line style="stroke:#A80036;stroke-width:1.5;" x1="8" x2="189" y1="600.5" y2="600.5"/><ellipse cx="18" cy="611.5" fill="#000000" rx="3" ry="3" style="stroke:#000000;stroke-width:1.0;"/><text fill="#000000" font-family="sans-serif" font-size="11" lengthAdjust="spacing" textLength="89" x="27" y="615.9189">id_cargo_manifest</text><ellipse cx="18" cy="625.3359" fill="#000000" rx="3" ry="3" style="stroke:#000000;stroke-width:1.0;"/><text fill="#000000" font-family="sans-serif" font-size="11" lengthAdjust="spacing" textLength="59" x="27" y="629.7549">id_container</text><line style="stroke:#A80036;stroke-width:1.0;" x1="8" x2="189" y1="636.1719" y2="636.1719"/><ellipse cx="18" cy="647.1719" fill="#000000" rx="3" ry="3" style="stroke:#000000;stroke-width:1.0;"/><text fill="#000000" font-family="sans-serif" font-size="11" lengthAdjust="spacing" textLength="70" x="27" y="651.5908">id_warehouse</text><!--MD5=[1a4baa1459d0a3ed497c73ee42d7e12c]
class Loading_Cargo_Manifest--><rect codeLine="49" fill="#FEFECE" filter="url(#f7cjm1ikj1za5)" height="89.5078" id="Loading_Cargo_Manifest" style="stroke:#A80036;stroke-width:1.5;" width="171" x="225" y="568.5"/><ellipse cx="240" cy="584.5" fill="#ADD1B2" rx="11" ry="11" style="stroke:#A80036;stroke-width:1.0;"/><path d="M238.5,585.5 L238.5,587.5 L242.5,587.5 L242.5,586.5 L242.5,586.0156 L243.125,585.5 L243.5,585.5 L243.875,585.5 L244.5,586.0156 L244.5,586.5 L244.5,589.5 L236.5,589.5 L236.0156,589.5 L235.5,588.875 L235.5,588.5 L235.5,588.125 L236.0156,587.5 L236.5,587.5 L236.5,587.5 L236.5,581.5 L236.5,581.5 L236.0156,581.5 L235.5,580.875 L235.5,580.5 L235.5,580.125 L236.0156,579.5 L236.5,579.5 L244.5,579.5 L244.5,582.5 L244.5,582.9844 L243.875,583.5 L243.5,583.5 L243.125,583.5 L242.5,582.9844 L242.5,582.5 L242.5,581.5 L238.5,581.5 L238.5,583.5 L239.5,583.5 L239.5,583.0156 L239.5,583.0156 L240.125,582.5 L240.5,582.5 L240.875,582.5 L241.5,583.0156 L241.5,583.5 L241.5,585.5 L241.5,585.9844 L240.875,586.5 L240.875,586.5 L240.5,586.5 L240.125,586.5 L239.5,585.9844 L239.5,585.9844 L239.5,585.5 L238.5,585.5 Z " fill="#000000"/><text fill="#000000" font-family="sans-serif" font-size="12" lengthAdjust="spacing" textLength="139" x="254" y="589.4102">Loading_Cargo_Manifest</text><line style="stroke:#A80036;stroke-width:1.5;" x1="226" x2="395" y1="600.5" y2="600.5"/><ellipse cx="236" cy="611.5" fill="#000000" rx="3" ry="3" style="stroke:#000000;stroke-width:1.0;"/><text fill="#000000" font-family="sans-serif" font-size="11" lengthAdjust="spacing" textLength="89" x="245" y="615.9189">id_cargo_manifest</text><ellipse cx="236" cy="625.3359" fill="#000000" rx="3" ry="3" style="stroke:#000000;stroke-width:1.0;"/><text fill="#000000" font-family="sans-serif" font-size="11" lengthAdjust="spacing" textLength="59" x="245" y="629.7549">id_container</text><line style="stroke:#A80036;stroke-width:1.0;" x1="226" x2="395" y1="636.1719" y2="636.1719"/><ellipse cx="236" cy="647.1719" fill="#000000" rx="3" ry="3" style="stroke:#000000;stroke-width:1.0;"/><text fill="#000000" font-family="sans-serif" font-size="11" lengthAdjust="spacing" textLength="70" x="245" y="651.5908">id_warehouse</text><!--MD5=[f2ba7f6ab60af8dd0d3e354f91729b14]
class Truck--><rect codeLine="56" fill="#FEFECE" filter="url(#f7cjm1ikj1za5)" height="75.6719" id="Truck" style="stroke:#A80036;stroke-width:1.5;" width="86" x="465.5" y="794.5"/><ellipse cx="491.3" cy="810.5" fill="#ADD1B2" rx="11" ry="11" style="stroke:#A80036;stroke-width:1.0;"/><path d="M489.8,811.5 L489.8,813.5 L493.8,813.5 L493.8,812.5 L493.8,812.0156 L494.425,811.5 L494.8,811.5 L495.175,811.5 L495.8,812.0156 L495.8,812.5 L495.8,815.5 L487.8,815.5 L487.3156,815.5 L486.8,814.875 L486.8,814.5 L486.8,814.125 L487.3156,813.5 L487.8,813.5 L487.8,813.5 L487.8,807.5 L487.8,807.5 L487.3156,807.5 L486.8,806.875 L486.8,806.5 L486.8,806.125 L487.3156,805.5 L487.8,805.5 L495.8,805.5 L495.8,808.5 L495.8,808.9844 L495.175,809.5 L494.8,809.5 L494.425,809.5 L493.8,808.9844 L493.8,808.5 L493.8,807.5 L489.8,807.5 L489.8,809.5 L490.8,809.5 L490.8,809.0156 L490.8,809.0156 L491.425,808.5 L491.8,808.5 L492.175,808.5 L492.8,809.0156 L492.8,809.5 L492.8,811.5 L492.8,811.9844 L492.175,812.5 L492.175,812.5 L491.8,812.5 L491.425,812.5 L490.8,811.9844 L490.8,811.9844 L490.8,811.5 L489.8,811.5 Z " fill="#000000"/><text fill="#000000" font-family="sans-serif" font-size="12" lengthAdjust="spacing" textLength="30" x="507.7" y="815.4102">Truck</text><line style="stroke:#A80036;stroke-width:1.5;" x1="466.5" x2="550.5" y1="826.5" y2="826.5"/><ellipse cx="476.5" cy="837.5" fill="#000000" rx="3" ry="3" style="stroke:#000000;stroke-width:1.0;"/><text fill="#000000" font-family="sans-serif" font-size="11" lengthAdjust="spacing" textLength="38" x="485.5" y="841.9189">id_truck</text><line style="stroke:#A80036;stroke-width:1.0;" x1="466.5" x2="550.5" y1="848.3359" y2="848.3359"/><ellipse cx="476.5" cy="859.3359" fill="#000000" rx="3" ry="3" style="stroke:#000000;stroke-width:1.0;"/><text fill="#000000" font-family="sans-serif" font-size="11" lengthAdjust="spacing" textLength="60" x="485.5" y="863.7549">id_employee</text><!--MD5=[0dc7f2ddb409b58bcf52b12238c25399]
class Ship--><rect codeLine="62" fill="#FEFECE" filter="url(#f7cjm1ikj1za5)" height="214.0313" id="Ship" style="stroke:#A80036;stroke-width:1.5;" width="132" x="442.5" y="253"/><ellipse cx="491.75" cy="269" fill="#ADD1B2" rx="11" ry="11" style="stroke:#A80036;stroke-width:1.0;"/><path d="M490.25,270 L490.25,272 L494.25,272 L494.25,271 L494.25,270.5156 L494.875,270 L495.25,270 L495.625,270 L496.25,270.5156 L496.25,271 L496.25,274 L488.25,274 L487.7656,274 L487.25,273.375 L487.25,273 L487.25,272.625 L487.7656,272 L488.25,272 L488.25,272 L488.25,266 L488.25,266 L487.7656,266 L487.25,265.375 L487.25,265 L487.25,264.625 L487.7656,264 L488.25,264 L496.25,264 L496.25,267 L496.25,267.4844 L495.625,268 L495.25,268 L494.875,268 L494.25,267.4844 L494.25,267 L494.25,266 L490.25,266 L490.25,268 L491.25,268 L491.25,267.5156 L491.25,267.5156 L491.875,267 L492.25,267 L492.625,267 L493.25,267.5156 L493.25,268 L493.25,270 L493.25,270.4844 L492.625,271 L492.625,271 L492.25,271 L491.875,271 L491.25,270.4844 L491.25,270.4844 L491.25,270 L490.25,270 Z " fill="#000000"/><text fill="#000000" font-family="sans-serif" font-size="12" lengthAdjust="spacing" textLength="25" x="512.25" y="273.9102">Ship</text><line style="stroke:#A80036;stroke-width:1.5;" x1="443.5" x2="573.5" y1="285" y2="285"/><ellipse cx="453.5" cy="296" fill="#000000" rx="3" ry="3" style="stroke:#000000;stroke-width:1.0;"/><text fill="#000000" font-family="sans-serif" font-size="11" lengthAdjust="spacing" textLength="46" x="462.5" y="300.4189">imo_code</text><line style="stroke:#A80036;stroke-width:1.0;" x1="443.5" x2="573.5" y1="306.8359" y2="306.8359"/><ellipse cx="453.5" cy="317.8359" fill="#000000" rx="3" ry="3" style="stroke:#000000;stroke-width:1.0;"/><text fill="#000000" font-family="sans-serif" font-size="11" lengthAdjust="spacing" textLength="54" x="462.5" y="322.2549">mmsi_code</text><ellipse cx="453.5" cy="331.6719" fill="#000000" rx="3" ry="3" style="stroke:#000000;stroke-width:1.0;"/><text fill="#000000" font-family="sans-serif" font-size="11" lengthAdjust="spacing" textLength="52" x="462.5" y="336.0908">name_ship</text><ellipse cx="453.5" cy="345.5078" fill="#000000" rx="3" ry="3" style="stroke:#000000;stroke-width:1.0;"/><text fill="#000000" font-family="sans-serif" font-size="11" lengthAdjust="spacing" textLength="95" x="462.5" y="349.9268">number_generators</text><ellipse cx="453.5" cy="359.3438" fill="#000000" rx="3" ry="3" style="stroke:#000000;stroke-width:1.0;"/><text fill="#000000" font-family="sans-serif" font-size="11" lengthAdjust="spacing" textLength="106" x="462.5" y="363.7627">power_out_generator</text><ellipse cx="453.5" cy="373.1797" fill="#000000" rx="3" ry="3" style="stroke:#000000;stroke-width:1.0;"/><text fill="#000000" font-family="sans-serif" font-size="11" lengthAdjust="spacing" textLength="42" x="462.5" y="377.5986">call_sign</text><ellipse cx="453.5" cy="387.0156" fill="#000000" rx="3" ry="3" style="stroke:#000000;stroke-width:1.0;"/><text fill="#000000" font-family="sans-serif" font-size="11" lengthAdjust="spacing" textLength="59" x="462.5" y="391.4346">vessel_type</text><ellipse cx="453.5" cy="400.8516" fill="#000000" rx="3" ry="3" style="stroke:#000000;stroke-width:1.0;"/><text fill="#000000" font-family="sans-serif" font-size="11" lengthAdjust="spacing" textLength="59" x="462.5" y="405.2705">Length_ship</text><ellipse cx="453.5" cy="414.6875" fill="#000000" rx="3" ry="3" style="stroke:#000000;stroke-width:1.0;"/><text fill="#000000" font-family="sans-serif" font-size="11" lengthAdjust="spacing" textLength="53" x="462.5" y="419.1064">width_ship</text><ellipse cx="453.5" cy="428.5234" fill="#000000" rx="3" ry="3" style="stroke:#000000;stroke-width:1.0;"/><text fill="#000000" font-family="sans-serif" font-size="11" lengthAdjust="spacing" textLength="67" x="462.5" y="432.9424">capacity_ship</text><ellipse cx="453.5" cy="442.3594" fill="#000000" rx="3" ry="3" style="stroke:#000000;stroke-width:1.0;"/><text fill="#000000" font-family="sans-serif" font-size="11" lengthAdjust="spacing" textLength="23" x="462.5" y="446.7783">draft</text><ellipse cx="453.5" cy="456.1953" fill="#000000" rx="3" ry="3" style="stroke:#000000;stroke-width:1.0;"/><text fill="#000000" font-family="sans-serif" font-size="11" lengthAdjust="spacing" textLength="101" x="462.5" y="460.6143">id_employee_captain</text><!--MD5=[c0857de9599e12358ac6f6966702e57b]
class Position_Ship--><rect codeLine="78" fill="#FEFECE" filter="url(#f7cjm1ikj1za5)" height="186.3594" id="Position_Ship" style="stroke:#A80036;stroke-width:1.5;" width="113" x="452" y="7"/><ellipse cx="468.8" cy="23" fill="#ADD1B2" rx="11" ry="11" style="stroke:#A80036;stroke-width:1.0;"/><path d="M467.3,24 L467.3,26 L471.3,26 L471.3,25 L471.3,24.5156 L471.925,24 L472.3,24 L472.675,24 L473.3,24.5156 L473.3,25 L473.3,28 L465.3,28 L464.8156,28 L464.3,27.375 L464.3,27 L464.3,26.625 L464.8156,26 L465.3,26 L465.3,26 L465.3,20 L465.3,20 L464.8156,20 L464.3,19.375 L464.3,19 L464.3,18.625 L464.8156,18 L465.3,18 L473.3,18 L473.3,21 L473.3,21.4844 L472.675,22 L472.3,22 L471.925,22 L471.3,21.4844 L471.3,21 L471.3,20 L467.3,20 L467.3,22 L468.3,22 L468.3,21.5156 L468.3,21.5156 L468.925,21 L469.3,21 L469.675,21 L470.3,21.5156 L470.3,22 L470.3,24 L470.3,24.4844 L469.675,25 L469.675,25 L469.3,25 L468.925,25 L468.3,24.4844 L468.3,24.4844 L468.3,24 L467.3,24 Z " fill="#000000"/><text fill="#000000" font-family="sans-serif" font-size="12" lengthAdjust="spacing" textLength="77" x="483.2" y="27.9102">Position_Ship</text><line style="stroke:#A80036;stroke-width:1.5;" x1="453" x2="564" y1="39" y2="39"/><ellipse cx="463" cy="50" fill="#000000" rx="3" ry="3" style="stroke:#000000;stroke-width:1.0;"/><text fill="#000000" font-family="sans-serif" font-size="11" lengthAdjust="spacing" textLength="46" x="472" y="54.4189">imo_code</text><ellipse cx="463" cy="63.8359" fill="#000000" rx="3" ry="3" style="stroke:#000000;stroke-width:1.0;"/><text fill="#000000" font-family="sans-serif" font-size="11" lengthAdjust="spacing" textLength="76" x="472" y="68.2549">base_date_time</text><line style="stroke:#A80036;stroke-width:1.0;" x1="453" x2="564" y1="74.6719" y2="74.6719"/><ellipse cx="463" cy="85.6719" fill="#000000" rx="3" ry="3" style="stroke:#000000;stroke-width:1.0;"/><text fill="#000000" font-family="sans-serif" font-size="11" lengthAdjust="spacing" textLength="34" x="472" y="90.0908">latitude</text><ellipse cx="463" cy="99.5078" fill="#000000" rx="3" ry="3" style="stroke:#000000;stroke-width:1.0;"/><text fill="#000000" font-family="sans-serif" font-size="11" lengthAdjust="spacing" textLength="43" x="472" y="103.9268">longitude</text><ellipse cx="463" cy="113.3438" fill="#000000" rx="3" ry="3" style="stroke:#000000;stroke-width:1.0;"/><text fill="#000000" font-family="sans-serif" font-size="11" lengthAdjust="spacing" textLength="18" x="472" y="117.7627">sog</text><ellipse cx="463" cy="127.1797" fill="#000000" rx="3" ry="3" style="stroke:#000000;stroke-width:1.0;"/><text fill="#000000" font-family="sans-serif" font-size="11" lengthAdjust="spacing" textLength="18" x="472" y="131.5986">cog</text><ellipse cx="463" cy="141.0156" fill="#000000" rx="3" ry="3" style="stroke:#000000;stroke-width:1.0;"/><text fill="#000000" font-family="sans-serif" font-size="11" lengthAdjust="spacing" textLength="38" x="472" y="145.4346">heading</text><ellipse cx="463" cy="154.8516" fill="#000000" rx="3" ry="3" style="stroke:#000000;stroke-width:1.0;"/><text fill="#000000" font-family="sans-serif" font-size="11" lengthAdjust="spacing" textLength="37" x="472" y="159.2705">position</text><ellipse cx="463" cy="168.6875" fill="#000000" rx="3" ry="3" style="stroke:#000000;stroke-width:1.0;"/><text fill="#000000" font-family="sans-serif" font-size="11" lengthAdjust="spacing" textLength="87" x="472" y="173.1064">transceiver_class</text><ellipse cx="463" cy="182.5234" fill="#000000" rx="3" ry="3" style="stroke:#000000;stroke-width:1.0;"/><text fill="#000000" font-family="sans-serif" font-size="11" lengthAdjust="spacing" textLength="28" x="472" y="186.9424">cargo</text><!--MD5=[8ed59fe7f91556deede29c24c368e010]
link Trip to Cargo_Manifest--><path codeLine="93" d="M426.63,704.23 C411.43,720.89 395.67,738.16 380.85,754.4 " fill="none" id="Trip-Cargo_Manifest" style="stroke:#A80036;stroke-width:1.0;"/><line style="stroke:#A80036;stroke-width:1.0;" x1="381.5108" x2="375.5987" y1="759.6087" y2="754.2192"/><line style="stroke:#A80036;stroke-width:1.0;" x1="383.5319" x2="377.6198" y1="757.3916" y2="752.0021"/><line style="stroke:#A80036;stroke-width:1.0;" x1="381.2495" x2="375.86" y1="753.9579" y2="759.87"/><line style="stroke:#A80036;stroke-width:1.0;" x1="425.7292" x2="431.6413" y1="699.2813" y2="704.6708"/><line style="stroke:#A80036;stroke-width:1.0;" x1="423.7081" x2="429.6202" y1="701.4984" y2="706.8879"/><line style="stroke:#A80036;stroke-width:1.0;" x1="425.9905" x2="431.38" y1="704.9321" y2="699.02"/><!--MD5=[56127ccb70193a52dc3f681a8e3969fb]
link Cargo_Manifest to Container--><path codeLine="94" d="M310.5,913.14 C310.5,927.16 310.5,941.99 310.5,956.74 " fill="none" id="Cargo_Manifest-Container" style="stroke:#A80036;stroke-width:1.0;"/><line style="stroke:#A80036;stroke-width:1.0;" x1="314.5" x2="306.5" y1="960.91" y2="960.91"/><line style="stroke:#A80036;stroke-width:1.0;" x1="314.5" x2="306.5" y1="957.91" y2="957.91"/><line style="stroke:#A80036;stroke-width:1.0;" x1="310.5" x2="310.5" y1="956.91" y2="964.91"/><line style="stroke:#A80036;stroke-width:1.0;" x1="310.5" x2="304.5" y1="913.08" y2="905.08"/><line style="stroke:#A80036;stroke-width:1.0;" x1="310.5" x2="316.5" y1="913.08" y2="905.08"/><line style="stroke:#A80036;stroke-width:1.0;" x1="310.5" x2="310.5" y1="913.08" y2="905.08"/><ellipse cx="310.5" cy="919.08" fill="none" rx="4" ry="4" style="stroke:#A80036;stroke-width:1.0;"/><!--MD5=[28463ad0bcd6e218000ef3ad681630fc]
link Position_Ship to Ship--><path codeLine="95" d="M508.5,201.3 C508.5,215.58 508.5,230.35 508.5,244.88 " fill="none" id="Position_Ship-Ship" style="stroke:#A80036;stroke-width:1.0;"/><line style="stroke:#A80036;stroke-width:1.0;" x1="512.5" x2="504.5" y1="248.91" y2="248.91"/><line style="stroke:#A80036;stroke-width:1.0;" x1="512.5" x2="504.5" y1="245.91" y2="245.91"/><line style="stroke:#A80036;stroke-width:1.0;" x1="508.5" x2="508.5" y1="244.91" y2="252.91"/><line style="stroke:#A80036;stroke-width:1.0;" x1="508.5" x2="502.5" y1="201.05" y2="193.05"/><line style="stroke:#A80036;stroke-width:1.0;" x1="508.5" x2="514.5" y1="201.05" y2="193.05"/><line style="stroke:#A80036;stroke-width:1.0;" x1="508.5" x2="508.5" y1="201.05" y2="193.05"/><ellipse cx="508.5" cy="207.05" fill="none" rx="4" ry="4" style="stroke:#A80036;stroke-width:1.0;"/><!--MD5=[b25c151816d5f45857bf4ee236100bf7]
link Trip to Truck--><path codeLine="96" d="M508.5,708.36 C508.5,735.41 508.5,763.7 508.5,786.33 " fill="none" id="Trip-Truck" style="stroke:#A80036;stroke-width:1.0;"/><line style="stroke:#A80036;stroke-width:1.0;" x1="512.5" x2="504.5" y1="790.4" y2="790.4"/><line style="stroke:#A80036;stroke-width:1.0;" x1="512.5" x2="504.5" y1="787.4" y2="787.4"/><line style="stroke:#A80036;stroke-width:1.0;" x1="508.5" x2="508.5" y1="786.4" y2="794.4"/><line style="stroke:#A80036;stroke-width:1.0;" x1="508.5" x2="502.5" y1="708.26" y2="700.26"/><line style="stroke:#A80036;stroke-width:1.0;" x1="508.5" x2="514.5" y1="708.26" y2="700.26"/><line style="stroke:#A80036;stroke-width:1.0;" x1="508.5" x2="508.5" y1="708.26" y2="700.26"/><ellipse cx="508.5" cy="714.26" fill="none" rx="4" ry="4" style="stroke:#A80036;stroke-width:1.0;"/><!--MD5=[7c2ed8f842290e081d69a6d4a2daa6d0]
link Ship to Trip--><path codeLine="97" d="M508.5,475.7 C508.5,490.06 508.5,504.61 508.5,518.6 " fill="none" id="Ship-Trip" style="stroke:#A80036;stroke-width:1.0;"/><line style="stroke:#A80036;stroke-width:1.0;" x1="508.5" x2="514.5" y1="518.76" y2="526.76"/><line style="stroke:#A80036;stroke-width:1.0;" x1="508.5" x2="502.5" y1="518.76" y2="526.76"/><line style="stroke:#A80036;stroke-width:1.0;" x1="508.5" x2="508.5" y1="518.76" y2="526.76"/><ellipse cx="508.5" cy="512.76" fill="none" rx="4" ry="4" style="stroke:#A80036;stroke-width:1.0;"/><line style="stroke:#A80036;stroke-width:1.0;" x1="504.5" x2="512.5" y1="471.29" y2="471.29"/><line style="stroke:#A80036;stroke-width:1.0;" x1="504.5" x2="512.5" y1="474.29" y2="474.29"/><line style="stroke:#A80036;stroke-width:1.0;" x1="508.5" x2="508.5" y1="475.29" y2="467.29"/><!--MD5=[7308f0a1f9b83f8e20d3211bad28e447]
link Unloading_Cargo_Manifest to Cargo_Manifest--><path codeLine="98" d="M146.73,663.87 C172.87,690.63 205.77,724.3 235.21,754.43 " fill="none" id="Unloading_Cargo_Manifest-Cargo_Manifest" style="stroke:#A80036;stroke-width:1.0;"/><line style="stroke:#A80036;stroke-width:1.0;" x1="240.3452" x2="234.6235" y1="753.9635" y2="759.5548"/><line style="stroke:#A80036;stroke-width:1.0;" x1="238.2485" x2="232.5268" y1="751.8179" y2="757.4092"/><line style="stroke:#A80036;stroke-width:1.0;" x1="234.6887" x2="240.28" y1="753.8983" y2="759.62"/><line style="stroke:#A80036;stroke-width:1.0;" x1="141.5946" x2="147.3165" y1="664.3265" y2="658.7354"/><line style="stroke:#A80036;stroke-width:1.0;" x1="143.6913" x2="149.4131" y1="666.4722" y2="660.8811"/><line style="stroke:#A80036;stroke-width:1.0;" x1="147.2511" x2="141.66" y1="664.3919" y2="658.67"/><!--MD5=[d95af3791b019011a2feaf6ac4852158]
link Loading_Cargo_Manifest to Cargo_Manifest--><path codeLine="99" d="M310.5,666 C310.5,691.78 310.5,723.57 310.5,752.37 " fill="none" id="Loading_Cargo_Manifest-Cargo_Manifest" style="stroke:#A80036;stroke-width:1.0;"/><line style="stroke:#A80036;stroke-width:1.0;" x1="314.5" x2="306.5" y1="755.62" y2="755.62"/><line style="stroke:#A80036;stroke-width:1.0;" x1="314.5" x2="306.5" y1="752.62" y2="752.62"/><line style="stroke:#A80036;stroke-width:1.0;" x1="310.5" x2="310.5" y1="751.62" y2="759.62"/><line style="stroke:#A80036;stroke-width:1.0;" x1="306.5" x2="314.5" y1="662.67" y2="662.67"/><line style="stroke:#A80036;stroke-width:1.0;" x1="306.5" x2="314.5" y1="665.67" y2="665.67"/><line style="stroke:#A80036;stroke-width:1.0;" x1="310.5" x2="310.5" y1="666.67" y2="658.67"/><!--MD5=[bceda623706a2285b28f0aee6e69e51a]
@startuml
'https://plantuml.com/class-diagram

entity Trip {
* id_trip
- -
* ship_imo
* id_truck
* id_start_port
* id_destination_port
* id_start_warehouse
* id_destination_warehouse
* date_time_start
* date_time_end
}

entity Container {
* id_container
- -
* iso_code

* tare
* max_weight_incl_container
* max_weight
* max_volume

* id_owner
* id_equipment
* serial_number
* check_digit
}
entity Cargo_Manifest {
* id_cargo_manifest
* id_container
- -
* id_trip
* position_code
* cargo_weight
* refrigeration_temperature
* id_client
}

entity Unloading_Cargo_Manifest {
* id_cargo_manifest
* id_container
- -
* id_warehouse
}

entity Loading_Cargo_Manifest {
* id_cargo_manifest
* id_container
- -
* id_warehouse
}

entity Truck {
* id_truck
- -
* id_employee
}

entity Ship {
* imo_code
- -
* mmsi_code
* name_ship
* number_generators
* power_out_generator
* call_sign
* vessel_type
* Length_ship
* width_ship
* capacity_ship
* draft
* id_employee_captain
}

entity Position_Ship {
* imo_code
* base_date_time
- -
* latitude
* longitude
* sog
* cog
* heading
* position
* transceiver_class
* cargo
}


Trip ||- -|| Cargo_Manifest
Cargo_Manifest }o- -|| Container
Position_Ship }o- -|| Ship
Trip }o- -|| Truck
Ship ||- -o{ Trip
Unloading_Cargo_Manifest ||- -|| Cargo_Manifest
Loading_Cargo_Manifest ||- -|| Cargo_Manifest


@enduml

@startuml

entity Trip {
* id_trip
- -
* ship_imo
* id_truck
* id_start_port
* id_destination_port
* id_start_warehouse
* id_destination_warehouse
* date_time_start
* date_time_end
}

entity Container {
* id_container
- -
* iso_code

* tare
* max_weight_incl_container
* max_weight
* max_volume

* id_owner
* id_equipment
* serial_number
* check_digit
}
entity Cargo_Manifest {
* id_cargo_manifest
* id_container
- -
* id_trip
* position_code
* cargo_weight
* refrigeration_temperature
* id_client
}

entity Unloading_Cargo_Manifest {
* id_cargo_manifest
* id_container
- -
* id_warehouse
}

entity Loading_Cargo_Manifest {
* id_cargo_manifest
* id_container
- -
* id_warehouse
}

entity Truck {
* id_truck
- -
* id_employee
}

entity Ship {
* imo_code
- -
* mmsi_code
* name_ship
* number_generators
* power_out_generator
* call_sign
* vessel_type
* Length_ship
* width_ship
* capacity_ship
* draft
* id_employee_captain
}

entity Position_Ship {
* imo_code
* base_date_time
- -
* latitude
* longitude
* sog
* cog
* heading
* position
* transceiver_class
* cargo
}


Trip ||- -|| Cargo_Manifest
Cargo_Manifest }o- -|| Container
Position_Ship }o- -|| Ship
Trip }o- -|| Truck
Ship ||- -o{ Trip
Unloading_Cargo_Manifest ||- -|| Cargo_Manifest
Loading_Cargo_Manifest ||- -|| Cargo_Manifest


@enduml

PlantUML version 1.2021.00(Sun Jan 10 10:25:05 GMT 2021)
(GPL source distribution)
Java Runtime: OpenJDK Runtime Environment
JVM: OpenJDK 64-Bit Server VM
Default Encoding: Cp1252
Language: pt
Country: PT
--></g></svg>