<?xml version="1.0" encoding="UTF-8" standalone="no"?><svg xmlns="http://www.w3.org/2000/svg" xmlns:xlink="http://www.w3.org/1999/xlink" contentScriptType="application/ecmascript" contentStyleType="text/css" height="354px" preserveAspectRatio="none" style="width:550px;height:354px;" version="1.1" viewBox="0 0 550 354" width="550px" zoomAndPan="magnify"><defs><filter height="300%" id="fin9fb8db4wkh" width="300%" x="-1" y="-1"><feGaussianBlur result="blurOut" stdDeviation="2.0"/><feColorMatrix in="blurOut" result="blurOut2" type="matrix" values="0 0 0 0 0 0 0 0 0 0 0 0 0 0 0 0 0 0 .4 0"/><feOffset dx="4.0" dy="4.0" in="blurOut2" result="blurOut3"/><feBlend in="SourceGraphic" in2="blurOut3" mode="normal"/></filter></defs><g><!--MD5=[a47bb16f6c54dbf0f2f65794c44c84d2]
class ContainersRoutesUI--><rect codeLine="3" fill="#FEFECE" filter="url(#fin9fb8db4wkh)" height="61.8359" id="ContainersRoutesUI" style="stroke:#A80036;stroke-width:1.5;" width="145" x="199" y="279"/><ellipse cx="214" cy="295" fill="#ADD1B2" rx="11" ry="11" style="stroke:#A80036;stroke-width:1.0;"/><path d="M216,291.5 Q216.2031,291 216.4375,290.75 Q216.6719,290.5 216.9375,290.5 Q217.4063,290.5 217.7031,290.7813 Q218,291.0625 218,291.7188 L218,293.2813 Q218,293.9375 217.7188,294.2188 Q217.4375,294.5 217,294.5 Q216.6094,294.5 216.3594,294.3281 Q216.1094,294.1563 216,293.7031 Q215.9531,293.3906 215.7813,293.2188 Q215.4688,292.8906 214.9063,292.7031 Q214.3438,292.5 213.7813,292.5 Q213.0781,292.5 212.4844,292.7813 Q211.9063,293.0625 211.4531,293.6875 Q211,294.3125 211,295.1719 L211,296.0938 Q211,297.125 211.8438,297.8125 Q212.6875,298.5 214.1875,298.5 Q215.0781,298.5 215.7031,298.2969 Q216.0625,298.1875 216.4688,297.8281 Q216.7344,297.625 216.875,297.5625 Q217.0156,297.5 217.1875,297.5 Q217.5156,297.5 217.75,297.7656 Q218,298.0156 218,298.375 Q218,298.7188 217.6563,299.125 Q217.1563,299.7188 216.3594,300.0469 Q215.3125,300.5 214.0313,300.5 Q212.5313,300.5 211.3281,299.9063 Q210.3594,299.4375 209.6719,298.4219 Q209,297.4063 209,296.2031 L209,295.1094 Q209,293.8594 209.5938,292.7656 Q210.2031,291.6719 211.25,291.0938 Q212.3125,290.5 213.5,290.5 Q214.2188,290.5 214.8438,290.75 Q215.4688,291 216,291.5 Z " fill="#000000"/><text fill="#000000" font-family="sans-serif" font-size="12" lengthAdjust="spacing" textLength="113" x="228" y="299.9102">ContainersRoutesUI</text><line style="stroke:#A80036;stroke-width:1.5;" x1="200" x2="343" y1="311" y2="311"/><rect fill="none" height="6" style="stroke:#C82930;stroke-width:1.0;" width="6" x="207" y="319"/><text fill="#000000" font-family="sans-serif" font-size="11" lengthAdjust="spacing" textLength="45" x="219" y="326.4189">controller</text><line style="stroke:#A80036;stroke-width:1.5;" x1="200" x2="343" y1="332.8359" y2="332.8359"/><!--MD5=[29c64cccfc9fa6e8eb9dc5c6f8ae1343]
class ContainersRoutesController--><rect codeLine="7" fill="#FEFECE" filter="url(#fin9fb8db4wkh)" height="61.8359" id="ContainersRoutesController" style="stroke:#A80036;stroke-width:1.5;" width="226" x="158.5" y="157"/><ellipse cx="191.05" cy="173" fill="#ADD1B2" rx="11" ry="11" style="stroke:#A80036;stroke-width:1.0;"/><path d="M193.05,169.5 Q193.2531,169 193.4875,168.75 Q193.7219,168.5 193.9875,168.5 Q194.4563,168.5 194.7531,168.7813 Q195.05,169.0625 195.05,169.7188 L195.05,171.2813 Q195.05,171.9375 194.7688,172.2188 Q194.4875,172.5 194.05,172.5 Q193.6594,172.5 193.4094,172.3281 Q193.1594,172.1563 193.05,171.7031 Q193.0031,171.3906 192.8313,171.2188 Q192.5188,170.8906 191.9563,170.7031 Q191.3938,170.5 190.8313,170.5 Q190.1281,170.5 189.5344,170.7813 Q188.9563,171.0625 188.5031,171.6875 Q188.05,172.3125 188.05,173.1719 L188.05,174.0938 Q188.05,175.125 188.8938,175.8125 Q189.7375,176.5 191.2375,176.5 Q192.1281,176.5 192.7531,176.2969 Q193.1125,176.1875 193.5188,175.8281 Q193.7844,175.625 193.925,175.5625 Q194.0656,175.5 194.2375,175.5 Q194.5656,175.5 194.8,175.7656 Q195.05,176.0156 195.05,176.375 Q195.05,176.7188 194.7063,177.125 Q194.2063,177.7188 193.4094,178.0469 Q192.3625,178.5 191.0813,178.5 Q189.5813,178.5 188.3781,177.9063 Q187.4094,177.4375 186.7219,176.4219 Q186.05,175.4063 186.05,174.2031 L186.05,173.1094 Q186.05,171.8594 186.6438,170.7656 Q187.2531,169.6719 188.3,169.0938 Q189.3625,168.5 190.55,168.5 Q191.2688,168.5 191.8938,168.75 Q192.5188,169 193.05,169.5 Z " fill="#000000"/><text fill="#000000" font-family="sans-serif" font-size="12" lengthAdjust="spacing" textLength="155" x="208.95" y="177.9102">ContainersRoutesController</text><line style="stroke:#A80036;stroke-width:1.5;" x1="159.5" x2="383.5" y1="189" y2="189"/><line style="stroke:#A80036;stroke-width:1.5;" x1="159.5" x2="383.5" y1="197" y2="197"/><ellipse cx="169.5" cy="208" fill="#84BE84" rx="3" ry="3" style="stroke:#038048;stroke-width:1.0;"/><text fill="#000000" font-family="sans-serif" font-size="11" lengthAdjust="spacing" textLength="200" x="178.5" y="212.4189">getContainersRoutes(userID, containerID)</text><!--MD5=[25c9184b3670462bf1e9d78536605227]
class DatabaseFunctions--><rect codeLine="11" fill="#FEFECE" filter="url(#fin9fb8db4wkh)" height="89.5078" id="DatabaseFunctions" style="stroke:#A80036;stroke-width:1.5;" width="529" x="7" y="7"/><ellipse cx="213.25" cy="23" fill="#ADD1B2" rx="11" ry="11" style="stroke:#A80036;stroke-width:1.0;"/><path d="M215.25,19.5 Q215.4531,19 215.6875,18.75 Q215.9219,18.5 216.1875,18.5 Q216.6563,18.5 216.9531,18.7813 Q217.25,19.0625 217.25,19.7188 L217.25,21.2813 Q217.25,21.9375 216.9688,22.2188 Q216.6875,22.5 216.25,22.5 Q215.8594,22.5 215.6094,22.3281 Q215.3594,22.1563 215.25,21.7031 Q215.2031,21.3906 215.0313,21.2188 Q214.7188,20.8906 214.1563,20.7031 Q213.5938,20.5 213.0313,20.5 Q212.3281,20.5 211.7344,20.7813 Q211.1563,21.0625 210.7031,21.6875 Q210.25,22.3125 210.25,23.1719 L210.25,24.0938 Q210.25,25.125 211.0938,25.8125 Q211.9375,26.5 213.4375,26.5 Q214.3281,26.5 214.9531,26.2969 Q215.3125,26.1875 215.7188,25.8281 Q215.9844,25.625 216.125,25.5625 Q216.2656,25.5 216.4375,25.5 Q216.7656,25.5 217,25.7656 Q217.25,26.0156 217.25,26.375 Q217.25,26.7188 216.9063,27.125 Q216.4063,27.7188 215.6094,28.0469 Q214.5625,28.5 213.2813,28.5 Q211.7813,28.5 210.5781,27.9063 Q209.6094,27.4375 208.9219,26.4219 Q208.25,25.4063 208.25,24.2031 L208.25,23.1094 Q208.25,21.8594 208.8438,20.7656 Q209.4531,19.6719 210.5,19.0938 Q211.5625,18.5 212.75,18.5 Q213.4688,18.5 214.0938,18.75 Q214.7188,19 215.25,19.5 Z " fill="#000000"/><text fill="#000000" font-family="sans-serif" font-size="12" lengthAdjust="spacing" textLength="108" x="233.75" y="27.9102">DatabaseFunctions</text><line style="stroke:#A80036;stroke-width:1.5;" x1="8" x2="535" y1="39" y2="39"/><line style="stroke:#A80036;stroke-width:1.5;" x1="8" x2="535" y1="47" y2="47"/><ellipse cx="18" cy="58" fill="#84BE84" rx="3" ry="3" style="stroke:#038048;stroke-width:1.0;"/><text fill="#000000" font-family="sans-serif" font-size="11" lengthAdjust="spacing" textLength="305" x="27" y="62.4189">getContainersRoutes(databaseConnection, userID, containerID)</text><rect fill="#F24D5C" height="6" style="stroke:#C82930;stroke-width:1.0;" width="6" x="15" y="68.8359"/><text fill="#000000" font-family="sans-serif" font-size="11" lengthAdjust="spacing" textLength="109" x="27" y="76.2549">loadFunction(filename)</text><rect fill="#F24D5C" height="6" style="stroke:#C82930;stroke-width:1.0;" width="6" x="15" y="82.6719"/><text fill="#000000" font-family="sans-serif" font-size="11" lengthAdjust="spacing" textLength="503" x="27" y="90.0908">getResultSetFromSysRefCursor(databaseConnection, function, columnsForTable) throws SQLException</text><!--MD5=[fa4f629ae888fe073ffd5286d1f14bed]
reverse link ContainersRoutesController to ContainersRoutesUI--><path codeLine="19" d="M271.5,224.52 C271.5,241.75 271.5,262.24 271.5,278.73 " fill="none" id="ContainersRoutesController-backto-ContainersRoutesUI" style="stroke:#A80036;stroke-width:1.0;stroke-dasharray:7.0,7.0;"/><polygon fill="#A80036" points="271.5,219.28,267.5,228.28,271.5,224.28,275.5,228.28,271.5,219.28" style="stroke:#A80036;stroke-width:1.0;"/><!--MD5=[5f73ab92226aff2c17b9ef3fe47bdbd9]
reverse link DatabaseFunctions to ContainersRoutesController--><path codeLine="20" d="M271.5,102.34 C271.5,120.58 271.5,140.71 271.5,156.76 " fill="none" id="DatabaseFunctions-backto-ContainersRoutesController" style="stroke:#A80036;stroke-width:1.0;stroke-dasharray:7.0,7.0;"/><polygon fill="#A80036" points="271.5,97.25,267.5,106.25,271.5,102.25,275.5,106.25,271.5,97.25" style="stroke:#A80036;stroke-width:1.0;"/><!--MD5=[7fe6eaed4910d265b50ef3d492bcdb7e]
@startuml
'https://plantuml.com/class-diagram

class ContainersRoutesUI {
- controller
}

class ContainersRoutesController {
+ getContainersRoutes(userID, containerID)
}

class DatabaseFunctions {
+ getContainersRoutes(databaseConnection, userID, containerID)
- loadFunction(filename)
- getResultSetFromSysRefCursor(databaseConnection, function, columnsForTable) throws SQLException
}



ContainersRoutesController <.. ContainersRoutesUI
DatabaseFunctions <.. ContainersRoutesController

@enduml

@startuml

class ContainersRoutesUI {
- controller
}

class ContainersRoutesController {
+ getContainersRoutes(userID, containerID)
}

class DatabaseFunctions {
+ getContainersRoutes(databaseConnection, userID, containerID)
- loadFunction(filename)
- getResultSetFromSysRefCursor(databaseConnection, function, columnsForTable) throws SQLException
}



ContainersRoutesController <.. ContainersRoutesUI
DatabaseFunctions <.. ContainersRoutesController

@enduml

PlantUML version 1.2021.00(Sun Jan 10 10:25:05 GMT 2021)
(GPL source distribution)
Java Runtime: OpenJDK Runtime Environment
JVM: OpenJDK 64-Bit Server VM
Default Encoding: Cp1252
Language: pt
Country: PT
--></g></svg>