<?xml version="1.0" encoding="UTF-8" standalone="no"?><svg xmlns="http://www.w3.org/2000/svg" xmlns:xlink="http://www.w3.org/1999/xlink" contentScriptType="application/ecmascript" contentStyleType="text/css" height="486px" preserveAspectRatio="none" style="width:1344px;height:486px;" version="1.1" viewBox="0 0 1344 486" width="1344px" zoomAndPan="magnify"><defs><filter height="300%" id="fb8j5t2koidlv" width="300%" x="-1" y="-1"><feGaussianBlur result="blurOut" stdDeviation="2.0"/><feColorMatrix in="blurOut" result="blurOut2" type="matrix" values="0 0 0 0 0 0 0 0 0 0 0 0 0 0 0 0 0 0 .4 0"/><feOffset dx="4.0" dy="4.0" in="blurOut2" result="blurOut3"/><feBlend in="SourceGraphic" in2="blurOut3" mode="normal"/></filter></defs><g><rect fill="#FFFFFF" filter="url(#fb8j5t2koidlv)" height="283.1641" style="stroke:#A80036;stroke-width:1.0;" width="10" x="21" y="99.6094"/><rect fill="#FFFFFF" filter="url(#fb8j5t2koidlv)" height="30.3516" style="stroke:#A80036;stroke-width:1.0;" width="10" x="302" y="121.9609"/><rect fill="#FFFFFF" filter="url(#fb8j5t2koidlv)" height="200.1094" style="stroke:#A80036;stroke-width:1.0;" width="10" x="302" y="182.6641"/><rect fill="#FFFFFF" filter="url(#fb8j5t2koidlv)" height="169.7578" style="stroke:#A80036;stroke-width:1.0;" width="10" x="570" y="213.0156"/><rect fill="#FFFFFF" filter="url(#fb8j5t2koidlv)" height="139.4063" style="stroke:#A80036;stroke-width:1.0;" width="10" x="886" y="243.3672"/><rect fill="#FFFFFF" filter="url(#fb8j5t2koidlv)" height="30" style="stroke:#A80036;stroke-width:1.0;" width="10" x="1187" y="315.4219"/><rect fill="#FFFFFF" filter="url(#fb8j5t2koidlv)" height="95.0547" style="stroke:#000000;stroke-width:2.0;" width="522" x="808.5" y="258.3672"/><line style="stroke:#A80036;stroke-width:1.0;stroke-dasharray:5.0,5.0;" x1="26" x2="26" y1="89.6094" y2="400.7734"/><line style="stroke:#A80036;stroke-width:1.0;stroke-dasharray:5.0,5.0;" x1="306.5" x2="306.5" y1="89.6094" y2="400.7734"/><line style="stroke:#A80036;stroke-width:1.0;stroke-dasharray:5.0,5.0;" x1="574.5" x2="574.5" y1="89.6094" y2="400.7734"/><line style="stroke:#A80036;stroke-width:1.0;stroke-dasharray:5.0,5.0;" x1="890.5" x2="890.5" y1="89.6094" y2="400.7734"/><line style="stroke:#A80036;stroke-width:1.0;stroke-dasharray:5.0,5.0;" x1="1191.5" x2="1191.5" y1="89.6094" y2="400.7734"/><text fill="#000000" font-family="sans-serif" font-size="14" lengthAdjust="spacing" textLength="36" x="5" y="86.5332">Client</text><ellipse cx="26" cy="15" fill="#FEFECE" filter="url(#fb8j5t2koidlv)" rx="8" ry="8" style="stroke:#A80036;stroke-width:2.0;"/><path d="M26,23 L26,50 M13,31 L39,31 M26,50 L13,65 M26,50 L39,65 " fill="none" filter="url(#fb8j5t2koidlv)" style="stroke:#A80036;stroke-width:2.0;"/><text fill="#000000" font-family="sans-serif" font-size="14" lengthAdjust="spacing" textLength="36" x="5" y="414.3066">Client</text><ellipse cx="26" cy="427.3828" fill="#FEFECE" filter="url(#fb8j5t2koidlv)" rx="8" ry="8" style="stroke:#A80036;stroke-width:2.0;"/><path d="M26,435.3828 L26,462.3828 M13,443.3828 L39,443.3828 M26,462.3828 L13,477.3828 M26,462.3828 L39,477.3828 " fill="none" filter="url(#fb8j5t2koidlv)" style="stroke:#A80036;stroke-width:2.0;"/><rect fill="#FEFECE" filter="url(#fb8j5t2koidlv)" height="31.6094" style="stroke:#A80036;stroke-width:1.5;" width="137" x="236.5" y="53"/><text fill="#000000" font-family="sans-serif" font-size="14" lengthAdjust="spacing" textLength="123" x="243.5" y="74.5332">:ContainersRouteUI</text><rect fill="#FEFECE" filter="url(#fb8j5t2koidlv)" height="31.6094" style="stroke:#A80036;stroke-width:1.5;" width="137" x="236.5" y="399.7734"/><text fill="#000000" font-family="sans-serif" font-size="14" lengthAdjust="spacing" textLength="123" x="243.5" y="421.3066">:ContainersRouteUI</text><rect fill="#FEFECE" filter="url(#fb8j5t2koidlv)" height="31.6094" style="stroke:#A80036;stroke-width:1.5;" width="187" x="479.5" y="53"/><text fill="#000000" font-family="sans-serif" font-size="14" lengthAdjust="spacing" textLength="173" x="486.5" y="74.5332">:ContainersRouteController</text><rect fill="#FEFECE" filter="url(#fb8j5t2koidlv)" height="31.6094" style="stroke:#A80036;stroke-width:1.5;" width="187" x="479.5" y="399.7734"/><text fill="#000000" font-family="sans-serif" font-size="14" lengthAdjust="spacing" textLength="173" x="486.5" y="421.3066">:ContainersRouteController</text><rect fill="#FEFECE" filter="url(#fb8j5t2koidlv)" height="31.6094" style="stroke:#A80036;stroke-width:1.5;" width="141" x="818.5" y="53"/><text fill="#000000" font-family="sans-serif" font-size="14" lengthAdjust="spacing" textLength="127" x="825.5" y="74.5332">:DatabaseFunctions</text><rect fill="#FEFECE" filter="url(#fb8j5t2koidlv)" height="31.6094" style="stroke:#A80036;stroke-width:1.5;" width="141" x="818.5" y="399.7734"/><text fill="#000000" font-family="sans-serif" font-size="14" lengthAdjust="spacing" textLength="127" x="825.5" y="421.3066">:DatabaseFunctions</text><text fill="#000000" font-family="sans-serif" font-size="14" lengthAdjust="spacing" textLength="61" x="1158.5" y="86.5332">Database</text><path d="M1174,36 C1174,26 1192,26 1192,26 C1192,26 1210,26 1210,36 L1210,62 C1210,72 1192,72 1192,72 C1192,72 1174,72 1174,62 L1174,36 " fill="#FEFECE" filter="url(#fb8j5t2koidlv)" style="stroke:#000000;stroke-width:1.5;"/><path d="M1174,36 C1174,46 1192,46 1192,46 C1192,46 1210,46 1210,36 " fill="none" style="stroke:#000000;stroke-width:1.5;"/><text fill="#000000" font-family="sans-serif" font-size="14" lengthAdjust="spacing" textLength="61" x="1158.5" y="414.3066">Database</text><path d="M1174,427.3828 C1174,417.3828 1192,417.3828 1192,417.3828 C1192,417.3828 1210,417.3828 1210,427.3828 L1210,453.3828 C1210,463.3828 1192,463.3828 1192,463.3828 C1192,463.3828 1174,463.3828 1174,453.3828 L1174,427.3828 " fill="#FEFECE" filter="url(#fb8j5t2koidlv)" style="stroke:#000000;stroke-width:1.5;"/><path d="M1174,427.3828 C1174,437.3828 1192,437.3828 1192,437.3828 C1192,437.3828 1210,437.3828 1210,427.3828 " fill="none" style="stroke:#000000;stroke-width:1.5;"/><rect fill="#FFFFFF" filter="url(#fb8j5t2koidlv)" height="283.1641" style="stroke:#A80036;stroke-width:1.0;" width="10" x="21" y="99.6094"/><rect fill="#FFFFFF" filter="url(#fb8j5t2koidlv)" height="30.3516" style="stroke:#A80036;stroke-width:1.0;" width="10" x="302" y="121.9609"/><rect fill="#FFFFFF" filter="url(#fb8j5t2koidlv)" height="200.1094" style="stroke:#A80036;stroke-width:1.0;" width="10" x="302" y="182.6641"/><rect fill="#FFFFFF" filter="url(#fb8j5t2koidlv)" height="169.7578" style="stroke:#A80036;stroke-width:1.0;" width="10" x="570" y="213.0156"/><rect fill="#FFFFFF" filter="url(#fb8j5t2koidlv)" height="139.4063" style="stroke:#A80036;stroke-width:1.0;" width="10" x="886" y="243.3672"/><rect fill="#FFFFFF" filter="url(#fb8j5t2koidlv)" height="30" style="stroke:#A80036;stroke-width:1.0;" width="10" x="1187" y="315.4219"/><polygon fill="#A80036" points="290,117.9609,300,121.9609,290,125.9609,294,121.9609" style="stroke:#A80036;stroke-width:1.0;"/><line style="stroke:#A80036;stroke-width:1.0;" x1="31" x2="296" y1="121.9609" y2="121.9609"/><text fill="#000000" font-family="sans-serif" font-size="13" font-weight="bold" lengthAdjust="spacing" textLength="7" x="38" y="117.1045">1</text><text fill="#000000" font-family="sans-serif" font-size="13" lengthAdjust="spacing" textLength="145" x="49" y="117.1045">asks for container's route</text><polygon fill="#A80036" points="42,148.3125,32,152.3125,42,156.3125,38,152.3125" style="stroke:#A80036;stroke-width:1.0;"/><line style="stroke:#A80036;stroke-width:1.0;stroke-dasharray:2.0,2.0;" x1="36" x2="306" y1="152.3125" y2="152.3125"/><text fill="#000000" font-family="sans-serif" font-size="13" font-weight="bold" lengthAdjust="spacing" textLength="7" x="48" y="147.4561">2</text><text fill="#000000" font-family="sans-serif" font-size="13" lengthAdjust="spacing" textLength="201" x="59" y="147.4561">requests data (userID, containerID)</text><polygon fill="#A80036" points="290,178.6641,300,182.6641,290,186.6641,294,182.6641" style="stroke:#A80036;stroke-width:1.0;"/><line style="stroke:#A80036;stroke-width:1.0;" x1="31" x2="296" y1="182.6641" y2="182.6641"/><text fill="#000000" font-family="sans-serif" font-size="13" font-weight="bold" lengthAdjust="spacing" textLength="7" x="38" y="177.8076">3</text><text fill="#000000" font-family="sans-serif" font-size="13" lengthAdjust="spacing" textLength="122" x="49" y="177.8076">types requested data</text><polygon fill="#A80036" points="558,209.0156,568,213.0156,558,217.0156,562,213.0156" style="stroke:#A80036;stroke-width:1.0;"/><line style="stroke:#A80036;stroke-width:1.0;" x1="312" x2="564" y1="213.0156" y2="213.0156"/><text fill="#000000" font-family="sans-serif" font-size="13" font-weight="bold" lengthAdjust="spacing" textLength="7" x="319" y="208.1592">4</text><text fill="#000000" font-family="sans-serif" font-size="13" lengthAdjust="spacing" textLength="228" x="330" y="208.1592">getContainersRoute(userID,containerID)</text><polygon fill="#A80036" points="874,239.3672,884,243.3672,874,247.3672,878,243.3672" style="stroke:#A80036;stroke-width:1.0;"/><line style="stroke:#A80036;stroke-width:1.0;" x1="580" x2="880" y1="243.3672" y2="243.3672"/><text fill="#000000" font-family="sans-serif" font-size="13" font-weight="bold" lengthAdjust="spacing" textLength="7" x="587" y="238.5107">5</text><text fill="#000000" font-family="sans-serif" font-size="13" lengthAdjust="spacing" textLength="276" x="598" y="238.5107">result = getContainersRoute(userID,containerID)</text><path d="M808.5,258.3672 L881.5,258.3672 L881.5,266.3672 L871.5,276.3672 L808.5,276.3672 L808.5,258.3672 " fill="#EEEEEE" style="stroke:#000000;stroke-width:1.0;"/><rect fill="none" height="95.0547" style="stroke:#000000;stroke-width:2.0;" width="522" x="808.5" y="258.3672"/><text fill="#000000" font-family="sans-serif" font-size="13" font-weight="bold" lengthAdjust="spacing" textLength="28" x="823.5" y="272.8623">loop</text><text fill="#000000" font-family="sans-serif" font-size="11" font-weight="bold" lengthAdjust="spacing" textLength="429" x="896.5" y="271.7861">[while Unloading Cargo Manifest does not have a line relative to the container]</text><polygon fill="#A80036" points="1175,311.4219,1185,315.4219,1175,319.4219,1179,315.4219" style="stroke:#A80036;stroke-width:1.0;"/><line style="stroke:#A80036;stroke-width:1.0;stroke-dasharray:2.0,2.0;" x1="896" x2="1181" y1="315.4219" y2="315.4219"/><text fill="#000000" font-family="sans-serif" font-size="13" font-weight="bold" lengthAdjust="spacing" textLength="7" x="903" y="302.3896">6</text><text fill="#000000" font-family="sans-serif" font-size="13" lengthAdjust="spacing" textLength="199" x="914" y="294.2139">list.add(startingPoint, endingPoint,</text><text fill="#000000" font-family="sans-serif" font-size="13" lengthAdjust="spacing" textLength="257" x="918" y="310.5654">startingDateTime, endingDateTime, tranCort)</text><polygon fill="#A80036" points="37,378.7734,27,382.7734,37,386.7734,33,382.7734" style="stroke:#A80036;stroke-width:1.0;"/><line style="stroke:#A80036;stroke-width:1.0;stroke-dasharray:2.0,2.0;" x1="31" x2="306" y1="382.7734" y2="382.7734"/><text fill="#000000" font-family="sans-serif" font-size="13" font-weight="bold" lengthAdjust="spacing" textLength="7" x="43" y="377.917">7</text><text fill="#000000" font-family="sans-serif" font-size="13" lengthAdjust="spacing" textLength="236" x="54" y="377.917">shows container's route and other details</text><!--MD5=[9aa44a863beacfc3c08402ab8ef4906f]
@startuml
'https://plantuml.com/class-diagram

autonumber

actor "Client" as C

participant ":ContainersRouteUI" as UI
participant ":ContainersRouteController" as CTRL
participant ":DatabaseFunctions" as DBF
Database Database as DB

activate C
C -> UI : asks for container's route

activate UI
UI - -> C : requests data (userID, containerID)
deactivate UI

C -> UI : types requested data
activate UI



UI -> CTRL : getContainersRoute(userID,containerID)

activate CTRL

CTRL -> DBF : result = getContainersRoute(userID,containerID)
activate DBF

loop while Unloading Cargo Manifest does not have a line relative to the container

    DBF - -> DB : list.add(startingPoint, endingPoint,\n startingDateTime, endingDateTime, tranCort)
    activate DB
    deactivate DB
end

"UI" - -> C : shows container's route and other details

deactivate DBF
deactivate CTRL
deactivate UI
deactivate C

@enduml

@startuml

autonumber

actor "Client" as C

participant ":ContainersRouteUI" as UI
participant ":ContainersRouteController" as CTRL
participant ":DatabaseFunctions" as DBF
Database Database as DB

activate C
C -> UI : asks for container's route

activate UI
UI - -> C : requests data (userID, containerID)
deactivate UI

C -> UI : types requested data
activate UI



UI -> CTRL : getContainersRoute(userID,containerID)

activate CTRL

CTRL -> DBF : result = getContainersRoute(userID,containerID)
activate DBF

loop while Unloading Cargo Manifest does not have a line relative to the container

    DBF - -> DB : list.add(startingPoint, endingPoint,\n startingDateTime, endingDateTime, tranCort)
    activate DB
    deactivate DB
end

"UI" - -> C : shows container's route and other details

deactivate DBF
deactivate CTRL
deactivate UI
deactivate C

@enduml

PlantUML version 1.2021.00(Sun Jan 10 10:25:05 GMT 2021)
(GPL source distribution)
Java Runtime: OpenJDK Runtime Environment
JVM: OpenJDK 64-Bit Server VM
Default Encoding: Cp1252
Language: pt
Country: PT
--></g></svg>