<?xml version="1.0" encoding="UTF-8" standalone="no"?><svg xmlns="http://www.w3.org/2000/svg" xmlns:xlink="http://www.w3.org/1999/xlink" contentScriptType="application/ecmascript" contentStyleType="text/css" height="559px" preserveAspectRatio="none" style="width:339px;height:559px;" version="1.1" viewBox="0 0 339 559" width="339px" zoomAndPan="magnify"><defs><filter height="300%" id="f348t7j63djry" width="300%" x="-1" y="-1"><feGaussianBlur result="blurOut" stdDeviation="2.0"/><feColorMatrix in="blurOut" result="blurOut2" type="matrix" values="0 0 0 0 0 0 0 0 0 0 0 0 0 0 0 0 0 0 .4 0"/><feOffset dx="4.0" dy="4.0" in="blurOut2" result="blurOut3"/><feBlend in="SourceGraphic" in2="blurOut3" mode="normal"/></filter></defs><g><!--MD5=[a47bb16f6c54dbf0f2f65794c44c84d2]
class ContainersRoutesUI--><rect codeLine="3" fill="#FEFECE" filter="url(#f348t7j63djry)" height="61.8359" id="ContainersRoutesUI" style="stroke:#A80036;stroke-width:1.5;" width="145" x="57" y="484"/><ellipse cx="72" cy="500" fill="#ADD1B2" rx="11" ry="11" style="stroke:#A80036;stroke-width:1.0;"/><path d="M74,496.5 Q74.2031,496 74.4375,495.75 Q74.6719,495.5 74.9375,495.5 Q75.4063,495.5 75.7031,495.7813 Q76,496.0625 76,496.7188 L76,498.2813 Q76,498.9375 75.7188,499.2188 Q75.4375,499.5 75,499.5 Q74.6094,499.5 74.3594,499.3281 Q74.1094,499.1563 74,498.7031 Q73.9531,498.3906 73.7813,498.2188 Q73.4688,497.8906 72.9063,497.7031 Q72.3438,497.5 71.7813,497.5 Q71.0781,497.5 70.4844,497.7813 Q69.9063,498.0625 69.4531,498.6875 Q69,499.3125 69,500.1719 L69,501.0938 Q69,502.125 69.8438,502.8125 Q70.6875,503.5 72.1875,503.5 Q73.0781,503.5 73.7031,503.2969 Q74.0625,503.1875 74.4688,502.8281 Q74.7344,502.625 74.875,502.5625 Q75.0156,502.5 75.1875,502.5 Q75.5156,502.5 75.75,502.7656 Q76,503.0156 76,503.375 Q76,503.7188 75.6563,504.125 Q75.1563,504.7188 74.3594,505.0469 Q73.3125,505.5 72.0313,505.5 Q70.5313,505.5 69.3281,504.9063 Q68.3594,504.4375 67.6719,503.4219 Q67,502.4063 67,501.2031 L67,500.1094 Q67,498.8594 67.5938,497.7656 Q68.2031,496.6719 69.25,496.0938 Q70.3125,495.5 71.5,495.5 Q72.2188,495.5 72.8438,495.75 Q73.4688,496 74,496.5 Z " fill="#000000"/><text fill="#000000" font-family="sans-serif" font-size="12" lengthAdjust="spacing" textLength="113" x="86" y="504.9102">ContainersRoutesUI</text><line style="stroke:#A80036;stroke-width:1.5;" x1="58" x2="201" y1="516" y2="516"/><rect fill="none" height="6" style="stroke:#C82930;stroke-width:1.0;" width="6" x="65" y="524"/><text fill="#000000" font-family="sans-serif" font-size="11" lengthAdjust="spacing" textLength="45" x="77" y="531.4189">controller</text><line style="stroke:#A80036;stroke-width:1.5;" x1="58" x2="201" y1="537.8359" y2="537.8359"/><!--MD5=[29c64cccfc9fa6e8eb9dc5c6f8ae1343]
class ContainersRoutesController--><rect codeLine="7" fill="#FEFECE" filter="url(#f348t7j63djry)" height="75.6719" id="ContainersRoutesController" style="stroke:#A80036;stroke-width:1.5;" width="226" x="99.5" y="348"/><ellipse cx="132.05" cy="364" fill="#ADD1B2" rx="11" ry="11" style="stroke:#A80036;stroke-width:1.0;"/><path d="M134.05,360.5 Q134.2531,360 134.4875,359.75 Q134.7219,359.5 134.9875,359.5 Q135.4563,359.5 135.7531,359.7813 Q136.05,360.0625 136.05,360.7188 L136.05,362.2813 Q136.05,362.9375 135.7688,363.2188 Q135.4875,363.5 135.05,363.5 Q134.6594,363.5 134.4094,363.3281 Q134.1594,363.1563 134.05,362.7031 Q134.0031,362.3906 133.8313,362.2188 Q133.5188,361.8906 132.9563,361.7031 Q132.3938,361.5 131.8313,361.5 Q131.1281,361.5 130.5344,361.7813 Q129.9563,362.0625 129.5031,362.6875 Q129.05,363.3125 129.05,364.1719 L129.05,365.0938 Q129.05,366.125 129.8938,366.8125 Q130.7375,367.5 132.2375,367.5 Q133.1281,367.5 133.7531,367.2969 Q134.1125,367.1875 134.5188,366.8281 Q134.7844,366.625 134.925,366.5625 Q135.0656,366.5 135.2375,366.5 Q135.5656,366.5 135.8,366.7656 Q136.05,367.0156 136.05,367.375 Q136.05,367.7188 135.7063,368.125 Q135.2063,368.7188 134.4094,369.0469 Q133.3625,369.5 132.0813,369.5 Q130.5813,369.5 129.3781,368.9063 Q128.4094,368.4375 127.7219,367.4219 Q127.05,366.4063 127.05,365.2031 L127.05,364.1094 Q127.05,362.8594 127.6438,361.7656 Q128.2531,360.6719 129.3,360.0938 Q130.3625,359.5 131.55,359.5 Q132.2688,359.5 132.8938,359.75 Q133.5188,360 134.05,360.5 Z " fill="#000000"/><text fill="#000000" font-family="sans-serif" font-size="12" lengthAdjust="spacing" textLength="155" x="149.95" y="368.9102">ContainersRoutesController</text><line style="stroke:#A80036;stroke-width:1.5;" x1="100.5" x2="324.5" y1="380" y2="380"/><rect fill="none" height="6" style="stroke:#C82930;stroke-width:1.0;" width="6" x="107.5" y="388"/><text fill="#000000" font-family="sans-serif" font-size="11" lengthAdjust="spacing" textLength="119" x="119.5" y="395.4189">ContainersRouteStoreDb</text><line style="stroke:#A80036;stroke-width:1.5;" x1="100.5" x2="324.5" y1="401.8359" y2="401.8359"/><ellipse cx="110.5" cy="412.8359" fill="#84BE84" rx="3" ry="3" style="stroke:#038048;stroke-width:1.0;"/><text fill="#000000" font-family="sans-serif" font-size="11" lengthAdjust="spacing" textLength="200" x="119.5" y="417.2549">getContainersRoutes(userID, containerID)</text><!--MD5=[33e5ae578f64c15450b62d29d561dd7f]
class ContainersRouteStoreDb--><rect codeLine="12" fill="#FEFECE" filter="url(#f348t7j63djry)" height="61.8359" id="ContainersRouteStoreDb" style="stroke:#A80036;stroke-width:1.5;" width="226" x="99.5" y="226"/><ellipse cx="139.25" cy="242" fill="#ADD1B2" rx="11" ry="11" style="stroke:#A80036;stroke-width:1.0;"/><path d="M141.25,238.5 Q141.4531,238 141.6875,237.75 Q141.9219,237.5 142.1875,237.5 Q142.6563,237.5 142.9531,237.7813 Q143.25,238.0625 143.25,238.7188 L143.25,240.2813 Q143.25,240.9375 142.9688,241.2188 Q142.6875,241.5 142.25,241.5 Q141.8594,241.5 141.6094,241.3281 Q141.3594,241.1563 141.25,240.7031 Q141.2031,240.3906 141.0313,240.2188 Q140.7188,239.8906 140.1563,239.7031 Q139.5938,239.5 139.0313,239.5 Q138.3281,239.5 137.7344,239.7813 Q137.1563,240.0625 136.7031,240.6875 Q136.25,241.3125 136.25,242.1719 L136.25,243.0938 Q136.25,244.125 137.0938,244.8125 Q137.9375,245.5 139.4375,245.5 Q140.3281,245.5 140.9531,245.2969 Q141.3125,245.1875 141.7188,244.8281 Q141.9844,244.625 142.125,244.5625 Q142.2656,244.5 142.4375,244.5 Q142.7656,244.5 143,244.7656 Q143.25,245.0156 143.25,245.375 Q143.25,245.7188 142.9063,246.125 Q142.4063,246.7188 141.6094,247.0469 Q140.5625,247.5 139.2813,247.5 Q137.7813,247.5 136.5781,246.9063 Q135.6094,246.4375 134.9219,245.4219 Q134.25,244.4063 134.25,243.2031 L134.25,242.1094 Q134.25,240.8594 134.8438,239.7656 Q135.4531,238.6719 136.5,238.0938 Q137.5625,237.5 138.75,237.5 Q139.4688,237.5 140.0938,237.75 Q140.7188,238 141.25,238.5 Z " fill="#000000"/><text fill="#000000" font-family="sans-serif" font-size="12" lengthAdjust="spacing" textLength="139" x="158.75" y="246.9102">ContainersRouteStoreDb</text><line style="stroke:#A80036;stroke-width:1.5;" x1="100.5" x2="324.5" y1="258" y2="258"/><line style="stroke:#A80036;stroke-width:1.5;" x1="100.5" x2="324.5" y1="266" y2="266"/><ellipse cx="110.5" cy="277" fill="#84BE84" rx="3" ry="3" style="stroke:#038048;stroke-width:1.0;"/><text fill="#000000" font-family="sans-serif" font-size="11" lengthAdjust="spacing" textLength="200" x="119.5" y="281.4189">getContainersRoutes(userID, containerID)</text><!--MD5=[92b5767ca3e6351653453631f594bb39]
class ContainersRoute--><rect codeLine="16" fill="#FEFECE" filter="url(#f348t7j63djry)" height="158.6875" id="ContainersRoute" style="stroke:#A80036;stroke-width:1.5;" width="245" x="7" y="7"/><ellipse cx="78.25" cy="23" fill="#ADD1B2" rx="11" ry="11" style="stroke:#A80036;stroke-width:1.0;"/><path d="M80.25,19.5 Q80.4531,19 80.6875,18.75 Q80.9219,18.5 81.1875,18.5 Q81.6563,18.5 81.9531,18.7813 Q82.25,19.0625 82.25,19.7188 L82.25,21.2813 Q82.25,21.9375 81.9688,22.2188 Q81.6875,22.5 81.25,22.5 Q80.8594,22.5 80.6094,22.3281 Q80.3594,22.1563 80.25,21.7031 Q80.2031,21.3906 80.0313,21.2188 Q79.7188,20.8906 79.1563,20.7031 Q78.5938,20.5 78.0313,20.5 Q77.3281,20.5 76.7344,20.7813 Q76.1563,21.0625 75.7031,21.6875 Q75.25,22.3125 75.25,23.1719 L75.25,24.0938 Q75.25,25.125 76.0938,25.8125 Q76.9375,26.5 78.4375,26.5 Q79.3281,26.5 79.9531,26.2969 Q80.3125,26.1875 80.7188,25.8281 Q80.9844,25.625 81.125,25.5625 Q81.2656,25.5 81.4375,25.5 Q81.7656,25.5 82,25.7656 Q82.25,26.0156 82.25,26.375 Q82.25,26.7188 81.9063,27.125 Q81.4063,27.7188 80.6094,28.0469 Q79.5625,28.5 78.2813,28.5 Q76.7813,28.5 75.5781,27.9063 Q74.6094,27.4375 73.9219,26.4219 Q73.25,25.4063 73.25,24.2031 L73.25,23.1094 Q73.25,21.8594 73.8438,20.7656 Q74.4531,19.6719 75.5,19.0938 Q76.5625,18.5 77.75,18.5 Q78.4688,18.5 79.0938,18.75 Q79.7188,19 80.25,19.5 Z " fill="#000000"/><text fill="#000000" font-family="sans-serif" font-size="12" lengthAdjust="spacing" textLength="94" x="98.75" y="27.9102">ContainersRoute</text><line style="stroke:#A80036;stroke-width:1.5;" x1="8" x2="251" y1="39" y2="39"/><rect fill="none" height="6" style="stroke:#C82930;stroke-width:1.0;" width="6" x="15" y="47"/><text fill="#000000" font-family="sans-serif" font-size="11" lengthAdjust="spacing" textLength="59" x="27" y="54.4189">startingPoint</text><rect fill="none" height="6" style="stroke:#C82930;stroke-width:1.0;" width="6" x="15" y="60.8359"/><text fill="#000000" font-family="sans-serif" font-size="11" lengthAdjust="spacing" textLength="55" x="27" y="68.2549">endingPoint</text><rect fill="none" height="6" style="stroke:#C82930;stroke-width:1.0;" width="6" x="15" y="74.6719"/><text fill="#000000" font-family="sans-serif" font-size="11" lengthAdjust="spacing" textLength="80" x="27" y="82.0908">startingDateTime</text><rect fill="none" height="6" style="stroke:#C82930;stroke-width:1.0;" width="6" x="15" y="88.5078"/><text fill="#000000" font-family="sans-serif" font-size="11" lengthAdjust="spacing" textLength="76" x="27" y="95.9268">endingDateTime</text><rect fill="none" height="6" style="stroke:#C82930;stroke-width:1.0;" width="6" x="15" y="102.3438"/><text fill="#000000" font-family="sans-serif" font-size="11" lengthAdjust="spacing" textLength="44" x="27" y="109.7627">transport</text><line style="stroke:#A80036;stroke-width:1.5;" x1="8" x2="251" y1="116.1797" y2="116.1797"/><ellipse cx="18" cy="127.1797" fill="#84BE84" rx="3" ry="3" style="stroke:#038048;stroke-width:1.0;"/><text fill="#000000" font-family="sans-serif" font-size="11" lengthAdjust="spacing" textLength="207" x="27" y="131.5986">ContainersRoute(startingPoint, endingPoint,</text><text fill="#000000" font-family="sans-serif" font-size="11" lengthAdjust="spacing" textLength="216" x="30" y="145.4346">startingDateTime, endingDateTime, transport)</text><ellipse cx="18" cy="154.8516" fill="#84BE84" rx="3" ry="3" style="stroke:#038048;stroke-width:1.0;"/><text fill="#000000" font-family="sans-serif" font-size="11" lengthAdjust="spacing" textLength="45" x="27" y="159.2705">toString()</text><!--MD5=[fa4f629ae888fe073ffd5286d1f14bed]
reverse link ContainersRoutesController to ContainersRoutesUI--><path codeLine="26" d="M185.31,428.6 C173.51,446.66 159.95,467.4 149.16,483.93 " fill="none" id="ContainersRoutesController-backto-ContainersRoutesUI" style="stroke:#A80036;stroke-width:1.0;stroke-dasharray:7.0,7.0;"/><polygon fill="#A80036" points="188.27,424.08,179.9915,429.4154,185.5295,428.2621,186.6828,433.8001,188.27,424.08" style="stroke:#A80036;stroke-width:1.0;"/><!--MD5=[4eaeef23277a64725f52b80ffa6a10a7]
reverse link ContainersRouteStoreDb to ContainersRoutesController--><path codeLine="27" d="M212.5,293.25 C212.5,310.24 212.5,330.62 212.5,347.86 " fill="none" id="ContainersRouteStoreDb-backto-ContainersRoutesController" style="stroke:#A80036;stroke-width:1.0;stroke-dasharray:7.0,7.0;"/><polygon fill="#A80036" points="212.5,288.1,208.5,297.1,212.5,293.1,216.5,297.1,212.5,288.1" style="stroke:#A80036;stroke-width:1.0;"/><!--MD5=[8f4f77afdfb8adcfc9dc6971f2704cc9]
reverse link ContainersRoute to ContainersRouteStoreDb--><path codeLine="28" d="M170.76,171.27 C180.35,190.73 189.95,210.22 197.52,225.6 " fill="none" id="ContainersRoute-backto-ContainersRouteStoreDb" style="stroke:#A80036;stroke-width:1.0;"/><polygon fill="#A80036" points="168.33,166.32,168.7017,176.1618,170.5317,170.8092,175.8844,172.6391,168.33,166.32" style="stroke:#A80036;stroke-width:1.0;"/><!--MD5=[c8332a46daa2853106a600139bf147b7]
reverse link ContainersRoute to ContainersRoutesUI--><path codeLine="29" d="M96.23,171.18 C90.53,189 85.49,207.91 82.5,226 C68.17,312.83 61.53,338.54 82.5,424 C87.71,445.23 98.9,467.01 109.05,483.82 " fill="none" id="ContainersRoute-backto-ContainersRoutesUI" style="stroke:#A80036;stroke-width:1.0;stroke-dasharray:7.0,7.0;"/><polygon fill="#A80036" points="97.85,166.19,91.2686,173.517,96.3075,170.9461,98.8783,175.985,97.85,166.19" style="stroke:#A80036;stroke-width:1.0;"/><!--MD5=[049474bf3c91fc6202abf86e79ac8b14]
@startuml
'https://plantuml.com/class-diagram

class ContainersRoutesUI {
- controller
}

class ContainersRoutesController {
- ContainersRouteStoreDb
+ getContainersRoutes(userID, containerID)
}

class ContainersRouteStoreDb {
+ getContainersRoutes(userID, containerID)
}

class ContainersRoute {
- startingPoint
- endingPoint
- startingDateTime
- endingDateTime
- transport
+ ContainersRoute(startingPoint, endingPoint,\n startingDateTime, endingDateTime, transport)
+ toString()
}

ContainersRoutesController <.. ContainersRoutesUI
ContainersRouteStoreDb <.. ContainersRoutesController
ContainersRoute <- - ContainersRouteStoreDb
ContainersRoute <.. ContainersRoutesUI

@enduml

@startuml

class ContainersRoutesUI {
- controller
}

class ContainersRoutesController {
- ContainersRouteStoreDb
+ getContainersRoutes(userID, containerID)
}

class ContainersRouteStoreDb {
+ getContainersRoutes(userID, containerID)
}

class ContainersRoute {
- startingPoint
- endingPoint
- startingDateTime
- endingDateTime
- transport
+ ContainersRoute(startingPoint, endingPoint,\n startingDateTime, endingDateTime, transport)
+ toString()
}

ContainersRoutesController <.. ContainersRoutesUI
ContainersRouteStoreDb <.. ContainersRoutesController
ContainersRoute <- - ContainersRouteStoreDb
ContainersRoute <.. ContainersRoutesUI

@enduml

PlantUML version 1.2021.00(Sun Jan 10 10:25:05 GMT 2021)
(GPL source distribution)
Java Runtime: OpenJDK Runtime Environment
JVM: OpenJDK 64-Bit Server VM
Default Encoding: Cp1252
Language: pt
Country: PT
--></g></svg>