<?xml version="1.0" encoding="UTF-8" standalone="no"?><svg xmlns="http://www.w3.org/2000/svg" xmlns:xlink="http://www.w3.org/1999/xlink" contentScriptType="application/ecmascript" contentStyleType="text/css" height="1226px" preserveAspectRatio="none" style="width:364px;height:1226px;" version="1.1" viewBox="0 0 364 1226" width="364px" zoomAndPan="magnify"><defs><filter height="300%" id="fxqd2hj8dgrdn" width="300%" x="-1" y="-1"><feGaussianBlur result="blurOut" stdDeviation="2.0"/><feColorMatrix in="blurOut" result="blurOut2" type="matrix" values="0 0 0 0 0 0 0 0 0 0 0 0 0 0 0 0 0 0 .4 0"/><feOffset dx="4.0" dy="4.0" in="blurOut2" result="blurOut3"/><feBlend in="SourceGraphic" in2="blurOut3" mode="normal"/></filter></defs><g><!--MD5=[02e4b9b7573f1156f41e60aa5b4e25a4]
class Company--><rect codeLine="5" fill="#FEFECE" filter="url(#fxqd2hj8dgrdn)" height="61.8359" id="Company" style="stroke:#A80036;stroke-width:1.5;" width="85" x="139" y="7"/><ellipse cx="154" cy="23" fill="#ADD1B2" rx="11" ry="11" style="stroke:#A80036;stroke-width:1.0;"/><path d="M156,19.5 Q156.2031,19 156.4375,18.75 Q156.6719,18.5 156.9375,18.5 Q157.4063,18.5 157.7031,18.7813 Q158,19.0625 158,19.7188 L158,21.2813 Q158,21.9375 157.7188,22.2188 Q157.4375,22.5 157,22.5 Q156.6094,22.5 156.3594,22.3281 Q156.1094,22.1563 156,21.7031 Q155.9531,21.3906 155.7813,21.2188 Q155.4688,20.8906 154.9063,20.7031 Q154.3438,20.5 153.7813,20.5 Q153.0781,20.5 152.4844,20.7813 Q151.9063,21.0625 151.4531,21.6875 Q151,22.3125 151,23.1719 L151,24.0938 Q151,25.125 151.8438,25.8125 Q152.6875,26.5 154.1875,26.5 Q155.0781,26.5 155.7031,26.2969 Q156.0625,26.1875 156.4688,25.8281 Q156.7344,25.625 156.875,25.5625 Q157.0156,25.5 157.1875,25.5 Q157.5156,25.5 157.75,25.7656 Q158,26.0156 158,26.375 Q158,26.7188 157.6563,27.125 Q157.1563,27.7188 156.3594,28.0469 Q155.3125,28.5 154.0313,28.5 Q152.5313,28.5 151.3281,27.9063 Q150.3594,27.4375 149.6719,26.4219 Q149,25.4063 149,24.2031 L149,23.1094 Q149,21.8594 149.5938,20.7656 Q150.2031,19.6719 151.25,19.0938 Q152.3125,18.5 153.5,18.5 Q154.2188,18.5 154.8438,18.75 Q155.4688,19 156,19.5 Z " fill="#000000"/><text fill="#000000" font-family="sans-serif" font-size="12" lengthAdjust="spacing" textLength="53" x="168" y="27.9102">Company</text><line style="stroke:#A80036;stroke-width:1.5;" x1="140" x2="223" y1="39" y2="39"/><text fill="#000000" font-family="sans-serif" font-size="11" lengthAdjust="spacing" textLength="60" x="145" y="54.4189">-Designation</text><line style="stroke:#A80036;stroke-width:1.5;" x1="140" x2="223" y1="60.8359" y2="60.8359"/><!--MD5=[e9a58730c562b34349daa605d1ed6662]
class Container--><rect codeLine="9" fill="#FEFECE" filter="url(#fxqd2hj8dgrdn)" height="172.5234" id="Container" style="stroke:#A80036;stroke-width:1.5;" width="86" x="195.5" y="872"/><ellipse cx="210.5" cy="888" fill="#ADD1B2" rx="11" ry="11" style="stroke:#A80036;stroke-width:1.0;"/><path d="M212.5,884.5 Q212.7031,884 212.9375,883.75 Q213.1719,883.5 213.4375,883.5 Q213.9063,883.5 214.2031,883.7813 Q214.5,884.0625 214.5,884.7188 L214.5,886.2813 Q214.5,886.9375 214.2188,887.2188 Q213.9375,887.5 213.5,887.5 Q213.1094,887.5 212.8594,887.3281 Q212.6094,887.1563 212.5,886.7031 Q212.4531,886.3906 212.2813,886.2188 Q211.9688,885.8906 211.4063,885.7031 Q210.8438,885.5 210.2813,885.5 Q209.5781,885.5 208.9844,885.7813 Q208.4063,886.0625 207.9531,886.6875 Q207.5,887.3125 207.5,888.1719 L207.5,889.0938 Q207.5,890.125 208.3438,890.8125 Q209.1875,891.5 210.6875,891.5 Q211.5781,891.5 212.2031,891.2969 Q212.5625,891.1875 212.9688,890.8281 Q213.2344,890.625 213.375,890.5625 Q213.5156,890.5 213.6875,890.5 Q214.0156,890.5 214.25,890.7656 Q214.5,891.0156 214.5,891.375 Q214.5,891.7188 214.1563,892.125 Q213.6563,892.7188 212.8594,893.0469 Q211.8125,893.5 210.5313,893.5 Q209.0313,893.5 207.8281,892.9063 Q206.8594,892.4375 206.1719,891.4219 Q205.5,890.4063 205.5,889.2031 L205.5,888.1094 Q205.5,886.8594 206.0938,885.7656 Q206.7031,884.6719 207.75,884.0938 Q208.8125,883.5 210,883.5 Q210.7188,883.5 211.3438,883.75 Q211.9688,884 212.5,884.5 Z " fill="#000000"/><text fill="#000000" font-family="sans-serif" font-size="12" lengthAdjust="spacing" textLength="54" x="224.5" y="892.9102">Container</text><line style="stroke:#A80036;stroke-width:1.5;" x1="196.5" x2="280.5" y1="904" y2="904"/><text fill="#000000" font-family="sans-serif" font-size="11" lengthAdjust="spacing" textLength="64" x="201.5" y="919.4189">-Identification</text><text fill="#000000" font-family="sans-serif" font-size="11" lengthAdjust="spacing" textLength="42" x="201.5" y="933.2549">-Payload</text><text fill="#000000" font-family="sans-serif" font-size="11" lengthAdjust="spacing" textLength="26" x="201.5" y="947.0908">-Tare</text><text fill="#000000" font-family="sans-serif" font-size="11" lengthAdjust="spacing" textLength="34" x="201.5" y="960.9268">-Gross</text><text fill="#000000" font-family="sans-serif" font-size="11" lengthAdjust="spacing" textLength="31" x="201.5" y="974.7627">-Width</text><text fill="#000000" font-family="sans-serif" font-size="11" lengthAdjust="spacing" textLength="34" x="201.5" y="988.5986">-Height</text><text fill="#000000" font-family="sans-serif" font-size="11" lengthAdjust="spacing" textLength="37" x="201.5" y="1002.4346">-Length</text><text fill="#000000" font-family="sans-serif" font-size="11" lengthAdjust="spacing" textLength="64" x="201.5" y="1016.2705">-Refrigerated</text><text fill="#000000" font-family="sans-serif" font-size="11" lengthAdjust="spacing" textLength="65" x="201.5" y="1030.1064">-Temperature</text><line style="stroke:#A80036;stroke-width:1.5;" x1="196.5" x2="280.5" y1="1036.5234" y2="1036.5234"/><!--MD5=[0dc7f2ddb409b58bcf52b12238c25399]
class Ship--><rect codeLine="21" fill="#FEFECE" filter="url(#fxqd2hj8dgrdn)" height="241.7031" id="Ship" style="stroke:#A80036;stroke-width:1.5;" width="161" x="25" y="147"/><ellipse cx="88.75" cy="163" fill="#ADD1B2" rx="11" ry="11" style="stroke:#A80036;stroke-width:1.0;"/><path d="M90.75,159.5 Q90.9531,159 91.1875,158.75 Q91.4219,158.5 91.6875,158.5 Q92.1563,158.5 92.4531,158.7813 Q92.75,159.0625 92.75,159.7188 L92.75,161.2813 Q92.75,161.9375 92.4688,162.2188 Q92.1875,162.5 91.75,162.5 Q91.3594,162.5 91.1094,162.3281 Q90.8594,162.1563 90.75,161.7031 Q90.7031,161.3906 90.5313,161.2188 Q90.2188,160.8906 89.6563,160.7031 Q89.0938,160.5 88.5313,160.5 Q87.8281,160.5 87.2344,160.7813 Q86.6563,161.0625 86.2031,161.6875 Q85.75,162.3125 85.75,163.1719 L85.75,164.0938 Q85.75,165.125 86.5938,165.8125 Q87.4375,166.5 88.9375,166.5 Q89.8281,166.5 90.4531,166.2969 Q90.8125,166.1875 91.2188,165.8281 Q91.4844,165.625 91.625,165.5625 Q91.7656,165.5 91.9375,165.5 Q92.2656,165.5 92.5,165.7656 Q92.75,166.0156 92.75,166.375 Q92.75,166.7188 92.4063,167.125 Q91.9063,167.7188 91.1094,168.0469 Q90.0625,168.5 88.7813,168.5 Q87.2813,168.5 86.0781,167.9063 Q85.1094,167.4375 84.4219,166.4219 Q83.75,165.4063 83.75,164.2031 L83.75,163.1094 Q83.75,161.8594 84.3438,160.7656 Q84.9531,159.6719 86,159.0938 Q87.0625,158.5 88.25,158.5 Q88.9688,158.5 89.5938,158.75 Q90.2188,159 90.75,159.5 Z " fill="#000000"/><text fill="#000000" font-family="sans-serif" font-size="12" lengthAdjust="spacing" textLength="25" x="109.25" y="167.9102">Ship</text><line style="stroke:#A80036;stroke-width:1.5;" x1="26" x2="185" y1="179" y2="179"/><text fill="#000000" font-family="sans-serif" font-size="11" lengthAdjust="spacing" textLength="29" x="31" y="194.4189">-MMSI</text><text fill="#000000" font-family="sans-serif" font-size="11" lengthAdjust="spacing" textLength="31" x="31" y="208.2549">-Name</text><text fill="#000000" font-family="sans-serif" font-size="11" lengthAdjust="spacing" textLength="22" x="31" y="222.0908">-IMO</text><text fill="#000000" font-family="sans-serif" font-size="11" lengthAdjust="spacing" textLength="149" x="31" y="235.9268">-Number of Energy Generators</text><text fill="#000000" font-family="sans-serif" font-size="11" lengthAdjust="spacing" textLength="131" x="31" y="249.7627">-Generators' Power Output</text><text fill="#000000" font-family="sans-serif" font-size="11" lengthAdjust="spacing" textLength="44" x="31" y="263.5986">-Call sign</text><text fill="#000000" font-family="sans-serif" font-size="11" lengthAdjust="spacing" textLength="62" x="31" y="277.4346">-Vessel type</text><text fill="#000000" font-family="sans-serif" font-size="11" lengthAdjust="spacing" textLength="37" x="31" y="291.2705">-Length</text><text fill="#000000" font-family="sans-serif" font-size="11" lengthAdjust="spacing" textLength="31" x="31" y="305.1064">-Width</text><text fill="#000000" font-family="sans-serif" font-size="11" lengthAdjust="spacing" textLength="46" x="31" y="318.9424">-Capacity</text><text fill="#000000" font-family="sans-serif" font-size="11" lengthAdjust="spacing" textLength="28" x="31" y="332.7783">-Draft</text><text fill="#000000" font-family="sans-serif" font-size="11" lengthAdjust="spacing" textLength="69" x="31" y="346.6143">-FleetManager</text><text fill="#000000" font-family="sans-serif" font-size="11" lengthAdjust="spacing" textLength="61" x="31" y="360.4502">-ShipCaptain</text><text fill="#000000" font-family="sans-serif" font-size="11" lengthAdjust="spacing" textLength="135" x="31" y="374.2861">-ShipChiefElectricalEngineer</text><line style="stroke:#A80036;stroke-width:1.5;" x1="26" x2="185" y1="380.7031" y2="380.7031"/><!--MD5=[1c0c3765e68dc4575d559b566278b914]
class ShipPosition--><rect codeLine="38" fill="#FEFECE" filter="url(#fxqd2hj8dgrdn)" height="158.6875" id="ShipPosition" style="stroke:#A80036;stroke-width:1.5;" width="139" x="7" y="467"/><ellipse cx="38.65" cy="483" fill="#ADD1B2" rx="11" ry="11" style="stroke:#A80036;stroke-width:1.0;"/><path d="M40.65,479.5 Q40.8531,479 41.0875,478.75 Q41.3219,478.5 41.5875,478.5 Q42.0563,478.5 42.3531,478.7813 Q42.65,479.0625 42.65,479.7188 L42.65,481.2813 Q42.65,481.9375 42.3688,482.2188 Q42.0875,482.5 41.65,482.5 Q41.2594,482.5 41.0094,482.3281 Q40.7594,482.1563 40.65,481.7031 Q40.6031,481.3906 40.4313,481.2188 Q40.1188,480.8906 39.5563,480.7031 Q38.9938,480.5 38.4313,480.5 Q37.7281,480.5 37.1344,480.7813 Q36.5563,481.0625 36.1031,481.6875 Q35.65,482.3125 35.65,483.1719 L35.65,484.0938 Q35.65,485.125 36.4938,485.8125 Q37.3375,486.5 38.8375,486.5 Q39.7281,486.5 40.3531,486.2969 Q40.7125,486.1875 41.1188,485.8281 Q41.3844,485.625 41.525,485.5625 Q41.6656,485.5 41.8375,485.5 Q42.1656,485.5 42.4,485.7656 Q42.65,486.0156 42.65,486.375 Q42.65,486.7188 42.3063,487.125 Q41.8063,487.7188 41.0094,488.0469 Q39.9625,488.5 38.6813,488.5 Q37.1813,488.5 35.9781,487.9063 Q35.0094,487.4375 34.3219,486.4219 Q33.65,485.4063 33.65,484.2031 L33.65,483.1094 Q33.65,481.8594 34.2438,480.7656 Q34.8531,479.6719 35.9,479.0938 Q36.9625,478.5 38.15,478.5 Q38.8688,478.5 39.4938,478.75 Q40.1188,479 40.65,479.5 Z " fill="#000000"/><text fill="#000000" font-family="sans-serif" font-size="12" lengthAdjust="spacing" textLength="70" x="56.35" y="487.9102">ShipPosition</text><line style="stroke:#A80036;stroke-width:1.5;" x1="8" x2="145" y1="499" y2="499"/><text fill="#000000" font-family="sans-serif" font-size="11" lengthAdjust="spacing" textLength="79" x="13" y="514.4189">-Base Date Time</text><text fill="#000000" font-family="sans-serif" font-size="11" lengthAdjust="spacing" textLength="42" x="13" y="528.2549">-Latitude</text><text fill="#000000" font-family="sans-serif" font-size="11" lengthAdjust="spacing" textLength="51" x="13" y="542.0908">-Longitude</text><text fill="#000000" font-family="sans-serif" font-size="11" lengthAdjust="spacing" textLength="123" x="13" y="555.9268">-Speed over ground SOG</text><text fill="#000000" font-family="sans-serif" font-size="11" lengthAdjust="spacing" textLength="127" x="13" y="569.7627">-Course over ground COG</text><text fill="#000000" font-family="sans-serif" font-size="11" lengthAdjust="spacing" textLength="43" x="13" y="583.5986">-Heading</text><text fill="#000000" font-family="sans-serif" font-size="11" lengthAdjust="spacing" textLength="41" x="13" y="597.4346">-Position</text><text fill="#000000" font-family="sans-serif" font-size="11" lengthAdjust="spacing" textLength="92" x="13" y="611.2705">-Transceiver Class</text><line style="stroke:#A80036;stroke-width:1.5;" x1="8" x2="145" y1="617.6875" y2="617.6875"/><!--MD5=[f2ba7f6ab60af8dd0d3e354f91729b14]
class Truck--><rect codeLine="49" fill="#FEFECE" filter="url(#fxqd2hj8dgrdn)" height="61.8359" id="Truck" style="stroke:#A80036;stroke-width:1.5;" width="72" x="221.5" y="237"/><ellipse cx="241" cy="253" fill="#ADD1B2" rx="11" ry="11" style="stroke:#A80036;stroke-width:1.0;"/><path d="M243,249.5 Q243.2031,249 243.4375,248.75 Q243.6719,248.5 243.9375,248.5 Q244.4063,248.5 244.7031,248.7813 Q245,249.0625 245,249.7188 L245,251.2813 Q245,251.9375 244.7188,252.2188 Q244.4375,252.5 244,252.5 Q243.6094,252.5 243.3594,252.3281 Q243.1094,252.1563 243,251.7031 Q242.9531,251.3906 242.7813,251.2188 Q242.4688,250.8906 241.9063,250.7031 Q241.3438,250.5 240.7813,250.5 Q240.0781,250.5 239.4844,250.7813 Q238.9063,251.0625 238.4531,251.6875 Q238,252.3125 238,253.1719 L238,254.0938 Q238,255.125 238.8438,255.8125 Q239.6875,256.5 241.1875,256.5 Q242.0781,256.5 242.7031,256.2969 Q243.0625,256.1875 243.4688,255.8281 Q243.7344,255.625 243.875,255.5625 Q244.0156,255.5 244.1875,255.5 Q244.5156,255.5 244.75,255.7656 Q245,256.0156 245,256.375 Q245,256.7188 244.6563,257.125 Q244.1563,257.7188 243.3594,258.0469 Q242.3125,258.5 241.0313,258.5 Q239.5313,258.5 238.3281,257.9063 Q237.3594,257.4375 236.6719,256.4219 Q236,255.4063 236,254.2031 L236,253.1094 Q236,251.8594 236.5938,250.7656 Q237.2031,249.6719 238.25,249.0938 Q239.3125,248.5 240.5,248.5 Q241.2188,248.5 241.8438,248.75 Q242.4688,249 243,249.5 Z " fill="#000000"/><text fill="#000000" font-family="sans-serif" font-size="12" lengthAdjust="spacing" textLength="30" x="256" y="257.9102">Truck</text><line style="stroke:#A80036;stroke-width:1.5;" x1="222.5" x2="292.5" y1="269" y2="269"/><text fill="#000000" font-family="sans-serif" font-size="11" lengthAdjust="spacing" textLength="60" x="227.5" y="284.4189">-TruckDriver</text><line style="stroke:#A80036;stroke-width:1.5;" x1="222.5" x2="292.5" y1="290.8359" y2="290.8359"/><!--MD5=[ed6624c6556d5e7b1bd23032162d20b7]
class Client--><rect codeLine="53" fill="#FEFECE" filter="url(#fxqd2hj8dgrdn)" height="89.5078" id="Client" style="stroke:#A80036;stroke-width:1.5;" width="88" x="194.5" y="1123"/><ellipse cx="220.3" cy="1139" fill="#ADD1B2" rx="11" ry="11" style="stroke:#A80036;stroke-width:1.0;"/><path d="M222.3,1135.5 Q222.5031,1135 222.7375,1134.75 Q222.9719,1134.5 223.2375,1134.5 Q223.7063,1134.5 224.0031,1134.7813 Q224.3,1135.0625 224.3,1135.7188 L224.3,1137.2813 Q224.3,1137.9375 224.0188,1138.2188 Q223.7375,1138.5 223.3,1138.5 Q222.9094,1138.5 222.6594,1138.3281 Q222.4094,1138.1563 222.3,1137.7031 Q222.2531,1137.3906 222.0813,1137.2188 Q221.7688,1136.8906 221.2063,1136.7031 Q220.6438,1136.5 220.0813,1136.5 Q219.3781,1136.5 218.7844,1136.7813 Q218.2063,1137.0625 217.7531,1137.6875 Q217.3,1138.3125 217.3,1139.1719 L217.3,1140.0938 Q217.3,1141.125 218.1438,1141.8125 Q218.9875,1142.5 220.4875,1142.5 Q221.3781,1142.5 222.0031,1142.2969 Q222.3625,1142.1875 222.7688,1141.8281 Q223.0344,1141.625 223.175,1141.5625 Q223.3156,1141.5 223.4875,1141.5 Q223.8156,1141.5 224.05,1141.7656 Q224.3,1142.0156 224.3,1142.375 Q224.3,1142.7188 223.9563,1143.125 Q223.4563,1143.7188 222.6594,1144.0469 Q221.6125,1144.5 220.3313,1144.5 Q218.8313,1144.5 217.6281,1143.9063 Q216.6594,1143.4375 215.9719,1142.4219 Q215.3,1141.4063 215.3,1140.2031 L215.3,1139.1094 Q215.3,1137.8594 215.8938,1136.7656 Q216.5031,1135.6719 217.55,1135.0938 Q218.6125,1134.5 219.8,1134.5 Q220.5188,1134.5 221.1438,1134.75 Q221.7688,1135 222.3,1135.5 Z " fill="#000000"/><text fill="#000000" font-family="sans-serif" font-size="12" lengthAdjust="spacing" textLength="32" x="236.7" y="1143.9102">Client</text><line style="stroke:#A80036;stroke-width:1.5;" x1="195.5" x2="281.5" y1="1155" y2="1155"/><text fill="#000000" font-family="sans-serif" font-size="11" lengthAdjust="spacing" textLength="31" x="200.5" y="1170.4189">-Name</text><text fill="#000000" font-family="sans-serif" font-size="11" lengthAdjust="spacing" textLength="46" x="200.5" y="1184.2549">-Address</text><text fill="#000000" font-family="sans-serif" font-size="11" lengthAdjust="spacing" textLength="76" x="200.5" y="1198.0908">-Phone_number</text><line style="stroke:#A80036;stroke-width:1.5;" x1="195.5" x2="281.5" y1="1204.5078" y2="1204.5078"/><!--MD5=[76562047389981627aea27c31a97aff5]
class CargoManifest--><rect codeLine="59" fill="#FEFECE" filter="url(#fxqd2hj8dgrdn)" height="89.5078" id="CargoManifest" style="stroke:#A80036;stroke-width:1.5;" width="112" x="182.5" y="704"/><ellipse cx="197.5" cy="720" fill="#ADD1B2" rx="11" ry="11" style="stroke:#A80036;stroke-width:1.0;"/><path d="M199.5,716.5 Q199.7031,716 199.9375,715.75 Q200.1719,715.5 200.4375,715.5 Q200.9063,715.5 201.2031,715.7813 Q201.5,716.0625 201.5,716.7188 L201.5,718.2813 Q201.5,718.9375 201.2188,719.2188 Q200.9375,719.5 200.5,719.5 Q200.1094,719.5 199.8594,719.3281 Q199.6094,719.1563 199.5,718.7031 Q199.4531,718.3906 199.2813,718.2188 Q198.9688,717.8906 198.4063,717.7031 Q197.8438,717.5 197.2813,717.5 Q196.5781,717.5 195.9844,717.7813 Q195.4063,718.0625 194.9531,718.6875 Q194.5,719.3125 194.5,720.1719 L194.5,721.0938 Q194.5,722.125 195.3438,722.8125 Q196.1875,723.5 197.6875,723.5 Q198.5781,723.5 199.2031,723.2969 Q199.5625,723.1875 199.9688,722.8281 Q200.2344,722.625 200.375,722.5625 Q200.5156,722.5 200.6875,722.5 Q201.0156,722.5 201.25,722.7656 Q201.5,723.0156 201.5,723.375 Q201.5,723.7188 201.1563,724.125 Q200.6563,724.7188 199.8594,725.0469 Q198.8125,725.5 197.5313,725.5 Q196.0313,725.5 194.8281,724.9063 Q193.8594,724.4375 193.1719,723.4219 Q192.5,722.4063 192.5,721.2031 L192.5,720.1094 Q192.5,718.8594 193.0938,717.7656 Q193.7031,716.6719 194.75,716.0938 Q195.8125,715.5 197,715.5 Q197.7188,715.5 198.3438,715.75 Q198.9688,716 199.5,716.5 Z " fill="#000000"/><text fill="#000000" font-family="sans-serif" font-size="12" lengthAdjust="spacing" textLength="80" x="211.5" y="724.9102">CargoManifest</text><line style="stroke:#A80036;stroke-width:1.5;" x1="183.5" x2="293.5" y1="736" y2="736"/><text fill="#000000" font-family="sans-serif" font-size="11" lengthAdjust="spacing" textLength="57" x="188.5" y="751.4189">-Destination</text><text fill="#000000" font-family="sans-serif" font-size="11" lengthAdjust="spacing" textLength="79" x="188.5" y="765.2549">-Date_time_start</text><text fill="#000000" font-family="sans-serif" font-size="11" lengthAdjust="spacing" textLength="75" x="188.5" y="779.0908">-Date_time_end</text><line style="stroke:#A80036;stroke-width:1.5;" x1="183.5" x2="293.5" y1="785.5078" y2="785.5078"/><!--MD5=[18f5b4ccae6e62f3670d3aa352beb4cd]
class Trip--><rect codeLine="65" fill="#FEFECE" filter="url(#fxqd2hj8dgrdn)" height="75.6719" id="Trip" style="stroke:#A80036;stroke-width:1.5;" width="79" x="199" y="508.5"/><ellipse cx="225.7" cy="524.5" fill="#ADD1B2" rx="11" ry="11" style="stroke:#A80036;stroke-width:1.0;"/><path d="M227.7,521 Q227.9031,520.5 228.1375,520.25 Q228.3719,520 228.6375,520 Q229.1063,520 229.4031,520.2813 Q229.7,520.5625 229.7,521.2188 L229.7,522.7813 Q229.7,523.4375 229.4188,523.7188 Q229.1375,524 228.7,524 Q228.3094,524 228.0594,523.8281 Q227.8094,523.6563 227.7,523.2031 Q227.6531,522.8906 227.4813,522.7188 Q227.1688,522.3906 226.6063,522.2031 Q226.0438,522 225.4813,522 Q224.7781,522 224.1844,522.2813 Q223.6063,522.5625 223.1531,523.1875 Q222.7,523.8125 222.7,524.6719 L222.7,525.5938 Q222.7,526.625 223.5438,527.3125 Q224.3875,528 225.8875,528 Q226.7781,528 227.4031,527.7969 Q227.7625,527.6875 228.1688,527.3281 Q228.4344,527.125 228.575,527.0625 Q228.7156,527 228.8875,527 Q229.2156,527 229.45,527.2656 Q229.7,527.5156 229.7,527.875 Q229.7,528.2188 229.3563,528.625 Q228.8563,529.2188 228.0594,529.5469 Q227.0125,530 225.7313,530 Q224.2313,530 223.0281,529.4063 Q222.0594,528.9375 221.3719,527.9219 Q220.7,526.9063 220.7,525.7031 L220.7,524.6094 Q220.7,523.3594 221.2938,522.2656 Q221.9031,521.1719 222.95,520.5938 Q224.0125,520 225.2,520 Q225.9188,520 226.5438,520.25 Q227.1688,520.5 227.7,521 Z " fill="#000000"/><text fill="#000000" font-family="sans-serif" font-size="12" lengthAdjust="spacing" textLength="21" x="242.3" y="529.4102">Trip</text><line style="stroke:#A80036;stroke-width:1.5;" x1="200" x2="277" y1="540.5" y2="540.5"/><text fill="#000000" font-family="sans-serif" font-size="11" lengthAdjust="spacing" textLength="67" x="205" y="555.9189">-Starting point</text><text fill="#000000" font-family="sans-serif" font-size="11" lengthAdjust="spacing" textLength="57" x="205" y="569.7549">-Destination</text><line style="stroke:#A80036;stroke-width:1.5;" x1="200" x2="277" y1="576.1719" y2="576.1719"/><!--MD5=[37a14a5de6d6fd738aee271300f4b5c8]
link Company to Ship--><path codeLine="70" d="M164.27,69.24 C159.38,78.59 154.35,89.05 150.5,99 C144.61,114.21 139.21,130.47 134.34,146.67 " fill="none" id="Company-Ship" style="stroke:#A80036;stroke-width:1.0;"/><polygon fill="#000000" points="153.6973,112.8395,159.6997,105.4624,154.2172,103.3431,153.6973,112.8395" style="stroke:#000000;stroke-width:1.0;"/><text fill="#000000" font-family="sans-serif" font-size="13" lengthAdjust="spacing" textLength="33" x="164.5" y="113.4951">Owns</text><text fill="#000000" font-family="sans-serif" font-size="13" lengthAdjust="spacing" textLength="7" x="153.3183" y="90.2644">1</text><text fill="#000000" font-family="sans-serif" font-size="13" lengthAdjust="spacing" textLength="20" x="115.4881" y="136.3038">1..*</text><!--MD5=[710b10ea314ec23c5eb602bd01bfa9d5]
link Company to Truck--><path codeLine="71" d="M192.2,69.17 C195.54,78.7 199.21,89.28 202.5,99 C218.79,147.11 237.01,203.23 247.85,236.89 " fill="none" id="Company-Truck" style="stroke:#A80036;stroke-width:1.0;"/><polygon fill="#000000" points="214.0746,112.9214,214.0155,103.411,208.4367,105.262,214.0746,112.9214" style="stroke:#000000;stroke-width:1.0;"/><text fill="#000000" font-family="sans-serif" font-size="13" lengthAdjust="spacing" textLength="33" x="221.5" y="113.4951">Owns</text><text fill="#000000" font-family="sans-serif" font-size="13" lengthAdjust="spacing" textLength="7" x="186.6175" y="90.4275">1</text><text fill="#000000" font-family="sans-serif" font-size="13" lengthAdjust="spacing" textLength="20" x="223.7972" y="226.3719">1..*</text><!--MD5=[7c2ed8f842290e081d69a6d4a2daa6d0]
link Ship to Trip--><path codeLine="72" d="M151.55,389.32 C158.52,405.52 165.92,421.79 173.5,437 C185.64,461.37 201.27,487.59 214.16,508.15 " fill="none" id="Ship-Trip" style="stroke:#A80036;stroke-width:1.0;"/><polygon fill="#000000" points="180.8307,432.5993,179.2145,423.2271,174.0143,425.967,180.8307,432.5993" style="stroke:#000000;stroke-width:1.0;"/><text fill="#000000" font-family="sans-serif" font-size="13" lengthAdjust="spacing" textLength="50" x="187.5" y="433.4951">performs</text><text fill="#000000" font-family="sans-serif" font-size="13" lengthAdjust="spacing" textLength="7" x="147.0099" y="410.3102">1</text><text fill="#000000" font-family="sans-serif" font-size="13" lengthAdjust="spacing" textLength="5" x="204.5469" y="497.7371">*</text><!--MD5=[17b7ccf869bd0829dc5fdfacb355ba75]
link Trip to CargoManifest--><path codeLine="73" d="M238.5,584.74 C238.5,618.49 238.5,668.26 238.5,703.97 " fill="none" id="Trip-CargoManifest" style="stroke:#A80036;stroke-width:1.0;"/><polygon fill="#000000" points="243.5,670.1758,246.4389,661.1307,240.5611,661.1307,243.5,670.1758" style="stroke:#000000;stroke-width:1.0;"/><text fill="#000000" font-family="sans-serif" font-size="13" lengthAdjust="spacing" textLength="21" x="252.5" y="670.4951">has</text><text fill="#000000" font-family="sans-serif" font-size="13" lengthAdjust="spacing" textLength="20" x="216.9063" y="605.6588">1..*</text><text fill="#000000" font-family="sans-serif" font-size="13" lengthAdjust="spacing" textLength="20" x="216.9063" y="693.0807">1..*</text><!--MD5=[f56e222e1748568825f030a9b791275e]
link Ship to ShipPosition--><path codeLine="74" d="M77.51,389.4 C75.9,399.38 74.52,409.33 73.5,419 C72.66,426.96 73.39,429 73.5,437 C73.63,446.7 73.84,456.89 74.07,466.98 " fill="none" id="Ship-ShipPosition" style="stroke:#A80036;stroke-width:1.0;"/><polygon fill="#000000" points="78.2785,433.1709,81.6152,424.2649,75.7431,424.0045,78.2785,433.1709" style="stroke:#000000;stroke-width:1.0;"/><text fill="#000000" font-family="sans-serif" font-size="13" lengthAdjust="spacing" textLength="21" x="87.5" y="433.4951">has</text><text fill="#000000" font-family="sans-serif" font-size="13" lengthAdjust="spacing" textLength="7" x="68.6895" y="410.3948">1</text><text fill="#000000" font-family="sans-serif" font-size="13" lengthAdjust="spacing" textLength="20" x="52.8853" y="456.165">1..*</text><!--MD5=[e9affaa5b50bfb6258ed16f30d9b3949]
link Truck to Trip--><path codeLine="75" d="M255.43,299.12 C251.93,350.06 244.85,453.1 241.05,508.41 " fill="none" id="Truck-Trip" style="stroke:#A80036;stroke-width:1.0;"/><polygon fill="#000000" points="252.1573,433.164,255.7093,424.3417,249.8453,423.9388,252.1573,433.164" style="stroke:#000000;stroke-width:1.0;"/><text fill="#000000" font-family="sans-serif" font-size="13" lengthAdjust="spacing" textLength="50" x="261.5" y="433.4951">performs</text><text fill="#000000" font-family="sans-serif" font-size="13" lengthAdjust="spacing" textLength="7" x="247.3334" y="320.3676">1</text><text fill="#000000" font-family="sans-serif" font-size="13" lengthAdjust="spacing" textLength="5" x="236.0589" y="497.7559">*</text><!--MD5=[a93f71c337684849482b0ec5675aa7db]
link CargoManifest to Container--><path codeLine="76" d="M238.5,794.01 C238.5,816.61 238.5,844.95 238.5,871.66 " fill="none" id="CargoManifest-Container" style="stroke:#A80036;stroke-width:1.0;"/><polygon fill="#000000" points="243.5,838.1758,246.4389,829.1307,240.5611,829.1307,243.5,838.1758" style="stroke:#000000;stroke-width:1.0;"/><text fill="#000000" font-family="sans-serif" font-size="13" lengthAdjust="spacing" textLength="84" x="252.5" y="838.4951">Keeps track of</text><text fill="#000000" font-family="sans-serif" font-size="13" lengthAdjust="spacing" textLength="5" x="233.1484" y="815.019">*</text><text fill="#000000" font-family="sans-serif" font-size="13" lengthAdjust="spacing" textLength="20" x="217.6406" y="861.0404">1..*</text><!--MD5=[8b95926aa8f68cb7f444084257cd34f6]
link Container to Client--><path codeLine="77" d="M238.5,1045.1 C238.5,1071.78 238.5,1100.11 238.5,1122.74 " fill="none" id="Container-Client" style="stroke:#A80036;stroke-width:1.0;"/><polygon fill="#000000" points="243.5,1089.1758,246.4389,1080.1307,240.5611,1080.1307,243.5,1089.1758" style="stroke:#000000;stroke-width:1.0;"/><text fill="#000000" font-family="sans-serif" font-size="13" lengthAdjust="spacing" textLength="104" x="252.5" y="1089.4951">tranports goods of</text><text fill="#000000" font-family="sans-serif" font-size="13" lengthAdjust="spacing" textLength="20" x="217.7031" y="1066.1666">1..*</text><text fill="#000000" font-family="sans-serif" font-size="13" lengthAdjust="spacing" textLength="7" x="230.9641" y="1112.1443">1</text><!--MD5=[0efee451646761008bb7d643f3c7443f]
@startuml
'https://plantuml.com/class-diagram

skinparam classAttributeIconSize 0

class Company {
-Designation
}

class Container {
-Identification
-Payload
-Tare
-Gross
-Width
-Height
-Length
-Refrigerated
-Temperature
}

class Ship {
-MMSI
-Name
-IMO
-Number of Energy Generators
-Generators' Power Output
-Call sign
-Vessel type
-Length
-Width
-Capacity
-Draft
-FleetManager
-ShipCaptain
-ShipChiefElectricalEngineer
}

class ShipPosition {
-Base Date Time
-Latitude
-Longitude
-Speed over ground SOG
-Course over ground COG
-Heading
-Position
-Transceiver Class
}

class Truck {
-TruckDriver
}

class Client {
-Name
-Address
-Phone_number
}

class CargoManifest {
-Destination
-Date_time_start
-Date_time_end
}

class Trip {
-Starting point
-Destination
}

Company "1" - - "1..*" Ship : Owns >
Company "1" - - "1..*" Truck : Owns >
Ship "1" - - "*" Trip : performs >
Trip "1..*" - - "1..*" CargoManifest : has >
Ship "1" - - "1..*" ShipPosition : has >
Truck "1" - - "*" Trip : performs >
CargoManifest "*" - - "1..*" Container : Keeps track of >
Container "1..*" - - "1" Client : tranports goods of >


@enduml

@startuml

skinparam classAttributeIconSize 0

class Company {
-Designation
}

class Container {
-Identification
-Payload
-Tare
-Gross
-Width
-Height
-Length
-Refrigerated
-Temperature
}

class Ship {
-MMSI
-Name
-IMO
-Number of Energy Generators
-Generators' Power Output
-Call sign
-Vessel type
-Length
-Width
-Capacity
-Draft
-FleetManager
-ShipCaptain
-ShipChiefElectricalEngineer
}

class ShipPosition {
-Base Date Time
-Latitude
-Longitude
-Speed over ground SOG
-Course over ground COG
-Heading
-Position
-Transceiver Class
}

class Truck {
-TruckDriver
}

class Client {
-Name
-Address
-Phone_number
}

class CargoManifest {
-Destination
-Date_time_start
-Date_time_end
}

class Trip {
-Starting point
-Destination
}

Company "1" - - "1..*" Ship : Owns >
Company "1" - - "1..*" Truck : Owns >
Ship "1" - - "*" Trip : performs >
Trip "1..*" - - "1..*" CargoManifest : has >
Ship "1" - - "1..*" ShipPosition : has >
Truck "1" - - "*" Trip : performs >
CargoManifest "*" - - "1..*" Container : Keeps track of >
Container "1..*" - - "1" Client : tranports goods of >


@enduml

PlantUML version 1.2021.00(Sun Jan 10 10:25:05 GMT 2021)
(GPL source distribution)
Java Runtime: OpenJDK Runtime Environment
JVM: OpenJDK 64-Bit Server VM
Default Encoding: Cp1252
Language: pt
Country: PT
--></g></svg>