<?xml version="1.0" encoding="UTF-8" standalone="no"?><svg xmlns="http://www.w3.org/2000/svg" xmlns:xlink="http://www.w3.org/1999/xlink" contentScriptType="application/ecmascript" contentStyleType="text/css" height="409px" preserveAspectRatio="none" style="width:553px;height:409px;" version="1.1" viewBox="0 0 553 409" width="553px" zoomAndPan="magnify"><defs><filter height="300%" id="fr1tj8vgd01v3" width="300%" x="-1" y="-1"><feGaussianBlur result="blurOut" stdDeviation="2.0"/><feColorMatrix in="blurOut" result="blurOut2" type="matrix" values="0 0 0 0 0 0 0 0 0 0 0 0 0 0 0 0 0 0 .4 0"/><feOffset dx="4.0" dy="4.0" in="blurOut2" result="blurOut3"/><feBlend in="SourceGraphic" in2="blurOut3" mode="normal"/></filter></defs><g><!--MD5=[504fbadd8bbd9d704c0fb02b173767fe]
class ImportPortsUI--><rect codeLine="3" fill="#FEFECE" filter="url(#fr1tj8vgd01v3)" height="61.8359" id="ImportPortsUI" style="stroke:#A80036;stroke-width:1.5;" width="108" x="258.5" y="334"/><ellipse cx="273.5" cy="350" fill="#ADD1B2" rx="11" ry="11" style="stroke:#A80036;stroke-width:1.0;"/><path d="M275.5,346.5 Q275.7031,346 275.9375,345.75 Q276.1719,345.5 276.4375,345.5 Q276.9063,345.5 277.2031,345.7813 Q277.5,346.0625 277.5,346.7188 L277.5,348.2813 Q277.5,348.9375 277.2188,349.2188 Q276.9375,349.5 276.5,349.5 Q276.1094,349.5 275.8594,349.3281 Q275.6094,349.1563 275.5,348.7031 Q275.4531,348.3906 275.2813,348.2188 Q274.9688,347.8906 274.4063,347.7031 Q273.8438,347.5 273.2813,347.5 Q272.5781,347.5 271.9844,347.7813 Q271.4063,348.0625 270.9531,348.6875 Q270.5,349.3125 270.5,350.1719 L270.5,351.0938 Q270.5,352.125 271.3438,352.8125 Q272.1875,353.5 273.6875,353.5 Q274.5781,353.5 275.2031,353.2969 Q275.5625,353.1875 275.9688,352.8281 Q276.2344,352.625 276.375,352.5625 Q276.5156,352.5 276.6875,352.5 Q277.0156,352.5 277.25,352.7656 Q277.5,353.0156 277.5,353.375 Q277.5,353.7188 277.1563,354.125 Q276.6563,354.7188 275.8594,355.0469 Q274.8125,355.5 273.5313,355.5 Q272.0313,355.5 270.8281,354.9063 Q269.8594,354.4375 269.1719,353.4219 Q268.5,352.4063 268.5,351.2031 L268.5,350.1094 Q268.5,348.8594 269.0938,347.7656 Q269.7031,346.6719 270.75,346.0938 Q271.8125,345.5 273,345.5 Q273.7188,345.5 274.3438,345.75 Q274.9688,346 275.5,346.5 Z " fill="#000000"/><text fill="#000000" font-family="sans-serif" font-size="12" lengthAdjust="spacing" textLength="76" x="287.5" y="354.9102">ImportPortsUI</text><line style="stroke:#A80036;stroke-width:1.5;" x1="259.5" x2="365.5" y1="366" y2="366"/><rect fill="none" height="6" style="stroke:#C82930;stroke-width:1.0;" width="6" x="266.5" y="374"/><text fill="#000000" font-family="sans-serif" font-size="11" lengthAdjust="spacing" textLength="45" x="278.5" y="381.4189">controller</text><line style="stroke:#A80036;stroke-width:1.5;" x1="259.5" x2="365.5" y1="387.8359" y2="387.8359"/><!--MD5=[7fa9be3100fa8818883210857b4be419]
class ImportPortsController--><rect codeLine="7" fill="#FEFECE" filter="url(#fr1tj8vgd01v3)" height="61.8359" id="ImportPortsController" style="stroke:#A80036;stroke-width:1.5;" width="150" x="237.5" y="212"/><ellipse cx="252.5" cy="228" fill="#ADD1B2" rx="11" ry="11" style="stroke:#A80036;stroke-width:1.0;"/><path d="M254.5,224.5 Q254.7031,224 254.9375,223.75 Q255.1719,223.5 255.4375,223.5 Q255.9063,223.5 256.2031,223.7813 Q256.5,224.0625 256.5,224.7188 L256.5,226.2813 Q256.5,226.9375 256.2188,227.2188 Q255.9375,227.5 255.5,227.5 Q255.1094,227.5 254.8594,227.3281 Q254.6094,227.1563 254.5,226.7031 Q254.4531,226.3906 254.2813,226.2188 Q253.9688,225.8906 253.4063,225.7031 Q252.8438,225.5 252.2813,225.5 Q251.5781,225.5 250.9844,225.7813 Q250.4063,226.0625 249.9531,226.6875 Q249.5,227.3125 249.5,228.1719 L249.5,229.0938 Q249.5,230.125 250.3438,230.8125 Q251.1875,231.5 252.6875,231.5 Q253.5781,231.5 254.2031,231.2969 Q254.5625,231.1875 254.9688,230.8281 Q255.2344,230.625 255.375,230.5625 Q255.5156,230.5 255.6875,230.5 Q256.0156,230.5 256.25,230.7656 Q256.5,231.0156 256.5,231.375 Q256.5,231.7188 256.1563,232.125 Q255.6563,232.7188 254.8594,233.0469 Q253.8125,233.5 252.5313,233.5 Q251.0313,233.5 249.8281,232.9063 Q248.8594,232.4375 248.1719,231.4219 Q247.5,230.4063 247.5,229.2031 L247.5,228.1094 Q247.5,226.8594 248.0938,225.7656 Q248.7031,224.6719 249.75,224.0938 Q250.8125,223.5 252,223.5 Q252.7188,223.5 253.3438,223.75 Q253.9688,224 254.5,224.5 Z " fill="#000000"/><text fill="#000000" font-family="sans-serif" font-size="12" lengthAdjust="spacing" textLength="118" x="266.5" y="232.9102">ImportPortsController</text><line style="stroke:#A80036;stroke-width:1.5;" x1="238.5" x2="386.5" y1="244" y2="244"/><line style="stroke:#A80036;stroke-width:1.5;" x1="238.5" x2="386.5" y1="252" y2="252"/><ellipse cx="248.5" cy="263" fill="#84BE84" rx="3" ry="3" style="stroke:#038048;stroke-width:1.0;"/><text fill="#000000" font-family="sans-serif" font-size="11" lengthAdjust="spacing" textLength="62" x="257.5" y="267.4189">ImportPorts()</text><!--MD5=[a0bfe97ac0a38e6e74cc1c7c7b744b71]
class Port--><rect codeLine="11" fill="#FEFECE" filter="url(#fr1tj8vgd01v3)" height="144.8516" id="Port" style="stroke:#A80036;stroke-width:1.5;" width="327" x="7" y="7"/><ellipse cx="155.25" cy="23" fill="#ADD1B2" rx="11" ry="11" style="stroke:#A80036;stroke-width:1.0;"/><path d="M157.25,19.5 Q157.4531,19 157.6875,18.75 Q157.9219,18.5 158.1875,18.5 Q158.6563,18.5 158.9531,18.7813 Q159.25,19.0625 159.25,19.7188 L159.25,21.2813 Q159.25,21.9375 158.9688,22.2188 Q158.6875,22.5 158.25,22.5 Q157.8594,22.5 157.6094,22.3281 Q157.3594,22.1563 157.25,21.7031 Q157.2031,21.3906 157.0313,21.2188 Q156.7188,20.8906 156.1563,20.7031 Q155.5938,20.5 155.0313,20.5 Q154.3281,20.5 153.7344,20.7813 Q153.1563,21.0625 152.7031,21.6875 Q152.25,22.3125 152.25,23.1719 L152.25,24.0938 Q152.25,25.125 153.0938,25.8125 Q153.9375,26.5 155.4375,26.5 Q156.3281,26.5 156.9531,26.2969 Q157.3125,26.1875 157.7188,25.8281 Q157.9844,25.625 158.125,25.5625 Q158.2656,25.5 158.4375,25.5 Q158.7656,25.5 159,25.7656 Q159.25,26.0156 159.25,26.375 Q159.25,26.7188 158.9063,27.125 Q158.4063,27.7188 157.6094,28.0469 Q156.5625,28.5 155.2813,28.5 Q153.7813,28.5 152.5781,27.9063 Q151.6094,27.4375 150.9219,26.4219 Q150.25,25.4063 150.25,24.2031 L150.25,23.1094 Q150.25,21.8594 150.8438,20.7656 Q151.4531,19.6719 152.5,19.0938 Q153.5625,18.5 154.75,18.5 Q155.4688,18.5 156.0938,18.75 Q156.7188,19 157.25,19.5 Z " fill="#000000"/><text fill="#000000" font-family="sans-serif" font-size="12" lengthAdjust="spacing" textLength="22" x="175.75" y="27.9102">Port</text><line style="stroke:#A80036;stroke-width:1.5;" x1="8" x2="333" y1="39" y2="39"/><rect fill="none" height="6" style="stroke:#C82930;stroke-width:1.0;" width="6" x="15" y="47"/><text fill="#000000" font-family="sans-serif" font-size="11" lengthAdjust="spacing" textLength="60" x="27" y="54.4189">identification</text><rect fill="none" height="6" style="stroke:#C82930;stroke-width:1.0;" width="6" x="15" y="60.8359"/><text fill="#000000" font-family="sans-serif" font-size="11" lengthAdjust="spacing" textLength="26" x="27" y="68.2549">name</text><rect fill="none" height="6" style="stroke:#C82930;stroke-width:1.0;" width="6" x="15" y="74.6719"/><text fill="#000000" font-family="sans-serif" font-size="11" lengthAdjust="spacing" textLength="44" x="27" y="82.0908">continent</text><rect fill="none" height="6" style="stroke:#C82930;stroke-width:1.0;" width="6" x="15" y="88.5078"/><text fill="#000000" font-family="sans-serif" font-size="11" lengthAdjust="spacing" textLength="37" x="27" y="95.9268">country</text><rect fill="none" height="6" style="stroke:#C82930;stroke-width:1.0;" width="6" x="15" y="102.3438"/><text fill="#000000" font-family="sans-serif" font-size="11" lengthAdjust="spacing" textLength="34" x="27" y="109.7627">latitude</text><rect fill="none" height="6" style="stroke:#C82930;stroke-width:1.0;" width="6" x="15" y="116.1797"/><text fill="#000000" font-family="sans-serif" font-size="11" lengthAdjust="spacing" textLength="43" x="27" y="123.5986">longitude</text><line style="stroke:#A80036;stroke-width:1.5;" x1="8" x2="333" y1="130.0156" y2="130.0156"/><ellipse cx="18" cy="141.0156" fill="#84BE84" rx="3" ry="3" style="stroke:#038048;stroke-width:1.0;"/><text fill="#000000" font-family="sans-serif" font-size="11" lengthAdjust="spacing" textLength="301" x="27" y="145.4346">Port(identification, name, continent, country, latitude, longitude)</text><!--MD5=[ea0bcd3be3e34eab68edaa701b1f6e03]
class Port2DTree--><rect codeLine="21" fill="#FEFECE" filter="url(#fr1tj8vgd01v3)" height="61.8359" id="Port2DTree" style="stroke:#A80036;stroke-width:1.5;" width="170" x="369.5" y="48.5"/><ellipse cx="418.75" cy="64.5" fill="#ADD1B2" rx="11" ry="11" style="stroke:#A80036;stroke-width:1.0;"/><path d="M420.75,61 Q420.9531,60.5 421.1875,60.25 Q421.4219,60 421.6875,60 Q422.1563,60 422.4531,60.2813 Q422.75,60.5625 422.75,61.2188 L422.75,62.7813 Q422.75,63.4375 422.4688,63.7188 Q422.1875,64 421.75,64 Q421.3594,64 421.1094,63.8281 Q420.8594,63.6563 420.75,63.2031 Q420.7031,62.8906 420.5313,62.7188 Q420.2188,62.3906 419.6563,62.2031 Q419.0938,62 418.5313,62 Q417.8281,62 417.2344,62.2813 Q416.6563,62.5625 416.2031,63.1875 Q415.75,63.8125 415.75,64.6719 L415.75,65.5938 Q415.75,66.625 416.5938,67.3125 Q417.4375,68 418.9375,68 Q419.8281,68 420.4531,67.7969 Q420.8125,67.6875 421.2188,67.3281 Q421.4844,67.125 421.625,67.0625 Q421.7656,67 421.9375,67 Q422.2656,67 422.5,67.2656 Q422.75,67.5156 422.75,67.875 Q422.75,68.2188 422.4063,68.625 Q421.9063,69.2188 421.1094,69.5469 Q420.0625,70 418.7813,70 Q417.2813,70 416.0781,69.4063 Q415.1094,68.9375 414.4219,67.9219 Q413.75,66.9063 413.75,65.7031 L413.75,64.6094 Q413.75,63.3594 414.3438,62.2656 Q414.9531,61.1719 416,60.5938 Q417.0625,60 418.25,60 Q418.9688,60 419.5938,60.25 Q420.2188,60.5 420.75,61 Z " fill="#000000"/><text fill="#000000" font-family="sans-serif" font-size="12" lengthAdjust="spacing" textLength="63" x="439.25" y="69.4102">Port2DTree</text><line style="stroke:#A80036;stroke-width:1.5;" x1="370.5" x2="538.5" y1="80.5" y2="80.5"/><line style="stroke:#A80036;stroke-width:1.5;" x1="370.5" x2="538.5" y1="88.5" y2="88.5"/><ellipse cx="380.5" cy="99.5" fill="#84BE84" rx="3" ry="3" style="stroke:#038048;stroke-width:1.0;"/><text fill="#000000" font-family="sans-serif" font-size="11" lengthAdjust="spacing" textLength="144" x="389.5" y="103.9189">createdBalancedPort2DTree()</text><!--MD5=[aed2b074c07ae129ee2001add1765d1a]
reverse link ImportPortsController to ImportPortsUI--><path codeLine="25" d="M312.5,279.52 C312.5,296.75 312.5,317.24 312.5,333.73 " fill="none" id="ImportPortsController-backto-ImportPortsUI" style="stroke:#A80036;stroke-width:1.0;stroke-dasharray:7.0,7.0;"/><polygon fill="#A80036" points="312.5,274.28,308.5,283.28,312.5,279.28,316.5,283.28,312.5,274.28" style="stroke:#A80036;stroke-width:1.0;"/><!--MD5=[37da9535072c4c128cdee41aabe13005]
reverse link Port2DTree to ImportPortsController--><path codeLine="26" d="M424.45,114.68 C399.16,143.43 363.35,184.17 339.09,211.76 " fill="none" id="Port2DTree-backto-ImportPortsController" style="stroke:#A80036;stroke-width:1.0;stroke-dasharray:7.0,7.0;"/><polygon fill="#A80036" points="427.79,110.88,418.8376,114.9854,424.4833,114.6304,424.8383,120.2761,427.79,110.88" style="stroke:#A80036;stroke-width:1.0;"/><!--MD5=[30226b31e13c8c6deba8f26c40465f55]
reverse link Port to ImportPortsController--><path codeLine="27" d="M237.06,156.2 C254.35,175.86 271.99,195.92 285.86,211.7 " fill="none" id="Port-backto-ImportPortsController" style="stroke:#A80036;stroke-width:1.0;"/><polygon fill="#A80036" points="233.61,152.28,236.5439,161.6817,236.9096,156.0367,242.5546,156.4024,233.61,152.28" style="stroke:#A80036;stroke-width:1.0;"/><!--MD5=[f01fe4099731bf8737663d324243f948]
@startuml
'https://plantuml.com/class-diagram

class ImportPortsUI {
- controller
}

class ImportPortsController {
+ ImportPorts()
}

class Port {
- identification
- name
- continent
- country
- latitude
- longitude
+ Port(identification, name, continent, country, latitude, longitude)
}

class Port2DTree {
+ createdBalancedPort2DTree()
}

ImportPortsController <.. ImportPortsUI
Port2DTree <.. ImportPortsController
Port <- - ImportPortsController

@enduml

@startuml

class ImportPortsUI {
- controller
}

class ImportPortsController {
+ ImportPorts()
}

class Port {
- identification
- name
- continent
- country
- latitude
- longitude
+ Port(identification, name, continent, country, latitude, longitude)
}

class Port2DTree {
+ createdBalancedPort2DTree()
}

ImportPortsController <.. ImportPortsUI
Port2DTree <.. ImportPortsController
Port <- - ImportPortsController

@enduml

PlantUML version 1.2021.00(Sun Jan 10 10:25:05 GMT 2021)
(GPL source distribution)
Java Runtime: OpenJDK Runtime Environment
JVM: OpenJDK 64-Bit Server VM
Default Encoding: Cp1252
Language: en
Country: GB
--></g></svg>