<?xml version="1.0" encoding="UTF-8" standalone="no"?><svg xmlns="http://www.w3.org/2000/svg" xmlns:xlink="http://www.w3.org/1999/xlink" contentScriptType="application/ecmascript" contentStyleType="text/css" height="409px" preserveAspectRatio="none" style="width:478px;height:409px;" version="1.1" viewBox="0 0 478 409" width="478px" zoomAndPan="magnify"><defs><filter height="300%" id="fbzuvs33ij7xk" width="300%" x="-1" y="-1"><feGaussianBlur result="blurOut" stdDeviation="2.0"/><feColorMatrix in="blurOut" result="blurOut2" type="matrix" values="0 0 0 0 0 0 0 0 0 0 0 0 0 0 0 0 0 0 .4 0"/><feOffset dx="4.0" dy="4.0" in="blurOut2" result="blurOut3"/><feBlend in="SourceGraphic" in2="blurOut3" mode="normal"/></filter></defs><g><!--MD5=[504fbadd8bbd9d704c0fb02b173767fe]
class ImportPortsUI--><rect codeLine="3" fill="#FEFECE" filter="url(#fbzuvs33ij7xk)" height="61.8359" id="ImportPortsUI" style="stroke:#A80036;stroke-width:1.5;" width="108" x="239.5" y="334"/><ellipse cx="254.5" cy="350" fill="#ADD1B2" rx="11" ry="11" style="stroke:#A80036;stroke-width:1.0;"/><path d="M256.5,346.5 Q256.7031,346 256.9375,345.75 Q257.1719,345.5 257.4375,345.5 Q257.9063,345.5 258.2031,345.7813 Q258.5,346.0625 258.5,346.7188 L258.5,348.2813 Q258.5,348.9375 258.2188,349.2188 Q257.9375,349.5 257.5,349.5 Q257.1094,349.5 256.8594,349.3281 Q256.6094,349.1563 256.5,348.7031 Q256.4531,348.3906 256.2813,348.2188 Q255.9688,347.8906 255.4063,347.7031 Q254.8438,347.5 254.2813,347.5 Q253.5781,347.5 252.9844,347.7813 Q252.4063,348.0625 251.9531,348.6875 Q251.5,349.3125 251.5,350.1719 L251.5,351.0938 Q251.5,352.125 252.3438,352.8125 Q253.1875,353.5 254.6875,353.5 Q255.5781,353.5 256.2031,353.2969 Q256.5625,353.1875 256.9688,352.8281 Q257.2344,352.625 257.375,352.5625 Q257.5156,352.5 257.6875,352.5 Q258.0156,352.5 258.25,352.7656 Q258.5,353.0156 258.5,353.375 Q258.5,353.7188 258.1563,354.125 Q257.6563,354.7188 256.8594,355.0469 Q255.8125,355.5 254.5313,355.5 Q253.0313,355.5 251.8281,354.9063 Q250.8594,354.4375 250.1719,353.4219 Q249.5,352.4063 249.5,351.2031 L249.5,350.1094 Q249.5,348.8594 250.0938,347.7656 Q250.7031,346.6719 251.75,346.0938 Q252.8125,345.5 254,345.5 Q254.7188,345.5 255.3438,345.75 Q255.9688,346 256.5,346.5 Z " fill="#000000"/><text fill="#000000" font-family="sans-serif" font-size="12" lengthAdjust="spacing" textLength="76" x="268.5" y="354.9102">ImportPortsUI</text><line style="stroke:#A80036;stroke-width:1.5;" x1="240.5" x2="346.5" y1="366" y2="366"/><rect fill="none" height="6" style="stroke:#C82930;stroke-width:1.0;" width="6" x="247.5" y="374"/><text fill="#000000" font-family="sans-serif" font-size="11" lengthAdjust="spacing" textLength="45" x="259.5" y="381.4189">controller</text><line style="stroke:#A80036;stroke-width:1.5;" x1="240.5" x2="346.5" y1="387.8359" y2="387.8359"/><!--MD5=[7fa9be3100fa8818883210857b4be419]
class ImportPortsController--><rect codeLine="7" fill="#FEFECE" filter="url(#fbzuvs33ij7xk)" height="61.8359" id="ImportPortsController" style="stroke:#A80036;stroke-width:1.5;" width="150" x="218.5" y="212"/><ellipse cx="233.5" cy="228" fill="#ADD1B2" rx="11" ry="11" style="stroke:#A80036;stroke-width:1.0;"/><path d="M235.5,224.5 Q235.7031,224 235.9375,223.75 Q236.1719,223.5 236.4375,223.5 Q236.9063,223.5 237.2031,223.7813 Q237.5,224.0625 237.5,224.7188 L237.5,226.2813 Q237.5,226.9375 237.2188,227.2188 Q236.9375,227.5 236.5,227.5 Q236.1094,227.5 235.8594,227.3281 Q235.6094,227.1563 235.5,226.7031 Q235.4531,226.3906 235.2813,226.2188 Q234.9688,225.8906 234.4063,225.7031 Q233.8438,225.5 233.2813,225.5 Q232.5781,225.5 231.9844,225.7813 Q231.4063,226.0625 230.9531,226.6875 Q230.5,227.3125 230.5,228.1719 L230.5,229.0938 Q230.5,230.125 231.3438,230.8125 Q232.1875,231.5 233.6875,231.5 Q234.5781,231.5 235.2031,231.2969 Q235.5625,231.1875 235.9688,230.8281 Q236.2344,230.625 236.375,230.5625 Q236.5156,230.5 236.6875,230.5 Q237.0156,230.5 237.25,230.7656 Q237.5,231.0156 237.5,231.375 Q237.5,231.7188 237.1563,232.125 Q236.6563,232.7188 235.8594,233.0469 Q234.8125,233.5 233.5313,233.5 Q232.0313,233.5 230.8281,232.9063 Q229.8594,232.4375 229.1719,231.4219 Q228.5,230.4063 228.5,229.2031 L228.5,228.1094 Q228.5,226.8594 229.0938,225.7656 Q229.7031,224.6719 230.75,224.0938 Q231.8125,223.5 233,223.5 Q233.7188,223.5 234.3438,223.75 Q234.9688,224 235.5,224.5 Z " fill="#000000"/><text fill="#000000" font-family="sans-serif" font-size="12" lengthAdjust="spacing" textLength="118" x="247.5" y="232.9102">ImportPortsController</text><line style="stroke:#A80036;stroke-width:1.5;" x1="219.5" x2="367.5" y1="244" y2="244"/><line style="stroke:#A80036;stroke-width:1.5;" x1="219.5" x2="367.5" y1="252" y2="252"/><ellipse cx="229.5" cy="263" fill="#84BE84" rx="3" ry="3" style="stroke:#038048;stroke-width:1.0;"/><text fill="#000000" font-family="sans-serif" font-size="11" lengthAdjust="spacing" textLength="62" x="238.5" y="267.4189">ImportPorts()</text><!--MD5=[a0bfe97ac0a38e6e74cc1c7c7b744b71]
class Port--><rect codeLine="11" fill="#FEFECE" filter="url(#fbzuvs33ij7xk)" height="144.8516" id="Port" style="stroke:#A80036;stroke-width:1.5;" width="327" x="7" y="7"/><ellipse cx="155.25" cy="23" fill="#ADD1B2" rx="11" ry="11" style="stroke:#A80036;stroke-width:1.0;"/><path d="M157.25,19.5 Q157.4531,19 157.6875,18.75 Q157.9219,18.5 158.1875,18.5 Q158.6563,18.5 158.9531,18.7813 Q159.25,19.0625 159.25,19.7188 L159.25,21.2813 Q159.25,21.9375 158.9688,22.2188 Q158.6875,22.5 158.25,22.5 Q157.8594,22.5 157.6094,22.3281 Q157.3594,22.1563 157.25,21.7031 Q157.2031,21.3906 157.0313,21.2188 Q156.7188,20.8906 156.1563,20.7031 Q155.5938,20.5 155.0313,20.5 Q154.3281,20.5 153.7344,20.7813 Q153.1563,21.0625 152.7031,21.6875 Q152.25,22.3125 152.25,23.1719 L152.25,24.0938 Q152.25,25.125 153.0938,25.8125 Q153.9375,26.5 155.4375,26.5 Q156.3281,26.5 156.9531,26.2969 Q157.3125,26.1875 157.7188,25.8281 Q157.9844,25.625 158.125,25.5625 Q158.2656,25.5 158.4375,25.5 Q158.7656,25.5 159,25.7656 Q159.25,26.0156 159.25,26.375 Q159.25,26.7188 158.9063,27.125 Q158.4063,27.7188 157.6094,28.0469 Q156.5625,28.5 155.2813,28.5 Q153.7813,28.5 152.5781,27.9063 Q151.6094,27.4375 150.9219,26.4219 Q150.25,25.4063 150.25,24.2031 L150.25,23.1094 Q150.25,21.8594 150.8438,20.7656 Q151.4531,19.6719 152.5,19.0938 Q153.5625,18.5 154.75,18.5 Q155.4688,18.5 156.0938,18.75 Q156.7188,19 157.25,19.5 Z " fill="#000000"/><text fill="#000000" font-family="sans-serif" font-size="12" lengthAdjust="spacing" textLength="22" x="175.75" y="27.9102">Port</text><line style="stroke:#A80036;stroke-width:1.5;" x1="8" x2="333" y1="39" y2="39"/><rect fill="none" height="6" style="stroke:#C82930;stroke-width:1.0;" width="6" x="15" y="47"/><text fill="#000000" font-family="sans-serif" font-size="11" lengthAdjust="spacing" textLength="60" x="27" y="54.4189">identification</text><rect fill="none" height="6" style="stroke:#C82930;stroke-width:1.0;" width="6" x="15" y="60.8359"/><text fill="#000000" font-family="sans-serif" font-size="11" lengthAdjust="spacing" textLength="26" x="27" y="68.2549">name</text><rect fill="none" height="6" style="stroke:#C82930;stroke-width:1.0;" width="6" x="15" y="74.6719"/><text fill="#000000" font-family="sans-serif" font-size="11" lengthAdjust="spacing" textLength="44" x="27" y="82.0908">continent</text><rect fill="none" height="6" style="stroke:#C82930;stroke-width:1.0;" width="6" x="15" y="88.5078"/><text fill="#000000" font-family="sans-serif" font-size="11" lengthAdjust="spacing" textLength="37" x="27" y="95.9268">country</text><rect fill="none" height="6" style="stroke:#C82930;stroke-width:1.0;" width="6" x="15" y="102.3438"/><text fill="#000000" font-family="sans-serif" font-size="11" lengthAdjust="spacing" textLength="34" x="27" y="109.7627">latitude</text><rect fill="none" height="6" style="stroke:#C82930;stroke-width:1.0;" width="6" x="15" y="116.1797"/><text fill="#000000" font-family="sans-serif" font-size="11" lengthAdjust="spacing" textLength="43" x="27" y="123.5986">longitude</text><line style="stroke:#A80036;stroke-width:1.5;" x1="8" x2="333" y1="130.0156" y2="130.0156"/><ellipse cx="18" cy="141.0156" fill="#84BE84" rx="3" ry="3" style="stroke:#038048;stroke-width:1.0;"/><text fill="#000000" font-family="sans-serif" font-size="11" lengthAdjust="spacing" textLength="301" x="27" y="145.4346">Port(identification, name, continent, country, latitude, longitude)</text><!--MD5=[ea0bcd3be3e34eab68edaa701b1f6e03]
class Port2DTree--><rect codeLine="21" fill="#FEFECE" filter="url(#fbzuvs33ij7xk)" height="61.8359" id="Port2DTree" style="stroke:#A80036;stroke-width:1.5;" width="95" x="369" y="48.5"/><ellipse cx="384" cy="64.5" fill="#ADD1B2" rx="11" ry="11" style="stroke:#A80036;stroke-width:1.0;"/><path d="M386,61 Q386.2031,60.5 386.4375,60.25 Q386.6719,60 386.9375,60 Q387.4063,60 387.7031,60.2813 Q388,60.5625 388,61.2188 L388,62.7813 Q388,63.4375 387.7188,63.7188 Q387.4375,64 387,64 Q386.6094,64 386.3594,63.8281 Q386.1094,63.6563 386,63.2031 Q385.9531,62.8906 385.7813,62.7188 Q385.4688,62.3906 384.9063,62.2031 Q384.3438,62 383.7813,62 Q383.0781,62 382.4844,62.2813 Q381.9063,62.5625 381.4531,63.1875 Q381,63.8125 381,64.6719 L381,65.5938 Q381,66.625 381.8438,67.3125 Q382.6875,68 384.1875,68 Q385.0781,68 385.7031,67.7969 Q386.0625,67.6875 386.4688,67.3281 Q386.7344,67.125 386.875,67.0625 Q387.0156,67 387.1875,67 Q387.5156,67 387.75,67.2656 Q388,67.5156 388,67.875 Q388,68.2188 387.6563,68.625 Q387.1563,69.2188 386.3594,69.5469 Q385.3125,70 384.0313,70 Q382.5313,70 381.3281,69.4063 Q380.3594,68.9375 379.6719,67.9219 Q379,66.9063 379,65.7031 L379,64.6094 Q379,63.3594 379.5938,62.2656 Q380.2031,61.1719 381.25,60.5938 Q382.3125,60 383.5,60 Q384.2188,60 384.8438,60.25 Q385.4688,60.5 386,61 Z " fill="#000000"/><text fill="#000000" font-family="sans-serif" font-size="12" lengthAdjust="spacing" textLength="63" x="398" y="69.4102">Port2DTree</text><line style="stroke:#A80036;stroke-width:1.5;" x1="370" x2="463" y1="80.5" y2="80.5"/><line style="stroke:#A80036;stroke-width:1.5;" x1="370" x2="463" y1="88.5" y2="88.5"/><ellipse cx="380" cy="99.5" fill="#84BE84" rx="3" ry="3" style="stroke:#038048;stroke-width:1.0;"/><text fill="#000000" font-family="sans-serif" font-size="11" lengthAdjust="spacing" textLength="54" x="389" y="103.9189">insert(Port)</text><!--MD5=[aed2b074c07ae129ee2001add1765d1a]
reverse link ImportPortsController to ImportPortsUI--><path codeLine="25" d="M293.5,279.52 C293.5,296.75 293.5,317.24 293.5,333.73 " fill="none" id="ImportPortsController-backto-ImportPortsUI" style="stroke:#A80036;stroke-width:1.0;stroke-dasharray:7.0,7.0;"/><polygon fill="#A80036" points="293.5,274.28,289.5,283.28,293.5,279.28,297.5,283.28,293.5,274.28" style="stroke:#A80036;stroke-width:1.0;"/><!--MD5=[37da9535072c4c128cdee41aabe13005]
reverse link Port2DTree to ImportPortsController--><path codeLine="26" d="M390.2,115.03 C368.32,143.77 337.46,184.28 316.53,211.76 " fill="none" id="Port2DTree-backto-ImportPortsController" style="stroke:#A80036;stroke-width:1.0;stroke-dasharray:7.0,7.0;"/><polygon fill="#A80036" points="393.36,110.88,384.73,115.6259,390.3349,114.8611,391.0998,120.466,393.36,110.88" style="stroke:#A80036;stroke-width:1.0;"/><!--MD5=[30226b31e13c8c6deba8f26c40465f55]
reverse link Port to ImportPortsController--><path codeLine="27" d="M228.53,156.69 C243.38,176.2 258.51,196.06 270.42,211.7 " fill="none" id="Port-backto-ImportPortsController" style="stroke:#A80036;stroke-width:1.0;"/><polygon fill="#A80036" points="225.17,152.28,227.4302,161.866,228.1951,156.2611,233.8,157.0259,225.17,152.28" style="stroke:#A80036;stroke-width:1.0;"/><!--MD5=[44ea8b15a97b25dcfa94a6969bc7e308]
@startuml
'https://plantuml.com/class-diagram

class ImportPortsUI {
- controller
}

class ImportPortsController {
+ ImportPorts()
}

class Port {
- identification
- name
- continent
- country
- latitude
- longitude
+ Port(identification, name, continent, country, latitude, longitude)
}

class Port2DTree {
+ insert(Port)
}

ImportPortsController <.. ImportPortsUI
Port2DTree <.. ImportPortsController
Port <- - ImportPortsController

@enduml

@startuml

class ImportPortsUI {
- controller
}

class ImportPortsController {
+ ImportPorts()
}

class Port {
- identification
- name
- continent
- country
- latitude
- longitude
+ Port(identification, name, continent, country, latitude, longitude)
}

class Port2DTree {
+ insert(Port)
}

ImportPortsController <.. ImportPortsUI
Port2DTree <.. ImportPortsController
Port <- - ImportPortsController

@enduml

PlantUML version 1.2021.00(Sun Jan 10 10:25:05 GMT 2021)
(GPL source distribution)
Java Runtime: OpenJDK Runtime Environment
JVM: OpenJDK 64-Bit Server VM
Default Encoding: Cp1252
Language: en
Country: GB
--></g></svg>