<?xml version="1.0" encoding="UTF-8" standalone="no"?><svg xmlns="http://www.w3.org/2000/svg" xmlns:xlink="http://www.w3.org/1999/xlink" contentScriptType="application/ecmascript" contentStyleType="text/css" height="947px" preserveAspectRatio="none" style="width:179px;height:947px;" version="1.1" viewBox="0 0 179 947" width="179px" zoomAndPan="magnify"><defs><filter height="300%" id="f8claia6irrl3" width="300%" x="-1" y="-1"><feGaussianBlur result="blurOut" stdDeviation="2.0"/><feColorMatrix in="blurOut" result="blurOut2" type="matrix" values="0 0 0 0 0 0 0 0 0 0 0 0 0 0 0 0 0 0 .4 0"/><feOffset dx="4.0" dy="4.0" in="blurOut2" result="blurOut3"/><feBlend in="SourceGraphic" in2="blurOut3" mode="normal"/></filter></defs><g><!--MD5=[0dc7f2ddb409b58bcf52b12238c25399]
class Ship--><rect codeLine="3" fill="#FEFECE" filter="url(#f8claia6irrl3)" height="214.0313" id="Ship" style="stroke:#A80036;stroke-width:1.5;" width="132" x="20" y="7"/><ellipse cx="69.25" cy="23" fill="#ADD1B2" rx="11" ry="11" style="stroke:#A80036;stroke-width:1.0;"/><path d="M67.75,24 L67.75,26 L71.75,26 L71.75,25 L71.75,24.5156 L72.375,24 L72.75,24 L73.125,24 L73.75,24.5156 L73.75,25 L73.75,28 L65.75,28 L65.2656,28 L64.75,27.375 L64.75,27 L64.75,26.625 L65.2656,26 L65.75,26 L65.75,26 L65.75,20 L65.75,20 L65.2656,20 L64.75,19.375 L64.75,19 L64.75,18.625 L65.2656,18 L65.75,18 L73.75,18 L73.75,21 L73.75,21.4844 L73.125,22 L72.75,22 L72.375,22 L71.75,21.4844 L71.75,21 L71.75,20 L67.75,20 L67.75,22 L68.75,22 L68.75,21.5156 L68.75,21.5156 L69.375,21 L69.75,21 L70.125,21 L70.75,21.5156 L70.75,22 L70.75,24 L70.75,24.4844 L70.125,25 L70.125,25 L69.75,25 L69.375,25 L68.75,24.4844 L68.75,24.4844 L68.75,24 L67.75,24 Z " fill="#000000"/><text fill="#000000" font-family="sans-serif" font-size="12" lengthAdjust="spacing" textLength="25" x="89.75" y="27.9102">Ship</text><line style="stroke:#A80036;stroke-width:1.5;" x1="21" x2="151" y1="39" y2="39"/><ellipse cx="31" cy="50" fill="#000000" rx="3" ry="3" style="stroke:#000000;stroke-width:1.0;"/><text fill="#000000" font-family="sans-serif" font-size="11" lengthAdjust="spacing" textLength="46" x="40" y="54.4189">imo_code</text><line style="stroke:#A80036;stroke-width:1.0;" x1="21" x2="151" y1="60.8359" y2="60.8359"/><ellipse cx="31" cy="71.8359" fill="#000000" rx="3" ry="3" style="stroke:#000000;stroke-width:1.0;"/><text fill="#000000" font-family="sans-serif" font-size="11" lengthAdjust="spacing" textLength="54" x="40" y="76.2549">mmsi_code</text><ellipse cx="31" cy="85.6719" fill="#000000" rx="3" ry="3" style="stroke:#000000;stroke-width:1.0;"/><text fill="#000000" font-family="sans-serif" font-size="11" lengthAdjust="spacing" textLength="52" x="40" y="90.0908">name_ship</text><ellipse cx="31" cy="99.5078" fill="#000000" rx="3" ry="3" style="stroke:#000000;stroke-width:1.0;"/><text fill="#000000" font-family="sans-serif" font-size="11" lengthAdjust="spacing" textLength="95" x="40" y="103.9268">number_generators</text><ellipse cx="31" cy="113.3438" fill="#000000" rx="3" ry="3" style="stroke:#000000;stroke-width:1.0;"/><text fill="#000000" font-family="sans-serif" font-size="11" lengthAdjust="spacing" textLength="106" x="40" y="117.7627">power_out_generator</text><ellipse cx="31" cy="127.1797" fill="#000000" rx="3" ry="3" style="stroke:#000000;stroke-width:1.0;"/><text fill="#000000" font-family="sans-serif" font-size="11" lengthAdjust="spacing" textLength="42" x="40" y="131.5986">call_sign</text><ellipse cx="31" cy="141.0156" fill="#000000" rx="3" ry="3" style="stroke:#000000;stroke-width:1.0;"/><text fill="#000000" font-family="sans-serif" font-size="11" lengthAdjust="spacing" textLength="59" x="40" y="145.4346">vessel_type</text><ellipse cx="31" cy="154.8516" fill="#000000" rx="3" ry="3" style="stroke:#000000;stroke-width:1.0;"/><text fill="#000000" font-family="sans-serif" font-size="11" lengthAdjust="spacing" textLength="59" x="40" y="159.2705">Length_ship</text><ellipse cx="31" cy="168.6875" fill="#000000" rx="3" ry="3" style="stroke:#000000;stroke-width:1.0;"/><text fill="#000000" font-family="sans-serif" font-size="11" lengthAdjust="spacing" textLength="53" x="40" y="173.1064">width_ship</text><ellipse cx="31" cy="182.5234" fill="#000000" rx="3" ry="3" style="stroke:#000000;stroke-width:1.0;"/><text fill="#000000" font-family="sans-serif" font-size="11" lengthAdjust="spacing" textLength="67" x="40" y="186.9424">capacity_ship</text><ellipse cx="31" cy="196.3594" fill="#000000" rx="3" ry="3" style="stroke:#000000;stroke-width:1.0;"/><text fill="#000000" font-family="sans-serif" font-size="11" lengthAdjust="spacing" textLength="23" x="40" y="200.7783">draft</text><ellipse cx="31" cy="210.1953" fill="#000000" rx="3" ry="3" style="stroke:#000000;stroke-width:1.0;"/><text fill="#000000" font-family="sans-serif" font-size="11" lengthAdjust="spacing" textLength="101" x="40" y="214.6143">id_employee_captain</text><!--MD5=[18f5b4ccae6e62f3670d3aa352beb4cd]
class Trip--><rect codeLine="19" fill="#FEFECE" filter="url(#f8claia6irrl3)" height="172.5234" id="Trip" style="stroke:#A80036;stroke-width:1.5;" width="154" x="9" y="281"/><ellipse cx="71.25" cy="297" fill="#ADD1B2" rx="11" ry="11" style="stroke:#A80036;stroke-width:1.0;"/><path d="M69.75,298 L69.75,300 L73.75,300 L73.75,299 L73.75,298.5156 L74.375,298 L74.75,298 L75.125,298 L75.75,298.5156 L75.75,299 L75.75,302 L67.75,302 L67.2656,302 L66.75,301.375 L66.75,301 L66.75,300.625 L67.2656,300 L67.75,300 L67.75,300 L67.75,294 L67.75,294 L67.2656,294 L66.75,293.375 L66.75,293 L66.75,292.625 L67.2656,292 L67.75,292 L75.75,292 L75.75,295 L75.75,295.4844 L75.125,296 L74.75,296 L74.375,296 L73.75,295.4844 L73.75,295 L73.75,294 L69.75,294 L69.75,296 L70.75,296 L70.75,295.5156 L70.75,295.5156 L71.375,295 L71.75,295 L72.125,295 L72.75,295.5156 L72.75,296 L72.75,298 L72.75,298.4844 L72.125,299 L72.125,299 L71.75,299 L71.375,299 L70.75,298.4844 L70.75,298.4844 L70.75,298 L69.75,298 Z " fill="#000000"/><text fill="#000000" font-family="sans-serif" font-size="12" lengthAdjust="spacing" textLength="21" x="91.75" y="301.9102">Trip</text><line style="stroke:#A80036;stroke-width:1.5;" x1="10" x2="162" y1="313" y2="313"/><ellipse cx="20" cy="324" fill="#000000" rx="3" ry="3" style="stroke:#000000;stroke-width:1.0;"/><text fill="#000000" font-family="sans-serif" font-size="11" lengthAdjust="spacing" textLength="29" x="29" y="328.4189">id_trip</text><line style="stroke:#A80036;stroke-width:1.0;" x1="10" x2="162" y1="334.8359" y2="334.8359"/><ellipse cx="20" cy="345.8359" fill="#000000" rx="3" ry="3" style="stroke:#000000;stroke-width:1.0;"/><text fill="#000000" font-family="sans-serif" font-size="11" lengthAdjust="spacing" textLength="42" x="29" y="350.2549">ship_imo</text><ellipse cx="20" cy="359.6719" fill="#000000" rx="3" ry="3" style="stroke:#000000;stroke-width:1.0;"/><text fill="#000000" font-family="sans-serif" font-size="11" lengthAdjust="spacing" textLength="38" x="29" y="364.0908">id_truck</text><ellipse cx="20" cy="373.5078" fill="#000000" rx="3" ry="3" style="stroke:#000000;stroke-width:1.0;"/><text fill="#000000" font-family="sans-serif" font-size="11" lengthAdjust="spacing" textLength="61" x="29" y="377.9268">id_start_port</text><ellipse cx="20" cy="387.3438" fill="#000000" rx="3" ry="3" style="stroke:#000000;stroke-width:1.0;"/><text fill="#000000" font-family="sans-serif" font-size="11" lengthAdjust="spacing" textLength="91" x="29" y="391.7627">id_destination_port</text><ellipse cx="20" cy="401.1797" fill="#000000" rx="3" ry="3" style="stroke:#000000;stroke-width:1.0;"/><text fill="#000000" font-family="sans-serif" font-size="11" lengthAdjust="spacing" textLength="98" x="29" y="405.5986">id_start_warehouse</text><ellipse cx="20" cy="415.0156" fill="#000000" rx="3" ry="3" style="stroke:#000000;stroke-width:1.0;"/><text fill="#000000" font-family="sans-serif" font-size="11" lengthAdjust="spacing" textLength="128" x="29" y="419.4346">id_destination_warehouse</text><ellipse cx="20" cy="428.8516" fill="#000000" rx="3" ry="3" style="stroke:#000000;stroke-width:1.0;"/><text fill="#000000" font-family="sans-serif" font-size="11" lengthAdjust="spacing" textLength="74" x="29" y="433.2705">date_time_start</text><ellipse cx="20" cy="442.6875" fill="#000000" rx="3" ry="3" style="stroke:#000000;stroke-width:1.0;"/><text fill="#000000" font-family="sans-serif" font-size="11" lengthAdjust="spacing" textLength="70" x="29" y="447.1064">date_time_end</text><!--MD5=[e9a58730c562b34349daa605d1ed6662]
class Container--><rect codeLine="32" fill="#FEFECE" filter="url(#f8claia6irrl3)" height="214.0313" id="Container" style="stroke:#A80036;stroke-width:1.5;" width="158" x="7" y="719"/><ellipse cx="54.75" cy="735" fill="#ADD1B2" rx="11" ry="11" style="stroke:#A80036;stroke-width:1.0;"/><path d="M53.25,736 L53.25,738 L57.25,738 L57.25,737 L57.25,736.5156 L57.875,736 L58.25,736 L58.625,736 L59.25,736.5156 L59.25,737 L59.25,740 L51.25,740 L50.7656,740 L50.25,739.375 L50.25,739 L50.25,738.625 L50.7656,738 L51.25,738 L51.25,738 L51.25,732 L51.25,732 L50.7656,732 L50.25,731.375 L50.25,731 L50.25,730.625 L50.7656,730 L51.25,730 L59.25,730 L59.25,733 L59.25,733.4844 L58.625,734 L58.25,734 L57.875,734 L57.25,733.4844 L57.25,733 L57.25,732 L53.25,732 L53.25,734 L54.25,734 L54.25,733.5156 L54.25,733.5156 L54.875,733 L55.25,733 L55.625,733 L56.25,733.5156 L56.25,734 L56.25,736 L56.25,736.4844 L55.625,737 L55.625,737 L55.25,737 L54.875,737 L54.25,736.4844 L54.25,736.4844 L54.25,736 L53.25,736 Z " fill="#000000"/><text fill="#000000" font-family="sans-serif" font-size="12" lengthAdjust="spacing" textLength="54" x="75.25" y="739.9102">Container</text><line style="stroke:#A80036;stroke-width:1.5;" x1="8" x2="164" y1="751" y2="751"/><ellipse cx="18" cy="762" fill="#000000" rx="3" ry="3" style="stroke:#000000;stroke-width:1.0;"/><text fill="#000000" font-family="sans-serif" font-size="11" lengthAdjust="spacing" textLength="59" x="27" y="766.4189">id_container</text><line style="stroke:#A80036;stroke-width:1.0;" x1="8" x2="164" y1="772.8359" y2="772.8359"/><ellipse cx="18" cy="783.8359" fill="#000000" rx="3" ry="3" style="stroke:#000000;stroke-width:1.0;"/><text fill="#000000" font-family="sans-serif" font-size="11" lengthAdjust="spacing" textLength="44" x="27" y="788.2549">iso_code</text><text fill="#000000" font-family="sans-serif" font-size="11" lengthAdjust="spacing" textLength="0" x="30" y="802.0908"/><ellipse cx="18" cy="811.5078" fill="#000000" rx="3" ry="3" style="stroke:#000000;stroke-width:1.0;"/><text fill="#000000" font-family="sans-serif" font-size="11" lengthAdjust="spacing" textLength="19" x="27" y="815.9268">tare</text><ellipse cx="18" cy="825.3438" fill="#000000" rx="3" ry="3" style="stroke:#000000;stroke-width:1.0;"/><text fill="#000000" font-family="sans-serif" font-size="11" lengthAdjust="spacing" textLength="132" x="27" y="829.7627">max_weight_incl_container</text><ellipse cx="18" cy="839.1797" fill="#000000" rx="3" ry="3" style="stroke:#000000;stroke-width:1.0;"/><text fill="#000000" font-family="sans-serif" font-size="11" lengthAdjust="spacing" textLength="59" x="27" y="843.5986">max_weight</text><ellipse cx="18" cy="853.0156" fill="#000000" rx="3" ry="3" style="stroke:#000000;stroke-width:1.0;"/><text fill="#000000" font-family="sans-serif" font-size="11" lengthAdjust="spacing" textLength="60" x="27" y="857.4346">max_volume</text><text fill="#000000" font-family="sans-serif" font-size="11" lengthAdjust="spacing" textLength="0" x="30" y="871.2705"/><ellipse cx="18" cy="880.6875" fill="#000000" rx="3" ry="3" style="stroke:#000000;stroke-width:1.0;"/><text fill="#000000" font-family="sans-serif" font-size="11" lengthAdjust="spacing" textLength="46" x="27" y="885.1064">id_owner</text><ellipse cx="18" cy="894.5234" fill="#000000" rx="3" ry="3" style="stroke:#000000;stroke-width:1.0;"/><text fill="#000000" font-family="sans-serif" font-size="11" lengthAdjust="spacing" textLength="63" x="27" y="898.9424">id_equipment</text><ellipse cx="18" cy="908.3594" fill="#000000" rx="3" ry="3" style="stroke:#000000;stroke-width:1.0;"/><text fill="#000000" font-family="sans-serif" font-size="11" lengthAdjust="spacing" textLength="68" x="27" y="912.7783">serial_number</text><ellipse cx="18" cy="922.1953" fill="#000000" rx="3" ry="3" style="stroke:#000000;stroke-width:1.0;"/><text fill="#000000" font-family="sans-serif" font-size="11" lengthAdjust="spacing" textLength="54" x="27" y="926.6143">check_digit</text><!--MD5=[0baaf300b4e708ac3e376d44e9cdca27]
class Cargo_Manifest--><rect codeLine="48" fill="#FEFECE" filter="url(#f8claia6irrl3)" height="144.8516" id="Cargo_Manifest" style="stroke:#A80036;stroke-width:1.5;" width="149" x="11.5" y="514"/><ellipse cx="40" cy="530" fill="#ADD1B2" rx="11" ry="11" style="stroke:#A80036;stroke-width:1.0;"/><path d="M38.5,531 L38.5,533 L42.5,533 L42.5,532 L42.5,531.5156 L43.125,531 L43.5,531 L43.875,531 L44.5,531.5156 L44.5,532 L44.5,535 L36.5,535 L36.0156,535 L35.5,534.375 L35.5,534 L35.5,533.625 L36.0156,533 L36.5,533 L36.5,533 L36.5,527 L36.5,527 L36.0156,527 L35.5,526.375 L35.5,526 L35.5,525.625 L36.0156,525 L36.5,525 L44.5,525 L44.5,528 L44.5,528.4844 L43.875,529 L43.5,529 L43.125,529 L42.5,528.4844 L42.5,528 L42.5,527 L38.5,527 L38.5,529 L39.5,529 L39.5,528.5156 L39.5,528.5156 L40.125,528 L40.5,528 L40.875,528 L41.5,528.5156 L41.5,529 L41.5,531 L41.5,531.4844 L40.875,532 L40.875,532 L40.5,532 L40.125,532 L39.5,531.4844 L39.5,531.4844 L39.5,531 L38.5,531 Z " fill="#000000"/><text fill="#000000" font-family="sans-serif" font-size="12" lengthAdjust="spacing" textLength="87" x="57" y="534.9102">Cargo_Manifest</text><line style="stroke:#A80036;stroke-width:1.5;" x1="12.5" x2="159.5" y1="546" y2="546"/><ellipse cx="22.5" cy="557" fill="#000000" rx="3" ry="3" style="stroke:#000000;stroke-width:1.0;"/><text fill="#000000" font-family="sans-serif" font-size="11" lengthAdjust="spacing" textLength="89" x="31.5" y="561.4189">id_cargo_manifest</text><ellipse cx="22.5" cy="570.8359" fill="#000000" rx="3" ry="3" style="stroke:#000000;stroke-width:1.0;"/><text fill="#000000" font-family="sans-serif" font-size="11" lengthAdjust="spacing" textLength="59" x="31.5" y="575.2549">id_container</text><line style="stroke:#A80036;stroke-width:1.0;" x1="12.5" x2="159.5" y1="581.6719" y2="581.6719"/><ellipse cx="22.5" cy="592.6719" fill="#000000" rx="3" ry="3" style="stroke:#000000;stroke-width:1.0;"/><text fill="#000000" font-family="sans-serif" font-size="11" lengthAdjust="spacing" textLength="29" x="31.5" y="597.0908">id_trip</text><ellipse cx="22.5" cy="606.5078" fill="#000000" rx="3" ry="3" style="stroke:#000000;stroke-width:1.0;"/><text fill="#000000" font-family="sans-serif" font-size="11" lengthAdjust="spacing" textLength="67" x="31.5" y="610.9268">position_code</text><ellipse cx="22.5" cy="620.3438" fill="#000000" rx="3" ry="3" style="stroke:#000000;stroke-width:1.0;"/><text fill="#000000" font-family="sans-serif" font-size="11" lengthAdjust="spacing" textLength="67" x="31.5" y="624.7627">cargo_weight</text><ellipse cx="22.5" cy="634.1797" fill="#000000" rx="3" ry="3" style="stroke:#000000;stroke-width:1.0;"/><text fill="#000000" font-family="sans-serif" font-size="11" lengthAdjust="spacing" textLength="123" x="31.5" y="638.5986">refrigeration_temperature</text><ellipse cx="22.5" cy="648.0156" fill="#000000" rx="3" ry="3" style="stroke:#000000;stroke-width:1.0;"/><text fill="#000000" font-family="sans-serif" font-size="11" lengthAdjust="spacing" textLength="39" x="31.5" y="652.4346">id_client</text><!--MD5=[7c2ed8f842290e081d69a6d4a2daa6d0]
link Ship to Trip--><path codeLine="60" d="M86,229.7 C86,244.06 86,258.61 86,272.6 " fill="none" id="Ship-Trip" style="stroke:#A80036;stroke-width:1.0;"/><line style="stroke:#A80036;stroke-width:1.0;" x1="86" x2="92" y1="272.76" y2="280.76"/><line style="stroke:#A80036;stroke-width:1.0;" x1="86" x2="80" y1="272.76" y2="280.76"/><line style="stroke:#A80036;stroke-width:1.0;" x1="86" x2="86" y1="272.76" y2="280.76"/><ellipse cx="86" cy="266.76" fill="none" rx="4" ry="4" style="stroke:#A80036;stroke-width:1.0;"/><line style="stroke:#A80036;stroke-width:1.0;" x1="82" x2="90" y1="225.29" y2="225.29"/><line style="stroke:#A80036;stroke-width:1.0;" x1="82" x2="90" y1="228.29" y2="228.29"/><line style="stroke:#A80036;stroke-width:1.0;" x1="86" x2="86" y1="229.29" y2="221.29"/><!--MD5=[8ed59fe7f91556deede29c24c368e010]
link Trip to Cargo_Manifest--><path codeLine="61" d="M86,461.73 C86,476.77 86,492.21 86,506.87 " fill="none" id="Trip-Cargo_Manifest" style="stroke:#A80036;stroke-width:1.0;"/><line style="stroke:#A80036;stroke-width:1.0;" x1="90" x2="82" y1="509.99" y2="509.99"/><line style="stroke:#A80036;stroke-width:1.0;" x1="90" x2="82" y1="506.99" y2="506.99"/><line style="stroke:#A80036;stroke-width:1.0;" x1="86" x2="86" y1="505.99" y2="513.99"/><line style="stroke:#A80036;stroke-width:1.0;" x1="82" x2="90" y1="458.26" y2="458.26"/><line style="stroke:#A80036;stroke-width:1.0;" x1="82" x2="90" y1="461.26" y2="461.26"/><line style="stroke:#A80036;stroke-width:1.0;" x1="86" x2="86" y1="462.26" y2="454.26"/><!--MD5=[56127ccb70193a52dc3f681a8e3969fb]
link Cargo_Manifest to Container--><path codeLine="62" d="M86,667.14 C86,681.16 86,695.99 86,710.74 " fill="none" id="Cargo_Manifest-Container" style="stroke:#A80036;stroke-width:1.0;"/><line style="stroke:#A80036;stroke-width:1.0;" x1="90" x2="82" y1="714.91" y2="714.91"/><line style="stroke:#A80036;stroke-width:1.0;" x1="90" x2="82" y1="711.91" y2="711.91"/><line style="stroke:#A80036;stroke-width:1.0;" x1="86" x2="86" y1="710.91" y2="718.91"/><line style="stroke:#A80036;stroke-width:1.0;" x1="86" x2="80" y1="667.08" y2="659.08"/><line style="stroke:#A80036;stroke-width:1.0;" x1="86" x2="92" y1="667.08" y2="659.08"/><line style="stroke:#A80036;stroke-width:1.0;" x1="86" x2="86" y1="667.08" y2="659.08"/><ellipse cx="86" cy="673.08" fill="none" rx="4" ry="4" style="stroke:#A80036;stroke-width:1.0;"/><!--MD5=[a8f24af54075129e4203019e00a4a016]
@startuml
'https://plantuml.com/class-diagram

entity Ship {
* imo_code
- -
* mmsi_code
* name_ship
* number_generators
* power_out_generator
* call_sign
* vessel_type
* Length_ship
* width_ship
* capacity_ship
* draft
* id_employee_captain
}

entity Trip {
* id_trip
- -
* ship_imo
* id_truck
* id_start_port
* id_destination_port
* id_start_warehouse
* id_destination_warehouse
* date_time_start
* date_time_end
}

entity Container {
* id_container
- -
* iso_code

* tare
* max_weight_incl_container
* max_weight
* max_volume

* id_owner
* id_equipment
* serial_number
* check_digit
}

entity Cargo_Manifest {
* id_cargo_manifest
* id_container
- -
* id_trip
* position_code
* cargo_weight
* refrigeration_temperature
* id_client
}


Ship ||- -o{ Trip
Trip ||- -|| Cargo_Manifest
Cargo_Manifest }o- -|| Container

@enduml

@startuml

entity Ship {
* imo_code
- -
* mmsi_code
* name_ship
* number_generators
* power_out_generator
* call_sign
* vessel_type
* Length_ship
* width_ship
* capacity_ship
* draft
* id_employee_captain
}

entity Trip {
* id_trip
- -
* ship_imo
* id_truck
* id_start_port
* id_destination_port
* id_start_warehouse
* id_destination_warehouse
* date_time_start
* date_time_end
}

entity Container {
* id_container
- -
* iso_code

* tare
* max_weight_incl_container
* max_weight
* max_volume

* id_owner
* id_equipment
* serial_number
* check_digit
}

entity Cargo_Manifest {
* id_cargo_manifest
* id_container
- -
* id_trip
* position_code
* cargo_weight
* refrigeration_temperature
* id_client
}


Ship ||- -o{ Trip
Trip ||- -|| Cargo_Manifest
Cargo_Manifest }o- -|| Container

@enduml

PlantUML version 1.2021.00(Sun Jan 10 10:25:05 GMT 2021)
(GPL source distribution)
Java Runtime: OpenJDK Runtime Environment
JVM: OpenJDK 64-Bit Server VM
Default Encoding: Cp1252
Language: pt
Country: PT
--></g></svg>