<?xml version="1.0" encoding="UTF-8" standalone="no"?><svg xmlns="http://www.w3.org/2000/svg" xmlns:xlink="http://www.w3.org/1999/xlink" contentScriptType="application/ecmascript" contentStyleType="text/css" height="204px" preserveAspectRatio="none" style="width:386px;height:204px;" version="1.1" viewBox="0 0 386 204" width="386px" zoomAndPan="magnify"><defs><filter height="300%" id="f1xgox39l9t5uc" width="300%" x="-1" y="-1"><feGaussianBlur result="blurOut" stdDeviation="2.0"/><feColorMatrix in="blurOut" result="blurOut2" type="matrix" values="0 0 0 0 0 0 0 0 0 0 0 0 0 0 0 0 0 0 .4 0"/><feOffset dx="4.0" dy="4.0" in="blurOut2" result="blurOut3"/><feBlend in="SourceGraphic" in2="blurOut3" mode="normal"/></filter></defs><g><!--MD5=[6ff6d2a385568d3b737b6b18bc2b62c0]
class ShortestPathUI--><rect codeLine="3" fill="#FEFECE" filter="url(#f1xgox39l9t5uc)" height="61.8359" id="ShortestPathUI" style="stroke:#A80036;stroke-width:1.5;" width="115" x="132" y="129"/><ellipse cx="147" cy="145" fill="#ADD1B2" rx="11" ry="11" style="stroke:#A80036;stroke-width:1.0;"/><path d="M149,141.5 Q149.2031,141 149.4375,140.75 Q149.6719,140.5 149.9375,140.5 Q150.4063,140.5 150.7031,140.7813 Q151,141.0625 151,141.7188 L151,143.2813 Q151,143.9375 150.7188,144.2188 Q150.4375,144.5 150,144.5 Q149.6094,144.5 149.3594,144.3281 Q149.1094,144.1563 149,143.7031 Q148.9531,143.3906 148.7813,143.2188 Q148.4688,142.8906 147.9063,142.7031 Q147.3438,142.5 146.7813,142.5 Q146.0781,142.5 145.4844,142.7813 Q144.9063,143.0625 144.4531,143.6875 Q144,144.3125 144,145.1719 L144,146.0938 Q144,147.125 144.8438,147.8125 Q145.6875,148.5 147.1875,148.5 Q148.0781,148.5 148.7031,148.2969 Q149.0625,148.1875 149.4688,147.8281 Q149.7344,147.625 149.875,147.5625 Q150.0156,147.5 150.1875,147.5 Q150.5156,147.5 150.75,147.7656 Q151,148.0156 151,148.375 Q151,148.7188 150.6563,149.125 Q150.1563,149.7188 149.3594,150.0469 Q148.3125,150.5 147.0313,150.5 Q145.5313,150.5 144.3281,149.9063 Q143.3594,149.4375 142.6719,148.4219 Q142,147.4063 142,146.2031 L142,145.1094 Q142,143.8594 142.5938,142.7656 Q143.2031,141.6719 144.25,141.0938 Q145.3125,140.5 146.5,140.5 Q147.2188,140.5 147.8438,140.75 Q148.4688,141 149,141.5 Z " fill="#000000"/><text fill="#000000" font-family="sans-serif" font-size="12" lengthAdjust="spacing" textLength="83" x="161" y="149.9102">ShortestPathUI</text><line style="stroke:#A80036;stroke-width:1.5;" x1="133" x2="246" y1="161" y2="161"/><rect fill="none" height="6" style="stroke:#C82930;stroke-width:1.0;" width="6" x="140" y="169"/><text fill="#000000" font-family="sans-serif" font-size="11" lengthAdjust="spacing" textLength="45" x="152" y="176.4189">controller</text><line style="stroke:#A80036;stroke-width:1.5;" x1="133" x2="246" y1="182.8359" y2="182.8359"/><!--MD5=[9b4d6350505f0ccf5a42f8153c75860f]
class ShortestPathController--><rect codeLine="7" fill="#FEFECE" filter="url(#f1xgox39l9t5uc)" height="61.8359" id="ShortestPathController" style="stroke:#A80036;stroke-width:1.5;" width="365" x="7" y="7"/><ellipse cx="122.75" cy="23" fill="#ADD1B2" rx="11" ry="11" style="stroke:#A80036;stroke-width:1.0;"/><path d="M124.75,19.5 Q124.9531,19 125.1875,18.75 Q125.4219,18.5 125.6875,18.5 Q126.1563,18.5 126.4531,18.7813 Q126.75,19.0625 126.75,19.7188 L126.75,21.2813 Q126.75,21.9375 126.4688,22.2188 Q126.1875,22.5 125.75,22.5 Q125.3594,22.5 125.1094,22.3281 Q124.8594,22.1563 124.75,21.7031 Q124.7031,21.3906 124.5313,21.2188 Q124.2188,20.8906 123.6563,20.7031 Q123.0938,20.5 122.5313,20.5 Q121.8281,20.5 121.2344,20.7813 Q120.6563,21.0625 120.2031,21.6875 Q119.75,22.3125 119.75,23.1719 L119.75,24.0938 Q119.75,25.125 120.5938,25.8125 Q121.4375,26.5 122.9375,26.5 Q123.8281,26.5 124.4531,26.2969 Q124.8125,26.1875 125.2188,25.8281 Q125.4844,25.625 125.625,25.5625 Q125.7656,25.5 125.9375,25.5 Q126.2656,25.5 126.5,25.7656 Q126.75,26.0156 126.75,26.375 Q126.75,26.7188 126.4063,27.125 Q125.9063,27.7188 125.1094,28.0469 Q124.0625,28.5 122.7813,28.5 Q121.2813,28.5 120.0781,27.9063 Q119.1094,27.4375 118.4219,26.4219 Q117.75,25.4063 117.75,24.2031 L117.75,23.1094 Q117.75,21.8594 118.3438,20.7656 Q118.9531,19.6719 120,19.0938 Q121.0625,18.5 122.25,18.5 Q122.9688,18.5 123.5938,18.75 Q124.2188,19 124.75,19.5 Z " fill="#000000"/><text fill="#000000" font-family="sans-serif" font-size="12" lengthAdjust="spacing" textLength="125" x="143.25" y="27.9102">ShortestPathController</text><line style="stroke:#A80036;stroke-width:1.5;" x1="8" x2="371" y1="39" y2="39"/><line style="stroke:#A80036;stroke-width:1.5;" x1="8" x2="371" y1="47" y2="47"/><ellipse cx="18" cy="58" fill="#84BE84" rx="3" ry="3" style="stroke:#038048;stroke-width:1.0;"/><text fill="#000000" font-family="sans-serif" font-size="11" lengthAdjust="spacing" textLength="339" x="27" y="62.4189">Matrix positionContainers(containers, xMax, yMax, zMax, centerMass)</text><!--MD5=[28d34c06fd3935264b115e13df928d1f]
reverse link ShortestPathController to ShortestPathUI--><path codeLine="11" d="M189.5,74.52 C189.5,91.75 189.5,112.24 189.5,128.73 " fill="none" id="ShortestPathController-backto-ShortestPathUI" style="stroke:#A80036;stroke-width:1.0;stroke-dasharray:7.0,7.0;"/><polygon fill="#A80036" points="189.5,69.28,185.5,78.28,189.5,74.28,193.5,78.28,189.5,69.28" style="stroke:#A80036;stroke-width:1.0;"/><!--MD5=[f93b82dc020f4dcb2eb24e3fdc96e933]
@startuml
'https://plantuml.com/class-diagram

class ShortestPathUI {
- controller
}

class ShortestPathController {
+ Matrix positionContainers(containers, xMax, yMax, zMax, centerMass)
}

ShortestPathController <.. ShortestPathUI

@enduml

@startuml

class ShortestPathUI {
- controller
}

class ShortestPathController {
+ Matrix positionContainers(containers, xMax, yMax, zMax, centerMass)
}

ShortestPathController <.. ShortestPathUI

@enduml

PlantUML version 1.2021.00(Sun Jan 10 10:25:05 GMT 2021)
(GPL source distribution)
Java Runtime: OpenJDK Runtime Environment
JVM: OpenJDK 64-Bit Server VM
Default Encoding: Cp1252
Language: pt
Country: PT
--></g></svg>