<?xml version="1.0" encoding="UTF-8" standalone="no"?><svg xmlns="http://www.w3.org/2000/svg" xmlns:xlink="http://www.w3.org/1999/xlink" contentScriptType="application/ecmascript" contentStyleType="text/css" height="262px" preserveAspectRatio="none" style="width:1032px;height:262px;" version="1.1" viewBox="0 0 1032 262" width="1032px" zoomAndPan="magnify"><defs><filter height="300%" id="fz6r3qb3r65r1" width="300%" x="-1" y="-1"><feGaussianBlur result="blurOut" stdDeviation="2.0"/><feColorMatrix in="blurOut" result="blurOut2" type="matrix" values="0 0 0 0 0 0 0 0 0 0 0 0 0 0 0 0 0 0 .4 0"/><feOffset dx="4.0" dy="4.0" in="blurOut2" result="blurOut3"/><feBlend in="SourceGraphic" in2="blurOut3" mode="normal"/></filter></defs><g><!--MD5=[02e4b9b7573f1156f41e60aa5b4e25a4]
class Company--><rect codeLine="7" fill="#FEFECE" filter="url(#fz6r3qb3r65r1)" height="61.8359" id="Company" style="stroke:#A80036;stroke-width:1.5;" width="85" x="7" y="97"/><ellipse cx="22" cy="113" fill="#ADD1B2" rx="11" ry="11" style="stroke:#A80036;stroke-width:1.0;"/><path d="M24,109.5 Q24.2031,109 24.4375,108.75 Q24.6719,108.5 24.9375,108.5 Q25.4063,108.5 25.7031,108.7813 Q26,109.0625 26,109.7188 L26,111.2813 Q26,111.9375 25.7188,112.2188 Q25.4375,112.5 25,112.5 Q24.6094,112.5 24.3594,112.3281 Q24.1094,112.1563 24,111.7031 Q23.9531,111.3906 23.7813,111.2188 Q23.4688,110.8906 22.9063,110.7031 Q22.3438,110.5 21.7813,110.5 Q21.0781,110.5 20.4844,110.7813 Q19.9063,111.0625 19.4531,111.6875 Q19,112.3125 19,113.1719 L19,114.0938 Q19,115.125 19.8438,115.8125 Q20.6875,116.5 22.1875,116.5 Q23.0781,116.5 23.7031,116.2969 Q24.0625,116.1875 24.4688,115.8281 Q24.7344,115.625 24.875,115.5625 Q25.0156,115.5 25.1875,115.5 Q25.5156,115.5 25.75,115.7656 Q26,116.0156 26,116.375 Q26,116.7188 25.6563,117.125 Q25.1563,117.7188 24.3594,118.0469 Q23.3125,118.5 22.0313,118.5 Q20.5313,118.5 19.3281,117.9063 Q18.3594,117.4375 17.6719,116.4219 Q17,115.4063 17,114.2031 L17,113.1094 Q17,111.8594 17.5938,110.7656 Q18.2031,109.6719 19.25,109.0938 Q20.3125,108.5 21.5,108.5 Q22.2188,108.5 22.8438,108.75 Q23.4688,109 24,109.5 Z " fill="#000000"/><text fill="#000000" font-family="sans-serif" font-size="12" lengthAdjust="spacing" textLength="53" x="36" y="117.9102">Company</text><line style="stroke:#A80036;stroke-width:1.5;" x1="8" x2="91" y1="129" y2="129"/><text fill="#000000" font-family="sans-serif" font-size="11" lengthAdjust="spacing" textLength="60" x="13" y="144.4189">-Designation</text><line style="stroke:#A80036;stroke-width:1.5;" x1="8" x2="91" y1="150.8359" y2="150.8359"/><!--MD5=[0dc7f2ddb409b58bcf52b12238c25399]
class Ship--><rect codeLine="11" fill="#FEFECE" filter="url(#fz6r3qb3r65r1)" height="241.7031" id="Ship" style="stroke:#A80036;stroke-width:1.5;" width="161" x="200" y="7"/><ellipse cx="263.75" cy="23" fill="#ADD1B2" rx="11" ry="11" style="stroke:#A80036;stroke-width:1.0;"/><path d="M265.75,19.5 Q265.9531,19 266.1875,18.75 Q266.4219,18.5 266.6875,18.5 Q267.1563,18.5 267.4531,18.7813 Q267.75,19.0625 267.75,19.7188 L267.75,21.2813 Q267.75,21.9375 267.4688,22.2188 Q267.1875,22.5 266.75,22.5 Q266.3594,22.5 266.1094,22.3281 Q265.8594,22.1563 265.75,21.7031 Q265.7031,21.3906 265.5313,21.2188 Q265.2188,20.8906 264.6563,20.7031 Q264.0938,20.5 263.5313,20.5 Q262.8281,20.5 262.2344,20.7813 Q261.6563,21.0625 261.2031,21.6875 Q260.75,22.3125 260.75,23.1719 L260.75,24.0938 Q260.75,25.125 261.5938,25.8125 Q262.4375,26.5 263.9375,26.5 Q264.8281,26.5 265.4531,26.2969 Q265.8125,26.1875 266.2188,25.8281 Q266.4844,25.625 266.625,25.5625 Q266.7656,25.5 266.9375,25.5 Q267.2656,25.5 267.5,25.7656 Q267.75,26.0156 267.75,26.375 Q267.75,26.7188 267.4063,27.125 Q266.9063,27.7188 266.1094,28.0469 Q265.0625,28.5 263.7813,28.5 Q262.2813,28.5 261.0781,27.9063 Q260.1094,27.4375 259.4219,26.4219 Q258.75,25.4063 258.75,24.2031 L258.75,23.1094 Q258.75,21.8594 259.3438,20.7656 Q259.9531,19.6719 261,19.0938 Q262.0625,18.5 263.25,18.5 Q263.9688,18.5 264.5938,18.75 Q265.2188,19 265.75,19.5 Z " fill="#000000"/><text fill="#000000" font-family="sans-serif" font-size="12" lengthAdjust="spacing" textLength="25" x="284.25" y="27.9102">Ship</text><line style="stroke:#A80036;stroke-width:1.5;" x1="201" x2="360" y1="39" y2="39"/><text fill="#000000" font-family="sans-serif" font-size="11" lengthAdjust="spacing" textLength="29" x="206" y="54.4189">-MMSI</text><text fill="#000000" font-family="sans-serif" font-size="11" lengthAdjust="spacing" textLength="31" x="206" y="68.2549">-Name</text><text fill="#000000" font-family="sans-serif" font-size="11" lengthAdjust="spacing" textLength="22" x="206" y="82.0908">-IMO</text><text fill="#000000" font-family="sans-serif" font-size="11" lengthAdjust="spacing" textLength="149" x="206" y="95.9268">-Number of Energy Generators</text><text fill="#000000" font-family="sans-serif" font-size="11" lengthAdjust="spacing" textLength="131" x="206" y="109.7627">-Generators' Power Output</text><text fill="#000000" font-family="sans-serif" font-size="11" lengthAdjust="spacing" textLength="44" x="206" y="123.5986">-Call sign</text><text fill="#000000" font-family="sans-serif" font-size="11" lengthAdjust="spacing" textLength="62" x="206" y="137.4346">-Vessel type</text><text fill="#000000" font-family="sans-serif" font-size="11" lengthAdjust="spacing" textLength="37" x="206" y="151.2705">-Length</text><text fill="#000000" font-family="sans-serif" font-size="11" lengthAdjust="spacing" textLength="31" x="206" y="165.1064">-Width</text><text fill="#000000" font-family="sans-serif" font-size="11" lengthAdjust="spacing" textLength="46" x="206" y="178.9424">-Capacity</text><text fill="#000000" font-family="sans-serif" font-size="11" lengthAdjust="spacing" textLength="28" x="206" y="192.7783">-Draft</text><text fill="#000000" font-family="sans-serif" font-size="11" lengthAdjust="spacing" textLength="69" x="206" y="206.6143">-FleetManager</text><text fill="#000000" font-family="sans-serif" font-size="11" lengthAdjust="spacing" textLength="61" x="206" y="220.4502">-ShipCaptain</text><text fill="#000000" font-family="sans-serif" font-size="11" lengthAdjust="spacing" textLength="135" x="206" y="234.2861">-ShipChiefElectricalEngineer</text><line style="stroke:#A80036;stroke-width:1.5;" x1="201" x2="360" y1="240.7031" y2="240.7031"/><!--MD5=[18f5b4ccae6e62f3670d3aa352beb4cd]
class Trip--><rect codeLine="28" fill="#FEFECE" filter="url(#fz6r3qb3r65r1)" height="75.6719" id="Trip" style="stroke:#A80036;stroke-width:1.5;" width="79" x="486" y="90"/><ellipse cx="512.7" cy="106" fill="#ADD1B2" rx="11" ry="11" style="stroke:#A80036;stroke-width:1.0;"/><path d="M514.7,102.5 Q514.9031,102 515.1375,101.75 Q515.3719,101.5 515.6375,101.5 Q516.1063,101.5 516.4031,101.7813 Q516.7,102.0625 516.7,102.7188 L516.7,104.2813 Q516.7,104.9375 516.4188,105.2188 Q516.1375,105.5 515.7,105.5 Q515.3094,105.5 515.0594,105.3281 Q514.8094,105.1563 514.7,104.7031 Q514.6531,104.3906 514.4813,104.2188 Q514.1688,103.8906 513.6063,103.7031 Q513.0438,103.5 512.4813,103.5 Q511.7781,103.5 511.1844,103.7813 Q510.6063,104.0625 510.1531,104.6875 Q509.7,105.3125 509.7,106.1719 L509.7,107.0938 Q509.7,108.125 510.5438,108.8125 Q511.3875,109.5 512.8875,109.5 Q513.7781,109.5 514.4031,109.2969 Q514.7625,109.1875 515.1688,108.8281 Q515.4344,108.625 515.575,108.5625 Q515.7156,108.5 515.8875,108.5 Q516.2156,108.5 516.45,108.7656 Q516.7,109.0156 516.7,109.375 Q516.7,109.7188 516.3563,110.125 Q515.8563,110.7188 515.0594,111.0469 Q514.0125,111.5 512.7313,111.5 Q511.2313,111.5 510.0281,110.9063 Q509.0594,110.4375 508.3719,109.4219 Q507.7,108.4063 507.7,107.2031 L507.7,106.1094 Q507.7,104.8594 508.2938,103.7656 Q508.9031,102.6719 509.95,102.0938 Q511.0125,101.5 512.2,101.5 Q512.9188,101.5 513.5438,101.75 Q514.1688,102 514.7,102.5 Z " fill="#000000"/><text fill="#000000" font-family="sans-serif" font-size="12" lengthAdjust="spacing" textLength="21" x="529.3" y="110.9102">Trip</text><line style="stroke:#A80036;stroke-width:1.5;" x1="487" x2="564" y1="122" y2="122"/><text fill="#000000" font-family="sans-serif" font-size="11" lengthAdjust="spacing" textLength="67" x="492" y="137.4189">-Starting point</text><text fill="#000000" font-family="sans-serif" font-size="11" lengthAdjust="spacing" textLength="57" x="492" y="151.2549">-Destination</text><line style="stroke:#A80036;stroke-width:1.5;" x1="487" x2="564" y1="157.6719" y2="157.6719"/><!--MD5=[76562047389981627aea27c31a97aff5]
class CargoManifest--><rect codeLine="33" fill="#FEFECE" filter="url(#fz6r3qb3r65r1)" height="89.5078" id="CargoManifest" style="stroke:#A80036;stroke-width:1.5;" width="112" x="661" y="83"/><ellipse cx="676" cy="99" fill="#ADD1B2" rx="11" ry="11" style="stroke:#A80036;stroke-width:1.0;"/><path d="M678,95.5 Q678.2031,95 678.4375,94.75 Q678.6719,94.5 678.9375,94.5 Q679.4063,94.5 679.7031,94.7813 Q680,95.0625 680,95.7188 L680,97.2813 Q680,97.9375 679.7188,98.2188 Q679.4375,98.5 679,98.5 Q678.6094,98.5 678.3594,98.3281 Q678.1094,98.1563 678,97.7031 Q677.9531,97.3906 677.7813,97.2188 Q677.4688,96.8906 676.9063,96.7031 Q676.3438,96.5 675.7813,96.5 Q675.0781,96.5 674.4844,96.7813 Q673.9063,97.0625 673.4531,97.6875 Q673,98.3125 673,99.1719 L673,100.0938 Q673,101.125 673.8438,101.8125 Q674.6875,102.5 676.1875,102.5 Q677.0781,102.5 677.7031,102.2969 Q678.0625,102.1875 678.4688,101.8281 Q678.7344,101.625 678.875,101.5625 Q679.0156,101.5 679.1875,101.5 Q679.5156,101.5 679.75,101.7656 Q680,102.0156 680,102.375 Q680,102.7188 679.6563,103.125 Q679.1563,103.7188 678.3594,104.0469 Q677.3125,104.5 676.0313,104.5 Q674.5313,104.5 673.3281,103.9063 Q672.3594,103.4375 671.6719,102.4219 Q671,101.4063 671,100.2031 L671,99.1094 Q671,97.8594 671.5938,96.7656 Q672.2031,95.6719 673.25,95.0938 Q674.3125,94.5 675.5,94.5 Q676.2188,94.5 676.8438,94.75 Q677.4688,95 678,95.5 Z " fill="#000000"/><text fill="#000000" font-family="sans-serif" font-size="12" lengthAdjust="spacing" textLength="80" x="690" y="103.9102">CargoManifest</text><line style="stroke:#A80036;stroke-width:1.5;" x1="662" x2="772" y1="115" y2="115"/><text fill="#000000" font-family="sans-serif" font-size="11" lengthAdjust="spacing" textLength="57" x="667" y="130.4189">-Destination</text><text fill="#000000" font-family="sans-serif" font-size="11" lengthAdjust="spacing" textLength="79" x="667" y="144.2549">-Date_time_start</text><text fill="#000000" font-family="sans-serif" font-size="11" lengthAdjust="spacing" textLength="75" x="667" y="158.0908">-Date_time_end</text><line style="stroke:#A80036;stroke-width:1.5;" x1="662" x2="772" y1="164.5078" y2="164.5078"/><!--MD5=[e9a58730c562b34349daa605d1ed6662]
class Container--><rect codeLine="39" fill="#FEFECE" filter="url(#fz6r3qb3r65r1)" height="172.5234" id="Container" style="stroke:#A80036;stroke-width:1.5;" width="86" x="932" y="41.5"/><ellipse cx="947" cy="57.5" fill="#ADD1B2" rx="11" ry="11" style="stroke:#A80036;stroke-width:1.0;"/><path d="M949,54 Q949.2031,53.5 949.4375,53.25 Q949.6719,53 949.9375,53 Q950.4063,53 950.7031,53.2813 Q951,53.5625 951,54.2188 L951,55.7813 Q951,56.4375 950.7188,56.7188 Q950.4375,57 950,57 Q949.6094,57 949.3594,56.8281 Q949.1094,56.6563 949,56.2031 Q948.9531,55.8906 948.7813,55.7188 Q948.4688,55.3906 947.9063,55.2031 Q947.3438,55 946.7813,55 Q946.0781,55 945.4844,55.2813 Q944.9063,55.5625 944.4531,56.1875 Q944,56.8125 944,57.6719 L944,58.5938 Q944,59.625 944.8438,60.3125 Q945.6875,61 947.1875,61 Q948.0781,61 948.7031,60.7969 Q949.0625,60.6875 949.4688,60.3281 Q949.7344,60.125 949.875,60.0625 Q950.0156,60 950.1875,60 Q950.5156,60 950.75,60.2656 Q951,60.5156 951,60.875 Q951,61.2188 950.6563,61.625 Q950.1563,62.2188 949.3594,62.5469 Q948.3125,63 947.0313,63 Q945.5313,63 944.3281,62.4063 Q943.3594,61.9375 942.6719,60.9219 Q942,59.9063 942,58.7031 L942,57.6094 Q942,56.3594 942.5938,55.2656 Q943.2031,54.1719 944.25,53.5938 Q945.3125,53 946.5,53 Q947.2188,53 947.8438,53.25 Q948.4688,53.5 949,54 Z " fill="#000000"/><text fill="#000000" font-family="sans-serif" font-size="12" lengthAdjust="spacing" textLength="54" x="961" y="62.4102">Container</text><line style="stroke:#A80036;stroke-width:1.5;" x1="933" x2="1017" y1="73.5" y2="73.5"/><text fill="#000000" font-family="sans-serif" font-size="11" lengthAdjust="spacing" textLength="64" x="938" y="88.9189">-Identification</text><text fill="#000000" font-family="sans-serif" font-size="11" lengthAdjust="spacing" textLength="42" x="938" y="102.7549">-Payload</text><text fill="#000000" font-family="sans-serif" font-size="11" lengthAdjust="spacing" textLength="26" x="938" y="116.5908">-Tare</text><text fill="#000000" font-family="sans-serif" font-size="11" lengthAdjust="spacing" textLength="34" x="938" y="130.4268">-Gross</text><text fill="#000000" font-family="sans-serif" font-size="11" lengthAdjust="spacing" textLength="31" x="938" y="144.2627">-Width</text><text fill="#000000" font-family="sans-serif" font-size="11" lengthAdjust="spacing" textLength="34" x="938" y="158.0986">-Height</text><text fill="#000000" font-family="sans-serif" font-size="11" lengthAdjust="spacing" textLength="37" x="938" y="171.9346">-Length</text><text fill="#000000" font-family="sans-serif" font-size="11" lengthAdjust="spacing" textLength="64" x="938" y="185.7705">-Refrigerated</text><text fill="#000000" font-family="sans-serif" font-size="11" lengthAdjust="spacing" textLength="65" x="938" y="199.6064">-Temperature</text><line style="stroke:#A80036;stroke-width:1.5;" x1="933" x2="1017" y1="206.0234" y2="206.0234"/><!--MD5=[37a14a5de6d6fd738aee271300f4b5c8]
link Company to Ship--><path codeLine="51" d="M92.24,128 C122.17,128 163.42,128 199.59,128 " fill="none" id="Company-Ship" style="stroke:#A80036;stroke-width:1.0;"/><polygon fill="#000000" points="132,119.1758,122.9549,116.2369,122.9549,122.1147,132,119.1758" style="stroke:#000000;stroke-width:1.0;"/><text fill="#000000" font-family="sans-serif" font-size="13" lengthAdjust="spacing" textLength="33" x="136" y="124.4951">Owns</text><text fill="#000000" font-family="sans-serif" font-size="13" lengthAdjust="spacing" textLength="7" x="99.8985" y="142.8628">1</text><text fill="#000000" font-family="sans-serif" font-size="13" lengthAdjust="spacing" textLength="20" x="172.0615" y="142.1845">1..*</text><!--MD5=[7c2ed8f842290e081d69a6d4a2daa6d0]
link Ship to Trip--><path codeLine="52" d="M361.07,128 C402.87,128 452.22,128 485.67,128 " fill="none" id="Ship-Trip" style="stroke:#A80036;stroke-width:1.0;"/><polygon fill="#000000" points="401,119.1758,391.9549,116.2369,391.9549,122.1147,401,119.1758" style="stroke:#000000;stroke-width:1.0;"/><text fill="#000000" font-family="sans-serif" font-size="13" lengthAdjust="spacing" textLength="50" x="405" y="124.4951">performs</text><text fill="#000000" font-family="sans-serif" font-size="13" lengthAdjust="spacing" textLength="7" x="369.0829" y="142.2885">1</text><text fill="#000000" font-family="sans-serif" font-size="13" lengthAdjust="spacing" textLength="5" x="473.13" y="142.9807">*</text><!--MD5=[17b7ccf869bd0829dc5fdfacb355ba75]
link Trip to CargoManifest--><path codeLine="53" d="M565.31,128 C592.81,128 630.11,128 660.72,128 " fill="none" id="Trip-CargoManifest" style="stroke:#A80036;stroke-width:1.0;"/><polygon fill="#000000" points="605,119.1758,595.9549,116.2369,595.9549,122.1147,605,119.1758" style="stroke:#000000;stroke-width:1.0;"/><text fill="#000000" font-family="sans-serif" font-size="13" lengthAdjust="spacing" textLength="21" x="609" y="124.4951">has</text><text fill="#000000" font-family="sans-serif" font-size="13" lengthAdjust="spacing" textLength="20" x="572.9372" y="142.7722">1..*</text><text fill="#000000" font-family="sans-serif" font-size="13" lengthAdjust="spacing" textLength="20" x="633.0564" y="142.4689">1..*</text><!--MD5=[a93f71c337684849482b0ec5675aa7db]
link CargoManifest to Container--><path codeLine="54" d="M773.23,128 C820.86,128 888.6,128 931.94,128 " fill="none" id="CargoManifest-Container" style="stroke:#A80036;stroke-width:1.0;"/><polygon fill="#000000" points="813,119.1758,803.9549,116.2369,803.9549,122.1147,813,119.1758" style="stroke:#000000;stroke-width:1.0;"/><text fill="#000000" font-family="sans-serif" font-size="13" lengthAdjust="spacing" textLength="84" x="817" y="124.4951">Keeps track of</text><text fill="#000000" font-family="sans-serif" font-size="13" lengthAdjust="spacing" textLength="5" x="781.1218" y="142.6268">*</text><text fill="#000000" font-family="sans-serif" font-size="13" lengthAdjust="spacing" textLength="20" x="904.1468" y="142.7309">1..*</text><!--MD5=[6124cbd00f62965c9b749e9fe4851cb4]
@startuml
'https://plantuml.com/class-diagram

skinparam classAttributeIconSize 0

left to right direction

class Company {
-Designation
}

class Ship {
-MMSI
-Name
-IMO
-Number of Energy Generators
-Generators' Power Output
-Call sign
-Vessel type
-Length
-Width
-Capacity
-Draft
-FleetManager
-ShipCaptain
-ShipChiefElectricalEngineer
}

class Trip {
-Starting point
-Destination
}

class CargoManifest {
-Destination
-Date_time_start
-Date_time_end
}

class Container {
-Identification
-Payload
-Tare
-Gross
-Width
-Height
-Length
-Refrigerated
-Temperature
}

Company "1" - - "1..*" Ship : Owns >
Ship "1" - - "*" Trip : performs >
Trip "1..*" - - "1..*" CargoManifest : has >
CargoManifest "*" - - "1..*" Container : Keeps track of >
@enduml

@startuml

skinparam classAttributeIconSize 0

left to right direction

class Company {
-Designation
}

class Ship {
-MMSI
-Name
-IMO
-Number of Energy Generators
-Generators' Power Output
-Call sign
-Vessel type
-Length
-Width
-Capacity
-Draft
-FleetManager
-ShipCaptain
-ShipChiefElectricalEngineer
}

class Trip {
-Starting point
-Destination
}

class CargoManifest {
-Destination
-Date_time_start
-Date_time_end
}

class Container {
-Identification
-Payload
-Tare
-Gross
-Width
-Height
-Length
-Refrigerated
-Temperature
}

Company "1" - - "1..*" Ship : Owns >
Ship "1" - - "*" Trip : performs >
Trip "1..*" - - "1..*" CargoManifest : has >
CargoManifest "*" - - "1..*" Container : Keeps track of >
@enduml

PlantUML version 1.2021.00(Sun Jan 10 10:25:05 GMT 2021)
(GPL source distribution)
Java Runtime: OpenJDK Runtime Environment
JVM: OpenJDK 64-Bit Server VM
Default Encoding: Cp1252
Language: pt
Country: PT
--></g></svg>