<?xml version="1.0" encoding="UTF-8" standalone="no"?><svg xmlns="http://www.w3.org/2000/svg" xmlns:xlink="http://www.w3.org/1999/xlink" contentScriptType="application/ecmascript" contentStyleType="text/css" height="371px" preserveAspectRatio="none" style="width:227px;height:371px;background:#FFFFFF;" version="1.1" viewBox="0 0 227 371" width="227px" zoomAndPan="magnify"><defs><filter height="300%" id="f1clwtkp9tippy" width="300%" x="-1" y="-1"><feGaussianBlur result="blurOut" stdDeviation="2.0"/><feColorMatrix in="blurOut" result="blurOut2" type="matrix" values="0 0 0 0 0 0 0 0 0 0 0 0 0 0 0 0 0 0 .4 0"/><feOffset dx="4.0" dy="4.0" in="blurOut2" result="blurOut3"/><feBlend in="SourceGraphic" in2="blurOut3" mode="normal"/></filter></defs><g><!--MD5=[deb4e1f6eb1e3c1256fdb830f96abfbb]
class Country--><rect codeLine="3" fill="#FEFECE" filter="url(#f1clwtkp9tippy)" height="158.6875" id="Country" style="stroke:#A80036;stroke-width:1.5;" width="88" x="125.5" y="7"/><ellipse cx="146.8" cy="23" fill="#ADD1B2" rx="11" ry="11" style="stroke:#A80036;stroke-width:1.0;"/><path d="M145.3,24 L145.3,26 L149.3,26 L149.3,25 L149.3,24.5156 L149.925,24 L150.3,24 L150.675,24 L151.3,24.5156 L151.3,25 L151.3,28 L143.3,28 L142.8156,28 L142.3,27.375 L142.3,27 L142.3,26.625 L142.8156,26 L143.3,26 L143.3,26 L143.3,20 L143.3,20 L142.8156,20 L142.3,19.375 L142.3,19 L142.3,18.625 L142.8156,18 L143.3,18 L151.3,18 L151.3,21 L151.3,21.4844 L150.675,22 L150.3,22 L149.925,22 L149.3,21.4844 L149.3,21 L149.3,20 L145.3,20 L145.3,22 L146.3,22 L146.3,21.5156 L146.3,21.5156 L146.925,21 L147.3,21 L147.675,21 L148.3,21.5156 L148.3,22 L148.3,24 L148.3,24.4844 L147.675,25 L147.675,25 L147.3,25 L146.925,25 L146.3,24.4844 L146.3,24.4844 L146.3,24 L145.3,24 Z " fill="#000000"/><text fill="#000000" font-family="sans-serif" font-size="12" lengthAdjust="spacing" textLength="42" x="162.2" y="27.9102">Country</text><line style="stroke:#A80036;stroke-width:1.5;" x1="126.5" x2="212.5" y1="39" y2="39"/><ellipse cx="136.5" cy="50" fill="#000000" rx="3" ry="3" style="stroke:#000000;stroke-width:1.0;"/><text fill="#000000" font-family="sans-serif" font-size="11" lengthAdjust="spacing" textLength="62" x="145.5" y="54.4189">alpha2_code</text><line style="stroke:#A80036;stroke-width:1.0;" x1="126.5" x2="212.5" y1="60.8359" y2="60.8359"/><ellipse cx="136.5" cy="71.8359" fill="#000000" rx="3" ry="3" style="stroke:#000000;stroke-width:1.0;"/><text fill="#000000" font-family="sans-serif" font-size="11" lengthAdjust="spacing" textLength="62" x="145.5" y="76.2549">alpha3_code</text><ellipse cx="136.5" cy="85.6719" fill="#000000" rx="3" ry="3" style="stroke:#000000;stroke-width:1.0;"/><text fill="#000000" font-family="sans-serif" font-size="11" lengthAdjust="spacing" textLength="31" x="145.5" y="90.0908">capital</text><ellipse cx="136.5" cy="99.5078" fill="#000000" rx="3" ry="3" style="stroke:#000000;stroke-width:1.0;"/><text fill="#000000" font-family="sans-serif" font-size="11" lengthAdjust="spacing" textLength="37" x="145.5" y="103.9268">country</text><ellipse cx="136.5" cy="113.3438" fill="#000000" rx="3" ry="3" style="stroke:#000000;stroke-width:1.0;"/><text fill="#000000" font-family="sans-serif" font-size="11" lengthAdjust="spacing" textLength="44" x="145.5" y="117.7627">continent</text><ellipse cx="136.5" cy="127.1797" fill="#000000" rx="3" ry="3" style="stroke:#000000;stroke-width:1.0;"/><text fill="#000000" font-family="sans-serif" font-size="11" lengthAdjust="spacing" textLength="49" x="145.5" y="131.5986">population</text><ellipse cx="136.5" cy="141.0156" fill="#000000" rx="3" ry="3" style="stroke:#000000;stroke-width:1.0;"/><text fill="#000000" font-family="sans-serif" font-size="11" lengthAdjust="spacing" textLength="34" x="145.5" y="145.4346">latitude</text><ellipse cx="136.5" cy="154.8516" fill="#000000" rx="3" ry="3" style="stroke:#000000;stroke-width:1.0;"/><text fill="#000000" font-family="sans-serif" font-size="11" lengthAdjust="spacing" textLength="43" x="145.5" y="159.2705">longitude</text><!--MD5=[a0bfe97ac0a38e6e74cc1c7c7b744b71]
class Port--><rect codeLine="15" fill="#FEFECE" filter="url(#f1clwtkp9tippy)" height="131.0156" id="Port" style="stroke:#A80036;stroke-width:1.5;" width="93" x="7" y="226"/><ellipse cx="39.55" cy="242" fill="#ADD1B2" rx="11" ry="11" style="stroke:#A80036;stroke-width:1.0;"/><path d="M38.05,243 L38.05,245 L42.05,245 L42.05,244 L42.05,243.5156 L42.675,243 L43.05,243 L43.425,243 L44.05,243.5156 L44.05,244 L44.05,247 L36.05,247 L35.5656,247 L35.05,246.375 L35.05,246 L35.05,245.625 L35.5656,245 L36.05,245 L36.05,245 L36.05,239 L36.05,239 L35.5656,239 L35.05,238.375 L35.05,238 L35.05,237.625 L35.5656,237 L36.05,237 L44.05,237 L44.05,240 L44.05,240.4844 L43.425,241 L43.05,241 L42.675,241 L42.05,240.4844 L42.05,240 L42.05,239 L38.05,239 L38.05,241 L39.05,241 L39.05,240.5156 L39.05,240.5156 L39.675,240 L40.05,240 L40.425,240 L41.05,240.5156 L41.05,241 L41.05,243 L41.05,243.4844 L40.425,244 L40.425,244 L40.05,244 L39.675,244 L39.05,243.4844 L39.05,243.4844 L39.05,243 L38.05,243 Z " fill="#000000"/><text fill="#000000" font-family="sans-serif" font-size="12" lengthAdjust="spacing" textLength="22" x="57.45" y="246.9102">Port</text><line style="stroke:#A80036;stroke-width:1.5;" x1="8" x2="99" y1="258" y2="258"/><ellipse cx="18" cy="269" fill="#000000" rx="3" ry="3" style="stroke:#000000;stroke-width:1.0;"/><text fill="#000000" font-family="sans-serif" font-size="11" lengthAdjust="spacing" textLength="33" x="27" y="273.4189">id_port</text><line style="stroke:#A80036;stroke-width:1.0;" x1="8" x2="99" y1="279.8359" y2="279.8359"/><ellipse cx="18" cy="290.8359" fill="#000000" rx="3" ry="3" style="stroke:#000000;stroke-width:1.0;"/><text fill="#000000" font-family="sans-serif" font-size="11" lengthAdjust="spacing" textLength="26" x="27" y="295.2549">name</text><ellipse cx="18" cy="304.6719" fill="#000000" rx="3" ry="3" style="stroke:#000000;stroke-width:1.0;"/><text fill="#000000" font-family="sans-serif" font-size="11" lengthAdjust="spacing" textLength="67" x="27" y="309.0908">country_code</text><ellipse cx="18" cy="318.5078" fill="#000000" rx="3" ry="3" style="stroke:#000000;stroke-width:1.0;"/><text fill="#000000" font-family="sans-serif" font-size="11" lengthAdjust="spacing" textLength="34" x="27" y="322.9268">latitude</text><ellipse cx="18" cy="332.3438" fill="#000000" rx="3" ry="3" style="stroke:#000000;stroke-width:1.0;"/><text fill="#000000" font-family="sans-serif" font-size="11" lengthAdjust="spacing" textLength="43" x="27" y="336.7627">longitude</text><ellipse cx="18" cy="346.1797" fill="#000000" rx="3" ry="3" style="stroke:#000000;stroke-width:1.0;"/><text fill="#000000" font-family="sans-serif" font-size="11" lengthAdjust="spacing" textLength="41" x="27" y="350.5986">capacity</text><!--MD5=[a0336aaa8110b78d9cacadb9d45e00a3]
class Border--><rect codeLine="25" fill="#FEFECE" filter="url(#f1clwtkp9tippy)" height="75.6719" id="Border" style="stroke:#A80036;stroke-width:1.5;" width="69" x="135" y="253.5"/><ellipse cx="150" cy="269.5" fill="#ADD1B2" rx="11" ry="11" style="stroke:#A80036;stroke-width:1.0;"/><path d="M148.5,270.5 L148.5,272.5 L152.5,272.5 L152.5,271.5 L152.5,271.0156 L153.125,270.5 L153.5,270.5 L153.875,270.5 L154.5,271.0156 L154.5,271.5 L154.5,274.5 L146.5,274.5 L146.0156,274.5 L145.5,273.875 L145.5,273.5 L145.5,273.125 L146.0156,272.5 L146.5,272.5 L146.5,272.5 L146.5,266.5 L146.5,266.5 L146.0156,266.5 L145.5,265.875 L145.5,265.5 L145.5,265.125 L146.0156,264.5 L146.5,264.5 L154.5,264.5 L154.5,267.5 L154.5,267.9844 L153.875,268.5 L153.5,268.5 L153.125,268.5 L152.5,267.9844 L152.5,267.5 L152.5,266.5 L148.5,266.5 L148.5,268.5 L149.5,268.5 L149.5,268.0156 L149.5,268.0156 L150.125,267.5 L150.5,267.5 L150.875,267.5 L151.5,268.0156 L151.5,268.5 L151.5,270.5 L151.5,270.9844 L150.875,271.5 L150.875,271.5 L150.5,271.5 L150.125,271.5 L149.5,270.9844 L149.5,270.9844 L149.5,270.5 L148.5,270.5 Z " fill="#000000"/><text fill="#000000" font-family="sans-serif" font-size="12" lengthAdjust="spacing" textLength="37" x="164" y="274.4102">Border</text><line style="stroke:#A80036;stroke-width:1.5;" x1="136" x2="203" y1="285.5" y2="285.5"/><ellipse cx="146" cy="296.5" fill="#000000" rx="3" ry="3" style="stroke:#000000;stroke-width:1.0;"/><text fill="#000000" font-family="sans-serif" font-size="11" lengthAdjust="spacing" textLength="43" x="155" y="300.9189">country1</text><ellipse cx="146" cy="310.3359" fill="#000000" rx="3" ry="3" style="stroke:#000000;stroke-width:1.0;"/><text fill="#000000" font-family="sans-serif" font-size="11" lengthAdjust="spacing" textLength="43" x="155" y="314.7549">country2</text><line style="stroke:#A80036;stroke-width:1.5;" x1="136" x2="203" y1="321.1719" y2="321.1719"/><!--MD5=[1c49245d7a7e90fcfb9bb62e49d927d2]
link Country to Port--><path codeLine="31" d="M121.39,171.68 C112.52,187.21 103.33,203.29 94.69,218.42 " fill="none" id="Country-Port" style="stroke:#A80036;stroke-width:1.0;"/><line style="stroke:#A80036;stroke-width:1.0;" x1="94.4514" x2="95.7028" y1="218.8097" y2="228.7311"/><line style="stroke:#A80036;stroke-width:1.0;" x1="94.4514" x2="85.2772" y1="218.8097" y2="222.7889"/><line style="stroke:#A80036;stroke-width:1.0;" x1="94.4514" x2="90.49" y1="218.8097" y2="225.76"/><ellipse cx="97.4225" cy="213.5969" rx="4" ry="4" style="stroke:#A80036;stroke-width:1.0;fill:none;"/><line style="stroke:#A80036;stroke-width:1.0;fill:none;" x1="120.0218" x2="126.966" y1="166.026" y2="169.9982"/><line style="stroke:#A80036;stroke-width:1.0;fill:none;" x1="118.5322" x2="125.4764" y1="168.6301" y2="172.6023"/><line style="stroke:#A80036;stroke-width:1.0;fill:none;" x1="121.5078" x2="125.48" y1="171.4842" y2="164.54"/><!--MD5=[553c71e238892de64676e9482c62727a]
link Country to Border--><path codeLine="32" d="M156.87,174.42 C156.47,198.83 157.08,224.4 158.68,245.31 " fill="none" id="Country-Border" style="stroke:#A80036;stroke-width:1.0;"/><line style="stroke:#A80036;stroke-width:1.0;" x1="158.4372" x2="159.38" y1="242.4105" y2="253.37"/><ellipse cx="158.4372" cy="242.4105" rx="4" ry="4" style="stroke:#A80036;stroke-width:1.0;fill:none;"/><line style="stroke:#A80036;stroke-width:1.0;fill:none;" x1="163.0225" x2="155.0519" y1="249.0419" y2="249.7275"/><line style="stroke:#A80036;stroke-width:1.0;fill:none;" x1="156.8829" x2="151.0412" y1="174.2785" y2="166.1622"/><line style="stroke:#A80036;stroke-width:1.0;fill:none;" x1="156.8829" x2="163.0388" y1="174.2785" y2="166.3978"/><line style="stroke:#A80036;stroke-width:1.0;fill:none;" x1="156.8829" x2="157.04" y1="174.2785" y2="166.28"/><line style="stroke:#A80036;stroke-width:1.0;fill:none;" x1="152.8444" x2="160.8428" y1="176.1995" y2="176.3566"/><!--MD5=[553c71e238892de64676e9482c62727a]
link Country to Border--><path codeLine="33" d="M182.88,174.42 C183.3,198.83 182.65,224.4 180.95,245.31 " fill="none" id="Country-Border-1" style="stroke:#A80036;stroke-width:1.0;"/><line style="stroke:#A80036;stroke-width:1.0;" x1="181.2212" x2="180.22" y1="242.4157" y2="253.37"/><ellipse cx="181.2212" cy="242.4157" rx="4" ry="4" style="stroke:#A80036;stroke-width:1.0;fill:none;"/><line style="stroke:#A80036;stroke-width:1.0;fill:none;" x1="184.5675" x2="176.6007" y1="249.7507" y2="249.0225"/><line style="stroke:#A80036;stroke-width:1.0;fill:none;" x1="182.8757" x2="176.6916" y1="174.2778" y2="166.4192"/><line style="stroke:#A80036;stroke-width:1.0;fill:none;" x1="182.8757" x2="188.6884" y1="174.2778" y2="166.1408"/><line style="stroke:#A80036;stroke-width:1.0;fill:none;" x1="182.8757" x2="182.69" y1="174.2778" y2="166.28"/><line style="stroke:#A80036;stroke-width:1.0;fill:none;" x1="178.9232" x2="186.921" y1="176.3701" y2="176.1845"/><!--MD5=[5904336a7c6c576388cbc86cd5a526da]
@startuml
'https://plantuml.com/class-diagram

entity Country {
* alpha2_code
- -
* alpha3_code
* capital
* country
* continent
* population
* latitude
* longitude
}

entity Port {
* id_port
- -
* name
* country_code
* latitude
* longitude
* capacity
}

entity Border {
* country1
* country2
}


Country ||- -o{ Port
Country }|- -o| Border
Country }|- -o| Border


@enduml

@startuml

entity Country {
* alpha2_code
- -
* alpha3_code
* capital
* country
* continent
* population
* latitude
* longitude
}

entity Port {
* id_port
- -
* name
* country_code
* latitude
* longitude
* capacity
}

entity Border {
* country1
* country2
}


Country ||- -o{ Port
Country }|- -o| Border
Country }|- -o| Border


@enduml

PlantUML version 1.2021.11(Sat Oct 02 14:26:11 BST 2021)
(GPL source distribution)
Java Runtime: OpenJDK Runtime Environment
JVM: OpenJDK 64-Bit Server VM
Default Encoding: Cp1252
Language: pt
Country: PT
--></g></svg>