<?xml version="1.0" encoding="UTF-8" standalone="no"?><svg xmlns="http://www.w3.org/2000/svg" xmlns:xlink="http://www.w3.org/1999/xlink" contentScriptType="application/ecmascript" contentStyleType="text/css" height="476px" preserveAspectRatio="none" style="width:377px;height:476px;background:#FFFFFF;" version="1.1" viewBox="0 0 377 476" width="377px" zoomAndPan="magnify"><defs><filter height="300%" id="f7tquirpqio5n" width="300%" x="-1" y="-1"><feGaussianBlur result="blurOut" stdDeviation="2.0"/><feColorMatrix in="blurOut" result="blurOut2" type="matrix" values="0 0 0 0 0 0 0 0 0 0 0 0 0 0 0 0 0 0 .4 0"/><feOffset dx="4.0" dy="4.0" in="blurOut2" result="blurOut3"/><feBlend in="SourceGraphic" in2="blurOut3" mode="normal"/></filter></defs><g><!--MD5=[31b8d52a694eb489b997d00a07b57675]
class ColourMapUI--><rect codeLine="3" fill="#FEFECE" filter="url(#f7tquirpqio5n)" height="61.8359" id="ColourMapUI" style="stroke:#A80036;stroke-width:1.5;" width="104" x="133" y="401"/><ellipse cx="148" cy="417" fill="#ADD1B2" rx="11" ry="11" style="stroke:#A80036;stroke-width:1.0;"/><path d="M150,413.5 Q150.2031,413 150.4375,412.75 Q150.6719,412.5 150.9375,412.5 Q151.4063,412.5 151.7031,412.7813 Q152,413.0625 152,413.7188 L152,415.2813 Q152,415.9375 151.7188,416.2188 Q151.4375,416.5 151,416.5 Q150.6094,416.5 150.3594,416.3281 Q150.1094,416.1563 150,415.7031 Q149.9531,415.3906 149.7813,415.2188 Q149.4688,414.8906 148.9063,414.7031 Q148.3438,414.5 147.7813,414.5 Q147.0781,414.5 146.4844,414.7813 Q145.9063,415.0625 145.4531,415.6875 Q145,416.3125 145,417.1719 L145,418.0938 Q145,419.125 145.8438,419.8125 Q146.6875,420.5 148.1875,420.5 Q149.0781,420.5 149.7031,420.2969 Q150.0625,420.1875 150.4688,419.8281 Q150.7344,419.625 150.875,419.5625 Q151.0156,419.5 151.1875,419.5 Q151.5156,419.5 151.75,419.7656 Q152,420.0156 152,420.375 Q152,420.7188 151.6563,421.125 Q151.1563,421.7188 150.3594,422.0469 Q149.3125,422.5 148.0313,422.5 Q146.5313,422.5 145.3281,421.9063 Q144.3594,421.4375 143.6719,420.4219 Q143,419.4063 143,418.2031 L143,417.1094 Q143,415.8594 143.5938,414.7656 Q144.2031,413.6719 145.25,413.0938 Q146.3125,412.5 147.5,412.5 Q148.2188,412.5 148.8438,412.75 Q149.4688,413 150,413.5 Z " fill="#000000"/><text fill="#000000" font-family="sans-serif" font-size="12" lengthAdjust="spacing" textLength="72" x="162" y="421.9102">ColourMapUI</text><line style="stroke:#A80036;stroke-width:1.5;" x1="134" x2="236" y1="433" y2="433"/><rect fill="none" height="6" style="stroke:#C82930;stroke-width:1.0;" width="6" x="141" y="441"/><text fill="#000000" font-family="sans-serif" font-size="11" lengthAdjust="spacing" textLength="45" x="153" y="448.4189">controller</text><line style="stroke:#A80036;stroke-width:1.5;" x1="134" x2="236" y1="454.8359" y2="454.8359"/><!--MD5=[0b0cd4685579e6977db55e746db6c10c]
class ColourMapController--><rect codeLine="7" fill="#FEFECE" filter="url(#f7tquirpqio5n)" height="89.5078" id="ColourMapController" style="stroke:#A80036;stroke-width:1.5;" width="356" x="7" y="251"/><ellipse cx="123.75" cy="267" fill="#ADD1B2" rx="11" ry="11" style="stroke:#A80036;stroke-width:1.0;"/><path d="M125.75,263.5 Q125.9531,263 126.1875,262.75 Q126.4219,262.5 126.6875,262.5 Q127.1563,262.5 127.4531,262.7813 Q127.75,263.0625 127.75,263.7188 L127.75,265.2813 Q127.75,265.9375 127.4688,266.2188 Q127.1875,266.5 126.75,266.5 Q126.3594,266.5 126.1094,266.3281 Q125.8594,266.1563 125.75,265.7031 Q125.7031,265.3906 125.5313,265.2188 Q125.2188,264.8906 124.6563,264.7031 Q124.0938,264.5 123.5313,264.5 Q122.8281,264.5 122.2344,264.7813 Q121.6563,265.0625 121.2031,265.6875 Q120.75,266.3125 120.75,267.1719 L120.75,268.0938 Q120.75,269.125 121.5938,269.8125 Q122.4375,270.5 123.9375,270.5 Q124.8281,270.5 125.4531,270.2969 Q125.8125,270.1875 126.2188,269.8281 Q126.4844,269.625 126.625,269.5625 Q126.7656,269.5 126.9375,269.5 Q127.2656,269.5 127.5,269.7656 Q127.75,270.0156 127.75,270.375 Q127.75,270.7188 127.4063,271.125 Q126.9063,271.7188 126.1094,272.0469 Q125.0625,272.5 123.7813,272.5 Q122.2813,272.5 121.0781,271.9063 Q120.1094,271.4375 119.4219,270.4219 Q118.75,269.4063 118.75,268.2031 L118.75,267.1094 Q118.75,265.8594 119.3438,264.7656 Q119.9531,263.6719 121,263.0938 Q122.0625,262.5 123.25,262.5 Q123.9688,262.5 124.5938,262.75 Q125.2188,263 125.75,263.5 Z " fill="#000000"/><text fill="#000000" font-family="sans-serif" font-size="12" lengthAdjust="spacing" textLength="114" x="144.25" y="271.9102">ColourMapController</text><line style="stroke:#A80036;stroke-width:1.5;" x1="8" x2="362" y1="283" y2="283"/><line style="stroke:#A80036;stroke-width:1.5;" x1="8" x2="362" y1="291" y2="291"/><ellipse cx="18" cy="302" fill="#84BE84" rx="3" ry="3" style="stroke:#038048;stroke-width:1.0;"/><text fill="#000000" font-family="sans-serif" font-size="11" lengthAdjust="spacing" textLength="196" x="27" y="306.4189">calculateNumberOfColours(Graph grafo)</text><ellipse cx="18" cy="315.8359" fill="#84BE84" rx="3" ry="3" style="stroke:#038048;stroke-width:1.0;"/><text fill="#000000" font-family="sans-serif" font-size="11" lengthAdjust="spacing" textLength="149" x="27" y="320.2549">colourMap(Graph&lt;V, E&gt; grafo)</text><ellipse cx="18" cy="329.6719" fill="#84BE84" rx="3" ry="3" style="stroke:#038048;stroke-width:1.0;"/><text fill="#000000" font-family="sans-serif" font-size="11" lengthAdjust="spacing" textLength="330" x="27" y="334.0908">atributeColour(List&lt;V&gt; l, Map&lt;V, Integer&gt; map, int numberOfColours)</text><!--MD5=[02e4b9b7573f1156f41e60aa5b4e25a4]
class Company--><rect codeLine="14" fill="#FEFECE" filter="url(#f7tquirpqio5n)" height="61.8359" id="Company" style="stroke:#A80036;stroke-width:1.5;" width="123" x="123.5" y="129"/><ellipse cx="155.6" cy="145" fill="#ADD1B2" rx="11" ry="11" style="stroke:#A80036;stroke-width:1.0;"/><path d="M157.6,141.5 Q157.8031,141 158.0375,140.75 Q158.2719,140.5 158.5375,140.5 Q159.0063,140.5 159.3031,140.7813 Q159.6,141.0625 159.6,141.7188 L159.6,143.2813 Q159.6,143.9375 159.3188,144.2188 Q159.0375,144.5 158.6,144.5 Q158.2094,144.5 157.9594,144.3281 Q157.7094,144.1563 157.6,143.7031 Q157.5531,143.3906 157.3813,143.2188 Q157.0688,142.8906 156.5063,142.7031 Q155.9438,142.5 155.3813,142.5 Q154.6781,142.5 154.0844,142.7813 Q153.5063,143.0625 153.0531,143.6875 Q152.6,144.3125 152.6,145.1719 L152.6,146.0938 Q152.6,147.125 153.4438,147.8125 Q154.2875,148.5 155.7875,148.5 Q156.6781,148.5 157.3031,148.2969 Q157.6625,148.1875 158.0688,147.8281 Q158.3344,147.625 158.475,147.5625 Q158.6156,147.5 158.7875,147.5 Q159.1156,147.5 159.35,147.7656 Q159.6,148.0156 159.6,148.375 Q159.6,148.7188 159.2563,149.125 Q158.7563,149.7188 157.9594,150.0469 Q156.9125,150.5 155.6313,150.5 Q154.1313,150.5 152.9281,149.9063 Q151.9594,149.4375 151.2719,148.4219 Q150.6,147.4063 150.6,146.2031 L150.6,145.1094 Q150.6,143.8594 151.1938,142.7656 Q151.8031,141.6719 152.85,141.0938 Q153.9125,140.5 155.1,140.5 Q155.8188,140.5 156.4438,140.75 Q157.0688,141 157.6,141.5 Z " fill="#000000"/><text fill="#000000" font-family="sans-serif" font-size="12" lengthAdjust="spacing" textLength="53" x="173.4" y="149.9102">Company</text><line style="stroke:#A80036;stroke-width:1.5;" x1="124.5" x2="245.5" y1="161" y2="161"/><line style="stroke:#A80036;stroke-width:1.5;" x1="124.5" x2="245.5" y1="169" y2="169"/><ellipse cx="134.5" cy="180" fill="#84BE84" rx="3" ry="3" style="stroke:#038048;stroke-width:1.0;"/><text fill="#000000" font-family="sans-serif" font-size="11" lengthAdjust="spacing" textLength="97" x="143.5" y="184.4189">getFreightNetwork()</text><!--MD5=[074ba6ad47b234bd73d65012320c1634]
class FreightNetwork--><rect codeLine="18" fill="#FEFECE" filter="url(#f7tquirpqio5n)" height="61.8359" id="FreightNetwork" style="stroke:#A80036;stroke-width:1.5;" width="263" x="53.5" y="7"/><ellipse cx="139.25" cy="23" fill="#ADD1B2" rx="11" ry="11" style="stroke:#A80036;stroke-width:1.0;"/><path d="M141.25,19.5 Q141.4531,19 141.6875,18.75 Q141.9219,18.5 142.1875,18.5 Q142.6563,18.5 142.9531,18.7813 Q143.25,19.0625 143.25,19.7188 L143.25,21.2813 Q143.25,21.9375 142.9688,22.2188 Q142.6875,22.5 142.25,22.5 Q141.8594,22.5 141.6094,22.3281 Q141.3594,22.1563 141.25,21.7031 Q141.2031,21.3906 141.0313,21.2188 Q140.7188,20.8906 140.1563,20.7031 Q139.5938,20.5 139.0313,20.5 Q138.3281,20.5 137.7344,20.7813 Q137.1563,21.0625 136.7031,21.6875 Q136.25,22.3125 136.25,23.1719 L136.25,24.0938 Q136.25,25.125 137.0938,25.8125 Q137.9375,26.5 139.4375,26.5 Q140.3281,26.5 140.9531,26.2969 Q141.3125,26.1875 141.7188,25.8281 Q141.9844,25.625 142.125,25.5625 Q142.2656,25.5 142.4375,25.5 Q142.7656,25.5 143,25.7656 Q143.25,26.0156 143.25,26.375 Q143.25,26.7188 142.9063,27.125 Q142.4063,27.7188 141.6094,28.0469 Q140.5625,28.5 139.2813,28.5 Q137.7813,28.5 136.5781,27.9063 Q135.6094,27.4375 134.9219,26.4219 Q134.25,25.4063 134.25,24.2031 L134.25,23.1094 Q134.25,21.8594 134.8438,20.7656 Q135.4531,19.6719 136.5,19.0938 Q137.5625,18.5 138.75,18.5 Q139.4688,18.5 140.0938,18.75 Q140.7188,19 141.25,19.5 Z " fill="#000000"/><text fill="#000000" font-family="sans-serif" font-size="12" lengthAdjust="spacing" textLength="83" x="159.75" y="27.9102">FreightNetwork</text><line style="stroke:#A80036;stroke-width:1.5;" x1="54.5" x2="315.5" y1="39" y2="39"/><line style="stroke:#A80036;stroke-width:1.5;" x1="54.5" x2="315.5" y1="47" y2="47"/><ellipse cx="64.5" cy="58" fill="#84BE84" rx="3" ry="3" style="stroke:#038048;stroke-width:1.0;"/><text fill="#000000" font-family="sans-serif" font-size="11" lengthAdjust="spacing" textLength="237" x="73.5" y="62.4189">FreightNetwork(List&lt;Object&gt; vertices, Long[][] m)</text><!--MD5=[736fbdb954cb6631983ee0ca894578b6]
reverse link ColourMapController to ColourMapUI--><path codeLine="22" d="M185,346.34 C185,364.58 185,384.71 185,400.76 " fill="none" id="ColourMapController-backto-ColourMapUI" style="stroke:#A80036;stroke-width:1.0;stroke-dasharray:7.0,7.0;"/><polygon fill="#A80036" points="185,341.25,181,350.25,185,346.25,189,350.25,185,341.25" style="stroke:#A80036;stroke-width:1.0;"/><!--MD5=[75bf29b3386010753f093e2379fec0b0]
reverse link Company to ColourMapController--><path codeLine="23" d="M185,196.14 C185,212.86 185,233.04 185,250.78 " fill="none" id="Company-backto-ColourMapController" style="stroke:#A80036;stroke-width:1.0;stroke-dasharray:7.0,7.0;"/><polygon fill="#A80036" points="185,191.07,181,200.07,185,196.07,189,200.07,185,191.07" style="stroke:#A80036;stroke-width:1.0;"/><!--MD5=[71d798667e864a43fd2f4e21e212e241]
reverse link FreightNetwork to Company--><path codeLine="24" d="M185,74.52 C185,91.75 185,112.24 185,128.73 " fill="none" id="FreightNetwork-backto-Company" style="stroke:#A80036;stroke-width:1.0;stroke-dasharray:7.0,7.0;"/><polygon fill="#A80036" points="185,69.28,181,78.28,185,74.28,189,78.28,185,69.28" style="stroke:#A80036;stroke-width:1.0;"/><!--MD5=[5172f656527556cf8704b7f6c82e890c]
@startuml
'https://plantuml.com/class-diagram

class ColourMapUI {
- controller
}

class ColourMapController {
+ calculateNumberOfColours(Graph grafo)
+ colourMap(Graph<V, E> grafo)
+ atributeColour(List<V> l, Map<V, Integer> map, int numberOfColours)
}


class Company {
+ getFreightNetwork()
}

class FreightNetwork{
+ FreightNetwork(List<Object> vertices, Long[][] m)
}

ColourMapController <.. ColourMapUI
Company <.. ColourMapController
FreightNetwork <.. Company



@enduml

@startuml

class ColourMapUI {
- controller
}

class ColourMapController {
+ calculateNumberOfColours(Graph grafo)
+ colourMap(Graph<V, E> grafo)
+ atributeColour(List<V> l, Map<V, Integer> map, int numberOfColours)
}


class Company {
+ getFreightNetwork()
}

class FreightNetwork{
+ FreightNetwork(List<Object> vertices, Long[][] m)
}

ColourMapController <.. ColourMapUI
Company <.. ColourMapController
FreightNetwork <.. Company



@enduml

PlantUML version 1.2021.11(Sat Oct 02 14:26:11 BST 2021)
(GPL source distribution)
Java Runtime: OpenJDK Runtime Environment
JVM: OpenJDK 64-Bit Server VM
Default Encoding: Cp1252
Language: pt
Country: PT
--></g></svg>