<?xml version="1.0" encoding="UTF-8" standalone="no"?><svg xmlns="http://www.w3.org/2000/svg" xmlns:xlink="http://www.w3.org/1999/xlink" contentScriptType="application/ecmascript" contentStyleType="text/css" height="558px" preserveAspectRatio="none" style="width:895px;height:558px;" version="1.1" viewBox="0 0 895 558" width="895px" zoomAndPan="magnify"><defs><filter height="300%" id="f1k9t0d6s9pd3r" width="300%" x="-1" y="-1"><feGaussianBlur result="blurOut" stdDeviation="2.0"/><feColorMatrix in="blurOut" result="blurOut2" type="matrix" values="0 0 0 0 0 0 0 0 0 0 0 0 0 0 0 0 0 0 .4 0"/><feOffset dx="4.0" dy="4.0" in="blurOut2" result="blurOut3"/><feBlend in="SourceGraphic" in2="blurOut3" mode="normal"/></filter></defs><g><!--MD5=[495a8ef1c2df2b8bd7cf05c1db1fefd9]
class BuildFreightNetworkUI--><rect codeLine="3" fill="#FEFECE" filter="url(#f1k9t0d6s9pd3r)" height="61.8359" id="BuildFreightNetworkUI" style="stroke:#A80036;stroke-width:1.5;" width="155" x="276.5" y="483"/><ellipse cx="291.5" cy="499" fill="#ADD1B2" rx="11" ry="11" style="stroke:#A80036;stroke-width:1.0;"/><path d="M293.5,495.5 Q293.7031,495 293.9375,494.75 Q294.1719,494.5 294.4375,494.5 Q294.9063,494.5 295.2031,494.7813 Q295.5,495.0625 295.5,495.7188 L295.5,497.2813 Q295.5,497.9375 295.2188,498.2188 Q294.9375,498.5 294.5,498.5 Q294.1094,498.5 293.8594,498.3281 Q293.6094,498.1563 293.5,497.7031 Q293.4531,497.3906 293.2813,497.2188 Q292.9688,496.8906 292.4063,496.7031 Q291.8438,496.5 291.2813,496.5 Q290.5781,496.5 289.9844,496.7813 Q289.4063,497.0625 288.9531,497.6875 Q288.5,498.3125 288.5,499.1719 L288.5,500.0938 Q288.5,501.125 289.3438,501.8125 Q290.1875,502.5 291.6875,502.5 Q292.5781,502.5 293.2031,502.2969 Q293.5625,502.1875 293.9688,501.8281 Q294.2344,501.625 294.375,501.5625 Q294.5156,501.5 294.6875,501.5 Q295.0156,501.5 295.25,501.7656 Q295.5,502.0156 295.5,502.375 Q295.5,502.7188 295.1563,503.125 Q294.6563,503.7188 293.8594,504.0469 Q292.8125,504.5 291.5313,504.5 Q290.0313,504.5 288.8281,503.9063 Q287.8594,503.4375 287.1719,502.4219 Q286.5,501.4063 286.5,500.2031 L286.5,499.1094 Q286.5,497.8594 287.0938,496.7656 Q287.7031,495.6719 288.75,495.0938 Q289.8125,494.5 291,494.5 Q291.7188,494.5 292.3438,494.75 Q292.9688,495 293.5,495.5 Z " fill="#000000"/><text fill="#000000" font-family="sans-serif" font-size="12" lengthAdjust="spacing" textLength="123" x="305.5" y="503.9102">BuildFreightNetworkUI</text><line style="stroke:#A80036;stroke-width:1.5;" x1="277.5" x2="430.5" y1="515" y2="515"/><rect fill="none" height="6" style="stroke:#C82930;stroke-width:1.0;" width="6" x="284.5" y="523"/><text fill="#000000" font-family="sans-serif" font-size="11" lengthAdjust="spacing" textLength="45" x="296.5" y="530.4189">controller</text><line style="stroke:#A80036;stroke-width:1.5;" x1="277.5" x2="430.5" y1="536.8359" y2="536.8359"/><!--MD5=[08ce13b08eea6363b854c27686b963d8]
class BuildFreightNetworkController--><rect codeLine="7" fill="#FEFECE" filter="url(#f1k9t0d6s9pd3r)" height="117.1797" id="BuildFreightNetworkController" style="stroke:#A80036;stroke-width:1.5;" width="197" x="255.5" y="306"/><ellipse cx="270.5" cy="322" fill="#ADD1B2" rx="11" ry="11" style="stroke:#A80036;stroke-width:1.0;"/><path d="M272.5,318.5 Q272.7031,318 272.9375,317.75 Q273.1719,317.5 273.4375,317.5 Q273.9063,317.5 274.2031,317.7813 Q274.5,318.0625 274.5,318.7188 L274.5,320.2813 Q274.5,320.9375 274.2188,321.2188 Q273.9375,321.5 273.5,321.5 Q273.1094,321.5 272.8594,321.3281 Q272.6094,321.1563 272.5,320.7031 Q272.4531,320.3906 272.2813,320.2188 Q271.9688,319.8906 271.4063,319.7031 Q270.8438,319.5 270.2813,319.5 Q269.5781,319.5 268.9844,319.7813 Q268.4063,320.0625 267.9531,320.6875 Q267.5,321.3125 267.5,322.1719 L267.5,323.0938 Q267.5,324.125 268.3438,324.8125 Q269.1875,325.5 270.6875,325.5 Q271.5781,325.5 272.2031,325.2969 Q272.5625,325.1875 272.9688,324.8281 Q273.2344,324.625 273.375,324.5625 Q273.5156,324.5 273.6875,324.5 Q274.0156,324.5 274.25,324.7656 Q274.5,325.0156 274.5,325.375 Q274.5,325.7188 274.1563,326.125 Q273.6563,326.7188 272.8594,327.0469 Q271.8125,327.5 270.5313,327.5 Q269.0313,327.5 267.8281,326.9063 Q266.8594,326.4375 266.1719,325.4219 Q265.5,324.4063 265.5,323.2031 L265.5,322.1094 Q265.5,320.8594 266.0938,319.7656 Q266.7031,318.6719 267.75,318.0938 Q268.8125,317.5 270,317.5 Q270.7188,317.5 271.3438,317.75 Q271.9688,318 272.5,318.5 Z " fill="#000000"/><text fill="#000000" font-family="sans-serif" font-size="12" lengthAdjust="spacing" textLength="165" x="284.5" y="326.9102">BuildFreightNetworkController</text><line style="stroke:#A80036;stroke-width:1.5;" x1="256.5" x2="451.5" y1="338" y2="338"/><rect fill="none" height="6" style="stroke:#C82930;stroke-width:1.0;" width="6" x="263.5" y="346"/><text fill="#000000" font-family="sans-serif" font-size="11" lengthAdjust="spacing" textLength="66" x="275.5" y="353.4189">countryStore;</text><rect fill="none" height="6" style="stroke:#C82930;stroke-width:1.0;" width="6" x="263.5" y="359.8359"/><text fill="#000000" font-family="sans-serif" font-size="11" lengthAdjust="spacing" textLength="57" x="275.5" y="367.2549">port2DTree;</text><rect fill="none" height="6" style="stroke:#C82930;stroke-width:1.0;" width="6" x="263.5" y="373.6719"/><text fill="#000000" font-family="sans-serif" font-size="11" lengthAdjust="spacing" textLength="61" x="275.5" y="381.0908">borderStore;</text><rect fill="none" height="6" style="stroke:#C82930;stroke-width:1.0;" width="6" x="263.5" y="387.5078"/><text fill="#000000" font-family="sans-serif" font-size="11" lengthAdjust="spacing" textLength="89" x="275.5" y="394.9268">seaDistanceStore;</text><line style="stroke:#A80036;stroke-width:1.5;" x1="256.5" x2="451.5" y1="401.3438" y2="401.3438"/><ellipse cx="266.5" cy="412.3438" fill="#84BE84" rx="3" ry="3" style="stroke:#038048;stroke-width:1.0;"/><text fill="#000000" font-family="sans-serif" font-size="11" lengthAdjust="spacing" textLength="104" x="275.5" y="416.7627">buildFreightNetwork()</text><!--MD5=[a0bfe97ac0a38e6e74cc1c7c7b744b71]
class Port--><rect codeLine="15" fill="#FEFECE" filter="url(#f1k9t0d6s9pd3r)" height="103.3438" id="Port" style="stroke:#A80036;stroke-width:1.5;" width="96" x="7" y="14"/><ellipse cx="40.9" cy="30" fill="#ADD1B2" rx="11" ry="11" style="stroke:#A80036;stroke-width:1.0;"/><path d="M42.9,26.5 Q43.1031,26 43.3375,25.75 Q43.5719,25.5 43.8375,25.5 Q44.3063,25.5 44.6031,25.7813 Q44.9,26.0625 44.9,26.7188 L44.9,28.2813 Q44.9,28.9375 44.6188,29.2188 Q44.3375,29.5 43.9,29.5 Q43.5094,29.5 43.2594,29.3281 Q43.0094,29.1563 42.9,28.7031 Q42.8531,28.3906 42.6813,28.2188 Q42.3688,27.8906 41.8063,27.7031 Q41.2438,27.5 40.6813,27.5 Q39.9781,27.5 39.3844,27.7813 Q38.8063,28.0625 38.3531,28.6875 Q37.9,29.3125 37.9,30.1719 L37.9,31.0938 Q37.9,32.125 38.7438,32.8125 Q39.5875,33.5 41.0875,33.5 Q41.9781,33.5 42.6031,33.2969 Q42.9625,33.1875 43.3688,32.8281 Q43.6344,32.625 43.775,32.5625 Q43.9156,32.5 44.0875,32.5 Q44.4156,32.5 44.65,32.7656 Q44.9,33.0156 44.9,33.375 Q44.9,33.7188 44.5563,34.125 Q44.0563,34.7188 43.2594,35.0469 Q42.2125,35.5 40.9313,35.5 Q39.4313,35.5 38.2281,34.9063 Q37.2594,34.4375 36.5719,33.4219 Q35.9,32.4063 35.9,31.2031 L35.9,30.1094 Q35.9,28.8594 36.4938,27.7656 Q37.1031,26.6719 38.15,26.0938 Q39.2125,25.5 40.4,25.5 Q41.1188,25.5 41.7438,25.75 Q42.3688,26 42.9,26.5 Z " fill="#000000"/><text fill="#000000" font-family="sans-serif" font-size="12" lengthAdjust="spacing" textLength="22" x="59.1" y="34.9102">Port</text><line style="stroke:#A80036;stroke-width:1.5;" x1="8" x2="102" y1="46" y2="46"/><line style="stroke:#A80036;stroke-width:1.5;" x1="8" x2="102" y1="54" y2="54"/><ellipse cx="18" cy="65" fill="#84BE84" rx="3" ry="3" style="stroke:#038048;stroke-width:1.0;"/><text fill="#000000" font-family="sans-serif" font-size="11" lengthAdjust="spacing" textLength="32" x="27" y="69.4189">getID()</text><ellipse cx="18" cy="78.8359" fill="#84BE84" rx="3" ry="3" style="stroke:#038048;stroke-width:1.0;"/><text fill="#000000" font-family="sans-serif" font-size="11" lengthAdjust="spacing" textLength="61" x="27" y="83.2549">getCountry()</text><ellipse cx="18" cy="92.6719" fill="#84BE84" rx="3" ry="3" style="stroke:#038048;stroke-width:1.0;"/><text fill="#000000" font-family="sans-serif" font-size="11" lengthAdjust="spacing" textLength="61" x="27" y="97.0908">getLatitude()</text><ellipse cx="18" cy="106.5078" fill="#84BE84" rx="3" ry="3" style="stroke:#038048;stroke-width:1.0;"/><text fill="#000000" font-family="sans-serif" font-size="11" lengthAdjust="spacing" textLength="70" x="27" y="110.9268">getLongitude()</text><!--MD5=[ea0bcd3be3e34eab68edaa701b1f6e03]
class Port2DTree--><rect codeLine="22" fill="#FEFECE" filter="url(#f1k9t0d6s9pd3r)" height="61.8359" id="Port2DTree" style="stroke:#A80036;stroke-width:1.5;" width="95" x="7.5" y="184"/><ellipse cx="22.5" cy="200" fill="#ADD1B2" rx="11" ry="11" style="stroke:#A80036;stroke-width:1.0;"/><path d="M24.5,196.5 Q24.7031,196 24.9375,195.75 Q25.1719,195.5 25.4375,195.5 Q25.9063,195.5 26.2031,195.7813 Q26.5,196.0625 26.5,196.7188 L26.5,198.2813 Q26.5,198.9375 26.2188,199.2188 Q25.9375,199.5 25.5,199.5 Q25.1094,199.5 24.8594,199.3281 Q24.6094,199.1563 24.5,198.7031 Q24.4531,198.3906 24.2813,198.2188 Q23.9688,197.8906 23.4063,197.7031 Q22.8438,197.5 22.2813,197.5 Q21.5781,197.5 20.9844,197.7813 Q20.4063,198.0625 19.9531,198.6875 Q19.5,199.3125 19.5,200.1719 L19.5,201.0938 Q19.5,202.125 20.3438,202.8125 Q21.1875,203.5 22.6875,203.5 Q23.5781,203.5 24.2031,203.2969 Q24.5625,203.1875 24.9688,202.8281 Q25.2344,202.625 25.375,202.5625 Q25.5156,202.5 25.6875,202.5 Q26.0156,202.5 26.25,202.7656 Q26.5,203.0156 26.5,203.375 Q26.5,203.7188 26.1563,204.125 Q25.6563,204.7188 24.8594,205.0469 Q23.8125,205.5 22.5313,205.5 Q21.0313,205.5 19.8281,204.9063 Q18.8594,204.4375 18.1719,203.4219 Q17.5,202.4063 17.5,201.2031 L17.5,200.1094 Q17.5,198.8594 18.0938,197.7656 Q18.7031,196.6719 19.75,196.0938 Q20.8125,195.5 22,195.5 Q22.7188,195.5 23.3438,195.75 Q23.9688,196 24.5,196.5 Z " fill="#000000"/><text fill="#000000" font-family="sans-serif" font-size="12" lengthAdjust="spacing" textLength="63" x="36.5" y="204.9102">Port2DTree</text><line style="stroke:#A80036;stroke-width:1.5;" x1="8.5" x2="101.5" y1="216" y2="216"/><line style="stroke:#A80036;stroke-width:1.5;" x1="8.5" x2="101.5" y1="224" y2="224"/><ellipse cx="18.5" cy="235" fill="#84BE84" rx="3" ry="3" style="stroke:#038048;stroke-width:1.0;"/><text fill="#000000" font-family="sans-serif" font-size="11" lengthAdjust="spacing" textLength="60" x="27.5" y="239.4189">getAllPorts()</text><!--MD5=[6ec5c1b9e601897bcebbd4fda3e6f7de]
class SeaDistance--><rect codeLine="26" fill="#FEFECE" filter="url(#f1k9t0d6s9pd3r)" height="89.5078" id="SeaDistance" style="stroke:#A80036;stroke-width:1.5;" width="103" x="152.5" y="20.5"/><ellipse cx="167.5" cy="36.5" fill="#ADD1B2" rx="11" ry="11" style="stroke:#A80036;stroke-width:1.0;"/><path d="M169.5,33 Q169.7031,32.5 169.9375,32.25 Q170.1719,32 170.4375,32 Q170.9063,32 171.2031,32.2813 Q171.5,32.5625 171.5,33.2188 L171.5,34.7813 Q171.5,35.4375 171.2188,35.7188 Q170.9375,36 170.5,36 Q170.1094,36 169.8594,35.8281 Q169.6094,35.6563 169.5,35.2031 Q169.4531,34.8906 169.2813,34.7188 Q168.9688,34.3906 168.4063,34.2031 Q167.8438,34 167.2813,34 Q166.5781,34 165.9844,34.2813 Q165.4063,34.5625 164.9531,35.1875 Q164.5,35.8125 164.5,36.6719 L164.5,37.5938 Q164.5,38.625 165.3438,39.3125 Q166.1875,40 167.6875,40 Q168.5781,40 169.2031,39.7969 Q169.5625,39.6875 169.9688,39.3281 Q170.2344,39.125 170.375,39.0625 Q170.5156,39 170.6875,39 Q171.0156,39 171.25,39.2656 Q171.5,39.5156 171.5,39.875 Q171.5,40.2188 171.1563,40.625 Q170.6563,41.2188 169.8594,41.5469 Q168.8125,42 167.5313,42 Q166.0313,42 164.8281,41.4063 Q163.8594,40.9375 163.1719,39.9219 Q162.5,38.9063 162.5,37.7031 L162.5,36.6094 Q162.5,35.3594 163.0938,34.2656 Q163.7031,33.1719 164.75,32.5938 Q165.8125,32 167,32 Q167.7188,32 168.3438,32.25 Q168.9688,32.5 169.5,33 Z " fill="#000000"/><text fill="#000000" font-family="sans-serif" font-size="12" lengthAdjust="spacing" textLength="71" x="181.5" y="41.4102">SeaDistance</text><line style="stroke:#A80036;stroke-width:1.5;" x1="153.5" x2="254.5" y1="52.5" y2="52.5"/><line style="stroke:#A80036;stroke-width:1.5;" x1="153.5" x2="254.5" y1="60.5" y2="60.5"/><ellipse cx="163.5" cy="71.5" fill="#84BE84" rx="3" ry="3" style="stroke:#038048;stroke-width:1.0;"/><text fill="#000000" font-family="sans-serif" font-size="11" lengthAdjust="spacing" textLength="48" x="172.5" y="75.9189">getPort1()</text><ellipse cx="163.5" cy="85.3359" fill="#84BE84" rx="3" ry="3" style="stroke:#038048;stroke-width:1.0;"/><text fill="#000000" font-family="sans-serif" font-size="11" lengthAdjust="spacing" textLength="48" x="172.5" y="89.7549">getPort2()</text><ellipse cx="163.5" cy="99.1719" fill="#84BE84" rx="3" ry="3" style="stroke:#038048;stroke-width:1.0;"/><text fill="#000000" font-family="sans-serif" font-size="11" lengthAdjust="spacing" textLength="65" x="172.5" y="103.5908">getDistance()</text><!--MD5=[8bd4ce22692f29ecd7c77e7192da1878]
class SeaDistanceStore--><rect codeLine="32" fill="#FEFECE" filter="url(#f1k9t0d6s9pd3r)" height="61.8359" id="SeaDistanceStore" style="stroke:#A80036;stroke-width:1.5;" width="132" x="138" y="184"/><ellipse cx="153" cy="200" fill="#ADD1B2" rx="11" ry="11" style="stroke:#A80036;stroke-width:1.0;"/><path d="M155,196.5 Q155.2031,196 155.4375,195.75 Q155.6719,195.5 155.9375,195.5 Q156.4063,195.5 156.7031,195.7813 Q157,196.0625 157,196.7188 L157,198.2813 Q157,198.9375 156.7188,199.2188 Q156.4375,199.5 156,199.5 Q155.6094,199.5 155.3594,199.3281 Q155.1094,199.1563 155,198.7031 Q154.9531,198.3906 154.7813,198.2188 Q154.4688,197.8906 153.9063,197.7031 Q153.3438,197.5 152.7813,197.5 Q152.0781,197.5 151.4844,197.7813 Q150.9063,198.0625 150.4531,198.6875 Q150,199.3125 150,200.1719 L150,201.0938 Q150,202.125 150.8438,202.8125 Q151.6875,203.5 153.1875,203.5 Q154.0781,203.5 154.7031,203.2969 Q155.0625,203.1875 155.4688,202.8281 Q155.7344,202.625 155.875,202.5625 Q156.0156,202.5 156.1875,202.5 Q156.5156,202.5 156.75,202.7656 Q157,203.0156 157,203.375 Q157,203.7188 156.6563,204.125 Q156.1563,204.7188 155.3594,205.0469 Q154.3125,205.5 153.0313,205.5 Q151.5313,205.5 150.3281,204.9063 Q149.3594,204.4375 148.6719,203.4219 Q148,202.4063 148,201.2031 L148,200.1094 Q148,198.8594 148.5938,197.7656 Q149.2031,196.6719 150.25,196.0938 Q151.3125,195.5 152.5,195.5 Q153.2188,195.5 153.8438,195.75 Q154.4688,196 155,196.5 Z " fill="#000000"/><text fill="#000000" font-family="sans-serif" font-size="12" lengthAdjust="spacing" textLength="100" x="167" y="204.9102">SeaDistanceStore</text><line style="stroke:#A80036;stroke-width:1.5;" x1="139" x2="269" y1="216" y2="216"/><line style="stroke:#A80036;stroke-width:1.5;" x1="139" x2="269" y1="224" y2="224"/><ellipse cx="149" cy="235" fill="#84BE84" rx="3" ry="3" style="stroke:#038048;stroke-width:1.0;"/><text fill="#000000" font-family="sans-serif" font-size="11" lengthAdjust="spacing" textLength="66" x="158" y="239.4189">getSeaDists()</text><!--MD5=[a0336aaa8110b78d9cacadb9d45e00a3]
class Border--><rect codeLine="36" fill="#FEFECE" filter="url(#f1k9t0d6s9pd3r)" height="75.6719" id="Border" style="stroke:#A80036;stroke-width:1.5;" width="93" x="306.5" y="27.5"/><ellipse cx="332.3" cy="43.5" fill="#ADD1B2" rx="11" ry="11" style="stroke:#A80036;stroke-width:1.0;"/><path d="M334.3,40 Q334.5031,39.5 334.7375,39.25 Q334.9719,39 335.2375,39 Q335.7063,39 336.0031,39.2813 Q336.3,39.5625 336.3,40.2188 L336.3,41.7813 Q336.3,42.4375 336.0188,42.7188 Q335.7375,43 335.3,43 Q334.9094,43 334.6594,42.8281 Q334.4094,42.6563 334.3,42.2031 Q334.2531,41.8906 334.0813,41.7188 Q333.7688,41.3906 333.2063,41.2031 Q332.6438,41 332.0813,41 Q331.3781,41 330.7844,41.2813 Q330.2063,41.5625 329.7531,42.1875 Q329.3,42.8125 329.3,43.6719 L329.3,44.5938 Q329.3,45.625 330.1438,46.3125 Q330.9875,47 332.4875,47 Q333.3781,47 334.0031,46.7969 Q334.3625,46.6875 334.7688,46.3281 Q335.0344,46.125 335.175,46.0625 Q335.3156,46 335.4875,46 Q335.8156,46 336.05,46.2656 Q336.3,46.5156 336.3,46.875 Q336.3,47.2188 335.9563,47.625 Q335.4563,48.2188 334.6594,48.5469 Q333.6125,49 332.3313,49 Q330.8313,49 329.6281,48.4063 Q328.6594,47.9375 327.9719,46.9219 Q327.3,45.9063 327.3,44.7031 L327.3,43.6094 Q327.3,42.3594 327.8938,41.2656 Q328.5031,40.1719 329.55,39.5938 Q330.6125,39 331.8,39 Q332.5188,39 333.1438,39.25 Q333.7688,39.5 334.3,40 Z " fill="#000000"/><text fill="#000000" font-family="sans-serif" font-size="12" lengthAdjust="spacing" textLength="37" x="348.7" y="48.4102">Border</text><line style="stroke:#A80036;stroke-width:1.5;" x1="307.5" x2="398.5" y1="59.5" y2="59.5"/><line style="stroke:#A80036;stroke-width:1.5;" x1="307.5" x2="398.5" y1="67.5" y2="67.5"/><ellipse cx="317.5" cy="78.5" fill="#84BE84" rx="3" ry="3" style="stroke:#038048;stroke-width:1.0;"/><text fill="#000000" font-family="sans-serif" font-size="11" lengthAdjust="spacing" textLength="67" x="326.5" y="82.9189">getCountry1()</text><ellipse cx="317.5" cy="92.3359" fill="#84BE84" rx="3" ry="3" style="stroke:#038048;stroke-width:1.0;"/><text fill="#000000" font-family="sans-serif" font-size="11" lengthAdjust="spacing" textLength="67" x="326.5" y="96.7549">getCountry2()</text><!--MD5=[1a5e2587019baa51be2acd1776bfe516]
class BorderStore--><rect codeLine="41" fill="#FEFECE" filter="url(#f1k9t0d6s9pd3r)" height="61.8359" id="BorderStore" style="stroke:#A80036;stroke-width:1.5;" width="98" x="305" y="184"/><ellipse cx="320" cy="200" fill="#ADD1B2" rx="11" ry="11" style="stroke:#A80036;stroke-width:1.0;"/><path d="M322,196.5 Q322.2031,196 322.4375,195.75 Q322.6719,195.5 322.9375,195.5 Q323.4063,195.5 323.7031,195.7813 Q324,196.0625 324,196.7188 L324,198.2813 Q324,198.9375 323.7188,199.2188 Q323.4375,199.5 323,199.5 Q322.6094,199.5 322.3594,199.3281 Q322.1094,199.1563 322,198.7031 Q321.9531,198.3906 321.7813,198.2188 Q321.4688,197.8906 320.9063,197.7031 Q320.3438,197.5 319.7813,197.5 Q319.0781,197.5 318.4844,197.7813 Q317.9063,198.0625 317.4531,198.6875 Q317,199.3125 317,200.1719 L317,201.0938 Q317,202.125 317.8438,202.8125 Q318.6875,203.5 320.1875,203.5 Q321.0781,203.5 321.7031,203.2969 Q322.0625,203.1875 322.4688,202.8281 Q322.7344,202.625 322.875,202.5625 Q323.0156,202.5 323.1875,202.5 Q323.5156,202.5 323.75,202.7656 Q324,203.0156 324,203.375 Q324,203.7188 323.6563,204.125 Q323.1563,204.7188 322.3594,205.0469 Q321.3125,205.5 320.0313,205.5 Q318.5313,205.5 317.3281,204.9063 Q316.3594,204.4375 315.6719,203.4219 Q315,202.4063 315,201.2031 L315,200.1094 Q315,198.8594 315.5938,197.7656 Q316.2031,196.6719 317.25,196.0938 Q318.3125,195.5 319.5,195.5 Q320.2188,195.5 320.8438,195.75 Q321.4688,196 322,196.5 Z " fill="#000000"/><text fill="#000000" font-family="sans-serif" font-size="12" lengthAdjust="spacing" textLength="66" x="334" y="204.9102">BorderStore</text><line style="stroke:#A80036;stroke-width:1.5;" x1="306" x2="402" y1="216" y2="216"/><line style="stroke:#A80036;stroke-width:1.5;" x1="306" x2="402" y1="224" y2="224"/><ellipse cx="316" cy="235" fill="#84BE84" rx="3" ry="3" style="stroke:#038048;stroke-width:1.0;"/><text fill="#000000" font-family="sans-serif" font-size="11" lengthAdjust="spacing" textLength="62" x="325" y="239.4189">getBorders()</text><!--MD5=[deb4e1f6eb1e3c1256fdb830f96abfbb]
class Country--><rect codeLine="45" fill="#FEFECE" filter="url(#f1k9t0d6s9pd3r)" height="117.1797" id="Country" style="stroke:#A80036;stroke-width:1.5;" width="113" x="434.5" y="7"/><ellipse cx="467.05" cy="23" fill="#ADD1B2" rx="11" ry="11" style="stroke:#A80036;stroke-width:1.0;"/><path d="M469.05,19.5 Q469.2531,19 469.4875,18.75 Q469.7219,18.5 469.9875,18.5 Q470.4563,18.5 470.7531,18.7813 Q471.05,19.0625 471.05,19.7188 L471.05,21.2813 Q471.05,21.9375 470.7688,22.2188 Q470.4875,22.5 470.05,22.5 Q469.6594,22.5 469.4094,22.3281 Q469.1594,22.1563 469.05,21.7031 Q469.0031,21.3906 468.8313,21.2188 Q468.5188,20.8906 467.9563,20.7031 Q467.3938,20.5 466.8313,20.5 Q466.1281,20.5 465.5344,20.7813 Q464.9563,21.0625 464.5031,21.6875 Q464.05,22.3125 464.05,23.1719 L464.05,24.0938 Q464.05,25.125 464.8938,25.8125 Q465.7375,26.5 467.2375,26.5 Q468.1281,26.5 468.7531,26.2969 Q469.1125,26.1875 469.5188,25.8281 Q469.7844,25.625 469.925,25.5625 Q470.0656,25.5 470.2375,25.5 Q470.5656,25.5 470.8,25.7656 Q471.05,26.0156 471.05,26.375 Q471.05,26.7188 470.7063,27.125 Q470.2063,27.7188 469.4094,28.0469 Q468.3625,28.5 467.0813,28.5 Q465.5813,28.5 464.3781,27.9063 Q463.4094,27.4375 462.7219,26.4219 Q462.05,25.4063 462.05,24.2031 L462.05,23.1094 Q462.05,21.8594 462.6438,20.7656 Q463.2531,19.6719 464.3,19.0938 Q465.3625,18.5 466.55,18.5 Q467.2688,18.5 467.8938,18.75 Q468.5188,19 469.05,19.5 Z " fill="#000000"/><text fill="#000000" font-family="sans-serif" font-size="12" lengthAdjust="spacing" textLength="42" x="484.95" y="27.9102">Country</text><line style="stroke:#A80036;stroke-width:1.5;" x1="435.5" x2="546.5" y1="39" y2="39"/><line style="stroke:#A80036;stroke-width:1.5;" x1="435.5" x2="546.5" y1="47" y2="47"/><ellipse cx="445.5" cy="58" fill="#84BE84" rx="3" ry="3" style="stroke:#038048;stroke-width:1.0;"/><text fill="#000000" font-family="sans-serif" font-size="11" lengthAdjust="spacing" textLength="87" x="454.5" y="62.4189">getAlpha2_code()</text><ellipse cx="445.5" cy="71.8359" fill="#84BE84" rx="3" ry="3" style="stroke:#038048;stroke-width:1.0;"/><text fill="#000000" font-family="sans-serif" font-size="11" lengthAdjust="spacing" textLength="54" x="454.5" y="76.2549">getcapital()</text><ellipse cx="445.5" cy="85.6719" fill="#84BE84" rx="3" ry="3" style="stroke:#038048;stroke-width:1.0;"/><text fill="#000000" font-family="sans-serif" font-size="11" lengthAdjust="spacing" textLength="60" x="454.5" y="90.0908">getcountry()</text><ellipse cx="445.5" cy="99.5078" fill="#84BE84" rx="3" ry="3" style="stroke:#038048;stroke-width:1.0;"/><text fill="#000000" font-family="sans-serif" font-size="11" lengthAdjust="spacing" textLength="57" x="454.5" y="103.9268">getlatitude()</text><ellipse cx="445.5" cy="113.3438" fill="#84BE84" rx="3" ry="3" style="stroke:#038048;stroke-width:1.0;"/><text fill="#000000" font-family="sans-serif" font-size="11" lengthAdjust="spacing" textLength="66" x="454.5" y="117.7627">getlongitude()</text><!--MD5=[1fa23e875f7ea39406cc4f0fd95e1dab]
class CountryStore--><rect codeLine="53" fill="#FEFECE" filter="url(#f1k9t0d6s9pd3r)" height="61.8359" id="CountryStore" style="stroke:#A80036;stroke-width:1.5;" width="103" x="438.5" y="184"/><ellipse cx="453.5" cy="200" fill="#ADD1B2" rx="11" ry="11" style="stroke:#A80036;stroke-width:1.0;"/><path d="M455.5,196.5 Q455.7031,196 455.9375,195.75 Q456.1719,195.5 456.4375,195.5 Q456.9063,195.5 457.2031,195.7813 Q457.5,196.0625 457.5,196.7188 L457.5,198.2813 Q457.5,198.9375 457.2188,199.2188 Q456.9375,199.5 456.5,199.5 Q456.1094,199.5 455.8594,199.3281 Q455.6094,199.1563 455.5,198.7031 Q455.4531,198.3906 455.2813,198.2188 Q454.9688,197.8906 454.4063,197.7031 Q453.8438,197.5 453.2813,197.5 Q452.5781,197.5 451.9844,197.7813 Q451.4063,198.0625 450.9531,198.6875 Q450.5,199.3125 450.5,200.1719 L450.5,201.0938 Q450.5,202.125 451.3438,202.8125 Q452.1875,203.5 453.6875,203.5 Q454.5781,203.5 455.2031,203.2969 Q455.5625,203.1875 455.9688,202.8281 Q456.2344,202.625 456.375,202.5625 Q456.5156,202.5 456.6875,202.5 Q457.0156,202.5 457.25,202.7656 Q457.5,203.0156 457.5,203.375 Q457.5,203.7188 457.1563,204.125 Q456.6563,204.7188 455.8594,205.0469 Q454.8125,205.5 453.5313,205.5 Q452.0313,205.5 450.8281,204.9063 Q449.8594,204.4375 449.1719,203.4219 Q448.5,202.4063 448.5,201.2031 L448.5,200.1094 Q448.5,198.8594 449.0938,197.7656 Q449.7031,196.6719 450.75,196.0938 Q451.8125,195.5 453,195.5 Q453.7188,195.5 454.3438,195.75 Q454.9688,196 455.5,196.5 Z " fill="#000000"/><text fill="#000000" font-family="sans-serif" font-size="12" lengthAdjust="spacing" textLength="71" x="467.5" y="204.9102">CountryStore</text><line style="stroke:#A80036;stroke-width:1.5;" x1="439.5" x2="540.5" y1="216" y2="216"/><line style="stroke:#A80036;stroke-width:1.5;" x1="439.5" x2="540.5" y1="224" y2="224"/><ellipse cx="449.5" cy="235" fill="#84BE84" rx="3" ry="3" style="stroke:#038048;stroke-width:1.0;"/><text fill="#000000" font-family="sans-serif" font-size="11" lengthAdjust="spacing" textLength="69" x="458.5" y="239.4189">getCountries()</text><!--MD5=[074ba6ad47b234bd73d65012320c1634]
class FreightNetwork--><rect codeLine="57" fill="#FEFECE" filter="url(#f1k9t0d6s9pd3r)" height="61.8359" id="FreightNetwork" style="stroke:#A80036;stroke-width:1.5;" width="304" x="577" y="184"/><ellipse cx="683.25" cy="200" fill="#ADD1B2" rx="11" ry="11" style="stroke:#A80036;stroke-width:1.0;"/><path d="M685.25,196.5 Q685.4531,196 685.6875,195.75 Q685.9219,195.5 686.1875,195.5 Q686.6563,195.5 686.9531,195.7813 Q687.25,196.0625 687.25,196.7188 L687.25,198.2813 Q687.25,198.9375 686.9688,199.2188 Q686.6875,199.5 686.25,199.5 Q685.8594,199.5 685.6094,199.3281 Q685.3594,199.1563 685.25,198.7031 Q685.2031,198.3906 685.0313,198.2188 Q684.7188,197.8906 684.1563,197.7031 Q683.5938,197.5 683.0313,197.5 Q682.3281,197.5 681.7344,197.7813 Q681.1563,198.0625 680.7031,198.6875 Q680.25,199.3125 680.25,200.1719 L680.25,201.0938 Q680.25,202.125 681.0938,202.8125 Q681.9375,203.5 683.4375,203.5 Q684.3281,203.5 684.9531,203.2969 Q685.3125,203.1875 685.7188,202.8281 Q685.9844,202.625 686.125,202.5625 Q686.2656,202.5 686.4375,202.5 Q686.7656,202.5 687,202.7656 Q687.25,203.0156 687.25,203.375 Q687.25,203.7188 686.9063,204.125 Q686.4063,204.7188 685.6094,205.0469 Q684.5625,205.5 683.2813,205.5 Q681.7813,205.5 680.5781,204.9063 Q679.6094,204.4375 678.9219,203.4219 Q678.25,202.4063 678.25,201.2031 L678.25,200.1094 Q678.25,198.8594 678.8438,197.7656 Q679.4531,196.6719 680.5,196.0938 Q681.5625,195.5 682.75,195.5 Q683.4688,195.5 684.0938,195.75 Q684.7188,196 685.25,196.5 Z " fill="#000000"/><text fill="#000000" font-family="sans-serif" font-size="12" lengthAdjust="spacing" textLength="83" x="703.75" y="204.9102">FreightNetwork</text><line style="stroke:#A80036;stroke-width:1.5;" x1="578" x2="880" y1="216" y2="216"/><line style="stroke:#A80036;stroke-width:1.5;" x1="578" x2="880" y1="224" y2="224"/><ellipse cx="588" cy="235" fill="#84BE84" rx="3" ry="3" style="stroke:#038048;stroke-width:1.0;"/><text fill="#000000" font-family="sans-serif" font-size="11" lengthAdjust="spacing" textLength="278" x="597" y="239.4189">BuildFreightNetwork(boolean directed, List&lt;V&gt; vs, E[][] m)</text><!--MD5=[8f3a3e84141c0b1f18d982b11d356e17]
reverse link BuildFreightNetworkController to BuildFreightNetworkUI--><path codeLine="61" d="M354,428.65 C354,447.46 354,467.21 354,482.87 " fill="none" id="BuildFreightNetworkController-backto-BuildFreightNetworkUI" style="stroke:#A80036;stroke-width:1.0;stroke-dasharray:7.0,7.0;"/><polygon fill="#A80036" points="354,423.37,350,432.37,354,428.37,358,432.37,354,423.37" style="stroke:#A80036;stroke-width:1.0;"/><!--MD5=[41541f14f8ebde563e8be8b73bdea12c]
reverse link FreightNetwork to BuildFreightNetworkController--><path codeLine="62" d="M647.88,247.91 C590.6,270.44 513.53,300.75 452.69,324.68 " fill="none" id="FreightNetwork-backto-BuildFreightNetworkController" style="stroke:#A80036;stroke-width:1.0;stroke-dasharray:7.0,7.0;"/><polygon fill="#A80036" points="652.66,246.03,642.8207,245.596,648.0059,247.8574,645.7445,253.0426,652.66,246.03" style="stroke:#A80036;stroke-width:1.0;"/><!--MD5=[2df13c4cc8243b643754df23994a2d0f]
reverse link Port2DTree to BuildFreightNetworkController--><path codeLine="63" d="M107.6,241.95 C148.38,262.07 206.08,290.53 255.39,314.85 " fill="none" id="Port2DTree-backto-BuildFreightNetworkController" style="stroke:#A80036;stroke-width:1.0;stroke-dasharray:7.0,7.0;"/><polygon fill="#A80036" points="102.71,239.53,109.0097,247.1005,107.1935,241.7432,112.5509,239.9269,102.71,239.53" style="stroke:#A80036;stroke-width:1.0;"/><!--MD5=[b35a5a124b9fdde015f2ccd5210f42a5]
reverse link SeaDistanceStore to BuildFreightNetworkController--><path codeLine="64" d="M238.48,249.9 C255.36,266.5 276.15,286.95 295.42,305.9 " fill="none" id="SeaDistanceStore-backto-BuildFreightNetworkController" style="stroke:#A80036;stroke-width:1.0;stroke-dasharray:7.0,7.0;"/><polygon fill="#A80036" points="234.72,246.2,238.3295,255.3636,238.2839,249.7069,243.9406,249.6613,234.72,246.2" style="stroke:#A80036;stroke-width:1.0;"/><!--MD5=[3142a844f50dfb1f803eb52bda0bbc7f]
reverse link BorderStore to BuildFreightNetworkController--><path codeLine="65" d="M354,251.59 C354,267.87 354,287.58 354,305.9 " fill="none" id="BorderStore-backto-BuildFreightNetworkController" style="stroke:#A80036;stroke-width:1.0;stroke-dasharray:7.0,7.0;"/><polygon fill="#A80036" points="354,246.2,350,255.2,354,251.2,358,255.2,354,246.2" style="stroke:#A80036;stroke-width:1.0;"/><!--MD5=[756b9bae1b75196a800e7c7a42cf4276]
reverse link CountryStore to BuildFreightNetworkController--><path codeLine="66" d="M458.74,249.9 C443.44,266.5 424.59,286.95 407.11,305.9 " fill="none" id="CountryStore-backto-BuildFreightNetworkController" style="stroke:#A80036;stroke-width:1.0;stroke-dasharray:7.0,7.0;"/><polygon fill="#A80036" points="462.15,246.2,453.1075,250.103,458.7598,249.8751,458.9877,255.5274,462.15,246.2" style="stroke:#A80036;stroke-width:1.0;"/><!--MD5=[6c8b3f7f731151c7108da7f7c76a782c]
reverse link Port to Port2DTree--><path codeLine="67" d="M55,122.51 C55,143.34 55,166.17 55,183.81 " fill="none" id="Port-backto-Port2DTree" style="stroke:#A80036;stroke-width:1.0;"/><polygon fill="#A80036" points="55,117.26,51,126.26,55,122.26,59,126.26,55,117.26" style="stroke:#A80036;stroke-width:1.0;"/><!--MD5=[2b4a9eba97a2b12f3ab2b96d866a27c4]
reverse link SeaDistance to SeaDistanceStore--><path codeLine="68" d="M204,115.8 C204,138.3 204,164.24 204,183.8 " fill="none" id="SeaDistance-backto-SeaDistanceStore" style="stroke:#A80036;stroke-width:1.0;"/><polygon fill="#A80036" points="204,110.75,200,119.75,204,115.75,208,119.75,204,110.75" style="stroke:#A80036;stroke-width:1.0;"/><!--MD5=[f149738394590196c7a4b77654e51331]
reverse link Border to BorderStore--><path codeLine="69" d="M353.29,108.74 C353.45,132.69 353.65,162.1 353.79,183.74 " fill="none" id="Border-backto-BorderStore" style="stroke:#A80036;stroke-width:1.0;"/><polygon fill="#A80036" points="353.25,103.72,349.3015,112.7427,353.2786,108.7199,357.3014,112.697,353.25,103.72" style="stroke:#A80036;stroke-width:1.0;"/><!--MD5=[a729a947760e647843f4e04db72091e8]
reverse link Country to CountryStore--><path codeLine="70" d="M490.57,129.65 C490.44,148.46 490.31,168.21 490.2,183.87 " fill="none" id="Country-backto-CountryStore" style="stroke:#A80036;stroke-width:1.0;"/><polygon fill="#A80036" points="490.61,124.37,486.5586,133.347,490.5814,129.3699,494.5585,133.3927,490.61,124.37" style="stroke:#A80036;stroke-width:1.0;"/><!--MD5=[854452a4782ae60edae6b82c5b73e791]
@startuml
'https://plantuml.com/class-diagram

class BuildFreightNetworkUI {
- controller
}

class BuildFreightNetworkController {
- countryStore;
- port2DTree;
- borderStore;
- seaDistanceStore;
+ buildFreightNetwork()
}

class Port {
+ getID()
+ getCountry()
+ getLatitude()
+ getLongitude()
}

class Port2DTree {
+ getAllPorts()
}

class SeaDistance {
+ getPort1()
+ getPort2()
+ getDistance()
}

class SeaDistanceStore {
+ getSeaDists()
}

class Border {
+ getCountry1()
+ getCountry2()
}

class BorderStore {
+ getBorders()
}

class Country {
+ getAlpha2code()
+ getcapital()
+ getcountry()
+ getlatitude()
+ getlongitude()
}

class CountryStore {
+ getCountries()
}

class FreightNetwork {
+ buildFreightNetwork(boolean directed, List<V> vs, E[][] m)
}

BuildFreightNetworkController <.. BuildFreightNetworkUI
FreightNetwork <.. BuildFreightNetworkController
Port2DTree <.. BuildFreightNetworkController
SeaDistanceStore <.. BuildFreightNetworkController
BorderStore <.. BuildFreightNetworkController
CountryStore <.. BuildFreightNetworkController
Port <- - Port2DTree
SeaDistance <- - SeaDistanceStore
Border <- - BorderStore
Country <- - CountryStore

@enduml

@startuml

class BuildFreightNetworkUI {
- controller
}

class BuildFreightNetworkController {
- countryStore;
- port2DTree;
- borderStore;
- seaDistanceStore;
+ buildFreightNetwork()
}

class Port {
+ getID()
+ getCountry()
+ getLatitude()
+ getLongitude()
}

class Port2DTree {
+ getAllPorts()
}

class SeaDistance {
+ getPort1()
+ getPort2()
+ getDistance()
}

class SeaDistanceStore {
+ getSeaDists()
}

class Border {
+ getCountry1()
+ getCountry2()
}

class BorderStore {
+ getBorders()
}

class Country {
+ getAlpha2code()
+ getcapital()
+ getcountry()
+ getlatitude()
+ getlongitude()
}

class CountryStore {
+ getCountries()
}

class FreightNetwork {
+ buildFreightNetwork(boolean directed, List<V> vs, E[][] m)
}

BuildFreightNetworkController <.. BuildFreightNetworkUI
FreightNetwork <.. BuildFreightNetworkController
Port2DTree <.. BuildFreightNetworkController
SeaDistanceStore <.. BuildFreightNetworkController
BorderStore <.. BuildFreightNetworkController
CountryStore <.. BuildFreightNetworkController
Port <- - Port2DTree
SeaDistance <- - SeaDistanceStore
Border <- - BorderStore
Country <- - CountryStore

@enduml

PlantUML version 1.2021.00(Sun Jan 10 10:25:05 GMT 2021)
(GPL source distribution)
Java Runtime: OpenJDK Runtime Environment
JVM: OpenJDK 64-Bit Server VM
Default Encoding: Cp1252
Language: en
Country: GB
--></g></svg>