<?xml version="1.0" encoding="UTF-8" standalone="no"?><svg xmlns="http://www.w3.org/2000/svg" xmlns:xlink="http://www.w3.org/1999/xlink" contentScriptType="application/ecmascript" contentStyleType="text/css" height="507px" preserveAspectRatio="none" style="width:881px;height:507px;background:#FFFFFF;" version="1.1" viewBox="0 0 881 507" width="881px" zoomAndPan="magnify"><defs><filter height="300%" id="f122xsty7tqf62" width="300%" x="-1" y="-1"><feGaussianBlur result="blurOut" stdDeviation="2.0"/><feColorMatrix in="blurOut" result="blurOut2" type="matrix" values="0 0 0 0 0 0 0 0 0 0 0 0 0 0 0 0 0 0 .4 0"/><feOffset dx="4.0" dy="4.0" in="blurOut2" result="blurOut3"/><feBlend in="SourceGraphic" in2="blurOut3" mode="normal"/></filter></defs><g><rect fill="#FFFFFF" filter="url(#f122xsty7tqf62)" height="312.8125" style="stroke:#A80036;stroke-width:1.0;" width="10" x="53" y="99.6094"/><rect fill="#FFFFFF" filter="url(#f122xsty7tqf62)" height="281.4609" style="stroke:#A80036;stroke-width:1.0;" width="10" x="320" y="121.9609"/><rect fill="#FFFFFF" filter="url(#f122xsty7tqf62)" height="251.1094" style="stroke:#A80036;stroke-width:1.0;" width="10" x="458" y="152.3125"/><rect fill="#FFFFFF" filter="url(#f122xsty7tqf62)" height="60.3516" style="stroke:#A80036;stroke-width:1.0;" width="10" x="655" y="182.6641"/><rect fill="#FFFFFF" filter="url(#f122xsty7tqf62)" height="30" style="stroke:#A80036;stroke-width:1.0;" width="10" x="808" y="213.0156"/><line style="stroke:#A80036;stroke-width:1.0;stroke-dasharray:5.0,5.0;" x1="58" x2="58" y1="89.6094" y2="421.4219"/><line style="stroke:#A80036;stroke-width:1.0;stroke-dasharray:5.0,5.0;" x1="324.5" x2="324.5" y1="89.6094" y2="421.4219"/><line style="stroke:#A80036;stroke-width:1.0;stroke-dasharray:5.0,5.0;" x1="462.5" x2="462.5" y1="89.6094" y2="421.4219"/><line style="stroke:#A80036;stroke-width:1.0;stroke-dasharray:5.0,5.0;" x1="660" x2="660" y1="89.6094" y2="421.4219"/><line style="stroke:#A80036;stroke-width:1.0;stroke-dasharray:5.0,5.0;" x1="812.5" x2="812.5" y1="89.6094" y2="421.4219"/><text fill="#000000" font-family="sans-serif" font-size="14" lengthAdjust="spacing" textLength="100" x="5" y="86.5332">Traffic Manager</text><ellipse cx="58" cy="15" fill="#FEFECE" filter="url(#f122xsty7tqf62)" rx="8" ry="8" style="stroke:#A80036;stroke-width:2.0;"/><path d="M58,23 L58,50 M45,31 L71,31 M58,50 L45,65 M58,50 L71,65 " fill="none" filter="url(#f122xsty7tqf62)" style="stroke:#A80036;stroke-width:2.0;"/><text fill="#000000" font-family="sans-serif" font-size="14" lengthAdjust="spacing" textLength="100" x="5" y="434.9551">Traffic Manager</text><ellipse cx="58" cy="448.0313" fill="#FEFECE" filter="url(#f122xsty7tqf62)" rx="8" ry="8" style="stroke:#A80036;stroke-width:2.0;"/><path d="M58,456.0313 L58,483.0313 M45,464.0313 L71,464.0313 M58,483.0313 L45,498.0313 M58,483.0313 L71,498.0313 " fill="none" filter="url(#f122xsty7tqf62)" style="stroke:#A80036;stroke-width:2.0;"/><rect fill="#FEFECE" filter="url(#f122xsty7tqf62)" height="31.6094" style="stroke:#A80036;stroke-width:1.5;" width="99" x="273.5" y="53"/><text fill="#000000" font-family="sans-serif" font-size="14" lengthAdjust="spacing" textLength="85" x="280.5" y="74.5332">:ColourMapUI</text><rect fill="#FEFECE" filter="url(#f122xsty7tqf62)" height="31.6094" style="stroke:#A80036;stroke-width:1.5;" width="99" x="273.5" y="420.4219"/><text fill="#000000" font-family="sans-serif" font-size="14" lengthAdjust="spacing" textLength="85" x="280.5" y="441.9551">:ColourMapUI</text><rect fill="#FEFECE" filter="url(#f122xsty7tqf62)" height="31.6094" style="stroke:#A80036;stroke-width:1.5;" width="149" x="386.5" y="53"/><text fill="#000000" font-family="sans-serif" font-size="14" lengthAdjust="spacing" textLength="135" x="393.5" y="74.5332">:ColourMapController</text><rect fill="#FEFECE" filter="url(#f122xsty7tqf62)" height="31.6094" style="stroke:#A80036;stroke-width:1.5;" width="149" x="386.5" y="420.4219"/><text fill="#000000" font-family="sans-serif" font-size="14" lengthAdjust="spacing" textLength="135" x="393.5" y="441.9551">:ColourMapController</text><rect fill="#FEFECE" filter="url(#f122xsty7tqf62)" height="31.6094" style="stroke:#A80036;stroke-width:1.5;" width="78" x="619" y="53"/><text fill="#000000" font-family="sans-serif" font-size="14" lengthAdjust="spacing" textLength="64" x="626" y="74.5332">:Company</text><rect fill="#FEFECE" filter="url(#f122xsty7tqf62)" height="31.6094" style="stroke:#A80036;stroke-width:1.5;" width="78" x="619" y="420.4219"/><text fill="#000000" font-family="sans-serif" font-size="14" lengthAdjust="spacing" textLength="64" x="626" y="441.9551">:Company</text><rect fill="#FEFECE" filter="url(#f122xsty7tqf62)" height="31.6094" style="stroke:#A80036;stroke-width:1.5;" width="113" x="754.5" y="53"/><text fill="#000000" font-family="sans-serif" font-size="14" lengthAdjust="spacing" textLength="99" x="761.5" y="74.5332">:FreightNetwork</text><rect fill="#FEFECE" filter="url(#f122xsty7tqf62)" height="31.6094" style="stroke:#A80036;stroke-width:1.5;" width="113" x="754.5" y="420.4219"/><text fill="#000000" font-family="sans-serif" font-size="14" lengthAdjust="spacing" textLength="99" x="761.5" y="441.9551">:FreightNetwork</text><rect fill="#FFFFFF" filter="url(#f122xsty7tqf62)" height="312.8125" style="stroke:#A80036;stroke-width:1.0;" width="10" x="53" y="99.6094"/><rect fill="#FFFFFF" filter="url(#f122xsty7tqf62)" height="281.4609" style="stroke:#A80036;stroke-width:1.0;" width="10" x="320" y="121.9609"/><rect fill="#FFFFFF" filter="url(#f122xsty7tqf62)" height="251.1094" style="stroke:#A80036;stroke-width:1.0;" width="10" x="458" y="152.3125"/><rect fill="#FFFFFF" filter="url(#f122xsty7tqf62)" height="60.3516" style="stroke:#A80036;stroke-width:1.0;" width="10" x="655" y="182.6641"/><rect fill="#FFFFFF" filter="url(#f122xsty7tqf62)" height="30" style="stroke:#A80036;stroke-width:1.0;" width="10" x="808" y="213.0156"/><polygon fill="#A80036" points="308,117.9609,318,121.9609,308,125.9609,312,121.9609" style="stroke:#A80036;stroke-width:1.0;"/><line style="stroke:#A80036;stroke-width:1.0;" x1="63" x2="314" y1="121.9609" y2="121.9609"/><text fill="#000000" font-family="sans-serif" font-size="13" font-weight="bold" lengthAdjust="spacing" textLength="7" x="70" y="117.1045">1</text><text fill="#000000" font-family="sans-serif" font-size="13" lengthAdjust="spacing" textLength="133" x="81" y="117.1045">asks to colour the map</text><polygon fill="#A80036" points="446,148.3125,456,152.3125,446,156.3125,450,152.3125" style="stroke:#A80036;stroke-width:1.0;"/><line style="stroke:#A80036;stroke-width:1.0;" x1="330" x2="452" y1="152.3125" y2="152.3125"/><text fill="#000000" font-family="sans-serif" font-size="13" font-weight="bold" lengthAdjust="spacing" textLength="7" x="337" y="147.4561">2</text><text fill="#000000" font-family="sans-serif" font-size="13" lengthAdjust="spacing" textLength="68" x="348" y="147.4561">colourMap()</text><polygon fill="#A80036" points="643,178.6641,653,182.6641,643,186.6641,647,182.6641" style="stroke:#A80036;stroke-width:1.0;"/><line style="stroke:#A80036;stroke-width:1.0;" x1="468" x2="649" y1="182.6641" y2="182.6641"/><text fill="#000000" font-family="sans-serif" font-size="13" font-weight="bold" lengthAdjust="spacing" textLength="7" x="475" y="177.8076">3</text><text fill="#000000" font-family="sans-serif" font-size="13" lengthAdjust="spacing" textLength="81" x="486" y="177.8076">getCompany()</text><polygon fill="#A80036" points="796,209.0156,806,213.0156,796,217.0156,800,213.0156" style="stroke:#A80036;stroke-width:1.0;"/><line style="stroke:#A80036;stroke-width:1.0;" x1="665" x2="802" y1="213.0156" y2="213.0156"/><text fill="#000000" font-family="sans-serif" font-size="13" font-weight="bold" lengthAdjust="spacing" textLength="7" x="672" y="208.1592">4</text><text fill="#000000" font-family="sans-serif" font-size="13" lengthAdjust="spacing" textLength="113" x="683" y="208.1592">getFreightNetwork()</text><line style="stroke:#A80036;stroke-width:1.0;" x1="468" x2="510" y1="273.3672" y2="273.3672"/><line style="stroke:#A80036;stroke-width:1.0;" x1="510" x2="510" y1="273.3672" y2="286.3672"/><line style="stroke:#A80036;stroke-width:1.0;" x1="469" x2="510" y1="286.3672" y2="286.3672"/><polygon fill="#A80036" points="479,282.3672,469,286.3672,479,290.3672,475,286.3672" style="stroke:#A80036;stroke-width:1.0;"/><text fill="#000000" font-family="sans-serif" font-size="13" font-weight="bold" lengthAdjust="spacing" textLength="7" x="475" y="268.5107">5</text><text fill="#000000" font-family="sans-serif" font-size="13" lengthAdjust="spacing" textLength="162" x="486" y="268.5107">calculateNumberOfColours()</text><line style="stroke:#A80036;stroke-width:1.0;" x1="468" x2="510" y1="316.7188" y2="316.7188"/><line style="stroke:#A80036;stroke-width:1.0;" x1="510" x2="510" y1="316.7188" y2="329.7188"/><line style="stroke:#A80036;stroke-width:1.0;" x1="469" x2="510" y1="329.7188" y2="329.7188"/><polygon fill="#A80036" points="479,325.7188,469,329.7188,479,333.7188,475,329.7188" style="stroke:#A80036;stroke-width:1.0;"/><text fill="#000000" font-family="sans-serif" font-size="13" font-weight="bold" lengthAdjust="spacing" textLength="7" x="475" y="311.8623">6</text><text fill="#000000" font-family="sans-serif" font-size="13" lengthAdjust="spacing" textLength="88" x="486" y="311.8623">atributeColour()</text><line style="stroke:#A80036;stroke-width:1.0;" x1="468" x2="510" y1="360.0703" y2="360.0703"/><line style="stroke:#A80036;stroke-width:1.0;" x1="510" x2="510" y1="360.0703" y2="373.0703"/><line style="stroke:#A80036;stroke-width:1.0;" x1="469" x2="510" y1="373.0703" y2="373.0703"/><polygon fill="#A80036" points="479,369.0703,469,373.0703,479,377.0703,475,373.0703" style="stroke:#A80036;stroke-width:1.0;"/><text fill="#000000" font-family="sans-serif" font-size="13" font-weight="bold" lengthAdjust="spacing" textLength="7" x="475" y="355.2139">7</text><text fill="#000000" font-family="sans-serif" font-size="13" lengthAdjust="spacing" textLength="68" x="486" y="355.2139">colourMap()</text><polygon fill="#A80036" points="74,399.4219,64,403.4219,74,407.4219,70,403.4219" style="stroke:#A80036;stroke-width:1.0;"/><line style="stroke:#A80036;stroke-width:1.0;" x1="68" x2="324" y1="403.4219" y2="403.4219"/><text fill="#000000" font-family="sans-serif" font-size="13" font-weight="bold" lengthAdjust="spacing" textLength="7" x="80" y="398.5654">8</text><text fill="#000000" font-family="sans-serif" font-size="13" lengthAdjust="spacing" textLength="222" x="91" y="398.5654">Map associated with colours is printed</text><!--MD5=[bc966f8f62ce288a56615fb7faa84399]
@startuml
'https://plantuml.com/sequence-diagram

autonumber

actor "Traffic Manager" as TM

participant ":ColourMapUI" as UI
participant ":ColourMapController" as CTRL
participant ":Company" as COMP
participant ":FreightNetwork" as NET

activate TM
TM -> UI : asks to colour the map

activate UI
UI -> CTRL : colourMap()

activate CTRL
CTRL->COMP : getCompany()

activate COMP
COMP->NET : getFreightNetwork()

activate NET
deactivate NET
deactivate COMP

CTRL -> CTRL : calculateNumberOfColours()

CTRL -> CTRL : atributeColour()

CTRL -> CTRL : colourMap()

UI -> TM : Map associated with colours is printed

deactivate CTRL
deactivate UI




@enduml

@startuml

autonumber

actor "Traffic Manager" as TM

participant ":ColourMapUI" as UI
participant ":ColourMapController" as CTRL
participant ":Company" as COMP
participant ":FreightNetwork" as NET

activate TM
TM -> UI : asks to colour the map

activate UI
UI -> CTRL : colourMap()

activate CTRL
CTRL->COMP : getCompany()

activate COMP
COMP->NET : getFreightNetwork()

activate NET
deactivate NET
deactivate COMP

CTRL -> CTRL : calculateNumberOfColours()

CTRL -> CTRL : atributeColour()

CTRL -> CTRL : colourMap()

UI -> TM : Map associated with colours is printed

deactivate CTRL
deactivate UI




@enduml

PlantUML version 1.2021.11(Sat Oct 02 14:26:11 BST 2021)
(GPL source distribution)
Java Runtime: OpenJDK Runtime Environment
JVM: OpenJDK 64-Bit Server VM
Default Encoding: Cp1252
Language: pt
Country: PT
--></g></svg>