<?xml version="1.0" encoding="UTF-8" standalone="no"?><svg xmlns="http://www.w3.org/2000/svg" xmlns:xlink="http://www.w3.org/1999/xlink" contentScriptType="application/ecmascript" contentStyleType="text/css" height="373px" preserveAspectRatio="none" style="width:462px;height:373px;background:#FFFFFF;" version="1.1" viewBox="0 0 462 373" width="462px" zoomAndPan="magnify"><defs><filter height="300%" id="f1usi42ha5w16x" width="300%" x="-1" y="-1"><feGaussianBlur result="blurOut" stdDeviation="2.0"/><feColorMatrix in="blurOut" result="blurOut2" type="matrix" values="0 0 0 0 0 0 0 0 0 0 0 0 0 0 0 0 0 0 .4 0"/><feOffset dx="4.0" dy="4.0" in="blurOut2" result="blurOut3"/><feBlend in="SourceGraphic" in2="blurOut3" mode="normal"/></filter></defs><g><!--MD5=[02e4b9b7573f1156f41e60aa5b4e25a4]
class Company--><rect codeLine="7" fill="#FEFECE" filter="url(#f1usi42ha5w16x)" height="61.8359" id="Company" style="stroke:#A80036;stroke-width:1.5;" width="85" x="7" y="152.5"/><ellipse cx="22" cy="168.5" fill="#ADD1B2" rx="11" ry="11" style="stroke:#A80036;stroke-width:1.0;"/><path d="M24,165 Q24.2031,164.5 24.4375,164.25 Q24.6719,164 24.9375,164 Q25.4063,164 25.7031,164.2813 Q26,164.5625 26,165.2188 L26,166.7813 Q26,167.4375 25.7188,167.7188 Q25.4375,168 25,168 Q24.6094,168 24.3594,167.8281 Q24.1094,167.6563 24,167.2031 Q23.9531,166.8906 23.7813,166.7188 Q23.4688,166.3906 22.9063,166.2031 Q22.3438,166 21.7813,166 Q21.0781,166 20.4844,166.2813 Q19.9063,166.5625 19.4531,167.1875 Q19,167.8125 19,168.6719 L19,169.5938 Q19,170.625 19.8438,171.3125 Q20.6875,172 22.1875,172 Q23.0781,172 23.7031,171.7969 Q24.0625,171.6875 24.4688,171.3281 Q24.7344,171.125 24.875,171.0625 Q25.0156,171 25.1875,171 Q25.5156,171 25.75,171.2656 Q26,171.5156 26,171.875 Q26,172.2188 25.6563,172.625 Q25.1563,173.2188 24.3594,173.5469 Q23.3125,174 22.0313,174 Q20.5313,174 19.3281,173.4063 Q18.3594,172.9375 17.6719,171.9219 Q17,170.9063 17,169.7031 L17,168.6094 Q17,167.3594 17.5938,166.2656 Q18.2031,165.1719 19.25,164.5938 Q20.3125,164 21.5,164 Q22.2188,164 22.8438,164.25 Q23.4688,164.5 24,165 Z " fill="#000000"/><text fill="#000000" font-family="sans-serif" font-size="12" lengthAdjust="spacing" textLength="53" x="36" y="173.4102">Company</text><line style="stroke:#A80036;stroke-width:1.5;" x1="8" x2="91" y1="184.5" y2="184.5"/><text fill="#000000" font-family="sans-serif" font-size="11" lengthAdjust="spacing" textLength="60" x="13" y="199.9189">-Designation</text><line style="stroke:#A80036;stroke-width:1.5;" x1="8" x2="91" y1="206.3359" y2="206.3359"/><!--MD5=[a0bfe97ac0a38e6e74cc1c7c7b744b71]
class Port--><rect codeLine="11" fill="#FEFECE" filter="url(#f1usi42ha5w16x)" height="158.6875" id="Port" style="stroke:#A80036;stroke-width:1.5;" width="77" x="205" y="7"/><ellipse cx="230.35" cy="23" fill="#ADD1B2" rx="11" ry="11" style="stroke:#A80036;stroke-width:1.0;"/><path d="M232.35,19.5 Q232.5531,19 232.7875,18.75 Q233.0219,18.5 233.2875,18.5 Q233.7563,18.5 234.0531,18.7813 Q234.35,19.0625 234.35,19.7188 L234.35,21.2813 Q234.35,21.9375 234.0688,22.2188 Q233.7875,22.5 233.35,22.5 Q232.9594,22.5 232.7094,22.3281 Q232.4594,22.1563 232.35,21.7031 Q232.3031,21.3906 232.1313,21.2188 Q231.8188,20.8906 231.2563,20.7031 Q230.6938,20.5 230.1313,20.5 Q229.4281,20.5 228.8344,20.7813 Q228.2563,21.0625 227.8031,21.6875 Q227.35,22.3125 227.35,23.1719 L227.35,24.0938 Q227.35,25.125 228.1938,25.8125 Q229.0375,26.5 230.5375,26.5 Q231.4281,26.5 232.0531,26.2969 Q232.4125,26.1875 232.8188,25.8281 Q233.0844,25.625 233.225,25.5625 Q233.3656,25.5 233.5375,25.5 Q233.8656,25.5 234.1,25.7656 Q234.35,26.0156 234.35,26.375 Q234.35,26.7188 234.0063,27.125 Q233.5063,27.7188 232.7094,28.0469 Q231.6625,28.5 230.3813,28.5 Q228.8813,28.5 227.6781,27.9063 Q226.7094,27.4375 226.0219,26.4219 Q225.35,25.4063 225.35,24.2031 L225.35,23.1094 Q225.35,21.8594 225.9438,20.7656 Q226.5531,19.6719 227.6,19.0938 Q228.6625,18.5 229.85,18.5 Q230.5688,18.5 231.1938,18.75 Q231.8188,19 232.35,19.5 Z " fill="#000000"/><text fill="#000000" font-family="sans-serif" font-size="12" lengthAdjust="spacing" textLength="22" x="246.65" y="27.9102">Port</text><line style="stroke:#A80036;stroke-width:1.5;" x1="206" x2="281" y1="39" y2="39"/><text fill="#000000" font-family="sans-serif" font-size="11" lengthAdjust="spacing" textLength="64" x="211" y="54.4189">-Identification</text><text fill="#000000" font-family="sans-serif" font-size="11" lengthAdjust="spacing" textLength="31" x="211" y="68.2549">-Name</text><text fill="#000000" font-family="sans-serif" font-size="11" lengthAdjust="spacing" textLength="49" x="211" y="82.0908">-Continent</text><text fill="#000000" font-family="sans-serif" font-size="11" lengthAdjust="spacing" textLength="42" x="211" y="95.9268">-Country</text><text fill="#000000" font-family="sans-serif" font-size="11" lengthAdjust="spacing" textLength="42" x="211" y="109.7627">-Latitude</text><text fill="#000000" font-family="sans-serif" font-size="11" lengthAdjust="spacing" textLength="47" x="211" y="123.5986">-longitude</text><text fill="#000000" font-family="sans-serif" font-size="11" lengthAdjust="spacing" textLength="65" x="211" y="137.4346">-PortMagager</text><text fill="#000000" font-family="sans-serif" font-size="11" lengthAdjust="spacing" textLength="47" x="211" y="151.2705">-PortStaff</text><line style="stroke:#A80036;stroke-width:1.5;" x1="206" x2="281" y1="157.6875" y2="157.6875"/><!--MD5=[deb4e1f6eb1e3c1256fdb830f96abfbb]
class Country--><rect codeLine="23" fill="#FEFECE" filter="url(#f1usi42ha5w16x)" height="158.6875" id="Country" style="stroke:#A80036;stroke-width:1.5;" width="79" x="204" y="201"/><ellipse cx="221.25" cy="217" fill="#ADD1B2" rx="11" ry="11" style="stroke:#A80036;stroke-width:1.0;"/><path d="M223.25,213.5 Q223.4531,213 223.6875,212.75 Q223.9219,212.5 224.1875,212.5 Q224.6563,212.5 224.9531,212.7813 Q225.25,213.0625 225.25,213.7188 L225.25,215.2813 Q225.25,215.9375 224.9688,216.2188 Q224.6875,216.5 224.25,216.5 Q223.8594,216.5 223.6094,216.3281 Q223.3594,216.1563 223.25,215.7031 Q223.2031,215.3906 223.0313,215.2188 Q222.7188,214.8906 222.1563,214.7031 Q221.5938,214.5 221.0313,214.5 Q220.3281,214.5 219.7344,214.7813 Q219.1563,215.0625 218.7031,215.6875 Q218.25,216.3125 218.25,217.1719 L218.25,218.0938 Q218.25,219.125 219.0938,219.8125 Q219.9375,220.5 221.4375,220.5 Q222.3281,220.5 222.9531,220.2969 Q223.3125,220.1875 223.7188,219.8281 Q223.9844,219.625 224.125,219.5625 Q224.2656,219.5 224.4375,219.5 Q224.7656,219.5 225,219.7656 Q225.25,220.0156 225.25,220.375 Q225.25,220.7188 224.9063,221.125 Q224.4063,221.7188 223.6094,222.0469 Q222.5625,222.5 221.2813,222.5 Q219.7813,222.5 218.5781,221.9063 Q217.6094,221.4375 216.9219,220.4219 Q216.25,219.4063 216.25,218.2031 L216.25,217.1094 Q216.25,215.8594 216.8438,214.7656 Q217.4531,213.6719 218.5,213.0938 Q219.5625,212.5 220.75,212.5 Q221.4688,212.5 222.0938,212.75 Q222.7188,213 223.25,213.5 Z " fill="#000000"/><text fill="#000000" font-family="sans-serif" font-size="12" lengthAdjust="spacing" textLength="42" x="235.75" y="221.9102">Country</text><line style="stroke:#A80036;stroke-width:1.5;" x1="205" x2="282" y1="233" y2="233"/><text fill="#000000" font-family="sans-serif" font-size="11" lengthAdjust="spacing" textLength="49" x="210" y="248.4189">-Continent</text><text fill="#000000" font-family="sans-serif" font-size="11" lengthAdjust="spacing" textLength="67" x="210" y="262.2549">-Alpha2-Code</text><text fill="#000000" font-family="sans-serif" font-size="11" lengthAdjust="spacing" textLength="67" x="210" y="276.0908">-Alpha3-Code</text><text fill="#000000" font-family="sans-serif" font-size="11" lengthAdjust="spacing" textLength="42" x="210" y="289.9268">-Country</text><text fill="#000000" font-family="sans-serif" font-size="11" lengthAdjust="spacing" textLength="53" x="210" y="303.7627">-Population</text><text fill="#000000" font-family="sans-serif" font-size="11" lengthAdjust="spacing" textLength="36" x="210" y="317.5986">-Capital</text><text fill="#000000" font-family="sans-serif" font-size="11" lengthAdjust="spacing" textLength="42" x="210" y="331.4346">-Latitude</text><text fill="#000000" font-family="sans-serif" font-size="11" lengthAdjust="spacing" textLength="51" x="210" y="345.2705">-Longitude</text><line style="stroke:#A80036;stroke-width:1.5;" x1="205" x2="282" y1="351.6875" y2="351.6875"/><!--MD5=[a0336aaa8110b78d9cacadb9d45e00a3]
class Border--><rect codeLine="34" fill="#FEFECE" filter="url(#f1usi42ha5w16x)" height="75.6719" id="Border" style="stroke:#A80036;stroke-width:1.5;" width="69" x="379" y="242.5"/><ellipse cx="394" cy="258.5" fill="#ADD1B2" rx="11" ry="11" style="stroke:#A80036;stroke-width:1.0;"/><path d="M396,255 Q396.2031,254.5 396.4375,254.25 Q396.6719,254 396.9375,254 Q397.4063,254 397.7031,254.2813 Q398,254.5625 398,255.2188 L398,256.7813 Q398,257.4375 397.7188,257.7188 Q397.4375,258 397,258 Q396.6094,258 396.3594,257.8281 Q396.1094,257.6563 396,257.2031 Q395.9531,256.8906 395.7813,256.7188 Q395.4688,256.3906 394.9063,256.2031 Q394.3438,256 393.7813,256 Q393.0781,256 392.4844,256.2813 Q391.9063,256.5625 391.4531,257.1875 Q391,257.8125 391,258.6719 L391,259.5938 Q391,260.625 391.8438,261.3125 Q392.6875,262 394.1875,262 Q395.0781,262 395.7031,261.7969 Q396.0625,261.6875 396.4688,261.3281 Q396.7344,261.125 396.875,261.0625 Q397.0156,261 397.1875,261 Q397.5156,261 397.75,261.2656 Q398,261.5156 398,261.875 Q398,262.2188 397.6563,262.625 Q397.1563,263.2188 396.3594,263.5469 Q395.3125,264 394.0313,264 Q392.5313,264 391.3281,263.4063 Q390.3594,262.9375 389.6719,261.9219 Q389,260.9063 389,259.7031 L389,258.6094 Q389,257.3594 389.5938,256.2656 Q390.2031,255.1719 391.25,254.5938 Q392.3125,254 393.5,254 Q394.2188,254 394.8438,254.25 Q395.4688,254.5 396,255 Z " fill="#000000"/><text fill="#000000" font-family="sans-serif" font-size="12" lengthAdjust="spacing" textLength="37" x="408" y="263.4102">Border</text><line style="stroke:#A80036;stroke-width:1.5;" x1="380" x2="447" y1="274.5" y2="274.5"/><text fill="#000000" font-family="sans-serif" font-size="11" lengthAdjust="spacing" textLength="48" x="385" y="289.9189">-Country1</text><text fill="#000000" font-family="sans-serif" font-size="11" lengthAdjust="spacing" textLength="48" x="385" y="303.7549">-Country2</text><line style="stroke:#A80036;stroke-width:1.5;" x1="380" x2="447" y1="310.1719" y2="310.1719"/><!--MD5=[5fd98a8c03cc0e5a408f548eb1c0ace8]
link Company to Port--><path codeLine="39" d="M92.16,162.45 C125.69,145.51 172.4,121.91 204.82,105.53 " fill="none" id="Company-Port" style="stroke:#A80036;stroke-width:1.0;"/><polygon fill="#000000" points="133.4627,112.421,124.0643,113.8768,126.7149,119.123,133.4627,112.421" style="stroke:#000000;stroke-width:1.0;"/><text fill="#000000" font-family="sans-serif" font-size="13" lengthAdjust="spacing" textLength="33" x="138" y="119.9951">Owns</text><text fill="#000000" font-family="sans-serif" font-size="13" lengthAdjust="spacing" textLength="7" x="100.0938" y="173.7465">1</text><text fill="#000000" font-family="sans-serif" font-size="13" lengthAdjust="spacing" textLength="20" x="177.0616" y="123.3859">1..*</text><!--MD5=[da7744a491085abf6337b551ad49e0b8]
link Company to Country--><path codeLine="40" d="M92.16,204.55 C125.36,221.32 171.48,244.62 203.86,260.98 " fill="none" id="Company-Country" style="stroke:#A80036;stroke-width:1.0;"/><polygon fill="#000000" points="131.4628,213.9304,124.7147,207.2286,122.0643,212.475,131.4628,213.9304" style="stroke:#000000;stroke-width:1.0;"/><text fill="#000000" font-family="sans-serif" font-size="13" lengthAdjust="spacing" textLength="37" x="136" y="216.9951">knows</text><text fill="#000000" font-family="sans-serif" font-size="13" lengthAdjust="spacing" textLength="7" x="100.0938" y="223.0824">1</text><text fill="#000000" font-family="sans-serif" font-size="13" lengthAdjust="spacing" textLength="5" x="191.0904" y="272.4123">*</text><!--MD5=[553c71e238892de64676e9482c62727a]
link Country to Border--><path codeLine="41" d="M283.04,280.5 C312.01,280.5 351.29,280.5 378.97,280.5 " fill="none" id="Country-Border" style="stroke:#A80036;stroke-width:1.0;"/><polygon fill="#000000" points="323,271.6758,313.9549,268.7369,313.9549,274.6147,323,271.6758" style="stroke:#000000;stroke-width:1.0;"/><text fill="#000000" font-family="sans-serif" font-size="13" lengthAdjust="spacing" textLength="21" x="327" y="276.9951">has</text><text fill="#000000" font-family="sans-serif" font-size="13" lengthAdjust="spacing" textLength="7" x="290.9755" y="295.5313">1</text><text fill="#000000" font-family="sans-serif" font-size="13" lengthAdjust="spacing" textLength="5" x="365.8697" y="295.8195">*</text><!--MD5=[79ab96e1751847aec11069eeb2bf811b]
@startuml
'https://plantuml.com/class-diagram

skinparam classAttributeIconSize 0

left to right direction

class Company {
-Designation
}

class Port {
-Identification
-Name
-Continent
-Country
-Latitude
-longitude
-PortMagager
-PortStaff
}


class Country {
-Continent
-Alpha2-Code
-Alpha3-Code
-Country
-Population
-Capital
-Latitude
-Longitude
}

class Border {
-Country1
-Country2
}

Company "1" - - "1..*" Port : Owns >
Company "1" - - "*" Country : knows >
Country "1" - - "*" Border : has >
@enduml

@startuml

skinparam classAttributeIconSize 0

left to right direction

class Company {
-Designation
}

class Port {
-Identification
-Name
-Continent
-Country
-Latitude
-longitude
-PortMagager
-PortStaff
}


class Country {
-Continent
-Alpha2-Code
-Alpha3-Code
-Country
-Population
-Capital
-Latitude
-Longitude
}

class Border {
-Country1
-Country2
}

Company "1" - - "1..*" Port : Owns >
Company "1" - - "*" Country : knows >
Country "1" - - "*" Border : has >
@enduml

PlantUML version 1.2021.11(Sat Oct 02 14:26:11 BST 2021)
(GPL source distribution)
Java Runtime: OpenJDK Runtime Environment
JVM: OpenJDK 64-Bit Server VM
Default Encoding: Cp1252
Language: pt
Country: PT
--></g></svg>