<?xml version="1.0" encoding="UTF-8" standalone="no"?><svg xmlns="http://www.w3.org/2000/svg" xmlns:xlink="http://www.w3.org/1999/xlink" contentScriptType="application/ecmascript" contentStyleType="text/css" height="340px" preserveAspectRatio="none" style="width:181px;height:340px;" version="1.1" viewBox="0 0 181 340" width="181px" zoomAndPan="magnify"><defs><filter height="300%" id="f1sj08zjp0g49k" width="300%" x="-1" y="-1"><feGaussianBlur result="blurOut" stdDeviation="2.0"/><feColorMatrix in="blurOut" result="blurOut2" type="matrix" values="0 0 0 0 0 0 0 0 0 0 0 0 0 0 0 0 0 0 .4 0"/><feOffset dx="4.0" dy="4.0" in="blurOut2" result="blurOut3"/><feBlend in="SourceGraphic" in2="blurOut3" mode="normal"/></filter></defs><g><!--MD5=[3486008d08590c12c7ec6e4e2bdd34b8]
class TripEnergyUI--><rect codeLine="3" fill="#FEFECE" filter="url(#f1sj08zjp0g49k)" height="61.8359" id="TripEnergyUI" style="stroke:#A80036;stroke-width:1.5;" width="103" x="35.5" y="265"/><ellipse cx="50.5" cy="281" fill="#ADD1B2" rx="11" ry="11" style="stroke:#A80036;stroke-width:1.0;"/><path d="M52.5,277.5 Q52.7031,277 52.9375,276.75 Q53.1719,276.5 53.4375,276.5 Q53.9063,276.5 54.2031,276.7813 Q54.5,277.0625 54.5,277.7188 L54.5,279.2813 Q54.5,279.9375 54.2188,280.2188 Q53.9375,280.5 53.5,280.5 Q53.1094,280.5 52.8594,280.3281 Q52.6094,280.1563 52.5,279.7031 Q52.4531,279.3906 52.2813,279.2188 Q51.9688,278.8906 51.4063,278.7031 Q50.8438,278.5 50.2813,278.5 Q49.5781,278.5 48.9844,278.7813 Q48.4063,279.0625 47.9531,279.6875 Q47.5,280.3125 47.5,281.1719 L47.5,282.0938 Q47.5,283.125 48.3438,283.8125 Q49.1875,284.5 50.6875,284.5 Q51.5781,284.5 52.2031,284.2969 Q52.5625,284.1875 52.9688,283.8281 Q53.2344,283.625 53.375,283.5625 Q53.5156,283.5 53.6875,283.5 Q54.0156,283.5 54.25,283.7656 Q54.5,284.0156 54.5,284.375 Q54.5,284.7188 54.1563,285.125 Q53.6563,285.7188 52.8594,286.0469 Q51.8125,286.5 50.5313,286.5 Q49.0313,286.5 47.8281,285.9063 Q46.8594,285.4375 46.1719,284.4219 Q45.5,283.4063 45.5,282.2031 L45.5,281.1094 Q45.5,279.8594 46.0938,278.7656 Q46.7031,277.6719 47.75,277.0938 Q48.8125,276.5 50,276.5 Q50.7188,276.5 51.3438,276.75 Q51.9688,277 52.5,277.5 Z " fill="#000000"/><text fill="#000000" font-family="sans-serif" font-size="12" lengthAdjust="spacing" textLength="71" x="64.5" y="285.9102">TripEnergyUI</text><line style="stroke:#A80036;stroke-width:1.5;" x1="36.5" x2="137.5" y1="297" y2="297"/><rect fill="none" height="6" style="stroke:#C82930;stroke-width:1.0;" width="6" x="43.5" y="305"/><text fill="#000000" font-family="sans-serif" font-size="11" lengthAdjust="spacing" textLength="45" x="55.5" y="312.4189">controller</text><line style="stroke:#A80036;stroke-width:1.5;" x1="36.5" x2="137.5" y1="318.8359" y2="318.8359"/><!--MD5=[27a727c24222a4189eb93b4b062a8cbb]
class TripEnergyController--><rect codeLine="7" fill="#FEFECE" filter="url(#f1sj08zjp0g49k)" height="75.6719" id="TripEnergyController" style="stroke:#A80036;stroke-width:1.5;" width="145" x="14.5" y="129"/><ellipse cx="29.5" cy="145" fill="#ADD1B2" rx="11" ry="11" style="stroke:#A80036;stroke-width:1.0;"/><path d="M31.5,141.5 Q31.7031,141 31.9375,140.75 Q32.1719,140.5 32.4375,140.5 Q32.9063,140.5 33.2031,140.7813 Q33.5,141.0625 33.5,141.7188 L33.5,143.2813 Q33.5,143.9375 33.2188,144.2188 Q32.9375,144.5 32.5,144.5 Q32.1094,144.5 31.8594,144.3281 Q31.6094,144.1563 31.5,143.7031 Q31.4531,143.3906 31.2813,143.2188 Q30.9688,142.8906 30.4063,142.7031 Q29.8438,142.5 29.2813,142.5 Q28.5781,142.5 27.9844,142.7813 Q27.4063,143.0625 26.9531,143.6875 Q26.5,144.3125 26.5,145.1719 L26.5,146.0938 Q26.5,147.125 27.3438,147.8125 Q28.1875,148.5 29.6875,148.5 Q30.5781,148.5 31.2031,148.2969 Q31.5625,148.1875 31.9688,147.8281 Q32.2344,147.625 32.375,147.5625 Q32.5156,147.5 32.6875,147.5 Q33.0156,147.5 33.25,147.7656 Q33.5,148.0156 33.5,148.375 Q33.5,148.7188 33.1563,149.125 Q32.6563,149.7188 31.8594,150.0469 Q30.8125,150.5 29.5313,150.5 Q28.0313,150.5 26.8281,149.9063 Q25.8594,149.4375 25.1719,148.4219 Q24.5,147.4063 24.5,146.2031 L24.5,145.1094 Q24.5,143.8594 25.0938,142.7656 Q25.7031,141.6719 26.75,141.0938 Q27.8125,140.5 29,140.5 Q29.7188,140.5 30.3438,140.75 Q30.9688,141 31.5,141.5 Z " fill="#000000"/><text fill="#000000" font-family="sans-serif" font-size="12" lengthAdjust="spacing" textLength="113" x="43.5" y="149.9102">TripEnergyController</text><line style="stroke:#A80036;stroke-width:1.5;" x1="15.5" x2="158.5" y1="161" y2="161"/><line style="stroke:#A80036;stroke-width:1.5;" x1="15.5" x2="158.5" y1="169" y2="169"/><ellipse cx="25.5" cy="180" fill="#84BE84" rx="3" ry="3" style="stroke:#038048;stroke-width:1.0;"/><text fill="#000000" font-family="sans-serif" font-size="11" lengthAdjust="spacing" textLength="102" x="34.5" y="184.4189">getTripEnergy(trip ID)</text><ellipse cx="25.5" cy="193.8359" fill="#84BE84" rx="3" ry="3" style="stroke:#038048;stroke-width:1.0;"/><text fill="#000000" font-family="sans-serif" font-size="11" lengthAdjust="spacing" textLength="103" x="34.5" y="198.2549">calculateTripEnergy()</text><!--MD5=[25c9184b3670462bf1e9d78536605227]
class DatabaseFunctions--><rect codeLine="12" fill="#FEFECE" filter="url(#f1sj08zjp0g49k)" height="61.8359" id="DatabaseFunctions" style="stroke:#A80036;stroke-width:1.5;" width="160" x="7" y="7"/><ellipse cx="31" cy="23" fill="#ADD1B2" rx="11" ry="11" style="stroke:#A80036;stroke-width:1.0;"/><path d="M33,19.5 Q33.2031,19 33.4375,18.75 Q33.6719,18.5 33.9375,18.5 Q34.4063,18.5 34.7031,18.7813 Q35,19.0625 35,19.7188 L35,21.2813 Q35,21.9375 34.7188,22.2188 Q34.4375,22.5 34,22.5 Q33.6094,22.5 33.3594,22.3281 Q33.1094,22.1563 33,21.7031 Q32.9531,21.3906 32.7813,21.2188 Q32.4688,20.8906 31.9063,20.7031 Q31.3438,20.5 30.7813,20.5 Q30.0781,20.5 29.4844,20.7813 Q28.9063,21.0625 28.4531,21.6875 Q28,22.3125 28,23.1719 L28,24.0938 Q28,25.125 28.8438,25.8125 Q29.6875,26.5 31.1875,26.5 Q32.0781,26.5 32.7031,26.2969 Q33.0625,26.1875 33.4688,25.8281 Q33.7344,25.625 33.875,25.5625 Q34.0156,25.5 34.1875,25.5 Q34.5156,25.5 34.75,25.7656 Q35,26.0156 35,26.375 Q35,26.7188 34.6563,27.125 Q34.1563,27.7188 33.3594,28.0469 Q32.3125,28.5 31.0313,28.5 Q29.5313,28.5 28.3281,27.9063 Q27.3594,27.4375 26.6719,26.4219 Q26,25.4063 26,24.2031 L26,23.1094 Q26,21.8594 26.5938,20.7656 Q27.2031,19.6719 28.25,19.0938 Q29.3125,18.5 30.5,18.5 Q31.2188,18.5 31.8438,18.75 Q32.4688,19 33,19.5 Z " fill="#000000"/><text fill="#000000" font-family="sans-serif" font-size="12" lengthAdjust="spacing" textLength="108" x="47" y="27.9102">DatabaseFunctions</text><line style="stroke:#A80036;stroke-width:1.5;" x1="8" x2="166" y1="39" y2="39"/><line style="stroke:#A80036;stroke-width:1.5;" x1="8" x2="166" y1="47" y2="47"/><ellipse cx="18" cy="58" fill="#84BE84" rx="3" ry="3" style="stroke:#038048;stroke-width:1.0;"/><text fill="#000000" font-family="sans-serif" font-size="11" lengthAdjust="spacing" textLength="134" x="27" y="62.4189">getTripEnergyDetails(trip ID)</text><!--MD5=[ad1665084441c8aa2703d1e7ceefbdb3]
reverse link TripEnergyController to TripEnergyUI--><path codeLine="16" d="M87,210.52 C87,228.36 87,248.68 87,264.93 " fill="none" id="TripEnergyController-backto-TripEnergyUI" style="stroke:#A80036;stroke-width:1.0;stroke-dasharray:7.0,7.0;"/><polygon fill="#A80036" points="87,205.08,83,214.08,87,210.08,91,214.08,87,205.08" style="stroke:#A80036;stroke-width:1.0;"/><!--MD5=[16d4abc3f6995b7e8c0bebc9e1cfa3a3]
reverse link DatabaseFunctions to TripEnergyController--><path codeLine="17" d="M87,74.25 C87,91.24 87,111.62 87,128.86 " fill="none" id="DatabaseFunctions-backto-TripEnergyController" style="stroke:#A80036;stroke-width:1.0;stroke-dasharray:7.0,7.0;"/><polygon fill="#A80036" points="87,69.1,83,78.1,87,74.1,91,78.1,87,69.1" style="stroke:#A80036;stroke-width:1.0;"/><!--MD5=[b6743970197d221ee6fab812874cf80d]
@startuml
'https://plantuml.com/class-diagram

class TripEnergyUI {
- controller
}

class TripEnergyController {
+ getTripEnergy(trip ID)
+ calculateTripEnergy()
}

class DatabaseFunctions {
+ getTripEnergyDetails(trip ID)
}

TripEnergyController <.. TripEnergyUI
DatabaseFunctions <.. TripEnergyController

@enduml

@startuml

class TripEnergyUI {
- controller
}

class TripEnergyController {
+ getTripEnergy(trip ID)
+ calculateTripEnergy()
}

class DatabaseFunctions {
+ getTripEnergyDetails(trip ID)
}

TripEnergyController <.. TripEnergyUI
DatabaseFunctions <.. TripEnergyController

@enduml

PlantUML version 1.2021.00(Sun Jan 10 10:25:05 GMT 2021)
(GPL source distribution)
Java Runtime: OpenJDK Runtime Environment
JVM: OpenJDK 64-Bit Server VM
Default Encoding: Cp1252
Language: en
Country: GB
--></g></svg>