<?xml version="1.0" encoding="UTF-8" standalone="no"?><svg xmlns="http://www.w3.org/2000/svg" xmlns:xlink="http://www.w3.org/1999/xlink" contentScriptType="application/ecmascript" contentStyleType="text/css" height="340px" preserveAspectRatio="none" style="width:166px;height:340px;" version="1.1" viewBox="0 0 166 340" width="166px" zoomAndPan="magnify"><defs><filter height="300%" id="f1uxqprln7g2i0" width="300%" x="-1" y="-1"><feGaussianBlur result="blurOut" stdDeviation="2.0"/><feColorMatrix in="blurOut" result="blurOut2" type="matrix" values="0 0 0 0 0 0 0 0 0 0 0 0 0 0 0 0 0 0 .4 0"/><feOffset dx="4.0" dy="4.0" in="blurOut2" result="blurOut3"/><feBlend in="SourceGraphic" in2="blurOut3" mode="normal"/></filter></defs><g><!--MD5=[3486008d08590c12c7ec6e4e2bdd34b8]
class TripEnergyUI--><rect codeLine="3" fill="#FEFECE" filter="url(#f1uxqprln7g2i0)" height="61.8359" id="TripEnergyUI" style="stroke:#A80036;stroke-width:1.5;" width="103" x="28" y="265"/><ellipse cx="43" cy="281" fill="#ADD1B2" rx="11" ry="11" style="stroke:#A80036;stroke-width:1.0;"/><path d="M45,277.5 Q45.2031,277 45.4375,276.75 Q45.6719,276.5 45.9375,276.5 Q46.4063,276.5 46.7031,276.7813 Q47,277.0625 47,277.7188 L47,279.2813 Q47,279.9375 46.7188,280.2188 Q46.4375,280.5 46,280.5 Q45.6094,280.5 45.3594,280.3281 Q45.1094,280.1563 45,279.7031 Q44.9531,279.3906 44.7813,279.2188 Q44.4688,278.8906 43.9063,278.7031 Q43.3438,278.5 42.7813,278.5 Q42.0781,278.5 41.4844,278.7813 Q40.9063,279.0625 40.4531,279.6875 Q40,280.3125 40,281.1719 L40,282.0938 Q40,283.125 40.8438,283.8125 Q41.6875,284.5 43.1875,284.5 Q44.0781,284.5 44.7031,284.2969 Q45.0625,284.1875 45.4688,283.8281 Q45.7344,283.625 45.875,283.5625 Q46.0156,283.5 46.1875,283.5 Q46.5156,283.5 46.75,283.7656 Q47,284.0156 47,284.375 Q47,284.7188 46.6563,285.125 Q46.1563,285.7188 45.3594,286.0469 Q44.3125,286.5 43.0313,286.5 Q41.5313,286.5 40.3281,285.9063 Q39.3594,285.4375 38.6719,284.4219 Q38,283.4063 38,282.2031 L38,281.1094 Q38,279.8594 38.5938,278.7656 Q39.2031,277.6719 40.25,277.0938 Q41.3125,276.5 42.5,276.5 Q43.2188,276.5 43.8438,276.75 Q44.4688,277 45,277.5 Z " fill="#000000"/><text fill="#000000" font-family="sans-serif" font-size="12" lengthAdjust="spacing" textLength="71" x="57" y="285.9102">TripEnergyUI</text><line style="stroke:#A80036;stroke-width:1.5;" x1="29" x2="130" y1="297" y2="297"/><rect fill="none" height="6" style="stroke:#C82930;stroke-width:1.0;" width="6" x="36" y="305"/><text fill="#000000" font-family="sans-serif" font-size="11" lengthAdjust="spacing" textLength="45" x="48" y="312.4189">controller</text><line style="stroke:#A80036;stroke-width:1.5;" x1="29" x2="130" y1="318.8359" y2="318.8359"/><!--MD5=[27a727c24222a4189eb93b4b062a8cbb]
class TripEnergyController--><rect codeLine="7" fill="#FEFECE" filter="url(#f1uxqprln7g2i0)" height="75.6719" id="TripEnergyController" style="stroke:#A80036;stroke-width:1.5;" width="145" x="7" y="129"/><ellipse cx="22" cy="145" fill="#ADD1B2" rx="11" ry="11" style="stroke:#A80036;stroke-width:1.0;"/><path d="M24,141.5 Q24.2031,141 24.4375,140.75 Q24.6719,140.5 24.9375,140.5 Q25.4063,140.5 25.7031,140.7813 Q26,141.0625 26,141.7188 L26,143.2813 Q26,143.9375 25.7188,144.2188 Q25.4375,144.5 25,144.5 Q24.6094,144.5 24.3594,144.3281 Q24.1094,144.1563 24,143.7031 Q23.9531,143.3906 23.7813,143.2188 Q23.4688,142.8906 22.9063,142.7031 Q22.3438,142.5 21.7813,142.5 Q21.0781,142.5 20.4844,142.7813 Q19.9063,143.0625 19.4531,143.6875 Q19,144.3125 19,145.1719 L19,146.0938 Q19,147.125 19.8438,147.8125 Q20.6875,148.5 22.1875,148.5 Q23.0781,148.5 23.7031,148.2969 Q24.0625,148.1875 24.4688,147.8281 Q24.7344,147.625 24.875,147.5625 Q25.0156,147.5 25.1875,147.5 Q25.5156,147.5 25.75,147.7656 Q26,148.0156 26,148.375 Q26,148.7188 25.6563,149.125 Q25.1563,149.7188 24.3594,150.0469 Q23.3125,150.5 22.0313,150.5 Q20.5313,150.5 19.3281,149.9063 Q18.3594,149.4375 17.6719,148.4219 Q17,147.4063 17,146.2031 L17,145.1094 Q17,143.8594 17.5938,142.7656 Q18.2031,141.6719 19.25,141.0938 Q20.3125,140.5 21.5,140.5 Q22.2188,140.5 22.8438,140.75 Q23.4688,141 24,141.5 Z " fill="#000000"/><text fill="#000000" font-family="sans-serif" font-size="12" lengthAdjust="spacing" textLength="113" x="36" y="149.9102">TripEnergyController</text><line style="stroke:#A80036;stroke-width:1.5;" x1="8" x2="151" y1="161" y2="161"/><rect fill="none" height="6" style="stroke:#C82930;stroke-width:1.0;" width="6" x="15" y="169"/><text fill="#000000" font-family="sans-serif" font-size="11" lengthAdjust="spacing" textLength="54" x="27" y="176.4189">tripStoreDb</text><line style="stroke:#A80036;stroke-width:1.5;" x1="8" x2="151" y1="182.8359" y2="182.8359"/><ellipse cx="18" cy="193.8359" fill="#84BE84" rx="3" ry="3" style="stroke:#038048;stroke-width:1.0;"/><text fill="#000000" font-family="sans-serif" font-size="11" lengthAdjust="spacing" textLength="102" x="27" y="198.2549">getTripEnergy(trip ID)</text><!--MD5=[5e7749ec78bc073f99d535a4a14b9c80]
class TripStoreDb--><rect codeLine="12" fill="#FEFECE" filter="url(#f1uxqprln7g2i0)" height="61.8359" id="TripStoreDb" style="stroke:#A80036;stroke-width:1.5;" width="128" x="15.5" y="7"/><ellipse cx="44" cy="23" fill="#ADD1B2" rx="11" ry="11" style="stroke:#A80036;stroke-width:1.0;"/><path d="M46,19.5 Q46.2031,19 46.4375,18.75 Q46.6719,18.5 46.9375,18.5 Q47.4063,18.5 47.7031,18.7813 Q48,19.0625 48,19.7188 L48,21.2813 Q48,21.9375 47.7188,22.2188 Q47.4375,22.5 47,22.5 Q46.6094,22.5 46.3594,22.3281 Q46.1094,22.1563 46,21.7031 Q45.9531,21.3906 45.7813,21.2188 Q45.4688,20.8906 44.9063,20.7031 Q44.3438,20.5 43.7813,20.5 Q43.0781,20.5 42.4844,20.7813 Q41.9063,21.0625 41.4531,21.6875 Q41,22.3125 41,23.1719 L41,24.0938 Q41,25.125 41.8438,25.8125 Q42.6875,26.5 44.1875,26.5 Q45.0781,26.5 45.7031,26.2969 Q46.0625,26.1875 46.4688,25.8281 Q46.7344,25.625 46.875,25.5625 Q47.0156,25.5 47.1875,25.5 Q47.5156,25.5 47.75,25.7656 Q48,26.0156 48,26.375 Q48,26.7188 47.6563,27.125 Q47.1563,27.7188 46.3594,28.0469 Q45.3125,28.5 44.0313,28.5 Q42.5313,28.5 41.3281,27.9063 Q40.3594,27.4375 39.6719,26.4219 Q39,25.4063 39,24.2031 L39,23.1094 Q39,21.8594 39.5938,20.7656 Q40.2031,19.6719 41.25,19.0938 Q42.3125,18.5 43.5,18.5 Q44.2188,18.5 44.8438,18.75 Q45.4688,19 46,19.5 Z " fill="#000000"/><text fill="#000000" font-family="sans-serif" font-size="12" lengthAdjust="spacing" textLength="66" x="61" y="27.9102">TripStoreDb</text><line style="stroke:#A80036;stroke-width:1.5;" x1="16.5" x2="142.5" y1="39" y2="39"/><line style="stroke:#A80036;stroke-width:1.5;" x1="16.5" x2="142.5" y1="47" y2="47"/><ellipse cx="26.5" cy="58" fill="#84BE84" rx="3" ry="3" style="stroke:#038048;stroke-width:1.0;"/><text fill="#000000" font-family="sans-serif" font-size="11" lengthAdjust="spacing" textLength="102" x="35.5" y="62.4189">getTripEnergy(trip ID)</text><!--MD5=[ad1665084441c8aa2703d1e7ceefbdb3]
reverse link TripEnergyController to TripEnergyUI--><path codeLine="16" d="M79.5,210.52 C79.5,228.36 79.5,248.68 79.5,264.93 " fill="none" id="TripEnergyController-backto-TripEnergyUI" style="stroke:#A80036;stroke-width:1.0;stroke-dasharray:7.0,7.0;"/><polygon fill="#A80036" points="79.5,205.08,75.5,214.08,79.5,210.08,83.5,214.08,79.5,205.08" style="stroke:#A80036;stroke-width:1.0;"/><!--MD5=[dab08c744be8cf3a3d35c962defbff18]
reverse link TripStoreDb to TripEnergyController--><path codeLine="17" d="M79.5,74.25 C79.5,91.24 79.5,111.62 79.5,128.86 " fill="none" id="TripStoreDb-backto-TripEnergyController" style="stroke:#A80036;stroke-width:1.0;stroke-dasharray:7.0,7.0;"/><polygon fill="#A80036" points="79.5,69.1,75.5,78.1,79.5,74.1,83.5,78.1,79.5,69.1" style="stroke:#A80036;stroke-width:1.0;"/><!--MD5=[ee228a44e1acbd2441b96e6b703f88e9]
@startuml
'https://plantuml.com/class-diagram

class TripEnergyUI {
- controller
}

class TripEnergyController {
- tripStoreDb
+ getTripEnergy(trip ID)
}

class TripStoreDb {
+ getTripEnergy(trip ID)
}

TripEnergyController <.. TripEnergyUI
TripStoreDb <.. TripEnergyController

@enduml

@startuml

class TripEnergyUI {
- controller
}

class TripEnergyController {
- tripStoreDb
+ getTripEnergy(trip ID)
}

class TripStoreDb {
+ getTripEnergy(trip ID)
}

TripEnergyController <.. TripEnergyUI
TripStoreDb <.. TripEnergyController

@enduml

PlantUML version 1.2021.00(Sun Jan 10 10:25:05 GMT 2021)
(GPL source distribution)
Java Runtime: OpenJDK Runtime Environment
JVM: OpenJDK 64-Bit Server VM
Default Encoding: Cp1252
Language: en
Country: GB
--></g></svg>