<?xml version="1.0" encoding="UTF-8" standalone="no"?><svg xmlns="http://www.w3.org/2000/svg" xmlns:xlink="http://www.w3.org/1999/xlink" contentScriptType="application/ecmascript" contentStyleType="text/css" height="453px" preserveAspectRatio="none" style="width:153px;height:453px;" version="1.1" viewBox="0 0 153 453" width="153px" zoomAndPan="magnify"><defs><filter height="300%" id="fek9zyh6zc0l3" width="300%" x="-1" y="-1"><feGaussianBlur result="blurOut" stdDeviation="2.0"/><feColorMatrix in="blurOut" result="blurOut2" type="matrix" values="0 0 0 0 0 0 0 0 0 0 0 0 0 0 0 0 0 0 .4 0"/><feOffset dx="4.0" dy="4.0" in="blurOut2" result="blurOut3"/><feBlend in="SourceGraphic" in2="blurOut3" mode="normal"/></filter></defs><g><!--MD5=[0dc7f2ddb409b58bcf52b12238c25399]
class Ship--><rect codeLine="2" fill="#FEFECE" filter="url(#fek9zyh6zc0l3)" height="200.1953" id="Ship" style="stroke:#A80036;stroke-width:1.5;" width="132" x="7" y="7"/><ellipse cx="56.25" cy="23" fill="#ADD1B2" rx="11" ry="11" style="stroke:#A80036;stroke-width:1.0;"/><path d="M54.75,24 L54.75,26 L58.75,26 L58.75,25 L58.75,24.5156 L59.375,24 L59.75,24 L60.125,24 L60.75,24.5156 L60.75,25 L60.75,28 L52.75,28 L52.2656,28 L51.75,27.375 L51.75,27 L51.75,26.625 L52.2656,26 L52.75,26 L52.75,26 L52.75,20 L52.75,20 L52.2656,20 L51.75,19.375 L51.75,19 L51.75,18.625 L52.2656,18 L52.75,18 L60.75,18 L60.75,21 L60.75,21.4844 L60.125,22 L59.75,22 L59.375,22 L58.75,21.4844 L58.75,21 L58.75,20 L54.75,20 L54.75,22 L55.75,22 L55.75,21.5156 L55.75,21.5156 L56.375,21 L56.75,21 L57.125,21 L57.75,21.5156 L57.75,22 L57.75,24 L57.75,24.4844 L57.125,25 L57.125,25 L56.75,25 L56.375,25 L55.75,24.4844 L55.75,24.4844 L55.75,24 L54.75,24 Z " fill="#000000"/><text fill="#000000" font-family="sans-serif" font-size="12" lengthAdjust="spacing" textLength="25" x="76.75" y="27.9102">Ship</text><line style="stroke:#A80036;stroke-width:1.5;" x1="8" x2="138" y1="39" y2="39"/><ellipse cx="18" cy="50" fill="#000000" rx="3" ry="3" style="stroke:#000000;stroke-width:1.0;"/><text fill="#000000" font-family="sans-serif" font-size="11" lengthAdjust="spacing" textLength="46" x="27" y="54.4189">imo_code</text><line style="stroke:#A80036;stroke-width:1.0;" x1="8" x2="138" y1="60.8359" y2="60.8359"/><ellipse cx="18" cy="71.8359" fill="#000000" rx="3" ry="3" style="stroke:#000000;stroke-width:1.0;"/><text fill="#000000" font-family="sans-serif" font-size="11" lengthAdjust="spacing" textLength="54" x="27" y="76.2549">mmsi_code</text><ellipse cx="18" cy="85.6719" fill="#000000" rx="3" ry="3" style="stroke:#000000;stroke-width:1.0;"/><text fill="#000000" font-family="sans-serif" font-size="11" lengthAdjust="spacing" textLength="52" x="27" y="90.0908">name_ship</text><ellipse cx="18" cy="99.5078" fill="#000000" rx="3" ry="3" style="stroke:#000000;stroke-width:1.0;"/><text fill="#000000" font-family="sans-serif" font-size="11" lengthAdjust="spacing" textLength="95" x="27" y="103.9268">number_generators</text><ellipse cx="18" cy="113.3438" fill="#000000" rx="3" ry="3" style="stroke:#000000;stroke-width:1.0;"/><text fill="#000000" font-family="sans-serif" font-size="11" lengthAdjust="spacing" textLength="106" x="27" y="117.7627">power_out_generator</text><ellipse cx="18" cy="127.1797" fill="#000000" rx="3" ry="3" style="stroke:#000000;stroke-width:1.0;"/><text fill="#000000" font-family="sans-serif" font-size="11" lengthAdjust="spacing" textLength="42" x="27" y="131.5986">call_sign</text><ellipse cx="18" cy="141.0156" fill="#000000" rx="3" ry="3" style="stroke:#000000;stroke-width:1.0;"/><text fill="#000000" font-family="sans-serif" font-size="11" lengthAdjust="spacing" textLength="59" x="27" y="145.4346">vessel_type</text><ellipse cx="18" cy="154.8516" fill="#000000" rx="3" ry="3" style="stroke:#000000;stroke-width:1.0;"/><text fill="#000000" font-family="sans-serif" font-size="11" lengthAdjust="spacing" textLength="55" x="27" y="159.2705">length_ship</text><ellipse cx="18" cy="168.6875" fill="#000000" rx="3" ry="3" style="stroke:#000000;stroke-width:1.0;"/><text fill="#000000" font-family="sans-serif" font-size="11" lengthAdjust="spacing" textLength="53" x="27" y="173.1064">width_ship</text><ellipse cx="18" cy="182.5234" fill="#000000" rx="3" ry="3" style="stroke:#000000;stroke-width:1.0;"/><text fill="#000000" font-family="sans-serif" font-size="11" lengthAdjust="spacing" textLength="67" x="27" y="186.9424">capacity_ship</text><ellipse cx="18" cy="196.3594" fill="#000000" rx="3" ry="3" style="stroke:#000000;stroke-width:1.0;"/><text fill="#000000" font-family="sans-serif" font-size="11" lengthAdjust="spacing" textLength="23" x="27" y="200.7783">draft</text><!--MD5=[c0857de9599e12358ac6f6966702e57b]
class Position_Ship--><rect codeLine="17" fill="#FEFECE" filter="url(#fek9zyh6zc0l3)" height="172.5234" id="Position_Ship" style="stroke:#A80036;stroke-width:1.5;" width="113" x="16.5" y="267"/><ellipse cx="33.3" cy="283" fill="#ADD1B2" rx="11" ry="11" style="stroke:#A80036;stroke-width:1.0;"/><path d="M31.8,284 L31.8,286 L35.8,286 L35.8,285 L35.8,284.5156 L36.425,284 L36.8,284 L37.175,284 L37.8,284.5156 L37.8,285 L37.8,288 L29.8,288 L29.3156,288 L28.8,287.375 L28.8,287 L28.8,286.625 L29.3156,286 L29.8,286 L29.8,286 L29.8,280 L29.8,280 L29.3156,280 L28.8,279.375 L28.8,279 L28.8,278.625 L29.3156,278 L29.8,278 L37.8,278 L37.8,281 L37.8,281.4844 L37.175,282 L36.8,282 L36.425,282 L35.8,281.4844 L35.8,281 L35.8,280 L31.8,280 L31.8,282 L32.8,282 L32.8,281.5156 L32.8,281.5156 L33.425,281 L33.8,281 L34.175,281 L34.8,281.5156 L34.8,282 L34.8,284 L34.8,284.4844 L34.175,285 L34.175,285 L33.8,285 L33.425,285 L32.8,284.4844 L32.8,284.4844 L32.8,284 L31.8,284 Z " fill="#000000"/><text fill="#000000" font-family="sans-serif" font-size="12" lengthAdjust="spacing" textLength="77" x="47.7" y="287.9102">Position_Ship</text><line style="stroke:#A80036;stroke-width:1.5;" x1="17.5" x2="128.5" y1="299" y2="299"/><ellipse cx="27.5" cy="310" fill="#000000" rx="3" ry="3" style="stroke:#000000;stroke-width:1.0;"/><text fill="#000000" font-family="sans-serif" font-size="11" lengthAdjust="spacing" textLength="46" x="36.5" y="314.4189">imo_code</text><ellipse cx="27.5" cy="323.8359" fill="#000000" rx="3" ry="3" style="stroke:#000000;stroke-width:1.0;"/><text fill="#000000" font-family="sans-serif" font-size="11" lengthAdjust="spacing" textLength="76" x="36.5" y="328.2549">base_date_time</text><line style="stroke:#A80036;stroke-width:1.0;" x1="17.5" x2="128.5" y1="334.6719" y2="334.6719"/><ellipse cx="27.5" cy="345.6719" fill="#000000" rx="3" ry="3" style="stroke:#000000;stroke-width:1.0;"/><text fill="#000000" font-family="sans-serif" font-size="11" lengthAdjust="spacing" textLength="34" x="36.5" y="350.0908">latitude</text><ellipse cx="27.5" cy="359.5078" fill="#000000" rx="3" ry="3" style="stroke:#000000;stroke-width:1.0;"/><text fill="#000000" font-family="sans-serif" font-size="11" lengthAdjust="spacing" textLength="43" x="36.5" y="363.9268">longitude</text><ellipse cx="27.5" cy="373.3438" fill="#000000" rx="3" ry="3" style="stroke:#000000;stroke-width:1.0;"/><text fill="#000000" font-family="sans-serif" font-size="11" lengthAdjust="spacing" textLength="18" x="36.5" y="377.7627">sog</text><ellipse cx="27.5" cy="387.1797" fill="#000000" rx="3" ry="3" style="stroke:#000000;stroke-width:1.0;"/><text fill="#000000" font-family="sans-serif" font-size="11" lengthAdjust="spacing" textLength="18" x="36.5" y="391.5986">cog</text><ellipse cx="27.5" cy="401.0156" fill="#000000" rx="3" ry="3" style="stroke:#000000;stroke-width:1.0;"/><text fill="#000000" font-family="sans-serif" font-size="11" lengthAdjust="spacing" textLength="38" x="36.5" y="405.4346">heading</text><ellipse cx="27.5" cy="414.8516" fill="#000000" rx="3" ry="3" style="stroke:#000000;stroke-width:1.0;"/><text fill="#000000" font-family="sans-serif" font-size="11" lengthAdjust="spacing" textLength="37" x="36.5" y="419.2705">position</text><ellipse cx="27.5" cy="428.6875" fill="#000000" rx="3" ry="3" style="stroke:#000000;stroke-width:1.0;"/><text fill="#000000" font-family="sans-serif" font-size="11" lengthAdjust="spacing" textLength="87" x="36.5" y="433.1064">transceiver_class</text><!--MD5=[50831477f7bfd7c7a2e1d5eeaa7299a6]
link Ship to Position_Ship--><path codeLine="30" d="M73,214.53 C73,229.49 73,244.77 73,259.46 " fill="none" id="Ship-Position_Ship" style="stroke:#A80036;stroke-width:1.0;"/><line style="stroke:#A80036;stroke-width:1.0;" x1="77" x2="69" y1="262.61" y2="262.61"/><line style="stroke:#A80036;stroke-width:1.0;" x1="77" x2="69" y1="259.61" y2="259.61"/><line style="stroke:#A80036;stroke-width:1.0;" x1="73" x2="73" y1="258.61" y2="266.61"/><line style="stroke:#A80036;stroke-width:1.0;" x1="69" x2="77" y1="211.1" y2="211.1"/><line style="stroke:#A80036;stroke-width:1.0;" x1="69" x2="77" y1="214.1" y2="214.1"/><line style="stroke:#A80036;stroke-width:1.0;" x1="73" x2="73" y1="215.1" y2="207.1"/><!--MD5=[8235ba83beb10505cc36fc013d8bf950]
@startuml

entity Ship {
* imo_code
- -
* mmsi_code
* name_ship
* number_generators
* power_out_generator
* call_sign
* vessel_type
* length_ship
* width_ship
* capacity_ship
* draft
}

entity Position_Ship {
* imo_code
* base_date_time
- -
* latitude
* longitude
* sog
* cog
* heading
* position
* transceiver_class
}

Ship ||- -|| Position_Ship

@enduml

PlantUML version 1.2021.00(Sun Jan 10 10:25:05 GMT 2021)
(GPL source distribution)
Java Runtime: OpenJDK Runtime Environment
JVM: OpenJDK 64-Bit Server VM
Default Encoding: Cp1252
Language: pt
Country: PT
--></g></svg>