<?xml version="1.0" encoding="UTF-8" standalone="no"?><svg xmlns="http://www.w3.org/2000/svg" xmlns:xlink="http://www.w3.org/1999/xlink" contentScriptType="application/ecmascript" contentStyleType="text/css" height="888px" preserveAspectRatio="none" style="width:494px;height:888px;" version="1.1" viewBox="0 0 494 888" width="494px" zoomAndPan="magnify"><defs><filter height="300%" id="fvu8rkisbkwnu" width="300%" x="-1" y="-1"><feGaussianBlur result="blurOut" stdDeviation="2.0"/><feColorMatrix in="blurOut" result="blurOut2" type="matrix" values="0 0 0 0 0 0 0 0 0 0 0 0 0 0 0 0 0 0 .4 0"/><feOffset dx="4.0" dy="4.0" in="blurOut2" result="blurOut3"/><feBlend in="SourceGraphic" in2="blurOut3" mode="normal"/></filter></defs><g><!--MD5=[b6d0c52e77c3f7976dce8e4f35a15e09]
class ShipMovementsUI--><rect codeLine="3" fill="#FEFECE" filter="url(#fvu8rkisbkwnu)" height="75.6719" id="ShipMovementsUI" style="stroke:#A80036;stroke-width:1.5;" width="196" x="188" y="799"/><ellipse cx="231.8" cy="815" fill="#ADD1B2" rx="11" ry="11" style="stroke:#A80036;stroke-width:1.0;"/><path d="M233.8,811.5 Q234.0031,811 234.2375,810.75 Q234.4719,810.5 234.7375,810.5 Q235.2063,810.5 235.5031,810.7813 Q235.8,811.0625 235.8,811.7188 L235.8,813.2813 Q235.8,813.9375 235.5188,814.2188 Q235.2375,814.5 234.8,814.5 Q234.4094,814.5 234.1594,814.3281 Q233.9094,814.1563 233.8,813.7031 Q233.7531,813.3906 233.5813,813.2188 Q233.2688,812.8906 232.7063,812.7031 Q232.1438,812.5 231.5813,812.5 Q230.8781,812.5 230.2844,812.7813 Q229.7063,813.0625 229.2531,813.6875 Q228.8,814.3125 228.8,815.1719 L228.8,816.0938 Q228.8,817.125 229.6438,817.8125 Q230.4875,818.5 231.9875,818.5 Q232.8781,818.5 233.5031,818.2969 Q233.8625,818.1875 234.2688,817.8281 Q234.5344,817.625 234.675,817.5625 Q234.8156,817.5 234.9875,817.5 Q235.3156,817.5 235.55,817.7656 Q235.8,818.0156 235.8,818.375 Q235.8,818.7188 235.4563,819.125 Q234.9563,819.7188 234.1594,820.0469 Q233.1125,820.5 231.8313,820.5 Q230.3313,820.5 229.1281,819.9063 Q228.1594,819.4375 227.4719,818.4219 Q226.8,817.4063 226.8,816.2031 L226.8,815.1094 Q226.8,813.8594 227.3938,812.7656 Q228.0031,811.6719 229.05,811.0938 Q230.1125,810.5 231.3,810.5 Q232.0188,810.5 232.6438,810.75 Q233.2688,811 233.8,811.5 Z " fill="#000000"/><text fill="#000000" font-family="sans-serif" font-size="12" lengthAdjust="spacing" textLength="100" x="252.2" y="819.9102">ShipMovementsUI</text><line style="stroke:#A80036;stroke-width:1.5;" x1="189" x2="383" y1="831" y2="831"/><rect fill="none" height="6" style="stroke:#C82930;stroke-width:1.0;" width="6" x="196" y="839"/><text fill="#000000" font-family="sans-serif" font-size="11" lengthAdjust="spacing" textLength="170" x="208" y="846.4189">ShipMovementsController controller</text><rect fill="none" height="6" style="stroke:#C82930;stroke-width:1.0;" width="6" x="196" y="852.8359"/><text fill="#000000" font-family="sans-serif" font-size="11" lengthAdjust="spacing" textLength="110" x="208" y="860.2549">ShipMovements details</text><line style="stroke:#A80036;stroke-width:1.5;" x1="189" x2="383" y1="866.6719" y2="866.6719"/><!--MD5=[f18acb00d883d04e547ec44551f3f313]
class ShipMovementsController--><rect codeLine="8" fill="#FEFECE" filter="url(#fvu8rkisbkwnu)" height="75.6719" id="ShipMovementsController" style="stroke:#A80036;stroke-width:1.5;" width="232" x="86" y="663"/><ellipse cx="127.1" cy="679" fill="#ADD1B2" rx="11" ry="11" style="stroke:#A80036;stroke-width:1.0;"/><path d="M129.1,675.5 Q129.3031,675 129.5375,674.75 Q129.7719,674.5 130.0375,674.5 Q130.5063,674.5 130.8031,674.7813 Q131.1,675.0625 131.1,675.7188 L131.1,677.2813 Q131.1,677.9375 130.8188,678.2188 Q130.5375,678.5 130.1,678.5 Q129.7094,678.5 129.4594,678.3281 Q129.2094,678.1563 129.1,677.7031 Q129.0531,677.3906 128.8813,677.2188 Q128.5688,676.8906 128.0063,676.7031 Q127.4438,676.5 126.8813,676.5 Q126.1781,676.5 125.5844,676.7813 Q125.0063,677.0625 124.5531,677.6875 Q124.1,678.3125 124.1,679.1719 L124.1,680.0938 Q124.1,681.125 124.9438,681.8125 Q125.7875,682.5 127.2875,682.5 Q128.1781,682.5 128.8031,682.2969 Q129.1625,682.1875 129.5688,681.8281 Q129.8344,681.625 129.975,681.5625 Q130.1156,681.5 130.2875,681.5 Q130.6156,681.5 130.85,681.7656 Q131.1,682.0156 131.1,682.375 Q131.1,682.7188 130.7563,683.125 Q130.2563,683.7188 129.4594,684.0469 Q128.4125,684.5 127.1313,684.5 Q125.6313,684.5 124.4281,683.9063 Q123.4594,683.4375 122.7719,682.4219 Q122.1,681.4063 122.1,680.2031 L122.1,679.1094 Q122.1,677.8594 122.6938,676.7656 Q123.3031,675.6719 124.35,675.0938 Q125.4125,674.5 126.6,674.5 Q127.3188,674.5 127.9438,674.75 Q128.5688,675 129.1,675.5 Z " fill="#000000"/><text fill="#000000" font-family="sans-serif" font-size="12" lengthAdjust="spacing" textLength="142" x="146.9" y="683.9102">ShipMovementsController</text><line style="stroke:#A80036;stroke-width:1.5;" x1="87" x2="317" y1="695" y2="695"/><rect fill="none" height="6" style="stroke:#C82930;stroke-width:1.0;" width="6" x="94" y="703"/><text fill="#000000" font-family="sans-serif" font-size="11" lengthAdjust="spacing" textLength="158" x="106" y="710.4189">ShipPositionBST shipPositionBST</text><rect fill="none" height="6" style="stroke:#C82930;stroke-width:1.0;" width="6" x="94" y="716.8359"/><text fill="#000000" font-family="sans-serif" font-size="11" lengthAdjust="spacing" textLength="206" x="106" y="724.2549">SearchShipController searchShipController</text><line style="stroke:#A80036;stroke-width:1.5;" x1="87" x2="317" y1="730.6719" y2="730.6719"/><!--MD5=[e6f2cb470f06694f6a02b571e2ffcbb5]
class SearchShipController--><rect codeLine="13" fill="#FEFECE" filter="url(#fvu8rkisbkwnu)" height="75.6719" id="SearchShipController" style="stroke:#A80036;stroke-width:1.5;" width="150" x="7" y="527"/><ellipse cx="22" cy="543" fill="#ADD1B2" rx="11" ry="11" style="stroke:#A80036;stroke-width:1.0;"/><path d="M24,539.5 Q24.2031,539 24.4375,538.75 Q24.6719,538.5 24.9375,538.5 Q25.4063,538.5 25.7031,538.7813 Q26,539.0625 26,539.7188 L26,541.2813 Q26,541.9375 25.7188,542.2188 Q25.4375,542.5 25,542.5 Q24.6094,542.5 24.3594,542.3281 Q24.1094,542.1563 24,541.7031 Q23.9531,541.3906 23.7813,541.2188 Q23.4688,540.8906 22.9063,540.7031 Q22.3438,540.5 21.7813,540.5 Q21.0781,540.5 20.4844,540.7813 Q19.9063,541.0625 19.4531,541.6875 Q19,542.3125 19,543.1719 L19,544.0938 Q19,545.125 19.8438,545.8125 Q20.6875,546.5 22.1875,546.5 Q23.0781,546.5 23.7031,546.2969 Q24.0625,546.1875 24.4688,545.8281 Q24.7344,545.625 24.875,545.5625 Q25.0156,545.5 25.1875,545.5 Q25.5156,545.5 25.75,545.7656 Q26,546.0156 26,546.375 Q26,546.7188 25.6563,547.125 Q25.1563,547.7188 24.3594,548.0469 Q23.3125,548.5 22.0313,548.5 Q20.5313,548.5 19.3281,547.9063 Q18.3594,547.4375 17.6719,546.4219 Q17,545.4063 17,544.2031 L17,543.1094 Q17,541.8594 17.5938,540.7656 Q18.2031,539.6719 19.25,539.0938 Q20.3125,538.5 21.5,538.5 Q22.2188,538.5 22.8438,538.75 Q23.4688,539 24,539.5 Z " fill="#000000"/><text fill="#000000" font-family="sans-serif" font-size="12" lengthAdjust="spacing" textLength="118" x="36" y="547.9102">SearchShipController</text><line style="stroke:#A80036;stroke-width:1.5;" x1="8" x2="156" y1="559" y2="559"/><rect fill="none" height="6" style="stroke:#C82930;stroke-width:1.0;" width="6" x="15" y="567"/><text fill="#000000" font-family="sans-serif" font-size="11" lengthAdjust="spacing" textLength="84" x="27" y="574.4189">ShipBST shipBST</text><line style="stroke:#A80036;stroke-width:1.5;" x1="8" x2="156" y1="580.8359" y2="580.8359"/><ellipse cx="18" cy="591.8359" fill="#84BE84" rx="3" ry="3" style="stroke:#038048;stroke-width:1.0;"/><text fill="#000000" font-family="sans-serif" font-size="11" lengthAdjust="spacing" textLength="71" x="27" y="596.2549">findShip(code)</text><!--MD5=[e69d6fe1312529448929093d2b2c45ce]
class ShipMovements--><rect codeLine="18" fill="#FEFECE" filter="url(#fvu8rkisbkwnu)" height="352.3906" id="ShipMovements" style="stroke:#A80036;stroke-width:1.5;" width="334" x="146" y="7"/><ellipse cx="264.75" cy="23" fill="#ADD1B2" rx="11" ry="11" style="stroke:#A80036;stroke-width:1.0;"/><path d="M266.75,19.5 Q266.9531,19 267.1875,18.75 Q267.4219,18.5 267.6875,18.5 Q268.1563,18.5 268.4531,18.7813 Q268.75,19.0625 268.75,19.7188 L268.75,21.2813 Q268.75,21.9375 268.4688,22.2188 Q268.1875,22.5 267.75,22.5 Q267.3594,22.5 267.1094,22.3281 Q266.8594,22.1563 266.75,21.7031 Q266.7031,21.3906 266.5313,21.2188 Q266.2188,20.8906 265.6563,20.7031 Q265.0938,20.5 264.5313,20.5 Q263.8281,20.5 263.2344,20.7813 Q262.6563,21.0625 262.2031,21.6875 Q261.75,22.3125 261.75,23.1719 L261.75,24.0938 Q261.75,25.125 262.5938,25.8125 Q263.4375,26.5 264.9375,26.5 Q265.8281,26.5 266.4531,26.2969 Q266.8125,26.1875 267.2188,25.8281 Q267.4844,25.625 267.625,25.5625 Q267.7656,25.5 267.9375,25.5 Q268.2656,25.5 268.5,25.7656 Q268.75,26.0156 268.75,26.375 Q268.75,26.7188 268.4063,27.125 Q267.9063,27.7188 267.1094,28.0469 Q266.0625,28.5 264.7813,28.5 Q263.2813,28.5 262.0781,27.9063 Q261.1094,27.4375 260.4219,26.4219 Q259.75,25.4063 259.75,24.2031 L259.75,23.1094 Q259.75,21.8594 260.3438,20.7656 Q260.9531,19.6719 262,19.0938 Q263.0625,18.5 264.25,18.5 Q264.9688,18.5 265.5938,18.75 Q266.2188,19 266.75,19.5 Z " fill="#000000"/><text fill="#000000" font-family="sans-serif" font-size="12" lengthAdjust="spacing" textLength="88" x="285.25" y="27.9102">ShipMovements</text><line style="stroke:#A80036;stroke-width:1.5;" x1="147" x2="479" y1="39" y2="39"/><rect fill="none" height="6" style="stroke:#C82930;stroke-width:1.0;" width="6" x="154" y="47"/><text fill="#000000" font-family="sans-serif" font-size="11" lengthAdjust="spacing" textLength="76" x="166" y="54.4189">String shipCode</text><rect fill="none" height="6" style="stroke:#C82930;stroke-width:1.0;" width="6" x="154" y="60.8359"/><text fill="#000000" font-family="sans-serif" font-size="11" lengthAdjust="spacing" textLength="78" x="166" y="68.2549">String shipName</text><rect fill="none" height="6" style="stroke:#C82930;stroke-width:1.0;" width="6" x="154" y="74.6719"/><text fill="#000000" font-family="sans-serif" font-size="11" lengthAdjust="spacing" textLength="164" x="166" y="82.0908">LocalDateTime startBaseDateTime</text><rect fill="none" height="6" style="stroke:#C82930;stroke-width:1.0;" width="6" x="154" y="88.5078"/><text fill="#000000" font-family="sans-serif" font-size="11" lengthAdjust="spacing" textLength="160" x="166" y="95.9268">LocalDateTime endBaseDateTime</text><rect fill="none" height="6" style="stroke:#C82930;stroke-width:1.0;" width="6" x="154" y="102.3438"/><text fill="#000000" font-family="sans-serif" font-size="11" lengthAdjust="spacing" textLength="116" x="166" y="109.7627">Time totalMovementTime</text><rect fill="none" height="6" style="stroke:#C82930;stroke-width:1.0;" width="6" x="154" y="116.1797"/><text fill="#000000" font-family="sans-serif" font-size="11" lengthAdjust="spacing" textLength="148" x="166" y="123.5986">Integer totalNumberMovements</text><rect fill="none" height="6" style="stroke:#C82930;stroke-width:1.0;" width="6" x="154" y="130.0156"/><text fill="#000000" font-family="sans-serif" font-size="11" lengthAdjust="spacing" textLength="79" x="166" y="137.4346">Double maxSOG</text><rect fill="none" height="6" style="stroke:#C82930;stroke-width:1.0;" width="6" x="154" y="143.8516"/><text fill="#000000" font-family="sans-serif" font-size="11" lengthAdjust="spacing" textLength="85" x="166" y="151.2705">Double meanSOG</text><rect fill="none" height="6" style="stroke:#C82930;stroke-width:1.0;" width="6" x="154" y="157.6875"/><text fill="#000000" font-family="sans-serif" font-size="11" lengthAdjust="spacing" textLength="79" x="166" y="165.1064">Double maxCOG</text><rect fill="none" height="6" style="stroke:#C82930;stroke-width:1.0;" width="6" x="154" y="171.5234"/><text fill="#000000" font-family="sans-serif" font-size="11" lengthAdjust="spacing" textLength="85" x="166" y="178.9424">Double meanCOG</text><rect fill="none" height="6" style="stroke:#C82930;stroke-width:1.0;" width="6" x="154" y="185.3594"/><text fill="#000000" font-family="sans-serif" font-size="11" lengthAdjust="spacing" textLength="121" x="166" y="192.7783">Double departureLatitude</text><rect fill="none" height="6" style="stroke:#C82930;stroke-width:1.0;" width="6" x="154" y="199.1953"/><text fill="#000000" font-family="sans-serif" font-size="11" lengthAdjust="spacing" textLength="130" x="166" y="206.6143">Double departureLongitude</text><rect fill="none" height="6" style="stroke:#C82930;stroke-width:1.0;" width="6" x="154" y="213.0313"/><text fill="#000000" font-family="sans-serif" font-size="11" lengthAdjust="spacing" textLength="104" x="166" y="220.4502">Double arrivalLatitude</text><rect fill="none" height="6" style="stroke:#C82930;stroke-width:1.0;" width="6" x="154" y="226.8672"/><text fill="#000000" font-family="sans-serif" font-size="11" lengthAdjust="spacing" textLength="113" x="166" y="234.2861">Double arrivalLongitude</text><rect fill="none" height="6" style="stroke:#C82930;stroke-width:1.0;" width="6" x="154" y="240.7031"/><text fill="#000000" font-family="sans-serif" font-size="11" lengthAdjust="spacing" textLength="119" x="166" y="248.1221">Double travelledDistance</text><rect fill="none" height="6" style="stroke:#C82930;stroke-width:1.0;" width="6" x="154" y="254.5391"/><text fill="#000000" font-family="sans-serif" font-size="11" lengthAdjust="spacing" textLength="101" x="166" y="261.958">Double deltaDistance</text><line style="stroke:#A80036;stroke-width:1.5;" x1="147" x2="479" y1="268.375" y2="268.375"/><ellipse cx="157" cy="279.375" fill="#84BE84" rx="3" ry="3" style="stroke:#038048;stroke-width:1.0;"/><text fill="#000000" font-family="sans-serif" font-size="11" lengthAdjust="spacing" textLength="278" x="166" y="283.7939">ShipMovements(shipCode, shipName, startBaseDateTime,</text><text fill="#000000" font-family="sans-serif" font-size="11" lengthAdjust="spacing" textLength="305" x="166" y="297.6299">endBaseDateTime, totalMovementTime, totalNumberMovements,</text><text fill="#000000" font-family="sans-serif" font-size="11" lengthAdjust="spacing" textLength="296" x="166" y="311.4658">maxSOG, meanSOG, maxCOG, meanCOG, departureLatitude,</text><text fill="#000000" font-family="sans-serif" font-size="11" lengthAdjust="spacing" textLength="254" x="166" y="325.3018">departureLongitude, arrivalLatitude, arrivalLongitude,</text><text fill="#000000" font-family="sans-serif" font-size="11" lengthAdjust="spacing" textLength="158" x="166" y="339.1377">travelledDistance, deltaDistance)</text><ellipse cx="157" cy="348.5547" fill="#84BE84" rx="3" ry="3" style="stroke:#038048;stroke-width:1.0;"/><text fill="#000000" font-family="sans-serif" font-size="11" lengthAdjust="spacing" textLength="45" x="166" y="352.9736">toString()</text><!--MD5=[e20f0e393e33b6317137adc5adb8f6b1]
class ShipPositionBST--><rect codeLine="39" fill="#FEFECE" filter="url(#fvu8rkisbkwnu)" height="48" id="ShipPositionBST" style="stroke:#A80036;stroke-width:1.5;" width="125" x="192.5" y="541"/><ellipse cx="207.5" cy="557" fill="#ADD1B2" rx="11" ry="11" style="stroke:#A80036;stroke-width:1.0;"/><path d="M209.5,553.5 Q209.7031,553 209.9375,552.75 Q210.1719,552.5 210.4375,552.5 Q210.9063,552.5 211.2031,552.7813 Q211.5,553.0625 211.5,553.7188 L211.5,555.2813 Q211.5,555.9375 211.2188,556.2188 Q210.9375,556.5 210.5,556.5 Q210.1094,556.5 209.8594,556.3281 Q209.6094,556.1563 209.5,555.7031 Q209.4531,555.3906 209.2813,555.2188 Q208.9688,554.8906 208.4063,554.7031 Q207.8438,554.5 207.2813,554.5 Q206.5781,554.5 205.9844,554.7813 Q205.4063,555.0625 204.9531,555.6875 Q204.5,556.3125 204.5,557.1719 L204.5,558.0938 Q204.5,559.125 205.3438,559.8125 Q206.1875,560.5 207.6875,560.5 Q208.5781,560.5 209.2031,560.2969 Q209.5625,560.1875 209.9688,559.8281 Q210.2344,559.625 210.375,559.5625 Q210.5156,559.5 210.6875,559.5 Q211.0156,559.5 211.25,559.7656 Q211.5,560.0156 211.5,560.375 Q211.5,560.7188 211.1563,561.125 Q210.6563,561.7188 209.8594,562.0469 Q208.8125,562.5 207.5313,562.5 Q206.0313,562.5 204.8281,561.9063 Q203.8594,561.4375 203.1719,560.4219 Q202.5,559.4063 202.5,558.2031 L202.5,557.1094 Q202.5,555.8594 203.0938,554.7656 Q203.7031,553.6719 204.75,553.0938 Q205.8125,552.5 207,552.5 Q207.7188,552.5 208.3438,552.75 Q208.9688,553 209.5,553.5 Z " fill="#000000"/><text fill="#000000" font-family="sans-serif" font-size="12" lengthAdjust="spacing" textLength="93" x="221.5" y="561.9102">ShipPositionBST</text><line style="stroke:#A80036;stroke-width:1.5;" x1="193.5" x2="316.5" y1="573" y2="573"/><line style="stroke:#A80036;stroke-width:1.5;" x1="193.5" x2="316.5" y1="581" y2="581"/><!--MD5=[1c0c3765e68dc4575d559b566278b914]
class ShipPosition--><rect codeLine="41" fill="#FEFECE" filter="url(#fvu8rkisbkwnu)" height="48" id="ShipPosition" style="stroke:#A80036;stroke-width:1.5;" width="102" x="210" y="419"/><ellipse cx="225" cy="435" fill="#ADD1B2" rx="11" ry="11" style="stroke:#A80036;stroke-width:1.0;"/><path d="M227,431.5 Q227.2031,431 227.4375,430.75 Q227.6719,430.5 227.9375,430.5 Q228.4063,430.5 228.7031,430.7813 Q229,431.0625 229,431.7188 L229,433.2813 Q229,433.9375 228.7188,434.2188 Q228.4375,434.5 228,434.5 Q227.6094,434.5 227.3594,434.3281 Q227.1094,434.1563 227,433.7031 Q226.9531,433.3906 226.7813,433.2188 Q226.4688,432.8906 225.9063,432.7031 Q225.3438,432.5 224.7813,432.5 Q224.0781,432.5 223.4844,432.7813 Q222.9063,433.0625 222.4531,433.6875 Q222,434.3125 222,435.1719 L222,436.0938 Q222,437.125 222.8438,437.8125 Q223.6875,438.5 225.1875,438.5 Q226.0781,438.5 226.7031,438.2969 Q227.0625,438.1875 227.4688,437.8281 Q227.7344,437.625 227.875,437.5625 Q228.0156,437.5 228.1875,437.5 Q228.5156,437.5 228.75,437.7656 Q229,438.0156 229,438.375 Q229,438.7188 228.6563,439.125 Q228.1563,439.7188 227.3594,440.0469 Q226.3125,440.5 225.0313,440.5 Q223.5313,440.5 222.3281,439.9063 Q221.3594,439.4375 220.6719,438.4219 Q220,437.4063 220,436.2031 L220,435.1094 Q220,433.8594 220.5938,432.7656 Q221.2031,431.6719 222.25,431.0938 Q223.3125,430.5 224.5,430.5 Q225.2188,430.5 225.8438,430.75 Q226.4688,431 227,431.5 Z " fill="#000000"/><text fill="#000000" font-family="sans-serif" font-size="12" lengthAdjust="spacing" textLength="70" x="239" y="439.9102">ShipPosition</text><line style="stroke:#A80036;stroke-width:1.5;" x1="211" x2="311" y1="451" y2="451"/><line style="stroke:#A80036;stroke-width:1.5;" x1="211" x2="311" y1="459" y2="459"/><!--MD5=[a5b8fef5a27a3de80e0be3834823ca4b]
reverse link ShipMovementsController to ShipMovementsUI--><path codeLine="43" d="M228.17,743.75 C239.23,761.39 252,781.77 262.73,798.87 " fill="none" id="ShipMovementsController-backto-ShipMovementsUI" style="stroke:#A80036;stroke-width:1.0;stroke-dasharray:7.0,7.0;"/><polygon fill="#A80036" points="225.4,739.33,226.7868,749.0807,228.0538,743.5676,233.567,744.8346,225.4,739.33" style="stroke:#A80036;stroke-width:1.0;"/><!--MD5=[5247ca6476a6c08bca81328ab14d63dc]
reverse link SearchShipController to ShipMovementsController--><path codeLine="44" d="M118.99,607.3 C134.87,625.04 153.3,645.62 168.75,662.87 " fill="none" id="SearchShipController-backto-ShipMovementsController" style="stroke:#A80036;stroke-width:1.0;stroke-dasharray:7.0,7.0;"/><polygon fill="#A80036" points="115.43,603.33,118.4596,612.7013,118.7677,607.0528,124.4162,607.3609,115.43,603.33" style="stroke:#A80036;stroke-width:1.0;"/><!--MD5=[af9120c38b07e4556d65a4642e83cc1e]
reverse link ShipPositionBST to ShipMovementsController--><path codeLine="45" d="M244.04,593.7 C236.13,613.72 225.35,640.97 216.69,662.87 " fill="none" id="ShipPositionBST-backto-ShipMovementsController" style="stroke:#A80036;stroke-width:1.0;stroke-dasharray:7.0,7.0;"/><polygon fill="#A80036" points="245.89,589.04,238.8591,595.9368,244.0503,593.6892,246.2979,598.8804,245.89,589.04" style="stroke:#A80036;stroke-width:1.0;"/><!--MD5=[bb6d2402499ef822123f543344b34427]
reverse link ShipPosition to ShipPositionBST--><path codeLine="46" d="M259.59,472.29 C258.54,493.22 257.13,521.37 256.15,540.93 " fill="none" id="ShipPosition-backto-ShipPositionBST" style="stroke:#A80036;stroke-width:1.0;"/><polygon fill="#A80036" points="259.84,467.14,255.3817,475.922,259.5825,472.1334,263.3711,476.3341,259.84,467.14" style="stroke:#A80036;stroke-width:1.0;"/><!--MD5=[776aaad076abadc535efa4f939152618]
reverse link ShipMovements to ShipPosition--><path codeLine="47" d="M276.68,364.22 C272.35,385.7 268.47,404.92 265.66,418.89 " fill="none" id="ShipMovements-backto-ShipPosition" style="stroke:#A80036;stroke-width:1.0;"/><polygon fill="#A80036" points="277.67,359.3,271.9781,367.3376,276.6867,364.2024,279.8219,368.9109,277.67,359.3" style="stroke:#A80036;stroke-width:1.0;"/><!--MD5=[9455e857914ba29a67e7e5eafbea2e1a]
reverse link ShipMovements to ShipMovementsUI--><path codeLine="48" d="M344.61,364.36 C357.85,474.1 364.23,616.3 335,739 C330.02,759.92 319.75,781.45 309.9,798.89 " fill="none" id="ShipMovements-backto-ShipMovementsUI" style="stroke:#A80036;stroke-width:1.0;stroke-dasharray:7.0,7.0;"/><polygon fill="#A80036" points="343.98,359.16,341.0904,368.5754,344.5808,364.1238,349.0325,367.6141,343.98,359.16" style="stroke:#A80036;stroke-width:1.0;"/><!--MD5=[2e96b6fd0663f6d02b50ce4c197eefed]
@startuml
'https://plantuml.com/class-diagram

class ShipMovementsUI {
- ShipMovementsController controller
- ShipMovements details
}

class ShipMovementsController {
- ShipPositionBST shipPositionBST
- SearchShipController searchShipController
}

class SearchShipController {
- ShipBST shipBST
+ findShip(code)
}

class ShipMovements {
- String shipCode
- String shipName
- LocalDateTime startBaseDateTime
- LocalDateTime endBaseDateTime
- Time totalMovementTime
- Integer totalNumberMovements
- Double maxSOG
- Double meanSOG
- Double maxCOG
- Double meanCOG
- Double departureLatitude
- Double departureLongitude
- Double arrivalLatitude
- Double arrivalLongitude
- Double travelledDistance
- Double deltaDistance
+ ShipMovements(shipCode, shipName, startBaseDateTime, \nendBaseDateTime, totalMovementTime, totalNumberMovements, \nmaxSOG, meanSOG, maxCOG, meanCOG, departureLatitude, \ndepartureLongitude, arrivalLatitude, arrivalLongitude, \ntravelledDistance, deltaDistance)
+ toString()
}

class ShipPositionBST

class ShipPosition

ShipMovementsController <.. ShipMovementsUI
SearchShipController <.. ShipMovementsController
ShipPositionBST <.. ShipMovementsController
ShipPosition <- - ShipPositionBST
ShipMovements <- - ShipPosition
ShipMovements <.. ShipMovementsUI
@enduml

@startuml

class ShipMovementsUI {
- ShipMovementsController controller
- ShipMovements details
}

class ShipMovementsController {
- ShipPositionBST shipPositionBST
- SearchShipController searchShipController
}

class SearchShipController {
- ShipBST shipBST
+ findShip(code)
}

class ShipMovements {
- String shipCode
- String shipName
- LocalDateTime startBaseDateTime
- LocalDateTime endBaseDateTime
- Time totalMovementTime
- Integer totalNumberMovements
- Double maxSOG
- Double meanSOG
- Double maxCOG
- Double meanCOG
- Double departureLatitude
- Double departureLongitude
- Double arrivalLatitude
- Double arrivalLongitude
- Double travelledDistance
- Double deltaDistance
+ ShipMovements(shipCode, shipName, startBaseDateTime, \nendBaseDateTime, totalMovementTime, totalNumberMovements, \nmaxSOG, meanSOG, maxCOG, meanCOG, departureLatitude, \ndepartureLongitude, arrivalLatitude, arrivalLongitude, \ntravelledDistance, deltaDistance)
+ toString()
}

class ShipPositionBST

class ShipPosition

ShipMovementsController <.. ShipMovementsUI
SearchShipController <.. ShipMovementsController
ShipPositionBST <.. ShipMovementsController
ShipPosition <- - ShipPositionBST
ShipMovements <- - ShipPosition
ShipMovements <.. ShipMovementsUI
@enduml

PlantUML version 1.2021.00(Sun Jan 10 10:25:05 GMT 2021)
(GPL source distribution)
Java Runtime: OpenJDK Runtime Environment
JVM: OpenJDK 64-Bit Server VM
Default Encoding: Cp1252
Language: pt
Country: PT
--></g></svg>