<?xml version="1.0" encoding="UTF-8" standalone="no"?><svg xmlns="http://www.w3.org/2000/svg" xmlns:xlink="http://www.w3.org/1999/xlink" contentScriptType="application/ecmascript" contentStyleType="text/css" height="1105px" preserveAspectRatio="none" style="width:1235px;height:1105px;" version="1.1" viewBox="0 0 1235 1105" width="1235px" zoomAndPan="magnify"><defs><filter height="300%" id="f1fu0j7sv4bhv1" width="300%" x="-1" y="-1"><feGaussianBlur result="blurOut" stdDeviation="2.0"/><feColorMatrix in="blurOut" result="blurOut2" type="matrix" values="0 0 0 0 0 0 0 0 0 0 0 0 0 0 0 0 0 0 .4 0"/><feOffset dx="4.0" dy="4.0" in="blurOut2" result="blurOut3"/><feBlend in="SourceGraphic" in2="blurOut3" mode="normal"/></filter></defs><g><rect fill="#FFFFFF" filter="url(#f1fu0j7sv4bhv1)" height="902.4375" style="stroke:#A80036;stroke-width:1.0;" width="10" x="53" y="99.6094"/><rect fill="#FFFFFF" filter="url(#f1fu0j7sv4bhv1)" height="30.3516" style="stroke:#A80036;stroke-width:1.0;" width="10" x="234" y="121.9609"/><rect fill="#FFFFFF" filter="url(#f1fu0j7sv4bhv1)" height="819.3828" style="stroke:#A80036;stroke-width:1.0;" width="10" x="234" y="182.6641"/><rect fill="#FFFFFF" filter="url(#f1fu0j7sv4bhv1)" height="758.6797" style="stroke:#A80036;stroke-width:1.0;" width="10" x="440" y="213.0156"/><rect fill="#FFFFFF" filter="url(#f1fu0j7sv4bhv1)" height="30" style="stroke:#A80036;stroke-width:1.0;" width="10" x="646" y="243.3672"/><rect fill="#FFFFFF" filter="url(#f1fu0j7sv4bhv1)" height="602.625" style="stroke:#A80036;stroke-width:1.0;" width="10" x="798" y="369.0703"/><rect fill="#FFFFFF" filter="url(#f1fu0j7sv4bhv1)" height="60.7031" style="stroke:#A80036;stroke-width:1.0;" width="10" x="1170" y="442.7734"/><rect fill="#FFFFFF" filter="url(#f1fu0j7sv4bhv1)" height="60.7031" style="stroke:#A80036;stroke-width:1.0;" width="10" x="1170" y="577.1797"/><line style="stroke:#A80036;stroke-width:1.0;stroke-dasharray:5.0,5.0;" x1="58" x2="58" y1="89.6094" y2="1020.0469"/><line style="stroke:#A80036;stroke-width:1.0;stroke-dasharray:5.0,5.0;" x1="239" x2="239" y1="89.6094" y2="1020.0469"/><line style="stroke:#A80036;stroke-width:1.0;stroke-dasharray:5.0,5.0;" x1="445" x2="445" y1="89.6094" y2="1020.0469"/><line style="stroke:#A80036;stroke-width:1.0;stroke-dasharray:5.0,5.0;" x1="650.5" x2="650.5" y1="89.6094" y2="1020.0469"/><line style="stroke:#A80036;stroke-width:1.0;stroke-dasharray:5.0,5.0;" x1="802.5" x2="802.5" y1="89.6094" y2="1020.0469"/><line style="stroke:#A80036;stroke-width:1.0;stroke-dasharray:5.0,5.0;" x1="1175" x2="1175" y1="89.6094" y2="1020.0469"/><text fill="#000000" font-family="sans-serif" font-size="14" lengthAdjust="spacing" textLength="100" x="5" y="86.5332">Traffic Manager</text><ellipse cx="58" cy="15" fill="#FEFECE" filter="url(#f1fu0j7sv4bhv1)" rx="8" ry="8" style="stroke:#A80036;stroke-width:2.0;"/><path d="M58,23 L58,50 M45,31 L71,31 M58,50 L45,65 M58,50 L71,65 " fill="none" filter="url(#f1fu0j7sv4bhv1)" style="stroke:#A80036;stroke-width:2.0;"/><text fill="#000000" font-family="sans-serif" font-size="14" lengthAdjust="spacing" textLength="100" x="5" y="1033.5801">Traffic Manager</text><ellipse cx="58" cy="1046.6563" fill="#FEFECE" filter="url(#f1fu0j7sv4bhv1)" rx="8" ry="8" style="stroke:#A80036;stroke-width:2.0;"/><path d="M58,1054.6563 L58,1081.6563 M45,1062.6563 L71,1062.6563 M58,1081.6563 L45,1096.6563 M58,1081.6563 L71,1096.6563 " fill="none" filter="url(#f1fu0j7sv4bhv1)" style="stroke:#A80036;stroke-width:2.0;"/><rect fill="#FEFECE" filter="url(#f1fu0j7sv4bhv1)" height="31.6094" style="stroke:#A80036;stroke-width:1.5;" width="130" x="172" y="53"/><text fill="#000000" font-family="sans-serif" font-size="14" lengthAdjust="spacing" textLength="116" x="179" y="74.5332">:ShipMovementsUI</text><rect fill="#FEFECE" filter="url(#f1fu0j7sv4bhv1)" height="31.6094" style="stroke:#A80036;stroke-width:1.5;" width="130" x="172" y="1019.0469"/><text fill="#000000" font-family="sans-serif" font-size="14" lengthAdjust="spacing" textLength="116" x="179" y="1040.5801">:ShipMovementsUI</text><rect fill="#FEFECE" filter="url(#f1fu0j7sv4bhv1)" height="31.6094" style="stroke:#A80036;stroke-width:1.5;" width="180" x="353" y="53"/><text fill="#000000" font-family="sans-serif" font-size="14" lengthAdjust="spacing" textLength="166" x="360" y="74.5332">:ShipMovementsController</text><rect fill="#FEFECE" filter="url(#f1fu0j7sv4bhv1)" height="31.6094" style="stroke:#A80036;stroke-width:1.5;" width="180" x="353" y="1019.0469"/><text fill="#000000" font-family="sans-serif" font-size="14" lengthAdjust="spacing" textLength="166" x="360" y="1040.5801">:ShipMovementsController</text><rect fill="#FEFECE" filter="url(#f1fu0j7sv4bhv1)" height="31.6094" style="stroke:#A80036;stroke-width:1.5;" width="153" x="572.5" y="53"/><text fill="#000000" font-family="sans-serif" font-size="14" lengthAdjust="spacing" textLength="139" x="579.5" y="74.5332">:SearchShipController</text><rect fill="#FEFECE" filter="url(#f1fu0j7sv4bhv1)" height="31.6094" style="stroke:#A80036;stroke-width:1.5;" width="153" x="572.5" y="1019.0469"/><text fill="#000000" font-family="sans-serif" font-size="14" lengthAdjust="spacing" textLength="139" x="579.5" y="1040.5801">:SearchShipController</text><rect fill="#FEFECE" filter="url(#f1fu0j7sv4bhv1)" height="31.6094" style="stroke:#A80036;stroke-width:1.5;" width="123" x="739.5" y="53"/><text fill="#000000" font-family="sans-serif" font-size="14" lengthAdjust="spacing" textLength="109" x="746.5" y="74.5332">:ShipPositionBST</text><rect fill="#FEFECE" filter="url(#f1fu0j7sv4bhv1)" height="31.6094" style="stroke:#A80036;stroke-width:1.5;" width="123" x="739.5" y="1019.0469"/><text fill="#000000" font-family="sans-serif" font-size="14" lengthAdjust="spacing" textLength="109" x="746.5" y="1040.5801">:ShipPositionBST</text><rect fill="#FEFECE" filter="url(#f1fu0j7sv4bhv1)" height="31.6094" style="stroke:#A80036;stroke-width:1.5;" width="96" x="1125" y="53"/><text fill="#000000" font-family="sans-serif" font-size="14" lengthAdjust="spacing" textLength="82" x="1132" y="74.5332">:ShipPosition</text><rect fill="#FEFECE" filter="url(#f1fu0j7sv4bhv1)" height="31.6094" style="stroke:#A80036;stroke-width:1.5;" width="96" x="1125" y="1019.0469"/><text fill="#000000" font-family="sans-serif" font-size="14" lengthAdjust="spacing" textLength="82" x="1132" y="1040.5801">:ShipPosition</text><rect fill="#FFFFFF" filter="url(#f1fu0j7sv4bhv1)" height="902.4375" style="stroke:#A80036;stroke-width:1.0;" width="10" x="53" y="99.6094"/><rect fill="#FFFFFF" filter="url(#f1fu0j7sv4bhv1)" height="30.3516" style="stroke:#A80036;stroke-width:1.0;" width="10" x="234" y="121.9609"/><rect fill="#FFFFFF" filter="url(#f1fu0j7sv4bhv1)" height="819.3828" style="stroke:#A80036;stroke-width:1.0;" width="10" x="234" y="182.6641"/><rect fill="#FFFFFF" filter="url(#f1fu0j7sv4bhv1)" height="758.6797" style="stroke:#A80036;stroke-width:1.0;" width="10" x="440" y="213.0156"/><rect fill="#FFFFFF" filter="url(#f1fu0j7sv4bhv1)" height="30" style="stroke:#A80036;stroke-width:1.0;" width="10" x="646" y="243.3672"/><rect fill="#FFFFFF" filter="url(#f1fu0j7sv4bhv1)" height="602.625" style="stroke:#A80036;stroke-width:1.0;" width="10" x="798" y="369.0703"/><rect fill="#FFFFFF" filter="url(#f1fu0j7sv4bhv1)" height="60.7031" style="stroke:#A80036;stroke-width:1.0;" width="10" x="1170" y="442.7734"/><rect fill="#FFFFFF" filter="url(#f1fu0j7sv4bhv1)" height="60.7031" style="stroke:#A80036;stroke-width:1.0;" width="10" x="1170" y="577.1797"/><polygon fill="#A80036" points="222,117.9609,232,121.9609,222,125.9609,226,121.9609" style="stroke:#A80036;stroke-width:1.0;"/><line style="stroke:#A80036;stroke-width:1.0;" x1="63" x2="228" y1="121.9609" y2="121.9609"/><text fill="#000000" font-family="sans-serif" font-size="13" font-weight="bold" lengthAdjust="spacing" textLength="7" x="70" y="117.1045">1</text><text fill="#000000" font-family="sans-serif" font-size="13" lengthAdjust="spacing" textLength="141" x="81" y="117.1045">asks for details of a ship</text><polygon fill="#A80036" points="74,148.3125,64,152.3125,74,156.3125,70,152.3125" style="stroke:#A80036;stroke-width:1.0;"/><line style="stroke:#A80036;stroke-width:1.0;" x1="68" x2="238" y1="152.3125" y2="152.3125"/><text fill="#000000" font-family="sans-serif" font-size="13" font-weight="bold" lengthAdjust="spacing" textLength="7" x="80" y="147.4561">2</text><text fill="#000000" font-family="sans-serif" font-size="13" lengthAdjust="spacing" textLength="119" x="91" y="147.4561">requests data (code)</text><polygon fill="#A80036" points="222,178.6641,232,182.6641,222,186.6641,226,182.6641" style="stroke:#A80036;stroke-width:1.0;"/><line style="stroke:#A80036;stroke-width:1.0;" x1="63" x2="228" y1="182.6641" y2="182.6641"/><text fill="#000000" font-family="sans-serif" font-size="13" font-weight="bold" lengthAdjust="spacing" textLength="7" x="70" y="177.8076">3</text><text fill="#000000" font-family="sans-serif" font-size="13" lengthAdjust="spacing" textLength="122" x="81" y="177.8076">types requested data</text><polygon fill="#A80036" points="428,209.0156,438,213.0156,428,217.0156,432,213.0156" style="stroke:#A80036;stroke-width:1.0;"/><line style="stroke:#A80036;stroke-width:1.0;" x1="244" x2="434" y1="213.0156" y2="213.0156"/><text fill="#000000" font-family="sans-serif" font-size="13" font-weight="bold" lengthAdjust="spacing" textLength="7" x="251" y="208.1592">4</text><text fill="#000000" font-family="sans-serif" font-size="13" lengthAdjust="spacing" textLength="166" x="262" y="208.1592">chosenShip = findShip(code)</text><polygon fill="#A80036" points="634,239.3672,644,243.3672,634,247.3672,638,243.3672" style="stroke:#A80036;stroke-width:1.0;"/><line style="stroke:#A80036;stroke-width:1.0;" x1="450" x2="640" y1="243.3672" y2="243.3672"/><text fill="#000000" font-family="sans-serif" font-size="13" font-weight="bold" lengthAdjust="spacing" textLength="7" x="457" y="238.5107">5</text><text fill="#000000" font-family="sans-serif" font-size="13" lengthAdjust="spacing" textLength="166" x="468" y="238.5107">chosenShip = findShip(code)</text><path d="M656,286.3672 L656,312.3672 L830,312.3672 L830,296.3672 L820,286.3672 L656,286.3672 " fill="#FBFB77" filter="url(#f1fu0j7sv4bhv1)" style="stroke:#A80036;stroke-width:1.0;"/><path d="M820,286.3672 L820,296.3672 L830,296.3672 L820,286.3672 " fill="#FBFB77" style="stroke:#A80036;stroke-width:1.0;"/><text fill="#000000" font-family="sans-serif" font-size="13" lengthAdjust="spacing" textLength="153" x="662" y="304.8623">More information in US102</text><polygon fill="#A80036" points="786,365.0703,796,369.0703,786,373.0703,790,369.0703" style="stroke:#A80036;stroke-width:1.0;"/><line style="stroke:#A80036;stroke-width:1.0;" x1="450" x2="792" y1="369.0703" y2="369.0703"/><text fill="#000000" font-family="sans-serif" font-size="13" font-weight="bold" lengthAdjust="spacing" textLength="7" x="457" y="364.2139">6</text><text fill="#000000" font-family="sans-serif" font-size="13" lengthAdjust="spacing" textLength="152" x="468" y="364.2139">attributes = getAttributes()</text><line style="stroke:#A80036;stroke-width:1.0;" x1="808" x2="850" y1="399.4219" y2="399.4219"/><line style="stroke:#A80036;stroke-width:1.0;" x1="850" x2="850" y1="399.4219" y2="412.4219"/><line style="stroke:#A80036;stroke-width:1.0;" x1="809" x2="850" y1="412.4219" y2="412.4219"/><polygon fill="#A80036" points="819,408.4219,809,412.4219,819,416.4219,815,412.4219" style="stroke:#A80036;stroke-width:1.0;"/><text fill="#000000" font-family="sans-serif" font-size="13" font-weight="bold" lengthAdjust="spacing" textLength="18" x="815" y="394.5654">6.1</text><text fill="#000000" font-family="sans-serif" font-size="13" lengthAdjust="spacing" textLength="183" x="837" y="394.5654">firstPosition = getFirstPosition()</text><polygon fill="#A80036" points="1158,438.7734,1168,442.7734,1158,446.7734,1162,442.7734" style="stroke:#A80036;stroke-width:1.0;"/><line style="stroke:#A80036;stroke-width:1.0;" x1="808" x2="1164" y1="442.7734" y2="442.7734"/><text fill="#000000" font-family="sans-serif" font-size="13" font-weight="bold" lengthAdjust="spacing" textLength="29" x="815" y="437.917">6.1.1</text><text fill="#000000" font-family="sans-serif" font-size="13" lengthAdjust="spacing" textLength="310" x="848" y="437.917">startBaseDateTime = firstPosition.getBaseDateTime()</text><polygon fill="#A80036" points="1158,469.125,1168,473.125,1158,477.125,1162,473.125" style="stroke:#A80036;stroke-width:1.0;"/><line style="stroke:#A80036;stroke-width:1.0;" x1="808" x2="1164" y1="473.125" y2="473.125"/><text fill="#000000" font-family="sans-serif" font-size="13" font-weight="bold" lengthAdjust="spacing" textLength="29" x="815" y="468.2686">6.1.2</text><text fill="#000000" font-family="sans-serif" font-size="13" lengthAdjust="spacing" textLength="260" x="848" y="468.2686">departureLatitude = firstPosition.getLatitude()</text><polygon fill="#A80036" points="1163,499.4766,1173,503.4766,1163,507.4766,1167,503.4766" style="stroke:#A80036;stroke-width:1.0;"/><line style="stroke:#A80036;stroke-width:1.0;" x1="808" x2="1169" y1="503.4766" y2="503.4766"/><text fill="#000000" font-family="sans-serif" font-size="13" font-weight="bold" lengthAdjust="spacing" textLength="29" x="815" y="498.6201">6.1.3</text><text fill="#000000" font-family="sans-serif" font-size="13" lengthAdjust="spacing" textLength="280" x="848" y="498.6201">departureLongitude = firstPosition.getLongitude()</text><line style="stroke:#A80036;stroke-width:1.0;" x1="808" x2="850" y1="533.8281" y2="533.8281"/><line style="stroke:#A80036;stroke-width:1.0;" x1="850" x2="850" y1="533.8281" y2="546.8281"/><line style="stroke:#A80036;stroke-width:1.0;" x1="809" x2="850" y1="546.8281" y2="546.8281"/><polygon fill="#A80036" points="819,542.8281,809,546.8281,819,550.8281,815,546.8281" style="stroke:#A80036;stroke-width:1.0;"/><text fill="#000000" font-family="sans-serif" font-size="13" font-weight="bold" lengthAdjust="spacing" textLength="18" x="815" y="528.9717">6.2</text><text fill="#000000" font-family="sans-serif" font-size="13" lengthAdjust="spacing" textLength="182" x="837" y="528.9717">lastPosition = getLastPosition()</text><polygon fill="#A80036" points="1158,573.1797,1168,577.1797,1158,581.1797,1162,577.1797" style="stroke:#A80036;stroke-width:1.0;"/><line style="stroke:#A80036;stroke-width:1.0;" x1="808" x2="1164" y1="577.1797" y2="577.1797"/><text fill="#000000" font-family="sans-serif" font-size="13" font-weight="bold" lengthAdjust="spacing" textLength="29" x="815" y="572.3232">6.2.1</text><text fill="#000000" font-family="sans-serif" font-size="13" lengthAdjust="spacing" textLength="305" x="848" y="572.3232">endBaseDateTime = lastPosition.getBaseDateTime()</text><polygon fill="#A80036" points="1158,603.5313,1168,607.5313,1158,611.5313,1162,607.5313" style="stroke:#A80036;stroke-width:1.0;"/><line style="stroke:#A80036;stroke-width:1.0;" x1="808" x2="1164" y1="607.5313" y2="607.5313"/><text fill="#000000" font-family="sans-serif" font-size="13" font-weight="bold" lengthAdjust="spacing" textLength="29" x="815" y="602.6748">6.2.2</text><text fill="#000000" font-family="sans-serif" font-size="13" lengthAdjust="spacing" textLength="239" x="848" y="602.6748">arrivalLatitude = lastPosition.getLatitude()</text><polygon fill="#A80036" points="1163,633.8828,1173,637.8828,1163,641.8828,1167,637.8828" style="stroke:#A80036;stroke-width:1.0;"/><line style="stroke:#A80036;stroke-width:1.0;" x1="808" x2="1169" y1="637.8828" y2="637.8828"/><text fill="#000000" font-family="sans-serif" font-size="13" font-weight="bold" lengthAdjust="spacing" textLength="29" x="815" y="633.0264">6.2.3</text><text fill="#000000" font-family="sans-serif" font-size="13" lengthAdjust="spacing" textLength="259" x="848" y="633.0264">arrivalLongitude = lastPosition.getLongitude()</text><line style="stroke:#A80036;stroke-width:1.0;" x1="808" x2="850" y1="668.2344" y2="668.2344"/><line style="stroke:#A80036;stroke-width:1.0;" x1="850" x2="850" y1="668.2344" y2="681.2344"/><line style="stroke:#A80036;stroke-width:1.0;" x1="809" x2="850" y1="681.2344" y2="681.2344"/><polygon fill="#A80036" points="819,677.2344,809,681.2344,819,685.2344,815,681.2344" style="stroke:#A80036;stroke-width:1.0;"/><text fill="#000000" font-family="sans-serif" font-size="13" font-weight="bold" lengthAdjust="spacing" textLength="18" x="815" y="663.3779">6.3</text><text fill="#000000" font-family="sans-serif" font-size="13" lengthAdjust="spacing" textLength="220" x="837" y="663.3779">travelledDistance = travelledDistance()</text><line style="stroke:#A80036;stroke-width:1.0;" x1="808" x2="850" y1="711.5859" y2="711.5859"/><line style="stroke:#A80036;stroke-width:1.0;" x1="850" x2="850" y1="711.5859" y2="724.5859"/><line style="stroke:#A80036;stroke-width:1.0;" x1="809" x2="850" y1="724.5859" y2="724.5859"/><polygon fill="#A80036" points="819,720.5859,809,724.5859,819,728.5859,815,724.5859" style="stroke:#A80036;stroke-width:1.0;"/><text fill="#000000" font-family="sans-serif" font-size="13" font-weight="bold" lengthAdjust="spacing" textLength="18" x="815" y="706.7295">6.4</text><text fill="#000000" font-family="sans-serif" font-size="13" lengthAdjust="spacing" textLength="182" x="837" y="706.7295">deltaDistance = deltaDistance()</text><line style="stroke:#A80036;stroke-width:1.0;" x1="808" x2="850" y1="754.9375" y2="754.9375"/><line style="stroke:#A80036;stroke-width:1.0;" x1="850" x2="850" y1="754.9375" y2="767.9375"/><line style="stroke:#A80036;stroke-width:1.0;" x1="809" x2="850" y1="767.9375" y2="767.9375"/><polygon fill="#A80036" points="819,763.9375,809,767.9375,819,771.9375,815,767.9375" style="stroke:#A80036;stroke-width:1.0;"/><text fill="#000000" font-family="sans-serif" font-size="13" font-weight="bold" lengthAdjust="spacing" textLength="18" x="815" y="750.0811">6.5</text><text fill="#000000" font-family="sans-serif" font-size="13" lengthAdjust="spacing" textLength="296" x="837" y="750.0811">totalNumberMovements = totalNumberMovements()</text><line style="stroke:#A80036;stroke-width:1.0;" x1="808" x2="850" y1="798.2891" y2="798.2891"/><line style="stroke:#A80036;stroke-width:1.0;" x1="850" x2="850" y1="798.2891" y2="811.2891"/><line style="stroke:#A80036;stroke-width:1.0;" x1="809" x2="850" y1="811.2891" y2="811.2891"/><polygon fill="#A80036" points="819,807.2891,809,811.2891,819,815.2891,815,811.2891" style="stroke:#A80036;stroke-width:1.0;"/><text fill="#000000" font-family="sans-serif" font-size="13" font-weight="bold" lengthAdjust="spacing" textLength="18" x="815" y="793.4326">6.6</text><text fill="#000000" font-family="sans-serif" font-size="13" lengthAdjust="spacing" textLength="150" x="837" y="793.4326">maxSOG = getMaxSOG()</text><line style="stroke:#A80036;stroke-width:1.0;" x1="808" x2="850" y1="841.6406" y2="841.6406"/><line style="stroke:#A80036;stroke-width:1.0;" x1="850" x2="850" y1="841.6406" y2="854.6406"/><line style="stroke:#A80036;stroke-width:1.0;" x1="809" x2="850" y1="854.6406" y2="854.6406"/><polygon fill="#A80036" points="819,850.6406,809,854.6406,819,858.6406,815,854.6406" style="stroke:#A80036;stroke-width:1.0;"/><text fill="#000000" font-family="sans-serif" font-size="13" font-weight="bold" lengthAdjust="spacing" textLength="18" x="815" y="836.7842">6.7</text><text fill="#000000" font-family="sans-serif" font-size="13" lengthAdjust="spacing" textLength="164" x="837" y="836.7842">meanSOG = getMeanSOG()</text><line style="stroke:#A80036;stroke-width:1.0;" x1="808" x2="850" y1="884.9922" y2="884.9922"/><line style="stroke:#A80036;stroke-width:1.0;" x1="850" x2="850" y1="884.9922" y2="897.9922"/><line style="stroke:#A80036;stroke-width:1.0;" x1="809" x2="850" y1="897.9922" y2="897.9922"/><polygon fill="#A80036" points="819,893.9922,809,897.9922,819,901.9922,815,897.9922" style="stroke:#A80036;stroke-width:1.0;"/><text fill="#000000" font-family="sans-serif" font-size="13" font-weight="bold" lengthAdjust="spacing" textLength="18" x="815" y="880.1357">6.8</text><text fill="#000000" font-family="sans-serif" font-size="13" lengthAdjust="spacing" textLength="150" x="837" y="880.1357">maxCOG = getMaxCOG()</text><line style="stroke:#A80036;stroke-width:1.0;" x1="808" x2="850" y1="928.3438" y2="928.3438"/><line style="stroke:#A80036;stroke-width:1.0;" x1="850" x2="850" y1="928.3438" y2="941.3438"/><line style="stroke:#A80036;stroke-width:1.0;" x1="809" x2="850" y1="941.3438" y2="941.3438"/><polygon fill="#A80036" points="819,937.3438,809,941.3438,819,945.3438,815,941.3438" style="stroke:#A80036;stroke-width:1.0;"/><text fill="#000000" font-family="sans-serif" font-size="13" font-weight="bold" lengthAdjust="spacing" textLength="18" x="815" y="923.4873">6.9</text><text fill="#000000" font-family="sans-serif" font-size="13" lengthAdjust="spacing" textLength="164" x="837" y="923.4873">meanCOG = getMeanCOG()</text><polygon fill="#A80036" points="255,967.6953,245,971.6953,255,975.6953,251,971.6953" style="stroke:#A80036;stroke-width:1.0;"/><line style="stroke:#A80036;stroke-width:1.0;" x1="249" x2="444" y1="971.6953" y2="971.6953"/><text fill="#000000" font-family="sans-serif" font-size="13" font-weight="bold" lengthAdjust="spacing" textLength="7" x="261" y="966.8389">7</text><text fill="#000000" font-family="sans-serif" font-size="13" lengthAdjust="spacing" textLength="32" x="272" y="966.8389">result</text><polygon fill="#A80036" points="69,998.0469,59,1002.0469,69,1006.0469,65,1002.0469" style="stroke:#A80036;stroke-width:1.0;"/><line style="stroke:#A80036;stroke-width:1.0;stroke-dasharray:2.0,2.0;" x1="63" x2="238" y1="1002.0469" y2="1002.0469"/><text fill="#000000" font-family="sans-serif" font-size="13" font-weight="bold" lengthAdjust="spacing" textLength="7" x="75" y="997.1904">8</text><text fill="#000000" font-family="sans-serif" font-size="13" lengthAdjust="spacing" textLength="80" x="86" y="997.1904">shows results</text><!--MD5=[8124d01ebcc6baddc368245d9760dcd7]
@startuml
autonumber

'hide footbox
actor "Traffic Manager" as TM

participant ":ShipMovementsUI" as UI
participant ":ShipMovementsController" as CTRL
participant ":SearchShipController" as CTRL2
participant ":ShipPositionBST" as BST
participant ":ShipPosition" as SP

activate TM
TM -> UI : asks for details of a ship
activate UI

UI -> TM : requests data (code)

deactivate UI

TM -> UI : types requested data
activate UI
UI -> CTRL : chosenShip = findShip(code)
activate CTRL

CTRL -> CTRL2 : chosenShip = findShip(code)
activate CTRL2
deactivate CTRL2
note right of CTRL2 : More information in US102
|||

CTRL -> BST : attributes = getAttributes()
activate BST
autonumber 6.1
BST -> BST : firstPosition = getFirstPosition()

autonumber 6.1.1
BST -> SP : startBaseDateTime = firstPosition.getBaseDateTime()
activate SP
BST -> SP : departureLatitude = firstPosition.getLatitude()
BST -> SP : departureLongitude = firstPosition.getLongitude()
deactivate SP

autonumber 6.2
BST -> BST : lastPosition = getLastPosition()

autonumber 6.2.1
BST -> SP : endBaseDateTime = lastPosition.getBaseDateTime()
activate SP
BST -> SP : arrivalLatitude = lastPosition.getLatitude()
BST -> SP : arrivalLongitude = lastPosition.getLongitude()
deactivate SP

autonumber 6.3
BST -> BST : travelledDistance = travelledDistance()
BST -> BST : deltaDistance = deltaDistance()
BST -> BST : totalNumberMovements = totalNumberMovements()
BST -> BST : maxSOG = getMaxSOG()
BST -> BST : meanSOG = getMeanSOG()
BST -> BST : maxCOG = getMaxCOG()
BST -> BST : meanCOG = getMeanCOG()

autonumber 7
CTRL -> UI : result
deactivate BST
deactivate CTRL

UI - -> TM : shows results
deactivate UI

deactivate TM

@enduml

@startuml
autonumber

actor "Traffic Manager" as TM

participant ":ShipMovementsUI" as UI
participant ":ShipMovementsController" as CTRL
participant ":SearchShipController" as CTRL2
participant ":ShipPositionBST" as BST
participant ":ShipPosition" as SP

activate TM
TM -> UI : asks for details of a ship
activate UI

UI -> TM : requests data (code)

deactivate UI

TM -> UI : types requested data
activate UI
UI -> CTRL : chosenShip = findShip(code)
activate CTRL

CTRL -> CTRL2 : chosenShip = findShip(code)
activate CTRL2
deactivate CTRL2
note right of CTRL2 : More information in US102
|||

CTRL -> BST : attributes = getAttributes()
activate BST
autonumber 6.1
BST -> BST : firstPosition = getFirstPosition()

autonumber 6.1.1
BST -> SP : startBaseDateTime = firstPosition.getBaseDateTime()
activate SP
BST -> SP : departureLatitude = firstPosition.getLatitude()
BST -> SP : departureLongitude = firstPosition.getLongitude()
deactivate SP

autonumber 6.2
BST -> BST : lastPosition = getLastPosition()

autonumber 6.2.1
BST -> SP : endBaseDateTime = lastPosition.getBaseDateTime()
activate SP
BST -> SP : arrivalLatitude = lastPosition.getLatitude()
BST -> SP : arrivalLongitude = lastPosition.getLongitude()
deactivate SP

autonumber 6.3
BST -> BST : travelledDistance = travelledDistance()
BST -> BST : deltaDistance = deltaDistance()
BST -> BST : totalNumberMovements = totalNumberMovements()
BST -> BST : maxSOG = getMaxSOG()
BST -> BST : meanSOG = getMeanSOG()
BST -> BST : maxCOG = getMaxCOG()
BST -> BST : meanCOG = getMeanCOG()

autonumber 7
CTRL -> UI : result
deactivate BST
deactivate CTRL

UI - -> TM : shows results
deactivate UI

deactivate TM

@enduml

PlantUML version 1.2021.00(Sun Jan 10 10:25:05 GMT 2021)
(GPL source distribution)
Java Runtime: OpenJDK Runtime Environment
JVM: OpenJDK 64-Bit Server VM
Default Encoding: Cp1252
Language: pt
Country: PT
--></g></svg>