<?xml version="1.0" encoding="UTF-8" standalone="no"?><svg xmlns="http://www.w3.org/2000/svg" xmlns:xlink="http://www.w3.org/1999/xlink" contentScriptType="application/ecmascript" contentStyleType="text/css" height="752px" preserveAspectRatio="none" style="width:436px;height:752px;" version="1.1" viewBox="0 0 436 752" width="436px" zoomAndPan="magnify"><defs><filter height="300%" id="f1xi57j3v0xluc" width="300%" x="-1" y="-1"><feGaussianBlur result="blurOut" stdDeviation="2.0"/><feColorMatrix in="blurOut" result="blurOut2" type="matrix" values="0 0 0 0 0 0 0 0 0 0 0 0 0 0 0 0 0 0 .4 0"/><feOffset dx="4.0" dy="4.0" in="blurOut2" result="blurOut3"/><feBlend in="SourceGraphic" in2="blurOut3" mode="normal"/></filter></defs><g><!--MD5=[f18acb00d883d04e547ec44551f3f313]
class ShipMovementsController--><rect codeLine="8" fill="#FEFECE" filter="url(#f1xi57j3v0xluc)" height="75.6719" id="ShipMovementsController" style="stroke:#A80036;stroke-width:1.5;" width="232" x="52" y="663"/><ellipse cx="93.1" cy="679" fill="#ADD1B2" rx="11" ry="11" style="stroke:#A80036;stroke-width:1.0;"/><path d="M95.1,675.5 Q95.3031,675 95.5375,674.75 Q95.7719,674.5 96.0375,674.5 Q96.5063,674.5 96.8031,674.7813 Q97.1,675.0625 97.1,675.7188 L97.1,677.2813 Q97.1,677.9375 96.8188,678.2188 Q96.5375,678.5 96.1,678.5 Q95.7094,678.5 95.4594,678.3281 Q95.2094,678.1563 95.1,677.7031 Q95.0531,677.3906 94.8813,677.2188 Q94.5688,676.8906 94.0063,676.7031 Q93.4438,676.5 92.8813,676.5 Q92.1781,676.5 91.5844,676.7813 Q91.0063,677.0625 90.5531,677.6875 Q90.1,678.3125 90.1,679.1719 L90.1,680.0938 Q90.1,681.125 90.9438,681.8125 Q91.7875,682.5 93.2875,682.5 Q94.1781,682.5 94.8031,682.2969 Q95.1625,682.1875 95.5688,681.8281 Q95.8344,681.625 95.975,681.5625 Q96.1156,681.5 96.2875,681.5 Q96.6156,681.5 96.85,681.7656 Q97.1,682.0156 97.1,682.375 Q97.1,682.7188 96.7563,683.125 Q96.2563,683.7188 95.4594,684.0469 Q94.4125,684.5 93.1313,684.5 Q91.6313,684.5 90.4281,683.9063 Q89.4594,683.4375 88.7719,682.4219 Q88.1,681.4063 88.1,680.2031 L88.1,679.1094 Q88.1,677.8594 88.6938,676.7656 Q89.3031,675.6719 90.35,675.0938 Q91.4125,674.5 92.6,674.5 Q93.3188,674.5 93.9438,674.75 Q94.5688,675 95.1,675.5 Z " fill="#000000"/><text fill="#000000" font-family="sans-serif" font-size="12" lengthAdjust="spacing" textLength="142" x="112.9" y="683.9102">ShipMovementsController</text><line style="stroke:#A80036;stroke-width:1.5;" x1="53" x2="283" y1="695" y2="695"/><rect fill="none" height="6" style="stroke:#C82930;stroke-width:1.0;" width="6" x="60" y="703"/><text fill="#000000" font-family="sans-serif" font-size="11" lengthAdjust="spacing" textLength="158" x="72" y="710.4189">ShipPositionBST shipPositionBST</text><rect fill="none" height="6" style="stroke:#C82930;stroke-width:1.0;" width="6" x="60" y="716.8359"/><text fill="#000000" font-family="sans-serif" font-size="11" lengthAdjust="spacing" textLength="206" x="72" y="724.2549">SearchShipController searchShipController</text><line style="stroke:#A80036;stroke-width:1.5;" x1="53" x2="283" y1="730.6719" y2="730.6719"/><!--MD5=[e6f2cb470f06694f6a02b571e2ffcbb5]
class SearchShipController--><rect codeLine="13" fill="#FEFECE" filter="url(#f1xi57j3v0xluc)" height="75.6719" id="SearchShipController" style="stroke:#A80036;stroke-width:1.5;" width="150" x="7" y="527"/><ellipse cx="22" cy="543" fill="#ADD1B2" rx="11" ry="11" style="stroke:#A80036;stroke-width:1.0;"/><path d="M24,539.5 Q24.2031,539 24.4375,538.75 Q24.6719,538.5 24.9375,538.5 Q25.4063,538.5 25.7031,538.7813 Q26,539.0625 26,539.7188 L26,541.2813 Q26,541.9375 25.7188,542.2188 Q25.4375,542.5 25,542.5 Q24.6094,542.5 24.3594,542.3281 Q24.1094,542.1563 24,541.7031 Q23.9531,541.3906 23.7813,541.2188 Q23.4688,540.8906 22.9063,540.7031 Q22.3438,540.5 21.7813,540.5 Q21.0781,540.5 20.4844,540.7813 Q19.9063,541.0625 19.4531,541.6875 Q19,542.3125 19,543.1719 L19,544.0938 Q19,545.125 19.8438,545.8125 Q20.6875,546.5 22.1875,546.5 Q23.0781,546.5 23.7031,546.2969 Q24.0625,546.1875 24.4688,545.8281 Q24.7344,545.625 24.875,545.5625 Q25.0156,545.5 25.1875,545.5 Q25.5156,545.5 25.75,545.7656 Q26,546.0156 26,546.375 Q26,546.7188 25.6563,547.125 Q25.1563,547.7188 24.3594,548.0469 Q23.3125,548.5 22.0313,548.5 Q20.5313,548.5 19.3281,547.9063 Q18.3594,547.4375 17.6719,546.4219 Q17,545.4063 17,544.2031 L17,543.1094 Q17,541.8594 17.5938,540.7656 Q18.2031,539.6719 19.25,539.0938 Q20.3125,538.5 21.5,538.5 Q22.2188,538.5 22.8438,538.75 Q23.4688,539 24,539.5 Z " fill="#000000"/><text fill="#000000" font-family="sans-serif" font-size="12" lengthAdjust="spacing" textLength="118" x="36" y="547.9102">SearchShipController</text><line style="stroke:#A80036;stroke-width:1.5;" x1="8" x2="156" y1="559" y2="559"/><rect fill="none" height="6" style="stroke:#C82930;stroke-width:1.0;" width="6" x="15" y="567"/><text fill="#000000" font-family="sans-serif" font-size="11" lengthAdjust="spacing" textLength="84" x="27" y="574.4189">ShipBST shipBST</text><line style="stroke:#A80036;stroke-width:1.5;" x1="8" x2="156" y1="580.8359" y2="580.8359"/><ellipse cx="18" cy="591.8359" fill="#84BE84" rx="3" ry="3" style="stroke:#038048;stroke-width:1.0;"/><text fill="#000000" font-family="sans-serif" font-size="11" lengthAdjust="spacing" textLength="71" x="27" y="596.2549">findShip(code)</text><!--MD5=[e69d6fe1312529448929093d2b2c45ce]
class ShipMovements--><rect codeLine="18" fill="#FEFECE" filter="url(#f1xi57j3v0xluc)" height="352.3906" id="ShipMovements" style="stroke:#A80036;stroke-width:1.5;" width="334" x="88" y="7"/><ellipse cx="206.75" cy="23" fill="#ADD1B2" rx="11" ry="11" style="stroke:#A80036;stroke-width:1.0;"/><path d="M208.75,19.5 Q208.9531,19 209.1875,18.75 Q209.4219,18.5 209.6875,18.5 Q210.1563,18.5 210.4531,18.7813 Q210.75,19.0625 210.75,19.7188 L210.75,21.2813 Q210.75,21.9375 210.4688,22.2188 Q210.1875,22.5 209.75,22.5 Q209.3594,22.5 209.1094,22.3281 Q208.8594,22.1563 208.75,21.7031 Q208.7031,21.3906 208.5313,21.2188 Q208.2188,20.8906 207.6563,20.7031 Q207.0938,20.5 206.5313,20.5 Q205.8281,20.5 205.2344,20.7813 Q204.6563,21.0625 204.2031,21.6875 Q203.75,22.3125 203.75,23.1719 L203.75,24.0938 Q203.75,25.125 204.5938,25.8125 Q205.4375,26.5 206.9375,26.5 Q207.8281,26.5 208.4531,26.2969 Q208.8125,26.1875 209.2188,25.8281 Q209.4844,25.625 209.625,25.5625 Q209.7656,25.5 209.9375,25.5 Q210.2656,25.5 210.5,25.7656 Q210.75,26.0156 210.75,26.375 Q210.75,26.7188 210.4063,27.125 Q209.9063,27.7188 209.1094,28.0469 Q208.0625,28.5 206.7813,28.5 Q205.2813,28.5 204.0781,27.9063 Q203.1094,27.4375 202.4219,26.4219 Q201.75,25.4063 201.75,24.2031 L201.75,23.1094 Q201.75,21.8594 202.3438,20.7656 Q202.9531,19.6719 204,19.0938 Q205.0625,18.5 206.25,18.5 Q206.9688,18.5 207.5938,18.75 Q208.2188,19 208.75,19.5 Z " fill="#000000"/><text fill="#000000" font-family="sans-serif" font-size="12" lengthAdjust="spacing" textLength="88" x="227.25" y="27.9102">ShipMovements</text><line style="stroke:#A80036;stroke-width:1.5;" x1="89" x2="421" y1="39" y2="39"/><rect fill="none" height="6" style="stroke:#C82930;stroke-width:1.0;" width="6" x="96" y="47"/><text fill="#000000" font-family="sans-serif" font-size="11" lengthAdjust="spacing" textLength="76" x="108" y="54.4189">String shipCode</text><rect fill="none" height="6" style="stroke:#C82930;stroke-width:1.0;" width="6" x="96" y="60.8359"/><text fill="#000000" font-family="sans-serif" font-size="11" lengthAdjust="spacing" textLength="78" x="108" y="68.2549">String shipName</text><rect fill="none" height="6" style="stroke:#C82930;stroke-width:1.0;" width="6" x="96" y="74.6719"/><text fill="#000000" font-family="sans-serif" font-size="11" lengthAdjust="spacing" textLength="164" x="108" y="82.0908">LocalDateTime startBaseDateTime</text><rect fill="none" height="6" style="stroke:#C82930;stroke-width:1.0;" width="6" x="96" y="88.5078"/><text fill="#000000" font-family="sans-serif" font-size="11" lengthAdjust="spacing" textLength="160" x="108" y="95.9268">LocalDateTime endBaseDateTime</text><rect fill="none" height="6" style="stroke:#C82930;stroke-width:1.0;" width="6" x="96" y="102.3438"/><text fill="#000000" font-family="sans-serif" font-size="11" lengthAdjust="spacing" textLength="116" x="108" y="109.7627">Time totalMovementTime</text><rect fill="none" height="6" style="stroke:#C82930;stroke-width:1.0;" width="6" x="96" y="116.1797"/><text fill="#000000" font-family="sans-serif" font-size="11" lengthAdjust="spacing" textLength="148" x="108" y="123.5986">Integer totalNumberMovements</text><rect fill="none" height="6" style="stroke:#C82930;stroke-width:1.0;" width="6" x="96" y="130.0156"/><text fill="#000000" font-family="sans-serif" font-size="11" lengthAdjust="spacing" textLength="79" x="108" y="137.4346">Double maxSOG</text><rect fill="none" height="6" style="stroke:#C82930;stroke-width:1.0;" width="6" x="96" y="143.8516"/><text fill="#000000" font-family="sans-serif" font-size="11" lengthAdjust="spacing" textLength="85" x="108" y="151.2705">Double meanSOG</text><rect fill="none" height="6" style="stroke:#C82930;stroke-width:1.0;" width="6" x="96" y="157.6875"/><text fill="#000000" font-family="sans-serif" font-size="11" lengthAdjust="spacing" textLength="79" x="108" y="165.1064">Double maxCOG</text><rect fill="none" height="6" style="stroke:#C82930;stroke-width:1.0;" width="6" x="96" y="171.5234"/><text fill="#000000" font-family="sans-serif" font-size="11" lengthAdjust="spacing" textLength="85" x="108" y="178.9424">Double meanCOG</text><rect fill="none" height="6" style="stroke:#C82930;stroke-width:1.0;" width="6" x="96" y="185.3594"/><text fill="#000000" font-family="sans-serif" font-size="11" lengthAdjust="spacing" textLength="121" x="108" y="192.7783">Double departureLatitude</text><rect fill="none" height="6" style="stroke:#C82930;stroke-width:1.0;" width="6" x="96" y="199.1953"/><text fill="#000000" font-family="sans-serif" font-size="11" lengthAdjust="spacing" textLength="130" x="108" y="206.6143">Double departureLongitude</text><rect fill="none" height="6" style="stroke:#C82930;stroke-width:1.0;" width="6" x="96" y="213.0313"/><text fill="#000000" font-family="sans-serif" font-size="11" lengthAdjust="spacing" textLength="104" x="108" y="220.4502">Double arrivalLatitude</text><rect fill="none" height="6" style="stroke:#C82930;stroke-width:1.0;" width="6" x="96" y="226.8672"/><text fill="#000000" font-family="sans-serif" font-size="11" lengthAdjust="spacing" textLength="113" x="108" y="234.2861">Double arrivalLongitude</text><rect fill="none" height="6" style="stroke:#C82930;stroke-width:1.0;" width="6" x="96" y="240.7031"/><text fill="#000000" font-family="sans-serif" font-size="11" lengthAdjust="spacing" textLength="119" x="108" y="248.1221">Double travelledDistance</text><rect fill="none" height="6" style="stroke:#C82930;stroke-width:1.0;" width="6" x="96" y="254.5391"/><text fill="#000000" font-family="sans-serif" font-size="11" lengthAdjust="spacing" textLength="101" x="108" y="261.958">Double deltaDistance</text><line style="stroke:#A80036;stroke-width:1.5;" x1="89" x2="421" y1="268.375" y2="268.375"/><ellipse cx="99" cy="279.375" fill="#84BE84" rx="3" ry="3" style="stroke:#038048;stroke-width:1.0;"/><text fill="#000000" font-family="sans-serif" font-size="11" lengthAdjust="spacing" textLength="278" x="108" y="283.7939">ShipMovements(shipCode, shipName, startBaseDateTime,</text><text fill="#000000" font-family="sans-serif" font-size="11" lengthAdjust="spacing" textLength="305" x="108" y="297.6299">endBaseDateTime, totalMovementTime, totalNumberMovements,</text><text fill="#000000" font-family="sans-serif" font-size="11" lengthAdjust="spacing" textLength="296" x="108" y="311.4658">maxSOG, meanSOG, maxCOG, meanCOG, departureLatitude,</text><text fill="#000000" font-family="sans-serif" font-size="11" lengthAdjust="spacing" textLength="254" x="108" y="325.3018">departureLongitude, arrivalLatitude, arrivalLongitude,</text><text fill="#000000" font-family="sans-serif" font-size="11" lengthAdjust="spacing" textLength="158" x="108" y="339.1377">travelledDistance, deltaDistance)</text><ellipse cx="99" cy="348.5547" fill="#84BE84" rx="3" ry="3" style="stroke:#038048;stroke-width:1.0;"/><text fill="#000000" font-family="sans-serif" font-size="11" lengthAdjust="spacing" textLength="45" x="108" y="352.9736">toString()</text><!--MD5=[e20f0e393e33b6317137adc5adb8f6b1]
class ShipPositionBST--><rect codeLine="39" fill="#FEFECE" filter="url(#f1xi57j3v0xluc)" height="48" id="ShipPositionBST" style="stroke:#A80036;stroke-width:1.5;" width="125" x="192.5" y="541"/><ellipse cx="207.5" cy="557" fill="#ADD1B2" rx="11" ry="11" style="stroke:#A80036;stroke-width:1.0;"/><path d="M209.5,553.5 Q209.7031,553 209.9375,552.75 Q210.1719,552.5 210.4375,552.5 Q210.9063,552.5 211.2031,552.7813 Q211.5,553.0625 211.5,553.7188 L211.5,555.2813 Q211.5,555.9375 211.2188,556.2188 Q210.9375,556.5 210.5,556.5 Q210.1094,556.5 209.8594,556.3281 Q209.6094,556.1563 209.5,555.7031 Q209.4531,555.3906 209.2813,555.2188 Q208.9688,554.8906 208.4063,554.7031 Q207.8438,554.5 207.2813,554.5 Q206.5781,554.5 205.9844,554.7813 Q205.4063,555.0625 204.9531,555.6875 Q204.5,556.3125 204.5,557.1719 L204.5,558.0938 Q204.5,559.125 205.3438,559.8125 Q206.1875,560.5 207.6875,560.5 Q208.5781,560.5 209.2031,560.2969 Q209.5625,560.1875 209.9688,559.8281 Q210.2344,559.625 210.375,559.5625 Q210.5156,559.5 210.6875,559.5 Q211.0156,559.5 211.25,559.7656 Q211.5,560.0156 211.5,560.375 Q211.5,560.7188 211.1563,561.125 Q210.6563,561.7188 209.8594,562.0469 Q208.8125,562.5 207.5313,562.5 Q206.0313,562.5 204.8281,561.9063 Q203.8594,561.4375 203.1719,560.4219 Q202.5,559.4063 202.5,558.2031 L202.5,557.1094 Q202.5,555.8594 203.0938,554.7656 Q203.7031,553.6719 204.75,553.0938 Q205.8125,552.5 207,552.5 Q207.7188,552.5 208.3438,552.75 Q208.9688,553 209.5,553.5 Z " fill="#000000"/><text fill="#000000" font-family="sans-serif" font-size="12" lengthAdjust="spacing" textLength="93" x="221.5" y="561.9102">ShipPositionBST</text><line style="stroke:#A80036;stroke-width:1.5;" x1="193.5" x2="316.5" y1="573" y2="573"/><line style="stroke:#A80036;stroke-width:1.5;" x1="193.5" x2="316.5" y1="581" y2="581"/><!--MD5=[1c0c3765e68dc4575d559b566278b914]
class ShipPosition--><rect codeLine="41" fill="#FEFECE" filter="url(#f1xi57j3v0xluc)" height="48" id="ShipPosition" style="stroke:#A80036;stroke-width:1.5;" width="102" x="204" y="419"/><ellipse cx="219" cy="435" fill="#ADD1B2" rx="11" ry="11" style="stroke:#A80036;stroke-width:1.0;"/><path d="M221,431.5 Q221.2031,431 221.4375,430.75 Q221.6719,430.5 221.9375,430.5 Q222.4063,430.5 222.7031,430.7813 Q223,431.0625 223,431.7188 L223,433.2813 Q223,433.9375 222.7188,434.2188 Q222.4375,434.5 222,434.5 Q221.6094,434.5 221.3594,434.3281 Q221.1094,434.1563 221,433.7031 Q220.9531,433.3906 220.7813,433.2188 Q220.4688,432.8906 219.9063,432.7031 Q219.3438,432.5 218.7813,432.5 Q218.0781,432.5 217.4844,432.7813 Q216.9063,433.0625 216.4531,433.6875 Q216,434.3125 216,435.1719 L216,436.0938 Q216,437.125 216.8438,437.8125 Q217.6875,438.5 219.1875,438.5 Q220.0781,438.5 220.7031,438.2969 Q221.0625,438.1875 221.4688,437.8281 Q221.7344,437.625 221.875,437.5625 Q222.0156,437.5 222.1875,437.5 Q222.5156,437.5 222.75,437.7656 Q223,438.0156 223,438.375 Q223,438.7188 222.6563,439.125 Q222.1563,439.7188 221.3594,440.0469 Q220.3125,440.5 219.0313,440.5 Q217.5313,440.5 216.3281,439.9063 Q215.3594,439.4375 214.6719,438.4219 Q214,437.4063 214,436.2031 L214,435.1094 Q214,433.8594 214.5938,432.7656 Q215.2031,431.6719 216.25,431.0938 Q217.3125,430.5 218.5,430.5 Q219.2188,430.5 219.8438,430.75 Q220.4688,431 221,431.5 Z " fill="#000000"/><text fill="#000000" font-family="sans-serif" font-size="12" lengthAdjust="spacing" textLength="70" x="233" y="439.9102">ShipPosition</text><line style="stroke:#A80036;stroke-width:1.5;" x1="205" x2="305" y1="451" y2="451"/><line style="stroke:#A80036;stroke-width:1.5;" x1="205" x2="305" y1="459" y2="459"/><!--MD5=[5247ca6476a6c08bca81328ab14d63dc]
reverse link SearchShipController to ShipMovementsController--><path codeLine="44" d="M108.79,607.75 C120.12,625.39 133.19,645.77 144.17,662.87 " fill="none" id="SearchShipController-backto-ShipMovementsController" style="stroke:#A80036;stroke-width:1.0;stroke-dasharray:7.0,7.0;"/><polygon fill="#A80036" points="105.96,603.33,107.4471,613.0659,108.6573,607.5401,114.1832,608.7503,105.96,603.33" style="stroke:#A80036;stroke-width:1.0;"/><!--MD5=[af9120c38b07e4556d65a4642e83cc1e]
reverse link ShipPositionBST to ShipMovementsController--><path codeLine="45" d="M237.18,593.45 C224.17,613.49 206.39,640.88 192.11,662.87 " fill="none" id="ShipPositionBST-backto-ShipMovementsController" style="stroke:#A80036;stroke-width:1.0;stroke-dasharray:7.0,7.0;"/><polygon fill="#A80036" points="240.04,589.04,231.7955,594.4278,237.3261,593.2394,238.5145,598.77,240.04,589.04" style="stroke:#A80036;stroke-width:1.0;"/><!--MD5=[bb6d2402499ef822123f543344b34427]
reverse link ShipPosition to ShipPositionBST--><path codeLine="46" d="M255,472.29 C255,493.22 255,521.37 255,540.93 " fill="none" id="ShipPosition-backto-ShipPositionBST" style="stroke:#A80036;stroke-width:1.0;"/><polygon fill="#A80036" points="255,467.14,251,476.14,255,472.14,259,476.14,255,467.14" style="stroke:#A80036;stroke-width:1.0;"/><!--MD5=[776aaad076abadc535efa4f939152618]
reverse link ShipMovements to ShipPosition--><path codeLine="47" d="M255,364.49 C255,385.86 255,404.98 255,418.89 " fill="none" id="ShipMovements-backto-ShipPosition" style="stroke:#A80036;stroke-width:1.0;"/><polygon fill="#A80036" points="255,359.3,251,368.3,255,364.3,259,368.3,255,359.3" style="stroke:#A80036;stroke-width:1.0;"/><!--MD5=[f2ecb1ac022b4d67ceb22c1c2a887b13]
@startuml
'https://plantuml.com/class-diagram

/'class ShipMovementsUI {
- ShipMovementsController controller
- ShipMovements details
}'/

class ShipMovementsController {
- ShipPositionBST shipPositionBST
- SearchShipController searchShipController
}

class SearchShipController {
- ShipBST shipBST
+ findShip(code)
}

class ShipMovements {
- String shipCode
- String shipName
- LocalDateTime startBaseDateTime
- LocalDateTime endBaseDateTime
- Time totalMovementTime
- Integer totalNumberMovements
- Double maxSOG
- Double meanSOG
- Double maxCOG
- Double meanCOG
- Double departureLatitude
- Double departureLongitude
- Double arrivalLatitude
- Double arrivalLongitude
- Double travelledDistance
- Double deltaDistance
+ ShipMovements(shipCode, shipName, startBaseDateTime, \nendBaseDateTime, totalMovementTime, totalNumberMovements, \nmaxSOG, meanSOG, maxCOG, meanCOG, departureLatitude, \ndepartureLongitude, arrivalLatitude, arrivalLongitude, \ntravelledDistance, deltaDistance)
+ toString()
}

class ShipPositionBST

class ShipPosition

'ShipMovementsController <.. ShipMovementsUI
SearchShipController <.. ShipMovementsController
ShipPositionBST <.. ShipMovementsController
ShipPosition <- - ShipPositionBST
ShipMovements <- - ShipPosition
'ShipMovements <.. ShipMovementsUI
@enduml

@startuml


class ShipMovementsController {
- ShipPositionBST shipPositionBST
- SearchShipController searchShipController
}

class SearchShipController {
- ShipBST shipBST
+ findShip(code)
}

class ShipMovements {
- String shipCode
- String shipName
- LocalDateTime startBaseDateTime
- LocalDateTime endBaseDateTime
- Time totalMovementTime
- Integer totalNumberMovements
- Double maxSOG
- Double meanSOG
- Double maxCOG
- Double meanCOG
- Double departureLatitude
- Double departureLongitude
- Double arrivalLatitude
- Double arrivalLongitude
- Double travelledDistance
- Double deltaDistance
+ ShipMovements(shipCode, shipName, startBaseDateTime, \nendBaseDateTime, totalMovementTime, totalNumberMovements, \nmaxSOG, meanSOG, maxCOG, meanCOG, departureLatitude, \ndepartureLongitude, arrivalLatitude, arrivalLongitude, \ntravelledDistance, deltaDistance)
+ toString()
}

class ShipPositionBST

class ShipPosition

SearchShipController <.. ShipMovementsController
ShipPositionBST <.. ShipMovementsController
ShipPosition <- - ShipPositionBST
ShipMovements <- - ShipPosition
@enduml

PlantUML version 1.2021.00(Sun Jan 10 10:25:05 GMT 2021)
(GPL source distribution)
Java Runtime: OpenJDK Runtime Environment
JVM: OpenJDK 64-Bit Server VM
Default Encoding: Cp1252
Language: pt
Country: PT
--></g></svg>