<?xml version="1.0" encoding="UTF-8" standalone="no"?><svg xmlns="http://www.w3.org/2000/svg" xmlns:xlink="http://www.w3.org/1999/xlink" contentScriptType="application/ecmascript" contentStyleType="text/css" height="398px" preserveAspectRatio="none" style="width:305px;height:398px;" version="1.1" viewBox="0 0 305 398" width="305px" zoomAndPan="magnify"><defs><filter height="300%" id="fx6y6thwg8eko" width="300%" x="-1" y="-1"><feGaussianBlur result="blurOut" stdDeviation="2.0"/><feColorMatrix in="blurOut" result="blurOut2" type="matrix" values="0 0 0 0 0 0 0 0 0 0 0 0 0 0 0 0 0 0 .4 0"/><feOffset dx="4.0" dy="4.0" in="blurOut2" result="blurOut3"/><feBlend in="SourceGraphic" in2="blurOut3" mode="normal"/></filter></defs><g><!--MD5=[18f5b4ccae6e62f3670d3aa352beb4cd]
class Trip--><rect codeLine="3" fill="#FEFECE" filter="url(#fx6y6thwg8eko)" height="172.5234" id="Trip" style="stroke:#A80036;stroke-width:1.5;" width="154" x="7" y="7"/><ellipse cx="69.25" cy="23" fill="#ADD1B2" rx="11" ry="11" style="stroke:#A80036;stroke-width:1.0;"/><path d="M67.75,24 L67.75,26 L71.75,26 L71.75,25 L71.75,24.5156 L72.375,24 L72.75,24 L73.125,24 L73.75,24.5156 L73.75,25 L73.75,28 L65.75,28 L65.2656,28 L64.75,27.375 L64.75,27 L64.75,26.625 L65.2656,26 L65.75,26 L65.75,26 L65.75,20 L65.75,20 L65.2656,20 L64.75,19.375 L64.75,19 L64.75,18.625 L65.2656,18 L65.75,18 L73.75,18 L73.75,21 L73.75,21.4844 L73.125,22 L72.75,22 L72.375,22 L71.75,21.4844 L71.75,21 L71.75,20 L67.75,20 L67.75,22 L68.75,22 L68.75,21.5156 L68.75,21.5156 L69.375,21 L69.75,21 L70.125,21 L70.75,21.5156 L70.75,22 L70.75,24 L70.75,24.4844 L70.125,25 L70.125,25 L69.75,25 L69.375,25 L68.75,24.4844 L68.75,24.4844 L68.75,24 L67.75,24 Z " fill="#000000"/><text fill="#000000" font-family="sans-serif" font-size="12" lengthAdjust="spacing" textLength="21" x="89.75" y="27.9102">Trip</text><line style="stroke:#A80036;stroke-width:1.5;" x1="8" x2="160" y1="39" y2="39"/><ellipse cx="18" cy="50" fill="#000000" rx="3" ry="3" style="stroke:#000000;stroke-width:1.0;"/><text fill="#000000" font-family="sans-serif" font-size="11" lengthAdjust="spacing" textLength="29" x="27" y="54.4189">id_trip</text><line style="stroke:#A80036;stroke-width:1.0;" x1="8" x2="160" y1="60.8359" y2="60.8359"/><ellipse cx="18" cy="71.8359" fill="#000000" rx="3" ry="3" style="stroke:#000000;stroke-width:1.0;"/><text fill="#000000" font-family="sans-serif" font-size="11" lengthAdjust="spacing" textLength="42" x="27" y="76.2549">ship_imo</text><ellipse cx="18" cy="85.6719" fill="#000000" rx="3" ry="3" style="stroke:#000000;stroke-width:1.0;"/><text fill="#000000" font-family="sans-serif" font-size="11" lengthAdjust="spacing" textLength="38" x="27" y="90.0908">id_truck</text><ellipse cx="18" cy="99.5078" fill="#000000" rx="3" ry="3" style="stroke:#000000;stroke-width:1.0;"/><text fill="#000000" font-family="sans-serif" font-size="11" lengthAdjust="spacing" textLength="61" x="27" y="103.9268">id_start_port</text><ellipse cx="18" cy="113.3438" fill="#000000" rx="3" ry="3" style="stroke:#000000;stroke-width:1.0;"/><text fill="#000000" font-family="sans-serif" font-size="11" lengthAdjust="spacing" textLength="91" x="27" y="117.7627">id_destination_port</text><ellipse cx="18" cy="127.1797" fill="#000000" rx="3" ry="3" style="stroke:#000000;stroke-width:1.0;"/><text fill="#000000" font-family="sans-serif" font-size="11" lengthAdjust="spacing" textLength="98" x="27" y="131.5986">id_start_warehouse</text><ellipse cx="18" cy="141.0156" fill="#000000" rx="3" ry="3" style="stroke:#000000;stroke-width:1.0;"/><text fill="#000000" font-family="sans-serif" font-size="11" lengthAdjust="spacing" textLength="128" x="27" y="145.4346">id_destination_warehouse</text><ellipse cx="18" cy="154.8516" fill="#000000" rx="3" ry="3" style="stroke:#000000;stroke-width:1.0;"/><text fill="#000000" font-family="sans-serif" font-size="11" lengthAdjust="spacing" textLength="74" x="27" y="159.2705">date_time_start</text><ellipse cx="18" cy="168.6875" fill="#000000" rx="3" ry="3" style="stroke:#000000;stroke-width:1.0;"/><text fill="#000000" font-family="sans-serif" font-size="11" lengthAdjust="spacing" textLength="70" x="27" y="173.1064">date_time_end</text><!--MD5=[0baaf300b4e708ac3e376d44e9cdca27]
class Cargo_Manifest--><rect codeLine="16" fill="#FEFECE" filter="url(#fx6y6thwg8eko)" height="144.8516" id="Cargo_Manifest" style="stroke:#A80036;stroke-width:1.5;" width="149" x="9.5" y="240"/><ellipse cx="38" cy="256" fill="#ADD1B2" rx="11" ry="11" style="stroke:#A80036;stroke-width:1.0;"/><path d="M36.5,257 L36.5,259 L40.5,259 L40.5,258 L40.5,257.5156 L41.125,257 L41.5,257 L41.875,257 L42.5,257.5156 L42.5,258 L42.5,261 L34.5,261 L34.0156,261 L33.5,260.375 L33.5,260 L33.5,259.625 L34.0156,259 L34.5,259 L34.5,259 L34.5,253 L34.5,253 L34.0156,253 L33.5,252.375 L33.5,252 L33.5,251.625 L34.0156,251 L34.5,251 L42.5,251 L42.5,254 L42.5,254.4844 L41.875,255 L41.5,255 L41.125,255 L40.5,254.4844 L40.5,254 L40.5,253 L36.5,253 L36.5,255 L37.5,255 L37.5,254.5156 L37.5,254.5156 L38.125,254 L38.5,254 L38.875,254 L39.5,254.5156 L39.5,255 L39.5,257 L39.5,257.4844 L38.875,258 L38.875,258 L38.5,258 L38.125,258 L37.5,257.4844 L37.5,257.4844 L37.5,257 L36.5,257 Z " fill="#000000"/><text fill="#000000" font-family="sans-serif" font-size="12" lengthAdjust="spacing" textLength="87" x="55" y="260.9102">Cargo_Manifest</text><line style="stroke:#A80036;stroke-width:1.5;" x1="10.5" x2="157.5" y1="272" y2="272"/><ellipse cx="20.5" cy="283" fill="#000000" rx="3" ry="3" style="stroke:#000000;stroke-width:1.0;"/><text fill="#000000" font-family="sans-serif" font-size="11" lengthAdjust="spacing" textLength="89" x="29.5" y="287.4189">id_cargo_manifest</text><ellipse cx="20.5" cy="296.8359" fill="#000000" rx="3" ry="3" style="stroke:#000000;stroke-width:1.0;"/><text fill="#000000" font-family="sans-serif" font-size="11" lengthAdjust="spacing" textLength="59" x="29.5" y="301.2549">id_container</text><line style="stroke:#A80036;stroke-width:1.0;" x1="10.5" x2="157.5" y1="307.6719" y2="307.6719"/><ellipse cx="20.5" cy="318.6719" fill="#000000" rx="3" ry="3" style="stroke:#000000;stroke-width:1.0;"/><text fill="#000000" font-family="sans-serif" font-size="11" lengthAdjust="spacing" textLength="29" x="29.5" y="323.0908">id_trip</text><ellipse cx="20.5" cy="332.5078" fill="#000000" rx="3" ry="3" style="stroke:#000000;stroke-width:1.0;"/><text fill="#000000" font-family="sans-serif" font-size="11" lengthAdjust="spacing" textLength="67" x="29.5" y="336.9268">position_code</text><ellipse cx="20.5" cy="346.3438" fill="#000000" rx="3" ry="3" style="stroke:#000000;stroke-width:1.0;"/><text fill="#000000" font-family="sans-serif" font-size="11" lengthAdjust="spacing" textLength="67" x="29.5" y="350.7627">cargo_weight</text><ellipse cx="20.5" cy="360.1797" fill="#000000" rx="3" ry="3" style="stroke:#000000;stroke-width:1.0;"/><text fill="#000000" font-family="sans-serif" font-size="11" lengthAdjust="spacing" textLength="123" x="29.5" y="364.5986">refrigeration_temperature</text><ellipse cx="20.5" cy="374.0156" fill="#000000" rx="3" ry="3" style="stroke:#000000;stroke-width:1.0;"/><text fill="#000000" font-family="sans-serif" font-size="11" lengthAdjust="spacing" textLength="39" x="29.5" y="378.4346">id_client</text><!--MD5=[a0bfe97ac0a38e6e74cc1c7c7b744b71]
class Port--><rect codeLine="27" fill="#FEFECE" filter="url(#fx6y6thwg8eko)" height="131.0156" id="Port" style="stroke:#A80036;stroke-width:1.5;" width="93" x="196.5" y="28"/><ellipse cx="229.05" cy="44" fill="#ADD1B2" rx="11" ry="11" style="stroke:#A80036;stroke-width:1.0;"/><path d="M227.55,45 L227.55,47 L231.55,47 L231.55,46 L231.55,45.5156 L232.175,45 L232.55,45 L232.925,45 L233.55,45.5156 L233.55,46 L233.55,49 L225.55,49 L225.0656,49 L224.55,48.375 L224.55,48 L224.55,47.625 L225.0656,47 L225.55,47 L225.55,47 L225.55,41 L225.55,41 L225.0656,41 L224.55,40.375 L224.55,40 L224.55,39.625 L225.0656,39 L225.55,39 L233.55,39 L233.55,42 L233.55,42.4844 L232.925,43 L232.55,43 L232.175,43 L231.55,42.4844 L231.55,42 L231.55,41 L227.55,41 L227.55,43 L228.55,43 L228.55,42.5156 L228.55,42.5156 L229.175,42 L229.55,42 L229.925,42 L230.55,42.5156 L230.55,43 L230.55,45 L230.55,45.4844 L229.925,46 L229.925,46 L229.55,46 L229.175,46 L228.55,45.4844 L228.55,45.4844 L228.55,45 L227.55,45 Z " fill="#000000"/><text fill="#000000" font-family="sans-serif" font-size="12" lengthAdjust="spacing" textLength="22" x="246.95" y="48.9102">Port</text><line style="stroke:#A80036;stroke-width:1.5;" x1="197.5" x2="288.5" y1="60" y2="60"/><ellipse cx="207.5" cy="71" fill="#000000" rx="3" ry="3" style="stroke:#000000;stroke-width:1.0;"/><text fill="#000000" font-family="sans-serif" font-size="11" lengthAdjust="spacing" textLength="33" x="216.5" y="75.4189">id_port</text><line style="stroke:#A80036;stroke-width:1.0;" x1="197.5" x2="288.5" y1="81.8359" y2="81.8359"/><ellipse cx="207.5" cy="92.8359" fill="#000000" rx="3" ry="3" style="stroke:#000000;stroke-width:1.0;"/><text fill="#000000" font-family="sans-serif" font-size="11" lengthAdjust="spacing" textLength="26" x="216.5" y="97.2549">name</text><ellipse cx="207.5" cy="106.6719" fill="#000000" rx="3" ry="3" style="stroke:#000000;stroke-width:1.0;"/><text fill="#000000" font-family="sans-serif" font-size="11" lengthAdjust="spacing" textLength="67" x="216.5" y="111.0908">country_code</text><ellipse cx="207.5" cy="120.5078" fill="#000000" rx="3" ry="3" style="stroke:#000000;stroke-width:1.0;"/><text fill="#000000" font-family="sans-serif" font-size="11" lengthAdjust="spacing" textLength="34" x="216.5" y="124.9268">latitude</text><ellipse cx="207.5" cy="134.3438" fill="#000000" rx="3" ry="3" style="stroke:#000000;stroke-width:1.0;"/><text fill="#000000" font-family="sans-serif" font-size="11" lengthAdjust="spacing" textLength="43" x="216.5" y="138.7627">longitude</text><ellipse cx="207.5" cy="148.1797" fill="#000000" rx="3" ry="3" style="stroke:#000000;stroke-width:1.0;"/><text fill="#000000" font-family="sans-serif" font-size="11" lengthAdjust="spacing" textLength="41" x="216.5" y="152.5986">capacity</text><!--MD5=[c5149b4909ffd2688ff51a939867f774]
class Warehouse--><rect codeLine="37" fill="#FEFECE" filter="url(#fx6y6thwg8eko)" height="144.8516" id="Warehouse" style="stroke:#A80036;stroke-width:1.5;" width="96" x="195" y="240"/><ellipse cx="210" cy="256" fill="#ADD1B2" rx="11" ry="11" style="stroke:#A80036;stroke-width:1.0;"/><path d="M208.5,257 L208.5,259 L212.5,259 L212.5,258 L212.5,257.5156 L213.125,257 L213.5,257 L213.875,257 L214.5,257.5156 L214.5,258 L214.5,261 L206.5,261 L206.0156,261 L205.5,260.375 L205.5,260 L205.5,259.625 L206.0156,259 L206.5,259 L206.5,259 L206.5,253 L206.5,253 L206.0156,253 L205.5,252.375 L205.5,252 L205.5,251.625 L206.0156,251 L206.5,251 L214.5,251 L214.5,254 L214.5,254.4844 L213.875,255 L213.5,255 L213.125,255 L212.5,254.4844 L212.5,254 L212.5,253 L208.5,253 L208.5,255 L209.5,255 L209.5,254.5156 L209.5,254.5156 L210.125,254 L210.5,254 L210.875,254 L211.5,254.5156 L211.5,255 L211.5,257 L211.5,257.4844 L210.875,258 L210.875,258 L210.5,258 L210.125,258 L209.5,257.4844 L209.5,257.4844 L209.5,257 L208.5,257 Z " fill="#000000"/><text fill="#000000" font-family="sans-serif" font-size="12" lengthAdjust="spacing" textLength="64" x="224" y="260.9102">Warehouse</text><line style="stroke:#A80036;stroke-width:1.5;" x1="196" x2="290" y1="272" y2="272"/><ellipse cx="206" cy="283" fill="#000000" rx="3" ry="3" style="stroke:#000000;stroke-width:1.0;"/><text fill="#000000" font-family="sans-serif" font-size="11" lengthAdjust="spacing" textLength="70" x="215" y="287.4189">id_warehouse</text><line style="stroke:#A80036;stroke-width:1.0;" x1="196" x2="290" y1="293.8359" y2="293.8359"/><ellipse cx="206" cy="304.8359" fill="#000000" rx="3" ry="3" style="stroke:#000000;stroke-width:1.0;"/><text fill="#000000" font-family="sans-serif" font-size="11" lengthAdjust="spacing" textLength="26" x="215" y="309.2549">name</text><ellipse cx="206" cy="318.6719" fill="#000000" rx="3" ry="3" style="stroke:#000000;stroke-width:1.0;"/><text fill="#000000" font-family="sans-serif" font-size="11" lengthAdjust="spacing" textLength="67" x="215" y="323.0908">country_code</text><ellipse cx="206" cy="332.5078" fill="#000000" rx="3" ry="3" style="stroke:#000000;stroke-width:1.0;"/><text fill="#000000" font-family="sans-serif" font-size="11" lengthAdjust="spacing" textLength="34" x="215" y="336.9268">latitude</text><ellipse cx="206" cy="346.3438" fill="#000000" rx="3" ry="3" style="stroke:#000000;stroke-width:1.0;"/><text fill="#000000" font-family="sans-serif" font-size="11" lengthAdjust="spacing" textLength="43" x="215" y="350.7627">longitude</text><ellipse cx="206" cy="360.1797" fill="#000000" rx="3" ry="3" style="stroke:#000000;stroke-width:1.0;"/><text fill="#000000" font-family="sans-serif" font-size="11" lengthAdjust="spacing" textLength="41" x="215" y="364.5986">capacity</text><ellipse cx="206" cy="374.0156" fill="#000000" rx="3" ry="3" style="stroke:#000000;stroke-width:1.0;"/><text fill="#000000" font-family="sans-serif" font-size="11" lengthAdjust="spacing" textLength="33" x="215" y="378.4346">id_port</text><!--MD5=[4458acb2b21522d24d96fa6a00f84fab]
link Port to Warehouse--><path codeLine="48" d="M243,167.16 C243,187.86 243,210.53 243,231.63 " fill="none" id="Port-Warehouse" style="stroke:#A80036;stroke-width:1.0;"/><line style="stroke:#A80036;stroke-width:1.0;" x1="243" x2="243" y1="228.63" y2="239.63"/><ellipse cx="243" cy="228.63" fill="none" rx="4" ry="4" style="stroke:#A80036;stroke-width:1.0;"/><line style="stroke:#A80036;stroke-width:1.0;" x1="247" x2="239" y1="235.63" y2="235.63"/><line style="stroke:#A80036;stroke-width:1.0;" x1="243" x2="243" y1="170.02" y2="159.02"/><ellipse cx="243" cy="170.02" fill="none" rx="4" ry="4" style="stroke:#A80036;stroke-width:1.0;"/><line style="stroke:#A80036;stroke-width:1.0;" x1="239" x2="247" y1="163.02" y2="163.02"/><!--MD5=[8ed59fe7f91556deede29c24c368e010]
link Trip to Cargo_Manifest--><path codeLine="49" d="M84,187.73 C84,202.77 84,218.21 84,232.87 " fill="none" id="Trip-Cargo_Manifest" style="stroke:#A80036;stroke-width:1.0;"/><line style="stroke:#A80036;stroke-width:1.0;" x1="88" x2="80" y1="235.99" y2="235.99"/><line style="stroke:#A80036;stroke-width:1.0;" x1="88" x2="80" y1="232.99" y2="232.99"/><line style="stroke:#A80036;stroke-width:1.0;" x1="84" x2="84" y1="231.99" y2="239.99"/><line style="stroke:#A80036;stroke-width:1.0;" x1="80" x2="88" y1="184.26" y2="184.26"/><line style="stroke:#A80036;stroke-width:1.0;" x1="80" x2="88" y1="187.26" y2="187.26"/><line style="stroke:#A80036;stroke-width:1.0;" x1="84" x2="84" y1="188.26" y2="180.26"/><!--MD5=[be783ddaa8e05bfba17242c7d5897c21]
@startuml
'https://plantuml.com/class-diagram

entity Trip {
* id_trip
- -
* ship_imo
* id_truck
* id_start_port
* id_destination_port
* id_start_warehouse
* id_destination_warehouse
* date_time_start
* date_time_end
}

entity Cargo_Manifest {
* id_cargo_manifest
* id_container
- -
* id_trip
* position_code
* cargo_weight
* refrigeration_temperature
* id_client
}

entity Port {
* id_port
- -
* name
* country_code
* latitude
* longitude
* capacity
}

entity Warehouse {
* id_warehouse
- -
* name
* country_code
* latitude
* longitude
* capacity
* id_port
}

Port |o- -o| Warehouse
Trip ||- -|| Cargo_Manifest

@enduml

@startuml

entity Trip {
* id_trip
- -
* ship_imo
* id_truck
* id_start_port
* id_destination_port
* id_start_warehouse
* id_destination_warehouse
* date_time_start
* date_time_end
}

entity Cargo_Manifest {
* id_cargo_manifest
* id_container
- -
* id_trip
* position_code
* cargo_weight
* refrigeration_temperature
* id_client
}

entity Port {
* id_port
- -
* name
* country_code
* latitude
* longitude
* capacity
}

entity Warehouse {
* id_warehouse
- -
* name
* country_code
* latitude
* longitude
* capacity
* id_port
}

Port |o- -o| Warehouse
Trip ||- -|| Cargo_Manifest

@enduml

PlantUML version 1.2021.00(Sun Jan 10 10:25:05 GMT 2021)
(GPL source distribution)
Java Runtime: OpenJDK Runtime Environment
JVM: OpenJDK 64-Bit Server VM
Default Encoding: Cp1252
Language: en
Country: GB
--></g></svg>