<?xml version="1.0" encoding="UTF-8" standalone="no"?><svg xmlns="http://www.w3.org/2000/svg" xmlns:xlink="http://www.w3.org/1999/xlink" contentScriptType="application/ecmascript" contentStyleType="text/css" height="373px" preserveAspectRatio="none" style="width:328px;height:373px;" version="1.1" viewBox="0 0 328 373" width="328px" zoomAndPan="magnify"><defs><filter height="300%" id="f14yuh5z303lsr" width="300%" x="-1" y="-1"><feGaussianBlur result="blurOut" stdDeviation="2.0"/><feColorMatrix in="blurOut" result="blurOut2" type="matrix" values="0 0 0 0 0 0 0 0 0 0 0 0 0 0 0 0 0 0 .4 0"/><feOffset dx="4.0" dy="4.0" in="blurOut2" result="blurOut3"/><feBlend in="SourceGraphic" in2="blurOut3" mode="normal"/></filter></defs><g><!--MD5=[02e4b9b7573f1156f41e60aa5b4e25a4]
class Company--><rect codeLine="7" fill="#FEFECE" filter="url(#f14yuh5z303lsr)" height="61.8359" id="Company" style="stroke:#A80036;stroke-width:1.5;" width="85" x="7" y="152.5"/><ellipse cx="22" cy="168.5" fill="#ADD1B2" rx="11" ry="11" style="stroke:#A80036;stroke-width:1.0;"/><path d="M24,165 Q24.2031,164.5 24.4375,164.25 Q24.6719,164 24.9375,164 Q25.4063,164 25.7031,164.2813 Q26,164.5625 26,165.2188 L26,166.7813 Q26,167.4375 25.7188,167.7188 Q25.4375,168 25,168 Q24.6094,168 24.3594,167.8281 Q24.1094,167.6563 24,167.2031 Q23.9531,166.8906 23.7813,166.7188 Q23.4688,166.3906 22.9063,166.2031 Q22.3438,166 21.7813,166 Q21.0781,166 20.4844,166.2813 Q19.9063,166.5625 19.4531,167.1875 Q19,167.8125 19,168.6719 L19,169.5938 Q19,170.625 19.8438,171.3125 Q20.6875,172 22.1875,172 Q23.0781,172 23.7031,171.7969 Q24.0625,171.6875 24.4688,171.3281 Q24.7344,171.125 24.875,171.0625 Q25.0156,171 25.1875,171 Q25.5156,171 25.75,171.2656 Q26,171.5156 26,171.875 Q26,172.2188 25.6563,172.625 Q25.1563,173.2188 24.3594,173.5469 Q23.3125,174 22.0313,174 Q20.5313,174 19.3281,173.4063 Q18.3594,172.9375 17.6719,171.9219 Q17,170.9063 17,169.7031 L17,168.6094 Q17,167.3594 17.5938,166.2656 Q18.2031,165.1719 19.25,164.5938 Q20.3125,164 21.5,164 Q22.2188,164 22.8438,164.25 Q23.4688,164.5 24,165 Z " fill="#000000"/><text fill="#000000" font-family="sans-serif" font-size="12" lengthAdjust="spacing" textLength="53" x="36" y="173.4102">Company</text><line style="stroke:#A80036;stroke-width:1.5;" x1="8" x2="91" y1="184.5" y2="184.5"/><text fill="#000000" font-family="sans-serif" font-size="11" lengthAdjust="spacing" textLength="60" x="13" y="199.9189">-Designation</text><line style="stroke:#A80036;stroke-width:1.5;" x1="8" x2="91" y1="206.3359" y2="206.3359"/><!--MD5=[a0bfe97ac0a38e6e74cc1c7c7b744b71]
class Port--><rect codeLine="11" fill="#FEFECE" filter="url(#f14yuh5z303lsr)" height="158.6875" id="Port" style="stroke:#A80036;stroke-width:1.5;" width="77" x="218.5" y="7"/><ellipse cx="243.85" cy="23" fill="#ADD1B2" rx="11" ry="11" style="stroke:#A80036;stroke-width:1.0;"/><path d="M245.85,19.5 Q246.0531,19 246.2875,18.75 Q246.5219,18.5 246.7875,18.5 Q247.2563,18.5 247.5531,18.7813 Q247.85,19.0625 247.85,19.7188 L247.85,21.2813 Q247.85,21.9375 247.5688,22.2188 Q247.2875,22.5 246.85,22.5 Q246.4594,22.5 246.2094,22.3281 Q245.9594,22.1563 245.85,21.7031 Q245.8031,21.3906 245.6313,21.2188 Q245.3188,20.8906 244.7563,20.7031 Q244.1938,20.5 243.6313,20.5 Q242.9281,20.5 242.3344,20.7813 Q241.7563,21.0625 241.3031,21.6875 Q240.85,22.3125 240.85,23.1719 L240.85,24.0938 Q240.85,25.125 241.6938,25.8125 Q242.5375,26.5 244.0375,26.5 Q244.9281,26.5 245.5531,26.2969 Q245.9125,26.1875 246.3188,25.8281 Q246.5844,25.625 246.725,25.5625 Q246.8656,25.5 247.0375,25.5 Q247.3656,25.5 247.6,25.7656 Q247.85,26.0156 247.85,26.375 Q247.85,26.7188 247.5063,27.125 Q247.0063,27.7188 246.2094,28.0469 Q245.1625,28.5 243.8813,28.5 Q242.3813,28.5 241.1781,27.9063 Q240.2094,27.4375 239.5219,26.4219 Q238.85,25.4063 238.85,24.2031 L238.85,23.1094 Q238.85,21.8594 239.4438,20.7656 Q240.0531,19.6719 241.1,19.0938 Q242.1625,18.5 243.35,18.5 Q244.0688,18.5 244.6938,18.75 Q245.3188,19 245.85,19.5 Z " fill="#000000"/><text fill="#000000" font-family="sans-serif" font-size="12" lengthAdjust="spacing" textLength="22" x="260.15" y="27.9102">Port</text><line style="stroke:#A80036;stroke-width:1.5;" x1="219.5" x2="294.5" y1="39" y2="39"/><text fill="#000000" font-family="sans-serif" font-size="11" lengthAdjust="spacing" textLength="64" x="224.5" y="54.4189">-Identification</text><text fill="#000000" font-family="sans-serif" font-size="11" lengthAdjust="spacing" textLength="31" x="224.5" y="68.2549">-Name</text><text fill="#000000" font-family="sans-serif" font-size="11" lengthAdjust="spacing" textLength="49" x="224.5" y="82.0908">-Continent</text><text fill="#000000" font-family="sans-serif" font-size="11" lengthAdjust="spacing" textLength="42" x="224.5" y="95.9268">-Country</text><text fill="#000000" font-family="sans-serif" font-size="11" lengthAdjust="spacing" textLength="42" x="224.5" y="109.7627">-Latitude</text><text fill="#000000" font-family="sans-serif" font-size="11" lengthAdjust="spacing" textLength="47" x="224.5" y="123.5986">-longitude</text><text fill="#000000" font-family="sans-serif" font-size="11" lengthAdjust="spacing" textLength="65" x="224.5" y="137.4346">-PortMagager</text><text fill="#000000" font-family="sans-serif" font-size="11" lengthAdjust="spacing" textLength="47" x="224.5" y="151.2705">-PortStaff</text><line style="stroke:#A80036;stroke-width:1.5;" x1="219.5" x2="294.5" y1="157.6875" y2="157.6875"/><!--MD5=[c5149b4909ffd2688ff51a939867f774]
class Warehouse--><rect codeLine="22" fill="#FEFECE" filter="url(#f14yuh5z303lsr)" height="158.6875" id="Warehouse" style="stroke:#A80036;stroke-width:1.5;" width="114" x="200" y="201"/><ellipse cx="223.1" cy="217" fill="#ADD1B2" rx="11" ry="11" style="stroke:#A80036;stroke-width:1.0;"/><path d="M225.1,213.5 Q225.3031,213 225.5375,212.75 Q225.7719,212.5 226.0375,212.5 Q226.5063,212.5 226.8031,212.7813 Q227.1,213.0625 227.1,213.7188 L227.1,215.2813 Q227.1,215.9375 226.8188,216.2188 Q226.5375,216.5 226.1,216.5 Q225.7094,216.5 225.4594,216.3281 Q225.2094,216.1563 225.1,215.7031 Q225.0531,215.3906 224.8813,215.2188 Q224.5688,214.8906 224.0063,214.7031 Q223.4438,214.5 222.8813,214.5 Q222.1781,214.5 221.5844,214.7813 Q221.0063,215.0625 220.5531,215.6875 Q220.1,216.3125 220.1,217.1719 L220.1,218.0938 Q220.1,219.125 220.9438,219.8125 Q221.7875,220.5 223.2875,220.5 Q224.1781,220.5 224.8031,220.2969 Q225.1625,220.1875 225.5688,219.8281 Q225.8344,219.625 225.975,219.5625 Q226.1156,219.5 226.2875,219.5 Q226.6156,219.5 226.85,219.7656 Q227.1,220.0156 227.1,220.375 Q227.1,220.7188 226.7563,221.125 Q226.2563,221.7188 225.4594,222.0469 Q224.4125,222.5 223.1313,222.5 Q221.6313,222.5 220.4281,221.9063 Q219.4594,221.4375 218.7719,220.4219 Q218.1,219.4063 218.1,218.2031 L218.1,217.1094 Q218.1,215.8594 218.6938,214.7656 Q219.3031,213.6719 220.35,213.0938 Q221.4125,212.5 222.6,212.5 Q223.3188,212.5 223.9438,212.75 Q224.5688,213 225.1,213.5 Z " fill="#000000"/><text fill="#000000" font-family="sans-serif" font-size="12" lengthAdjust="spacing" textLength="64" x="238.9" y="221.9102">Warehouse</text><line style="stroke:#A80036;stroke-width:1.5;" x1="201" x2="313" y1="233" y2="233"/><text fill="#000000" font-family="sans-serif" font-size="11" lengthAdjust="spacing" textLength="64" x="206" y="248.4189">-Identification</text><text fill="#000000" font-family="sans-serif" font-size="11" lengthAdjust="spacing" textLength="31" x="206" y="262.2549">-Name</text><text fill="#000000" font-family="sans-serif" font-size="11" lengthAdjust="spacing" textLength="49" x="206" y="276.0908">-Continent</text><text fill="#000000" font-family="sans-serif" font-size="11" lengthAdjust="spacing" textLength="42" x="206" y="289.9268">-Country</text><text fill="#000000" font-family="sans-serif" font-size="11" lengthAdjust="spacing" textLength="42" x="206" y="303.7627">-Latitude</text><text fill="#000000" font-family="sans-serif" font-size="11" lengthAdjust="spacing" textLength="47" x="206" y="317.5986">-longitude</text><text fill="#000000" font-family="sans-serif" font-size="11" lengthAdjust="spacing" textLength="102" x="206" y="331.4346">-WarehouseManager</text><text fill="#000000" font-family="sans-serif" font-size="11" lengthAdjust="spacing" textLength="84" x="206" y="345.2705">-WarehouseStaff</text><line style="stroke:#A80036;stroke-width:1.5;" x1="201" x2="313" y1="351.6875" y2="351.6875"/><!--MD5=[5fd98a8c03cc0e5a408f548eb1c0ace8]
link Company to Port--><path codeLine="33" d="M92.09,163.87 C129.03,146.43 182.56,121.17 218.28,104.3 " fill="none" id="Company-Port" style="stroke:#A80036;stroke-width:1.0;"/><polygon fill="#000000" points="131.5215,118.5413,122.0874,119.7449,124.5966,125.0603,131.5215,118.5413" style="stroke:#000000;stroke-width:1.0;"/><text fill="#000000" font-family="sans-serif" font-size="13" lengthAdjust="spacing" textLength="33" x="136" y="125.9951">Owns</text><text fill="#000000" font-family="sans-serif" font-size="13" lengthAdjust="spacing" textLength="7" x="100.0117" y="175.4105">1</text><text fill="#000000" font-family="sans-serif" font-size="13" lengthAdjust="spacing" textLength="5" x="205.4224" y="122.7765">*</text><!--MD5=[acda98ef2513d819683ba761a9c77b11]
link Company to Warehouse--><path codeLine="34" d="M92.09,203.13 C123.05,217.74 165.66,237.86 199.68,253.91 " fill="none" id="Company-Warehouse" style="stroke:#A80036;stroke-width:1.0;"/><polygon fill="#000000" points="131.5217,211.8099,124.5963,205.2915,122.0875,210.607,131.5217,211.8099" style="stroke:#000000;stroke-width:1.0;"/><text fill="#000000" font-family="sans-serif" font-size="13" lengthAdjust="spacing" textLength="33" x="136" y="214.9951">Owns</text><text fill="#000000" font-family="sans-serif" font-size="13" lengthAdjust="spacing" textLength="7" x="100.0117" y="221.4183">1</text><text fill="#000000" font-family="sans-serif" font-size="13" lengthAdjust="spacing" textLength="5" x="187.0156" y="265.0658">*</text><!--MD5=[f316d58c98235e0e725e9a0be46b51ae]
@startuml
'https://plantuml.com/class-diagram

skinparam classAttributeIconSize 0

left to right direction

class Company {
-Designation
}

class Port {
-Identification
-Name
-Continent
-Country
-Latitude
-longitude
-PortMagager
-PortStaff
}

class Warehouse {
-Identification
-Name
-Continent
-Country
-Latitude
-longitude
-WarehouseManager
-WarehouseStaff
}

Company "1" - - "*" Port : Owns >
Company "1" - - "*" Warehouse : Owns >

@enduml

@startuml

skinparam classAttributeIconSize 0

left to right direction

class Company {
-Designation
}

class Port {
-Identification
-Name
-Continent
-Country
-Latitude
-longitude
-PortMagager
-PortStaff
}

class Warehouse {
-Identification
-Name
-Continent
-Country
-Latitude
-longitude
-WarehouseManager
-WarehouseStaff
}

Company "1" - - "*" Port : Owns >
Company "1" - - "*" Warehouse : Owns >

@enduml

PlantUML version 1.2021.00(Sun Jan 10 10:25:05 GMT 2021)
(GPL source distribution)
Java Runtime: OpenJDK Runtime Environment
JVM: OpenJDK 64-Bit Server VM
Default Encoding: Cp1252
Language: en
Country: GB
--></g></svg>