<?xml version="1.0" encoding="UTF-8" standalone="no"?><svg xmlns="http://www.w3.org/2000/svg" xmlns:xlink="http://www.w3.org/1999/xlink" contentScriptType="application/ecmascript" contentStyleType="text/css" height="268px" preserveAspectRatio="none" style="width:436px;height:268px;" version="1.1" viewBox="0 0 436 268" width="436px" zoomAndPan="magnify"><defs><filter height="300%" id="fyfv202wmgjnx" width="300%" x="-1" y="-1"><feGaussianBlur result="blurOut" stdDeviation="2.0"/><feColorMatrix in="blurOut" result="blurOut2" type="matrix" values="0 0 0 0 0 0 0 0 0 0 0 0 0 0 0 0 0 0 .4 0"/><feOffset dx="4.0" dy="4.0" in="blurOut2" result="blurOut3"/><feBlend in="SourceGraphic" in2="blurOut3" mode="normal"/></filter></defs><g><rect fill="#FFFFFF" filter="url(#fyfv202wmgjnx)" height="58.7031" style="stroke:#A80036;stroke-width:1.0;" width="10" x="53" y="99.6094"/><rect fill="#FFFFFF" filter="url(#fyfv202wmgjnx)" height="36.3516" style="stroke:#A80036;stroke-width:1.0;" width="10" x="266" y="121.9609"/><line style="stroke:#A80036;stroke-width:1.0;stroke-dasharray:5.0,5.0;" x1="58" x2="58" y1="89.6094" y2="183.3125"/><line style="stroke:#A80036;stroke-width:1.0;stroke-dasharray:5.0,5.0;" x1="271" x2="271" y1="89.6094" y2="183.3125"/><text fill="#000000" font-family="sans-serif" font-size="14" lengthAdjust="spacing" textLength="100" x="5" y="86.5332">Traffic Manager</text><ellipse cx="58" cy="15" fill="#FEFECE" filter="url(#fyfv202wmgjnx)" rx="8" ry="8" style="stroke:#A80036;stroke-width:2.0;"/><path d="M58,23 L58,50 M45,31 L71,31 M58,50 L45,65 M58,50 L71,65 " fill="none" filter="url(#fyfv202wmgjnx)" style="stroke:#A80036;stroke-width:2.0;"/><text fill="#000000" font-family="sans-serif" font-size="14" lengthAdjust="spacing" textLength="100" x="5" y="196.8457">Traffic Manager</text><ellipse cx="58" cy="209.9219" fill="#FEFECE" filter="url(#fyfv202wmgjnx)" rx="8" ry="8" style="stroke:#A80036;stroke-width:2.0;"/><path d="M58,217.9219 L58,244.9219 M45,225.9219 L71,225.9219 M58,244.9219 L45,259.9219 M58,244.9219 L71,259.9219 " fill="none" filter="url(#fyfv202wmgjnx)" style="stroke:#A80036;stroke-width:2.0;"/><rect fill="#FEFECE" filter="url(#fyfv202wmgjnx)" height="31.6094" style="stroke:#A80036;stroke-width:1.5;" width="64" x="237" y="53"/><text fill="#000000" font-family="sans-serif" font-size="14" lengthAdjust="spacing" textLength="50" x="244" y="74.5332">:System</text><rect fill="#FEFECE" filter="url(#fyfv202wmgjnx)" height="31.6094" style="stroke:#A80036;stroke-width:1.5;" width="64" x="237" y="182.3125"/><text fill="#000000" font-family="sans-serif" font-size="14" lengthAdjust="spacing" textLength="50" x="244" y="203.8457">:System</text><rect fill="#FFFFFF" filter="url(#fyfv202wmgjnx)" height="58.7031" style="stroke:#A80036;stroke-width:1.0;" width="10" x="53" y="99.6094"/><rect fill="#FFFFFF" filter="url(#fyfv202wmgjnx)" height="36.3516" style="stroke:#A80036;stroke-width:1.0;" width="10" x="266" y="121.9609"/><polygon fill="#A80036" points="254,117.9609,264,121.9609,254,125.9609,258,121.9609" style="stroke:#A80036;stroke-width:1.0;"/><line style="stroke:#A80036;stroke-width:1.0;" x1="63" x2="260" y1="121.9609" y2="121.9609"/><text fill="#000000" font-family="sans-serif" font-size="13" font-weight="bold" lengthAdjust="spacing" textLength="7" x="70" y="117.1045">1</text><text fill="#000000" font-family="sans-serif" font-size="13" lengthAdjust="spacing" textLength="173" x="81" y="117.1045">asks to build a freight network</text><line style="stroke:#A80036;stroke-width:1.0;stroke-dasharray:2.0,2.0;" x1="276" x2="318" y1="157.3125" y2="157.3125"/><line style="stroke:#A80036;stroke-width:1.0;stroke-dasharray:2.0,2.0;" x1="318" x2="318" y1="157.3125" y2="170.3125"/><line style="stroke:#A80036;stroke-width:1.0;stroke-dasharray:2.0,2.0;" x1="271" x2="318" y1="170.3125" y2="170.3125"/><polygon fill="#A80036" points="281,166.3125,271,170.3125,281,174.3125,277,170.3125" style="stroke:#A80036;stroke-width:1.0;"/><text fill="#000000" font-family="sans-serif" font-size="13" font-weight="bold" lengthAdjust="spacing" textLength="7" x="283" y="152.4561">2</text><text fill="#000000" font-family="sans-serif" font-size="13" lengthAdjust="spacing" textLength="135" x="294" y="152.4561">Builds a freight network</text><!--MD5=[fcdfe9ad79f62ee6f0db1ca8a2adee38]
@startuml
'https://plantuml.com/sequence-diagram

autonumber

actor "Traffic Manager" as TM

activate TM
TM -> ":System" : asks to build a freight network

activate ":System"
":System" - -> ":System" : Builds a freight network
deactivate ":System"

deactivate TM

@enduml

@startuml

autonumber

actor "Traffic Manager" as TM

activate TM
TM -> ":System" : asks to build a freight network

activate ":System"
":System" - -> ":System" : Builds a freight network
deactivate ":System"

deactivate TM

@enduml

PlantUML version 1.2021.00(Sun Jan 10 10:25:05 GMT 2021)
(GPL source distribution)
Java Runtime: OpenJDK Runtime Environment
JVM: OpenJDK 64-Bit Server VM
Default Encoding: Cp1252
Language: en
Country: GB
--></g></svg>