<?xml version="1.0" encoding="UTF-8" standalone="no"?><svg xmlns="http://www.w3.org/2000/svg" xmlns:xlink="http://www.w3.org/1999/xlink" contentScriptType="application/ecmascript" contentStyleType="text/css" height="373px" preserveAspectRatio="none" style="width:427px;height:373px;" version="1.1" viewBox="0 0 427 373" width="427px" zoomAndPan="magnify"><defs><filter height="300%" id="fsh2j46h65yg" width="300%" x="-1" y="-1"><feGaussianBlur result="blurOut" stdDeviation="2.0"/><feColorMatrix in="blurOut" result="blurOut2" type="matrix" values="0 0 0 0 0 0 0 0 0 0 0 0 0 0 0 0 0 0 .4 0"/><feOffset dx="4.0" dy="4.0" in="blurOut2" result="blurOut3"/><feBlend in="SourceGraphic" in2="blurOut3" mode="normal"/></filter></defs><g><!--MD5=[02e4b9b7573f1156f41e60aa5b4e25a4]
class Company--><rect codeLine="5" fill="#FEFECE" filter="url(#fsh2j46h65yg)" height="61.8359" id="Company" style="stroke:#A80036;stroke-width:1.5;" width="85" x="7" y="220.5"/><ellipse cx="22" cy="236.5" fill="#ADD1B2" rx="11" ry="11" style="stroke:#A80036;stroke-width:1.0;"/><path d="M24,233 Q24.2031,232.5 24.4375,232.25 Q24.6719,232 24.9375,232 Q25.4063,232 25.7031,232.2813 Q26,232.5625 26,233.2188 L26,234.7813 Q26,235.4375 25.7188,235.7188 Q25.4375,236 25,236 Q24.6094,236 24.3594,235.8281 Q24.1094,235.6563 24,235.2031 Q23.9531,234.8906 23.7813,234.7188 Q23.4688,234.3906 22.9063,234.2031 Q22.3438,234 21.7813,234 Q21.0781,234 20.4844,234.2813 Q19.9063,234.5625 19.4531,235.1875 Q19,235.8125 19,236.6719 L19,237.5938 Q19,238.625 19.8438,239.3125 Q20.6875,240 22.1875,240 Q23.0781,240 23.7031,239.7969 Q24.0625,239.6875 24.4688,239.3281 Q24.7344,239.125 24.875,239.0625 Q25.0156,239 25.1875,239 Q25.5156,239 25.75,239.2656 Q26,239.5156 26,239.875 Q26,240.2188 25.6563,240.625 Q25.1563,241.2188 24.3594,241.5469 Q23.3125,242 22.0313,242 Q20.5313,242 19.3281,241.4063 Q18.3594,240.9375 17.6719,239.9219 Q17,238.9063 17,237.7031 L17,236.6094 Q17,235.3594 17.5938,234.2656 Q18.2031,233.1719 19.25,232.5938 Q20.3125,232 21.5,232 Q22.2188,232 22.8438,232.25 Q23.4688,232.5 24,233 Z " fill="#000000"/><text fill="#000000" font-family="sans-serif" font-size="12" lengthAdjust="spacing" textLength="53" x="36" y="241.4102">Company</text><line style="stroke:#A80036;stroke-width:1.5;" x1="8" x2="91" y1="252.5" y2="252.5"/><text fill="#000000" font-family="sans-serif" font-size="11" lengthAdjust="spacing" textLength="60" x="13" y="267.9189">-Designation</text><line style="stroke:#A80036;stroke-width:1.5;" x1="8" x2="91" y1="274.3359" y2="274.3359"/><!--MD5=[deb4e1f6eb1e3c1256fdb830f96abfbb]
class Country--><rect codeLine="11" fill="#FEFECE" filter="url(#fsh2j46h65yg)" height="158.6875" id="Country" style="stroke:#A80036;stroke-width:1.5;" width="79" x="204" y="7"/><ellipse cx="221.25" cy="23" fill="#ADD1B2" rx="11" ry="11" style="stroke:#A80036;stroke-width:1.0;"/><path d="M223.25,19.5 Q223.4531,19 223.6875,18.75 Q223.9219,18.5 224.1875,18.5 Q224.6563,18.5 224.9531,18.7813 Q225.25,19.0625 225.25,19.7188 L225.25,21.2813 Q225.25,21.9375 224.9688,22.2188 Q224.6875,22.5 224.25,22.5 Q223.8594,22.5 223.6094,22.3281 Q223.3594,22.1563 223.25,21.7031 Q223.2031,21.3906 223.0313,21.2188 Q222.7188,20.8906 222.1563,20.7031 Q221.5938,20.5 221.0313,20.5 Q220.3281,20.5 219.7344,20.7813 Q219.1563,21.0625 218.7031,21.6875 Q218.25,22.3125 218.25,23.1719 L218.25,24.0938 Q218.25,25.125 219.0938,25.8125 Q219.9375,26.5 221.4375,26.5 Q222.3281,26.5 222.9531,26.2969 Q223.3125,26.1875 223.7188,25.8281 Q223.9844,25.625 224.125,25.5625 Q224.2656,25.5 224.4375,25.5 Q224.7656,25.5 225,25.7656 Q225.25,26.0156 225.25,26.375 Q225.25,26.7188 224.9063,27.125 Q224.4063,27.7188 223.6094,28.0469 Q222.5625,28.5 221.2813,28.5 Q219.7813,28.5 218.5781,27.9063 Q217.6094,27.4375 216.9219,26.4219 Q216.25,25.4063 216.25,24.2031 L216.25,23.1094 Q216.25,21.8594 216.8438,20.7656 Q217.4531,19.6719 218.5,19.0938 Q219.5625,18.5 220.75,18.5 Q221.4688,18.5 222.0938,18.75 Q222.7188,19 223.25,19.5 Z " fill="#000000"/><text fill="#000000" font-family="sans-serif" font-size="12" lengthAdjust="spacing" textLength="42" x="235.75" y="27.9102">Country</text><line style="stroke:#A80036;stroke-width:1.5;" x1="205" x2="282" y1="39" y2="39"/><text fill="#000000" font-family="sans-serif" font-size="11" lengthAdjust="spacing" textLength="49" x="210" y="54.4189">-Continent</text><text fill="#000000" font-family="sans-serif" font-size="11" lengthAdjust="spacing" textLength="67" x="210" y="68.2549">-Alpha2-Code</text><text fill="#000000" font-family="sans-serif" font-size="11" lengthAdjust="spacing" textLength="67" x="210" y="82.0908">-Alpha3-Code</text><text fill="#000000" font-family="sans-serif" font-size="11" lengthAdjust="spacing" textLength="42" x="210" y="95.9268">-Country</text><text fill="#000000" font-family="sans-serif" font-size="11" lengthAdjust="spacing" textLength="53" x="210" y="109.7627">-Population</text><text fill="#000000" font-family="sans-serif" font-size="11" lengthAdjust="spacing" textLength="36" x="210" y="123.5986">-Capital</text><text fill="#000000" font-family="sans-serif" font-size="11" lengthAdjust="spacing" textLength="42" x="210" y="137.4346">-Latitude</text><text fill="#000000" font-family="sans-serif" font-size="11" lengthAdjust="spacing" textLength="51" x="210" y="151.2705">-Longitude</text><line style="stroke:#A80036;stroke-width:1.5;" x1="205" x2="282" y1="157.6875" y2="157.6875"/><!--MD5=[a0336aaa8110b78d9cacadb9d45e00a3]
class Border--><rect codeLine="22" fill="#FEFECE" filter="url(#fsh2j46h65yg)" height="75.6719" id="Border" style="stroke:#A80036;stroke-width:1.5;" width="69" x="344" y="48.5"/><ellipse cx="359" cy="64.5" fill="#ADD1B2" rx="11" ry="11" style="stroke:#A80036;stroke-width:1.0;"/><path d="M361,61 Q361.2031,60.5 361.4375,60.25 Q361.6719,60 361.9375,60 Q362.4063,60 362.7031,60.2813 Q363,60.5625 363,61.2188 L363,62.7813 Q363,63.4375 362.7188,63.7188 Q362.4375,64 362,64 Q361.6094,64 361.3594,63.8281 Q361.1094,63.6563 361,63.2031 Q360.9531,62.8906 360.7813,62.7188 Q360.4688,62.3906 359.9063,62.2031 Q359.3438,62 358.7813,62 Q358.0781,62 357.4844,62.2813 Q356.9063,62.5625 356.4531,63.1875 Q356,63.8125 356,64.6719 L356,65.5938 Q356,66.625 356.8438,67.3125 Q357.6875,68 359.1875,68 Q360.0781,68 360.7031,67.7969 Q361.0625,67.6875 361.4688,67.3281 Q361.7344,67.125 361.875,67.0625 Q362.0156,67 362.1875,67 Q362.5156,67 362.75,67.2656 Q363,67.5156 363,67.875 Q363,68.2188 362.6563,68.625 Q362.1563,69.2188 361.3594,69.5469 Q360.3125,70 359.0313,70 Q357.5313,70 356.3281,69.4063 Q355.3594,68.9375 354.6719,67.9219 Q354,66.9063 354,65.7031 L354,64.6094 Q354,63.3594 354.5938,62.2656 Q355.2031,61.1719 356.25,60.5938 Q357.3125,60 358.5,60 Q359.2188,60 359.8438,60.25 Q360.4688,60.5 361,61 Z " fill="#000000"/><text fill="#000000" font-family="sans-serif" font-size="12" lengthAdjust="spacing" textLength="37" x="373" y="69.4102">Border</text><line style="stroke:#A80036;stroke-width:1.5;" x1="345" x2="412" y1="80.5" y2="80.5"/><text fill="#000000" font-family="sans-serif" font-size="11" lengthAdjust="spacing" textLength="48" x="350" y="95.9189">-Country1</text><text fill="#000000" font-family="sans-serif" font-size="11" lengthAdjust="spacing" textLength="48" x="350" y="109.7549">-Country2</text><line style="stroke:#A80036;stroke-width:1.5;" x1="345" x2="412" y1="116.1719" y2="116.1719"/><!--MD5=[a0bfe97ac0a38e6e74cc1c7c7b744b71]
class Port--><rect codeLine="27" fill="#FEFECE" filter="url(#fsh2j46h65yg)" height="158.6875" id="Port" style="stroke:#A80036;stroke-width:1.5;" width="77" x="205" y="201"/><ellipse cx="230.35" cy="217" fill="#ADD1B2" rx="11" ry="11" style="stroke:#A80036;stroke-width:1.0;"/><path d="M232.35,213.5 Q232.5531,213 232.7875,212.75 Q233.0219,212.5 233.2875,212.5 Q233.7563,212.5 234.0531,212.7813 Q234.35,213.0625 234.35,213.7188 L234.35,215.2813 Q234.35,215.9375 234.0688,216.2188 Q233.7875,216.5 233.35,216.5 Q232.9594,216.5 232.7094,216.3281 Q232.4594,216.1563 232.35,215.7031 Q232.3031,215.3906 232.1313,215.2188 Q231.8188,214.8906 231.2563,214.7031 Q230.6938,214.5 230.1313,214.5 Q229.4281,214.5 228.8344,214.7813 Q228.2563,215.0625 227.8031,215.6875 Q227.35,216.3125 227.35,217.1719 L227.35,218.0938 Q227.35,219.125 228.1938,219.8125 Q229.0375,220.5 230.5375,220.5 Q231.4281,220.5 232.0531,220.2969 Q232.4125,220.1875 232.8188,219.8281 Q233.0844,219.625 233.225,219.5625 Q233.3656,219.5 233.5375,219.5 Q233.8656,219.5 234.1,219.7656 Q234.35,220.0156 234.35,220.375 Q234.35,220.7188 234.0063,221.125 Q233.5063,221.7188 232.7094,222.0469 Q231.6625,222.5 230.3813,222.5 Q228.8813,222.5 227.6781,221.9063 Q226.7094,221.4375 226.0219,220.4219 Q225.35,219.4063 225.35,218.2031 L225.35,217.1094 Q225.35,215.8594 225.9438,214.7656 Q226.5531,213.6719 227.6,213.0938 Q228.6625,212.5 229.85,212.5 Q230.5688,212.5 231.1938,212.75 Q231.8188,213 232.35,213.5 Z " fill="#000000"/><text fill="#000000" font-family="sans-serif" font-size="12" lengthAdjust="spacing" textLength="22" x="246.65" y="221.9102">Port</text><line style="stroke:#A80036;stroke-width:1.5;" x1="206" x2="281" y1="233" y2="233"/><text fill="#000000" font-family="sans-serif" font-size="11" lengthAdjust="spacing" textLength="64" x="211" y="248.4189">-Identification</text><text fill="#000000" font-family="sans-serif" font-size="11" lengthAdjust="spacing" textLength="31" x="211" y="262.2549">-Name</text><text fill="#000000" font-family="sans-serif" font-size="11" lengthAdjust="spacing" textLength="49" x="211" y="276.0908">-Continent</text><text fill="#000000" font-family="sans-serif" font-size="11" lengthAdjust="spacing" textLength="42" x="211" y="289.9268">-Country</text><text fill="#000000" font-family="sans-serif" font-size="11" lengthAdjust="spacing" textLength="42" x="211" y="303.7627">-Latitude</text><text fill="#000000" font-family="sans-serif" font-size="11" lengthAdjust="spacing" textLength="47" x="211" y="317.5986">-longitude</text><text fill="#000000" font-family="sans-serif" font-size="11" lengthAdjust="spacing" textLength="65" x="211" y="331.4346">-PortMagager</text><text fill="#000000" font-family="sans-serif" font-size="11" lengthAdjust="spacing" textLength="47" x="211" y="345.2705">-PortStaff</text><line style="stroke:#A80036;stroke-width:1.5;" x1="206" x2="281" y1="351.6875" y2="351.6875"/><!--MD5=[5fd98a8c03cc0e5a408f548eb1c0ace8]
link Company to Port--><path codeLine="38" d="M92.16,257.79 C125.69,262.86 172.4,269.91 204.82,274.81 " fill="none" id="Company-Port" style="stroke:#A80036;stroke-width:1.0;"/><polygon fill="#000000" points="133.9439,254.4227,125.4393,250.1656,124.5613,255.9775,133.9439,254.4227" style="stroke:#000000;stroke-width:1.0;"/><text fill="#000000" font-family="sans-serif" font-size="13" lengthAdjust="spacing" textLength="33" x="138" y="258.9951">Owns</text><text fill="#000000" font-family="sans-serif" font-size="13" lengthAdjust="spacing" textLength="7" x="100.0938" y="273.7855">1</text><text fill="#000000" font-family="sans-serif" font-size="13" lengthAdjust="spacing" textLength="5" x="191.9701" y="288.8088">*</text><!--MD5=[da7744a491085abf6337b551ad49e0b8]
link Company to Country--><path codeLine="39" d="M86.61,220.46 C120.07,191.71 169.69,149.07 203.91,119.66 " fill="none" id="Company-Country" style="stroke:#A80036;stroke-width:1.0;"/><polygon fill="#000000" points="130.7922,136.417,122.0166,140.0832,125.8475,144.5411,130.7922,136.417" style="stroke:#000000;stroke-width:1.0;"/><text fill="#000000" font-family="sans-serif" font-size="13" lengthAdjust="spacing" textLength="37" x="136" y="144.9951">knows</text><text fill="#000000" font-family="sans-serif" font-size="13" lengthAdjust="spacing" textLength="7" x="86.9622" y="209.4715">1</text><text fill="#000000" font-family="sans-serif" font-size="13" lengthAdjust="spacing" textLength="5" x="190.8866" y="141.0645">*</text><!--MD5=[553c71e238892de64676e9482c62727a]
link Country to Border--><path codeLine="40" d="M283.33,86.5 C302.49,86.5 325.4,86.5 343.82,86.5 " fill="none" id="Country-Border" style="stroke:#A80036;stroke-width:1.0;"/><text fill="#000000" font-family="sans-serif" font-size="13" lengthAdjust="spacing" textLength="7" x="291.0482" y="101.4793">1</text><text fill="#000000" font-family="sans-serif" font-size="13" lengthAdjust="spacing" textLength="5" x="331.1516" y="101.7152">*</text><!--MD5=[ee46d6609eaa4e93e66423adee734a96]
@startuml
'https://plantuml.com/class-diagram

skinparam classAttributeIconSize 0

class Company {
-Designation
}

left to right direction

class Country {
-Continent
-Alpha2-Code
-Alpha3-Code
-Country
-Population
-Capital
-Latitude
-Longitude
}

class Border {
-Country1
-Country2
}

class Port {
-Identification
-Name
-Continent
-Country
-Latitude
-longitude
-PortMagager
-PortStaff
}

Company "1" - - "*" Port : Owns >
Company "1" - - "*" Country : knows >
Country "1" - - "*" Border

@enduml

@startuml

skinparam classAttributeIconSize 0

class Company {
-Designation
}

left to right direction

class Country {
-Continent
-Alpha2-Code
-Alpha3-Code
-Country
-Population
-Capital
-Latitude
-Longitude
}

class Border {
-Country1
-Country2
}

class Port {
-Identification
-Name
-Continent
-Country
-Latitude
-longitude
-PortMagager
-PortStaff
}

Company "1" - - "*" Port : Owns >
Company "1" - - "*" Country : knows >
Country "1" - - "*" Border

@enduml

PlantUML version 1.2021.00(Sun Jan 10 10:25:05 GMT 2021)
(GPL source distribution)
Java Runtime: OpenJDK Runtime Environment
JVM: OpenJDK 64-Bit Server VM
Default Encoding: Cp1252
Language: en
Country: GB
--></g></svg>