<?xml version="1.0" encoding="UTF-8" standalone="no"?><svg xmlns="http://www.w3.org/2000/svg" xmlns:xlink="http://www.w3.org/1999/xlink" contentScriptType="application/ecmascript" contentStyleType="text/css" height="110px" preserveAspectRatio="none" style="width:984px;height:110px;" version="1.1" viewBox="0 0 984 110" width="984px" zoomAndPan="magnify"><defs><filter height="300%" id="f1afy7xtqnz78d" width="300%" x="-1" y="-1"><feGaussianBlur result="blurOut" stdDeviation="2.0"/><feColorMatrix in="blurOut" result="blurOut2" type="matrix" values="0 0 0 0 0 0 0 0 0 0 0 0 0 0 0 0 0 0 .4 0"/><feOffset dx="4.0" dy="4.0" in="blurOut2" result="blurOut3"/><feBlend in="SourceGraphic" in2="blurOut3" mode="normal"/></filter></defs><g><!--MD5=[6f691db121c7c21e127853ede8e97913]
class ShipPairsUI--><rect codeLine="5" fill="#FEFECE" filter="url(#f1afy7xtqnz78d)" height="61.8359" id="ShipPairsUI" style="stroke:#A80036;stroke-width:1.5;" width="98" x="7" y="21"/><ellipse cx="22" cy="37" fill="#ADD1B2" rx="11" ry="11" style="stroke:#A80036;stroke-width:1.0;"/><path d="M24,33.5 Q24.2031,33 24.4375,32.75 Q24.6719,32.5 24.9375,32.5 Q25.4063,32.5 25.7031,32.7813 Q26,33.0625 26,33.7188 L26,35.2813 Q26,35.9375 25.7188,36.2188 Q25.4375,36.5 25,36.5 Q24.6094,36.5 24.3594,36.3281 Q24.1094,36.1563 24,35.7031 Q23.9531,35.3906 23.7813,35.2188 Q23.4688,34.8906 22.9063,34.7031 Q22.3438,34.5 21.7813,34.5 Q21.0781,34.5 20.4844,34.7813 Q19.9063,35.0625 19.4531,35.6875 Q19,36.3125 19,37.1719 L19,38.0938 Q19,39.125 19.8438,39.8125 Q20.6875,40.5 22.1875,40.5 Q23.0781,40.5 23.7031,40.2969 Q24.0625,40.1875 24.4688,39.8281 Q24.7344,39.625 24.875,39.5625 Q25.0156,39.5 25.1875,39.5 Q25.5156,39.5 25.75,39.7656 Q26,40.0156 26,40.375 Q26,40.7188 25.6563,41.125 Q25.1563,41.7188 24.3594,42.0469 Q23.3125,42.5 22.0313,42.5 Q20.5313,42.5 19.3281,41.9063 Q18.3594,41.4375 17.6719,40.4219 Q17,39.4063 17,38.2031 L17,37.1094 Q17,35.8594 17.5938,34.7656 Q18.2031,33.6719 19.25,33.0938 Q20.3125,32.5 21.5,32.5 Q22.2188,32.5 22.8438,32.75 Q23.4688,33 24,33.5 Z " fill="#000000"/><text fill="#000000" font-family="sans-serif" font-size="12" lengthAdjust="spacing" textLength="66" x="36" y="41.9102">ShipPairsUI</text><line style="stroke:#A80036;stroke-width:1.5;" x1="8" x2="104" y1="53" y2="53"/><rect fill="none" height="6" style="stroke:#C82930;stroke-width:1.0;" width="6" x="15" y="61"/><text fill="#000000" font-family="sans-serif" font-size="11" lengthAdjust="spacing" textLength="45" x="27" y="68.4189">controller</text><line style="stroke:#A80036;stroke-width:1.5;" x1="8" x2="104" y1="74.8359" y2="74.8359"/><!--MD5=[ad7c043a1e9b10d0aa8eac1e5b318496]
class ShipPairsController--><rect codeLine="9" fill="#FEFECE" filter="url(#f1afy7xtqnz78d)" height="75.6719" id="ShipPairsController" style="stroke:#A80036;stroke-width:1.5;" width="140" x="165" y="14"/><ellipse cx="180" cy="30" fill="#ADD1B2" rx="11" ry="11" style="stroke:#A80036;stroke-width:1.0;"/><path d="M182,26.5 Q182.2031,26 182.4375,25.75 Q182.6719,25.5 182.9375,25.5 Q183.4063,25.5 183.7031,25.7813 Q184,26.0625 184,26.7188 L184,28.2813 Q184,28.9375 183.7188,29.2188 Q183.4375,29.5 183,29.5 Q182.6094,29.5 182.3594,29.3281 Q182.1094,29.1563 182,28.7031 Q181.9531,28.3906 181.7813,28.2188 Q181.4688,27.8906 180.9063,27.7031 Q180.3438,27.5 179.7813,27.5 Q179.0781,27.5 178.4844,27.7813 Q177.9063,28.0625 177.4531,28.6875 Q177,29.3125 177,30.1719 L177,31.0938 Q177,32.125 177.8438,32.8125 Q178.6875,33.5 180.1875,33.5 Q181.0781,33.5 181.7031,33.2969 Q182.0625,33.1875 182.4688,32.8281 Q182.7344,32.625 182.875,32.5625 Q183.0156,32.5 183.1875,32.5 Q183.5156,32.5 183.75,32.7656 Q184,33.0156 184,33.375 Q184,33.7188 183.6563,34.125 Q183.1563,34.7188 182.3594,35.0469 Q181.3125,35.5 180.0313,35.5 Q178.5313,35.5 177.3281,34.9063 Q176.3594,34.4375 175.6719,33.4219 Q175,32.4063 175,31.2031 L175,30.1094 Q175,28.8594 175.5938,27.7656 Q176.2031,26.6719 177.25,26.0938 Q178.3125,25.5 179.5,25.5 Q180.2188,25.5 180.8438,25.75 Q181.4688,26 182,26.5 Z " fill="#000000"/><text fill="#000000" font-family="sans-serif" font-size="12" lengthAdjust="spacing" textLength="108" x="194" y="34.9102">ShipPairsController</text><line style="stroke:#A80036;stroke-width:1.5;" x1="166" x2="304" y1="46" y2="46"/><rect fill="none" height="6" style="stroke:#C82930;stroke-width:1.0;" width="6" x="173" y="54"/><text fill="#000000" font-family="sans-serif" font-size="11" lengthAdjust="spacing" textLength="41" x="185" y="61.4189">ShipBST</text><line style="stroke:#A80036;stroke-width:1.5;" x1="166" x2="304" y1="67.8359" y2="67.8359"/><ellipse cx="176" cy="78.8359" fill="#84BE84" rx="3" ry="3" style="stroke:#038048;stroke-width:1.0;"/><text fill="#000000" font-family="sans-serif" font-size="11" lengthAdjust="spacing" textLength="68" x="185" y="83.2549">getShipPairs()</text><!--MD5=[95f401ea9d0c63da0b3e1cc781f0d3e9]
class ShipBST--><rect codeLine="14" fill="#FEFECE" filter="url(#f1afy7xtqnz78d)" height="61.8359" id="ShipBST" style="stroke:#A80036;stroke-width:1.5;" width="94" x="365" y="21"/><ellipse cx="386.3" cy="37" fill="#ADD1B2" rx="11" ry="11" style="stroke:#A80036;stroke-width:1.0;"/><path d="M388.3,33.5 Q388.5031,33 388.7375,32.75 Q388.9719,32.5 389.2375,32.5 Q389.7063,32.5 390.0031,32.7813 Q390.3,33.0625 390.3,33.7188 L390.3,35.2813 Q390.3,35.9375 390.0188,36.2188 Q389.7375,36.5 389.3,36.5 Q388.9094,36.5 388.6594,36.3281 Q388.4094,36.1563 388.3,35.7031 Q388.2531,35.3906 388.0813,35.2188 Q387.7688,34.8906 387.2063,34.7031 Q386.6438,34.5 386.0813,34.5 Q385.3781,34.5 384.7844,34.7813 Q384.2063,35.0625 383.7531,35.6875 Q383.3,36.3125 383.3,37.1719 L383.3,38.0938 Q383.3,39.125 384.1438,39.8125 Q384.9875,40.5 386.4875,40.5 Q387.3781,40.5 388.0031,40.2969 Q388.3625,40.1875 388.7688,39.8281 Q389.0344,39.625 389.175,39.5625 Q389.3156,39.5 389.4875,39.5 Q389.8156,39.5 390.05,39.7656 Q390.3,40.0156 390.3,40.375 Q390.3,40.7188 389.9563,41.125 Q389.4563,41.7188 388.6594,42.0469 Q387.6125,42.5 386.3313,42.5 Q384.8313,42.5 383.6281,41.9063 Q382.6594,41.4375 381.9719,40.4219 Q381.3,39.4063 381.3,38.2031 L381.3,37.1094 Q381.3,35.8594 381.8938,34.7656 Q382.5031,33.6719 383.55,33.0938 Q384.6125,32.5 385.8,32.5 Q386.5188,32.5 387.1438,32.75 Q387.7688,33 388.3,33.5 Z " fill="#000000"/><text fill="#000000" font-family="sans-serif" font-size="12" lengthAdjust="spacing" textLength="48" x="401.7" y="41.9102">ShipBST</text><line style="stroke:#A80036;stroke-width:1.5;" x1="366" x2="458" y1="53" y2="53"/><line style="stroke:#A80036;stroke-width:1.5;" x1="366" x2="458" y1="61" y2="61"/><ellipse cx="376" cy="72" fill="#84BE84" rx="3" ry="3" style="stroke:#038048;stroke-width:1.0;"/><text fill="#000000" font-family="sans-serif" font-size="11" lengthAdjust="spacing" textLength="68" x="385" y="76.4189">getShipPairs()</text><!--MD5=[0dc7f2ddb409b58bcf52b12238c25399]
class Ship--><rect codeLine="18" fill="#FEFECE" filter="url(#f1afy7xtqnz78d)" height="75.6719" id="Ship" style="stroke:#A80036;stroke-width:1.5;" width="104" x="519" y="14"/><ellipse cx="555.15" cy="30" fill="#ADD1B2" rx="11" ry="11" style="stroke:#A80036;stroke-width:1.0;"/><path d="M557.15,26.5 Q557.3531,26 557.5875,25.75 Q557.8219,25.5 558.0875,25.5 Q558.5563,25.5 558.8531,25.7813 Q559.15,26.0625 559.15,26.7188 L559.15,28.2813 Q559.15,28.9375 558.8688,29.2188 Q558.5875,29.5 558.15,29.5 Q557.7594,29.5 557.5094,29.3281 Q557.2594,29.1563 557.15,28.7031 Q557.1031,28.3906 556.9313,28.2188 Q556.6188,27.8906 556.0563,27.7031 Q555.4938,27.5 554.9313,27.5 Q554.2281,27.5 553.6344,27.7813 Q553.0563,28.0625 552.6031,28.6875 Q552.15,29.3125 552.15,30.1719 L552.15,31.0938 Q552.15,32.125 552.9938,32.8125 Q553.8375,33.5 555.3375,33.5 Q556.2281,33.5 556.8531,33.2969 Q557.2125,33.1875 557.6188,32.8281 Q557.8844,32.625 558.025,32.5625 Q558.1656,32.5 558.3375,32.5 Q558.6656,32.5 558.9,32.7656 Q559.15,33.0156 559.15,33.375 Q559.15,33.7188 558.8063,34.125 Q558.3063,34.7188 557.5094,35.0469 Q556.4625,35.5 555.1813,35.5 Q553.6813,35.5 552.4781,34.9063 Q551.5094,34.4375 550.8219,33.4219 Q550.15,32.4063 550.15,31.2031 L550.15,30.1094 Q550.15,28.8594 550.7438,27.7656 Q551.3531,26.6719 552.4,26.0938 Q553.4625,25.5 554.65,25.5 Q555.3688,25.5 555.9938,25.75 Q556.6188,26 557.15,26.5 Z " fill="#000000"/><text fill="#000000" font-family="sans-serif" font-size="12" lengthAdjust="spacing" textLength="25" x="573.85" y="34.9102">Ship</text><line style="stroke:#A80036;stroke-width:1.5;" x1="520" x2="622" y1="46" y2="46"/><rect fill="none" height="6" style="stroke:#C82930;stroke-width:1.0;" width="6" x="527" y="54"/><text fill="#000000" font-family="sans-serif" font-size="11" lengthAdjust="spacing" textLength="78" x="539" y="61.4189">ShipPositionBST</text><line style="stroke:#A80036;stroke-width:1.5;" x1="520" x2="622" y1="67.8359" y2="67.8359"/><ellipse cx="530" cy="78.8359" fill="#84BE84" rx="3" ry="3" style="stroke:#038048;stroke-width:1.0;"/><text fill="#000000" font-family="sans-serif" font-size="11" lengthAdjust="spacing" textLength="66" x="539" y="83.2549">getPositions()</text><!--MD5=[e20f0e393e33b6317137adc5adb8f6b1]
class ShipPositionBST--><rect codeLine="23" fill="#FEFECE" filter="url(#f1afy7xtqnz78d)" height="48" id="ShipPositionBST" style="stroke:#A80036;stroke-width:1.5;" width="125" x="683" y="28"/><ellipse cx="698" cy="44" fill="#ADD1B2" rx="11" ry="11" style="stroke:#A80036;stroke-width:1.0;"/><path d="M700,40.5 Q700.2031,40 700.4375,39.75 Q700.6719,39.5 700.9375,39.5 Q701.4063,39.5 701.7031,39.7813 Q702,40.0625 702,40.7188 L702,42.2813 Q702,42.9375 701.7188,43.2188 Q701.4375,43.5 701,43.5 Q700.6094,43.5 700.3594,43.3281 Q700.1094,43.1563 700,42.7031 Q699.9531,42.3906 699.7813,42.2188 Q699.4688,41.8906 698.9063,41.7031 Q698.3438,41.5 697.7813,41.5 Q697.0781,41.5 696.4844,41.7813 Q695.9063,42.0625 695.4531,42.6875 Q695,43.3125 695,44.1719 L695,45.0938 Q695,46.125 695.8438,46.8125 Q696.6875,47.5 698.1875,47.5 Q699.0781,47.5 699.7031,47.2969 Q700.0625,47.1875 700.4688,46.8281 Q700.7344,46.625 700.875,46.5625 Q701.0156,46.5 701.1875,46.5 Q701.5156,46.5 701.75,46.7656 Q702,47.0156 702,47.375 Q702,47.7188 701.6563,48.125 Q701.1563,48.7188 700.3594,49.0469 Q699.3125,49.5 698.0313,49.5 Q696.5313,49.5 695.3281,48.9063 Q694.3594,48.4375 693.6719,47.4219 Q693,46.4063 693,45.2031 L693,44.1094 Q693,42.8594 693.5938,41.7656 Q694.2031,40.6719 695.25,40.0938 Q696.3125,39.5 697.5,39.5 Q698.2188,39.5 698.8438,39.75 Q699.4688,40 700,40.5 Z " fill="#000000"/><text fill="#000000" font-family="sans-serif" font-size="12" lengthAdjust="spacing" textLength="93" x="712" y="48.9102">ShipPositionBST</text><line style="stroke:#A80036;stroke-width:1.5;" x1="684" x2="807" y1="60" y2="60"/><line style="stroke:#A80036;stroke-width:1.5;" x1="684" x2="807" y1="68" y2="68"/><!--MD5=[1c0c3765e68dc4575d559b566278b914]
class ShipPosition--><rect codeLine="26" fill="#FEFECE" filter="url(#f1afy7xtqnz78d)" height="89.5078" id="ShipPosition" style="stroke:#A80036;stroke-width:1.5;" width="102" x="868" y="7"/><ellipse cx="883" cy="23" fill="#ADD1B2" rx="11" ry="11" style="stroke:#A80036;stroke-width:1.0;"/><path d="M885,19.5 Q885.2031,19 885.4375,18.75 Q885.6719,18.5 885.9375,18.5 Q886.4063,18.5 886.7031,18.7813 Q887,19.0625 887,19.7188 L887,21.2813 Q887,21.9375 886.7188,22.2188 Q886.4375,22.5 886,22.5 Q885.6094,22.5 885.3594,22.3281 Q885.1094,22.1563 885,21.7031 Q884.9531,21.3906 884.7813,21.2188 Q884.4688,20.8906 883.9063,20.7031 Q883.3438,20.5 882.7813,20.5 Q882.0781,20.5 881.4844,20.7813 Q880.9063,21.0625 880.4531,21.6875 Q880,22.3125 880,23.1719 L880,24.0938 Q880,25.125 880.8438,25.8125 Q881.6875,26.5 883.1875,26.5 Q884.0781,26.5 884.7031,26.2969 Q885.0625,26.1875 885.4688,25.8281 Q885.7344,25.625 885.875,25.5625 Q886.0156,25.5 886.1875,25.5 Q886.5156,25.5 886.75,25.7656 Q887,26.0156 887,26.375 Q887,26.7188 886.6563,27.125 Q886.1563,27.7188 885.3594,28.0469 Q884.3125,28.5 883.0313,28.5 Q881.5313,28.5 880.3281,27.9063 Q879.3594,27.4375 878.6719,26.4219 Q878,25.4063 878,24.2031 L878,23.1094 Q878,21.8594 878.5938,20.7656 Q879.2031,19.6719 880.25,19.0938 Q881.3125,18.5 882.5,18.5 Q883.2188,18.5 883.8438,18.75 Q884.4688,19 885,19.5 Z " fill="#000000"/><text fill="#000000" font-family="sans-serif" font-size="12" lengthAdjust="spacing" textLength="70" x="897" y="27.9102">ShipPosition</text><line style="stroke:#A80036;stroke-width:1.5;" x1="869" x2="969" y1="39" y2="39"/><rect fill="none" height="6" style="stroke:#C82930;stroke-width:1.0;" width="6" x="876" y="47"/><text fill="#000000" font-family="sans-serif" font-size="11" lengthAdjust="spacing" textLength="68" x="888" y="54.4189">baseDateTime</text><rect fill="none" height="6" style="stroke:#C82930;stroke-width:1.0;" width="6" x="876" y="60.8359"/><text fill="#000000" font-family="sans-serif" font-size="11" lengthAdjust="spacing" textLength="34" x="888" y="68.2549">latitude</text><rect fill="none" height="6" style="stroke:#C82930;stroke-width:1.0;" width="6" x="876" y="74.6719"/><text fill="#000000" font-family="sans-serif" font-size="11" lengthAdjust="spacing" textLength="43" x="888" y="82.0908">longitude</text><line style="stroke:#A80036;stroke-width:1.5;" x1="869" x2="969" y1="88.5078" y2="88.5078"/><!--MD5=[7b7c3c4c7e819c8086a36a8b0a953feb]
link ShipPairsUI to ShipPairsController--><path codeLine="32" d="M105.37,52 C122.11,52 141.29,52 159.64,52 " fill="none" id="ShipPairsUI-to-ShipPairsController" style="stroke:#A80036;stroke-width:1.0;stroke-dasharray:7.0,7.0;"/><polygon fill="#A80036" points="164.79,52,155.79,48,159.79,52,155.79,56,164.79,52" style="stroke:#A80036;stroke-width:1.0;"/><!--MD5=[2726870215bb94a1eb57be437dd5deda]
link ShipPairsController to ShipBST--><path codeLine="33" d="M305.16,52 C323.35,52 342.63,52 359.69,52 " fill="none" id="ShipPairsController-to-ShipBST" style="stroke:#A80036;stroke-width:1.0;stroke-dasharray:7.0,7.0;"/><polygon fill="#A80036" points="364.91,52,355.91,48,359.91,52,355.91,56,364.91,52" style="stroke:#A80036;stroke-width:1.0;"/><!--MD5=[922bf55421258cf59997e7143e4c17d9]
link ShipBST to Ship--><path codeLine="34" d="M459.26,52 C476.22,52 495.63,52 513.4,52 " fill="none" id="ShipBST-to-Ship" style="stroke:#A80036;stroke-width:1.0;"/><polygon fill="#A80036" points="518.86,52,509.86,48,513.86,52,509.86,56,518.86,52" style="stroke:#A80036;stroke-width:1.0;"/><!--MD5=[fcc3c640634b491ee14401e8240e2296]
link Ship to ShipPositionBST--><path codeLine="35" d="M623.29,52 C640.35,52 659.62,52 677.68,52 " fill="none" id="Ship-to-ShipPositionBST" style="stroke:#A80036;stroke-width:1.0;stroke-dasharray:7.0,7.0;"/><polygon fill="#A80036" points="682.75,52,673.7615,47.9743,677.75,51.9857,673.7386,55.9743,682.75,52" style="stroke:#A80036;stroke-width:1.0;"/><!--MD5=[1bed4ed7eef5fe20316f709ff53a66cc]
link ShipPositionBST to ShipPosition--><path codeLine="36" d="M808.42,52 C826.15,52 845.37,52 862.68,52 " fill="none" id="ShipPositionBST-to-ShipPosition" style="stroke:#A80036;stroke-width:1.0;"/><polygon fill="#A80036" points="867.99,52,858.99,48,862.99,52,858.99,56,867.99,52" style="stroke:#A80036;stroke-width:1.0;"/><!--MD5=[9d5cddff942576f688e0b6a50ad56ce3]
@startuml
'https://plantuml.com/class-diagram

left to right direction

class ShipPairsUI {
- controller
}

class ShipPairsController {
- ShipBST
+ getShipPairs()
}

class ShipBST {
+ getShipPairs()
}

class Ship {
- ShipPositionBST
+ getPositions()
}

class ShipPositionBST {
}

class ShipPosition {
-baseDateTime
-latitude
-longitude
}

ShipPairsUI ..> ShipPairsController
ShipPairsController ..> ShipBST
ShipBST - -> Ship
Ship ..> ShipPositionBST
ShipPositionBST - -> ShipPosition

@enduml

@startuml

left to right direction

class ShipPairsUI {
- controller
}

class ShipPairsController {
- ShipBST
+ getShipPairs()
}

class ShipBST {
+ getShipPairs()
}

class Ship {
- ShipPositionBST
+ getPositions()
}

class ShipPositionBST {
}

class ShipPosition {
-baseDateTime
-latitude
-longitude
}

ShipPairsUI ..> ShipPairsController
ShipPairsController ..> ShipBST
ShipBST - -> Ship
Ship ..> ShipPositionBST
ShipPositionBST - -> ShipPosition

@enduml

PlantUML version 1.2021.00(Sun Jan 10 10:25:05 GMT 2021)
(GPL source distribution)
Java Runtime: OpenJDK Runtime Environment
JVM: OpenJDK 64-Bit Server VM
Default Encoding: Cp1252
Language: en
Country: GB
--></g></svg>