<?xml version="1.0" encoding="UTF-8" standalone="no"?><svg xmlns="http://www.w3.org/2000/svg" xmlns:xlink="http://www.w3.org/1999/xlink" contentScriptType="application/ecmascript" contentStyleType="text/css" height="413px" preserveAspectRatio="none" style="width:610px;height:413px;" version="1.1" viewBox="0 0 610 413" width="610px" zoomAndPan="magnify"><defs><filter height="300%" id="f4xq7pamys8zn" width="300%" x="-1" y="-1"><feGaussianBlur result="blurOut" stdDeviation="2.0"/><feColorMatrix in="blurOut" result="blurOut2" type="matrix" values="0 0 0 0 0 0 0 0 0 0 0 0 0 0 0 0 0 0 .4 0"/><feOffset dx="4.0" dy="4.0" in="blurOut2" result="blurOut3"/><feBlend in="SourceGraphic" in2="blurOut3" mode="normal"/></filter></defs><g><!--MD5=[02e4b9b7573f1156f41e60aa5b4e25a4]
class Company--><rect codeLine="7" fill="#FEFECE" filter="url(#f4xq7pamys8zn)" height="61.8359" id="Company" style="stroke:#A80036;stroke-width:1.5;" width="85" x="7" y="151.5"/><ellipse cx="22" cy="167.5" fill="#ADD1B2" rx="11" ry="11" style="stroke:#A80036;stroke-width:1.0;"/><path d="M24,164 Q24.2031,163.5 24.4375,163.25 Q24.6719,163 24.9375,163 Q25.4063,163 25.7031,163.2813 Q26,163.5625 26,164.2188 L26,165.7813 Q26,166.4375 25.7188,166.7188 Q25.4375,167 25,167 Q24.6094,167 24.3594,166.8281 Q24.1094,166.6563 24,166.2031 Q23.9531,165.8906 23.7813,165.7188 Q23.4688,165.3906 22.9063,165.2031 Q22.3438,165 21.7813,165 Q21.0781,165 20.4844,165.2813 Q19.9063,165.5625 19.4531,166.1875 Q19,166.8125 19,167.6719 L19,168.5938 Q19,169.625 19.8438,170.3125 Q20.6875,171 22.1875,171 Q23.0781,171 23.7031,170.7969 Q24.0625,170.6875 24.4688,170.3281 Q24.7344,170.125 24.875,170.0625 Q25.0156,170 25.1875,170 Q25.5156,170 25.75,170.2656 Q26,170.5156 26,170.875 Q26,171.2188 25.6563,171.625 Q25.1563,172.2188 24.3594,172.5469 Q23.3125,173 22.0313,173 Q20.5313,173 19.3281,172.4063 Q18.3594,171.9375 17.6719,170.9219 Q17,169.9063 17,168.7031 L17,167.6094 Q17,166.3594 17.5938,165.2656 Q18.2031,164.1719 19.25,163.5938 Q20.3125,163 21.5,163 Q22.2188,163 22.8438,163.25 Q23.4688,163.5 24,164 Z " fill="#000000"/><text fill="#000000" font-family="sans-serif" font-size="12" lengthAdjust="spacing" textLength="53" x="36" y="172.4102">Company</text><line style="stroke:#A80036;stroke-width:1.5;" x1="8" x2="91" y1="183.5" y2="183.5"/><text fill="#000000" font-family="sans-serif" font-size="11" lengthAdjust="spacing" textLength="60" x="13" y="198.9189">-Designation</text><line style="stroke:#A80036;stroke-width:1.5;" x1="8" x2="91" y1="205.3359" y2="205.3359"/><!--MD5=[a0bfe97ac0a38e6e74cc1c7c7b744b71]
class Port--><rect codeLine="11" fill="#FEFECE" filter="url(#f4xq7pamys8zn)" height="158.6875" id="Port" style="stroke:#A80036;stroke-width:1.5;" width="77" x="488" y="7"/><ellipse cx="513.35" cy="23" fill="#ADD1B2" rx="11" ry="11" style="stroke:#A80036;stroke-width:1.0;"/><path d="M515.35,19.5 Q515.5531,19 515.7875,18.75 Q516.0219,18.5 516.2875,18.5 Q516.7563,18.5 517.0531,18.7813 Q517.35,19.0625 517.35,19.7188 L517.35,21.2813 Q517.35,21.9375 517.0688,22.2188 Q516.7875,22.5 516.35,22.5 Q515.9594,22.5 515.7094,22.3281 Q515.4594,22.1563 515.35,21.7031 Q515.3031,21.3906 515.1313,21.2188 Q514.8188,20.8906 514.2563,20.7031 Q513.6938,20.5 513.1313,20.5 Q512.4281,20.5 511.8344,20.7813 Q511.2563,21.0625 510.8031,21.6875 Q510.35,22.3125 510.35,23.1719 L510.35,24.0938 Q510.35,25.125 511.1938,25.8125 Q512.0375,26.5 513.5375,26.5 Q514.4281,26.5 515.0531,26.2969 Q515.4125,26.1875 515.8188,25.8281 Q516.0844,25.625 516.225,25.5625 Q516.3656,25.5 516.5375,25.5 Q516.8656,25.5 517.1,25.7656 Q517.35,26.0156 517.35,26.375 Q517.35,26.7188 517.0063,27.125 Q516.5063,27.7188 515.7094,28.0469 Q514.6625,28.5 513.3813,28.5 Q511.8813,28.5 510.6781,27.9063 Q509.7094,27.4375 509.0219,26.4219 Q508.35,25.4063 508.35,24.2031 L508.35,23.1094 Q508.35,21.8594 508.9438,20.7656 Q509.5531,19.6719 510.6,19.0938 Q511.6625,18.5 512.85,18.5 Q513.5688,18.5 514.1938,18.75 Q514.8188,19 515.35,19.5 Z " fill="#000000"/><text fill="#000000" font-family="sans-serif" font-size="12" lengthAdjust="spacing" textLength="22" x="529.65" y="27.9102">Port</text><line style="stroke:#A80036;stroke-width:1.5;" x1="489" x2="564" y1="39" y2="39"/><text fill="#000000" font-family="sans-serif" font-size="11" lengthAdjust="spacing" textLength="64" x="494" y="54.4189">-Identification</text><text fill="#000000" font-family="sans-serif" font-size="11" lengthAdjust="spacing" textLength="31" x="494" y="68.2549">-Name</text><text fill="#000000" font-family="sans-serif" font-size="11" lengthAdjust="spacing" textLength="49" x="494" y="82.0908">-Continent</text><text fill="#000000" font-family="sans-serif" font-size="11" lengthAdjust="spacing" textLength="42" x="494" y="95.9268">-Country</text><text fill="#000000" font-family="sans-serif" font-size="11" lengthAdjust="spacing" textLength="42" x="494" y="109.7627">-Latitude</text><text fill="#000000" font-family="sans-serif" font-size="11" lengthAdjust="spacing" textLength="47" x="494" y="123.5986">-longitude</text><text fill="#000000" font-family="sans-serif" font-size="11" lengthAdjust="spacing" textLength="65" x="494" y="137.4346">-PortMagager</text><text fill="#000000" font-family="sans-serif" font-size="11" lengthAdjust="spacing" textLength="47" x="494" y="151.2705">-PortStaff</text><line style="stroke:#A80036;stroke-width:1.5;" x1="489" x2="564" y1="157.6875" y2="157.6875"/><!--MD5=[0dc7f2ddb409b58bcf52b12238c25399]
class Ship--><rect codeLine="22" fill="#FEFECE" filter="url(#f4xq7pamys8zn)" height="241.7031" id="Ship" style="stroke:#A80036;stroke-width:1.5;" width="161" x="200" y="157.5"/><ellipse cx="263.75" cy="173.5" fill="#ADD1B2" rx="11" ry="11" style="stroke:#A80036;stroke-width:1.0;"/><path d="M265.75,170 Q265.9531,169.5 266.1875,169.25 Q266.4219,169 266.6875,169 Q267.1563,169 267.4531,169.2813 Q267.75,169.5625 267.75,170.2188 L267.75,171.7813 Q267.75,172.4375 267.4688,172.7188 Q267.1875,173 266.75,173 Q266.3594,173 266.1094,172.8281 Q265.8594,172.6563 265.75,172.2031 Q265.7031,171.8906 265.5313,171.7188 Q265.2188,171.3906 264.6563,171.2031 Q264.0938,171 263.5313,171 Q262.8281,171 262.2344,171.2813 Q261.6563,171.5625 261.2031,172.1875 Q260.75,172.8125 260.75,173.6719 L260.75,174.5938 Q260.75,175.625 261.5938,176.3125 Q262.4375,177 263.9375,177 Q264.8281,177 265.4531,176.7969 Q265.8125,176.6875 266.2188,176.3281 Q266.4844,176.125 266.625,176.0625 Q266.7656,176 266.9375,176 Q267.2656,176 267.5,176.2656 Q267.75,176.5156 267.75,176.875 Q267.75,177.2188 267.4063,177.625 Q266.9063,178.2188 266.1094,178.5469 Q265.0625,179 263.7813,179 Q262.2813,179 261.0781,178.4063 Q260.1094,177.9375 259.4219,176.9219 Q258.75,175.9063 258.75,174.7031 L258.75,173.6094 Q258.75,172.3594 259.3438,171.2656 Q259.9531,170.1719 261,169.5938 Q262.0625,169 263.25,169 Q263.9688,169 264.5938,169.25 Q265.2188,169.5 265.75,170 Z " fill="#000000"/><text fill="#000000" font-family="sans-serif" font-size="12" lengthAdjust="spacing" textLength="25" x="284.25" y="178.4102">Ship</text><line style="stroke:#A80036;stroke-width:1.5;" x1="201" x2="360" y1="189.5" y2="189.5"/><text fill="#000000" font-family="sans-serif" font-size="11" lengthAdjust="spacing" textLength="29" x="206" y="204.9189">-MMSI</text><text fill="#000000" font-family="sans-serif" font-size="11" lengthAdjust="spacing" textLength="31" x="206" y="218.7549">-Name</text><text fill="#000000" font-family="sans-serif" font-size="11" lengthAdjust="spacing" textLength="22" x="206" y="232.5908">-IMO</text><text fill="#000000" font-family="sans-serif" font-size="11" lengthAdjust="spacing" textLength="149" x="206" y="246.4268">-Number of Energy Generators</text><text fill="#000000" font-family="sans-serif" font-size="11" lengthAdjust="spacing" textLength="131" x="206" y="260.2627">-Generators' Power Output</text><text fill="#000000" font-family="sans-serif" font-size="11" lengthAdjust="spacing" textLength="44" x="206" y="274.0986">-Call sign</text><text fill="#000000" font-family="sans-serif" font-size="11" lengthAdjust="spacing" textLength="62" x="206" y="287.9346">-Vessel type</text><text fill="#000000" font-family="sans-serif" font-size="11" lengthAdjust="spacing" textLength="37" x="206" y="301.7705">-Length</text><text fill="#000000" font-family="sans-serif" font-size="11" lengthAdjust="spacing" textLength="31" x="206" y="315.6064">-Width</text><text fill="#000000" font-family="sans-serif" font-size="11" lengthAdjust="spacing" textLength="46" x="206" y="329.4424">-Capacity</text><text fill="#000000" font-family="sans-serif" font-size="11" lengthAdjust="spacing" textLength="28" x="206" y="343.2783">-Draft</text><text fill="#000000" font-family="sans-serif" font-size="11" lengthAdjust="spacing" textLength="69" x="206" y="357.1143">-FleetManager</text><text fill="#000000" font-family="sans-serif" font-size="11" lengthAdjust="spacing" textLength="61" x="206" y="370.9502">-ShipCaptain</text><text fill="#000000" font-family="sans-serif" font-size="11" lengthAdjust="spacing" textLength="135" x="206" y="384.7861">-ShipChiefElectricalEngineer</text><line style="stroke:#A80036;stroke-width:1.5;" x1="201" x2="360" y1="391.2031" y2="391.2031"/><!--MD5=[1c0c3765e68dc4575d559b566278b914]
class ShipPosition--><rect codeLine="39" fill="#FEFECE" filter="url(#f4xq7pamys8zn)" height="158.6875" id="ShipPosition" style="stroke:#A80036;stroke-width:1.5;" width="139" x="457" y="201"/><ellipse cx="488.65" cy="217" fill="#ADD1B2" rx="11" ry="11" style="stroke:#A80036;stroke-width:1.0;"/><path d="M490.65,213.5 Q490.8531,213 491.0875,212.75 Q491.3219,212.5 491.5875,212.5 Q492.0563,212.5 492.3531,212.7813 Q492.65,213.0625 492.65,213.7188 L492.65,215.2813 Q492.65,215.9375 492.3688,216.2188 Q492.0875,216.5 491.65,216.5 Q491.2594,216.5 491.0094,216.3281 Q490.7594,216.1563 490.65,215.7031 Q490.6031,215.3906 490.4313,215.2188 Q490.1188,214.8906 489.5563,214.7031 Q488.9938,214.5 488.4313,214.5 Q487.7281,214.5 487.1344,214.7813 Q486.5563,215.0625 486.1031,215.6875 Q485.65,216.3125 485.65,217.1719 L485.65,218.0938 Q485.65,219.125 486.4938,219.8125 Q487.3375,220.5 488.8375,220.5 Q489.7281,220.5 490.3531,220.2969 Q490.7125,220.1875 491.1188,219.8281 Q491.3844,219.625 491.525,219.5625 Q491.6656,219.5 491.8375,219.5 Q492.1656,219.5 492.4,219.7656 Q492.65,220.0156 492.65,220.375 Q492.65,220.7188 492.3063,221.125 Q491.8063,221.7188 491.0094,222.0469 Q489.9625,222.5 488.6813,222.5 Q487.1813,222.5 485.9781,221.9063 Q485.0094,221.4375 484.3219,220.4219 Q483.65,219.4063 483.65,218.2031 L483.65,217.1094 Q483.65,215.8594 484.2438,214.7656 Q484.8531,213.6719 485.9,213.0938 Q486.9625,212.5 488.15,212.5 Q488.8688,212.5 489.4938,212.75 Q490.1188,213 490.65,213.5 Z " fill="#000000"/><text fill="#000000" font-family="sans-serif" font-size="12" lengthAdjust="spacing" textLength="70" x="506.35" y="221.9102">ShipPosition</text><line style="stroke:#A80036;stroke-width:1.5;" x1="458" x2="595" y1="233" y2="233"/><text fill="#000000" font-family="sans-serif" font-size="11" lengthAdjust="spacing" textLength="79" x="463" y="248.4189">-Base Date Time</text><text fill="#000000" font-family="sans-serif" font-size="11" lengthAdjust="spacing" textLength="42" x="463" y="262.2549">-Latitude</text><text fill="#000000" font-family="sans-serif" font-size="11" lengthAdjust="spacing" textLength="51" x="463" y="276.0908">-Longitude</text><text fill="#000000" font-family="sans-serif" font-size="11" lengthAdjust="spacing" textLength="123" x="463" y="289.9268">-Speed over ground SOG</text><text fill="#000000" font-family="sans-serif" font-size="11" lengthAdjust="spacing" textLength="127" x="463" y="303.7627">-Course over ground COG</text><text fill="#000000" font-family="sans-serif" font-size="11" lengthAdjust="spacing" textLength="43" x="463" y="317.5986">-Heading</text><text fill="#000000" font-family="sans-serif" font-size="11" lengthAdjust="spacing" textLength="41" x="463" y="331.4346">-Position</text><text fill="#000000" font-family="sans-serif" font-size="11" lengthAdjust="spacing" textLength="92" x="463" y="345.2705">-Transceiver Class</text><line style="stroke:#A80036;stroke-width:1.5;" x1="458" x2="595" y1="351.6875" y2="351.6875"/><!--MD5=[5fd98a8c03cc0e5a408f548eb1c0ace8]
link Company to Port--><path codeLine="50" d="M92.04,169.11 C121.85,159.86 163.11,147.78 200,139.5 C303.07,116.37 426.64,99.05 487.63,91.18 " fill="none" id="Company-Port" style="stroke:#A80036;stroke-width:1.0;"/><polygon fill="#000000" points="266.4057,100.7094,256.9632,99.5741,258.0992,105.3411,266.4057,100.7094" style="stroke:#000000;stroke-width:1.0;"/><text fill="#000000" font-family="sans-serif" font-size="13" lengthAdjust="spacing" textLength="33" x="270.5" y="106.9951">Owns</text><text fill="#000000" font-family="sans-serif" font-size="13" lengthAdjust="spacing" textLength="7" x="99.9531" y="181.723">1</text><text fill="#000000" font-family="sans-serif" font-size="13" lengthAdjust="spacing" textLength="5" x="475.0024" y="107.0742">*</text><!--MD5=[37a14a5de6d6fd738aee271300f4b5c8]
link Company to Ship--><path codeLine="51" d="M92.24,200 C122.17,212.54 163.42,229.84 199.59,245 " fill="none" id="Company-Ship" style="stroke:#A80036;stroke-width:1.0;"/><polygon fill="#000000" points="131.6112,207.6088,124.4056,201.4015,122.1332,206.8224,131.6112,207.6088" style="stroke:#000000;stroke-width:1.0;"/><text fill="#000000" font-family="sans-serif" font-size="13" lengthAdjust="spacing" textLength="33" x="136" y="210.9951">Owns</text><text fill="#000000" font-family="sans-serif" font-size="13" lengthAdjust="spacing" textLength="7" x="99.8985" y="217.7613">1</text><text fill="#000000" font-family="sans-serif" font-size="13" lengthAdjust="spacing" textLength="20" x="172.0615" y="256.4102">1..*</text><!--MD5=[f56e222e1748568825f030a9b791275e]
link Ship to ShipPosition--><path codeLine="52" d="M361.06,279.15 C391.93,279.41 426.95,279.69 456.71,279.94 " fill="none" id="Ship-ShipPosition" style="stroke:#A80036;stroke-width:1.0;"/><polygon fill="#000000" points="400.9998,270.7171,391.9793,267.7035,391.9308,273.5812,400.9998,270.7171" style="stroke:#000000;stroke-width:1.0;"/><text fill="#000000" font-family="sans-serif" font-size="13" lengthAdjust="spacing" textLength="21" x="405" y="275.9951">has</text><text fill="#000000" font-family="sans-serif" font-size="13" lengthAdjust="spacing" textLength="7" x="369.072" y="293.5005">1</text><text fill="#000000" font-family="sans-serif" font-size="13" lengthAdjust="spacing" textLength="20" x="429.105" y="294.1759">1..*</text><!--MD5=[67eac4f3acdd02850cb2b347fe9a6f83]
@startuml
'https://plantuml.com/class-diagram

skinparam classAttributeIconSize 0

left to right direction

class Company {
-Designation
}

class Port {
-Identification
-Name
-Continent
-Country
-Latitude
-longitude
-PortMagager
-PortStaff
}

class Ship {
-MMSI
-Name
-IMO
-Number of Energy Generators
-Generators' Power Output
-Call sign
-Vessel type
-Length
-Width
-Capacity
-Draft
-FleetManager
-ShipCaptain
-ShipChiefElectricalEngineer
}

class ShipPosition {
-Base Date Time
-Latitude
-Longitude
-Speed over ground SOG
-Course over ground COG
-Heading
-Position
-Transceiver Class
}

Company "1" - - - "*" Port : Owns >
Company "1" - - "1..*" Ship : Owns >
Ship "1" - - "1..*" ShipPosition : has >
@enduml

@startuml

skinparam classAttributeIconSize 0

left to right direction

class Company {
-Designation
}

class Port {
-Identification
-Name
-Continent
-Country
-Latitude
-longitude
-PortMagager
-PortStaff
}

class Ship {
-MMSI
-Name
-IMO
-Number of Energy Generators
-Generators' Power Output
-Call sign
-Vessel type
-Length
-Width
-Capacity
-Draft
-FleetManager
-ShipCaptain
-ShipChiefElectricalEngineer
}

class ShipPosition {
-Base Date Time
-Latitude
-Longitude
-Speed over ground SOG
-Course over ground COG
-Heading
-Position
-Transceiver Class
}

Company "1" - - - "*" Port : Owns >
Company "1" - - "1..*" Ship : Owns >
Ship "1" - - "1..*" ShipPosition : has >
@enduml

PlantUML version 1.2021.00(Sun Jan 10 10:25:05 GMT 2021)
(GPL source distribution)
Java Runtime: OpenJDK Runtime Environment
JVM: OpenJDK 64-Bit Server VM
Default Encoding: Cp1252
Language: pt
Country: PT
--></g></svg>