<?xml version="1.0" encoding="UTF-8" standalone="no"?><svg xmlns="http://www.w3.org/2000/svg" xmlns:xlink="http://www.w3.org/1999/xlink" contentScriptType="application/ecmascript" contentStyleType="text/css" height="326px" preserveAspectRatio="none" style="width:190px;height:326px;" version="1.1" viewBox="0 0 190 326" width="190px" zoomAndPan="magnify"><defs><filter height="300%" id="fwioy76zzeb78" width="300%" x="-1" y="-1"><feGaussianBlur result="blurOut" stdDeviation="2.0"/><feColorMatrix in="blurOut" result="blurOut2" type="matrix" values="0 0 0 0 0 0 0 0 0 0 0 0 0 0 0 0 0 0 .4 0"/><feOffset dx="4.0" dy="4.0" in="blurOut2" result="blurOut3"/><feBlend in="SourceGraphic" in2="blurOut3" mode="normal"/></filter></defs><g><!--MD5=[a9b7277d837f9c8b08ee99315e97db01]
class TripGeneratorsUI--><rect codeLine="3" fill="#FEFECE" filter="url(#fwioy76zzeb78)" height="61.8359" id="TripGeneratorsUI" style="stroke:#A80036;stroke-width:1.5;" width="127" x="28" y="251"/><ellipse cx="43" cy="267" fill="#ADD1B2" rx="11" ry="11" style="stroke:#A80036;stroke-width:1.0;"/><path d="M45,263.5 Q45.2031,263 45.4375,262.75 Q45.6719,262.5 45.9375,262.5 Q46.4063,262.5 46.7031,262.7813 Q47,263.0625 47,263.7188 L47,265.2813 Q47,265.9375 46.7188,266.2188 Q46.4375,266.5 46,266.5 Q45.6094,266.5 45.3594,266.3281 Q45.1094,266.1563 45,265.7031 Q44.9531,265.3906 44.7813,265.2188 Q44.4688,264.8906 43.9063,264.7031 Q43.3438,264.5 42.7813,264.5 Q42.0781,264.5 41.4844,264.7813 Q40.9063,265.0625 40.4531,265.6875 Q40,266.3125 40,267.1719 L40,268.0938 Q40,269.125 40.8438,269.8125 Q41.6875,270.5 43.1875,270.5 Q44.0781,270.5 44.7031,270.2969 Q45.0625,270.1875 45.4688,269.8281 Q45.7344,269.625 45.875,269.5625 Q46.0156,269.5 46.1875,269.5 Q46.5156,269.5 46.75,269.7656 Q47,270.0156 47,270.375 Q47,270.7188 46.6563,271.125 Q46.1563,271.7188 45.3594,272.0469 Q44.3125,272.5 43.0313,272.5 Q41.5313,272.5 40.3281,271.9063 Q39.3594,271.4375 38.6719,270.4219 Q38,269.4063 38,268.2031 L38,267.1094 Q38,265.8594 38.5938,264.7656 Q39.2031,263.6719 40.25,263.0938 Q41.3125,262.5 42.5,262.5 Q43.2188,262.5 43.8438,262.75 Q44.4688,263 45,263.5 Z " fill="#000000"/><text fill="#000000" font-family="sans-serif" font-size="12" lengthAdjust="spacing" textLength="95" x="57" y="271.9102">TripGeneratorsUI</text><line style="stroke:#A80036;stroke-width:1.5;" x1="29" x2="154" y1="283" y2="283"/><rect fill="none" height="6" style="stroke:#C82930;stroke-width:1.0;" width="6" x="36" y="291"/><text fill="#000000" font-family="sans-serif" font-size="11" lengthAdjust="spacing" textLength="45" x="48" y="298.4189">controller</text><line style="stroke:#A80036;stroke-width:1.5;" x1="29" x2="154" y1="304.8359" y2="304.8359"/><!--MD5=[5330c3e2c3f7209bc047e46717125e5b]
class TripGeneratorsController--><rect codeLine="7" fill="#FEFECE" filter="url(#fwioy76zzeb78)" height="61.8359" id="TripGeneratorsController" style="stroke:#A80036;stroke-width:1.5;" width="169" x="7" y="129"/><ellipse cx="22" cy="145" fill="#ADD1B2" rx="11" ry="11" style="stroke:#A80036;stroke-width:1.0;"/><path d="M24,141.5 Q24.2031,141 24.4375,140.75 Q24.6719,140.5 24.9375,140.5 Q25.4063,140.5 25.7031,140.7813 Q26,141.0625 26,141.7188 L26,143.2813 Q26,143.9375 25.7188,144.2188 Q25.4375,144.5 25,144.5 Q24.6094,144.5 24.3594,144.3281 Q24.1094,144.1563 24,143.7031 Q23.9531,143.3906 23.7813,143.2188 Q23.4688,142.8906 22.9063,142.7031 Q22.3438,142.5 21.7813,142.5 Q21.0781,142.5 20.4844,142.7813 Q19.9063,143.0625 19.4531,143.6875 Q19,144.3125 19,145.1719 L19,146.0938 Q19,147.125 19.8438,147.8125 Q20.6875,148.5 22.1875,148.5 Q23.0781,148.5 23.7031,148.2969 Q24.0625,148.1875 24.4688,147.8281 Q24.7344,147.625 24.875,147.5625 Q25.0156,147.5 25.1875,147.5 Q25.5156,147.5 25.75,147.7656 Q26,148.0156 26,148.375 Q26,148.7188 25.6563,149.125 Q25.1563,149.7188 24.3594,150.0469 Q23.3125,150.5 22.0313,150.5 Q20.5313,150.5 19.3281,149.9063 Q18.3594,149.4375 17.6719,148.4219 Q17,147.4063 17,146.2031 L17,145.1094 Q17,143.8594 17.5938,142.7656 Q18.2031,141.6719 19.25,141.0938 Q20.3125,140.5 21.5,140.5 Q22.2188,140.5 22.8438,140.75 Q23.4688,141 24,141.5 Z " fill="#000000"/><text fill="#000000" font-family="sans-serif" font-size="12" lengthAdjust="spacing" textLength="137" x="36" y="149.9102">TripGeneratorsController</text><line style="stroke:#A80036;stroke-width:1.5;" x1="8" x2="175" y1="161" y2="161"/><line style="stroke:#A80036;stroke-width:1.5;" x1="8" x2="175" y1="169" y2="169"/><ellipse cx="18" cy="180" fill="#84BE84" rx="3" ry="3" style="stroke:#038048;stroke-width:1.0;"/><text fill="#000000" font-family="sans-serif" font-size="11" lengthAdjust="spacing" textLength="123" x="27" y="184.4189">getTripGenerators(trip ID)</text><!--MD5=[25c9184b3670462bf1e9d78536605227]
class DatabaseFunctions--><rect codeLine="11" fill="#FEFECE" filter="url(#fwioy76zzeb78)" height="61.8359" id="DatabaseFunctions" style="stroke:#A80036;stroke-width:1.5;" width="149" x="17" y="7"/><ellipse cx="36.05" cy="23" fill="#ADD1B2" rx="11" ry="11" style="stroke:#A80036;stroke-width:1.0;"/><path d="M38.05,19.5 Q38.2531,19 38.4875,18.75 Q38.7219,18.5 38.9875,18.5 Q39.4563,18.5 39.7531,18.7813 Q40.05,19.0625 40.05,19.7188 L40.05,21.2813 Q40.05,21.9375 39.7688,22.2188 Q39.4875,22.5 39.05,22.5 Q38.6594,22.5 38.4094,22.3281 Q38.1594,22.1563 38.05,21.7031 Q38.0031,21.3906 37.8313,21.2188 Q37.5188,20.8906 36.9563,20.7031 Q36.3938,20.5 35.8313,20.5 Q35.1281,20.5 34.5344,20.7813 Q33.9563,21.0625 33.5031,21.6875 Q33.05,22.3125 33.05,23.1719 L33.05,24.0938 Q33.05,25.125 33.8938,25.8125 Q34.7375,26.5 36.2375,26.5 Q37.1281,26.5 37.7531,26.2969 Q38.1125,26.1875 38.5188,25.8281 Q38.7844,25.625 38.925,25.5625 Q39.0656,25.5 39.2375,25.5 Q39.5656,25.5 39.8,25.7656 Q40.05,26.0156 40.05,26.375 Q40.05,26.7188 39.7063,27.125 Q39.2063,27.7188 38.4094,28.0469 Q37.3625,28.5 36.0813,28.5 Q34.5813,28.5 33.3781,27.9063 Q32.4094,27.4375 31.7219,26.4219 Q31.05,25.4063 31.05,24.2031 L31.05,23.1094 Q31.05,21.8594 31.6437,20.7656 Q32.2531,19.6719 33.3,19.0938 Q34.3625,18.5 35.55,18.5 Q36.2688,18.5 36.8938,18.75 Q37.5188,19 38.05,19.5 Z " fill="#000000"/><text fill="#000000" font-family="sans-serif" font-size="12" lengthAdjust="spacing" textLength="108" x="50.95" y="27.9102">DatabaseFunctions</text><line style="stroke:#A80036;stroke-width:1.5;" x1="18" x2="165" y1="39" y2="39"/><line style="stroke:#A80036;stroke-width:1.5;" x1="18" x2="165" y1="47" y2="47"/><ellipse cx="28" cy="58" fill="#84BE84" rx="3" ry="3" style="stroke:#038048;stroke-width:1.0;"/><text fill="#000000" font-family="sans-serif" font-size="11" lengthAdjust="spacing" textLength="123" x="37" y="62.4189">getTripGenerators(trip ID)</text><!--MD5=[170e2a9342b096f068123279aa4ce576]
reverse link TripGeneratorsController to TripGeneratorsUI--><path codeLine="15" d="M91.5,196.52 C91.5,213.75 91.5,234.24 91.5,250.73 " fill="none" id="TripGeneratorsController-backto-TripGeneratorsUI" style="stroke:#A80036;stroke-width:1.0;stroke-dasharray:7.0,7.0;"/><polygon fill="#A80036" points="91.5,191.28,87.5,200.28,91.5,196.28,95.5,200.28,91.5,191.28" style="stroke:#A80036;stroke-width:1.0;"/><!--MD5=[432dec1eb82d7d34a7a22cd1e577e4c9]
reverse link DatabaseFunctions to TripGeneratorsController--><path codeLine="16" d="M91.5,74.52 C91.5,91.75 91.5,112.24 91.5,128.73 " fill="none" id="DatabaseFunctions-backto-TripGeneratorsController" style="stroke:#A80036;stroke-width:1.0;stroke-dasharray:7.0,7.0;"/><polygon fill="#A80036" points="91.5,69.28,87.5,78.28,91.5,74.28,95.5,78.28,91.5,69.28" style="stroke:#A80036;stroke-width:1.0;"/><!--MD5=[775f766429b15b0db22d122224662c25]
@startuml
'https://plantuml.com/class-diagram

class TripGeneratorsUI {
- controller
}

class TripGeneratorsController {
+ getTripGenerators(trip ID)
}

class DatabaseFunctions {
+ getTripGenerators(trip ID)
}

TripGeneratorsController <.. TripGeneratorsUI
DatabaseFunctions <.. TripGeneratorsController

@enduml

@startuml

class TripGeneratorsUI {
- controller
}

class TripGeneratorsController {
+ getTripGenerators(trip ID)
}

class DatabaseFunctions {
+ getTripGenerators(trip ID)
}

TripGeneratorsController <.. TripGeneratorsUI
DatabaseFunctions <.. TripGeneratorsController

@enduml

PlantUML version 1.2021.00(Sun Jan 10 10:25:05 GMT 2021)
(GPL source distribution)
Java Runtime: OpenJDK Runtime Environment
JVM: OpenJDK 64-Bit Server VM
Default Encoding: Cp1252
Language: en
Country: GB
--></g></svg>